<?xml version="1.0" standalone="no"?>
<!DOCTYPE svg PUBLIC "-//W3C//DTD SVG 20010904//EN"
 "http://www.w3.org/TR/2001/REC-SVG-20010904/DTD/svg10.dtd">
<svg version="1.0" xmlns="http://www.w3.org/2000/svg"
 width="384.000000pt" height="384.000000pt" viewBox="0 0 384.000000 384.000000"
 preserveAspectRatio="xMidYMid meet">
<metadata>
Created by potrace 1.16, written by Peter Selinger 2001-2019
</metadata>
<g transform="translate(0.000000,384.000000) scale(0.100000,-0.100000)"
fill="#000000" stroke="none">
<path d="M2587 3554 c-4 -4 -7 -297 -7 -651 0 -353 -3 -643 -7 -643 -5 0 -30
9 -58 19 l-50 19 -3 451 -2 451 -240 0 -240 0 0 -405 0 -405 -65 0 -65 0 0
505 0 505 -240 0 -240 0 0 -549 0 -548 -51 -22 c-29 -11 -56 -21 -60 -21 -5 0
-10 190 -11 423 l-3 422 -240 0 -240 0 -3 -581 -2 -581 -71 -74 c-79 -82 -186
-222 -243 -316 -119 -200 -244 -573 -206 -618 10 -12 51 -15 236 -15 254 0
229 -10 259 100 48 176 170 384 304 519 424 426 1067 490 1566 155 92 -62 203
-159 193 -169 -4 -4 -125 -44 -270 -89 -259 -81 -265 -84 -362 -151 l-99 -68
-51 14 c-126 33 -255 1 -341 -85 -80 -80 -100 -131 -100 -251 0 -90 3 -105 28
-153 62 -117 162 -183 292 -190 65 -3 91 0 138 18 86 33 147 86 189 167 l37
69 130 63 c129 63 130 64 347 263 201 183 219 198 232 181 28 -37 92 -181 117
-263 46 -147 10 -130 269 -130 185 0 226 3 236 15 17 20 -1 116 -47 260 -82
257 -226 495 -414 687 l-59 60 -2 807 -3 806 -236 3 c-129 1 -238 -1 -242 -4z
m383 -809 c0 -581 -2 -714 -13 -708 -7 4 -46 31 -87 59 -41 28 -101 65 -132
83 l-58 32 0 625 0 624 145 0 145 0 0 -715z m-1212 99 l2 -462 -57 -7 c-57 -7
-182 -30 -215 -41 -17 -5 -18 23 -18 486 l0 491 143 -3 142 -3 3 -461z m602
-125 c0 -367 -1 -390 -17 -385 -34 11 -159 34 -215 41 l-58 7 0 357 c0 197 3
361 7 364 3 4 69 7 145 7 l138 0 0 -391z m-1210 -109 l0 -399 -72 -42 c-40
-23 -100 -61 -133 -83 -33 -23 -66 -45 -72 -49 -10 -7 -13 92 -13 482 l0 491
145 0 145 0 0 -400z m1008 -336 c521 -77 981 -418 1212 -899 47 -97 101 -252
115 -328 l7 -38 -146 3 -147 3 -30 90 c-17 50 -54 136 -84 192 l-54 102 57 55
c31 30 69 64 83 75 34 26 41 54 22 81 -19 26 -29 25 -175 -20 l-107 -34 -78
75 c-176 168 -372 276 -609 336 -101 26 -124 28 -309 28 -186 0 -208 -2 -310
-28 -444 -112 -802 -439 -944 -862 l-30 -90 -147 -3 -146 -3 7 38 c4 21 20 81
37 133 126 395 416 737 790 930 169 88 334 139 558 173 69 11 332 6 428 -9z
m797 -813 c-6 -5 -116 -107 -245 -226 -214 -197 -244 -220 -332 -266 -54 -27
-102 -49 -108 -49 -5 0 -10 10 -10 23 0 42 -29 111 -70 164 l-39 52 82 55 c77
53 100 62 397 155 331 104 340 107 325 92z m-934 -335 c161 -77 196 -285 69
-408 -34 -33 -65 -52 -101 -62 -65 -20 -83 -20 -146 -1 -133 40 -214 191 -169
318 28 77 83 134 160 164 42 17 143 11 187 -11z"/>
<path d="M1882 1788 c-16 -16 -16 -180 0 -196 15 -15 51 -15 66 0 16 16 16
180 0 196 -7 7 -21 12 -33 12 -12 0 -26 -5 -33 -12z"/>
<path d="M1300 1601 c-16 -32 -13 -40 47 -102 62 -65 102 -78 123 -39 16 30 5
52 -55 109 -58 55 -96 66 -115 32z"/>
<path d="M980 1220 c-18 -34 -3 -55 75 -99 73 -42 76 -43 101 -27 40 27 28 55
-46 104 -71 47 -113 54 -130 22z"/>
<path d="M1408 369 c-25 -14 -24 -65 1 -79 27 -14 985 -14 1012 0 12 7 19 21
19 40 0 19 -7 33 -19 40 -27 14 -989 13 -1013 -1z"/>
</g>
</svg>
