<?xml version="1.0" standalone="no"?>
<!DOCTYPE svg PUBLIC "-//W3C//DTD SVG 20010904//EN"
 "http://www.w3.org/TR/2001/REC-SVG-20010904/DTD/svg10.dtd">
<svg version="1.0" xmlns="http://www.w3.org/2000/svg"
 width="384.000000pt" height="384.000000pt" viewBox="0 0 384.000000 384.000000"
 preserveAspectRatio="xMidYMid meet">
<metadata>
Created by potrace 1.16, written by Peter Selinger 2001-2019
</metadata>
<g transform="translate(0.000000,384.000000) scale(0.100000,-0.100000)"
fill="#000000" stroke="none">
<path d="M1679 3190 c-79 -53 -462 -399 -746 -672 -66 -65 -128 -118 -136
-118 -11 0 -17 12 -19 43 l-3 42 -257 -1 c-142 -1 -265 -4 -273 -8 -13 -5 -15
-67 -15 -485 l0 -480 48 -3 c40 -3 47 -6 50 -25 3 -22 6 -23 128 -23 l124 0 0
58 c0 32 3 62 6 65 4 3 93 -76 198 -177 302 -289 758 -703 874 -794 30 -23 66
-45 80 -48 15 -4 42 -16 60 -27 31 -18 36 -19 66 -5 87 42 437 353 930 826
l189 182 181 2 181 3 5 89 5 90 47 -55 c38 -43 49 -52 59 -41 17 16 37 15 55
-3 14 -13 22 -10 75 31 32 26 59 51 59 55 0 5 -25 39 -55 76 l-54 68 44 3 c25
2 45 4 45 6 0 1 11 74 25 162 43 265 42 252 10 264 -17 6 -25 15 -22 24 10 26
-18 35 -130 42 l-112 7 -5 -34 c-3 -19 -8 -95 -11 -169 -3 -74 -8 -165 -12
-202 l-6 -68 32 0 c18 0 31 -5 31 -12 -1 -17 -120 -109 -131 -102 -5 3 -9 18
-9 35 l0 29 -105 0 c-58 0 -105 3 -105 6 0 4 63 124 140 268 77 144 140 265
140 268 0 3 -16 9 -35 12 -39 8 -42 16 -19 50 8 13 11 26 7 29 -16 10 -141 17
-408 23 l-270 6 -94 87 c-475 436 -609 549 -709 599 -77 40 -97 40 -153 2z
m-930 -734 c8 -9 11 -46 9 -103 l-3 -88 -127 -3 -128 -3 0 -94 c0 -112 -3
-109 128 -100 67 4 92 2 100 -7 6 -8 10 -49 9 -98 l-2 -85 -95 -2 c-154 -5
-140 14 -140 -178 l0 -166 -122 3 -123 3 -3 440 c-1 242 0 450 3 462 5 23 7
23 238 26 127 1 235 3 238 5 4 1 12 -4 18 -12z m2464 6 c37 -2 67 -7 67 -12 0
-4 -22 -47 -48 -96 -201 -368 -284 -526 -279 -531 4 -3 75 -6 159 -7 l153 -1
3 -98 c2 -73 -1 -99 -10 -102 -7 -3 -158 -4 -335 -3 l-322 3 165 318 c91 175
163 322 159 325 -4 4 -68 7 -143 7 l-137 0 -3 103 -3 103 253 -2 c139 -2 283
-4 321 -7z m-1373 -447 l0 -416 -117 3 -118 3 -3 337 -2 338 27 5 c64 14 76
24 69 55 -3 17 -9 44 -12 60 l-6 30 81 0 81 0 0 -415z m1772 306 c6 -5 -45
-375 -56 -407 -4 -12 -146 -8 -157 4 -3 4 -2 59 2 122 5 63 11 157 15 207 l6
93 91 -6 c51 -4 95 -9 99 -13z m-2433 -71 c166 -17 244 -56 280 -140 41 -95
24 -166 -60 -255 l-51 -54 103 -121 c57 -67 105 -125 107 -129 2 -5 -31 -39
-72 -76 -125 -112 -96 -126 -241 115 l-127 211 51 54 c73 77 85 117 55 180
-19 40 -66 65 -103 56 l-26 -7 -5 -345 -5 -344 -115 0 -115 0 0 425 0 425 65
6 c110 10 154 9 259 -1z m1436 -95 l0 -100 -117 -3 -118 -3 0 -324 0 -325
-125 0 -125 0 -2 326 -3 326 -114 1 -115 2 2 95 c0 52 1 98 1 103 1 4 162 6
359 5 l357 -3 0 -100z m-1400 -154 c6 -21 -16 -84 -34 -95 -8 -5 -11 12 -11
53 0 54 2 61 19 61 11 0 22 -9 26 -19z m2308 -191 c26 -33 47 -62 47 -64 0 -7
-111 -96 -119 -96 -5 0 -29 27 -55 59 l-46 60 60 50 c34 28 62 51 64 51 1 0
24 -27 49 -60z"/>
</g>
</svg>
