<?xml version="1.0" standalone="no"?>
<!DOCTYPE svg PUBLIC "-//W3C//DTD SVG 20010904//EN"
 "http://www.w3.org/TR/2001/REC-SVG-20010904/DTD/svg10.dtd">
<svg version="1.0" xmlns="http://www.w3.org/2000/svg"
 width="384.000000pt" height="384.000000pt" viewBox="0 0 384.000000 384.000000"
 preserveAspectRatio="xMidYMid meet">
<metadata>
Created by potrace 1.16, written by Peter Selinger 2001-2019
</metadata>
<g transform="translate(0.000000,384.000000) scale(0.100000,-0.100000)"
fill="#000000" stroke="none">
<path d="M275 2686 c-41 -19 -83 -66 -95 -107 -6 -21 -10 -301 -10 -719 0
-770 -3 -736 76 -796 l37 -29 1611 -3 1611 -2 45 22 c24 13 53 36 64 51 21 28
21 37 21 762 0 725 0 734 -21 762 -11 15 -40 38 -64 51 l-44 22 -1601 0
c-1314 -1 -1605 -3 -1630 -14z m635 -821 l0 -506 -127 3 -128 3 -3 490 c-1
270 0 496 3 503 3 9 39 12 130 12 l125 0 0 -505z m461 318 c31 -210 39 -257
44 -251 2 2 13 78 25 168 11 91 24 188 28 215 l7 50 166 3 c131 2 168 0 172
-11 3 -7 4 -233 3 -502 l-1 -490 -112 -3 -113 -3 -1 313 c0 172 -4 304 -8 293
-5 -11 -18 -96 -31 -190 -12 -93 -30 -224 -39 -290 l-16 -120 -74 -3 c-41 -2
-78 1 -82 5 -6 6 -54 304 -84 525 -3 26 -10 50 -16 53 -5 4 -9 -107 -9 -290
l0 -296 -112 3 -113 3 -2 480 c-2 264 -1 490 2 503 5 22 6 22 173 20 l167 -3
26 -182z m914 176 c99 -14 149 -41 183 -97 l27 -47 3 -320 c4 -357 0 -409 -31
-457 -44 -65 -75 -73 -329 -76 l-228 -3 0 505 0 506 153 0 c83 0 183 -5 222
-11z m553 -139 c1 -80 4 -151 7 -157 3 -9 15 -6 41 12 44 30 90 39 156 32 60
-7 92 -26 119 -70 18 -30 19 -48 17 -314 l-3 -282 -30 -31 c-43 -46 -77 -60
-140 -60 -57 0 -103 17 -141 52 -22 19 -22 19 -32 -12 l-11 -31 -113 3 -113 3
-3 490 c-1 270 0 496 3 503 3 9 34 12 122 10 l118 -3 3 -145z"/>
<path d="M2170 1859 l0 -331 28 6 c15 4 33 14 40 23 17 23 18 603 0 621 -7 7
-25 12 -40 12 l-28 0 0 -331z"/>
<path d="M2859 1954 c-16 -19 -26 -307 -14 -401 6 -46 10 -54 32 -59 48 -13
53 9 53 235 0 113 -4 211 -8 217 -13 21 -48 25 -63 8z"/>
</g>
</svg>
