<?xml version="1.0" standalone="no"?>
<!DOCTYPE svg PUBLIC "-//W3C//DTD SVG 20010904//EN"
 "http://www.w3.org/TR/2001/REC-SVG-20010904/DTD/svg10.dtd">
<svg version="1.0" xmlns="http://www.w3.org/2000/svg"
 width="384.000000pt" height="384.000000pt" viewBox="0 0 384.000000 384.000000"
 preserveAspectRatio="xMidYMid meet">
<metadata>
Created by potrace 1.16, written by Peter Selinger 2001-2019
</metadata>
<g transform="translate(0.000000,384.000000) scale(0.100000,-0.100000)"
fill="#000000" stroke="none">
<path d="M835 3579 c-94 -55 -117 -136 -80 -279 53 -205 212 -373 418 -444 60
-20 85 -21 717 -26 641 -5 656 -5 701 -26 83 -39 147 -124 163 -216 l7 -38
-1134 0 c-1272 0 -1195 4 -1283 -73 -52 -46 -77 -90 -93 -165 -15 -73 -16
-1739 0 -1828 19 -108 96 -199 190 -224 56 -15 2900 -16 2956 -1 92 25 174
118 193 220 15 78 14 1763 -1 1833 -16 75 -41 119 -93 165 -64 57 -124 73
-266 73 -129 0 -130 0 -130 64 0 52 -28 146 -65 221 -91 181 -268 304 -480
335 -40 5 -324 10 -666 10 l-595 0 -52 26 c-29 14 -68 44 -87 67 -35 41 -75
130 -75 168 0 33 -36 92 -72 119 -38 28 -138 39 -173 19z m-15 -1389 c41 -11
94 -61 109 -103 42 -111 -44 -237 -161 -237 -47 0 -116 37 -143 78 -33 48 -35
139 -5 187 42 68 120 97 200 75z m777 -5 c48 -20 71 -41 94 -87 65 -127 -64
-280 -201 -239 -52 16 -85 44 -110 96 -40 83 -7 176 79 222 52 27 87 29 138 8z
m802 -18 c51 -34 85 -104 78 -159 -13 -97 -106 -168 -201 -154 -111 17 -178
145 -127 244 50 98 160 128 250 69z m767 3 c51 -32 74 -77 74 -146 0 -47 -5
-67 -25 -96 -28 -41 -96 -78 -143 -78 -92 0 -172 82 -172 176 0 69 53 144 116
164 41 13 111 4 150 -20z m-2316 -623 c104 -55 121 -204 31 -280 -66 -55 -155
-56 -221 -1 -43 37 -60 75 -60 134 0 61 18 100 62 133 57 43 124 48 188 14z
m740 13 c41 -11 94 -61 109 -103 36 -94 -21 -201 -120 -227 -136 -37 -258 104
-201 232 38 86 120 124 212 98z m816 -25 c46 -35 68 -80 68 -140 1 -181 -242
-236 -324 -74 -46 90 2 209 96 239 48 15 122 4 160 -25z m744 13 c62 -32 90
-77 90 -145 0 -30 -6 -66 -14 -81 -53 -102 -180 -128 -267 -55 -90 76 -73 225
31 280 55 29 104 29 160 1z m-2288 -637 c82 -52 103 -169 44 -246 -36 -47 -74
-65 -139 -65 -62 0 -108 25 -144 79 -27 40 -31 126 -9 169 48 91 159 120 248
63z m2312 -5 c48 -36 66 -74 66 -139 0 -97 -70 -167 -167 -167 -65 0 -103 18
-139 65 -60 79 -39 193 46 247 39 26 53 29 102 26 42 -3 65 -11 92 -32z m-612
-67 c75 -61 70 -166 -12 -222 -22 -16 -76 -17 -629 -17 -590 0 -604 0 -637 20
-76 47 -79 160 -6 219 l37 31 605 0 605 0 37 -31z"/>
</g>
</svg>
