<?xml version="1.0" standalone="no"?>
<!DOCTYPE svg PUBLIC "-//W3C//DTD SVG 20010904//EN"
 "http://www.w3.org/TR/2001/REC-SVG-20010904/DTD/svg10.dtd">
<svg version="1.0" xmlns="http://www.w3.org/2000/svg"
 width="384.000000pt" height="384.000000pt" viewBox="0 0 384.000000 384.000000"
 preserveAspectRatio="xMidYMid meet">
<metadata>
Created by potrace 1.16, written by Peter Selinger 2001-2019
</metadata>
<g transform="translate(0.000000,384.000000) scale(0.100000,-0.100000)"
fill="#000000" stroke="none">
<path d="M1404 3546 c-31 -31 -34 -39 -34 -95 0 -52 4 -65 28 -92 15 -17 42
-34 61 -38 32 -6 34 -9 34 -46 0 -35 -3 -40 -24 -43 -261 -31 -519 -141 -726
-309 l-55 -45 -39 39 c-37 37 -38 40 -27 70 11 29 10 36 -8 60 -12 16 -33 34
-47 41 -36 18 -66 1 -144 -81 -47 -48 -63 -73 -63 -93 0 -39 45 -84 85 -84 23
0 41 -11 74 -44 l43 -44 -44 -58 c-306 -407 -358 -945 -137 -1411 63 -132 154
-259 269 -373 207 -207 461 -337 748 -385 81 -14 141 -16 270 -13 92 3 175 9
185 13 15 6 17 1 17 -44 0 -89 35 -150 105 -182 38 -17 83 -19 760 -19 682 0
722 1 761 19 23 10 54 36 70 57 l29 37 3 484 3 483 -76 0 -75 0 -2 -462 -3
-463 -710 0 -710 0 -3 463 -2 462 -75 0 -75 0 0 -324 0 -324 -32 -6 c-18 -3
-89 -8 -158 -12 -217 -11 -390 24 -587 121 -735 361 -892 1336 -307 1908 124
121 242 197 403 261 142 56 263 79 431 79 155 0 244 -14 379 -59 489 -163 823
-636 809 -1144 l-3 -105 -186 -3 -187 -2 -7 36 c-9 48 -45 84 -85 84 -43 0
-90 -47 -90 -89 l0 -31 -122 0 c-199 -1 -250 -38 -257 -187 l-3 -83 176 0 176
0 0 -24 c0 -32 36 -75 76 -92 49 -20 829 -20 878 0 40 17 76 60 76 92 l0 24
176 0 176 0 -3 83 c-7 149 -58 186 -256 187 l-123 0 0 31 c0 42 -47 89 -90 89
-40 0 -76 -36 -85 -84 -6 -29 -12 -36 -30 -36 -22 0 -22 2 -22 128 -2 364
-132 684 -385 947 -207 216 -469 355 -758 404 l-105 18 0 38 c0 36 2 40 34 46
18 4 45 19 60 33 23 24 26 34 26 97 0 67 -2 72 -33 100 l-32 29 -181 0 -181 0
-34 -34z"/>
<path d="M1535 2969 c-236 -25 -477 -142 -650 -314 -184 -183 -300 -432 -321
-689 l-7 -86 34 0 c32 0 35 3 52 50 12 33 30 59 54 77 l36 28 326 5 326 5 43
47 c50 54 111 87 179 96 l48 7 0 390 c0 383 0 390 -20 391 -11 1 -56 -2 -100
-7z"/>
<path d="M1565 2101 c-43 -19 -100 -78 -116 -117 l-9 -24 -342 0 c-340 1 -343
1 -360 -21 -23 -28 -23 -41 3 -73 l20 -26 338 0 337 0 34 -52 c149 -225 491
-37 376 207 -27 59 -46 77 -106 104 -56 25 -122 26 -175 2z"/>
<path d="M2230 1210 c-25 -25 -26 -52 -2 -73 16 -14 43 -17 161 -17 79 0 151
-5 162 -10 16 -9 19 -22 19 -85 0 -48 -4 -77 -12 -82 -7 -4 -67 -10 -133 -13
-138 -6 -160 -16 -196 -88 -29 -58 -25 -196 7 -238 48 -66 59 -69 249 -72
l174 -3 16 24 c18 28 8 70 -20 81 -9 3 -81 6 -159 6 -169 0 -176 4 -176 89 0
87 5 91 118 91 124 0 161 11 205 59 28 31 37 51 42 96 15 119 -16 203 -89 236
-34 15 -66 19 -193 19 -140 0 -155 -2 -173 -20z"/>
<path d="M2874 1211 c-73 -33 -104 -117 -89 -236 5 -45 14 -65 42 -96 44 -48
81 -59 205 -59 113 0 118 -4 118 -93 0 -83 -8 -87 -177 -87 -78 0 -149 -3
-158 -6 -28 -11 -38 -53 -20 -81 l16 -24 174 3 c190 3 201 6 249 72 32 42 36
180 7 238 -36 72 -58 82 -196 88 -66 3 -126 9 -132 13 -9 5 -13 34 -13 82 0
63 3 76 19 85 11 5 84 10 164 10 127 0 146 2 160 18 22 25 21 48 -3 72 -18 18
-33 20 -172 20 -128 0 -160 -4 -194 -19z"/>
</g>
</svg>
