<?xml version="1.0" standalone="no"?>
<!DOCTYPE svg PUBLIC "-//W3C//DTD SVG 20010904//EN"
 "http://www.w3.org/TR/2001/REC-SVG-20010904/DTD/svg10.dtd">
<svg version="1.0" xmlns="http://www.w3.org/2000/svg"
 width="384.000000pt" height="384.000000pt" viewBox="0 0 384.000000 384.000000"
 preserveAspectRatio="xMidYMid meet">
<metadata>
Created by potrace 1.16, written by Peter Selinger 2001-2019
</metadata>
<g transform="translate(0.000000,384.000000) scale(0.100000,-0.100000)"
fill="#000000" stroke="none">
<path d="M2339 3721 c-27 -27 -29 -35 -29 -99 l0 -70 -37 -13 c-21 -6 -55 -20
-76 -31 l-39 -19 -53 50 c-45 42 -60 51 -90 51 -32 0 -47 -9 -112 -72 -120
-116 -127 -151 -47 -229 l45 -44 -823 -5 c-911 -6 -847 -1 -917 -71 -71 -71
-66 31 -66 -1224 l0 -1130 22 -42 c27 -51 82 -96 132 -112 25 -7 138 -11 319
-11 l282 0 16 25 c15 23 15 27 0 49 l-16 25 -282 3 c-258 3 -285 5 -311 22
-49 33 -57 62 -57 206 l0 130 1720 0 1720 0 0 -130 c0 -144 -8 -173 -57 -206
-27 -18 -69 -19 -1280 -22 l-1253 -2 -16 -25 c-15 -23 -15 -27 0 -50 l16 -25
235 0 c217 0 235 -1 235 -17 -1 -57 -21 -289 -31 -355 l-11 -78 -103 0 c-121
0 -143 -11 -135 -70 4 -40 10 -40 678 -40 424 0 650 4 663 10 23 13 26 62 3
84 -12 13 -38 16 -119 16 l-103 0 -11 78 c-10 66 -30 298 -31 355 0 16 36 17
616 17 433 0 628 3 655 11 50 16 105 61 132 112 l22 42 0 1130 c0 1255 5 1153
-66 1224 -64 64 -69 66 -352 71 l-258 5 41 40 c83 79 76 118 -40 229 -103 98
-125 101 -205 25 l-53 -50 -39 19 c-21 11 -55 25 -75 31 l-38 13 0 70 c0 64
-2 72 -29 99 -29 29 -31 29 -146 29 -115 0 -117 0 -146 -29z m211 -133 c0 -86
22 -118 105 -148 39 -15 84 -34 102 -43 55 -29 88 -22 142 28 26 25 52 45 57
45 6 0 30 -20 54 -45 l44 -45 -46 -48 c-59 -60 -66 -87 -37 -143 12 -24 32
-73 45 -109 32 -87 49 -100 135 -100 l69 0 0 -70 0 -70 -60 0 c-32 0 -71 -5
-85 -12 -26 -12 -55 -54 -55 -80 0 -8 -16 -47 -36 -88 -43 -89 -40 -107 24
-172 l46 -48 -49 -50 -49 -49 -52 49 c-59 56 -94 64 -148 31 -17 -10 -64 -31
-105 -46 -62 -24 -75 -32 -87 -61 -8 -18 -14 -56 -14 -84 l0 -50 -70 0 -70 0
0 66 c0 36 -4 74 -10 84 -5 10 -42 30 -82 45 -40 15 -87 36 -104 46 -54 33
-89 25 -148 -31 l-52 -49 -49 49 -49 50 46 48 c64 65 66 78 25 169 -19 43 -40
95 -47 116 -15 48 -51 67 -130 67 l-60 0 0 70 0 70 70 0 c61 0 74 3 95 24 13
13 29 43 35 67 7 24 25 70 42 102 37 74 33 96 -30 159 l-46 48 44 45 c24 25
48 45 54 45 5 0 31 -20 57 -45 57 -53 86 -57 157 -21 26 13 71 31 99 40 69 23
83 44 83 128 l0 68 70 0 70 0 0 -52z m-700 -477 c0 -16 -9 -19 -74 -23 -62 -3
-79 -7 -100 -27 -14 -13 -26 -33 -28 -45 l-3 -21 -625 -5 c-582 -5 -627 -6
-652 -23 -59 -41 -58 -19 -58 -925 l0 -827 -55 0 -55 0 0 919 0 918 39 39 39
39 786 0 c764 0 786 -1 786 -19z m1751 -20 l39 -39 0 -918 0 -919 -55 0 -55 0
0 827 c0 906 1 885 -58 925 -15 10 -54 20 -87 23 -52 4 -60 8 -63 26 -2 12
-14 32 -28 45 -21 19 -38 24 -99 27 -62 4 -74 7 -78 23 -5 18 4 19 220 19
l225 0 39 -39z m-1958 -253 c5 -42 13 -59 37 -80 27 -25 38 -28 95 -28 54 0
67 -3 72 -17 3 -10 17 -44 31 -76 l25 -58 -46 -47 c-80 -83 -74 -113 46 -229
65 -64 80 -73 112 -73 30 0 45 9 89 50 l53 50 39 -20 c21 -12 56 -26 77 -32
l37 -11 0 -71 c1 -112 21 -126 180 -126 110 0 112 0 141 29 26 27 29 36 29 99
l0 69 38 11 c20 6 55 20 76 32 l39 20 53 -50 c44 -41 59 -50 89 -50 32 0 47 9
112 73 117 112 124 149 41 234 l-41 41 31 74 31 73 69 5 c92 7 120 30 124 104
3 51 3 51 39 54 22 2 40 -2 47 -11 9 -11 11 -220 10 -836 l-3 -821 -1495 0
-1495 0 -3 821 c-1 599 1 825 9 835 9 12 117 14 609 14 l597 0 6 -52z m571
-2220 c2 -18 10 -103 16 -188 6 -85 14 -172 17 -192 l5 -38 -332 0 -333 0 7
48 c14 110 26 241 26 297 0 33 3 70 6 83 l6 22 289 0 288 0 5 -32z"/>
<path d="M2421 3320 c-66 -10 -97 -36 -87 -75 8 -33 39 -44 91 -33 96 22 210
-17 284 -98 64 -70 85 -131 79 -228 -6 -82 -30 -138 -86 -194 -61 -61 -123
-86 -217 -86 -94 0 -156 25 -217 86 -66 66 -83 110 -83 218 0 85 3 101 28 148
31 58 29 88 -6 101 -35 13 -56 1 -83 -45 -64 -110 -70 -261 -15 -379 77 -165
263 -266 435 -236 168 29 288 133 337 292 89 287 -158 572 -460 529z"/>
<path d="M2427 3116 c-137 -37 -197 -193 -123 -320 102 -174 374 -110 394 93
6 65 -12 115 -60 167 -56 61 -130 82 -211 60z m136 -136 c41 -45 38 -101 -7
-146 -26 -26 -42 -34 -71 -34 -54 0 -105 53 -105 108 0 101 115 147 183 72z"/>
<path d="M1105 2653 c-44 -11 -65 -44 -65 -98 l0 -51 -52 -22 -51 -22 -39 35
c-58 53 -94 49 -165 -17 -93 -89 -103 -126 -47 -187 l35 -40 -18 -50 -18 -51
-48 0 c-40 0 -54 -5 -78 -29 -28 -28 -29 -33 -29 -123 1 -121 21 -148 112
-148 43 0 43 0 61 -51 l18 -50 -35 -40 c-53 -58 -49 -86 22 -161 60 -64 109
-92 139 -81 10 3 34 21 54 40 l35 33 52 -22 c51 -23 52 -23 52 -70 0 -61 7
-76 41 -93 38 -20 170 -20 208 0 34 17 41 32 41 93 l0 47 54 21 54 22 32 -33
c62 -63 99 -55 193 43 71 75 74 103 21 162 l-36 40 19 48 c17 42 23 47 54 50
106 8 119 24 119 150 -1 60 -5 103 -13 113 -20 26 -53 39 -99 39 -43 0 -43 0
-61 51 l-18 50 35 40 c56 61 51 88 -32 171 -60 59 -73 68 -105 68 -28 0 -46
-8 -75 -35 l-39 -35 -51 22 -52 22 0 51 c0 77 -26 97 -127 101 -43 2 -87 0
-98 -3z m123 -158 c3 -52 21 -80 56 -91 11 -3 51 -19 88 -35 74 -32 95 -30
137 15 30 32 41 33 71 1 l23 -24 -37 -41 c-41 -46 -44 -65 -17 -118 10 -20 25
-56 32 -80 17 -57 49 -82 105 -82 l44 0 0 -40 0 -40 -45 0 c-52 0 -89 -28
-101 -77 -4 -15 -17 -49 -30 -75 -32 -64 -30 -81 12 -128 l37 -41 -23 -24
c-30 -32 -35 -31 -77 5 -41 37 -72 38 -138 5 -27 -13 -58 -25 -68 -25 -10 0
-29 -11 -42 -25 -20 -19 -25 -34 -25 -75 l0 -51 -42 3 -43 3 -5 54 c-6 54 -33
91 -66 91 -8 0 -37 11 -64 25 -66 33 -101 32 -143 -5 -42 -36 -47 -37 -77 -5
l-23 24 37 41 c41 46 44 65 17 118 -10 20 -25 56 -32 80 -17 57 -49 82 -105
82 l-44 0 0 40 0 40 44 0 c56 0 88 25 105 82 7 24 22 60 32 80 27 53 24 72
-17 118 -20 22 -35 42 -33 43 2 1 16 13 32 26 l27 25 34 -33 c41 -40 73 -42
146 -7 30 14 60 26 66 26 6 0 23 9 38 21 22 17 26 29 26 68 0 26 3 51 7 55 4
4 23 6 43 4 35 -3 35 -4 38 -53z"/>
<path d="M1084 2264 c-57 -20 -114 -72 -149 -135 -25 -46 -29 -65 -29 -129 0
-61 5 -84 26 -126 93 -180 329 -211 463 -62 165 183 33 471 -214 467 -31 0
-75 -7 -97 -15z m141 -95 c55 -16 92 -44 115 -89 51 -101 -2 -221 -111 -250
-144 -39 -267 116 -199 250 26 52 80 87 150 99 3 1 23 -4 45 -10z"/>
<path d="M1754 955 c-15 -23 -15 -27 0 -50 16 -25 18 -25 166 -25 148 0 150 0
166 25 15 23 15 27 0 50 -16 25 -18 25 -166 25 -148 0 -150 0 -166 -25z"/>
</g>
</svg>
