<?xml version="1.0" standalone="no"?>
<!DOCTYPE svg PUBLIC "-//W3C//DTD SVG 20010904//EN"
 "http://www.w3.org/TR/2001/REC-SVG-20010904/DTD/svg10.dtd">
<svg version="1.0" xmlns="http://www.w3.org/2000/svg"
 width="384.000000pt" height="384.000000pt" viewBox="0 0 384.000000 384.000000"
 preserveAspectRatio="xMidYMid meet">
<metadata>
Created by potrace 1.16, written by Peter Selinger 2001-2019
</metadata>
<g transform="translate(0.000000,384.000000) scale(0.100000,-0.100000)"
fill="#000000" stroke="none">
<path d="M205 3431 c-48 -22 -69 -44 -90 -94 -13 -32 -15 -197 -15 -1417 0
-1220 2 -1385 15 -1417 21 -50 42 -72 90 -94 38 -18 111 -19 1713 -19 1483 0
1677 2 1709 15 50 21 72 42 94 90 18 38 19 102 19 1425 0 1323 -1 1387 -19
1425 -22 48 -44 69 -94 90 -32 13 -226 15 -1709 15 -1602 0 -1675 -1 -1713
-19z m3399 -117 c14 -14 16 -154 16 -1391 0 -1267 -1 -1378 -17 -1395 -15 -17
-81 -18 -1684 -18 -1503 0 -1669 2 -1683 16 -14 14 -16 154 -16 1394 0 1240 2
1380 16 1394 14 14 180 16 1684 16 1504 0 1670 -2 1684 -16z"/>
<path d="M349 3193 c-12 -13 -15 -158 -17 -832 -2 -449 0 -830 3 -848 12 -68
-125 -63 1585 -63 1710 0 1573 -5 1585 63 3 18 5 399 3 848 -2 674 -5 819 -17
832 -12 16 -135 17 -1571 17 -1436 0 -1559 -1 -1571 -17z m3041 -858 l0 -765
-1470 0 -1470 0 0 765 0 765 1470 0 1470 0 0 -765z"/>
<path d="M1818 2971 c-51 -11 -62 -22 -87 -91 -12 -33 -24 -60 -25 -60 -2 0
-29 12 -60 26 -35 16 -66 24 -80 20 -53 -13 -206 -182 -206 -227 0 -11 9 -38
21 -60 11 -23 19 -42 17 -43 -2 -1 -24 -10 -50 -20 -39 -14 -49 -23 -59 -54
-14 -41 -15 -211 -2 -257 8 -27 45 -54 107 -77 5 -2 -1 -23 -13 -46 -11 -22
-21 -49 -21 -59 0 -24 92 -145 138 -181 69 -54 75 -55 143 -27 34 15 64 23 67
20 4 -3 16 -32 28 -63 28 -75 46 -84 183 -84 139 -1 158 8 188 86 12 32 25 61
27 64 3 3 32 -7 65 -22 36 -16 66 -24 77 -19 58 21 204 182 204 224 0 11 -9
38 -21 60 -11 23 -19 42 -17 44 2 1 24 12 51 23 60 27 69 49 70 177 1 137 -11
169 -71 191 -26 10 -48 19 -50 20 -2 1 6 20 17 43 12 22 21 49 21 59 0 47
-151 214 -205 228 -15 4 -45 -3 -81 -20 -31 -14 -58 -26 -59 -26 -1 0 -13 27
-25 61 -13 34 -33 67 -46 76 -26 17 -188 27 -246 14z m207 -196 c40 -103 54
-109 149 -66 38 17 73 31 78 31 13 0 98 -92 98 -107 0 -8 -11 -36 -25 -63 -43
-85 -32 -111 58 -140 56 -18 67 -33 67 -100 0 -61 -15 -90 -48 -90 -9 0 -36
-9 -59 -20 -37 -16 -43 -23 -43 -50 0 -17 11 -53 25 -81 14 -28 23 -58 20 -68
-3 -9 -24 -36 -48 -59 l-43 -42 -67 30 c-110 50 -128 42 -168 -72 -25 -71 -33
-78 -99 -78 -64 0 -75 8 -95 66 -42 124 -62 134 -172 84 l-67 -30 -43 42 c-24
23 -45 50 -48 59 -3 10 6 40 20 68 44 88 33 117 -57 147 -29 9 -56 22 -60 28
-10 15 -10 118 0 133 4 7 28 19 52 28 98 34 109 59 65 145 -14 27 -25 55 -25
63 0 7 22 35 49 61 l50 49 75 -33 c95 -42 115 -36 144 42 46 122 33 109 114
106 l72 -3 31 -80z"/>
<path d="M1850 2555 c-100 -31 -160 -115 -160 -224 0 -247 328 -321 441 -99
27 52 26 148 -2 205 -27 55 -81 100 -143 118 -60 18 -77 18 -136 0z m142 -132
c73 -65 51 -177 -38 -202 -104 -29 -190 83 -132 169 13 19 35 41 48 48 32 16
96 9 122 -15z"/>
<path d="M2257 1300 l-35 -30 -924 0 c-782 0 -927 -2 -944 -14 -18 -14 -19
-29 -19 -276 l0 -262 24 -19 c22 -18 52 -19 947 -19 l923 0 27 -25 c25 -23 34
-25 126 -25 97 0 158 16 158 40 0 6 168 10 459 10 437 0 460 1 482 19 l24 19
0 262 c0 247 -1 262 -19 276 -17 12 -98 14 -474 14 l-454 0 -35 30 c-33 29
-37 30 -133 30 -96 0 -100 -1 -133 -30z m193 -325 l0 -235 -60 0 -60 0 0 235
0 235 60 0 60 0 0 -235z m-1650 0 l0 -175 -175 0 -175 0 0 175 0 175 175 0
175 0 0 -175z m470 0 l0 -175 -175 0 -175 0 0 175 0 175 175 0 175 0 0 -175z
m470 0 l0 -175 -175 0 -175 0 0 175 0 175 175 0 175 0 0 -175z m470 0 l0 -175
-175 0 -175 0 0 175 0 175 175 0 175 0 0 -175z m710 0 l0 -175 -175 0 -175 0
0 175 0 175 175 0 175 0 0 -175z m470 0 l0 -175 -175 0 -175 0 0 175 0 175
175 0 175 0 0 -175z"/>
</g>
</svg>
