<?xml version="1.0" standalone="no"?>
<!DOCTYPE svg PUBLIC "-//W3C//DTD SVG 20010904//EN"
 "http://www.w3.org/TR/2001/REC-SVG-20010904/DTD/svg10.dtd">
<svg version="1.0" xmlns="http://www.w3.org/2000/svg"
 width="384.000000pt" height="384.000000pt" viewBox="0 0 384.000000 384.000000"
 preserveAspectRatio="xMidYMid meet">
<metadata>
Created by potrace 1.16, written by Peter Selinger 2001-2019
</metadata>
<g transform="translate(0.000000,384.000000) scale(0.100000,-0.100000)"
fill="#000000" stroke="none">
<path d="M1592 3633 c-104 -51 -110 -202 -10 -263 27 -16 51 -20 131 -20 l97
0 0 -63 0 -63 -102 -12 c-254 -28 -494 -123 -704 -278 l-71 -52 -68 68 -68 69
26 31 c35 41 36 84 2 106 -14 9 -34 14 -48 10 -36 -9 -217 -199 -217 -227 0
-30 9 -43 37 -58 26 -13 51 -4 91 32 l23 21 66 -66 66 -66 -68 -78 c-389 -456
-471 -1068 -215 -1599 172 -356 477 -625 851 -749 181 -60 252 -71 464 -70
205 0 321 17 462 69 l66 24 51 -46 c63 -56 131 -96 216 -125 54 -19 85 -23
180 -22 98 0 125 4 182 26 184 69 308 196 370 377 18 53 23 88 23 176 0 88 -5
123 -23 176 -28 82 -81 171 -132 224 l-39 40 23 66 c54 148 71 259 71 469 0
168 -3 210 -23 299 -62 277 -185 508 -373 705 l-88 93 39 38 39 38 36 -32 c27
-23 42 -30 58 -25 36 11 47 25 47 58 0 28 -15 47 -104 134 -109 107 -130 118
-166 82 -28 -28 -25 -54 12 -95 l31 -36 -39 -40 c-21 -21 -42 -39 -47 -39 -6
0 -40 20 -76 44 -186 122 -402 200 -636 229 l-100 12 0 60 0 60 106 5 c124 6
151 19 181 87 24 55 17 110 -20 155 -46 54 -67 58 -334 58 -205 0 -248 -3
-276 -17z m517 -121 c20 -38 -2 -42 -241 -42 -195 0 -229 2 -234 15 -4 8 -1
22 6 30 10 12 50 15 236 15 207 0 224 -1 233 -18z m-39 -427 c267 -40 512
-158 709 -341 370 -344 514 -851 382 -1339 -30 -111 -29 -109 -82 -86 -24 11
-66 25 -94 32 -27 6 -51 13 -53 14 -1 1 5 22 13 46 41 115 50 181 49 359 -1
156 -4 186 -27 273 -62 234 -205 454 -390 602 -107 86 -289 177 -422 211 -123
32 -321 43 -446 25 -148 -22 -397 -118 -436 -169 -28 -36 -2 -92 43 -92 12 0
57 18 101 40 484 249 1082 61 1343 -423 128 -238 155 -532 72 -782 l-27 -80
-88 -22 c-122 -31 -199 -74 -282 -158 -94 -94 -165 -235 -165 -327 0 -38 -27
-53 -146 -84 -451 -115 -915 88 -1138 497 -82 150 -118 299 -118 491 0 88 -4
142 -11 151 -22 28 -53 29 -83 3 l-29 -24 1 -139 c0 -92 6 -166 18 -223 92
-434 404 -763 834 -877 87 -23 116 -26 272 -26 158 -1 184 2 270 25 52 14 102
29 111 33 13 5 18 -2 24 -32 4 -21 18 -65 31 -97 13 -33 22 -62 19 -64 -12
-12 -180 -55 -270 -69 -120 -18 -320 -13 -440 12 -545 112 -965 542 -1061
1087 -21 122 -21 335 1 457 72 412 335 771 701 958 150 77 304 126 459 146 74
10 269 6 355 -8z m861 -1845 c243 -46 413 -290 370 -530 -60 -333 -432 -494
-711 -308 -148 99 -227 277 -200 452 40 259 285 434 541 386z"/>
<path d="M1022 2503 c-41 -36 -132 -175 -132 -203 0 -48 55 -77 92 -47 8 6 34
39 56 72 23 33 50 71 61 85 53 65 -14 146 -77 93z"/>
<path d="M1755 1986 c-41 -18 -100 -85 -115 -131 -12 -36 -10 -113 4 -146 5
-12 -31 -51 -146 -154 -186 -167 -188 -170 -188 -206 0 -35 38 -64 71 -54 11
4 95 74 186 157 151 137 168 149 192 141 14 -4 56 -8 93 -8 58 0 72 4 109 30
107 76 121 244 27 332 -53 50 -165 69 -233 39z m150 -131 c38 -37 35 -95 -6
-129 -58 -49 -134 -20 -146 56 -5 32 -1 41 25 68 39 39 91 41 127 5z"/>
<path d="M2632 1034 c-22 -15 -22 -18 -22 -279 l0 -265 24 -15 c23 -16 33 -12
278 108 139 69 262 131 272 139 14 11 17 22 12 41 -5 23 -41 44 -272 157 -146
71 -266 130 -267 130 -2 0 -13 -7 -25 -16z"/>
</g>
</svg>
