<?xml version="1.0" standalone="no"?>
<!DOCTYPE svg PUBLIC "-//W3C//DTD SVG 20010904//EN"
 "http://www.w3.org/TR/2001/REC-SVG-20010904/DTD/svg10.dtd">
<svg version="1.0" xmlns="http://www.w3.org/2000/svg"
 width="384.000000pt" height="384.000000pt" viewBox="0 0 384.000000 384.000000"
 preserveAspectRatio="xMidYMid meet">
<metadata>
Created by potrace 1.16, written by Peter Selinger 2001-2019
</metadata>
<g transform="translate(0.000000,384.000000) scale(0.100000,-0.100000)"
fill="#000000" stroke="none">
<path d="M1439 3529 c-25 -27 -29 -39 -29 -90 0 -91 25 -128 98 -143 29 -7 32
-11 32 -46 0 -37 -2 -39 -37 -45 -124 -19 -169 -29 -268 -60 -169 -52 -344
-149 -474 -260 l-54 -46 -42 41 c-41 40 -42 43 -29 70 23 46 -9 100 -69 115
-24 6 -36 -1 -112 -76 -68 -66 -85 -88 -85 -112 0 -41 48 -87 92 -87 27 0 43
-9 75 -42 l41 -43 -59 -80 c-112 -152 -196 -348 -241 -559 -27 -133 -30 -367
-4 -506 129 -706 754 -1205 1461 -1166 66 3 151 13 190 21 99 21 95 23 95 -42
0 -70 23 -113 73 -136 32 -15 100 -17 712 -17 669 0 678 0 715 21 74 42 70 6
70 691 0 582 -1 615 -19 644 -28 45 -76 64 -165 64 l-76 0 0 -60 c0 -116 -50
-175 -143 -167 -38 3 -56 11 -80 36 -30 29 -32 38 -37 114 -3 45 -3 118 0 162
34 551 -275 1086 -773 1336 -145 73 -286 117 -469 144 -36 6 -38 8 -38 44 0
35 3 39 39 50 22 6 51 25 65 42 22 25 26 41 26 89 0 52 -4 64 -31 95 l-31 35
-195 0 -195 0 -29 -31z m421 -520 c290 -41 591 -223 776 -468 178 -237 262
-517 246 -818 l-4 -83 -169 0 -169 0 0 -67 c0 -103 -48 -163 -130 -163 -82 0
-130 60 -130 163 l0 67 -75 0 c-86 0 -132 -16 -163 -55 -22 -27 -22 -31 -22
-485 0 -355 -3 -460 -13 -468 -6 -6 -50 -19 -97 -29 -104 -22 -381 -25 -475
-5 -385 84 -692 317 -863 657 -90 178 -126 337 -126 550 0 328 112 608 338
843 282 294 658 420 1076 361z m1608 -1715 l22 -15 0 -458 c0 -379 -2 -460
-14 -477 -14 -18 -34 -19 -664 -22 -629 -2 -650 -2 -673 17 l-24 19 -3 451 -3
451 25 25 25 25 643 0 c566 0 646 -2 666 -16z"/>
<path d="M1503 2925 c-229 -41 -435 -152 -603 -324 -189 -194 -301 -438 -317
-693 l-6 -98 35 0 c32 0 36 3 42 33 10 53 43 97 89 117 39 18 68 20 362 20
l320 0 24 35 c40 59 163 125 233 125 17 0 18 20 18 400 l0 400 -62 -1 c-35 0
-95 -7 -135 -14z"/>
<path d="M1605 2041 c-43 -19 -100 -78 -115 -117 l-10 -24 -347 0 c-192 0
-353 -4 -359 -8 -42 -27 -35 -95 11 -112 16 -6 166 -10 360 -10 l333 0 27 -45
c74 -127 248 -147 351 -41 72 76 83 184 28 273 -56 90 -182 128 -279 84z"/>
<path d="M2366 1784 c-24 -23 -28 -53 -24 -168 3 -118 14 -139 68 -139 57 0
65 19 65 157 0 108 -2 127 -19 145 -23 25 -68 28 -90 5z"/>
<path d="M2877 1203 c-12 -12 -8 -168 5 -181 19 -19 153 -16 172 4 20 19 23
153 4 172 -13 13 -169 17 -181 5z"/>
<path d="M3207 1204 c-12 -13 -8 -169 5 -182 14 -14 146 -16 166 -4 9 6 12 33
10 98 l-3 89 -85 3 c-47 1 -89 0 -93 -4z"/>
<path d="M2216 895 c-9 -24 -7 -148 2 -163 6 -9 33 -12 98 -10 l89 3 0 90 0
90 -91 3 c-77 2 -93 0 -98 -13z"/>
<path d="M2544 897 c-3 -8 -4 -49 -2 -93 l3 -79 89 -3 c65 -2 92 1 98 10 9 15
11 139 2 162 -8 21 -182 24 -190 3z"/>
<path d="M2874 897 c-3 -8 -4 -49 -2 -93 l3 -79 83 -3 c53 -2 89 1 98 9 14 12
20 131 8 163 -8 21 -182 24 -190 3z"/>
<path d="M3204 897 c-3 -8 -4 -49 -2 -93 l3 -79 90 0 90 0 0 90 0 90 -88 3
c-67 2 -89 0 -93 -11z"/>
<path d="M2222 608 c-7 -7 -12 -42 -12 -88 0 -46 5 -81 12 -88 7 -7 42 -12 88
-12 46 0 81 5 88 12 7 7 12 42 12 88 0 46 -5 81 -12 88 -7 7 -42 12 -88 12
-46 0 -81 -5 -88 -12z"/>
<path d="M2552 608 c-16 -16 -16 -160 0 -176 7 -7 42 -12 88 -12 46 0 81 5 88
12 7 7 12 42 12 88 0 46 -5 81 -12 88 -16 16 -160 16 -176 0z"/>
<path d="M2882 608 c-16 -16 -16 -160 0 -176 7 -7 43 -12 90 -12 92 0 98 6 98
100 0 94 -6 100 -98 100 -47 0 -83 -5 -90 -12z"/>
<path d="M3150 1780 c-18 -18 -20 -33 -20 -140 0 -115 1 -122 25 -145 13 -14
29 -25 35 -25 16 0 53 21 62 34 4 6 8 68 8 137 0 109 -2 128 -18 142 -25 23
-68 21 -92 -3z"/>
</g>
</svg>
