<?xml version="1.0" standalone="no"?>
<!DOCTYPE svg PUBLIC "-//W3C//DTD SVG 20010904//EN"
 "http://www.w3.org/TR/2001/REC-SVG-20010904/DTD/svg10.dtd">
<svg version="1.0" xmlns="http://www.w3.org/2000/svg"
 width="384.000000pt" height="384.000000pt" viewBox="0 0 384.000000 384.000000"
 preserveAspectRatio="xMidYMid meet">
<metadata>
Created by potrace 1.16, written by Peter Selinger 2001-2019
</metadata>
<g transform="translate(0.000000,384.000000) scale(0.100000,-0.100000)"
fill="#000000" stroke="none">
<path d="M877 3523 c-4 -3 -7 -91 -7 -195 l0 -188 -190 0 -190 0 0 -190 0
-190 -188 0 -189 0 -6 -527 c-9 -652 -9 -1530 -1 -1560 l6 -23 1205 0 1204 0
-7 23 c-4 12 -10 32 -15 44 l-8 23 -1143 2 -1143 3 -3 958 -2 957 1345 0 1345
0 0 -556 0 -555 23 7 c12 4 32 10 45 15 l22 9 0 590 0 590 -1200 0 -1200 0 0
140 0 140 1350 0 1350 0 0 -730 0 -729 38 -10 c20 -6 40 -11 45 -11 4 0 7 355
7 790 l0 790 -1197 2 -1198 3 -3 143 -3 142 1343 -2 1343 -3 0 -955 0 -955
-88 -5 -89 -5 48 -35 c76 -56 85 -60 157 -60 l67 0 0 1060 0 1060 -1433 0
c-789 0 -1437 -3 -1440 -7z"/>
<path d="M290 2000 l0 -590 780 0 780 0 0 590 0 590 -780 0 -780 0 0 -590z
m240 465 l0 -65 -85 0 -85 0 0 65 0 65 85 0 85 0 0 -65z m1230 0 l0 -65 -570
0 -570 0 0 65 0 65 570 0 570 0 0 -65z m-1230 -290 l0 -75 -85 0 -85 0 0 75 0
75 85 0 85 0 0 -75z m1228 3 l3 -68 -571 0 -570 0 0 70 0 70 568 -2 567 -3 3
-67z m-1228 -288 l0 -70 -85 0 -85 0 0 70 0 70 85 0 85 0 0 -70z m1230 0 l0
-70 -570 0 -570 0 0 70 0 70 570 0 570 0 0 -70z m-1230 -270 l0 -70 -85 0 -85
0 0 70 0 70 85 0 85 0 0 -70z m1230 0 l0 -70 -570 0 -570 0 0 70 0 70 570 0
570 0 0 -70z"/>
<path d="M2018 2561 l-33 -29 -3 -259 c-2 -244 -1 -260 18 -291 11 -18 32 -37
47 -43 16 -6 153 -9 364 -7 l339 3 27 28 28 27 3 266 3 265 -35 35 -34 34
-346 0 -346 0 -32 -29z m708 -64 c2 -7 3 -78 2 -157 l-3 -144 -69 82 c-104
123 -128 122 -231 -4 -94 -115 -88 -112 -130 -75 -55 48 -84 43 -159 -29 -35
-33 -65 -60 -67 -60 -6 0 -1 379 6 390 4 6 129 10 326 10 253 0 321 -3 325
-13z"/>
<path d="M2155 2458 c-41 -22 -56 -67 -39 -113 9 -23 62 -48 90 -41 75 19 86
117 17 154 -27 15 -42 15 -68 0z"/>
<path d="M2994 1511 c-117 -32 -190 -75 -280 -165 -125 -125 -180 -258 -178
-431 4 -329 278 -599 609 -598 162 0 304 61 426 183 317 315 193 848 -233 997
-100 36 -243 41 -344 14z m277 -117 c121 -36 215 -106 281 -208 146 -226 78
-529 -151 -675 -85 -54 -162 -73 -281 -69 -98 3 -111 6 -185 42 -107 52 -183
128 -233 233 -34 72 -37 86 -40 185 -4 89 -1 117 18 172 53 159 176 275 340
322 64 18 187 17 251 -2z"/>
<path d="M3338 1173 c-8 -10 -60 -83 -113 -163 -54 -80 -118 -174 -143 -209
l-44 -63 -72 71 c-39 39 -78 71 -87 71 -16 0 -89 -70 -89 -86 0 -16 245 -254
261 -254 9 0 22 6 31 13 9 6 98 132 198 280 121 179 179 273 176 285 -6 17
-55 55 -87 67 -8 3 -22 -2 -31 -12z"/>
<path d="M280 1065 l0 -235 1096 0 1095 0 -3 33 -3 32 -770 5 -770 5 -3 163
-2 162 809 0 809 0 21 35 20 35 -1149 0 -1150 0 0 -235z m580 0 l0 -165 -255
0 -255 0 0 165 0 165 255 0 255 0 0 -165z"/>
<path d="M565 1183 c-25 -6 -187 -115 -180 -121 3 -3 31 11 62 30 121 74 165
84 241 53 34 -14 35 -14 17 1 -45 36 -91 48 -140 37z"/>
<path d="M549 1123 c-13 -15 -16 -21 -6 -14 10 8 17 9 17 3 0 -6 -4 -14 -10
-17 -5 -3 -10 -18 -10 -33 0 -25 2 -24 25 17 30 51 30 52 8 44 -11 -4 -14 -3
-9 5 8 13 54 16 81 5 10 -3 26 -24 36 -47 13 -29 19 -35 19 -19 0 12 -12 35
-26 52 -35 42 -89 43 -125 4z"/>
<path d="M590 1065 c-18 -38 -20 -48 -9 -61 14 -17 55 -12 78 11 11 11 10 16
-8 34 -12 12 -21 27 -21 35 0 33 -20 23 -40 -19z"/>
<path d="M651 1086 c7 -14 16 -26 20 -26 12 0 -6 43 -20 48 -9 3 -9 -2 0 -22z"/>
<path d="M763 1036 c-39 -25 -89 -50 -112 -57 -41 -12 -46 -11 -131 17 -8 3
-4 -4 10 -15 59 -48 132 -39 223 27 36 26 74 52 84 59 10 6 13 12 8 12 -6 1
-43 -19 -82 -43z"/>
<path d="M992 1053 l3 -28 729 -3 c530 -1 733 1 742 9 8 6 14 20 14 30 0 18
-23 19 -746 19 l-745 0 3 -27z"/>
</g>
</svg>
