<?xml version="1.0" standalone="no"?>
<!DOCTYPE svg PUBLIC "-//W3C//DTD SVG 20010904//EN"
 "http://www.w3.org/TR/2001/REC-SVG-20010904/DTD/svg10.dtd">
<svg version="1.0" xmlns="http://www.w3.org/2000/svg"
 width="384.000000pt" height="384.000000pt" viewBox="0 0 384.000000 384.000000"
 preserveAspectRatio="xMidYMid meet">
<metadata>
Created by potrace 1.16, written by Peter Selinger 2001-2019
</metadata>
<g transform="translate(0.000000,384.000000) scale(0.100000,-0.100000)"
fill="#000000" stroke="none">
<path d="M1666 3669 c-30 -24 -34 -63 -10 -97 14 -20 23 -22 105 -22 l89 0 0
-74 0 -73 -78 -6 c-257 -20 -547 -131 -778 -299 l-51 -36 -63 63 -64 64 52 55
c47 49 52 59 52 100 0 53 -19 69 -72 60 -26 -5 -67 -40 -185 -158 -153 -151
-153 -151 -153 -196 0 -57 12 -70 67 -70 38 0 48 5 85 45 23 25 47 45 53 45 6
0 37 -27 69 -59 l59 -60 -83 -88 c-487 -520 -532 -1338 -107 -1940 79 -112
248 -281 360 -360 401 -283 917 -365 1381 -219 l71 22 70 -59 c88 -74 169
-113 293 -139 95 -21 99 -21 197 -4 148 25 247 75 351 180 89 90 139 179 168
297 44 182 -8 397 -130 537 l-45 52 35 107 c109 341 109 679 -2 1004 -65 190
-189 397 -323 542 l-72 78 64 65 64 65 54 -56 c46 -47 58 -55 91 -55 44 0 70
24 70 64 0 23 -29 58 -151 181 -83 85 -164 159 -181 166 -25 10 -33 9 -56 -8
-18 -13 -28 -31 -30 -53 -3 -28 4 -40 49 -86 l53 -54 -63 -64 -63 -64 -94 64
c-221 150 -461 240 -713 268 l-106 12 0 69 0 70 92 5 c51 3 97 10 102 15 6 6
13 25 17 42 5 26 1 37 -19 57 l-26 26 -234 0 c-222 0 -236 -1 -261 -21z m549
-439 c440 -99 792 -376 985 -775 106 -218 135 -352 135 -615 0 -208 -10 -279
-61 -441 l-24 -78 -53 24 c-58 27 -159 55 -195 55 -18 0 -23 4 -19 18 2 9 16
56 30 103 14 47 31 123 38 168 l12 81 50 0 c62 0 87 20 87 67 0 49 -29 73 -89
73 l-49 0 -7 63 c-19 169 -94 365 -194 509 -170 246 -464 433 -751 478 -131
20 -120 13 -120 75 0 44 -4 57 -22 69 -32 23 -65 20 -93 -9 -25 -24 -25 -27
-25 -190 0 -163 0 -166 25 -190 53 -54 115 -19 115 65 l0 50 35 0 c111 0 294
-61 425 -142 232 -142 406 -405 455 -685 8 -47 15 -87 15 -89 0 -2 -22 -4 -50
-4 -60 0 -90 -24 -90 -72 0 -47 24 -68 81 -68 26 0 50 -4 54 -10 14 -22 -35
-233 -74 -321 -18 -40 -24 -44 -98 -69 -178 -60 -317 -192 -384 -364 -20 -51
-35 -76 -56 -88 -36 -22 -203 -66 -263 -70 l-45 -3 -3 50 c-2 27 -10 58 -19
67 -16 18 -69 24 -89 10 -20 -13 -34 -50 -34 -92 l0 -41 -47 6 c-164 22 -333
92 -469 193 -104 78 -122 98 -103 116 8 8 131 114 274 236 143 123 270 232
282 243 20 18 26 18 53 7 17 -7 55 -13 83 -13 187 0 283 226 150 355 -21 20
-55 44 -75 53 -143 59 -301 -66 -286 -226 l5 -49 -383 -327 c-210 -179 -387
-337 -393 -350 -16 -34 -3 -71 30 -88 39 -21 44 -20 89 21 l40 36 59 -54 c110
-102 240 -178 389 -227 76 -25 129 -37 270 -57 31 -5 32 -7 32 -50 0 -76 62
-117 117 -79 16 11 23 28 25 62 l3 47 105 18 c58 9 127 24 155 32 27 8 50 14
52 12 1 -1 9 -36 17 -77 8 -41 24 -98 36 -128 11 -30 17 -57 13 -62 -18 -16
-225 -59 -333 -69 -644 -55 -1258 352 -1463 971 -53 158 -70 270 -70 444 0
302 75 547 245 801 220 330 587 557 989 614 105 15 371 4 474 -20z m-247
-1336 c27 -19 30 -78 5 -106 -16 -18 -68 -24 -89 -10 -15 10 -34 47 -34 67 0
24 46 65 72 65 13 0 34 -7 46 -16z m1091 -629 c248 -66 410 -307 373 -556 -21
-138 -109 -276 -223 -350 -332 -212 -769 27 -769 421 0 226 153 425 371 484
70 19 180 20 248 1z"/>
<path d="M1300 2949 c-109 -59 -194 -123 -282 -210 -69 -67 -78 -80 -78 -113
0 -31 4 -38 28 -47 53 -21 70 -14 150 63 84 81 177 154 259 200 60 34 81 74
60 117 -18 39 -52 37 -137 -10z"/>
<path d="M810 2470 c-41 -41 -10 -120 47 -120 29 0 73 42 73 68 0 59 -79 93
-120 52z"/>
<path d="M1805 2385 c-30 -29 -32 -64 -7 -95 16 -20 31 -24 99 -28 130 -7 182
24 163 98 -9 37 -45 50 -143 50 -80 0 -90 -2 -112 -25z"/>
<path d="M669 1892 c-28 -23 -30 -73 -4 -102 17 -19 30 -20 196 -20 172 0 178
1 193 22 23 32 20 71 -7 96 -22 21 -33 22 -189 22 -146 0 -168 -2 -189 -18z"/>
<path d="M2880 1030 l0 -160 50 0 50 0 0 160 0 160 -50 0 -50 0 0 -160z"/>
<path d="M2691 1044 c-82 -68 -137 -199 -128 -301 8 -81 53 -180 109 -236 48
-47 131 -92 191 -103 l37 -6 0 54 0 54 -44 12 c-106 28 -186 133 -186 246 0
69 30 145 74 185 32 30 32 36 2 84 l-23 38 -32 -27z"/>
<path d="M3109 1025 l-24 -44 29 -30 c27 -28 31 -29 55 -16 65 34 67 38 31 79
-54 61 -64 62 -91 11z"/>
<path d="M3210 899 c-19 -12 -36 -23 -38 -24 -2 -2 2 -21 9 -44 12 -41 13 -41
60 -41 26 0 50 3 52 8 7 11 -27 115 -38 119 -6 1 -26 -7 -45 -18z"/>
<path d="M3186 716 c-3 -13 -9 -31 -12 -39 -7 -18 73 -74 86 -60 12 13 30 74
30 99 0 22 -4 24 -49 24 -43 0 -50 -3 -55 -24z"/>
<path d="M3112 580 c-25 -32 -24 -49 7 -89 17 -22 19 -23 42 -7 14 8 35 29 47
46 l22 30 -40 25 c-22 14 -43 25 -47 24 -5 0 -18 -13 -31 -29z"/>
<path d="M2983 513 c-13 -2 -23 -9 -24 -14 0 -5 -1 -28 -1 -51 l-1 -43 37 2
c19 1 49 9 66 18 l30 16 -24 37 c-23 37 -40 44 -83 35z"/>
</g>
</svg>
