<?xml version="1.0" standalone="no"?>
<!DOCTYPE svg PUBLIC "-//W3C//DTD SVG 20010904//EN"
 "http://www.w3.org/TR/2001/REC-SVG-20010904/DTD/svg10.dtd">
<svg version="1.0" xmlns="http://www.w3.org/2000/svg"
 width="384.000000pt" height="384.000000pt" viewBox="0 0 384.000000 384.000000"
 preserveAspectRatio="xMidYMid meet">
<metadata>
Created by potrace 1.16, written by Peter Selinger 2001-2019
</metadata>
<g transform="translate(0.000000,384.000000) scale(0.100000,-0.100000)"
fill="#000000" stroke="none">
<path d="M3215 3435 c-33 -8 -472 -96 -975 -195 -1564 -310 -1660 -330 -1699
-350 -62 -31 -98 -67 -128 -128 l-28 -57 -3 -950 c-2 -644 1 -971 8 -1015 23
-143 121 -268 257 -333 l68 -32 1210 0 1210 0 55 22 c111 46 207 142 253 253
l22 55 3 938 2 937 -787 0 c-540 0 -784 3 -777 10 10 10 809 173 1274 260 30
6 73 14 95 20 22 5 69 14 103 21 35 7 66 17 68 23 2 6 -20 128 -49 271 l-52
260 -35 2 c-19 1 -62 -5 -95 -12z m-99 -302 c126 -84 161 -113 138 -113 -3 0
-85 -16 -182 -35 l-176 -35 -143 95 c-79 52 -143 99 -143 104 0 5 24 14 53 20
28 5 104 21 167 34 63 14 121 25 128 26 7 0 78 -42 158 -96z m-761 -150 c80
-53 145 -99 145 -103 0 -9 -4 -10 -204 -50 l-158 -32 -144 96 c-134 89 -163
115 -131 117 6 0 84 15 172 34 88 18 163 34 168 34 4 1 72 -42 152 -96z m-737
-165 c74 -49 132 -91 130 -94 -3 -2 -86 -20 -187 -40 l-182 -36 -150 100 c-83
55 -147 102 -142 105 8 5 101 24 338 70 27 5 38 -1 193 -105z m26 -518 l-131
-130 -180 0 c-99 0 -183 3 -187 7 -4 4 49 62 116 130 l123 123 195 0 195 0
-131 -130z m771 0 l-130 -130 -181 0 c-99 0 -184 3 -188 7 -4 4 49 62 116 130
l123 123 195 0 195 0 -130 -130z m895 122 c0 -4 -56 -63 -123 -130 l-124 -122
-186 0 c-103 0 -187 3 -187 7 0 4 55 63 122 130 l123 123 187 0 c104 0 188 -4
188 -8z m-1370 -758 c383 -234 504 -310 506 -319 2 -5 -22 -25 -54 -44 -31
-19 -124 -76 -207 -126 -359 -221 -448 -274 -454 -271 -5 3 -7 870 -2 884 1 4
15 -4 211 -124z"/>
</g>
</svg>
