<?xml version="1.0" standalone="no"?>
<!DOCTYPE svg PUBLIC "-//W3C//DTD SVG 20010904//EN"
 "http://www.w3.org/TR/2001/REC-SVG-20010904/DTD/svg10.dtd">
<svg version="1.0" xmlns="http://www.w3.org/2000/svg"
 width="256.000000pt" height="256.000000pt" viewBox="0 0 256.000000 256.000000"
 preserveAspectRatio="xMidYMid meet">
<metadata>
Created by potrace 1.16, written by Peter Selinger 2001-2019
</metadata>
<g transform="translate(0.000000,256.000000) scale(0.100000,-0.100000)"
fill="#000000" stroke="none">
<path d="M1395 2454 c-22 -8 -53 -25 -69 -38 l-30 -23 22 -27 21 -27 -29 -41
c-17 -23 -34 -64 -41 -98 -10 -52 -14 -59 -40 -64 -37 -7 -39 -40 -4 -114 28
-60 45 -71 80 -48 23 15 26 15 68 -15 30 -21 61 -33 98 -37 50 -7 54 -9 59
-37 4 -22 11 -31 29 -33 26 -4 151 53 151 69 0 5 -7 21 -16 35 -16 24 -16 27
5 55 27 37 51 102 51 140 0 23 4 29 23 29 45 0 51 12 33 71 -8 30 -27 68 -40
84 -21 26 -27 28 -43 17 -35 -24 -42 -24 -75 1 -38 28 -89 47 -128 47 -22 0
-29 6 -36 33 -11 38 -31 42 -89 21z m55 -64 c5 -22 13 -26 60 -31 60 -6 105
-26 134 -58 22 -25 43 -26 71 -6 18 14 21 13 37 -17 24 -46 22 -55 -12 -61
-26 -6 -30 -11 -30 -39 0 -54 -19 -105 -55 -152 l-34 -45 20 -25 21 -26 -44
-20 -43 -19 -11 32 c-10 30 -15 32 -65 37 -58 6 -103 26 -133 59 -22 25 -49
27 -66 6 -19 -23 -26 -19 -44 25 -20 51 -21 48 17 52 32 3 32 4 37 63 6 64 25
108 59 139 25 23 27 39 6 56 -21 18 -19 27 13 44 36 20 55 16 62 -14z"/>
<path d="M850 2064 c-6 -14 -10 -34 -10 -44 0 -23 -4 -25 -52 -34 -34 -6 -38
-5 -44 18 -3 13 -14 32 -25 42 -18 16 -22 15 -82 -14 -72 -36 -157 -106 -157
-130 0 -9 12 -28 26 -43 l26 -27 -27 -37 c-20 -25 -33 -34 -44 -29 -33 14 -67
15 -78 2 -32 -41 -65 -227 -45 -256 5 -8 27 -16 49 -19 39 -5 41 -7 47 -47 4
-22 3 -42 -1 -43 -36 -13 -59 -32 -61 -52 -7 -48 107 -221 146 -221 9 0 28 12
43 26 l27 26 36 -24 c37 -23 37 -24 20 -84 -3 -13 1 -27 11 -37 21 -22 105
-46 184 -54 73 -7 91 5 91 64 0 28 4 33 23 33 12 0 31 3 42 6 16 4 24 -3 38
-30 13 -29 22 -36 45 -36 55 0 212 112 212 151 0 10 -11 30 -24 46 l-24 29 27
33 c27 33 28 33 64 20 32 -11 39 -11 53 3 39 38 70 238 42 266 -7 7 -27 12
-45 12 -35 0 -38 3 -47 56 -4 28 -2 33 25 44 50 21 54 42 19 111 -35 68 -104
149 -128 149 -9 0 -28 -11 -42 -25 l-26 -25 -37 27 c-26 19 -36 31 -31 42 18
43 16 69 -7 85 -35 22 -135 46 -196 46 -48 0 -54 -3 -63 -26z m163 -70 c20 -6
21 -17 6 -45 -15 -29 -3 -53 34 -71 17 -8 52 -32 75 -52 24 -20 49 -36 55 -36
6 0 23 12 38 26 l27 26 24 -34 c41 -55 41 -56 2 -73 -35 -14 -36 -17 -31 -53
14 -90 28 -166 33 -174 3 -4 23 -11 45 -14 30 -5 38 -11 35 -23 -2 -9 -8 -31
-11 -49 -5 -26 -11 -32 -23 -27 -54 21 -71 18 -89 -15 -10 -18 -35 -55 -55
-83 -21 -29 -38 -55 -38 -58 0 -4 11 -21 25 -38 l26 -30 -38 -25 c-42 -29 -63
-33 -63 -12 0 8 -8 24 -18 36 -17 22 -19 22 -72 6 -29 -9 -70 -16 -91 -16 -41
0 -56 -13 -65 -58 -7 -34 -16 -37 -73 -26 -24 5 -31 11 -26 23 21 53 18 70
-15 88 -18 10 -54 35 -81 56 -27 20 -54 37 -61 37 -6 0 -24 -12 -39 -26 l-27
-26 -26 38 c-33 48 -33 62 -1 70 38 10 46 33 30 89 -8 26 -15 64 -15 83 0 45
-24 72 -65 72 l-32 0 10 51 c9 45 12 50 31 44 54 -18 68 -12 99 40 16 28 40
61 53 76 29 31 30 49 4 82 -11 14 -20 27 -20 30 0 6 81 59 85 55 1 -2 7 -16
12 -33 11 -35 30 -37 148 -16 83 15 95 23 95 68 0 34 1 34 33 28 17 -4 40 -9
50 -11z"/>
<path d="M1736 1923 c-3 -4 -6 -16 -6 -29 0 -32 -10 -54 -24 -54 -7 0 -34 -11
-61 -25 l-49 -24 -33 20 c-18 11 -38 17 -44 13 -17 -10 -49 -85 -49 -116 0
-24 5 -28 42 -35 37 -8 43 -12 49 -42 4 -18 16 -45 27 -60 l19 -26 -23 -34
c-26 -39 -25 -45 19 -67 83 -43 117 -37 117 22 0 26 4 34 19 34 10 0 39 11 65
25 l48 25 29 -21 c16 -11 36 -19 43 -16 16 7 46 68 53 111 4 29 2 34 -18 39
-13 4 -34 7 -46 7 -17 0 -23 6 -23 23 0 12 -11 41 -24 64 -24 42 -24 42 -5 67
10 13 19 31 19 40 0 26 -125 77 -144 59z m69 -53 l27 -10 -22 -35 -22 -35 26
-31 c25 -30 33 -48 38 -99 3 -21 9 -25 41 -28 39 -3 46 -17 26 -53 -10 -19
-10 -19 -36 1 -33 26 -37 25 -78 -5 -18 -14 -50 -29 -72 -32 -43 -7 -53 -17
-53 -55 0 -31 -16 -36 -45 -14 -18 13 -18 14 5 45 l22 32 -28 30 c-20 21 -30
43 -34 77 -5 46 -6 47 -45 52 -33 4 -39 8 -37 25 8 42 17 47 44 25 32 -24 51
-25 69 -3 18 20 71 43 102 43 21 0 25 6 31 40 7 45 5 44 41 30z"/>
<path d="M1516 510 c-42 -110 -76 -202 -76 -205 0 -3 11 -5 24 -5 20 0 27 10
46 60 l23 61 85 -3 85 -3 20 -57 c18 -51 24 -58 48 -58 l27 0 -70 183 c-38
100 -74 192 -79 205 -5 14 -17 22 -32 22 -22 0 -31 -17 -101 -200z m133 51
c17 -47 31 -88 31 -93 0 -4 -29 -8 -65 -8 -36 0 -65 3 -65 6 0 10 64 184 66
181 1 -1 16 -40 33 -86z"/>
<path d="M1830 690 c0 -18 7 -20 60 -20 l60 0 0 -185 0 -185 25 0 25 0 0 185
0 185 55 0 c48 0 55 2 55 20 0 19 -7 20 -140 20 -133 0 -140 -1 -140 -20z"/>
<path d="M2140 704 c0 -4 28 -83 61 -178 34 -94 66 -183 71 -198 8 -21 17 -28
36 -28 26 0 30 9 97 192 86 234 82 218 53 218 -23 0 -29 -14 -84 -170 -32 -93
-61 -170 -64 -170 -3 0 -31 77 -64 170 -54 156 -60 170 -82 170 -13 0 -24 -3
-24 -6z"/>
<path d="M185 593 c-59 -15 -95 -72 -95 -150 0 -99 61 -159 152 -149 25 3 56
11 68 18 57 35 79 161 40 226 -30 50 -97 72 -165 55z m109 -58 c64 -69 26
-205 -57 -205 -71 0 -118 75 -96 152 20 74 106 104 153 53z"/>
<path d="M546 575 c-34 -23 -36 -23 -36 -5 0 13 -7 20 -20 20 -19 0 -20 -7
-20 -210 0 -203 1 -210 20 -210 18 0 20 7 20 80 0 44 3 80 6 80 3 0 12 -7 20
-15 39 -39 130 -24 168 28 28 38 35 151 12 195 -32 63 -108 79 -170 37z m101
-30 c72 -51 36 -215 -48 -215 -38 0 -77 35 -85 75 -20 108 59 191 133 140z"/>
<path d="M872 583 c-44 -21 -72 -78 -72 -143 0 -114 76 -171 188 -140 35 9 42
15 42 35 0 23 -1 23 -27 9 -38 -19 -96 -18 -122 4 -12 9 -25 32 -30 50 l-10
32 105 0 104 0 0 30 c0 108 -87 168 -178 123z m105 -45 c13 -12 23 -32 23 -45
0 -22 -3 -23 -75 -23 -67 0 -75 2 -75 19 0 27 48 71 78 71 14 0 36 -10 49 -22z"/>
<path d="M1240 593 c-8 -3 -25 -15 -37 -26 l-23 -20 0 21 c0 15 -6 22 -20 22
-19 0 -20 -7 -20 -145 0 -136 1 -145 19 -145 17 0 19 10 23 104 3 94 5 107 27
130 30 32 73 34 101 6 18 -18 20 -33 20 -130 l0 -110 25 0 c25 0 25 0 25 98 0
123 -12 167 -50 187 -29 15 -62 18 -90 8z"/>
</g>
</svg>
