<?xml version="1.0" standalone="no"?>
<!DOCTYPE svg PUBLIC "-//W3C//DTD SVG 20010904//EN"
 "http://www.w3.org/TR/2001/REC-SVG-20010904/DTD/svg10.dtd">
<svg version="1.0" xmlns="http://www.w3.org/2000/svg"
 width="256.000000pt" height="256.000000pt" viewBox="0 0 256.000000 256.000000"
 preserveAspectRatio="xMidYMid meet">
<metadata>
Created by potrace 1.16, written by Peter Selinger 2001-2019
</metadata>
<g transform="translate(0.000000,256.000000) scale(0.100000,-0.100000)"
fill="#000000" stroke="none">
<path d="M673 2418 c-6 -7 -28 -50 -48 -95 -21 -46 -39 -83 -41 -83 -2 0 -38
25 -80 55 -42 30 -86 55 -97 55 -19 0 -20 -4 -13 -111 l7 -110 -33 5 c-18 3
-67 7 -108 8 -59 2 -75 0 -77 -12 -2 -8 21 -49 52 -92 30 -42 55 -80 55 -85 0
-4 -36 -24 -81 -43 -44 -19 -87 -42 -95 -51 -19 -21 -2 -36 98 -80 43 -19 78
-37 78 -41 0 -4 -25 -42 -55 -85 -31 -42 -54 -84 -53 -92 4 -18 30 -19 146 -9
l72 7 0 -30 c0 -54 -34 -86 -106 -99 -79 -15 -161 -63 -186 -110 -31 -57 -19
-106 37 -157 75 -68 204 -96 325 -69 64 14 66 13 165 -19 55 -19 135 -38 178
-44 217 -30 459 9 604 95 l54 33 53 -34 c208 -138 605 -138 813 0 197 131 123
330 -152 410 -33 10 -66 19 -73 21 -10 3 -9 9 2 26 27 41 48 146 41 198 -8 62
-52 153 -99 207 -50 58 -169 135 -263 171 -221 86 -517 88 -743 6 -35 -13 -66
-22 -68 -20 -1 2 1 46 7 97 5 52 7 97 4 102 -10 17 -44 3 -118 -50 -43 -31
-80 -53 -82 -47 -17 44 -90 179 -99 182 -6 1 -16 -3 -21 -10z m136 -257 c28
-10 61 -28 75 -38 l25 -20 -57 -45 c-71 -55 -124 -119 -154 -184 -18 -38 -23
-67 -23 -130 l0 -81 -85 -37 c-47 -20 -91 -40 -98 -43 -18 -8 -81 63 -108 121
-47 102 -40 218 19 317 37 62 113 123 177 144 66 20 170 19 229 -4z"/>
<path d="M1516 510 c-42 -110 -76 -202 -76 -205 0 -3 11 -5 24 -5 20 0 27 10
46 60 l23 61 85 -3 85 -3 20 -57 c18 -51 24 -58 48 -58 l27 0 -70 183 c-38
100 -74 192 -79 205 -5 14 -17 22 -32 22 -22 0 -31 -17 -101 -200z m133 51
c17 -47 31 -88 31 -93 0 -4 -29 -8 -65 -8 -36 0 -65 3 -65 6 0 10 64 184 66
181 1 -1 16 -40 33 -86z"/>
<path d="M1830 690 c0 -18 7 -20 60 -20 l60 0 0 -185 0 -185 25 0 25 0 0 185
0 185 55 0 c48 0 55 2 55 20 0 19 -7 20 -140 20 -133 0 -140 -1 -140 -20z"/>
<path d="M2140 704 c0 -4 28 -83 61 -178 34 -94 66 -183 71 -198 8 -21 17 -28
36 -28 26 0 30 9 97 192 86 234 82 218 53 218 -23 0 -29 -14 -84 -170 -32 -93
-61 -170 -64 -170 -3 0 -31 77 -64 170 -54 156 -60 170 -82 170 -13 0 -24 -3
-24 -6z"/>
<path d="M185 593 c-59 -15 -95 -72 -95 -150 0 -99 61 -159 152 -149 25 3 56
11 68 18 57 35 79 161 40 226 -30 50 -97 72 -165 55z m109 -58 c64 -69 26
-205 -57 -205 -71 0 -118 75 -96 152 20 74 106 104 153 53z"/>
<path d="M546 575 c-34 -23 -36 -23 -36 -5 0 13 -7 20 -20 20 -19 0 -20 -7
-20 -210 0 -203 1 -210 20 -210 18 0 20 7 20 80 0 44 3 80 6 80 3 0 12 -7 20
-15 39 -39 130 -24 168 28 28 38 35 151 12 195 -32 63 -108 79 -170 37z m101
-30 c72 -51 36 -215 -48 -215 -38 0 -77 35 -85 75 -20 108 59 191 133 140z"/>
<path d="M872 583 c-44 -21 -72 -78 -72 -143 0 -114 76 -171 188 -140 35 9 42
15 42 35 0 23 -1 23 -27 9 -38 -19 -96 -18 -122 4 -12 9 -25 32 -30 50 l-10
32 105 0 104 0 0 30 c0 108 -87 168 -178 123z m105 -45 c13 -12 23 -32 23 -45
0 -22 -3 -23 -75 -23 -67 0 -75 2 -75 19 0 27 48 71 78 71 14 0 36 -10 49 -22z"/>
<path d="M1240 593 c-8 -3 -25 -15 -37 -26 l-23 -20 0 21 c0 15 -6 22 -20 22
-19 0 -20 -7 -20 -145 0 -136 1 -145 19 -145 17 0 19 10 23 104 3 94 5 107 27
130 30 32 73 34 101 6 18 -18 20 -33 20 -130 l0 -110 25 0 c25 0 25 0 25 98 0
123 -12 167 -50 187 -29 15 -62 18 -90 8z"/>
</g>
</svg>
