<?xml version="1.0" standalone="no"?>
<!DOCTYPE svg PUBLIC "-//W3C//DTD SVG 20010904//EN"
 "http://www.w3.org/TR/2001/REC-SVG-20010904/DTD/svg10.dtd">
<svg version="1.0" xmlns="http://www.w3.org/2000/svg"
 width="384.000000pt" height="384.000000pt" viewBox="0 0 384.000000 384.000000"
 preserveAspectRatio="xMidYMid meet">
<metadata>
Created by potrace 1.16, written by Peter Selinger 2001-2019
</metadata>
<g transform="translate(0.000000,384.000000) scale(0.100000,-0.100000)"
fill="#000000" stroke="none">
<path d="M1730 3646 c-322 -72 -583 -294 -699 -596 -70 -179 -80 -413 -26
-595 104 -357 380 -606 748 -677 l118 -23 -3 -75 -3 -75 -460 -2 c-547 -3
-495 12 -495 -149 l0 -104 -293 0 c-281 0 -294 -1 -315 -20 l-22 -21 0 -549 0
-549 22 -21 c21 -20 32 -20 663 -20 l642 0 21 23 22 23 0 545 0 546 -23 21
c-23 22 -29 22 -316 22 l-292 0 3 72 3 73 895 0 895 0 3 -72 3 -73 -294 0
-294 0 -21 -23 -22 -23 0 -545 0 -546 23 -21 23 -22 642 0 c629 0 642 0 662
20 20 20 20 33 20 570 0 537 0 550 -20 570 -19 19 -33 20 -315 20 l-295 0 0
104 c0 161 52 146 -495 149 l-460 2 0 75 0 75 50 9 c165 28 312 82 422 157
202 136 338 330 399 569 29 114 27 345 -4 459 -97 357 -375 620 -735 696 -83
18 -299 18 -377 1z m138 -283 l-3 -178 -45 3 c-54 3 -178 31 -185 42 -3 4 16
50 42 102 32 65 64 110 104 151 89 89 90 88 87 -120z m191 120 c40 -41 72 -86
104 -151 26 -52 45 -98 42 -102 -7 -11 -131 -39 -185 -42 l-45 -3 -3 178 c-3
208 -2 209 87 120z m-409 22 c0 -2 -10 -19 -22 -37 -13 -19 -39 -68 -58 -110
-19 -43 -39 -77 -44 -78 -13 0 -102 58 -117 76 -17 21 19 50 136 109 86 43
105 51 105 40z m645 -40 c49 -25 103 -56 120 -69 25 -20 27 -26 16 -39 -15
-19 -104 -77 -117 -77 -5 1 -25 35 -44 78 -19 42 -45 91 -57 110 -38 55 -35
55 82 -3z m-908 -227 c44 -29 87 -57 95 -63 15 -9 14 -19 -3 -103 -11 -51 -23
-139 -27 -195 l-7 -102 -184 -3 -183 -2 6 47 c21 147 80 289 167 406 28 37 52
67 53 67 2 0 39 -24 83 -52z m1202 -15 c87 -117 146 -259 167 -406 l6 -47
-183 2 -184 3 -7 102 c-4 56 -16 144 -26 195 -11 51 -17 94 -13 96 3 1 44 29
91 61 47 32 88 59 92 60 3 0 29 -29 57 -66z m-879 -128 c36 -7 85 -17 110 -22
l45 -8 0 -145 0 -145 -158 -3 -158 -3 6 63 c10 103 26 210 36 251 9 34 13 38
32 33 12 -4 51 -13 87 -21z m539 -12 c10 -38 25 -150 36 -256 l5 -58 -157 3
-158 3 0 145 0 145 50 9 c28 4 82 16 120 26 96 24 93 24 104 -17z m-797 -534
c4 -58 16 -146 27 -195 10 -49 17 -92 14 -97 -2 -4 -21 -16 -42 -27 -21 -10
-59 -35 -85 -55 -27 -20 -54 -34 -62 -31 -24 9 -106 128 -145 211 -39 84 -63
165 -75 253 l-7 52 184 -2 184 -3 7 -106z m416 -42 c2 -113 0 -148 -10 -151
-7 -2 -48 -9 -92 -16 -43 -6 -96 -18 -119 -26 -22 -8 -42 -12 -45 -10 -16 17
-58 329 -46 348 3 5 74 7 157 6 l152 -3 3 -148z m414 78 c-3 -66 -26 -229 -38
-268 -4 -12 -11 -16 -22 -12 -36 14 -132 36 -188 43 l-59 7 -3 140 c-1 76 0
145 2 152 4 11 39 13 158 11 l153 -3 -3 -70z m474 23 c-11 -83 -36 -166 -76
-253 -38 -82 -120 -202 -144 -211 -8 -3 -35 11 -62 31 -26 20 -64 45 -85 55
-21 11 -40 23 -42 27 -3 5 3 46 14 93 10 47 21 130 25 185 3 55 7 106 10 113
2 9 48 12 185 12 l182 0 -7 -52z m-886 -542 c0 -96 -4 -177 -9 -180 -15 -10
-97 61 -133 116 -39 58 -58 93 -81 150 -15 36 -15 38 4 49 28 14 135 37 182
38 l37 1 0 -174z m278 149 c28 -9 53 -19 56 -23 6 -11 -48 -124 -90 -187 -37
-57 -119 -129 -135 -119 -5 3 -9 84 -9 181 l0 176 64 -7 c35 -3 86 -13 114
-21z m-588 -131 c16 -37 44 -89 61 -117 16 -27 29 -50 27 -52 -2 -2 -39 14
-83 35 -83 39 -165 93 -165 109 0 7 117 91 127 91 2 0 16 -30 33 -66z m856 -2
l29 -22 -35 -31 c-32 -28 -211 -122 -218 -114 -2 1 11 25 27 52 17 28 45 80
61 117 l31 67 37 -23 c21 -13 51 -33 68 -46z m-906 -1322 l0 -440 -545 0 -545
0 0 440 0 440 545 0 545 0 0 -440z m1910 0 l0 -440 -540 2 -540 3 0 433 c0
237 0 434 0 437 0 3 243 5 540 5 l540 0 0 -440z"/>
<path d="M840 1094 c-78 -21 -150 -58 -203 -104 -55 -48 -64 -72 -43 -105 23
-35 64 -32 112 6 22 18 68 46 104 63 57 27 75 31 150 30 101 0 174 -24 250
-85 56 -44 90 -49 120 -17 29 32 25 46 -25 95 -115 109 -309 158 -465 117z"/>
<path d="M892 920 c-93 -20 -203 -89 -216 -136 -8 -27 28 -74 56 -74 11 0 37
14 58 30 56 44 107 62 175 62 68 -1 113 -17 169 -61 44 -35 62 -38 94 -15 81
57 -69 184 -234 198 -33 3 -78 1 -102 -4z"/>
<path d="M882 731 c-95 -33 -140 -102 -94 -144 25 -23 54 -21 86 4 56 44 140
44 181 -1 37 -41 105 -14 105 43 0 34 -59 83 -124 102 -64 19 -89 18 -154 -4z"/>
<path d="M915 535 c-14 -13 -25 -36 -25 -50 0 -33 41 -75 73 -75 41 0 71 32
71 75 0 69 -71 99 -119 50z"/>
<path d="M2740 1102 c-6 -2 -10 -35 -10 -73 l0 -69 -63 0 c-73 0 -87 -10 -87
-62 l0 -38 -64 0 c-42 0 -67 -5 -75 -14 -8 -9 -11 -75 -9 -217 l3 -204 440 0
440 0 0 215 0 215 -72 3 -73 3 0 43 c0 52 -7 56 -91 56 l-59 0 0 70 c0 39 -3
70 -7 70 -44 3 -265 4 -273 2z m-112 -514 l-3 -73 -45 0 -45 0 -3 73 -3 72 51
0 51 0 -3 -72z m200 0 l-3 -73 -45 0 -45 0 -3 73 -3 72 51 0 51 0 -3 -72z
m192 -3 l0 -75 -45 0 -45 0 0 75 0 75 45 0 45 0 0 -75z m198 3 l-3 -73 -45 0
-45 0 -3 73 -3 72 51 0 51 0 -3 -72z"/>
</g>
</svg>
