<?xml version="1.0" standalone="no"?>
<!DOCTYPE svg PUBLIC "-//W3C//DTD SVG 20010904//EN"
 "http://www.w3.org/TR/2001/REC-SVG-20010904/DTD/svg10.dtd">
<svg version="1.0" xmlns="http://www.w3.org/2000/svg"
 width="384.000000pt" height="384.000000pt" viewBox="0 0 384.000000 384.000000"
 preserveAspectRatio="xMidYMid meet">
<metadata>
Created by potrace 1.16, written by Peter Selinger 2001-2019
</metadata>
<g transform="translate(0.000000,384.000000) scale(0.100000,-0.100000)"
fill="#000000" stroke="none">
<path d="M1798 3450 c-260 -41 -492 -213 -612 -453 -76 -153 -79 -170 -84
-524 l-4 -313 185 0 185 0 4 278 c4 254 6 282 26 337 33 91 114 190 191 237
81 48 116 58 214 65 166 12 327 -73 414 -218 56 -94 63 -143 63 -436 l0 -263
190 0 190 0 0 263 c0 144 -5 291 -10 327 -53 330 -297 600 -620 684 -78 20
-253 28 -332 16z"/>
<path d="M820 1150 l0 -780 1108 2 1107 3 0 775 0 775 -1107 3 -1108 2 0 -780z
m1192 310 c4 0 24 -15 44 -32 91 -80 97 -207 14 -293 -46 -48 -60 -93 -60
-200 l0 -95 -84 0 -84 0 -4 114 c-3 101 -6 118 -26 143 -70 88 -77 103 -77
178 0 61 4 77 27 113 44 65 121 96 203 80 22 -4 43 -7 47 -8z"/>
</g>
</svg>
