<?xml version="1.0" standalone="no"?>
<!DOCTYPE svg PUBLIC "-//W3C//DTD SVG 20010904//EN"
 "http://www.w3.org/TR/2001/REC-SVG-20010904/DTD/svg10.dtd">
<svg version="1.0" xmlns="http://www.w3.org/2000/svg"
 width="384.000000pt" height="384.000000pt" viewBox="0 0 384.000000 384.000000"
 preserveAspectRatio="xMidYMid meet">
<metadata>
Created by potrace 1.16, written by Peter Selinger 2001-2019
</metadata>
<g transform="translate(0.000000,384.000000) scale(0.100000,-0.100000)"
fill="#000000" stroke="none">
<path d="M2804 3447 c-67 -56 -262 -219 -435 -362 -173 -143 -431 -357 -574
-475 -216 -179 -729 -604 -744 -617 -13 -10 46 -34 354 -138 187 -63 342 -118
346 -123 8 -7 -16 -45 -296 -477 -77 -119 -189 -293 -250 -386 -60 -93 -167
-258 -238 -366 -70 -108 -125 -198 -122 -201 2 -3 26 13 52 34 42 34 1410
1173 1650 1372 50 43 91 81 90 85 -2 5 -95 43 -207 84 -383 140 -450 166 -450
178 0 6 26 51 58 100 116 177 198 304 367 565 94 146 198 306 230 355 32 50
87 135 123 190 36 55 81 125 101 155 60 90 83 130 74 129 -4 0 -62 -46 -129
-102z"/>
</g>
</svg>
