<?xml version="1.0" standalone="no"?>
<!DOCTYPE svg PUBLIC "-//W3C//DTD SVG 20010904//EN"
 "http://www.w3.org/TR/2001/REC-SVG-20010904/DTD/svg10.dtd">
<svg version="1.0" xmlns="http://www.w3.org/2000/svg"
 width="384.000000pt" height="384.000000pt" viewBox="0 0 384.000000 384.000000"
 preserveAspectRatio="xMidYMid meet">
<metadata>
Created by potrace 1.16, written by Peter Selinger 2001-2019
</metadata>
<g transform="translate(0.000000,384.000000) scale(0.100000,-0.100000)"
fill="#000000" stroke="none">
<path d="M3280 3449 c-34 -15 -177 -151 -590 -563 -468 -467 -558 -552 -638
-604 -96 -63 -319 -180 -432 -227 -36 -15 -69 -31 -75 -36 -14 -14 525 -551
540 -539 7 5 29 47 50 92 21 46 65 133 98 193 132 243 126 237 721 835 584
586 596 600 596 689 0 71 -39 134 -102 167 -38 20 -115 17 -168 -7z"/>
<path d="M1320 1835 c-108 -38 -237 -121 -304 -196 -89 -99 -130 -191 -267
-603 -106 -315 -148 -406 -231 -492 -55 -57 -157 -124 -190 -124 -8 0 -22 -6
-32 -13 -16 -12 4 -17 145 -37 345 -48 716 -3 954 118 285 144 473 414 514
739 l9 68 -267 268 c-146 148 -273 272 -281 276 -8 5 -31 3 -50 -4z m44 -280
c16 -30 21 -57 20 -110 -2 -245 -220 -564 -544 -799 -68 -49 -85 -47 -52 6 18
29 49 97 179 393 140 315 302 565 361 553 8 -2 24 -21 36 -43z"/>
</g>
</svg>
