<?xml version="1.0" standalone="no"?>
<!DOCTYPE svg PUBLIC "-//W3C//DTD SVG 20010904//EN"
 "http://www.w3.org/TR/2001/REC-SVG-20010904/DTD/svg10.dtd">
<svg version="1.0" xmlns="http://www.w3.org/2000/svg"
 width="384.000000pt" height="384.000000pt" viewBox="0 0 384.000000 384.000000"
 preserveAspectRatio="xMidYMid meet">
<metadata>
Created by potrace 1.16, written by Peter Selinger 2001-2019
</metadata>
<g transform="translate(0.000000,384.000000) scale(0.100000,-0.100000)"
fill="#000000" stroke="none">
<path d="M840 3134 c0 -4 65 -75 145 -159 80 -84 145 -156 145 -160 0 -4 -28
-38 -63 -75 -142 -150 -251 -362 -293 -570 -123 -607 254 -1214 850 -1370 94
-25 255 -45 266 -34 7 7 14 227 10 310 0 6 -39 17 -87 24 -604 90 -922 750
-612 1273 42 71 155 200 171 195 5 -2 85 -80 178 -173 93 -93 172 -167 175
-164 3 4 1 125 -5 270 -5 145 -10 325 -11 399 -1 74 -4 149 -8 165 l-6 30
-210 12 c-116 6 -289 16 -385 22 -199 13 -260 14 -260 5z"/>
<path d="M1938 2955 c-2 -85 -1 -160 0 -165 2 -6 19 -10 37 -10 96 0 273 -56
382 -122 79 -47 192 -155 250 -240 100 -145 142 -273 150 -453 4 -106 2 -131
-21 -220 -43 -164 -127 -316 -231 -415 l-37 -35 -173 179 c-97 100 -175 174
-179 168 -4 -6 -2 -125 4 -264 5 -139 10 -310 10 -379 0 -69 3 -147 6 -172 l6
-45 82 -6 c194 -16 770 -45 778 -40 5 4 -57 73 -139 155 -81 82 -150 154 -151
160 -2 5 22 37 53 70 296 321 399 769 269 1174 -119 370 -422 666 -789 771
-76 22 -205 44 -257 44 l-47 0 -3 -155z"/>
</g>
</svg>
