<?xml version="1.0" standalone="no"?>
<!DOCTYPE svg PUBLIC "-//W3C//DTD SVG 20010904//EN"
 "http://www.w3.org/TR/2001/REC-SVG-20010904/DTD/svg10.dtd">
<svg version="1.0" xmlns="http://www.w3.org/2000/svg"
 width="384.000000pt" height="384.000000pt" viewBox="0 0 384.000000 384.000000"
 preserveAspectRatio="xMidYMid meet">
<metadata>
Created by potrace 1.16, written by Peter Selinger 2001-2019
</metadata>
<g transform="translate(0.000000,384.000000) scale(0.100000,-0.100000)"
fill="#000000" stroke="none">
<path d="M1190 2589 c-254 -26 -429 -92 -567 -214 -85 -74 -83 -75 149 -75
l202 0 50 35 c70 48 171 69 285 60 137 -10 173 -46 116 -113 -49 -59 -81 -66
-290 -72 l-189 -5 -36 -52 c-61 -91 -80 -124 -80 -138 0 -11 36 -14 173 -17
145 -2 177 -6 200 -21 65 -43 6 -129 -119 -172 -63 -22 -263 -32 -322 -16 -60
17 -84 43 -80 89 l3 37 -200 0 -200 0 -24 -43 c-15 -28 -25 -67 -28 -106 -5
-60 -4 -64 28 -101 71 -81 199 -108 499 -108 170 1 238 5 326 21 268 49 450
143 546 285 35 51 43 72 46 120 4 51 1 61 -19 83 -13 14 -37 33 -53 41 l-29
15 66 22 c84 28 171 87 213 146 124 168 50 266 -226 300 -98 12 -317 11 -440
-1z"/>
<path d="M2233 2578 c-17 -22 -133 -207 -133 -213 0 -3 175 -5 388 -5 314 0
398 -3 438 -15 88 -26 117 -77 89 -160 -40 -117 -177 -275 -287 -331 -97 -49
-136 -55 -354 -56 -112 -1 -206 1 -210 4 -4 5 58 105 207 332 21 32 36 62 33
67 -3 5 -93 9 -200 9 l-194 0 -73 -112 c-135 -208 -337 -526 -337 -532 0 -11
926 -6 1007 5 323 43 584 206 759 474 180 277 176 440 -13 517 -58 23 -61 23
-584 26 -423 3 -528 1 -536 -10z"/>
<path d="M3564 2273 c-12 -49 -71 -166 -121 -243 -205 -312 -493 -493 -858
-540 -105 -13 -2195 -10 -2232 4 -36 13 -29 -18 10 -48 48 -37 107 -55 227
-71 154 -21 2038 -21 2185 0 281 40 524 185 691 415 112 154 164 273 164 378
0 97 -49 174 -66 105z"/>
</g>
</svg>
