<?xml version="1.0" standalone="no"?>
<!DOCTYPE svg PUBLIC "-//W3C//DTD SVG 20010904//EN"
 "http://www.w3.org/TR/2001/REC-SVG-20010904/DTD/svg10.dtd">
<svg version="1.0" xmlns="http://www.w3.org/2000/svg"
 width="384.000000pt" height="384.000000pt" viewBox="0 0 384.000000 384.000000"
 preserveAspectRatio="xMidYMid meet">
<metadata>
Created by potrace 1.16, written by Peter Selinger 2001-2019
</metadata>
<g transform="translate(0.000000,384.000000) scale(0.100000,-0.100000)"
fill="#000000" stroke="none">
<path d="M1170 2603 c-35 -2 -69 -8 -75 -12 -5 -5 -39 -12 -75 -16 -36 -4 -69
-11 -75 -15 -5 -4 -25 -11 -43 -15 -18 -4 -45 -13 -60 -21 -15 -8 -33 -14 -41
-14 -8 0 -29 -11 -47 -25 -18 -14 -38 -25 -44 -25 -6 0 -13 -7 -16 -15 -4 -8
-11 -15 -18 -15 -19 0 -129 -117 -122 -129 9 -13 436 -16 436 -2 0 5 8 11 18
15 9 3 37 17 61 31 24 14 55 25 68 25 12 0 23 3 23 8 0 4 56 5 125 2 151 -7
169 -16 141 -74 -9 -20 -23 -36 -30 -36 -8 0 -19 -7 -26 -15 -7 -8 -23 -15
-36 -15 -12 0 -26 -4 -29 -10 -4 -6 -77 -10 -186 -10 -175 0 -181 -1 -200 -22
-10 -13 -18 -27 -19 -32 0 -5 -11 -24 -25 -42 -14 -18 -25 -36 -25 -39 0 -4
-9 -18 -20 -32 -11 -14 -20 -34 -20 -45 0 -18 8 -19 160 -17 88 1 163 -1 167
-5 3 -3 15 -6 27 -6 11 0 30 -10 42 -21 19 -18 21 -25 11 -43 -23 -40 -41 -56
-86 -77 -25 -12 -54 -25 -63 -30 -10 -5 -36 -9 -58 -9 -22 0 -40 -3 -40 -7 0
-5 -38 -8 -85 -8 -47 0 -85 3 -85 8 0 4 -12 7 -26 7 -52 0 -108 64 -74 85 6 3
10 13 10 21 0 12 -33 14 -222 12 l-222 -3 -12 -25 c-28 -58 -32 -78 -32 -140
0 -63 1 -67 41 -107 23 -24 48 -43 57 -43 8 0 29 -7 45 -16 17 -8 61 -18 98
-21 37 -3 70 -10 73 -14 7 -12 431 -12 438 -1 3 5 47 12 97 15 51 4 97 11 103
16 6 5 30 12 53 16 24 4 45 10 48 15 3 4 21 11 40 14 43 8 127 50 176 88 20
15 41 28 46 28 12 0 83 73 83 86 0 6 9 19 21 30 32 29 59 93 59 141 0 39 -5
49 -46 88 -43 42 -44 45 -21 45 22 0 72 23 149 66 76 44 138 150 138 237 0 45
-4 57 -27 79 -37 33 -107 68 -138 68 -13 0 -27 5 -31 11 -4 7 -27 10 -60 7
-30 -3 -54 -1 -54 4 0 8 -303 8 -440 1z m565 -37 c145 -36 193 -92 161 -186
-38 -111 -126 -186 -276 -235 l-65 -22 51 -26 c78 -40 92 -92 49 -184 -36 -80
-134 -170 -244 -226 -51 -26 -100 -47 -110 -47 -9 0 -21 -4 -27 -9 -14 -13
-145 -40 -274 -56 -224 -29 -516 -12 -644 35 -34 13 -67 35 -86 57 -30 34 -32
40 -28 97 2 34 13 79 23 101 l20 40 195 0 c185 0 195 -1 192 -19 -6 -36 8 -64
45 -87 35 -22 48 -24 173 -24 136 1 182 9 259 50 39 20 91 82 91 108 -1 59
-35 70 -238 76 l-173 6 35 55 c19 30 47 72 61 93 l26 37 172 0 c154 1 178 3
226 23 72 29 119 85 105 125 -15 42 -66 54 -214 50 -131 -4 -156 -11 -227 -64
-31 -23 -36 -24 -239 -24 l-208 0 48 49 c94 96 269 174 457 205 144 24 140 23
374 21 170 -1 236 -6 290 -19z"/>
<path d="M2238 2603 c-10 -2 -18 -9 -18 -14 0 -6 -11 -25 -25 -43 -14 -18 -25
-36 -25 -41 0 -4 -13 -24 -30 -45 -16 -21 -30 -41 -30 -46 0 -4 -7 -15 -16
-25 -9 -10 -13 -22 -10 -28 4 -6 142 -9 391 -8 212 1 385 -1 385 -5 0 -5 15
-8 34 -8 19 0 37 -4 41 -9 3 -5 18 -12 34 -16 54 -12 55 -85 4 -187 -73 -145
-251 -290 -376 -305 -26 -3 -50 -10 -53 -14 -8 -14 -364 -11 -364 2 0 6 14 28
30 49 17 21 30 41 30 45 0 4 13 24 29 44 16 21 33 49 36 63 4 15 13 29 21 32
8 3 14 10 14 17 0 6 14 28 30 49 17 21 30 42 30 48 0 5 7 15 15 22 8 7 15 19
15 26 0 12 -40 14 -220 14 -154 0 -220 -3 -220 -11 0 -6 -12 -28 -27 -48 -34
-44 -49 -68 -65 -101 -7 -14 -25 -41 -40 -61 -15 -20 -28 -40 -28 -44 0 -3
-11 -21 -25 -39 -14 -18 -25 -36 -25 -41 0 -4 -13 -24 -30 -45 -16 -21 -30
-41 -30 -45 0 -4 -13 -24 -28 -44 -15 -20 -33 -47 -40 -61 -21 -41 -39 -71
-51 -83 -6 -6 -11 -21 -11 -34 l0 -23 469 0 c303 0 472 4 476 10 3 6 33 10 66
10 32 0 59 4 59 8 0 5 14 7 30 4 17 -2 36 0 43 6 6 5 31 13 54 17 24 4 45 10
48 15 3 4 21 11 40 14 19 4 35 11 35 16 0 6 11 10 24 10 13 0 35 9 49 20 14
11 29 20 33 20 4 0 22 11 40 25 18 14 38 25 44 25 15 0 250 236 250 251 0 6
12 26 26 45 28 36 50 74 79 134 9 19 24 50 33 69 12 25 17 61 17 129 l0 94
-59 55 c-40 37 -65 53 -77 50 -11 -3 -19 -1 -19 4 0 5 -8 9 -18 9 -10 0 -23 5
-29 11 -7 7 -35 10 -72 7 -34 -2 -61 -1 -61 4 0 8 -901 9 -932 1z m1071 -36
c137 -40 181 -88 181 -198 0 -131 -131 -361 -297 -520 -135 -130 -264 -199
-463 -250 -81 -21 -111 -22 -602 -26 -285 -3 -518 -3 -518 0 0 2 24 40 53 85
28 45 88 138 132 207 44 69 110 172 147 230 l68 105 195 0 c107 0 195 -2 195
-5 0 -3 -28 -49 -63 -103 -192 -296 -191 -293 -176 -303 19 -14 392 -4 449 11
159 43 321 183 396 343 45 97 27 163 -53 203 -35 17 -71 19 -435 22 -226 2
-398 7 -398 12 0 10 95 165 118 192 14 16 51 17 516 14 418 -3 510 -6 555 -19z"/>
<path d="M3562 2318 c-7 -7 -12 -24 -12 -38 0 -14 -6 -34 -14 -45 -7 -11 -16
-33 -20 -49 -4 -16 -18 -43 -31 -60 -13 -17 -27 -43 -30 -58 -4 -16 -11 -28
-16 -28 -5 0 -12 -8 -16 -17 -3 -10 -32 -48 -65 -85 -32 -36 -58 -70 -58 -75
0 -13 -54 -63 -67 -63 -6 0 -28 -19 -50 -42 -42 -45 -64 -62 -100 -78 -13 -5
-23 -14 -23 -20 0 -5 -5 -10 -12 -10 -9 0 -97 -39 -179 -81 -9 -4 -33 -11 -53
-14 -20 -4 -38 -11 -41 -15 -3 -5 -34 -12 -70 -15 -36 -4 -68 -11 -71 -16 -3
-5 -29 -9 -58 -9 -29 0 -55 -2 -58 -5 -8 -8 -2048 -11 -2048 -2 0 4 -26 7 -58
7 -32 0 -63 5 -69 11 -14 14 -33 3 -33 -20 0 -32 114 -112 139 -97 6 4 11 2
11 -3 0 -6 13 -11 29 -11 17 0 33 -5 37 -11 4 -7 27 -10 60 -7 30 3 54 1 54
-4 0 -14 2174 -6 2191 8 8 7 38 15 66 19 29 4 55 11 59 16 3 5 12 9 21 9 21 0
79 26 211 94 42 22 312 286 312 305 0 7 13 30 28 50 36 47 102 182 102 209 0
11 5 24 10 27 18 11 11 118 -9 161 -26 53 -53 78 -69 62z m52 -71 c31 -82 14
-166 -60 -305 -140 -261 -358 -447 -609 -522 -155 -46 -131 -45 -1280 -45
l-1090 0 -84 23 c-79 21 -157 64 -147 81 3 4 44 3 93 -1 48 -5 558 -7 1133 -5
1159 4 1077 0 1282 71 221 77 424 236 570 447 69 98 148 249 148 281 0 34 27
18 44 -25z"/>
</g>
</svg>
