<?xml version="1.0" standalone="no"?>
<!DOCTYPE svg PUBLIC "-//W3C//DTD SVG 20010904//EN"
 "http://www.w3.org/TR/2001/REC-SVG-20010904/DTD/svg10.dtd">
<svg version="1.0" xmlns="http://www.w3.org/2000/svg"
 width="364.000000pt" height="364.000000pt" viewBox="0 0 364.000000 364.000000"
 preserveAspectRatio="xMidYMid meet">
<metadata>
Created by potrace 1.16, written by Peter Selinger 2001-2019
</metadata>
<g transform="translate(0.000000,364.000000) scale(0.100000,-0.100000)"
fill="#000000" stroke="none">
<path d="M1645 3634 c-136 -19 -191 -28 -260 -46 -569 -141 -1047 -559 -1258
-1098 -96 -246 -134 -474 -124 -745 7 -169 23 -272 67 -427 175 -616 682
-1109 1299 -1262 176 -44 237 -51 456 -51 176 1 228 4 325 23 579 113 1062
484 1310 1005 72 150 112 271 147 436 24 113 27 148 27 341 1 137 -4 242 -12
290 -81 459 -303 845 -647 1125 -129 105 -213 158 -360 230 -173 85 -298 126
-490 162 -76 14 -415 26 -480 17z m435 -603 c490 -111 854 -482 957 -975 18
-86 24 -324 11 -428 -77 -597 -485 -1142 -1078 -1439 -131 -65 -378 -159 -420
-159 -4 0 -10 96 -12 212 -3 206 -4 215 -30 270 -37 79 -93 129 -205 182 -367
177 -614 489 -699 886 -27 128 -26 363 4 495 72 326 254 592 537 782 149 100
349 173 545 197 76 9 307 -4 390 -23z"/>
</g>
</svg>
