<?xml version="1.0" standalone="no"?>
<!DOCTYPE svg PUBLIC "-//W3C//DTD SVG 20010904//EN"
 "http://www.w3.org/TR/2001/REC-SVG-20010904/DTD/svg10.dtd">
<svg version="1.0" xmlns="http://www.w3.org/2000/svg"
 width="384.000000pt" height="384.000000pt" viewBox="0 0 384.000000 384.000000"
 preserveAspectRatio="xMidYMid meet">
<metadata>
Created by potrace 1.16, written by Peter Selinger 2001-2019
</metadata>
<g transform="translate(0.000000,384.000000) scale(0.100000,-0.100000)"
fill="#000000" stroke="none">
<path d="M2180 3076 c-41 -24 -251 -144 -466 -268 -216 -124 -406 -234 -423
-244 l-31 -18 2 -635 3 -635 225 -130 c635 -365 775 -444 782 -440 4 3 8 547
8 1210 0 957 -3 1204 -12 1204 -7 0 -47 -20 -88 -44z"/>
<path d="M2995 2792 c-120 -117 -116 -97 -38 -195 314 -391 324 -930 26 -1332
-33 -44 -67 -86 -76 -94 -9 -7 -17 -19 -17 -25 0 -22 177 -189 194 -183 18 7
123 138 173 216 86 134 153 298 190 466 24 112 29 350 8 480 -30 190 -97 365
-202 530 -53 82 -162 216 -175 215 -2 0 -39 -36 -83 -78z"/>
<path d="M2653 2449 l-92 -93 20 -26 c89 -114 132 -205 150 -323 27 -171 -25
-356 -138 -495 l-36 -44 89 -89 c49 -49 94 -89 100 -89 15 0 112 128 152 200
17 30 45 98 63 150 29 86 33 109 37 246 4 137 2 158 -21 245 -40 151 -99 264
-189 363 l-43 48 -92 -93z"/>
<path d="M503 2474 c-47 -23 -100 -86 -113 -134 -7 -27 -10 -175 -8 -448 3
-400 3 -408 25 -449 25 -47 71 -84 122 -102 21 -7 118 -11 262 -11 l229 0 0
580 0 580 -242 0 c-202 0 -248 -3 -275 -16z"/>
</g>
</svg>
