<?xml version="1.0" standalone="no"?>
<!DOCTYPE svg PUBLIC "-//W3C//DTD SVG 20010904//EN"
 "http://www.w3.org/TR/2001/REC-SVG-20010904/DTD/svg10.dtd">
<svg version="1.0" xmlns="http://www.w3.org/2000/svg"
 width="384.000000pt" height="384.000000pt" viewBox="0 0 384.000000 384.000000"
 preserveAspectRatio="xMidYMid meet">
<metadata>
Created by potrace 1.16, written by Peter Selinger 2001-2019
</metadata>
<g transform="translate(0.000000,384.000000) scale(0.100000,-0.100000)"
fill="#000000" stroke="none">
<path d="M1176 3548 c-8 -18 -31 -71 -51 -118 -103 -239 -165 -431 -165 -512
0 -64 35 -152 79 -201 144 -159 377 -53 398 182 6 66 -16 158 -79 326 -59 160
-143 348 -157 353 -6 2 -18 -11 -25 -30z"/>
<path d="M1907 3573 c-21 -34 -152 -361 -182 -453 -48 -149 -55 -225 -25 -304
86 -226 333 -235 434 -17 16 35 21 66 20 126 0 96 -43 234 -152 489 -63 148
-82 180 -95 159z"/>
<path d="M2609 3533 c-153 -353 -209 -519 -209 -615 0 -64 35 -152 79 -201
121 -134 312 -85 380 97 26 71 27 131 1 226 -41 147 -196 530 -218 538 -7 2
-21 -18 -33 -45z"/>
<path d="M1080 2340 l0 -180 -317 0 c-183 0 -333 -4 -354 -10 -50 -14 -122
-80 -148 -135 -20 -42 -21 -61 -21 -310 l0 -265 42 -26 c90 -57 140 -69 298
-69 133 0 150 2 205 25 33 14 92 47 131 73 131 86 274 118 426 93 97 -16 160
-42 257 -104 114 -75 157 -86 316 -87 164 0 200 9 327 87 116 71 158 88 257
104 148 24 306 -10 422 -92 30 -21 86 -51 124 -68 125 -53 331 -48 464 10 97
43 91 21 91 321 0 247 -1 266 -21 308 -26 56 -95 117 -147 133 -27 8 -142 12
-356 12 l-316 0 0 180 0 180 -120 0 -120 0 0 -180 0 -180 -240 0 -240 0 0 180
0 180 -120 0 -120 0 0 -180 0 -180 -240 0 -240 0 0 180 0 180 -120 0 -120 0 0
-180z"/>
<path d="M1135 1414 c-49 -12 -105 -39 -165 -79 -125 -82 -244 -117 -402 -117
l-88 0 0 -489 0 -489 1440 0 1440 0 0 489 0 489 -97 0 c-167 1 -282 38 -417
134 -61 43 -154 68 -257 68 -108 0 -184 -23 -268 -80 -128 -88 -245 -122 -410
-121 -150 1 -262 35 -387 117 -99 66 -139 78 -259 80 -60 2 -119 0 -130 -2z"/>
</g>
</svg>
