<?xml version="1.0" standalone="no"?>
<!DOCTYPE svg PUBLIC "-//W3C//DTD SVG 20010904//EN"
 "http://www.w3.org/TR/2001/REC-SVG-20010904/DTD/svg10.dtd">
<svg version="1.0" xmlns="http://www.w3.org/2000/svg"
 width="384.000000pt" height="384.000000pt" viewBox="0 0 384.000000 384.000000"
 preserveAspectRatio="xMidYMid meet">
<metadata>
Created by potrace 1.16, written by Peter Selinger 2001-2019
</metadata>
<g transform="translate(0.000000,384.000000) scale(0.100000,-0.100000)"
fill="#000000" stroke="none">
<path d="M925 3228 c-46 -24 -45 -17 -45 -516 0 -401 -2 -473 -14 -470 -8 2
-109 94 -225 206 -140 135 -217 202 -232 202 -27 0 -159 -130 -159 -158 0 -11
23 -41 53 -67 59 -54 240 -229 395 -378 69 -68 102 -107 102 -122 0 -16 -39
-61 -127 -146 -166 -161 -316 -305 -376 -360 -26 -24 -47 -52 -47 -62 0 -27
133 -157 160 -157 15 0 88 64 235 205 117 113 218 205 224 205 8 0 11 -127 11
-469 0 -258 3 -477 6 -486 4 -8 19 -22 35 -30 46 -25 53 -20 279 198 52 51
195 188 318 306 174 167 222 218 222 238 0 20 -37 61 -162 181 -300 287 -368
358 -368 378 0 19 81 101 388 392 113 107 142 141 142 162 0 27 -15 42 -310
325 -69 65 -177 169 -240 230 -222 212 -226 215 -265 193z m341 -610 c90 -88
114 -117 114 -139 0 -21 -23 -49 -111 -133 -61 -58 -115 -106 -120 -106 -5 0
-9 101 -9 245 0 135 3 245 6 245 3 0 57 -50 120 -112z m3 -1114 c87 -83 111
-112 111 -132 0 -21 -26 -53 -112 -139 -62 -62 -116 -113 -120 -113 -5 0 -8
110 -8 245 0 135 4 245 9 245 4 0 58 -48 120 -106z"/>
<path d="M1742 1923 l3 -218 84 0 c81 1 84 2 112 33 25 27 29 41 29 88 0 45
-4 59 -25 80 l-25 25 21 29 c26 34 28 100 4 136 -22 34 -54 44 -136 44 l-69 0
2 -217z m132 141 c24 -23 21 -81 -5 -94 -46 -25 -57 -3 -50 100 1 16 38 12 55
-6z m6 -184 c23 -23 26 -68 8 -93 -14 -18 -68 -34 -69 -21 -1 17 -1 119 0 127
2 15 42 6 61 -13z"/>
<path d="M2004 2127 c-2 -7 -3 -105 -2 -217 l3 -205 30 0 30 0 3 218 2 217
-30 0 c-17 0 -33 -6 -36 -13z"/>
<path d="M3430 2130 c0 -5 0 -100 0 -210 0 -110 0 -204 0 -210 0 -5 14 -10 30
-10 l30 0 0 130 c0 121 1 130 21 140 43 23 48 10 51 -132 l3 -133 30 0 30 0 3
139 c3 167 -6 191 -66 184 -21 -3 -45 -8 -54 -12 -16 -7 -18 -1 -18 58 l0 66
-30 0 c-16 0 -30 -4 -30 -10z"/>
<path d="M2624 2106 c-3 -9 -3 -27 0 -41 5 -18 1 -27 -14 -35 -24 -13 -26 -46
-3 -59 15 -8 17 -22 14 -94 -3 -93 11 -162 35 -171 9 -3 29 -6 45 -6 25 0 29
4 29 29 0 20 -6 30 -20 34 -18 5 -20 14 -20 106 0 94 1 101 20 101 11 0 21 5
21 10 5 38 2 45 -18 48 -18 3 -22 11 -25 45 -3 38 -6 42 -31 45 -18 2 -29 -2
-33 -12z"/>
<path d="M3277 2114 c-4 -4 -7 -25 -7 -46 0 -27 -4 -38 -15 -38 -10 0 -15 -10
-15 -30 0 -20 5 -30 15 -30 12 0 15 -19 15 -113 0 -100 2 -116 20 -135 14 -14
33 -22 55 -22 31 0 35 3 35 25 0 14 -8 29 -20 35 -18 10 -20 21 -20 109 0 90
2 99 20 104 28 7 28 57 1 57 -16 0 -20 8 -23 43 -3 37 -6 42 -28 45 -14 2 -29
0 -33 -4z"/>
<path d="M2120 1885 c0 -82 5 -155 10 -166 13 -23 66 -26 97 -4 19 13 22 13
27 -1 4 -10 16 -14 33 -12 l28 3 0 160 0 160 -32 3 -33 3 0 -131 c0 -130 0
-131 -25 -142 -14 -6 -28 -8 -33 -4 -4 4 -9 67 -12 139 l-5 132 -27 3 -28 3 0
-146z"/>
<path d="M2389 2004 c-23 -24 -24 -33 -24 -141 0 -113 0 -115 28 -139 20 -17
40 -24 71 -24 55 0 85 23 93 73 5 36 5 37 -23 37 -24 0 -32 -6 -41 -30 -19
-52 -59 -36 -65 25 l-3 40 70 5 c81 6 83 9 65 95 -14 66 -36 85 -100 85 -37 0
-52 -5 -71 -26z m101 -43 c19 -37 12 -51 -25 -51 -32 0 -35 3 -35 28 0 16 3
32 7 35 13 14 43 7 53 -12z"/>
<path d="M2796 2005 c-27 -29 -36 -65 -36 -140 0 -119 29 -165 105 -165 38 0
52 5 76 29 28 29 29 32 29 134 0 99 -2 107 -26 136 -22 27 -32 31 -75 31 -40
0 -54 -5 -73 -25z m104 -44 c17 -32 13 -177 -6 -195 -19 -19 -36 -20 -52 -4
-16 16 -16 190 0 206 18 18 46 14 58 -7z"/>
<path d="M3049 2017 c-31 -24 -39 -56 -39 -157 0 -99 1 -102 29 -131 24 -24
38 -29 76 -29 37 0 51 5 70 26 23 25 25 34 25 139 0 105 -2 114 -25 139 -20
21 -33 26 -72 26 -26 0 -55 -6 -64 -13z m89 -49 c18 -18 16 -192 -3 -208 -19
-16 -52 -4 -59 23 -9 35 -7 143 4 171 10 28 38 34 58 14z"/>
</g>
</svg>
