<?xml version="1.0" standalone="no"?>
<!DOCTYPE svg PUBLIC "-//W3C//DTD SVG 20010904//EN"
 "http://www.w3.org/TR/2001/REC-SVG-20010904/DTD/svg10.dtd">
<svg version="1.0" xmlns="http://www.w3.org/2000/svg"
 width="384.000000pt" height="384.000000pt" viewBox="0 0 384.000000 384.000000"
 preserveAspectRatio="xMidYMid meet">
<metadata>
Created by potrace 1.16, written by Peter Selinger 2001-2019
</metadata>
<g transform="translate(0.000000,384.000000) scale(0.100000,-0.100000)"
fill="#000000" stroke="none">
<path d="M1712 3589 c-319 -37 -659 -188 -904 -402 -106 -93 -214 -213 -210
-234 2 -8 121 -216 264 -461 144 -246 268 -459 277 -474 9 -16 19 -28 22 -28
3 0 13 36 23 80 64 298 308 531 606 579 41 7 351 11 848 11 430 0 782 2 782 5
0 11 -43 90 -79 144 -288 445 -720 716 -1241 780 -97 13 -281 12 -388 0z"/>
<path d="M467 2783 c-116 -192 -198 -430 -228 -657 -17 -132 -7 -416 20 -539
71 -334 208 -597 430 -830 247 -259 528 -417 884 -495 l88 -20 23 32 c12 17
75 121 138 231 64 110 183 317 266 460 152 262 161 286 95 252 -102 -53 -361
-62 -493 -17 -126 43 -199 88 -301 190 -85 84 -102 108 -152 208 -31 62 -127
233 -213 380 -87 147 -190 323 -230 392 -176 304 -273 465 -282 468 -5 1 -26
-23 -45 -55z"/>
<path d="M1763 2521 c-116 -29 -198 -76 -289 -166 -89 -89 -139 -175 -170
-295 -21 -82 -15 -261 11 -335 61 -174 173 -301 330 -375 97 -46 160 -60 269
-60 176 0 314 58 441 185 91 92 134 166 165 289 115 451 -303 868 -757 757z"/>
<path d="M2340 2533 c1 -5 21 -24 46 -43 234 -182 336 -538 233 -818 -26 -72
-57 -132 -159 -307 -526 -901 -650 -1117 -650 -1131 0 -15 344 5 435 25 527
115 948 441 1184 917 177 359 217 782 111 1179 -24 90 -47 155 -61 172 -9 10
-117 13 -575 13 -310 0 -564 -3 -564 -7z"/>
</g>
</svg>
