<?xml version="1.0" standalone="no"?>
<!DOCTYPE svg PUBLIC "-//W3C//DTD SVG 20010904//EN"
 "http://www.w3.org/TR/2001/REC-SVG-20010904/DTD/svg10.dtd">
<svg version="1.0" xmlns="http://www.w3.org/2000/svg"
 width="384.000000pt" height="384.000000pt" viewBox="0 0 384.000000 384.000000"
 preserveAspectRatio="xMidYMid meet">
<metadata>
Created by potrace 1.16, written by Peter Selinger 2001-2019
</metadata>
<g transform="translate(0.000000,384.000000) scale(0.100000,-0.100000)"
fill="#000000" stroke="none">
<path d="M1918 2963 l-3 -68 -812 -3 -813 -2 0 -985 0 -985 813 -2 812 -3 3
-67 3 -68 814 0 815 0 0 1125 0 1125 -815 0 -814 0 -3 -67z m1410 -1065 l2
-968 -600 0 -600 0 0 105 0 105 -817 2 -818 3 0 770 0 770 818 3 817 2 0 83
c0 46 3 87 7 90 3 4 272 6 597 5 l591 -3 3 -967z"/>
</g>
</svg>
