<?xml version="1.0" standalone="no"?>
<!DOCTYPE svg PUBLIC "-//W3C//DTD SVG 20010904//EN"
 "http://www.w3.org/TR/2001/REC-SVG-20010904/DTD/svg10.dtd">
<svg version="1.0" xmlns="http://www.w3.org/2000/svg"
 width="384.000000pt" height="384.000000pt" viewBox="0 0 384.000000 384.000000"
 preserveAspectRatio="xMidYMid meet">
<metadata>
Created by potrace 1.16, written by Peter Selinger 2001-2019
</metadata>
<g transform="translate(0.000000,384.000000) scale(0.100000,-0.100000)"
fill="#000000" stroke="none">
<path d="M857 2963 c-2 -5 -7 -21 -11 -37 -11 -45 -43 -84 -89 -108 -36 -19
-64 -22 -207 -27 l-165 -6 0 -965 0 -965 1540 0 1540 0 3 967 2 967 -937 3
c-861 3 -941 4 -969 20 -45 25 -92 82 -100 123 l-6 35 -299 0 c-164 0 -300 -3
-302 -7z m2311 -1140 l-3 -668 -1220 -3 c-671 -1 -1230 0 -1242 3 l-23 5 0
665 0 665 1245 0 1245 0 -2 -667z"/>
<path d="M2235 2311 c-387 -112 -498 -603 -198 -870 239 -213 604 -166 782
100 194 290 42 686 -296 773 -79 21 -212 19 -288 -3z m275 -274 c93 -55 144
-169 119 -263 -17 -64 -57 -121 -106 -155 -39 -27 -58 -33 -119 -37 -65 -4
-80 -1 -129 23 -66 32 -108 84 -130 159 -31 102 17 215 115 273 47 29 63 33
125 33 62 0 78 -4 125 -33z"/>
<path d="M877 2313 c-10 -9 -9 -253 1 -254 22 -5 552 -5 575 -1 l28 5 -3 126
-3 126 -296 3 c-162 1 -298 -1 -302 -5z"/>
</g>
</svg>
