<?xml version="1.0" standalone="no"?>
<!DOCTYPE svg PUBLIC "-//W3C//DTD SVG 20010904//EN"
 "http://www.w3.org/TR/2001/REC-SVG-20010904/DTD/svg10.dtd">
<svg version="1.0" xmlns="http://www.w3.org/2000/svg"
 width="384.000000pt" height="384.000000pt" viewBox="0 0 384.000000 384.000000"
 preserveAspectRatio="xMidYMid meet">
<metadata>
Created by potrace 1.16, written by Peter Selinger 2001-2019
</metadata>
<g transform="translate(0.000000,384.000000) scale(0.100000,-0.100000)"
fill="#000000" stroke="none">
<path d="M254 3131 c-2 -2 -4 -562 -4 -1243 l0 -1238 1685 2 1685 3 0 1234 c0
679 -1 1236 -3 1238 -5 5 -3358 9 -3363 4z m3035 -245 c8 -10 10 -282 9 -1012
l-3 -999 -1365 0 -1365 0 -3 999 c-1 730 1 1002 9 1012 17 21 2701 21 2718 0z"/>
<path d="M799 2731 c-16 -16 -29 -36 -29 -45 0 -47 26 -66 307 -227 156 -89
286 -165 288 -169 2 -4 -128 -82 -290 -173 -194 -111 -296 -174 -300 -187 -16
-51 22 -110 71 -110 29 0 848 460 837 471 -20 20 -820 469 -836 469 -10 0 -32
-13 -48 -29z"/>
<path d="M1852 1970 c-45 -28 -67 -80 -52 -126 17 -51 53 -74 115 -74 62 0 98
23 115 74 22 67 -40 146 -115 146 -16 0 -45 -9 -63 -20z"/>
</g>
</svg>
