<?xml version="1.0" standalone="no"?>
<!DOCTYPE svg PUBLIC "-//W3C//DTD SVG 20010904//EN"
 "http://www.w3.org/TR/2001/REC-SVG-20010904/DTD/svg10.dtd">
<svg version="1.0" xmlns="http://www.w3.org/2000/svg"
 width="384.000000pt" height="384.000000pt" viewBox="0 0 384.000000 384.000000"
 preserveAspectRatio="xMidYMid meet">
<metadata>
Created by potrace 1.16, written by Peter Selinger 2001-2019
</metadata>
<g transform="translate(0.000000,384.000000) scale(0.100000,-0.100000)"
fill="#000000" stroke="none">
<path d="M420 2768 l0 -653 82 -82 83 -83 -83 -83 -82 -82 0 -653 0 -652 1465
0 1465 0 0 652 0 653 -82 82 -83 83 83 83 82 82 0 653 0 652 -1465 0 -1465 0
0 -652z m2750 -50 l0 -523 -102 -102 c-96 -96 -103 -106 -103 -143 0 -37 7
-47 103 -143 l102 -102 0 -523 0 -522 -1285 0 -1285 0 0 522 0 523 102 102
c96 96 103 106 103 143 0 37 -7 47 -103 143 l-102 102 0 523 0 522 1285 0
1285 0 0 -522z"/>
<path d="M1165 2878 c-3 -7 -4 -184 -3 -393 l3 -380 189 -3 c186 -2 191 -2
242 23 62 30 108 87 129 159 21 69 21 353 0 422 -18 60 -72 127 -129 157 -37
20 -57 22 -234 25 -153 3 -193 1 -197 -10z m315 -147 c14 -4 35 -22 47 -40 21
-32 23 -44 23 -191 0 -91 -5 -171 -11 -190 -15 -41 -58 -60 -139 -60 l-60 0 0
245 0 245 58 -1 c31 -1 68 -4 82 -8z"/>
<path d="M2225 2881 c-10 -18 -255 -749 -255 -764 0 -17 29 -27 85 -27 76 0
83 5 108 89 l23 76 136 3 136 3 23 -77 c25 -85 36 -94 119 -94 61 0 80 7 80
30 0 18 -190 605 -232 718 l-19 52 -99 0 c-54 0 -101 -4 -105 -9z m140 -318
c21 -71 40 -134 43 -140 3 -10 -18 -13 -86 -13 l-90 0 41 140 c23 77 44 140
47 140 4 0 24 -57 45 -127z"/>
<path d="M1166 1784 c-9 -22 -7 -117 2 -131 6 -9 55 -13 168 -15 l161 -3 -169
-240 -168 -240 2 -70 3 -70 285 0 285 0 3 54 c6 106 16 100 -178 103 l-170 3
170 240 171 240 -3 70 -3 70 -276 3 c-246 2 -277 1 -283 -14z"/>
<path d="M2035 1787 c-3 -6 -4 -183 -3 -392 l3 -380 37 -9 c22 -6 54 -6 80 0
l43 9 5 223 5 223 117 -223 116 -223 51 -9 c31 -5 64 -5 84 0 l32 10 0 389 0
390 -80 0 -80 0 -5 -225 -5 -225 -109 210 c-60 116 -115 218 -124 228 -12 13
-31 17 -89 17 -50 0 -75 -4 -78 -13z"/>
</g>
</svg>
