<?xml version="1.0" standalone="no"?>
<!DOCTYPE svg PUBLIC "-//W3C//DTD SVG 20010904//EN"
 "http://www.w3.org/TR/2001/REC-SVG-20010904/DTD/svg10.dtd">
<svg version="1.0" xmlns="http://www.w3.org/2000/svg"
 width="384.000000pt" height="384.000000pt" viewBox="0 0 384.000000 384.000000"
 preserveAspectRatio="xMidYMid meet">
<metadata>
Created by potrace 1.16, written by Peter Selinger 2001-2019
</metadata>
<g transform="translate(0.000000,384.000000) scale(0.100000,-0.100000)"
fill="#000000" stroke="none">
<path d="M609 2507 c-68 -15 -107 -39 -120 -74 -13 -34 4 -53 47 -53 43 0 53
17 17 31 l-28 12 35 9 c62 18 284 3 385 -25 192 -54 342 -135 456 -247 146
-145 172 -277 72 -372 -70 -67 -237 -106 -383 -89 l-55 6 -3 133 -3 132 48 0
c46 0 91 -8 176 -31 42 -11 51 -41 17 -59 -32 -17 -23 -30 19 -30 32 0 44 6
65 31 35 41 33 65 -11 109 -45 44 -116 68 -231 77 l-78 6 -11 73 c-10 72 -33
124 -53 124 -17 0 -28 -41 -35 -129 -7 -77 -9 -82 -34 -87 -122 -27 -211 -67
-231 -104 -24 -45 -13 -72 63 -145 39 -39 100 -85 135 -103 53 -28 62 -37 62
-60 0 -44 27 -74 63 -70 24 2 33 9 37 28 4 15 12 23 21 21 8 -2 62 -6 122 -9
276 -12 467 113 468 308 1 214 -291 466 -656 566 -110 31 -291 40 -376 21z
m311 -647 c0 -74 -4 -110 -11 -110 -45 0 -219 127 -219 160 0 28 90 57 183 59
l47 1 0 -110z"/>
<path d="M1745 2421 c-51 -23 -102 -66 -120 -102 -20 -38 -19 -84 5 -149 11
-30 20 -56 20 -57 0 -10 32 0 36 10 3 9 24 13 67 13 50 -1 72 5 113 28 76 42
124 95 131 145 7 49 -1 60 -73 101 -63 35 -118 39 -179 11z m-27 -120 c-37
-42 -54 -55 -56 -44 -6 23 29 65 69 85 19 10 35 18 37 18 2 0 -21 -27 -50 -59z
m220 21 c8 -55 -80 -116 -160 -110 l-43 3 45 49 c55 60 97 87 130 84 17 -2 26
-10 28 -26z"/>
<path d="M2470 2114 c0 -3 11 -49 24 -102 30 -117 42 -202 29 -202 -5 0 -35
40 -66 88 -70 109 -101 144 -121 136 -45 -17 -86 -297 -52 -349 34 -52 66 -20
66 68 0 67 10 147 19 147 4 0 21 -28 38 -62 50 -101 88 -148 121 -148 62 0 99
94 82 210 -13 87 -38 146 -84 198 -17 20 -56 31 -56 16z"/>
<path d="M2792 2080 c-104 -15 -122 -21 -122 -36 0 -8 13 -23 30 -32 37 -21
38 -45 4 -79 -26 -26 -28 -33 -40 -158 -5 -52 -3 -63 16 -82 28 -31 65 -38
119 -24 62 16 135 62 139 86 5 44 -10 50 -100 38 -46 -6 -85 -10 -86 -8 -2 2
1 20 8 39 l12 36 66 0 c78 0 95 8 90 41 -3 22 -8 24 -67 27 -60 3 -63 4 -57
25 3 12 6 25 6 30 0 4 31 7 69 7 73 0 121 12 121 31 0 6 -13 24 -29 40 -32 32
-66 35 -179 19z"/>
<path d="M1975 2056 c-87 -21 -122 -50 -132 -109 -8 -49 17 -62 149 -75 172
-18 218 -50 139 -96 -23 -13 -59 -21 -111 -24 -79 -5 -120 6 -120 33 0 25 38
27 98 5 55 -20 61 -20 95 -6 21 8 37 20 37 26 0 13 -40 29 -107 41 -175 33
-221 -109 -56 -171 134 -50 273 7 273 112 0 50 -21 91 -56 107 -16 7 -81 20
-146 29 -173 24 -159 38 51 53 138 10 170 20 158 53 -13 34 -170 47 -272 22z"/>
<path d="M1719 2018 c-18 -62 -18 -320 0 -341 17 -21 55 -22 71 -2 17 21 7
313 -12 352 -21 45 -45 41 -59 -9z"/>
<path d="M3089 2008 c-73 -91 -91 -144 -88 -251 2 -77 -2 -106 -25 -177 -15
-47 -30 -116 -33 -155 -5 -62 -3 -73 17 -98 14 -18 30 -27 43 -25 19 3 25 17
44 103 12 55 30 127 40 160 18 58 20 60 59 66 143 25 244 132 244 258 0 98
-53 151 -116 118 -29 -15 -133 -120 -187 -187 l-28 -35 6 39 c4 21 27 78 52
126 42 79 48 110 23 110 -5 0 -28 -24 -51 -52z m249 -88 c6 -37 -27 -108 -63
-136 -33 -25 -89 -46 -98 -37 -6 6 55 103 102 162 36 45 54 48 59 11z"/>
</g>
</svg>
