<?xml version="1.0" standalone="no"?>
<!DOCTYPE svg PUBLIC "-//W3C//DTD SVG 20010904//EN"
 "http://www.w3.org/TR/2001/REC-SVG-20010904/DTD/svg10.dtd">
<svg version="1.0" xmlns="http://www.w3.org/2000/svg"
 width="384.000000pt" height="384.000000pt" viewBox="0 0 384.000000 384.000000"
 preserveAspectRatio="xMidYMid meet">
<metadata>
Created by potrace 1.16, written by Peter Selinger 2001-2019
</metadata>
<g transform="translate(0.000000,384.000000) scale(0.100000,-0.100000)"
fill="#000000" stroke="none">
<path d="M1410 3345 c-10 -12 3 -36 64 -124 l76 -110 -70 -41 c-178 -104 -321
-306 -333 -470 l-2 -35 775 0 775 0 -3 40 c-13 159 -159 365 -330 464 l-72 42
76 110 c68 98 75 112 62 126 -20 19 -27 12 -114 -117 -45 -66 -73 -99 -82 -95
-171 65 -453 65 -624 0 -9 -4 -39 32 -88 104 -41 61 -80 112 -87 115 -6 3 -17
-2 -23 -9z m244 -426 c34 -40 33 -74 -3 -110 -56 -56 -142 -23 -144 55 -2 80
95 117 147 55z m662 7 c58 -49 20 -146 -56 -146 -44 0 -84 40 -84 83 0 77 82
114 140 63z"/>
<path d="M818 2450 c-45 -13 -87 -49 -108 -90 -19 -37 -20 -60 -20 -426 0
-373 1 -389 21 -431 52 -107 205 -126 282 -34 46 55 48 80 45 486 -3 377 -3
380 -26 417 -40 64 -127 99 -194 78z"/>
<path d="M2935 2451 c-45 -11 -82 -39 -107 -80 -23 -36 -23 -41 -26 -416 -3
-406 -1 -431 45 -486 77 -92 230 -73 282 34 20 42 21 58 21 431 0 368 -1 389
-20 426 -35 69 -122 109 -195 91z"/>
<path d="M1147 2443 c-11 -11 -8 -1254 3 -1294 5 -19 24 -48 41 -65 29 -28 36
-29 137 -34 l107 -5 5 -225 c5 -240 7 -249 60 -293 86 -73 204 -53 260 45 24
41 25 51 28 261 l3 217 135 0 134 0 0 -212 c0 -186 3 -218 19 -254 58 -127
234 -135 305 -14 19 32 21 56 26 255 l5 220 100 5 c110 5 137 16 165 63 19 31
20 56 20 685 l0 652 -773 0 c-426 0 -777 -3 -780 -7z"/>
</g>
</svg>
