<?xml version="1.0" standalone="no"?>
<!DOCTYPE svg PUBLIC "-//W3C//DTD SVG 20010904//EN"
 "http://www.w3.org/TR/2001/REC-SVG-20010904/DTD/svg10.dtd">
<svg version="1.0" xmlns="http://www.w3.org/2000/svg"
 width="384.000000pt" height="384.000000pt" viewBox="0 0 384.000000 384.000000"
 preserveAspectRatio="xMidYMid meet">
<metadata>
Created by potrace 1.16, written by Peter Selinger 2001-2019
</metadata>
<g transform="translate(0.000000,384.000000) scale(0.100000,-0.100000)"
fill="#000000" stroke="none">
<path d="M1665 3449 c-130 -25 -272 -66 -280 -80 -4 -5 -14 -9 -24 -9 -35 0
-252 -120 -349 -192 -336 -251 -548 -592 -623 -998 -10 -58 -10 -471 0 -530
13 -67 61 -243 70 -255 5 -5 14 -28 21 -50 15 -47 86 -193 125 -256 43 -68
137 -188 202 -255 72 -77 294 -254 317 -254 4 0 34 -17 69 -38 34 -21 91 -48
127 -61 36 -14 70 -28 75 -32 14 -10 204 -59 230 -59 12 0 25 -4 30 -9 18 -18
268 -30 403 -20 70 5 136 13 147 18 11 5 58 17 105 26 127 26 266 83 437 179
163 92 430 362 524 529 87 155 131 262 165 397 13 52 29 109 35 125 16 45 23
406 10 490 -7 39 -13 79 -15 90 -2 11 -6 27 -8 35 -3 8 -13 49 -23 90 -10 41
-24 91 -32 110 -38 90 -136 282 -169 331 -45 66 -165 210 -216 260 -47 45
-190 159 -226 179 -15 8 -29 17 -32 20 -19 19 -156 90 -251 129 -72 30 -223
73 -319 91 -56 11 -471 10 -525 -1z m532 -238 c48 -10 175 -49 263 -82 19 -8
64 -31 99 -51 34 -21 65 -38 68 -38 8 0 92 -60 140 -101 89 -75 138 -124 194
-194 129 -160 196 -295 263 -525 24 -84 42 -292 34 -390 -9 -104 -27 -228 -38
-249 -4 -9 -22 -61 -39 -116 -61 -189 -167 -351 -337 -516 -123 -118 -279
-224 -394 -267 -83 -31 -150 -52 -230 -72 -66 -17 -215 -32 -305 -31 -105 2
-295 27 -309 41 -6 6 -19 10 -31 10 -30 0 -112 31 -225 83 -57 26 -179 103
-240 151 -155 122 -281 279 -371 461 -32 65 -59 126 -59 135 0 9 -3 20 -7 24
-4 3 -8 17 -10 29 -2 12 -10 40 -18 62 -36 101 -50 397 -26 550 31 190 124
409 243 572 36 48 210 229 244 253 12 8 50 35 85 60 68 47 238 135 286 146 15
4 34 11 41 17 6 5 12 7 12 3 0 -3 16 0 35 8 116 49 449 63 632 27z"/>
<path d="M1353 3019 c-24 -11 -43 -25 -43 -32 0 -7 97 -108 214 -226 l214
-214 66 14 c36 7 66 17 66 22 0 14 -449 457 -463 457 -7 -1 -31 -10 -54 -21z"/>
<path d="M1175 2905 c-50 -34 -198 -181 -245 -245 -14 -18 -47 -69 -73 -113
l-49 -80 228 -228 c125 -125 231 -226 235 -224 3 3 9 23 13 45 6 37 62 179 76
190 3 3 16 21 28 41 27 45 152 165 181 174 12 3 21 10 21 15 0 4 11 11 25 14
14 4 25 12 25 19 0 7 -93 105 -207 219 l-208 207 -50 -34z"/>
<path d="M1800 2413 c-146 -45 -270 -145 -328 -265 -37 -74 -46 -99 -43 -115
1 -6 -3 -14 -9 -18 -6 -3 -10 -46 -10 -98 1 -142 57 -284 150 -377 69 -68 256
-161 295 -146 8 3 17 1 20 -4 8 -13 112 -13 120 0 3 5 13 6 21 3 8 -3 25 -1
37 5 12 6 43 17 69 25 129 42 260 182 305 327 23 74 26 96 25 163 0 67 -2 73
-29 159 -46 145 -179 282 -313 323 -30 9 -65 21 -78 26 -34 13 -180 9 -232 -8z
m191 -314 c41 -14 83 -51 116 -103 75 -116 -26 -287 -169 -290 -72 -1 -132 33
-177 99 -31 46 -33 55 -28 111 6 79 39 132 104 167 52 28 101 33 154 16z"/>
<path d="M2596 1838 c-3 -7 -7 -32 -10 -54 -9 -62 -59 -177 -110 -252 -44 -65
-125 -152 -142 -152 -5 0 -25 -14 -44 -30 l-35 -29 209 -210 210 -210 40 31
c136 104 346 378 346 452 0 14 -441 466 -454 466 -4 0 -8 -6 -10 -12z"/>
<path d="M2096 1264 c-26 -7 -51 -16 -54 -19 -3 -3 96 -108 221 -233 l226
-226 48 25 c26 14 48 30 50 35 4 11 -419 435 -433 433 -5 -1 -31 -7 -58 -15z"/>
</g>
</svg>
