<?xml version="1.0" standalone="no"?>
<!DOCTYPE svg PUBLIC "-//W3C//DTD SVG 20010904//EN"
 "http://www.w3.org/TR/2001/REC-SVG-20010904/DTD/svg10.dtd">
<svg version="1.0" xmlns="http://www.w3.org/2000/svg"
 width="384.000000pt" height="384.000000pt" viewBox="0 0 384.000000 384.000000"
 preserveAspectRatio="xMidYMid meet">
<metadata>
Created by potrace 1.16, written by Peter Selinger 2001-2019
</metadata>
<g transform="translate(0.000000,384.000000) scale(0.100000,-0.100000)"
fill="#000000" stroke="none">
<path d="M1265 3561 c-135 -39 -258 -126 -324 -230 l-32 -49 -62 28 c-34 16
-94 34 -133 41 -183 30 -382 -65 -466 -222 -20 -38 -23 -58 -23 -144 0 -107 8
-132 65 -205 l28 -36 -35 -33 c-62 -59 -63 -65 -63 -438 0 -333 0 -339 23
-375 26 -42 57 -68 112 -94 37 -18 80 -19 654 -22 535 -2 620 -1 668 13 65 19
123 69 152 130 26 56 31 56 191 10 134 -39 198 -44 236 -19 52 35 54 46 54
411 l1 338 -35 33 c-49 44 -88 42 -277 -12 -85 -25 -154 -44 -154 -43 0 1 -15
22 -34 45 l-34 44 61 61 c69 71 104 129 126 207 32 115 22 214 -31 312 -59
108 -209 216 -350 253 -78 20 -241 18 -318 -4z m280 -95 c121 -32 216 -109
271 -221 32 -64 36 -83 36 -144 -1 -114 -57 -218 -155 -285 -118 -81 -283
-103 -420 -57 -162 55 -271 194 -276 351 -3 89 26 157 98 233 107 113 292 164
446 123z m-790 -233 c68 -23 136 -92 165 -169 20 -53 21 -65 11 -114 -21 -104
-95 -177 -210 -206 -153 -38 -318 44 -365 184 -20 58 -20 87 0 145 20 60 103
137 170 160 64 21 168 21 229 0z m890 -557 c19 -8 44 -30 55 -48 19 -31 20
-50 20 -350 l0 -316 -26 -31 c-14 -17 -42 -35 -62 -41 -25 -8 -224 -10 -617
-8 -646 3 -612 0 -655 71 -19 30 -20 52 -20 339 l0 307 31 36 c17 19 45 39 63
44 17 5 289 10 604 10 477 1 578 -1 607 -13z m530 -66 c6 -9 8 -601 2 -607 -2
-1 -87 21 -190 50 -149 41 -188 56 -193 71 -4 11 -7 100 -8 199 -1 138 2 181
12 190 15 12 326 105 354 106 9 1 20 -3 23 -9z"/>
<path d="M1395 3450 c-4 -6 10 -9 34 -7 21 1 37 5 34 10 -6 10 -61 9 -68 -3z"/>
<path d="M1281 3430 c-29 -11 -74 -33 -100 -49 -49 -32 -111 -91 -95 -91 5 0
2 -5 -6 -10 -8 -5 -10 -10 -5 -10 6 0 30 21 55 45 50 51 150 104 210 112 22 3
40 10 40 14 0 14 -41 10 -99 -11z"/>
<path d="M1363 3350 c-93 -19 -190 -95 -214 -168 -58 -171 75 -322 284 -322
197 0 342 189 266 347 -50 103 -206 170 -336 143z"/>
<path d="M1700 2972 c0 -16 -55 -66 -106 -97 -23 -14 -72 -31 -110 -39 l-69
-13 50 0 c62 -1 137 28 192 73 40 33 62 69 49 81 -3 4 -6 1 -6 -5z"/>
<path d="M542 3211 c-62 -21 -119 -65 -147 -112 -17 -30 -13 -28 43 23 64 59
132 89 216 95 59 4 55 12 -6 12 -29 0 -77 -8 -106 -18z"/>
<path d="M563 3109 c-116 -57 -109 -208 10 -240 55 -15 132 -7 165 18 15 10
37 39 50 65 19 38 21 50 12 74 -35 92 -143 130 -237 83z"/>
<path d="M784 2892 c-15 -23 -106 -68 -127 -63 -5 1 -6 -3 -3 -8 7 -11 70 4
102 26 25 16 59 63 47 63 -5 0 -13 -8 -19 -18z"/>
<path d="M399 2633 c-16 -14 -27 -29 -23 -34 3 -5 12 -2 20 6 23 23 50 35 97
44 l42 9 -53 0 c-42 -1 -60 -6 -83 -25z"/>
<path d="M578 2653 c12 -2 30 -2 40 0 9 3 -1 5 -23 4 -22 0 -30 -2 -17 -4z"/>
<path d="M650 2652 c0 -4 18 -6 40 -4 22 2 40 6 40 8 0 2 -18 4 -40 4 -22 0
-40 -3 -40 -8z"/>
<path d="M740 2652 c0 -4 16 -6 35 -4 19 2 35 6 35 8 0 2 -16 4 -35 4 -19 0
-35 -4 -35 -8z"/>
<path d="M826 2651 c6 -6 87 -1 94 6 2 2 -19 3 -48 2 -28 -1 -49 -5 -46 -8z"/>
<path d="M948 2653 c12 -2 30 -2 40 0 9 3 -1 5 -23 4 -22 0 -30 -2 -17 -4z"/>
<path d="M1020 2652 c0 -4 16 -6 35 -4 19 2 35 6 35 8 0 2 -16 4 -35 4 -19 0
-35 -4 -35 -8z"/>
<path d="M1106 2651 c6 -6 77 -1 84 6 2 2 -17 3 -43 2 -25 -2 -44 -5 -41 -8z"/>
<path d="M1206 2652 c-2 -4 11 -6 30 -4 19 2 34 6 34 8 0 8 -59 4 -64 -4z"/>
<path d="M1313 2653 c9 -2 25 -2 35 0 9 3 1 5 -18 5 -19 0 -27 -2 -17 -5z"/>
<path d="M1390 2652 c0 -4 18 -6 40 -4 22 2 40 6 40 8 0 2 -18 4 -40 4 -22 0
-40 -3 -40 -8z"/>
<path d="M1480 2652 c0 -4 18 -6 40 -4 22 2 40 6 40 8 0 2 -18 4 -40 4 -22 0
-40 -3 -40 -8z"/>
<path d="M1570 2651 c0 -4 11 -6 25 -3 14 2 25 6 25 8 0 2 -11 4 -25 4 -14 0
-25 -4 -25 -9z"/>
<path d="M1965 2543 c-167 -48 -172 -49 -162 -59 7 -7 328 84 342 97 16 15
-13 9 -180 -38z"/>
<path d="M1950 2890 c-9 -6 -10 -10 -3 -10 6 0 15 5 18 10 8 12 4 12 -15 0z"/>
<path d="M1930 2859 c0 -5 5 -7 10 -4 6 3 10 8 10 11 0 2 -4 4 -10 4 -5 0 -10
-5 -10 -11z"/>
<path d="M1903 2823 c-3 -10 -27 -36 -53 -58 -27 -22 -45 -42 -39 -44 12 -4
70 49 101 92 11 16 15 27 8 27 -7 0 -14 -8 -17 -17z"/>
<path d="M1857 1929 c-5 -20 -5 -20 14 -3 23 20 23 24 5 24 -7 0 -16 -9 -19
-21z"/>
<path d="M2301 1922 c-6 -10 -33 -29 -61 -41 -56 -24 -61 -29 -27 -26 51 6
123 63 104 82 -3 2 -10 -4 -16 -15z"/>
<path d="M1794 1836 c-47 -49 -113 -76 -188 -76 -32 0 -46 -3 -38 -9 22 -13
121 -2 166 19 50 23 65 35 95 78 31 44 14 39 -35 -12z"/>
<path d="M448 1753 c6 -2 18 -2 25 0 6 3 1 5 -13 5 -14 0 -19 -2 -12 -5z"/>
<path d="M494 1753 c10 -10 46 -14 46 -5 0 4 -12 9 -27 10 -14 1 -23 -1 -19
-5z"/>
<path d="M565 1750 c26 -11 45 -12 45 -2 0 4 -15 8 -32 9 -27 2 -29 0 -13 -7z"/>
<path d="M642 1754 c9 -9 78 -13 78 -4 0 3 -19 7 -42 9 -23 1 -39 -1 -36 -5z"/>
<path d="M732 1754 c10 -10 78 -15 78 -5 0 4 -19 8 -42 10 -23 1 -39 -1 -36
-5z"/>
<path d="M825 1751 c9 -8 175 -8 175 0 0 3 -41 6 -91 7 -49 0 -87 -3 -84 -7z"/>
<path d="M1013 1753 c10 -9 57 -10 57 -1 0 4 -14 8 -32 8 -17 0 -28 -3 -25 -7z"/>
<path d="M1080 1750 c0 -8 276 -7 284 1 3 3 -59 6 -139 6 -80 0 -145 -3 -145
-7z"/>
<path d="M1380 1757 c10 -8 80 -16 80 -8 0 4 -19 8 -42 10 -23 1 -40 0 -38 -2z"/>
<path d="M1470 1757 c10 -8 80 -16 80 -8 0 4 -19 8 -42 10 -23 1 -40 0 -38 -2z"/>
<path d="M3200 1368 c-65 -25 -146 -102 -178 -169 -46 -95 -64 -253 -42 -370
14 -74 61 -166 107 -210 78 -75 250 -102 367 -59 60 23 125 85 153 147 10 21
25 47 35 59 19 21 18 21 -57 49 -42 15 -77 26 -79 24 -1 -2 -8 -23 -15 -47
-26 -93 -119 -147 -207 -123 -106 30 -154 128 -156 319 -1 89 2 115 20 155 57
128 198 166 283 76 20 -21 42 -53 49 -69 7 -17 18 -29 24 -26 6 3 37 13 70 22
32 10 60 24 63 31 18 46 -90 169 -174 197 -68 23 -194 20 -263 -6z"/>
<path d="M1350 953 c0 -332 3 -424 12 -415 9 9 84 12 278 12 198 0 270 3 282
13 9 6 18 33 21 59 l5 48 -219 0 -218 0 -5 33 c-3 17 -7 69 -10 115 -3 64 -1
86 11 97 12 12 49 15 194 15 135 0 181 3 184 13 2 6 6 33 10 60 l6 47 -195 0
c-224 0 -200 -13 -210 112 -8 100 -13 98 220 98 147 0 196 3 199 13 2 6 6 33
10 60 l6 47 -290 0 -291 0 0 -427z"/>
<path d="M2080 953 c0 -332 3 -424 12 -415 7 7 30 12 53 12 76 0 74 -7 76 285
1 143 5 276 9 295 4 19 8 26 9 16 1 -17 125 -556 138 -600 4 -13 8 -15 16 -7
6 6 32 11 57 11 25 0 53 6 62 12 11 9 36 100 75 267 32 140 64 261 72 268 7 8
17 29 21 46 5 18 8 -114 9 -293 1 -252 4 -321 13 -312 7 7 30 12 53 12 78 0
74 -24 77 428 l3 403 -120 -3 -119 -3 -66 -272 c-36 -149 -68 -274 -71 -277
-3 -4 -37 120 -75 274 l-69 280 -117 0 -118 0 0 -427z"/>
<path d="M3260 1233 c-20 -7 -69 -54 -82 -77 -8 -14 1 -10 30 12 22 18 60 41
83 52 42 19 42 20 14 19 -16 0 -37 -3 -45 -6z"/>
<path d="M1510 1223 c0 -5 78 -7 172 -5 261 4 278 8 41 10 -117 1 -213 -1
-213 -5z"/>
<path d="M3572 1123 c-35 -9 -58 -20 -51 -23 13 -8 119 16 134 31 13 12 -8 10
-83 -8z"/>
<path d="M1516 893 c5 -5 95 -6 199 -3 l190 6 -199 2 c-110 1 -196 -1 -190 -5z"/>
<path d="M3625 689 c-4 -6 -5 -12 -2 -15 2 -3 7 2 10 11 7 17 1 20 -8 4z"/>
<path d="M3585 626 c-48 -64 -119 -99 -230 -115 l-60 -9 55 -1 c75 -1 126 12
173 46 44 31 116 113 99 113 -6 0 -23 -15 -37 -34z"/>
<path d="M2540 540 c0 -6 -30 -11 -67 -11 l-68 -1 55 -8 c53 -8 90 0 90 20 0
6 -2 10 -5 10 -3 0 -5 -4 -5 -10z"/>
<path d="M1650 520 c151 -3 282 -2 290 2 8 4 -115 7 -275 6 l-290 -2 275 -6z"/>
<path d="M2155 520 c28 -4 57 -3 65 1 9 5 -11 8 -50 7 l-65 -1 50 -7z"/>
<path d="M2765 520 c28 -4 57 -3 65 1 9 5 -11 8 -50 7 l-65 -1 50 -7z"/>
</g>
</svg>
