<?xml version="1.0" standalone="no"?>
<!DOCTYPE svg PUBLIC "-//W3C//DTD SVG 20010904//EN"
 "http://www.w3.org/TR/2001/REC-SVG-20010904/DTD/svg10.dtd">
<svg version="1.0" xmlns="http://www.w3.org/2000/svg"
 width="384.000000pt" height="384.000000pt" viewBox="0 0 384.000000 384.000000"
 preserveAspectRatio="xMidYMid meet">
<metadata>
Created by potrace 1.16, written by Peter Selinger 2001-2019
</metadata>
<g transform="translate(0.000000,384.000000) scale(0.100000,-0.100000)"
fill="#000000" stroke="none">
<path d="M1860 3599 c-164 -7 -277 -30 -425 -85 -108 -41 -115 -47 -115 -100
0 -25 11 -83 25 -128 13 -44 43 -142 66 -216 22 -74 53 -181 69 -237 15 -57
44 -137 64 -180 20 -42 33 -80 29 -84 -36 -33 -161 -119 -175 -119 -9 0 -29
18 -45 40 -17 22 -86 82 -155 134 -208 158 -266 264 -251 458 6 74 5 77 -22
102 -52 48 -77 38 -185 -71 -53 -54 -115 -123 -138 -155 -52 -71 -135 -226
-157 -295 -15 -47 -15 -54 -1 -75 8 -13 97 -70 198 -128 101 -57 240 -139 309
-181 69 -42 154 -88 190 -102 73 -30 70 -20 49 -162 -18 -117 -11 -109 -83
-101 -39 4 -97 0 -157 -10 -301 -50 -385 -32 -525 111 -84 86 -109 93 -155 47
l-28 -28 5 -155 c6 -192 33 -314 98 -446 36 -72 51 -94 71 -99 27 -7 124 18
354 91 74 24 169 53 210 64 41 12 111 35 155 52 44 17 86 31 94 32 8 1 34 -27
58 -63 25 -36 56 -76 69 -91 34 -35 30 -55 -16 -85 -23 -15 -73 -70 -113 -123
-169 -227 -247 -274 -449 -269 -114 3 -138 -10 -138 -72 0 -34 9 -46 118 -151
96 -94 133 -123 207 -161 92 -47 188 -78 244 -78 43 0 63 23 154 175 43 72
110 182 149 245 39 63 90 149 114 190 24 41 47 80 51 87 6 10 30 9 108 -4 55
-8 106 -17 114 -20 11 -3 12 -17 7 -66 -4 -42 0 -99 14 -180 42 -250 16 -354
-121 -485 -76 -72 -83 -94 -46 -137 21 -25 26 -26 177 -32 127 -4 167 -2 220
11 99 26 144 43 219 80 97 49 131 80 131 119 0 18 -25 115 -56 217 -31 102
-69 232 -85 290 -17 58 -41 137 -55 177 -13 39 -24 75 -24 80 0 5 30 32 67 59
36 27 74 55 84 62 15 12 22 7 60 -39 24 -28 87 -84 139 -124 125 -96 183 -157
217 -230 26 -56 28 -69 28 -183 0 -111 2 -125 19 -138 36 -26 80 -17 136 27
171 135 271 277 331 470 26 83 28 100 18 123 -12 25 -150 114 -399 256 -41 23
-105 62 -141 86 -36 23 -93 54 -125 68 -50 21 -59 28 -56 48 1 13 5 53 8 90 8
86 18 95 85 80 43 -10 75 -9 202 10 251 35 348 10 482 -128 40 -41 80 -74 89
-74 32 0 76 30 83 58 5 15 8 101 8 192 0 196 -18 276 -101 455 -50 108 -75
121 -180 91 -103 -30 -434 -117 -533 -141 -57 -14 -128 -37 -158 -53 -50 -24
-56 -25 -66 -11 -13 18 -76 104 -92 126 -8 10 6 29 57 76 36 34 93 98 126 142
82 109 99 128 154 168 73 54 160 79 270 77 120 -2 115 -3 138 20 13 13 20 33
20 58 0 35 -9 47 -118 158 -127 129 -224 197 -371 261 -116 50 -143 52 -177
17 -15 -16 -69 -99 -120 -184 -51 -85 -133 -218 -181 -295 -83 -131 -107 -176
-130 -250 -5 -16 -14 -29 -19 -28 -5 1 -47 7 -94 13 -46 6 -88 14 -92 16 -5 3
-6 40 -2 82 5 56 1 102 -12 167 -10 51 -18 136 -18 195 0 98 2 110 32 175 25
53 52 88 108 142 77 75 87 99 63 145 -11 20 -68 49 -91 46 -7 -1 -83 -5 -168
-9z m166 -1130 c207 -38 389 -205 449 -413 21 -72 24 -212 6 -286 -77 -323
-420 -517 -734 -417 -347 111 -502 491 -335 821 43 85 162 201 251 244 116 57
239 74 363 51z"/>
</g>
</svg>
