<?xml version="1.0" standalone="no"?>
<!DOCTYPE svg PUBLIC "-//W3C//DTD SVG 20010904//EN"
 "http://www.w3.org/TR/2001/REC-SVG-20010904/DTD/svg10.dtd">
<svg version="1.0" xmlns="http://www.w3.org/2000/svg"
 width="384.000000pt" height="384.000000pt" viewBox="0 0 384.000000 384.000000"
 preserveAspectRatio="xMidYMid meet">
<metadata>
Created by potrace 1.16, written by Peter Selinger 2001-2019
</metadata>
<g transform="translate(0.000000,384.000000) scale(0.100000,-0.100000)"
fill="#000000" stroke="none">
<path d="M1664 3365 c-772 -110 -1392 -673 -1574 -1430 -38 -158 -50 -259 -50
-433 0 -256 30 -433 112 -657 59 -160 177 -385 202 -385 19 0 378 213 384 228
6 18 -85 202 -101 202 -6 0 -46 -21 -90 -46 -43 -25 -83 -42 -88 -37 -31 31
-116 313 -138 460 -17 112 -24 103 84 103 l95 0 0 125 0 125 -84 0 c-102 0
-111 7 -101 82 20 146 110 443 142 470 13 11 28 6 96 -30 60 -32 83 -39 93
-31 13 11 98 150 109 179 4 11 -17 28 -70 60 -42 24 -80 49 -85 55 -21 25 239
307 362 393 l47 33 46 -81 c26 -44 51 -82 56 -85 9 -6 41 9 142 67 l68 39 -46
84 c-25 46 -45 88 -45 94 0 36 401 151 525 151 l45 0 0 -100 0 -100 120 0 120
0 0 100 0 100 45 0 c123 0 525 -115 525 -150 0 -6 -20 -48 -46 -94 l-45 -85
68 -39 c100 -58 133 -73 142 -67 5 3 30 41 56 85 l47 80 46 -32 c66 -45 244
-219 314 -307 47 -58 56 -76 47 -87 -6 -8 -45 -33 -85 -56 -54 -31 -73 -46
-69 -58 11 -29 96 -168 109 -179 10 -8 33 -1 93 31 68 36 83 41 96 30 32 -27
122 -324 142 -470 10 -76 2 -82 -112 -82 l-94 0 3 -122 3 -123 103 -3 c116 -3
108 6 91 -105 -22 -147 -107 -429 -138 -460 -5 -5 -45 12 -88 37 -44 25 -84
46 -90 46 -5 0 -32 -43 -59 -95 -37 -71 -47 -98 -39 -110 11 -18 362 -224 382
-225 30 -1 179 306 233 479 51 163 70 281 77 467 12 360 -51 659 -203 954 -93
181 -178 294 -344 460 -172 173 -281 253 -480 353 -166 84 -311 135 -490 172
-158 33 -454 43 -616 20z"/>
<path d="M1809 1682 c-133 -69 -160 -252 -53 -358 62 -62 161 -82 241 -49 51
22 122 19 572 -20 221 -19 405 -35 409 -35 17 1 -69 39 -400 176 -417 173
-437 183 -505 244 -82 75 -173 90 -264 42z"/>
</g>
</svg>
