<?xml version="1.0" standalone="no"?>
<!DOCTYPE svg PUBLIC "-//W3C//DTD SVG 20010904//EN"
 "http://www.w3.org/TR/2001/REC-SVG-20010904/DTD/svg10.dtd">
<svg version="1.0" xmlns="http://www.w3.org/2000/svg"
 width="384.000000pt" height="384.000000pt" viewBox="0 0 384.000000 384.000000"
 preserveAspectRatio="xMidYMid meet">
<metadata>
Created by potrace 1.16, written by Peter Selinger 2001-2019
</metadata>
<g transform="translate(0.000000,384.000000) scale(0.100000,-0.100000)"
fill="#000000" stroke="none">
<path d="M437 3453 c-4 -3 -7 -699 -7 -1545 l0 -1538 1498 2 1497 3 3 1265 2
1265 -277 277 -278 278 -1216 0 c-669 0 -1219 -3 -1222 -7z m2223 -678 l0
-455 -760 0 -760 0 0 455 0 455 760 0 760 0 0 -455z m338 -1562 l2 -593 -22
-5 c-13 -3 -493 -4 -1068 -3 l-1045 3 -3 585 c-1 322 0 591 3 598 3 10 222 12
1067 10 l1063 -3 3 -592z"/>
<path d="M2152 2773 l3 -288 155 0 155 0 3 288 2 287 -160 0 -160 0 2 -287z"/>
<path d="M1084 1596 c-3 -7 -4 -40 -2 -72 l3 -59 843 -3 843 -2 -3 72 -3 73
-838 3 c-701 2 -838 0 -843 -12z"/>
<path d="M1087 1283 c-4 -3 -7 -37 -7 -75 l0 -68 845 0 846 0 -3 73 -3 72
-836 3 c-459 1 -839 -1 -842 -5z"/>
<path d="M1082 888 l3 -73 840 0 840 0 3 73 3 72 -846 0 -846 0 3 -72z"/>
</g>
</svg>
