<?xml version="1.0" standalone="no"?>
<!DOCTYPE svg PUBLIC "-//W3C//DTD SVG 20010904//EN"
 "http://www.w3.org/TR/2001/REC-SVG-20010904/DTD/svg10.dtd">
<svg version="1.0" xmlns="http://www.w3.org/2000/svg"
 width="384.000000pt" height="384.000000pt" viewBox="0 0 384.000000 384.000000"
 preserveAspectRatio="xMidYMid meet">
<metadata>
Created by potrace 1.16, written by Peter Selinger 2001-2019
</metadata>
<g transform="translate(0.000000,384.000000) scale(0.100000,-0.100000)"
fill="#000000" stroke="none">
<path d="M2905 3450 c-174 -27 -310 -139 -378 -310 -33 -84 -41 -158 -27 -243
21 -133 48 -185 206 -387 56 -73 124 -175 152 -228 51 -100 112 -267 112 -310
0 -37 23 -21 32 24 29 143 110 316 207 444 32 41 86 113 122 160 105 139 139
227 139 360 0 143 -45 254 -142 353 -68 69 -176 124 -269 137 -72 11 -84 11
-154 0z m154 -314 c110 -57 131 -198 41 -280 -46 -42 -73 -50 -139 -44 -127
12 -191 157 -118 266 14 21 40 46 58 55 42 21 121 22 158 3z"/>
<path d="M386 3033 c-3 -3 -6 -498 -6 -1100 l0 -1093 33 -20 c17 -12 202 -118
409 -236 238 -136 382 -213 390 -208 7 4 165 108 351 231 186 123 342 223 346
221 14 -6 205 -128 451 -289 135 -89 250 -163 256 -165 10 -5 68 26 444 233
74 41 197 109 273 150 l137 75 0 784 c0 431 -3 784 -7 784 -18 -1 -127 -162
-171 -250 l-47 -95 -3 -545 -3 -546 -97 -52 c-53 -29 -124 -67 -157 -85 -173
-96 -281 -152 -289 -152 -6 0 -11 91 -12 225 0 124 -2 274 -3 333 l-1 108 -52
-3 -53 -3 -3 -323 c-1 -211 -6 -322 -13 -322 -5 0 -60 33 -122 73 -62 40 -194
126 -294 191 l-183 118 -2 282 -3 281 -50 0 -50 0 -3 -281 -2 -282 -282 -187
c-155 -103 -287 -189 -294 -192 -11 -4 -14 54 -16 318 l-3 324 -55 0 -55 0 -3
-332 c-1 -183 -5 -333 -9 -333 -7 0 -151 82 -346 197 -59 35 -110 63 -113 63
-3 0 -19 9 -35 21 l-29 20 0 838 c0 461 3 841 7 844 3 4 47 -15 97 -42 50 -27
141 -75 201 -107 61 -32 135 -72 165 -89 l55 -31 3 -281 2 -281 48 -4 c26 -3
53 -3 59 0 10 3 13 73 15 284 l3 281 140 74 c193 102 430 223 438 223 4 0 7
-130 7 -290 l0 -290 55 0 55 0 0 290 c0 160 4 290 9 290 4 0 119 -57 255 -126
135 -69 246 -120 246 -114 0 6 -17 34 -38 63 -55 75 -90 138 -116 210 l-23 62
-195 99 -194 99 -352 -182 -351 -182 -173 92 c-95 50 -186 99 -203 109 -16 9
-88 48 -160 85 -71 37 -162 85 -201 106 -39 21 -74 36 -78 32z"/>
<path d="M1828 1953 c-45 -7 -50 -23 -27 -84 11 -30 24 -58 28 -62 4 -4 50 -9
101 -10 l93 -2 29 63 c15 35 26 67 23 72 -14 23 -159 36 -247 23z"/>
<path d="M1530 1800 c-52 -32 -96 -63 -98 -69 -5 -14 65 -121 80 -121 12 0
196 108 203 120 6 9 -68 130 -80 129 -5 0 -53 -27 -105 -59z"/>
<path d="M2187 1813 c-38 -61 -48 -83 -43 -92 6 -9 199 -121 209 -121 7 0 80
131 75 135 -10 10 -201 115 -209 115 -5 0 -19 -17 -32 -37z"/>
<path d="M813 1794 c-44 -22 -67 -61 -67 -114 0 -55 23 -93 70 -115 104 -49
214 54 173 162 -26 67 -111 100 -176 67z"/>
<path d="M2933 1796 c-68 -31 -93 -123 -50 -187 49 -72 149 -74 203 -3 79 103
-34 243 -153 190z"/>
<path d="M1275 1659 c-16 -5 -59 -8 -93 -7 l-64 3 -19 -50 c-32 -84 -32 -81 1
-95 44 -18 234 -10 256 11 14 15 13 22 -15 83 -16 36 -31 66 -33 65 -2 0 -16
-5 -33 -10z"/>
<path d="M2516 1598 c-14 -32 -26 -62 -26 -67 0 -31 228 -50 277 -23 l22 12
-25 68 c-13 37 -24 67 -24 67 0 0 -45 0 -99 0 l-100 1 -25 -58z"/>
</g>
</svg>
