<?xml version="1.0" standalone="no"?>
<!DOCTYPE svg PUBLIC "-//W3C//DTD SVG 20010904//EN"
 "http://www.w3.org/TR/2001/REC-SVG-20010904/DTD/svg10.dtd">
<svg version="1.0" xmlns="http://www.w3.org/2000/svg"
 width="384.000000pt" height="384.000000pt" viewBox="0 0 384.000000 384.000000"
 preserveAspectRatio="xMidYMid meet">
<metadata>
Created by potrace 1.16, written by Peter Selinger 2001-2019
</metadata>
<g transform="translate(0.000000,384.000000) scale(0.100000,-0.100000)"
fill="#000000" stroke="none">
<path d="M789 3590 c-142 -24 -253 -129 -285 -269 -18 -75 -20 -2710 -3 -2793
6 -29 20 -71 32 -93 31 -61 118 -140 184 -167 l58 -23 1140 0 c1058 0 1144 1
1195 17 121 39 209 138 235 266 13 63 15 251 13 1425 -3 1513 2 1399 -75 1502
-43 55 -96 96 -163 122 -42 17 -117 18 -1165 19 -616 1 -1141 -2 -1166 -6z
m1362 -374 c182 -47 318 -126 446 -259 87 -91 140 -167 185 -264 120 -264 105
-598 -38 -849 -46 -80 -147 -212 -170 -221 -14 -5 -121 77 -229 176 -120 109
-254 144 -393 102 -191 -58 -313 -270 -261 -455 6 -21 7 -42 2 -46 -10 -10
-118 27 -203 69 -226 112 -420 361 -481 616 -31 126 -31 315 0 439 82 337 338
598 676 690 130 35 332 36 466 2z m170 -1737 c535 -387 622 -455 654 -519 57
-112 21 -250 -82 -322 -42 -29 -57 -33 -124 -36 -66 -3 -83 -1 -126 21 -51 26
-73 48 -153 153 -50 65 -469 639 -507 693 -34 50 -31 95 11 137 61 61 73 56
327 -127z m-1213 -565 c77 -45 102 -137 61 -221 -30 -62 -80 -93 -147 -93
-156 0 -233 164 -134 282 53 63 144 76 220 32z"/>
<path d="M1860 2464 c-129 -56 -148 -209 -38 -297 127 -101 315 30 268 186
-15 52 -65 102 -115 116 -52 14 -73 13 -115 -5z"/>
</g>
</svg>
