<?xml version="1.0" standalone="no"?>
<!DOCTYPE svg PUBLIC "-//W3C//DTD SVG 20010904//EN"
 "http://www.w3.org/TR/2001/REC-SVG-20010904/DTD/svg10.dtd">
<svg version="1.0" xmlns="http://www.w3.org/2000/svg"
 width="384.000000pt" height="384.000000pt" viewBox="0 0 384.000000 384.000000"
 preserveAspectRatio="xMidYMid meet">
<metadata>
Created by potrace 1.16, written by Peter Selinger 2001-2019
</metadata>
<g transform="translate(0.000000,384.000000) scale(0.100000,-0.100000)"
fill="#000000" stroke="none">
<path d="M247 2624 c-4 -4 -7 -139 -7 -301 l0 -293 115 0 114 0 3 103 3 102
202 3 202 2 3 -102 3 -103 118 -3 117 -3 -2 298 -3 298 -115 0 -115 0 -3 -115
c-2 -76 -7 -117 -15 -122 -16 -10 -368 -10 -384 0 -8 5 -13 46 -15 122 l-3
115 -106 3 c-58 1 -108 -1 -112 -4z"/>
<path d="M1220 2555 l0 -75 325 0 325 0 1 -72 c1 -40 2 -103 3 -141 1 -37 -1
-72 -4 -77 -4 -7 -81 -9 -216 -8 l-209 3 -2 65 c-1 36 -2 80 -2 98 l-1 32
-110 0 -110 0 0 -175 0 -175 384 0 c382 0 383 0 417 23 18 12 44 38 56 56 22
32 23 43 23 221 0 178 -1 189 -22 220 -13 18 -36 43 -51 54 -28 20 -41 21
-418 24 l-389 3 0 -76z"/>
<path d="M2206 2622 c-4 -7 -9 -464 -6 -579 0 -10 29 -13 110 -13 l110 0 1 58
c0 31 1 131 2 222 l2 165 105 0 105 0 3 -223 2 -223 113 3 112 3 3 223 2 223
103 -3 102 -3 5 -220 5 -220 113 -3 112 -3 0 236 c0 265 -4 284 -66 331 l-37
29 -498 3 c-284 1 -500 -1 -503 -6z"/>
<path d="M3410 2330 l0 -300 115 0 115 0 -2 298 -3 297 -112 3 -113 3 0 -301z"/>
<path d="M2075 1934 c-62 -32 -95 -66 -127 -131 -33 -68 -33 -68 -33 -218 1
-135 3 -155 24 -202 28 -64 104 -137 157 -152 51 -14 124 -14 181 1 60 15 137
87 152 143 18 65 15 75 -19 75 -24 0 -30 -4 -30 -22 0 -12 -9 -41 -21 -64 -49
-102 -222 -126 -306 -43 -63 60 -74 100 -74 262 1 164 13 207 72 264 43 40 77
53 141 53 95 0 157 -45 183 -135 10 -32 17 -40 36 -40 22 0 24 3 21 45 -3 62
-44 117 -111 152 -46 24 -65 28 -135 28 -54 0 -91 -5 -111 -16z"/>
<path d="M2585 1928 c-2 -13 -4 -174 -2 -358 l2 -335 215 0 c208 0 215 1 215
20 0 19 -8 20 -185 25 l-185 5 1 137 c1 75 5 142 9 148 4 6 23 11 44 10 20 -1
89 -2 154 -1 109 1 117 2 117 20 0 27 -17 30 -160 27 -69 -1 -134 1 -145 5
-20 6 -21 14 -18 129 1 67 4 125 7 128 3 2 84 4 180 4 182 -1 195 2 180 43 -5
13 -39 15 -215 15 -208 0 -209 0 -214 -22z"/>
<path d="M3284 1936 c-52 -23 -102 -75 -131 -134 -27 -55 -28 -63 -28 -212 0
-133 3 -162 20 -200 29 -67 63 -108 114 -138 41 -24 56 -27 136 -27 74 0 98 4
132 22 55 30 100 87 112 142 11 53 8 61 -23 61 -19 0 -26 -8 -35 -43 -21 -86
-90 -136 -185 -137 -69 0 -128 31 -165 87 -42 63 -54 130 -49 264 4 93 9 122
27 159 48 94 101 125 201 118 38 -3 80 -13 96 -23 38 -22 70 -70 78 -118 6
-34 10 -38 34 -35 24 3 27 7 24 38 -5 61 -43 122 -97 155 -43 27 -58 30 -139
33 -61 1 -101 -2 -122 -12z"/>
</g>
</svg>
