<?xml version="1.0" standalone="no"?>
<!DOCTYPE svg PUBLIC "-//W3C//DTD SVG 20010904//EN"
 "http://www.w3.org/TR/2001/REC-SVG-20010904/DTD/svg10.dtd">
<svg version="1.0" xmlns="http://www.w3.org/2000/svg"
 width="384.000000pt" height="384.000000pt" viewBox="0 0 384.000000 384.000000"
 preserveAspectRatio="xMidYMid meet">
<metadata>
Created by potrace 1.16, written by Peter Selinger 2001-2019
</metadata>
<g transform="translate(0.000000,384.000000) scale(0.100000,-0.100000)"
fill="#000000" stroke="none">
<path d="M717 3589 c-167 -111 -215 -139 -242 -139 -24 0 -79 24 -182 80 -82
44 -151 80 -155 80 -15 0 -7 -19 72 -163 56 -103 80 -156 80 -181 0 -27 -28
-77 -140 -246 -77 -117 -140 -217 -140 -223 0 -5 10 -3 23 6 345 227 413 269
440 273 26 4 60 -10 181 -76 82 -44 153 -80 157 -80 18 0 7 25 -68 163 -55
102 -77 152 -77 177 0 28 27 76 142 247 78 117 142 215 142 218 0 16 -46 -10
-233 -136z"/>
<path d="M2441 3186 c-9 -10 -11 -134 -9 -467 l3 -454 28 -57 c51 -103 157
-173 279 -185 79 -7 98 7 98 70 0 62 -29 103 -79 112 -48 8 -85 35 -108 78
-14 28 -16 63 -14 252 1 120 5 223 7 227 3 4 74 8 158 8 105 0 156 4 164 12
16 16 16 130 0 146 -8 8 -60 12 -170 12 l-158 0 0 114 c0 144 -2 146 -109 146
-55 0 -82 -4 -90 -14z"/>
<path d="M1089 2947 c-100 -28 -181 -97 -223 -186 -19 -42 -21 -63 -21 -271 0
-215 1 -227 23 -271 37 -75 87 -125 158 -160 119 -59 264 -48 288 22 21 62
-25 113 -114 124 -66 8 -109 34 -131 77 -17 32 -19 59 -19 210 0 150 3 178 19
208 24 46 72 73 128 73 52 0 83 -20 133 -86 22 -30 43 -47 56 -47 27 0 128 71
132 92 10 52 -78 155 -165 195 -66 31 -193 40 -264 20z"/>
<path d="M1859 2946 c-98 -26 -181 -95 -223 -185 -19 -42 -21 -63 -21 -271 l0
-225 28 -57 c52 -105 162 -177 287 -186 82 -6 132 14 151 60 24 59 -32 115
-125 125 -73 8 -117 36 -134 88 -26 79 -28 77 220 126 145 29 230 50 245 62
21 17 23 26 23 116 0 110 -14 161 -59 223 -82 112 -246 164 -392 124z m190
-181 c43 -21 68 -109 39 -132 -15 -11 -235 -63 -269 -63 -20 0 -21 4 -17 50 6
61 43 120 89 143 42 21 121 22 158 2z"/>
<path d="M380 2919 c-8 -14 -11 -117 -8 -337 l3 -317 26 -55 c36 -76 80 -124
145 -156 65 -32 174 -44 200 -23 59 49 28 179 -43 179 -41 0 -89 36 -107 80
-13 34 -16 89 -16 339 0 263 -2 300 -16 305 -9 3 -51 6 -94 6 -70 0 -81 -2
-90 -21z"/>
<path d="M3105 2924 c-8 -9 -13 -24 -10 -33 3 -9 64 -196 135 -416 114 -352
133 -403 160 -427 50 -45 112 -32 144 30 20 39 266 807 266 830 0 26 -18 32
-104 32 -58 0 -76 -4 -89 -18 -9 -10 -45 -113 -80 -228 -43 -144 -67 -209 -77
-209 -10 0 -34 65 -78 210 -35 116 -71 218 -79 228 -22 24 -164 25 -188 1z"/>
<path d="M120 1295 c0 -51 3 -65 15 -65 10 0 15 10 15 30 0 27 3 30 30 30 17
0 30 5 30 10 0 6 -11 10 -24 10 -14 0 -28 5 -31 10 -4 6 7 10 24 10 21 0 31 5
31 15 0 11 -12 15 -45 15 l-45 0 0 -65z"/>
<path d="M914 1324 c-22 -52 -29 -94 -15 -94 6 0 14 7 17 15 4 8 16 15 29 15
13 0 25 -7 29 -15 3 -8 13 -15 22 -15 9 0 14 6 11 13 -2 6 -13 36 -23 65 -23
64 -48 70 -70 16z m43 -41 c-11 -10 -26 8 -20 23 5 15 7 14 15 -1 6 -9 7 -19
5 -22z"/>
<path d="M1020 1350 c0 -5 7 -10 15 -10 8 0 15 5 15 10 0 6 -7 10 -15 10 -8 0
-15 -4 -15 -10z"/>
<path d="M1240 1345 c0 -8 9 -15 20 -15 17 0 20 -7 20 -50 0 -38 4 -50 15 -50
11 0 15 12 15 48 0 39 4 49 23 57 20 10 24 6 43 -45 30 -75 49 -73 80 8 21 58
22 62 5 62 -12 0 -22 -13 -31 -42 l-13 -43 -13 30 c-7 17 -13 36 -14 43 0 8
-22 12 -75 12 -60 0 -75 -3 -75 -15z"/>
<path d="M1830 1345 c0 -8 5 -15 10 -15 6 0 10 -16 10 -35 0 -19 -4 -35 -10
-35 -5 0 -10 -7 -10 -15 0 -10 11 -15 35 -15 24 0 35 5 35 15 0 8 -4 15 -10
15 -5 0 -10 16 -10 35 0 19 5 35 10 35 6 0 10 7 10 15 0 10 -11 15 -35 15 -24
0 -35 -5 -35 -15z"/>
<path d="M1930 1295 c0 -51 3 -65 15 -65 11 0 15 11 15 40 0 53 27 56 32 3 2
-20 9 -38 16 -41 10 -3 12 8 10 44 -3 45 -5 49 -30 52 -16 2 -28 9 -28 18 0 8
-7 14 -15 14 -12 0 -15 -14 -15 -65z"/>
<path d="M2430 1295 l0 -65 34 0 c19 0 44 8 56 18 19 16 21 22 11 40 -7 12 -9
27 -6 33 12 19 -17 39 -56 39 l-39 0 0 -65z m60 25 c0 -5 -7 -10 -15 -10 -8 0
-15 5 -15 10 0 6 7 10 15 10 8 0 15 -4 15 -10z m10 -45 c0 -8 -9 -15 -20 -15
-11 0 -20 7 -20 15 0 8 9 15 20 15 11 0 20 -7 20 -15z"/>
<path d="M2730 1345 c0 -9 -9 -15 -24 -15 -25 0 -36 -16 -36 -55 0 -29 12 -37
56 -41 l34 -2 0 64 c0 50 -3 64 -15 64 -8 0 -15 -7 -15 -15z m-2 -62 c-2 -16
-7 -28 -13 -28 -5 0 -11 12 -13 28 -2 20 1 27 13 27 12 0 15 -7 13 -27z"/>
<path d="M2790 1350 c0 -5 7 -10 15 -10 8 0 15 5 15 10 0 6 -7 10 -15 10 -8 0
-15 -4 -15 -10z"/>
<path d="M3690 1321 c0 -22 5 -43 11 -46 14 -9 16 -7 24 43 6 38 5 42 -14 42
-18 0 -21 -6 -21 -39z"/>
<path d="M620 1333 c-10 -12 -11 -18 -2 -21 7 -2 12 -19 12 -37 0 -35 25 -55
44 -34 8 8 8 13 -1 16 -17 6 -17 50 -1 55 9 3 8 9 -4 21 -20 21 -29 21 -48 0z"/>
<path d="M230 1279 c0 -37 4 -49 15 -49 10 0 15 10 15 34 0 25 5 35 20 39 33
8 23 25 -15 25 l-35 0 0 -49z"/>
<path d="M322 1318 c-20 -20 -14 -56 13 -74 24 -16 65 -12 65 7 0 6 -8 8 -17
5 -10 -3 -25 -1 -33 4 -11 7 -7 10 17 10 38 0 48 12 33 40 -12 23 -59 27 -78
8z m48 -18 c0 -5 -7 -10 -15 -10 -8 0 -15 5 -15 10 0 6 7 10 15 10 8 0 15 -4
15 -10z"/>
<path d="M430 1310 c-15 -28 -4 -59 25 -70 26 -10 65 -3 65 12 0 6 -11 7 -24
4 -14 -3 -28 -2 -31 4 -4 6 6 10 24 10 31 0 38 11 25 44 -9 24 -71 21 -84 -4z
m60 -10 c0 -5 -7 -10 -15 -10 -8 0 -15 5 -15 10 0 6 7 10 15 10 8 0 15 -4 15
-10z"/>
<path d="M700 1310 c-24 -45 17 -88 65 -70 23 9 26 15 23 47 -3 36 -5 38 -40
41 -29 2 -39 -1 -48 -18z m60 -24 c0 -31 -14 -40 -30 -21 -15 18 -6 45 15 45
9 0 15 -9 15 -24z"/>
<path d="M1022 1283 c4 -66 28 -70 28 -4 0 39 -4 51 -16 51 -12 0 -14 -10 -12
-47z"/>
<path d="M1082 1282 c4 -56 28 -71 28 -18 0 29 4 36 20 36 37 0 22 26 -16 27
l-35 1 3 -46z"/>
<path d="M1550 1321 c0 -5 9 -11 21 -13 l21 -3 -21 -27 c-30 -38 -26 -48 19
-48 22 0 40 5 40 10 0 6 -9 10 -20 10 -11 0 -20 4 -20 8 0 5 9 17 20 27 32 29
25 45 -20 45 -22 0 -40 -4 -40 -9z"/>
<path d="M1650 1296 c0 -44 17 -61 61 -61 34 0 34 1 37 48 2 36 0 47 -12 47
-9 0 -16 -12 -18 -32 -2 -21 -8 -33 -18 -33 -10 0 -16 12 -18 33 -5 45 -32 44
-32 -2z"/>
<path d="M2050 1279 c0 -37 4 -49 15 -49 10 0 15 10 15 34 0 25 5 35 20 39 33
8 23 25 -15 25 l-35 0 0 -49z"/>
<path d="M2142 1318 c-20 -20 -14 -56 13 -74 24 -16 65 -12 65 7 0 6 -8 8 -17
5 -10 -3 -25 -1 -33 4 -11 7 -7 10 17 10 38 0 48 12 33 40 -12 23 -59 27 -78
8z m48 -18 c0 -5 -7 -10 -15 -10 -8 0 -15 5 -15 10 0 6 7 10 15 10 8 0 15 -4
15 -10z"/>
<path d="M2250 1281 c0 -39 4 -51 15 -51 11 0 15 11 15 40 0 53 27 56 32 3 2
-20 9 -38 16 -41 10 -3 12 8 10 44 l-3 49 -42 3 -43 3 0 -50z"/>
<path d="M2560 1310 c-15 -28 -4 -59 25 -70 26 -10 65 -3 65 12 0 6 -11 7 -24
4 -14 -3 -28 -2 -31 4 -4 6 6 10 24 10 31 0 38 11 25 44 -9 24 -71 21 -84 -4z
m60 -10 c0 -5 -7 -10 -15 -10 -8 0 -15 5 -15 10 0 6 7 10 15 10 8 0 15 -4 15
-10z"/>
<path d="M2792 1283 c4 -66 28 -70 28 -4 0 39 -4 51 -16 51 -12 0 -14 -10 -12
-47z"/>
<path d="M2852 1283 c4 -58 25 -70 30 -16 2 26 8 38 18 38 10 0 16 -12 18 -38
2 -24 8 -37 15 -34 15 4 21 41 13 73 -6 21 -12 24 -52 24 l-45 0 3 -47z"/>
<path d="M2976 1314 c-12 -31 -6 -63 14 -74 11 -6 25 -8 30 -5 6 3 10 1 10 -4
0 -6 -11 -11 -25 -11 -14 0 -25 -4 -25 -10 0 -11 39 -13 64 -4 12 5 16 21 16
65 l0 59 -39 0 c-26 0 -41 -5 -45 -16z m52 -31 c-2 -16 -7 -28 -13 -28 -5 0
-11 12 -13 28 -2 20 1 27 13 27 12 0 15 -7 13 -27z"/>
<path d="M3090 1296 c0 -44 17 -61 61 -61 34 0 34 1 37 48 2 36 0 47 -12 47
-9 0 -16 -12 -18 -32 -2 -21 -8 -33 -18 -33 -10 0 -16 12 -18 33 -5 45 -32 44
-32 -2z"/>
<path d="M3212 1283 c4 -58 25 -70 30 -16 2 26 8 38 18 38 10 0 16 -12 18 -38
2 -24 8 -37 15 -34 15 4 21 41 13 73 -6 21 -12 24 -52 24 l-45 0 3 -47z"/>
<path d="M3336 1314 c-12 -31 -6 -63 14 -74 11 -6 25 -8 30 -5 6 3 10 1 10 -4
0 -6 -11 -11 -25 -11 -14 0 -25 -4 -25 -10 0 -11 39 -13 64 -4 12 5 16 21 16
65 l0 59 -39 0 c-26 0 -41 -5 -45 -16z m52 -31 c-2 -16 -7 -28 -13 -28 -5 0
-11 12 -13 28 -2 20 1 27 13 27 12 0 15 -7 13 -27z"/>
<path d="M3462 1318 c-20 -20 -14 -56 13 -74 24 -16 65 -12 65 7 0 6 -8 8 -17
5 -10 -3 -25 -1 -33 4 -11 7 -7 10 17 10 38 0 48 12 33 40 -12 23 -59 27 -78
8z m48 -18 c0 -5 -7 -10 -15 -10 -8 0 -15 5 -15 10 0 6 7 10 15 10 8 0 15 -4
15 -10z"/>
<path d="M3570 1281 c0 -39 4 -51 15 -51 11 0 15 11 15 40 0 53 27 56 32 3 2
-20 9 -38 16 -41 10 -3 12 8 10 44 l-3 49 -42 3 -43 3 0 -50z"/>
<path d="M540 1285 c0 -10 10 -15 30 -15 20 0 30 5 30 15 0 10 -10 15 -30 15
-20 0 -30 -5 -30 -15z"/>
<path d="M810 1285 c0 -10 10 -15 30 -15 20 0 30 5 30 15 0 10 -10 15 -30 15
-20 0 -30 -5 -30 -15z"/>
<path d="M1163 1288 c2 -7 16 -13 32 -13 16 0 30 6 33 13 2 8 -8 12 -33 12
-25 0 -35 -4 -32 -12z"/>
<path d="M3698 1238 c9 -9 15 -9 24 0 9 9 7 12 -12 12 -19 0 -21 -3 -12 -12z"/>
<path d="M360 905 c0 -30 5 -55 10 -55 6 0 10 14 10 30 0 38 10 38 32 0 28
-50 48 -39 48 25 0 42 -3 55 -15 55 -10 0 -15 -10 -15 -27 l-1 -28 -20 28
c-33 44 -49 35 -49 -28z"/>
<path d="M480 950 c0 -5 7 -10 15 -10 8 0 15 5 15 10 0 6 -7 10 -15 10 -8 0
-15 -4 -15 -10z"/>
<path d="M830 950 c0 -5 5 -10 10 -10 6 0 10 5 10 10 0 6 -4 10 -10 10 -5 0
-10 -4 -10 -10z"/>
<path d="M1030 940 c0 -12 -5 -17 -14 -14 -13 5 -46 -20 -46 -36 0 -29 15 -40
51 -40 l39 0 0 55 c0 42 -3 55 -15 55 -8 0 -15 -9 -15 -20z m0 -50 c0 -11 -7
-20 -15 -20 -15 0 -21 21 -8 33 12 13 23 7 23 -13z"/>
<path d="M1410 950 c0 -5 5 -10 10 -10 6 0 10 5 10 10 0 6 -4 10 -10 10 -5 0
-10 -4 -10 -10z"/>
<path d="M2154 946 c-15 -12 -17 -18 -8 -33 6 -10 21 -19 33 -21 11 -2 21 -8
21 -14 0 -6 -13 -8 -30 -6 -20 3 -30 0 -30 -9 0 -8 12 -13 33 -13 59 0 78 44
27 61 -16 6 -30 16 -30 21 0 6 12 8 30 5 31 -7 42 6 14 17 -24 9 -38 7 -60 -8z"/>
<path d="M2250 905 c0 -56 16 -77 22 -28 4 39 28 42 28 4 0 -21 5 -31 16 -31
12 0 14 9 12 38 -3 34 -6 37 -30 35 -22 -1 -28 3 -28 18 0 10 -4 19 -10 19 -5
0 -10 -25 -10 -55z"/>
<path d="M1917 937 c-3 -8 -2 -29 2 -48 7 -35 34 -50 54 -30 8 8 6 11 -6 11
-10 0 -17 8 -17 20 0 12 7 20 17 20 14 0 14 3 -5 20 -25 23 -38 25 -45 7z"/>
<path d="M480 890 c0 -29 4 -40 15 -40 11 0 15 11 15 40 0 29 -4 40 -15 40
-11 0 -15 -11 -15 -40z"/>
<path d="M540 916 c-6 -8 -10 -25 -8 -38 2 -19 10 -24 41 -26 36 -3 37 -2 37
31 0 45 -43 65 -70 33z m53 -43 c-7 -2 -19 -2 -25 0 -7 3 -2 5 12 5 14 0 19
-2 13 -5z"/>
<path d="M680 916 c0 -28 20 -66 34 -66 8 0 18 10 22 22 l7 23 8 -23 c12 -33
36 -27 49 14 7 19 10 38 7 41 -10 10 -27 -8 -28 -30 -1 -20 -2 -19 -12 6 -6
15 -16 27 -23 27 -6 0 -15 -12 -19 -27 l-7 -28 -10 28 c-10 29 -28 37 -28 13z"/>
<path d="M830 890 c0 -22 5 -40 10 -40 6 0 10 18 10 40 0 22 -4 40 -10 40 -5
0 -10 -18 -10 -40z"/>
<path d="M886 914 c-32 -32 -8 -68 41 -62 20 2 29 9 31 26 7 46 -40 69 -72 36z
m41 -10 c-3 -3 -12 -4 -19 -1 -8 3 -5 6 6 6 11 1 17 -2 13 -5z m16 -31 c-7 -2
-21 -2 -30 0 -10 3 -4 5 12 5 17 0 24 -2 18 -5z"/>
<path d="M1090 916 c-6 -8 -10 -25 -8 -38 2 -19 10 -24 41 -26 36 -3 37 -2 37
31 0 45 -43 65 -70 33z m53 -43 c-7 -2 -19 -2 -25 0 -7 3 -2 5 12 5 14 0 19
-2 13 -5z"/>
<path d="M1180 889 c0 -28 4 -39 15 -39 10 0 15 10 15 30 0 20 5 30 15 30 29
0 15 17 -15 18 -28 1 -30 -1 -30 -39z"/>
<path d="M1316 914 c-32 -32 -8 -68 41 -62 20 2 29 9 31 26 7 46 -40 69 -72
36z m41 -10 c-3 -3 -12 -4 -19 -1 -8 3 -5 6 6 6 11 1 17 -2 13 -5z m16 -31
c-7 -2 -21 -2 -30 0 -10 3 -4 5 12 5 17 0 24 -2 18 -5z"/>
<path d="M1410 890 c0 -22 5 -40 10 -40 6 0 10 18 10 40 0 22 -4 40 -10 40 -5
0 -10 -18 -10 -40z"/>
<path d="M1460 889 c0 -44 17 -53 22 -12 4 39 28 42 28 4 0 -21 5 -31 16 -31
12 0 14 9 12 38 -3 35 -5 37 -40 38 -38 1 -38 1 -38 -37z"/>
<path d="M1570 916 c-6 -8 -10 -25 -8 -38 2 -19 10 -24 41 -26 36 -3 37 -2 37
31 0 45 -43 65 -70 33z m53 -43 c-7 -2 -19 -2 -25 0 -7 3 -2 5 12 5 14 0 19
-2 13 -5z"/>
<path d="M1720 916 c-19 -24 -8 -59 20 -67 24 -7 24 -7 3 -8 -13 -1 -23 -6
-23 -12 0 -6 14 -9 33 -7 31 3 32 4 35 56 3 52 3 52 -26 52 -16 0 -35 -7 -42
-14z m47 -21 c7 -20 -2 -29 -21 -22 -9 4 -13 13 -10 22 8 19 23 19 31 0z"/>
<path d="M1820 890 l0 -40 40 0 40 0 0 40 c0 29 -4 40 -15 40 -10 0 -15 -10
-15 -31 0 -38 -24 -35 -28 4 -5 42 -22 32 -22 -13z"/>
<path d="M2000 916 c-6 -8 -10 -25 -8 -38 2 -19 10 -24 41 -26 36 -3 37 -2 37
31 0 45 -43 65 -70 33z m53 -43 c-7 -2 -19 -2 -25 0 -7 3 -2 5 12 5 14 0 19
-2 13 -5z"/>
<path d="M2360 916 c-6 -8 -10 -25 -8 -38 4 -30 56 -38 75 -12 17 23 16 29 -3
48 -19 20 -48 20 -64 2z m48 -29 c2 -10 -3 -17 -12 -17 -18 0 -29 16 -21 31 9
14 29 6 33 -14z"/>
<path d="M2454 913 c2 -10 7 -28 11 -40 3 -13 13 -23 21 -23 8 0 19 10 24 23
l9 22 7 -22 c11 -38 39 -28 51 17 8 31 7 40 -2 40 -7 0 -16 -12 -20 -27 l-7
-28 -10 28 c-11 32 -28 35 -35 7 -3 -11 -9 -20 -14 -20 -5 0 -9 9 -9 20 0 11
-7 20 -16 20 -10 0 -14 -6 -10 -17z"/>
<path d="M2657 890 c20 -51 45 -52 62 -4 7 19 10 38 8 41 -9 8 -27 -7 -27 -23
0 -21 -18 -17 -25 6 -3 11 -12 20 -20 20 -11 0 -10 -7 2 -40z"/>
<path d="M2760 916 c-6 -8 -10 -25 -8 -38 2 -19 10 -24 41 -26 36 -3 37 -2 37
31 0 45 -43 65 -70 33z m53 -43 c-7 -2 -19 -2 -25 0 -7 3 -2 5 12 5 14 0 19
-2 13 -5z"/>
<path d="M2850 889 c0 -28 4 -39 15 -39 10 0 15 10 15 30 0 20 5 30 15 30 29
0 15 17 -15 18 -28 1 -30 -1 -30 -39z"/>
<path d="M2930 874 c0 -30 5 -54 10 -54 6 0 10 6 10 14 0 9 12 16 28 18 22 2
28 8 30 36 2 17 0 33 -5 33 -4 1 -23 3 -40 5 l-33 2 0 -54z m55 15 c0 -7 -8
-15 -17 -17 -18 -3 -25 18 -11 32 10 10 28 1 28 -15z"/>
<path d="M3035 920 c-4 -6 6 -10 22 -11 l28 -1 -27 -10 c-17 -6 -28 -17 -28
-29 0 -16 7 -19 40 -19 37 0 40 2 40 28 0 15 -5 33 -12 40 -15 15 -54 16 -63
2z m42 -46 c-3 -3 -12 -4 -19 -1 -8 3 -5 6 6 6 11 1 17 -2 13 -5z"/>
<path d="M3143 924 c-21 -9 -15 -34 10 -44 l22 -9 -22 0 c-13 -1 -23 -6 -23
-12 0 -6 14 -9 32 -7 40 4 48 30 16 47 l-23 12 23 -5 c15 -3 22 0 19 7 -4 13
-35 19 -54 11z"/>
<path d="M3233 924 c-21 -9 -15 -34 10 -44 l22 -9 -22 0 c-13 -1 -23 -6 -23
-12 0 -6 14 -9 32 -7 40 4 48 30 16 47 l-23 12 23 -5 c15 -3 22 0 19 7 -4 13
-35 19 -54 11z"/>
<path d="M3320 916 c-6 -8 -10 -25 -8 -38 2 -19 10 -24 41 -26 36 -3 37 -2 37
31 0 45 -43 65 -70 33z m53 -43 c-7 -2 -19 -2 -25 0 -7 3 -2 5 12 5 14 0 19
-2 13 -5z"/>
<path d="M3410 889 c0 -28 4 -39 15 -39 10 0 15 10 15 31 0 38 24 35 28 -4 4
-32 32 -37 32 -6 0 39 -18 57 -55 57 -34 0 -35 -1 -35 -39z"/>
<path d="M1787 513 c-17 -16 -5 -33 23 -33 23 0 30 4 30 20 0 14 -7 20 -23 20
-13 0 -27 -3 -30 -7z"/>
<path d="M2810 487 c0 -31 -2 -33 -35 -33 -52 0 -80 -32 -80 -90 0 -56 32 -90
75 -79 14 3 40 6 58 5 l32 -1 0 116 0 115 -25 0 c-22 0 -25 -4 -25 -33z m-5
-118 c0 -40 -2 -44 -25 -44 -21 0 -25 5 -28 35 -3 24 2 38 14 47 28 21 39 10
39 -38z"/>
<path d="M2270 475 c0 -14 -4 -25 -10 -25 -5 0 -10 -7 -10 -15 0 -8 5 -15 10
-15 6 0 10 -27 10 -60 0 -66 12 -80 69 -80 24 0 31 4 31 20 0 15 -7 20 -25 20
-23 0 -25 3 -25 50 0 47 2 50 25 50 16 0 25 6 25 15 0 9 -9 15 -25 15 -20 0
-25 5 -25 25 0 20 -5 25 -25 25 -20 0 -25 -5 -25 -25z"/>
<path d="M1940 453 c-34 -12 -60 -47 -60 -79 0 -46 9 -63 41 -79 53 -28 109
-17 109 21 0 22 -2 23 -21 14 -55 -30 -106 34 -59 72 13 11 30 16 39 12 9 -3
22 -8 29 -11 8 -3 12 4 12 20 0 19 -6 26 -31 31 -35 7 -38 7 -59 -1z"/>
<path d="M2102 445 c-74 -33 -61 -143 20 -160 45 -10 98 3 98 23 0 15 -9 18
-52 17 -42 0 -53 3 -56 18 -3 15 5 17 59 17 l62 0 -7 32 c-4 18 -12 38 -19 45
-20 20 -69 24 -105 8z m66 -42 c2 -9 -7 -13 -27 -13 -30 0 -39 9 -24 24 11 10
46 3 51 -11z"/>
<path d="M2952 445 c-74 -33 -61 -143 20 -160 45 -10 98 3 98 23 0 15 -9 18
-52 17 -42 0 -53 3 -56 18 -3 15 5 17 59 17 l62 0 -7 32 c-4 18 -12 38 -19 45
-20 20 -69 24 -105 8z m66 -42 c2 -9 -7 -13 -27 -13 -30 0 -39 9 -24 24 11 10
46 3 51 -11z"/>
<path d="M780 423 c5 -16 16 -52 25 -80 15 -48 20 -53 45 -53 25 0 30 6 46 53
l17 52 15 -53 c14 -51 16 -53 46 -50 28 3 32 8 48 63 10 33 21 68 24 78 5 15
1 18 -23 15 -24 -3 -29 -9 -37 -45 -5 -24 -12 -43 -16 -43 -4 0 -13 20 -20 45
-10 37 -17 45 -35 45 -19 0 -27 -10 -41 -52 l-18 -53 -14 53 c-13 47 -18 52
-43 52 -26 0 -27 -2 -19 -27z"/>
<path d="M1072 433 c40 -139 42 -143 74 -143 29 0 32 4 46 53 l15 52 15 -50
c13 -45 18 -50 46 -53 28 -3 32 0 42 37 6 22 17 58 25 80 l14 41 -28 0 c-25 0
-30 -5 -43 -52 l-14 -53 -15 50 c-12 42 -19 50 -41 53 -23 3 -27 -1 -39 -47
-14 -57 -20 -57 -34 2 -9 36 -15 42 -39 45 -24 3 -28 0 -24 -15z"/>
<path d="M1370 423 c5 -16 16 -52 25 -80 15 -48 20 -53 45 -53 25 0 30 6 46
53 l17 52 15 -53 c14 -51 16 -53 46 -50 28 3 32 8 48 63 10 33 21 68 24 78 5
15 1 18 -23 15 -24 -3 -29 -9 -37 -45 -5 -24 -12 -43 -16 -43 -4 0 -13 20 -20
45 -10 37 -17 45 -35 45 -19 0 -27 -10 -41 -52 l-18 -53 -14 53 c-13 47 -18
52 -43 52 -26 0 -27 -2 -19 -27z"/>
<path d="M1780 370 l0 -80 30 0 30 0 0 80 0 80 -30 0 -30 0 0 -80z"/>
<path d="M2409 373 c27 -75 30 -78 62 -81 34 -3 34 -2 62 71 15 41 27 77 27
80 0 4 -11 7 -24 7 -20 0 -27 -8 -41 -50 -9 -28 -20 -48 -24 -45 -5 2 -14 25
-21 50 -11 40 -16 45 -41 45 l-28 0 28 -77z"/>
<path d="M1680 320 c0 -25 4 -30 25 -30 21 0 25 5 25 30 0 25 -4 30 -25 30
-21 0 -25 -5 -25 -30z"/>
<path d="M2600 320 c0 -25 4 -30 25 -30 21 0 25 5 25 30 0 25 -4 30 -25 30
-21 0 -25 -5 -25 -30z"/>
</g>
</svg>
