<?xml version="1.0" standalone="no"?>
<!DOCTYPE svg PUBLIC "-//W3C//DTD SVG 20010904//EN"
 "http://www.w3.org/TR/2001/REC-SVG-20010904/DTD/svg10.dtd">
<svg version="1.0" xmlns="http://www.w3.org/2000/svg"
 width="384.000000pt" height="384.000000pt" viewBox="0 0 384.000000 384.000000"
 preserveAspectRatio="xMidYMid meet">
<metadata>
Created by potrace 1.16, written by Peter Selinger 2001-2019
</metadata>
<g transform="translate(0.000000,384.000000) scale(0.100000,-0.100000)"
fill="#000000" stroke="none">
<path d="M1765 3450 c-44 -4 -120 -17 -170 -28 -761 -171 -1274 -872 -1206
-1648 70 -793 735 -1404 1528 -1404 277 0 506 56 740 180 427 227 726 650 798
1128 54 361 -27 753 -217 1057 -312 496 -876 770 -1473 715z m320 -584 c157
-66 201 -285 82 -414 -31 -33 -109 -71 -162 -78 -57 -8 -137 17 -190 61 -158
129 -97 395 102 445 45 11 124 4 168 -14z m118 -725 c16 -1 17 -33 15 -568
l-3 -568 -237 -3 -238 -2 -2 477 -3 478 -132 3 -133 3 0 89 0 89 38 3 c30 3
634 2 695 -1z"/>
</g>
</svg>
