<?xml version="1.0" standalone="no"?>
<!DOCTYPE svg PUBLIC "-//W3C//DTD SVG 20010904//EN"
 "http://www.w3.org/TR/2001/REC-SVG-20010904/DTD/svg10.dtd">
<svg version="1.0" xmlns="http://www.w3.org/2000/svg"
 width="384.000000pt" height="384.000000pt" viewBox="0 0 384.000000 384.000000"
 preserveAspectRatio="xMidYMid meet">
<metadata>
Created by potrace 1.16, written by Peter Selinger 2001-2019
</metadata>
<g transform="translate(0.000000,384.000000) scale(0.100000,-0.100000)"
fill="#000000" stroke="none">
<path d="M1911 3603 c-24 -8 -61 -33 -82 -54 l-39 -39 0 -612 c0 -674 -3 -638
60 -685 61 -44 47 -43 594 -43 524 0 524 0 566 22 78 42 85 60 88 246 l3 162
-95 0 -96 0 0 -145 0 -145 -465 0 -465 0 0 580 0 580 465 0 465 0 0 -145 0
-145 96 0 95 0 -3 164 c-3 190 -8 203 -94 246 l-49 25 -500 2 c-431 1 -506 0
-544 -14z"/>
<path d="M2535 2999 c-93 -55 -171 -102 -172 -107 -2 -4 48 -36 110 -71 61
-36 141 -82 176 -103 34 -21 66 -38 70 -38 4 0 7 30 7 68 l-1 67 468 3 467 2
0 70 0 70 -467 2 -468 3 0 68 c0 39 -4 67 -10 66 -5 -1 -86 -46 -180 -100z"/>
<path d="M1133 2840 c-18 -10 -40 -31 -49 -46 -23 -34 -23 -113 -1 -147 17
-26 16 -29 -141 -339 -114 -226 -162 -312 -173 -309 -7 3 -47 7 -87 10 l-74 6
-113 208 c-109 199 -113 209 -102 242 31 103 -105 177 -179 98 -50 -54 -21
-153 48 -171 28 -7 43 -29 146 -216 l114 -208 -40 -41 c-22 -23 -47 -57 -56
-74 -10 -21 -24 -33 -37 -33 -59 0 -155 -63 -203 -133 -64 -94 -66 -113 -66
-674 0 -333 4 -520 11 -555 22 -104 75 -177 167 -230 l57 -33 790 0 790 0 57
33 c89 51 137 116 164 217 21 78 20 1048 -1 1130 -20 76 -74 156 -133 195 -90
59 -101 60 -611 60 l-465 -1 -14 28 c-8 15 -26 40 -40 55 l-25 27 160 318
c158 314 160 318 194 324 49 8 74 24 98 63 40 64 19 157 -44 196 -41 25 -101
26 -142 0z m795 -1278 c69 -50 67 -32 67 -587 0 -487 -1 -501 -21 -535 -11
-19 -38 -45 -60 -57 l-39 -23 -603 0 c-672 0 -646 -3 -700 68 l-27 35 0 512 0
512 29 37 c51 68 25 66 706 63 l615 -2 33 -23z"/>
<path d="M784 1380 c-54 -21 -54 -25 -54 -428 l0 -373 25 -24 c32 -33 100 -35
139 -4 l26 20 0 379 c0 208 -3 386 -6 395 -14 35 -83 54 -130 35z"/>
<path d="M1070 985 l0 -406 25 -24 c32 -33 100 -35 139 -4 25 20 26 23 26 140
l0 119 178 0 c199 0 270 12 332 58 186 137 167 389 -38 489 l-57 28 -302 3
-303 4 0 -407z m581 218 c75 -44 73 -157 -4 -203 -29 -18 -51 -20 -209 -20
l-178 0 0 120 0 120 181 0 c153 0 185 -3 210 -17z"/>
<path d="M3007 1390 c-13 -11 -27 -30 -31 -44 -4 -15 31 -148 98 -377 58 -195
109 -365 114 -379 19 -49 49 -65 118 -65 102 0 98 -7 225 415 60 200 109 375
109 390 0 34 -27 67 -61 75 -50 12 -65 -15 -130 -230 -61 -202 -121 -415 -134
-470 -7 -27 -9 -22 -26 47 -20 82 -162 564 -181 611 -10 25 -42 47 -67 47 -5
0 -20 -9 -34 -20z"/>
<path d="M2334 1380 c-32 -12 -50 -73 -34 -111 18 -43 37 -49 149 -49 l101 0
0 -325 c0 -312 1 -326 20 -345 28 -28 84 -27 104 2 14 19 16 69 16 345 l0 323
93 0 c107 0 131 11 141 64 8 44 -14 91 -46 100 -35 9 -520 6 -544 -4z"/>
</g>
</svg>
