<?xml version="1.0" standalone="no"?>
<!DOCTYPE svg PUBLIC "-//W3C//DTD SVG 20010904//EN"
 "http://www.w3.org/TR/2001/REC-SVG-20010904/DTD/svg10.dtd">
<svg version="1.0" xmlns="http://www.w3.org/2000/svg"
 width="384.000000pt" height="384.000000pt" viewBox="0 0 384.000000 384.000000"
 preserveAspectRatio="xMidYMid meet">
<metadata>
Created by potrace 1.16, written by Peter Selinger 2001-2019
</metadata>
<g transform="translate(0.000000,384.000000) scale(0.100000,-0.100000)"
fill="#000000" stroke="none">
<path d="M1759 3450 c-724 -76 -1301 -664 -1370 -1397 -60 -643 297 -1267 881
-1540 232 -108 435 -149 706 -140 255 8 434 53 649 162 245 125 439 297 587
520 176 265 258 539 258 860 0 361 -108 672 -331 955 -227 288 -549 485 -915
559 -116 24 -341 34 -465 21z m421 -330 c137 -29 195 -52 198 -77 2 -14 -3
-23 -17 -28 -11 -3 -23 -15 -26 -26 -4 -10 -12 -19 -20 -19 -8 0 -17 -9 -20
-20 -7 -21 -30 -27 -40 -10 -3 6 1 13 9 16 29 11 17 21 -49 42 -80 27 -98 21
-155 -47 -24 -28 -58 -60 -76 -71 -53 -30 -37 -90 20 -76 19 5 29 0 45 -22 16
-22 23 -25 38 -16 10 6 18 17 19 25 0 8 2 32 3 54 1 40 33 96 47 82 4 -4 2
-18 -4 -32 -10 -21 -9 -28 8 -45 22 -22 40 -26 40 -10 0 6 8 10 17 10 14 0 13
-3 -5 -16 -12 -8 -22 -21 -22 -28 0 -8 -7 -16 -15 -20 -8 -3 -12 -12 -9 -20 9
-22 -30 -37 -89 -34 -46 3 -52 6 -52 25 0 11 -3 25 -7 29 -5 4 -8 -7 -8 -24 0
-27 -6 -34 -34 -46 -18 -7 -52 -27 -75 -44 -23 -17 -55 -34 -72 -37 -33 -7
-36 -17 -13 -35 9 -8 14 -25 12 -44 -3 -33 -10 -35 -97 -25 -32 4 -36 1 -45
-31 -6 -19 -14 -40 -19 -47 -10 -15 2 -44 28 -65 36 -29 117 -1 135 48 5 13
21 29 34 34 14 5 30 19 36 30 7 14 17 19 27 16 9 -4 30 -1 49 6 32 11 35 10
90 -37 31 -27 59 -57 62 -67 2 -10 9 -15 14 -12 5 3 7 12 4 20 -3 7 -1 16 5
19 5 4 -9 20 -31 36 -39 29 -58 54 -48 65 11 11 107 -59 118 -86 14 -33 48
-46 57 -22 14 38 50 43 59 8 3 -14 15 -32 25 -42 23 -21 107 -29 126 -12 19
15 31 1 38 -48 11 -65 -8 -77 -114 -71 -47 3 -100 9 -117 12 -28 6 -34 4 -46
-21 -17 -38 -36 -40 -80 -10 -20 13 -52 30 -72 37 -32 12 -36 17 -31 37 3 13
1 30 -6 38 -14 17 -88 18 -179 2 -36 -6 -84 -11 -107 -12 -52 -1 -105 -39
-131 -93 -11 -24 -27 -40 -47 -46 -63 -20 -148 -130 -138 -180 3 -16 -2 -56
-11 -91 -17 -62 -17 -62 9 -141 31 -97 95 -171 155 -180 19 -3 60 -11 91 -16
50 -10 63 -9 119 12 l63 23 26 -32 c19 -24 31 -30 47 -26 37 10 64 -12 64 -52
0 -19 -5 -45 -11 -56 -9 -17 -5 -26 29 -62 48 -49 57 -68 67 -124 5 -33 3 -47
-9 -61 -9 -10 -19 -34 -23 -54 -4 -30 0 -42 31 -83 26 -33 35 -55 32 -70 -4
-13 5 -38 22 -65 15 -24 32 -53 38 -64 10 -17 21 -20 74 -18 77 4 135 28 186
81 101 103 114 120 114 141 0 23 28 55 92 103 42 32 48 62 36 172 -9 72 -8 74
23 127 18 30 50 75 71 100 20 26 46 62 57 80 35 60 75 209 56 209 -3 0 -28
-11 -56 -25 -51 -26 -89 -26 -89 0 0 8 -24 33 -54 55 -47 35 -86 88 -86 117 0
4 -23 42 -50 83 -31 45 -46 76 -39 79 13 4 108 -97 109 -117 0 -7 20 -34 43
-60 38 -40 76 -112 61 -112 -3 0 2 -8 11 -17 15 -14 20 -15 39 -3 40 25 106
84 106 96 0 6 9 19 20 29 35 32 55 78 55 129 0 47 -1 50 -32 58 -25 6 -39 4
-58 -8 -25 -16 -27 -16 -51 7 -42 39 -66 78 -60 96 6 14 12 11 41 -17 29 -28
38 -32 68 -26 21 4 38 2 42 -4 10 -16 36 -12 90 15 61 30 75 31 107 6 43 -35
63 -145 63 -356 0 -115 -5 -202 -14 -240 -111 -494 -450 -844 -937 -967 -78
-20 -113 -23 -284 -22 -180 1 -203 3 -295 28 -203 55 -389 157 -532 290 -55
51 -75 77 -84 109 -10 37 -9 42 13 59 12 9 32 18 42 18 18 0 19 6 13 88 -5 81
-4 89 19 117 37 46 31 78 -26 149 -27 34 -63 69 -79 79 -17 10 -32 26 -36 36
-3 11 -17 26 -30 35 -18 12 -25 25 -25 49 0 32 -32 93 -89 167 -28 36 -51 100
-51 141 0 12 -11 35 -26 50 l-25 26 15 64 c30 131 89 270 163 387 48 76 135
182 149 182 6 0 17 7 24 15 7 8 28 15 46 15 22 0 34 5 34 13 0 25 48 58 75 51
42 -10 71 3 85 38 7 18 24 45 38 60 13 14 21 31 18 37 -8 13 31 39 72 47 18 4
35 11 38 15 3 5 15 9 26 9 12 0 29 6 37 14 19 16 76 36 102 36 34 0 9 -28 -44
-49 -71 -29 -128 -102 -102 -129 2 -2 23 9 47 24 42 27 71 35 188 54 93 14
114 24 259 123 29 19 57 18 201 -13z m270 -527 c0 -11 18 -27 42 -39 23 -12
44 -26 46 -33 6 -19 -39 -29 -81 -18 -28 7 -45 7 -58 -1 -26 -17 -69 -15 -75
3 -7 17 13 82 27 91 6 3 21 -4 35 -17 13 -12 25 -19 25 -16 1 4 3 12 4 17 1 6
3 15 4 20 2 18 31 11 31 -7z"/>
<path d="M1816 2801 c-14 -15 -15 -24 -6 -40 7 -15 8 -27 0 -40 -19 -36 -12
-49 25 -49 49 0 63 20 36 54 -12 15 -21 39 -21 55 0 36 -13 43 -34 20z"/>
<path d="M1744 2735 c-9 -14 -14 -28 -10 -32 11 -11 53 15 59 36 8 31 -28 28
-49 -4z"/>
<path d="M2082 2388 c7 -19 38 -22 38 -4 0 10 -9 16 -21 16 -12 0 -19 -5 -17
-12z"/>
</g>
</svg>
