<?xml version="1.0" standalone="no"?>
<!DOCTYPE svg PUBLIC "-//W3C//DTD SVG 20010904//EN"
 "http://www.w3.org/TR/2001/REC-SVG-20010904/DTD/svg10.dtd">
<svg version="1.0" xmlns="http://www.w3.org/2000/svg"
 width="384.000000pt" height="384.000000pt" viewBox="0 0 384.000000 384.000000"
 preserveAspectRatio="xMidYMid meet">
<metadata>
Created by potrace 1.16, written by Peter Selinger 2001-2019
</metadata>
<g transform="translate(0.000000,384.000000) scale(0.100000,-0.100000)"
fill="#000000" stroke="none">
<path d="M222 2918 l3 -293 132 -3 c115 -2 132 -5 136 -20 3 -9 5 -273 6 -587
0 -313 0 -580 1 -592 l0 -23 273 -2 272 -3 3 -132 3 -133 -413 -2 -413 -3 -3
-232 -2 -233 1690 0 1690 0 0 390 c0 215 -3 390 -7 390 -5 -1 -28 -26 -53 -57
-78 -97 -206 -179 -355 -225 -65 -20 -95 -22 -432 -26 l-363 -4 0 746 0 746
334 0 c251 0 355 -4 419 -15 174 -30 283 -82 384 -181 l73 -71 0 428 0 429
-1690 0 -1690 0 2 -292z m1886 -430 l-3 -133 -257 -3 -257 -2 -3 -38 c-2 -20
-2 -94 0 -164 l3 -128 237 -2 237 -3 3 -132 3 -133 -235 0 c-130 0 -237 -4
-240 -9 -5 -8 -9 -175 -7 -303 l1 -38 275 0 275 0 0 -135 0 -135 -445 0 -445
0 0 745 0 745 430 0 431 0 -3 -132z"/>
<path d="M2727 2338 c-4 -11 -3 -908 1 -932 1 -5 68 -6 150 -4 170 6 224 22
313 92 124 98 190 297 161 483 -31 195 -145 319 -331 359 -85 18 -287 19 -294
2z"/>
</g>
</svg>
