<?xml version="1.0" standalone="no"?>
<!DOCTYPE svg PUBLIC "-//W3C//DTD SVG 20010904//EN"
 "http://www.w3.org/TR/2001/REC-SVG-20010904/DTD/svg10.dtd">
<svg version="1.0" xmlns="http://www.w3.org/2000/svg"
 width="384.000000pt" height="384.000000pt" viewBox="0 0 384.000000 384.000000"
 preserveAspectRatio="xMidYMid meet">
<metadata>
Created by potrace 1.16, written by Peter Selinger 2001-2019
</metadata>
<g transform="translate(0.000000,384.000000) scale(0.100000,-0.100000)"
fill="#000000" stroke="none">
<path d="M1860 3404 c-84 -69 -254 -181 -343 -226 -174 -87 -367 -132 -627
-146 l-135 -7 0 -785 c0 -720 1 -791 18 -859 62 -255 213 -429 567 -653 172
-108 581 -358 587 -358 8 0 497 300 613 375 216 141 353 263 436 386 48 73 66
111 97 209 21 63 21 87 25 876 l3 811 -138 6 c-229 11 -369 38 -529 102 -141
57 -274 138 -417 252 -43 35 -83 63 -90 63 -6 -1 -37 -21 -67 -46z m153 -388
c149 -99 319 -176 482 -221 69 -19 266 -55 300 -55 3 0 5 -276 5 -612 0 -669
-3 -700 -57 -800 -38 -70 -138 -169 -258 -255 -113 -80 -539 -343 -557 -343
-14 0 -59 26 -288 168 -391 242 -507 349 -563 515 -21 60 -21 83 -25 690 l-3
627 23 9 c13 4 52 11 88 15 208 23 468 122 680 260 47 31 87 56 88 56 2 0 41
-24 85 -54z"/>
<path d="M2100 2124 c-162 -162 -303 -300 -314 -306 -16 -9 -37 8 -150 121
l-131 131 -93 -93 c-50 -51 -92 -99 -92 -107 0 -17 440 -460 456 -460 5 0 191
182 414 405 l405 405 -100 100 -100 100 -295 -296z"/>
</g>
</svg>
