<?xml version="1.0" standalone="no"?>
<!DOCTYPE svg PUBLIC "-//W3C//DTD SVG 20010904//EN"
 "http://www.w3.org/TR/2001/REC-SVG-20010904/DTD/svg10.dtd">
<svg version="1.0" xmlns="http://www.w3.org/2000/svg"
 width="384.000000pt" height="384.000000pt" viewBox="0 0 384.000000 384.000000"
 preserveAspectRatio="xMidYMid meet">
<metadata>
Created by potrace 1.16, written by Peter Selinger 2001-2019
</metadata>
<g transform="translate(0.000000,384.000000) scale(0.100000,-0.100000)"
fill="#000000" stroke="none">
<path d="M1595 3425 c-291 -67 -530 -195 -738 -394 -228 -218 -376 -490 -447
-821 -33 -152 -33 -417 -1 -579 28 -145 97 -351 116 -351 4 0 246 139 254 146
2 2 -9 36 -23 76 -49 131 -68 247 -67 413 0 267 59 464 206 692 163 250 457
455 745 518 41 9 89 20 105 24 l30 7 3 147 3 147 -43 -1 c-24 0 -88 -11 -143
-24z"/>
<path d="M2080 3302 l0 -149 70 -12 c38 -7 118 -29 178 -50 419 -143 726 -491
817 -926 46 -217 22 -510 -56 -692 l-18 -43 37 -23 c59 -37 219 -127 225 -127
10 0 69 164 92 257 39 155 48 257 42 440 -6 184 -20 263 -73 422 -155 466
-508 823 -970 980 -96 33 -267 71 -315 71 l-29 0 0 -148z"/>
<path d="M1763 2865 c-218 -39 -397 -137 -549 -298 -172 -183 -257 -397 -258
-652 0 -240 87 -466 246 -639 143 -155 302 -248 508 -298 122 -29 318 -28 443
2 174 42 342 136 467 260 343 344 375 888 74 1269 -218 276 -590 418 -931 356z
m104 -576 c109 -67 230 -141 268 -165 39 -24 132 -80 207 -126 76 -46 138 -87
138 -93 0 -5 -85 -61 -188 -124 -103 -63 -285 -174 -404 -248 -119 -73 -222
-133 -228 -133 -7 0 -10 161 -10 505 0 308 4 505 9 505 6 0 99 -55 208 -121z"/>
<path d="M803 1095 c-68 -38 -123 -75 -123 -82 0 -20 119 -161 195 -229 39
-36 109 -92 154 -125 600 -428 1421 -373 1954 131 104 98 202 214 193 228 -7
12 -232 142 -245 142 -5 0 -56 -47 -111 -104 -428 -440 -1076 -509 -1589 -169
-51 34 -131 102 -196 168 l-110 111 -122 -71z"/>
</g>
</svg>
