<svg xmlns="http://www.w3.org/2000/svg" viewBox="0 0 384 384">
<path d="M 122.3,17.5 c -1.7,0.7 -3.6,2.2 -4.2,3.4 -0.7,1.2 -1.1,11.1 -1.1,27.4 l 0,25.5 -5.2,3.3 c -2.9,1.9 -8.8,6.2 -13.1,9.6 -4.3,3.5 -8.2,6.3 -8.7,6.3 -0.6,0 -5.2,-2.5 -10.3,-5.5 -5.9,-3.6 -10.1,-5.5 -11.7,-5.3 -2.1,0.3 -5.4,5.2 -22.2,33.2 -10.9,18 -19.8,33.8 -19.8,35.1 0,2.7 1.4,4 11.8,10.1 4.5,2.7 8.2,5.6 8.2,6.4 0,0.8 -0.9,6.6 -2,12.9 -9.9,56.7 15.7,115.6 64.8,149 14.5,9.8 36.7,18.9 55.7,22.7 12.6,2.5 42.4,2.5 55,0 62.7,-12.6 109.8,-60.7 120.5,-123.1 2.6,-15.5 2.7,-33.5 0,-48.6 -1.1,-6.3 -2,-12.1 -2,-12.9 0,-0.8 3.7,-3.7 8.3,-6.4 10.3,-6.1 11.7,-7.4 11.7,-10.1 0,-1.3 -8.9,-17.1 -19.7,-35.1 -16.9,-28 -20.2,-32.9 -22.3,-33.2 -1.6,-0.2 -5.8,1.7 -11.7,5.3 -5.1,3 -9.7,5.5 -10.3,5.5 -0.6,0 -3.9,-2.3 -7.3,-5.2 -3.4,-2.8 -9.2,-7.1 -12.9,-9.5 l -6.8,-4.4 0,-25.5 c 0,-16.4 -0.4,-26.3 -1.1,-27.6 -2.5,-4.7 -3.4,-4.8 -74.1,-4.8 -54.1,0.1 -66.9,0.3 -69.5,1.5 z m 126.5,31.7 c 0.2,11.9 0,14.8 -1.1,14.8 -0.7,0 -4.5,-1.1 -8.4,-2.4 -15.4,-5.4 -26.2,-7 -47.3,-7 -21.1,0 -31.9,1.6 -47.3,7 -3.9,1.3 -7.6,2.4 -8.4,2.4 -1,0 -1.3,-3.1 -1.3,-14.3 0,-7.9 0.3,-14.7 0.7,-15 0.3,-0.4 25.9,-0.6 56.7,-0.5 l 56.1,0.3 0.3,14.7 z m -34.6,24.7 c 28.9,5 49.9,15.9 70.9,37 26.1,26.1 38.9,56.5 38.9,92.5 0,37.1 -13.8,69.8 -40.1,95.1 -11.5,11.1 -20.1,17.3 -32.7,23.5 -20.6,10.2 -35,13.5 -59.2,13.5 -24.2,0 -38.6,-3.3 -59.2,-13.5 -12.6,-6.2 -21.2,-12.4 -32.7,-23.5 -15.8,-15.2 -27.2,-33.4 -33.9,-54 -10.4,-31.7 -7.6,-69.7 7,-99 12.7,-25.3 37.5,-49.6 62.2,-61 24.4,-11.3 52.5,-15.1 78.8,-10.6 z m -137.6,22.2 c 2.9,1.6 5.6,3.3 5.8,3.7 0.2,0.4 -1.8,3.4 -4.5,6.7 -10.9,13.1 -19,26.6 -24.9,41.2 -1.9,4.6 -3.8,8.3 -4.3,8.3 -1.6,0 -11.7,-6.4 -11.7,-7.5 0,-1.5 32.4,-55.4 33.4,-55.5 0.5,0 3.3,1.4 6.2,3.1 z m 254.2,24.2 c 8.9,15 16.2,27.7 16.2,28.2 0,1.1 -10.1,7.5 -11.7,7.5 -0.5,0 -2.4,-3.7 -4.3,-8.3 -5.8,-14.5 -13.2,-26.7 -24.1,-40.2 -2.7,-3.3 -4.9,-6.5 -5,-7 -0.2,-1 9.9,-7.5 11.6,-7.5 0.6,0 8.3,12.3 17.3,27.3 z"/>
<path d="M 189.6,78.3 c -1.3,1 -1.9,3.1 -2.2,7.8 -0.6,7.7 0.9,11.4 4.6,11.4 3.7,0 5.2,-3.7 4.6,-11.4 -0.3,-4.7 -0.9,-6.8 -2.2,-7.8 -1,-0.7 -2.1,-1.3 -2.4,-1.3 -0.3,0 -1.4,0.6 -2.4,1.3 z"/>
<path d="M 188.4,115 c -5.4,2.2 -5.4,2 -5.4,48.7 l 0,43.2 2.4,2.8 2.4,2.8 32.8,0.3 c 24,0.2 33.6,0 35.7,-0.9 5.7,-2.4 6.9,-11.1 1.9,-14.9 -2.3,-1.9 -4.1,-2 -29.8,-2 l -27.4,0 0,-37.4 c 0,-37.5 0,-37.5 -2.2,-40 -2.5,-2.9 -7.2,-4 -10.4,-2.6 z"/>
<path d="M 68.4,200 c -2.7,1 -3.4,2.9 -2.3,5.7 0.8,2.1 1.4,2.3 9.2,2.3 8.9,0 10.7,-0.8 10.7,-4.7 0,-1.6 -0.8,-2.7 -2.6,-3.3 -3.1,-1.2 -12.1,-1.2 -15,0 z"/>
<path d="M 300.3,200 c -2.6,1.1 -3.1,5.1 -0.9,6.9 0.9,0.8 4.4,1.1 9.6,0.9 7.4,-0.3 8.4,-0.5 9.1,-2.5 1.4,-3.9 -1.1,-5.7 -8.7,-6 -3.8,-0.2 -7.9,0.2 -9.1,0.7 z"/>
<path d="M 189.5,310.4 c -2.2,1.6 -3.2,10.3 -1.8,15.6 0.8,3.1 1.3,3.5 4.3,3.5 3,0 3.5,-0.4 4.3,-3.5 1.4,-5.3 0.4,-14 -1.8,-15.6 -1.1,-0.8 -2.2,-1.4 -2.5,-1.4 -0.3,0 -1.4,0.6 -2.5,1.4 z"/>
</svg>
