<svg xmlns="http://www.w3.org/2000/svg" viewBox="0 0 384 384">
<path d="M 284,12 c -1.1,1.1 -2,2.6 -2,3.3 0,0.6 -11,12.2 -24.5,25.7 l -24.6,24.5 -17.4,-17.7 c -9.6,-9.8 -17.5,-18.4 -17.5,-19.1 0,-2.3 -3.5,-4.7 -6.7,-4.7 -6.3,0 -8.8,8.2 -3.6,11.7 1.5,1 8.9,7.9 16.5,15.3 l 13.9,13.5 -84.8,0.5 -84.8,0.5 -5.5,2.6 c -9.7,4.7 -15.8,12.1 -18.5,22.5 -1.4,5.4 -1.5,16.4 -1.3,88.1 l 0.3,81.8 3.3,6.7 c 3.9,8 10.2,13.9 17.9,16.8 5.3,2 6.8,2 117,1.8 l 111.6,-0.3 1.5,-4.4 c 1,-2.9 3.6,-6.6 7.3,-10.5 3.3,-3.3 5.9,-6.1 5.9,-6.3 0,-0.2 -54.4,-0.3 -121,-0.3 l -121,0 0,-88.5 0,-88.5 132,0 132,0 0,84.6 0,84.5 2.3,-0.8 c 1.2,-0.4 6.4,-0.8 11.5,-0.8 l 9.2,0 0,-79 c 0,-68.1 -0.2,-79.9 -1.5,-85 -2.6,-10.1 -8.9,-17.6 -18.5,-22.3 l -5.5,-2.7 -29.9,-0.3 -30,-0.3 20.5,-20.5 c 11.2,-11.2 21,-20.4 21.7,-20.4 2.2,0 6.2,-4.8 6.2,-7.5 0,-3.4 -3.3,-6.5 -7,-6.5 -1.7,0 -3.9,0.9 -5,2 z"/>
<path d="M 73.1,99 c -5.4,1.3 -11.3,6.1 -14,11.5 l -2.6,4.9 0,60.6 c 0,60.1 0,60.5 2.2,64.5 1.1,2.2 3.4,5.2 5,6.7 6.3,6 2.6,5.8 92.3,5.8 89,0 85,0.2 91.9,-5.6 7.3,-6.1 7.1,-3.8 7.1,-71.7 0,-57.8 -0.1,-61 -1.9,-64.5 -2.4,-4.8 -6.2,-8.5 -10.9,-10.9 -3.5,-1.7 -8.2,-1.8 -84.7,-2 -44.5,0 -82.5,0.2 -84.4,0.7 z m 167.9,11.5 c 5,4.4 5,4.5 5,66.3 l 0,57.9 -2.3,3.4 c -4.5,6.7 0,6.4 -87.3,6.7 -87,0.3 -85,0.4 -89.1,-5.7 l -2.3,-3.4 0,-59.4 c 0,-49.6 0.2,-59.9 1.4,-62.2 1.9,-3.6 3.9,-5.2 7.7,-6 1.6,-0.3 39.4,-0.4 83.8,-0.1 79.1,0.5 80.9,0.5 83.1,2.5 z"/>
<path d="M 196.9,128.9 c -8.3,3.5 -18.8,10.8 -20,14 -1.1,2.8 1.2,7.1 3.8,7.1 0.9,0 4,-1.8 6.9,-4 10.1,-7.6 21.1,-11.3 25.2,-8.4 4.8,3.4 2.3,13.3 -6.7,26.1 -3.4,4.7 -4.2,6.7 -3.7,8.6 0.7,2.8 3.5,4.2 6.4,3.3 3.9,-1.3 12.9,-15.5 15.6,-24.8 2.2,-7.5 2,-11.5 -0.7,-16.3 -5.1,-8.9 -14.2,-10.9 -26.8,-5.6 z"/>
<path d="M 161.2,129.7 c -1.7,0.7 -4.2,5.7 -4.2,8.5 0,5.6 6.3,9.2 11.9,6.8 2.7,-1.1 5.1,-4.6 5.1,-7.5 0,-5.9 -7,-10.1 -12.8,-7.8 z"/>
<path d="M 227.5,147.8 c -0.6,0.4 -1.1,5.2 -1.1,11.7 0,9.9 -0.2,11.6 -2.7,17 -3.7,8 -11.6,16 -19.7,19.9 -6,2.9 -7.3,3.1 -17.4,3.1 -9.2,0 -11.1,0.3 -12,1.8 -0.8,1.3 -0.6,2.1 1.2,3.9 1.7,1.8 3.6,2.3 9,2.6 27.1,1.6 50.2,-20 50.2,-46.9 0,-10.7 -3.2,-16.2 -7.5,-13.1 z"/>
<path d="M 167.1,152 c -2.2,2.2 -5.8,8 -8.2,12.7 -3.9,7.9 -4.3,9.4 -4.4,16.3 0,8.9 1.6,11.8 8.3,15.1 3.6,1.8 5.4,2.1 10.4,1.5 7.1,-0.7 12.1,-2.8 21.5,-8.9 8.1,-5.4 10.2,-8.3 8.1,-11.6 -2.3,-3.7 -4.6,-3.6 -10.6,0.8 -7.3,5.3 -11.5,7.5 -17.5,9.1 -12.8,3.5 -14,-7.4 -2.7,-24.4 5.4,-8 6,-10.4 3.2,-12.9 -2.7,-2.5 -3.8,-2.1 -8.1,2.3 z"/>
<path d="M 106.2,189.2 c 0.2,3.9 0.7,5.3 1.8,5.3 1.1,0 1.6,-1.4 1.8,-5.3 0.3,-4.7 0.1,-5.2 -1.8,-5.2 -1.9,0 -2.1,0.5 -1.8,5.2 z"/>
<path d="M 94.1,186.9 c -2,1.3 2.1,10.3 4.3,9.5 0.9,-0.3 1.6,-0.8 1.6,-0.9 0,-0.7 -3.9,-9.5 -4.2,-9.5 -0.2,0 -0.9,0.4 -1.7,0.9 z"/>
<path d="M 117.9,190.7 c -1.6,3.7 -1.7,4.8 -0.7,5.5 2,1.2 2.2,1.1 4.1,-3.5 2.1,-5.1 2.1,-5.3 0.2,-6.1 -1.2,-0.4 -2.1,0.7 -3.6,4.1 z"/>
<path d="M 82.4,195.1 c -0.6,1.1 5.2,7.9 6.8,7.9 2.3,0 1.8,-3.4 -0.8,-6.1 -2.9,-3 -4.8,-3.6 -6,-1.8 z"/>
<path d="M 127.6,196.9 c -2.6,2.7 -3.1,6.1 -0.8,6.1 1.6,0 7.4,-6.8 6.8,-7.9 -1.2,-1.8 -3.1,-1.2 -6,1.8 z"/>
<path d="M 75,206.5 c 0,1.4 5.9,4.5 8.6,4.5 2.8,0 1.3,-3 -2.2,-4.5 -4.6,-1.9 -6.4,-1.9 -6.4,0 z"/>
<path d="M 134.3,206.6 c -3.3,1.4 -4.6,4.4 -1.9,4.4 2.7,0 8.6,-3.1 8.6,-4.5 0,-1.8 -2.4,-1.8 -6.7,0.1 z"/>
<path d="M 113.5,215 c -2.2,1.6 -4.7,2.9 -5.6,3 -1.7,0 -4.9,3 -4.9,4.7 0,0.5 0.9,1.8 1.9,2.7 3.7,3.3 5.1,2.1 13.1,-11.7 1.5,-2.4 0.1,-2.1 -4.5,1.3 z"/>
<path d="M 172.5,214.5 c -3.2,3.1 -3.2,6.9 0,10 l 2.4,2.5 27.6,0 27.6,0 2.4,-2.5 c 3.2,-3.1 3.2,-6.9 0,-10 l -2.4,-2.5 -27.6,0 -27.6,0 -2.4,2.5 z"/>
<path d="M 277.5,99.5 c -11.4,4 -14.9,17.8 -6.6,26.5 4.6,4.8 10.1,6.6 15.8,5.1 8,-2.2 12.5,-8 12.5,-16.1 0,-7.7 -3.7,-13 -10.9,-15.6 -4.8,-1.7 -5.8,-1.6 -10.8,0.1 z"/>
<path d="M 268.3,144.4 c -2.4,2.1 -2.6,2.7 -1.8,5.2 1.4,3.9 5.7,5.4 8.5,2.9 5.7,-5.1 -0.9,-13.1 -6.7,-8.1 z"/>
<path d="M 290.4,144.5 c -2.9,2.9 -3,4.9 -0.4,7.5 2.7,2.7 5.5,2.5 7.9,-0.6 4.3,-5.5 -2.5,-11.9 -7.5,-6.9 z"/>
<path d="M 267.5,167 c -4.1,4.6 2.9,11.6 7.5,7.5 2.2,-2 2.7,-6.4 0.8,-8.3 -1.9,-1.9 -6.3,-1.4 -8.3,0.8 z"/>
<path d="M 289.5,167.4 c -2,2.9 -1.3,6.1 1.7,7.7 2.8,1.5 6.3,0.4 7.5,-2.4 2.8,-6 -5.6,-10.8 -9.2,-5.3 z"/>
<path d="M 267.3,189.6 c -1.5,2.4 -1.5,2.9 -0.2,5.3 2.9,5.1 9.9,3.2 9.9,-2.8 0,-3.4 -1.7,-5.1 -5.2,-5.1 -1.9,0 -3.3,0.8 -4.5,2.6 z"/>
<path d="M 289.4,189.5 c -1.3,2.1 -1.5,3.1 -0.6,5 2.1,4.5 9.3,4.2 10.5,-0.4 1.5,-5.9 -6.5,-9.7 -9.9,-4.6 z"/>
<path d="M 271.2,210.6 c -4.3,3 -5.2,6.4 -5.2,20.6 0,19.4 1.9,21.8 17.1,21.8 14.7,0 16.4,-2.3 16.4,-22 0,-15.1 -0.8,-18.1 -5.7,-20.6 -3.9,-2 -19.6,-1.9 -22.6,0.2 z"/>
<path d="M 318.2,267.5 c -9.7,2.1 -15,5.2 -22.8,12.9 -7.6,7.6 -10.6,13.4 -12.6,24.8 -2.3,12.9 3.6,29.4 13.8,38.8 10,9.1 19.6,12.5 33.5,11.8 7.5,-0.4 9.7,-0.9 16.1,-4 12.1,-6.1 20.1,-15.4 24,-28.2 5.6,-18.3 -2.2,-39.2 -18.6,-49.8 -10.1,-6.5 -22.3,-8.8 -33.4,-6.3 z m 23.8,11.1 c 7,3.1 15,11.1 18.3,18.1 1.8,3.9 2.2,6.6 2.2,14.8 0,9 -0.3,10.5 -2.8,15.3 -4,7.5 -9.7,13.3 -16.4,16.8 -5.3,2.7 -6.7,2.9 -16.3,2.9 -9.1,0 -11.1,-0.3 -15,-2.4 -7,-3.7 -10.5,-6.8 -14.4,-12.4 -13.6,-20.1 -4.8,-46.4 18.3,-54.5 8.5,-3 17.4,-2.5 26.1,1.4 z"/>
<path d="M 322.7,287.8 c -2.3,2.5 -2.1,7.5 0.3,9.7 4.3,3.9 11,0.9 11,-5.1 0,-5.6 -7.6,-8.7 -11.3,-4.6 z"/>
<path d="M 321,321 l 0,15.1 6.3,-0.3 6.2,-0.3 0.3,-14.8 0.3,-14.7 -6.6,0 -6.5,0 0,15 z"/>
<path d="M 33.5,299.2 c -1.1,0.6 -2.3,1.6 -2.7,2.2 -1,1.5 -1,53.8 0,55.3 1.3,2 6.1,3.3 12.3,3.3 l 5.9,0 0,3.5 0,3.5 14,0 14,0 0,-3.5 0,-3.5 64.5,0 64.5,0 0,3.5 0,3.5 13.5,0 13.5,0 0,-3.4 0,-3.4 8.1,-0.4 c 12.4,-0.5 11.9,0.7 11.9,-30.8 0,-23.9 -0.1,-26 -1.9,-28.1 l -1.9,-2.4 -106.9,-0.2 c -78.6,-0.2 -107.3,0 -108.8,0.9 z m 215.3,3 c 0.9,0.9 1.2,8.3 1.2,27 0,24.4 -0.1,25.8 -1.9,26.8 -3,1.6 -212.3,1.4 -213.9,-0.2 -1.7,-1.7 -1.7,-51.9 0,-53.6 1.7,-1.7 212.9,-1.7 214.6,0 z m -174.8,59.8 c 0,1.9 -0.7,2 -11,2 -10.3,0 -11,-0.1 -11,-2 0,-1.9 0.7,-2 11,-2 10.3,0 11,0.1 11,2 z m 157,0 c 0,1.9 -0.7,2 -11,2 -10.3,0 -11,-0.1 -11,-2 0,-1.9 0.7,-2 11,-2 10.3,0 11,0.1 11,2 z"/>
<path d="M 51.5,316.5 c -2.3,2.2 -2.5,3.1 -2.5,12.5 0,9.4 0.2,10.3 2.5,12.5 l 2.4,2.5 44.6,0 c 53.5,0 48.5,1.5 48.5,-15 0,-16.5 5,-15 -48.5,-15 l -44.6,0 -2.4,2.5 z m 92.3,11.9 c 0.2,8.1 -0.1,11.2 -1,11.8 -2.2,1.3 -88.2,1 -89.6,-0.4 -1.6,-1.6 -1.6,-20 0,-21.6 0.9,-0.9 12,-1.2 45.8,-1 l 44.5,0.3 0.3,10.9 z"/>
<path d="M 120.6,325.1 c -2.6,1.7 -4.5,3.3 -4.2,3.6 0.2,0.2 2.3,-0.8 4.6,-2.3 3.4,-2.3 4.6,-2.6 6.8,-1.8 1.7,0.6 2.6,1.6 2.4,2.7 -0.2,0.9 0.1,1.7 0.7,1.7 1.1,0 0.9,-1.9 -0.3,-3.9 -0.7,-1.1 -0.5,-1.3 1,-0.8 1.8,0.7 1.8,0.7 0,-0.8 -3,-2.3 -5.8,-1.8 -11,1.6 z"/>
<path d="M 58.3,323.7 c -0.8,0.3 -1.3,2.4 -1.3,5.3 0,5.1 1.6,6.9 4.7,5.1 0.9,-0.4 2.4,-0.6 3.4,-0.4 1.2,0.4 1.9,0 1.9,-0.9 0,-0.8 1.1,-2 2.5,-2.6 2.3,-1.1 2.5,-1 2.5,1.2 0,2.1 0.6,2.4 4.1,2.8 3.4,0.3 4.3,0 4.9,-1.7 0.7,-1.5 0.9,-1.6 0.9,-0.4 0.1,1.8 2.5,3.2 3.5,2.2 0.3,-0.4 0.6,-1.5 0.6,-2.5 0,-1.2 0.7,-1.8 2.4,-1.8 1.9,0 2.3,0.4 1.9,2 -0.6,2.2 2.1,2.9 3.1,0.7 0.5,-1 0.7,-1 1.2,0 0.9,1.9 3.4,1.6 3.4,-0.5 0,-0.9 -0.5,-3.4 -1.1,-5.5 -1.2,-4.3 -3.4,-4.9 -5.1,-1.2 -1.4,3.1 -5.8,3.5 -5.8,0.6 0,-2.3 -1.6,-3.6 -2.5,-2.1 -0.4,0.6 -1.2,0.7 -1.8,0.3 -1.7,-1.1 -16,-1.2 -17.4,-0.1 -0.7,0.5 -1.4,0.5 -1.8,-0.2 -0.6,-1.1 -2.1,-1.2 -4.2,-0.3 z m 19.7,2.8 c 0,0.8 -0.7,1.5 -1.5,1.5 -0.8,0 -1.5,-0.7 -1.5,-1.5 0,-0.8 0.7,-1.5 1.5,-1.5 0.8,0 1.5,0.7 1.5,1.5 z m 0,4.5 c 0,1.1 -0.7,2 -1.5,2 -0.8,0 -1.5,-0.9 -1.5,-2 0,-1.1 0.7,-2 1.5,-2 0.8,0 1.5,0.9 1.5,2 z"/>
<path d="M 99.4,324.5 c 0.3,0.9 0.6,3.4 0.6,5.6 0,3.2 0.3,3.9 2,3.9 1.7,0 2,-0.7 2,-4.5 0,-2.5 0.4,-4.5 0.9,-4.5 0.5,0 1.2,2 1.5,4.5 0.6,3.8 1.1,4.5 3,4.5 2,0 2.5,-0.7 3.3,-5 1,-4.9 0.4,-6.8 -1.7,-5.5 -0.5,0.3 -1,1.6 -1.1,2.8 -0.1,2 -0.2,2 -0.8,-0.3 -0.6,-2.2 -1.3,-2.5 -5.5,-2.8 -4.2,-0.3 -4.8,-0.1 -4.2,1.3 z"/>
<path d="M 124.7,326.7 c -0.4,0.3 -0.7,1.3 -0.7,2.2 0.1,1.3 0.3,1.3 1.1,-0.2 1.1,-1.9 0.8,-3.3 -0.4,-2 z"/>
<path d="M 126.4,329.5 c -0.8,3.1 -0.2,3.9 2.4,3.1 1.7,-0.6 1.8,-1 0.8,-3.1 -1.4,-3.2 -2.4,-3.2 -3.2,0 z"/>
<path d="M 134.5,331.6 c -3.1,1.9 -4.9,2.4 -8,2.1 l -4,-0.5 2.9,1.3 c 3.5,1.5 6.6,0.6 11.1,-3 3.8,-3.2 3.1,-3.1 -2,0.1 z"/>
<path d="M 179.4,321 c -5.4,2.1 -7,9.1 -3.1,13.4 3.4,4 7.7,4.3 11.5,1.1 4.5,-3.8 4.5,-9.2 0.1,-12.9 -3.2,-2.7 -5,-3 -8.5,-1.6 z m 6.8,3.7 c 3.6,3.2 1.2,10.3 -3.5,10.3 -4.9,0 -7.5,-6.4 -4,-10.2 2,-2.2 5.1,-2.3 7.5,-0.1 z"/>
<path d="M 200.4,321 c -5.4,2.1 -7,9.1 -3.1,13.4 3.4,4 7.7,4.3 11.5,1.1 4.5,-3.8 4.5,-9.2 0.1,-12.9 -3.2,-2.7 -5,-3 -8.5,-1.6 z m 6.8,3.7 c 3.6,3.2 1.2,10.3 -3.5,10.3 -4.9,0 -7.5,-6.4 -4,-10.2 2,-2.2 5.1,-2.3 7.5,-0.1 z"/>
<path d="M 221.4,321 c -5.4,2.1 -7,9.1 -3.1,13.4 3.4,4 7.7,4.3 11.5,1.1 4.5,-3.8 4.5,-9.2 0.1,-12.9 -3.2,-2.7 -5,-3 -8.5,-1.6 z m 7,3.6 c 3.4,3.3 0.8,10.4 -3.7,10.4 -2.7,0 -5.7,-2.8 -5.7,-5.4 0,-5.4 5.9,-8.5 9.4,-5 z"/>
</svg>
