<svg xmlns="http://www.w3.org/2000/svg" viewBox="0 0 384 384">
<path d="M 105,35.5 c -35.8,9.4 -61.8,35.7 -71,71.7 -2.8,10.8 -2.8,34.3 0,45.1 4.5,17.6 11.9,31.2 24.3,44.3 14.2,15 31,24.6 50.5,28.6 13.8,2.8 34,2.2 46.5,-1.6 27.8,-8.3 49.6,-27 61.7,-53 6.6,-14 8.4,-22.8 8.4,-40.6 0,-16.7 -1.1,-23.3 -6,-35.9 -9.2,-23.3 -29.9,-44.5 -52.8,-54 -13,-5.4 -17.8,-6.3 -35.6,-6.7 -15.1,-0.4 -17.3,-0.2 -26,2.1 z m 5.2,33.8 c 7.5,3.4 11.9,7.6 15.8,14.9 3,5.5 3.4,7.2 3.4,14.3 0.1,6.8 -0.3,8.8 -2.7,13.6 -3,6.3 -9.2,12.6 -15.9,16.1 -3.5,1.9 -5.9,2.3 -12.8,2.3 -7.3,0 -9.3,-0.4 -14.1,-2.8 -14.2,-6.9 -21.7,-22.7 -17.5,-36.9 5.7,-19.7 26.1,-29.7 43.8,-21.5 z"/>
<path d="M 233.9,179.1 c -0.7,1.8 -3.4,6.7 -5.9,10.9 l -4.7,7.8 42.6,42.8 c 55.5,55.8 58.1,58.5 58.1,62.2 0,6.7 -7.2,12.4 -13.7,10.8 -1.9,-0.5 -18.4,-16.3 -51.8,-49.7 -27,-26.9 -49.4,-48.9 -49.8,-48.9 -0.4,0 -3.5,2.2 -6.7,5 -6.8,5.6 -16.9,11.7 -27.7,16.7 l -7.3,3.4 0,10.3 c 0,5.8 0.3,11.2 0.6,12.1 1.4,3.6 5.7,4.5 21.4,4.5 l 15,0 0,13.7 c 0,15.4 1,20.7 4.3,22.5 1.4,0.8 7.9,1.4 17.3,1.6 l 15.1,0.4 0.7,7.6 c 0.3,4.1 0.6,11.2 0.6,15.7 0,12.9 0,12.9 20.1,13.3 l 16.3,0.3 4.4,4 c 2.5,2.1 6.1,4.3 8.1,4.9 4.9,1.3 32.7,1.3 39.3,-0.1 15.9,-3.4 19.8,-9.9 20.6,-34.6 0.2,-8.4 0.1,-17.8 -0.3,-21 l -0.7,-5.8 -56.6,-56.8 c -31.2,-31.2 -57,-56.7 -57.3,-56.7 -0.4,0 -1.2,1.4 -2,3.1 z"/>
<path d="M 112.5,238.4 c -6.7,2.1 -10,4.3 -14.8,9.6 -5.6,6.3 -7.7,12.1 -7.7,22 0,6.7 -0.3,7.9 -2.3,9.8 l -2.3,2.2 -10.2,-10.3 c -8.5,-8.5 -10.2,-10.8 -10.2,-13.3 0,-2.7 -0.6,-3.3 -7,-6.4 l -7,-3.4 -3,2.9 c -1.6,1.6 -3,3.5 -3,4.2 0,0.8 1.4,4 3,7.3 2.6,5.1 3.4,6 5.8,6 2.1,0 5,2.2 13.2,10.5 l 10.5,10.5 -15.2,15.3 c -9.7,9.7 -15.8,16.6 -16.8,19.1 -4.6,11.1 5.2,22.9 17.4,21.1 4.3,-0.6 5.6,-1.7 20.8,-16.8 l 16.3,-16.1 4,3.9 c 2.8,2.7 4,4.7 4,6.8 0,1.5 0.6,4 1.4,5.5 2.1,4 13.6,14.9 17.1,16.2 6,2.3 12,-0.8 14.5,-7.4 1.8,-4.7 -0.3,-8.6 -9.4,-17.4 -7.6,-7.4 -8.7,-8.2 -12.3,-8.2 -3.1,0 -4.6,-0.7 -7.1,-3.3 -3.7,-3.8 -3.9,-4.8 -1.4,-7 1.2,-1.1 3.8,-1.5 9.2,-1.5 12.2,0.1 21,-4.3 27.4,-13.6 4.3,-6.2 6.7,-15.5 4.7,-18 -2.4,-2.8 -5.8,-1.8 -11.5,3.3 -8.6,7.8 -17,8.2 -23.8,1 -6.8,-7.2 -6.4,-15.3 1.3,-23.4 5,-5.3 6.1,-8.9 3.7,-11.3 -1.5,-1.5 -4.1,-1.4 -9.3,0.2 z m -47.5,86.6 c 2.4,2.4 2.6,5.3 0.4,7.4 -1.8,1.9 -6.5,2.1 -8.2,0.4 -2,-2 -1.4,-6.5 1,-8.2 3,-2.1 4.4,-2 6.8,0.4 z"/>
</svg>
