<svg xmlns="http://www.w3.org/2000/svg" viewBox="0 0 384 384">
<path d="M 223.3,93.6 c -0.3,0.9 -0.2,2.4 0.4,3.3 0.9,1.4 7.2,1.7 61.1,2.1 57.2,0.5 60.1,0.6 62.1,2.4 l 2.1,1.9 0,89.2 c 0,85.1 -0.1,89.3 -1.8,90.8 -1.7,1.5 -7.4,1.7 -61.9,1.7 -51.3,0 -60.2,0.2 -61.3,1.5 -1.4,1.7 -0.5,5.1 1.5,5.9 0.8,0.3 29.6,0.4 64,0.3 l 62.4,-0.2 2.3,-2.3 2.3,-2.3 0.3,-94.2 c 0.1,-51.8 0,-95.2 -0.3,-96.4 -1.3,-5.5 1.8,-5.3 -68.1,-5.3 -58.8,0 -64.5,0.1 -65.1,1.6 z"/>
<path d="M 30.7,106.4 c -1.6,1.5 -2.8,3.9 -3.2,6.8 -0.4,2.4 -0.3,39.9 0.2,83.2 l 0.8,78.9 2.5,1.8 c 2.3,1.6 8.7,1.8 98.5,2.4 93.8,0.7 96.1,0.7 98.4,-1.2 1.7,-1.4 2.2,-2.5 1.7,-4.1 l -0.7,-2.2 -36.8,0 c -20.2,0 -62.6,-0.3 -94.2,-0.7 l -57.4,-0.6 -2.7,-2.8 -2.8,-2.7 0,-74.4 c 0,-73.5 0,-74.4 2,-76.6 l 2.1,-2.2 93.5,0 c 62.6,0 94.2,-0.3 95.5,-1 2.1,-1.2 2.5,-4 0.7,-5.8 -0.9,-0.9 -24.1,-1.2 -98.4,-1.2 l -97.1,0 -2.6,2.4 z"/>
<path d="M 103.5,133.1 c -29,4.4 -44.6,25.8 -44.7,60.9 0,29.8 12,50.5 33.1,57.1 5.7,1.7 9.4,1.9 37.2,1.9 l 31,0 -0.3,-10.6 -0.3,-10.6 -19.5,0.1 c -10.7,0 -23.5,-0.3 -28.3,-0.8 -7.6,-0.7 -9.3,-1.2 -12.5,-3.8 -7.9,-6.3 -11.7,-18.2 -11.5,-35.8 0.1,-12.7 2.4,-21.6 7.3,-28.3 5.5,-7.7 5.8,-7.7 37.3,-7.4 l 27.8,0.4 -0.3,-11.7 -0.3,-11.6 -25,-0.4 c -13.7,-0.2 -27.7,0.1 -31,0.6 z"/>
<path d="M 175,192.5 l 0,60.5 16,0 16,0 -0.2,-60.3 -0.3,-60.2 -15.7,-0.3 -15.8,-0.3 0,60.6 z"/>
<path d="M 235.3,139.7 c -4.9,0.5 -9,4 -9.8,8.7 -0.3,1.7 -0.5,22.8 -0.3,46.8 l 0.3,43.8 2.8,2.7 2.7,2.8 47,0 47,0 2.7,-2.8 2.8,-2.7 0.3,-44.3 c 0.2,-29.3 0,-45.4 -0.7,-47.8 -0.6,-2.1 -2.3,-4.5 -3.9,-5.5 -2.5,-1.8 -5.5,-1.9 -44.7,-2 -23.1,-0.1 -43.9,0.1 -46.2,0.3 z m 87.9,7 c 1.7,1.5 1.8,4.2 1.8,45.3 0,43.1 0,43.7 -2.1,45.6 -2,1.8 -4.2,1.9 -44.9,1.9 -40.7,0 -42.9,-0.1 -44.9,-1.9 -2.1,-1.9 -2.1,-2.5 -2.1,-45.7 l 0,-43.8 2.2,-1.5 c 2,-1.4 7.9,-1.6 45.2,-1.6 38.6,0 43.1,0.2 44.8,1.7 z"/>
<path d="M 251.2,161 c -1.2,1.2 -2.2,2.5 -2.2,3 0,0.6 -1.3,1 -2.9,1 -1.6,0 -3.5,0.7 -4.2,1.6 -1.1,1.4 -1,1.8 0.6,3 1,0.8 2.7,1.4 3.6,1.4 1,0 3.1,1.3 4.7,3 4.1,4 8.3,4 12.3,0.1 l 3,-3 23.4,-0.3 c 24.3,-0.3 27.4,-0.8 24.5,-4.3 -1.1,-1.3 -4.8,-1.5 -24.5,-1.5 l -23.3,0 -3,-3 c -3.7,-3.6 -8.7,-4 -12,-1 z m 8.2,4.6 c 0.9,0.8 1.6,1.8 1.6,2.1 0,1 -3.2,4.3 -4.1,4.3 -1,0 -3.9,-2.9 -3.9,-4 0,-1.1 2.9,-4 4,-4 0.5,0 1.6,0.7 2.4,1.6 z"/>
<path d="M 292.4,186.5 l -3.3,3.5 -23.5,0 c -23.7,0 -26.2,0.4 -23.6,3.5 1,1.2 5.4,1.5 24.4,1.5 l 23.2,0 2.9,3 c 2.2,2.3 3.8,3 6.6,3 2.8,0 4.4,-0.7 6.6,-3 1.5,-1.7 3.8,-3 4.9,-3 2.5,0 4.9,-2.4 3.9,-4 -0.3,-0.5 -1.7,-1 -3.1,-1 -1.6,0 -3.8,-1.3 -5.8,-3.5 -2.5,-2.6 -4.2,-3.5 -6.6,-3.5 -2.4,0 -4.1,0.9 -6.6,3.5 z m 10.1,4.5 c 1.4,4.4 -4.4,6.9 -6.5,2.9 -0.9,-1.5 -0.8,-2.4 0.1,-3.5 1.8,-2.1 5.7,-1.8 6.4,0.6 z"/>
<path d="M 252.8,208.6 c -1.5,0.8 -3.2,2.3 -3.8,3.4 -0.7,1.3 -2.1,2 -3.9,2 -2.9,0 -4.2,1.4 -3.4,3.7 0.3,0.7 1.8,1.3 3.3,1.3 1.9,0 3.3,0.7 4,2.1 0.7,1.1 2.7,2.7 4.6,3.5 2.9,1.2 3.9,1.2 6.8,0 1.9,-0.8 3.9,-2.4 4.6,-3.5 1,-2 1.8,-2.1 24.9,-2.1 24.3,0 25.6,-0.2 24.4,-3.8 -0.4,-0.9 -6.1,-1.2 -24.3,-1.2 -23.2,0 -24,-0.1 -25,-2.1 -1,-1.8 -6.6,-5 -8.7,-4.9 -0.4,0.1 -2,0.7 -3.5,1.6 z m 7.3,6 c 1.7,2.1 0,4.9 -3.1,4.9 -3.1,0 -4.8,-2.8 -3.1,-4.9 0.8,-0.9 2.1,-1.6 3.1,-1.6 1,0 2.3,0.7 3.1,1.6 z"/>
</svg>
