<svg xmlns="http://www.w3.org/2000/svg" viewBox="0 0 384 384">
<path d="M 52.4,31.9 c -12,3.4 -21.4,11.3 -27,22.6 l -2.9,6 0,120.5 0,120.5 2.7,5.8 c 3.5,7.5 12.3,16.6 19.5,20.3 l 5.8,2.9 141.5,0 141.5,0 5.5,-2.7 c 7.7,-3.8 15.7,-11.9 19.4,-19.8 l 3.1,-6.5 0,-101 0,-101 -2.8,-5.7 c -4.2,-8.5 -11.6,-16.1 -19.5,-20 l -6.7,-3.3 -80.5,-0.6 c -44.3,-0.4 -81.7,-0.7 -83.2,-0.8 -2.3,-0.1 -2.8,-0.6 -3.3,-3.9 -2.3,-13.6 -11.2,-25.6 -22.7,-30.6 -3.5,-1.5 -7.1,-3.1 -8.1,-3.7 -1,-0.6 -16.6,-0.9 -39,-0.8 -31.9,0.1 -38.1,0.3 -43.3,1.8 z m 279.2,68.5 l 4.4,4.3 0,94.1 c 0,103 0.2,99.3 -5.8,103.7 -2.7,2 -4.3,2 -138.5,2 l -135.9,0 -3.3,-3.6 c -2.6,-2.9 -3.5,-4.9 -4,-9 -0.3,-3 -0.5,-46.5 -0.3,-96.6 l 0.3,-91.3 3.3,-3.2 c 3.1,-3.2 3.6,-3.3 13,-3.9 5.3,-0.3 66.6,-0.6 136.1,-0.7 l 126.4,-0.2 4.3,4.4 z"/>
<path d="M 177.5,124.9 c -10.1,6.3 -12,14.6 -5.9,26.9 2.4,4.8 3.3,7.7 2.7,8.3 -1.7,1.7 -13.2,2.9 -28.4,2.9 -20.3,0 -18.9,-2 -18.9,27.7 0,18.8 0.3,23.3 1.4,24.2 1.2,1 3.3,0.3 10.8,-3.4 8,-4 9.9,-4.6 14,-4.2 8.5,0.7 15.7,8.9 15.8,17.6 0,4.5 -3.5,11.6 -6.8,14 -7.6,5.4 -14.3,5 -24.2,-1.4 -3.4,-2.2 -6.5,-3.5 -8,-3.3 l -2.5,0.3 -0.3,20.2 c -0.2,19.2 -0.1,20.4 1.8,22.3 2,2 3.2,2 55.8,2 51.6,0 54,-0.1 55.6,-1.9 1.5,-1.6 1.8,-5 2.3,-23.4 0.3,-11.9 1,-22.2 1.4,-22.9 0.7,-1.1 1.3,-1 3.3,0.2 1.3,0.8 4.4,2.8 6.9,4.3 8.4,5.2 16.3,4.8 22.7,-0.9 6.8,-6.2 7.9,-15.9 2.6,-22.9 -7.1,-9.3 -16.1,-10.2 -27,-2.9 -5.4,3.6 -8.1,4.2 -8.9,2.1 -0.3,-0.8 -0.8,-10.9 -1.2,-22.5 -0.7,-18.8 -1,-21.3 -2.6,-22.8 -1.6,-1.4 -5.1,-1.9 -19.7,-2.5 -18.2,-0.7 -23.2,-1.7 -23.2,-4.4 0,-0.9 1.2,-3.9 2.6,-6.8 1.5,-2.8 3,-6.4 3.4,-7.9 1.1,-3.5 -0.5,-10.3 -3.2,-14.1 -4.3,-6.1 -16.1,-8.7 -22.3,-4.8 z"/>
</svg>
