<svg xmlns="http://www.w3.org/2000/svg" viewBox="0 0 384 384">
<path d="M 137.5,17.2 c -4.3,3.8 -3.7,7.6 2.4,14.9 6.1,7.2 7.5,9.8 10.8,19.3 6.6,19.2 2.4,41.8 -10.5,57.2 -6.7,8 -7.3,10.5 -3.4,14.4 5.4,5.3 9.9,3.7 17.6,-6.4 6.1,-8.1 9.3,-14.1 12.7,-24.1 2.1,-6.2 2.4,-8.8 2.4,-22 0,-13.2 -0.3,-15.8 -2.4,-22 -3.2,-9.3 -6.4,-15.7 -11.8,-23.3 -7,-9.9 -12.7,-12.4 -17.8,-8 z"/>
<path d="M 38.8,21.7 c -7.8,8.3 -14.6,21.1 -17.5,33.1 -2.2,9.2 -2.1,25.7 0.2,34.7 3.4,13.6 11,27.1 19.8,35.3 5.6,5.1 9.1,5.5 13.1,1.6 4.1,-4.2 3.5,-7.4 -2.9,-14.4 -5.6,-6.1 -9.9,-13.6 -13.1,-23 -1.5,-4.2 -1.9,-8.3 -1.9,-17.5 0,-10.5 0.4,-12.9 2.7,-19.4 1.5,-4.1 4.4,-9.9 6.5,-12.8 2.1,-2.9 4.8,-6.7 6.1,-8.4 2.9,-4.2 2.8,-6.5 -0.7,-10 -4.2,-4.1 -7.8,-3.9 -12.3,0.8 z"/>
<path d="M 120.1,33.7 c -3.3,2.8 -3.7,7.4 -0.9,10.9 4.3,5.2 8.7,13.3 9.9,18 2.4,9.4 -0.9,22 -8,30.8 -4,5 -4.6,7.6 -2.7,11.4 1.8,3.4 5.8,4.8 9.8,3.3 3.7,-1.4 9.1,-8.5 13.3,-17.2 8.2,-17.3 4.8,-40.1 -8.1,-53.9 -3.8,-4 -5.3,-5 -7.9,-5 -1.8,0 -4.2,0.8 -5.4,1.7 z"/>
<path d="M 60.4,35 c -4.8,1.9 -11.2,12.1 -14.4,22.8 -5.2,17.3 0.6,39.3 13.3,50.4 5.1,4.5 11.3,3.5 13.6,-2.1 1.4,-3.3 0.7,-5.5 -3.9,-10.7 -3.8,-4.3 -7.7,-12.9 -8.5,-18.7 -1.3,-8.6 0.2,-14.8 5.7,-23.9 5.9,-9.7 6.4,-13.1 2.4,-16.5 -2.8,-2.4 -4.7,-2.7 -8.2,-1.3 z"/>
<path d="M 93.6,72.1 l -2.6,2 -0.2,30.2 -0.3,30.1 -2.5,0.6 -2.5,0.6 -0.3,25.7 c -0.2,20.1 0,25.9 1,26.2 0.7,0.3 5.4,0.6 10.3,0.7 l 9,0.3 0.3,8.9 c 0.2,5 0.8,9.6 1.4,10.3 1.7,2 75.6,1.9 78.4,-0.2 1.6,-1.2 7.3,-1.4 33.2,-1.5 l 31.2,0 1,-2.6 c 0.6,-1.4 1,-7.2 1,-12.9 0,-8.3 0.3,-10.6 1.5,-11.3 1.3,-0.7 1.5,-3.2 1.3,-15.8 l -0.3,-14.9 -73.7,-0.3 -73.8,-0.2 0,-5.5 c 0,-4.3 -0.4,-5.9 -2,-7.2 -1.9,-1.7 -2,-3 -2,-31.3 0,-16.2 -0.4,-30 -0.8,-30.7 -0.4,-0.6 -1.9,-1.6 -3.4,-2.2 -2.2,-0.8 -3.1,-0.6 -5.2,1 z"/>
<path d="M 206.2,226.3 l -2.2,2.3 0,58.1 c 0,57.7 0,58 2.1,59.9 2,1.8 4.4,1.9 33.8,2.4 l 31.6,0.5 0.2,9.5 c 0.4,14.6 0.1,14 8.3,14 l 7,0 0,-10.8 c 0,-7.1 0.4,-11.2 1.2,-12 0.9,-0.9 9.2,-1.2 31.1,-1.2 29.4,0 32.9,-0.3 34.9,-3.4 0.4,-0.6 0.8,-27.5 0.8,-59.7 0,-55.5 -0.1,-58.7 -1.8,-60.2 -1.7,-1.6 -8.2,-1.7 -73.4,-1.7 l -71.5,0 -2.1,2.3 z"/>
</svg>
