<svg xmlns="http://www.w3.org/2000/svg" viewBox="0 0 384 384">
<path d="M 88.8,60.4 c -5.7,2 -8.5,4.2 -11.6,8.8 l -2.7,4.2 0,85.1 0,85.1 2.8,4.2 c 1.5,2.3 4.6,5.4 7,6.9 l 4.2,2.8 33.8,0.5 33.9,0.5 -0.2,20 c 0,10.9 -0.2,20 -0.4,20.2 -0.1,0.2 -7.4,0.4 -16.2,0.6 -15.2,0.2 -16.1,0.4 -19.9,2.8 -2.2,1.5 -4.8,3.5 -5.7,4.6 -2.7,3 -5,9.3 -4.4,11.9 l 0.6,2.4 87.8,0 c 64.7,0 88.1,-0.3 88.9,-1.1 2.6,-2.6 -1.9,-12.8 -7.5,-16.8 -4.3,-3 -11.3,-4.2 -24.2,-4 l -11.5,0.1 0,-20.3 0,-20.4 29.5,-0.5 c 32.1,-0.5 32.6,-0.6 38.1,-6.7 5.5,-6.1 6.2,-8.1 6.3,-18.7 0.1,-11.4 0.5,-11 -7.9,-7.9 l -5,1.9 -0.3,6.6 -0.3,6.5 -103.7,-0.4 c -57,-0.2 -104.5,-0.5 -105.5,-0.7 -1.6,-0.4 -1.7,-4.8 -1.5,-80.3 l 0.3,-79.8 61,-0.3 61,-0.2 7.2,-7.2 7.3,-7.2 5.8,5.7 5.7,5.7 8,-3.5 8,-3.4 0,-4.3 0,-4.3 -82.5,-0.2 c -66.8,-0.2 -83.2,0 -86.2,1.1 z"/>
<path d="M 304.4,62.3 c -0.8,2.3 -0.1,4.9 1.6,5.8 4.2,2.1 8.5,3.7 8.9,3.3 0.7,-0.7 -3.1,-5.4 -6.7,-8.2 -2.7,-2.1 -3.3,-2.2 -3.8,-0.9 z"/>
<path d="M 265.7,62.6 c -0.4,0.4 -0.7,3.1 -0.7,6 l 0,5.2 -5.2,1.7 c -2.9,0.9 -8.6,3.3 -12.6,5.3 l -7.2,3.6 -4.8,-4.7 c -2.6,-2.6 -5.2,-4.7 -5.8,-4.7 -1.5,0 -20.4,19.4 -20.4,21 0,0.8 2,3.5 4.4,6 l 4.5,4.5 -3.9,7.9 c -2.1,4.4 -4.4,10.1 -5,12.8 l -1.2,4.8 -6.9,0 -6.9,0 0,16 0,16 6.8,0 6.9,0 1.3,4.2 c 0.7,2.4 3.1,7.9 5.2,12.2 l 3.9,8 -4.8,4.8 -4.8,4.8 11.3,11.2 11.2,11.3 4.8,-4.8 4.8,-4.8 8.6,4.1 c 4.7,2.2 9.4,4 10.5,4 3.7,0 5.2,2.2 5.5,8 l 0.3,5.5 15.5,0 15.5,0 0.3,-5.7 0.3,-5.7 5.2,-1.6 c 6.6,-2.1 9,-3.1 15,-6.2 l 4.9,-2.5 4.2,4.1 c 2.3,2.2 4.6,4.1 5.2,4.1 0.5,0 5.6,-4.7 11.4,-10.5 l 10.4,-10.5 -4.4,-4.5 -4.4,-4.5 1.9,-3.3 c 3.7,-6.3 5.8,-11.2 7.6,-17.4 l 1.2,-4.2 6.6,-0.3 6.6,-0.3 0,-15.5 0,-15.5 -6.4,-0.5 -6.3,-0.5 -2.7,-8 c -1.5,-4.4 -4,-10.2 -5.5,-12.9 l -2.8,-4.8 4.8,-4.9 4.8,-4.9 -10.4,-10.5 c -5.8,-5.8 -10.9,-10.5 -11.4,-10.5 -0.6,0 -3.1,2 -5.6,4.5 l -4.5,4.4 -7.6,-3.8 c -4.2,-2.1 -9.9,-4.4 -12.7,-5.1 l -5.1,-1.4 -0.3,-5.5 -0.3,-5.6 -15.1,-0.3 c -8.2,-0.1 -15.3,0.1 -15.7,0.4 z m 24.9,32.4 c 3.2,0.6 6.8,1.5 7.9,1.9 11.1,4.6 13.6,6.2 20.1,12.6 9.1,8.9 14,18.2 15.7,29.6 6.2,42.7 -37,74.2 -76.3,55.6 -9.4,-4.5 -21.6,-16.9 -25.1,-25.7 -4.4,-10.8 -5.5,-18.7 -4.1,-28.8 4.3,-30 32.1,-50.4 61.8,-45.2 z"/>
<path d="M 272,108.4 c -7.8,1.8 -11.8,3.7 -17.2,8.5 -10.2,9.1 -14.3,18.9 -13.6,32.8 0.5,10.9 3.8,18.3 11.5,25.9 6.3,6.3 13.6,10 22.9,11.5 6,1.1 8,1 14,-0.5 9.3,-2.3 15.6,-6 21.3,-12.2 5.9,-6.4 9,-12.8 10.3,-21.2 3.3,-21 -11.1,-41.2 -32.1,-45.2 -6.7,-1.2 -10.1,-1.2 -17.1,0.4 z m 21.7,15.2 c 16.4,7.8 19.7,30.1 6.4,43 -5.2,5.1 -11.1,7.4 -19,7.4 -11.2,-0.1 -20.8,-6.3 -25.1,-16.2 -3,-7 -2.4,-17.6 1.3,-23.5 8.2,-13 22.6,-17.2 36.4,-10.7 z"/>
<path d="M 275.5,134.4 c -5.1,2.2 -8.5,7.1 -8.5,12.2 0,9.1 5.3,14.4 14.3,14.4 4.5,0 6.1,-0.5 8.7,-2.6 6.2,-5.3 7.6,-11.9 3.8,-17.9 -4.3,-6.5 -11.7,-9 -18.3,-6.1 z"/>
</svg>
