<svg xmlns="http://www.w3.org/2000/svg" viewBox="0 0 384 384">
<path d="M 262.2,32.8 c -6.3,1.9 -13.2,11.3 -13.2,18.1 l 0,3.1 -11.7,0 c -13.6,0.1 -15,0.7 -16.1,7.1 -0.7,3.8 -1.1,4.4 -3.5,4.7 -2.7,0.3 -2.8,0.5 -2.5,5.5 l 0.3,5.2 5.8,0.3 5.7,0.3 0,44.1 c 0,42.3 0.1,44.3 2,48.2 4.1,8.4 2.5,8.1 46,8.4 21.2,0.2 40,0 41.7,-0.3 4.5,-0.8 9.8,-6.5 11.2,-12 0.7,-2.9 1.1,-19 1.1,-46.4 l 0,-42 5.3,-0.3 5.2,-0.3 0.3,-5.2 c 0.3,-5 0.2,-5.2 -2.5,-5.5 -2.5,-0.3 -2.9,-0.8 -3.4,-4.7 -0.8,-6.5 -2.3,-7.1 -16.1,-7.1 l -11.8,0 0,-3.5 c 0,-6.6 -6,-15.1 -12.3,-17.4 -3,-1.2 -27.7,-1.3 -31.5,-0.3 z m 27.1,11.4 c 3.1,1.6 4.6,3.9 4.7,7 l 0,2.8 -16.5,0 -16.5,0 0,-2.9 c 0,-2 0.9,-3.7 3.1,-5.5 2.8,-2.4 3.8,-2.6 13,-2.6 5.7,0 11,0.5 12.2,1.2 z m 27.7,76.4 c 0,40.4 -0.1,43.8 -1.7,45 -1.4,1.1 -9.4,1.3 -37.7,1.4 -32.1,0 -36.1,-0.2 -37.8,-1.7 -1.7,-1.5 -1.8,-4.2 -1.8,-45 l 0,-43.3 39.5,0 39.5,0 0,43.6 z"/>
<path d="M 249.7,88.7 c -0.4,0.3 -0.7,15.6 -0.7,34 l 0,33.3 6,0 6,0 0,-34 0,-34 -5.3,0 c -3,0 -5.7,0.3 -6,0.7 z"/>
<path d="M 272.7,88.7 c -0.4,0.3 -0.7,15.6 -0.7,34 l 0,33.3 5.5,0 5.5,0 0,-34 0,-34 -4.8,0 c -2.7,0 -5.2,0.3 -5.5,0.7 z"/>
<path d="M 294.5,89.3 c -0.3,0.7 -0.4,15.8 -0.3,33.7 l 0.3,32.5 5.8,0.3 5.7,0.3 0,-34.1 0,-34 -5.5,0 c -3.6,0 -5.7,0.5 -6,1.3 z"/>
<path d="M 22,154 c -2,2 -2,3.3 -2,108.5 0,104.7 0,106.5 2,108.5 1.1,1.1 3,2.2 4.2,2.5 1.3,0.3 40.2,0.4 86.5,0.3 l 84.2,-0.3 2.3,-2.3 2.3,-2.3 0.3,-40 0.3,-40.1 21,-21.1 c 11.6,-11.6 21.7,-22 22.4,-23.1 1.9,-2.9 3,-11.2 1.6,-12 -0.6,-0.4 -3.4,-0.4 -6.3,0 -5.2,0.7 -5.5,0.8 -22,17.2 l -16.7,16.6 -0.3,-55.1 c -0.3,-52.6 -0.4,-55.2 -2.2,-57.2 l -1.9,-2.1 -86.9,0 c -85.5,0 -86.8,0 -88.8,2 z m 164,70.8 l 0,57.7 -10.6,10.5 c -10.5,10.5 -13.4,14.3 -13.4,17.8 0,1 -1.4,3.1 -3,4.7 -3.8,3.6 -4,7.2 -0.4,8.1 2.1,0.5 3.3,0 6.3,-3 2.1,-2 4.2,-3.6 4.7,-3.5 2.8,0.5 4.7,-0.6 9.7,-5.6 3,-3 5.8,-5.5 6.1,-5.5 0.3,0 0.6,11.7 0.6,26 l 0,26 -75.2,-0.2 -75.3,-0.3 -0.3,-94 c -0.1,-51.7 0,-94.6 0.3,-95.3 0.3,-0.9 16.4,-1.2 75.5,-1.2 l 75,0 0,57.8 z"/>
<path d="M 52.8,193.1 c -2.1,1.2 -2.3,4.2 -0.4,5.8 0.9,0.8 17.3,1 59.2,0.9 l 57.9,-0.3 0.3,-2.3 c 0.8,-5.4 2.5,-5.2 -58.7,-5.2 -36.6,0.1 -57.2,0.4 -58.3,1.1 z"/>
<path d="M 53.3,215 c -2.6,1 -3,4.2 -0.9,5.9 0.9,0.8 17.3,1 59.2,0.9 l 57.9,-0.3 0.3,-2.7 c 0.3,-2.2 -0.2,-3 -2.3,-3.8 -3.3,-1.3 -111.1,-1.2 -114.2,0 z"/>
<path d="M 51.7,237.7 c -1.6,1.6 -0.6,5.3 1.6,5.8 1.2,0.3 27.8,0.4 59.2,0.3 l 57,-0.3 0,-3 0,-3 -58.6,-0.3 c -32.2,-0.1 -58.9,0.1 -59.2,0.5 z"/>
<path d="M 53.3,259.2 c -3.2,1.5 -3,5.2 0.2,6.6 3.4,1.6 111.7,1.7 114.6,0.2 1.1,-0.6 1.9,-2.1 1.9,-3.5 0,-1.4 -0.8,-2.9 -1.9,-3.5 -2.8,-1.4 -111.8,-1.3 -114.8,0.2 z"/>
<path d="M 52.2,281.9 c -0.8,0.4 -1.2,1.9 -1,3.2 l 0.3,2.4 26.5,0 26.5,0 0,-3 0,-3 -25.5,-0.2 c -14,-0.2 -26.1,0.1 -26.8,0.6 z"/>
<path d="M 129.7,325.7 c -1.1,1.1 -0.8,4.8 0.5,6.1 1.5,1.5 20.1,1.6 22.9,0.2 2.1,-1.2 2.5,-4 0.7,-5.8 -1.3,-1.3 -22.9,-1.8 -24.1,-0.5 z"/>
<path d="M 228.4,267.1 c -17.9,17.9 -19.6,20.1 -17.2,22.6 1,1 2.5,1.3 4,1 2.5,-0.7 35.8,-33.7 35.8,-35.5 0,-1.6 -2.9,-4.2 -4.8,-4.2 -0.8,0 -8.9,7.2 -17.8,16.1 z"/>
</svg>
