<svg xmlns="http://www.w3.org/2000/svg" viewBox="0 0 384 384">
<path d="M 17.5,68.8 c -0.2,0.2 -0.1,1 0.2,1.8 0.3,0.8 0.1,1.4 -0.3,1.4 -1,0 -0.8,191.4 0.1,196.8 0.3,1.8 1,3 1.5,2.7 0.4,-0.3 1.5,0.2 2.4,1 1.3,1.3 20.7,1.5 168.7,1.5 154.4,0 167.3,-0.1 168.4,-1.6 0.7,-1 1.7,-1.4 2.3,-1 0.8,0.5 1,0.2 0.6,-0.8 -0.4,-0.9 0.1,-1.8 1,-2.2 1.5,-0.6 1.6,-9.5 1.6,-97.6 l 0,-96.9 -2.3,-2.4 -2.2,-2.5 -170.9,-0.2 c -93.9,-0.2 -170.9,-0.1 -171.1,0 z m 329,13.1 c 0.3,0.5 0.5,40.5 0.5,88.7 0,69.7 -0.2,87.9 -1.2,88.6 -0.7,0.4 -71.1,0.8 -156.5,0.8 l -155.2,0 -2.1,-2.2 c -2,-2.2 -2,-3 -2,-87.7 0,-78.1 0.1,-85.6 1.7,-87.3 1.5,-1.7 7.8,-1.8 157.9,-1.8 95.4,0 156.5,0.4 156.9,0.9 z"/>
<path d="M 286.6,93.9 c -0.3,0.4 -2.6,1.1 -5.1,1.3 -2.7,0.3 -5.9,1.6 -7.9,3.2 -1.9,1.4 -3.9,2.6 -4.3,2.6 -1.2,0 -10.2,9.2 -11.8,12.1 -5.8,10.1 -6,11 -6,23.4 0,11.7 0.1,12.2 3.4,19 2,4 5.6,9.2 8.5,12.1 5.1,5 14.6,10.4 18.5,10.4 1.1,0 2.3,0.4 2.6,1 0.3,0.6 4.8,1 10,1 5.2,0 9.7,-0.4 10,-1 0.3,-0.6 1.4,-1 2.3,-1 0.9,0 3,-0.7 4.6,-1.5 1.5,-0.8 3.5,-1.5 4.3,-1.5 0.8,0 4.9,-3.5 9.2,-7.8 5.6,-5.5 8.1,-8.8 8.6,-11.3 0.4,-1.9 1.2,-4 1.9,-4.8 0.7,-0.9 1.1,-6.1 1.1,-14 0,-12.4 -0.1,-12.8 -3.4,-19.6 -2,-4 -5.6,-9.2 -8.5,-12.1 -5.6,-5.5 -14.7,-10.4 -19.5,-10.4 -1.6,0 -3.3,-0.5 -3.6,-1 -0.8,-1.2 -14.2,-1.3 -14.9,-0.1 z m 13.8,18 c 2.3,2.4 2.7,3.5 2.1,5.9 -0.9,4.3 -2.8,5.6 -7.6,4.9 -5.1,-0.7 -6,-1.5 -6.1,-5.6 -0.1,-3.7 3.5,-8.1 6.7,-8.1 1.2,0 3.4,1.3 4.9,2.9 z m 1.1,34.1 l 0,15.5 -6,0 -6,0 -0.3,-13.3 -0.3,-13.2 -3.4,0 c -2.7,0 -3.5,-0.4 -3.5,-1.8 0,-3 1,-3.3 10.5,-3 l 9,0.3 0,15.5 z"/>
<path d="M 175.7,276.7 c -0.4,0.3 -0.7,1.5 -0.7,2.5 0,1 -0.4,1.8 -0.9,1.8 -0.6,0 -0.7,1.6 -0.4,3.5 0.3,2 0.1,4.1 -0.6,4.9 -0.6,0.7 -1,2.4 -0.9,3.7 0.3,2.3 0.1,2.4 -5,2.1 -3.2,-0.3 -5.9,0.1 -6.7,0.8 -1,0.8 -3.5,1.1 -7,0.8 -3,-0.3 -5.6,-0.1 -5.7,0.4 -0.2,0.5 -2.1,0.9 -4.3,1 -2.2,0 -4.4,0.4 -5,0.8 -0.5,0.4 -3,1.1 -5.5,1.5 -2.5,0.4 -5.4,1.4 -6.5,2.1 -2.4,1.7 -3.8,1.8 -2.9,0.1 0.4,-0.6 0.3,-0.9 -0.1,-0.5 -0.5,0.5 -0.9,1.9 -1.1,3.2 -0.3,2.6 1.8,5 5.4,6 1.2,0.4 2.2,1.2 2.2,1.7 0,1.5 -2.7,2.1 -4.7,1 -2.8,-1.4 -5.2,0.3 -3.7,2.6 0.6,1 1.7,1.8 2.5,1.8 2,0.1 10.2,2.6 11.4,3.5 0.6,0.4 2.8,0.8 5,0.8 2.2,0.1 4.1,0.5 4.3,1 0.1,0.5 2.5,0.7 5.2,0.4 2.8,-0.2 5.6,0 6.2,0.5 0.7,0.5 7.8,1.1 15.7,1.2 8.9,0.1 15,0.7 16.2,1.4 1.5,0.9 2.3,0.9 3.8,0 1.3,-0.8 7.1,-1.3 16.3,-1.4 7.9,-0.1 14.9,-0.6 15.6,-1.2 0.6,-0.5 3.4,-0.7 6.2,-0.5 2.7,0.3 5.1,0.1 5.2,-0.3 0.2,-0.5 1.8,-0.9 3.6,-1.1 1.9,-0.1 3.5,-0.5 3.8,-0.9 0.2,-0.4 2.6,-1 5.3,-1.4 3.3,-0.4 5.7,-1.5 7.2,-3.1 3,-3.2 1.4,-5 -2.7,-3 -1.6,0.8 -4,1.7 -5.4,1.9 -1.4,0.2 -3.3,0.7 -4.3,1.2 -1,0.4 -3.1,0.5 -4.7,0.2 -1.6,-0.4 -3,-0.2 -3.2,0.4 -0.2,0.5 -3.2,1 -6.8,1 -3.5,0 -6.9,0.4 -7.5,0.7 -1.4,0.9 -61.5,1 -61.5,0.1 0,-1.5 13.2,-2.1 35.8,-1.7 12.8,0.1 23.3,0 23.5,-0.4 0.1,-0.4 3.1,-0.8 6.7,-0.9 3.6,-0.1 7.1,-0.6 7.7,-1.1 0.7,-0.6 2.8,-0.8 4.8,-0.6 1.9,0.2 3.6,0 3.8,-0.5 0.1,-0.5 1.5,-1 3,-1 1.5,0 3,-0.3 3.3,-0.8 0.3,-0.5 1.3,-0.9 2.3,-0.9 2.4,0 7.1,-3.7 7.1,-5.6 0,-0.8 -2.1,-2.4 -4.7,-3.7 -2.7,-1.2 -4.9,-2.5 -5.1,-2.8 -0.2,-0.4 -1.2,-0.5 -2.3,-0.2 -1,0.3 -2.5,0.1 -3.2,-0.4 -0.6,-0.6 -3,-1.1 -5.2,-1.1 -2.2,-0.1 -4.1,-0.5 -4.3,-1 -0.1,-0.4 -2.9,-0.6 -6.2,-0.4 -3.8,0.3 -6.5,0 -7.5,-0.8 -0.8,-0.6 -3.3,-1 -5.7,-0.8 -2.4,0.1 -4.3,-0.1 -4.3,-0.5 0,-0.4 -0.6,-1.1 -1.3,-1.6 -0.7,-0.4 -1.3,-2.7 -1.4,-5 0,-2.3 -0.4,-4.4 -0.9,-4.7 -0.5,-0.3 -0.9,-2.1 -0.9,-4 l 0,-3.4 -13.8,0 c -7.6,0 -14.2,0.3 -14.5,0.7 z m -40.1,38.8 c -0.9,0.7 -2.6,1 -3.8,0.7 -1.9,-0.5 -2,-0.6 -0.4,-1.7 0.9,-0.7 2.6,-1 3.8,-0.7 1.9,0.5 2,0.6 0.4,1.7 z m 9.4,0.4 c 0,1.1 -2.5,2.1 -5.6,2.1 -2.5,0 -3.3,-1.5 -1.1,-2.3 2.1,-0.9 6.7,-0.7 6.7,0.2 z m 13.3,2.1 c -0.8,0.9 -5.8,1.4 -10.7,1.1 -3.5,-0.1 -2.4,-1.8 1.4,-2.3 3.9,-0.5 10.3,0.3 9.3,1.2 z"/>
</svg>
