<svg xmlns="http://www.w3.org/2000/svg" viewBox="0 0 384 384">
<path d="M 50.9,57.3 c -1.8,1.2 -3.9,3.4 -4.6,4.7 -1,1.9 -1.3,20.3 -1.3,81.5 0,76.4 0.1,79.1 1.9,81.9 3.7,5.6 3.2,5.5 48.2,5.6 l 41.7,0 0.4,-6 c 0.7,-9.3 -0.6,-8.9 33.6,-9 27.9,0 29.3,0.1 31.2,2 1.5,1.5 2,3.3 2,7.5 l 0,5.5 42.1,0 c 40.3,0 42.2,-0.1 44.9,-2 5.6,-4 5.5,-1.8 5.5,-86.5 0,-73.5 -0.1,-78.2 -1.8,-81.3 -3.6,-6.5 3.1,-6.2 -124.5,-6.2 l -115.9,0 -3.4,2.3 z m 230.3,17.5 l 2.3,2.3 0.3,56.2 c 0.2,38.1 -0.1,57 -0.8,58.7 -0.6,1.5 -2.4,3.4 -3.9,4.3 -2.7,1.6 -11.2,1.7 -109.1,1.7 l -106.2,0 -3.4,-3.4 -3.4,-3.4 0,-55.6 c 0,-37.5 0.3,-56.3 1.1,-57.9 0.6,-1.3 2.3,-3.1 3.7,-4 2.5,-1.5 11.3,-1.6 109.9,-1.4 l 107.2,0.2 2.3,2.3 z m -203.6,135.5 c 2,1.7 2.7,3.3 2.7,5.7 0,3.7 -3.9,8 -7.3,8 -3.4,0 -6.8,-2.2 -8,-5.1 -3.3,-7.9 6,-14.2 12.6,-8.6 z m 146.5,4 c -0.6,0.8 -0.8,1.7 -0.4,2 0.3,0.4 0.2,0.7 -0.4,0.7 -1.5,0 -2.2,-1.1 -1.6,-2.6 0.3,-0.8 1.2,-1.4 2,-1.4 1.2,0 1.3,0.3 0.4,1.3 z m 55.6,0.3 c 0.3,0.8 0.1,2 -0.4,2.5 -0.7,0.7 -1.2,0.2 -1.5,-1.5 -0.6,-2.8 0.9,-3.6 1.9,-1 z m -15.4,4.1 c -7.2,0.2 -19.4,0.2 -27,0 -7.6,-0.1 -1.6,-0.3 13.2,-0.3 14.9,0 21.1,0.2 13.8,0.3 z"/>
<path d="M 69,213 c -1.1,1.1 -2,2.4 -2,3 0,1.2 3.7,5 4.8,5 1.8,0 5.2,-3.3 5.2,-5 0,-2.2 -2.6,-5 -4.6,-5 -0.8,0 -2.3,0.9 -3.4,2 z"/>
<path d="M 19,117.2 c 0,0.2 -0.2,28.9 -0.3,63.8 -0.1,45.7 -0.5,64.2 -1.4,66 -0.6,1.4 -1.7,4.7 -2.4,7.4 -0.8,3.2 -2.7,6.6 -5.6,9.8 -3.2,3.7 -4.3,5.7 -4.3,8.2 0,4.7 3.7,6.1 15.6,6 11.1,-0.2 15,-1.7 14.6,-5.6 -0.3,-2.4 0,-2.7 5,-3.7 13.7,-2.7 11.3,-3.5 25,8.1 14.2,12 34.4,28.9 47.3,39.8 13.3,11.1 12.1,10.7 27.2,7.7 19.2,-3.9 50.6,-10.4 61.3,-12.7 5.2,-1.1 14.9,-3.2 21.5,-4.5 15.8,-3.2 49.1,-10.1 79.5,-16.4 13.5,-2.9 29.9,-6.3 36.5,-7.6 17.7,-3.6 30.8,-6.5 32.7,-7.1 1.4,-0.4 1.8,-1.6 1.8,-5.2 0,-2.6 -0.4,-5.3 -0.8,-6 -0.5,-0.7 -11.2,-6.5 -23.8,-12.9 -12.6,-6.3 -28.5,-14.4 -35.4,-17.9 -6.9,-3.5 -13.2,-6.4 -14.1,-6.4 -1.5,0 -3.8,2 -5.2,4.6 -0.4,0.7 6.5,4.7 18.1,10.4 20.2,10.1 26.2,13.5 26.2,14.9 0,2.2 -3.1,3.8 -9.6,4.9 -3.8,0.7 -9.8,1.9 -13.4,2.7 -3.6,0.7 -10.3,2.1 -15,3 -4.7,0.9 -10.4,2.1 -12.7,2.6 -2.3,0.5 -4.6,0.8 -5,0.7 -0.5,0 -1.5,0.1 -2.3,0.5 -1.4,0.5 -7,1.6 -11.5,2.2 -1.1,0.1 -2.7,0.5 -3.5,0.8 -1.2,0.5 -5,1.1 -12.5,2.2 -0.5,0.1 -1.7,0.4 -2.5,0.7 -1.2,0.5 -4.8,1.2 -12.5,2.3 -0.5,0.1 -1.7,0.4 -2.5,0.7 -1.2,0.5 -4.8,1.2 -12.5,2.3 -0.5,0.1 -1.7,0.4 -2.5,0.7 -1.2,0.5 -4.8,1.2 -12.5,2.3 -0.5,0.1 -1.7,0.4 -2.5,0.7 -3,1.1 -13.3,2.7 -14.1,2.2 -0.5,-0.3 -0.9,-0.1 -0.9,0.4 0,0.8 -6.9,2.2 -12.7,2.6 -1.3,0 -2.3,0.4 -2.3,0.7 0,0.6 -7.9,2 -12.7,2.3 -1.3,0 -2.3,0.4 -2.3,0.7 0,0.6 -7.9,2 -12.7,2.3 -1.3,0 -2.3,0.4 -2.3,0.8 0,1 -14.2,2 -17.2,1.1 -1.5,-0.4 -6.7,-3.9 -11.5,-7.8 -13.7,-10.9 -43.6,-36 -45.7,-38.4 -2.1,-2.3 -6.4,-2.8 -11.3,-1.1 -3.3,1.2 -5.1,3.9 -5.5,8.4 -0.3,2.7 -0.7,3 -6.3,4.2 -9.7,2 -13.8,1.8 -16.9,-1.1 -3.2,-2.9 -6.5,-9.9 -6.6,-13.6 0,-1.4 -0.7,-3.4 -1.5,-4.5 -1.2,-1.6 -1.4,-11.2 -1.5,-65.7 0,-41.8 -0.3,-63.7 -1,-63.7 -0.5,0 -1,0.1 -1,0.2 z"/>
<path d="M 141.4,221.3 c -0.3,0.8 -0.4,4.5 -0.2,8.3 l 0.3,6.9 29,0 29,0 0,-8 0,-8 -28.8,-0.3 c -23.5,-0.2 -28.8,0 -29.3,1.1 z"/>
<path d="M 247.3,235 l -42.1,0.5 -2.2,2.8 -2.3,2.8 -34.1,-0.2 c -21,-0.1 -36.4,0.3 -40.1,0.9 -5.9,1.1 -15.2,2.7 -33.5,5.7 -18.6,3 -21.3,3.5 -21.7,3.9 -1,0.9 1.6,3.7 9.2,9.6 4.5,3.6 8,6.9 7.7,7.4 -0.3,0.5 -0.1,0.6 0.4,0.3 1.3,-0.8 18.5,13.8 17.6,14.8 -0.4,0.5 -0.2,0.5 0.4,0.2 0.6,-0.3 4.7,2.6 9.3,6.4 11.2,9.6 15.2,10.8 26.6,8.2 3,-0.7 9.6,-2.1 13,-2.7 1.7,-0.3 7.5,-1.4 13,-2.5 5.5,-1.2 13.6,-2.8 18,-3.7 4.4,-0.9 10.9,-2.2 14.5,-2.9 3.6,-0.7 10.3,-2.1 15,-3 4.7,-0.9 11.4,-2.3 15,-3 3.6,-0.7 10.3,-2.1 15,-3 4.7,-0.9 10.4,-2.1 12.7,-2.6 2.3,-0.5 4.6,-0.8 5,-0.7 0.5,0 1.5,-0.1 2.3,-0.5 1.4,-0.5 7,-1.6 11.5,-2.2 1.1,-0.1 2.7,-0.5 3.5,-0.8 1.2,-0.5 5,-1.1 12.5,-2.2 0.6,-0.1 1.7,-0.4 2.5,-0.7 1.2,-0.5 4.8,-1.2 12.5,-2.3 0.6,-0.1 1.7,-0.4 2.5,-0.7 1.9,-0.8 11.1,-2.2 12.7,-1.9 0.6,0.1 1.4,-0.3 1.8,-0.9 0.3,-0.5 2,-1 3.6,-1 3.4,0 6.9,-1.6 6.9,-3 0,-0.9 -45.6,-24.3 -46.2,-23.8 -0.2,0.2 -19.3,0.5 -42.5,0.8 z"/>
</svg>
