<svg xmlns="http://www.w3.org/2000/svg" viewBox="0 0 384 384">
<path d="M 91.9,10.3 c -10.4,3 -15.8,8.7 -18.6,20.2 -1.4,5.9 -1.5,9.3 -0.6,28.3 0.7,14.1 0.7,22.3 0.1,23.5 -0.5,1.1 -4.1,6.2 -7.9,11.5 -11.1,15.4 -13.4,19.2 -16.4,27.2 -1.6,4.1 -5,12 -7.7,17.4 -4.5,9.3 -5.7,14.2 -4.2,18 0.5,1.2 1.5,1.4 4.8,1 5.4,-0.8 8.4,1.7 17.5,14.1 18.9,25.8 21.8,32.9 17.2,41.5 -3,5.8 -6.9,6.5 -19.9,3.4 -28.5,-6.7 -39.7,-9.6 -40.9,-10.6 -1,-0.8 -0.7,-2 1.2,-5.6 3,-5.7 3.1,-8.9 0.4,-15.2 -3.2,-7.5 -2.6,-8.5 5.1,-8.6 3.6,0 7.5,-0.4 8.7,-0.8 2.5,-0.8 5.3,-6.2 5.3,-10.2 0,-3.3 -1.2,-2.4 -3.8,2.7 -2.1,4.3 -5.3,5.9 -11.8,5.9 -8,0 -10.2,4.3 -7.2,14.2 1,3.3 0.8,5.1 -0.7,10.9 -1.8,7 -1.8,7.1 0.3,9.1 1.4,1.5 6.3,3.1 16.4,5.3 7.9,1.8 18.5,4.9 23.6,6.9 5.1,2 11.2,3.9 13.5,4.2 3.9,0.6 4.7,0.2 10.2,-3.9 3.3,-2.5 7.8,-5 10,-5.6 2.3,-0.6 12.5,-1.1 23.9,-1.1 l 20,0 4,4.5 c 3.4,3.8 5,4.7 9.6,5.7 8,1.6 12.7,0 20.4,-7 3.8,-3.5 10.8,-8.1 17.4,-11.7 18.4,-9.7 19.9,-12.9 9.4,-20.3 -6.7,-4.6 -9.3,-8.1 -10.1,-13.1 -0.9,-5.1 -2.6,-3.3 -2.6,2.6 0.1,6.7 2.6,10.3 8.7,12.3 12.5,4.1 9.7,9.9 -7.4,15.6 -5.3,1.7 -10.2,4.3 -14.5,7.5 -12.6,9.6 -17.1,10.3 -23.5,3.9 l -4,-3.9 0.9,-6.8 c 0.9,-7.6 0.9,-12 -0.2,-27.1 -0.7,-9.1 -0.6,-10.5 1,-12.2 2.7,-2.9 4.2,-2.5 6.5,1.9 5.3,10.5 13.6,10.7 24.6,0.8 7.2,-6.5 8.8,-10.3 8.1,-19.1 -1.5,-16.9 -6.7,-30.5 -17.4,-44.8 -9.3,-12.5 -17.9,-27 -19.9,-33.3 -0.8,-2.8 -2.1,-12 -2.9,-20.5 -0.8,-8.5 -2.2,-17.7 -3.1,-20.5 -2.4,-6.8 -9.3,-13.6 -17,-16.5 -7.2,-2.8 -19.8,-3.6 -26.5,-1.7 z m 29.4,12.5 c 1.6,1.7 1.4,1.9 -1.8,3.4 l -3.5,1.6 0,-2.8 c 0,-4.4 2.4,-5.4 5.3,-2.2 z m -4.9,17.6 c 4.1,1.7 6.9,8 6.4,14.7 -0.3,3.9 -0.6,4.4 -2.8,4.4 -2.3,0 -2.5,-0.3 -2.5,-5.5 0,-5 -0.2,-5.5 -2.2,-5.4 -1.2,0 -2,-0.3 -1.7,-0.8 0.3,-0.4 -0.6,-0.8 -2,-0.8 -5,0 -7.5,8.1 -3.7,11.9 1,1 4.3,2.6 7.2,3.6 7.9,2.6 8.5,3.3 7,9.7 -1.5,6.1 -0.9,8.4 3.9,14.9 1.6,2.3 4.1,7.7 5.5,11.9 1.3,4.3 4.5,11.8 7.1,16.8 4.7,9 4.7,9.2 5.4,21.2 0.5,10.4 0.9,12.4 2.5,13.6 1,0.8 2.4,1.4 2.9,1.4 0.6,0 0,0.6 -1.4,1.3 -1.4,0.7 -2.9,2.2 -3.5,3.5 -0.6,1.3 -1.9,2.2 -3.2,2.2 -1.3,0 -3.2,0.9 -4.3,2 -1.8,1.8 -2,3.4 -2.1,17.7 0,16.6 -1.6,30.4 -3.5,31 -2,0.7 -2.3,-2.3 -0.9,-8.4 1.8,-7.2 1.9,-13.3 0.3,-13.3 -0.6,0 -3.5,2.2 -6.3,4.9 -6.8,6.4 -13.2,8.4 -25.3,7.9 -7.3,-0.2 -9.2,-0.7 -11.9,-2.7 -4.1,-3.1 -5,-2.3 -2.4,2 2.5,4 2.7,8.2 0.6,9.9 -1.3,1.1 -1.5,0.8 -1.5,-2.2 0,-2.2 -1.2,-5.2 -3.5,-8.7 -3.5,-5.3 -4.2,-7.1 -2.7,-7.1 1.9,0 5.2,-4.3 5.2,-6.8 0,-3 -3,-6.3 -12.5,-13.8 -13,-10.2 -22,-19.7 -21.1,-22.1 0.3,-0.7 0.1,-1.3 -0.4,-1.3 -0.6,0 -1,-2.6 -0.9,-5.8 0,-4.1 0.3,-5.1 0.9,-3.7 0.5,1.1 0.9,3.6 0.9,5.5 0.1,4.4 3.5,10 5.9,10 1.7,0 2,-1.1 2.5,-9 0.8,-10.4 3.3,-18.6 8.8,-28.7 3,-5.5 3.9,-8.3 3.9,-11.9 0,-3.2 1,-6.8 3.1,-11.3 1.7,-3.6 3.5,-7.6 4,-8.9 1.2,-3.1 2.4,-2.8 4.9,1.3 2.8,4.6 6.7,7.5 9.9,7.5 1.6,0 5.1,-1.8 8.6,-4.5 3.3,-2.5 7.9,-5.4 10.2,-6.6 2.3,-1.1 4.6,-2.6 5.3,-3.4 2.3,-2.8 -1.6,-2.1 -10,1.8 -10.2,4.8 -15.8,5.4 -19.2,1.9 l -2.2,-2.2 5.2,0 c 3.8,0 8.2,-1.1 15.7,-4.1 9.8,-3.8 14.8,-6.9 11.3,-6.9 -0.8,0 -1.8,0.4 -2.4,1 -2,2 -16.1,6.3 -22.4,6.7 -6.6,0.5 -6.6,0.5 -10.8,-3.5 -2.3,-2.2 -4.2,-4.7 -4.2,-5.5 0,-0.7 2.7,-3.8 5.9,-6.8 5,-4.6 5.8,-5.8 5.4,-8.1 -0.7,-3.8 -3.7,-6.2 -6.8,-5.4 -2.1,0.5 -2.5,1.2 -2.5,4.5 0,2.2 0.6,4.4 1.5,5.1 1.9,1.5 2,4 0.2,4 -3.2,0 -5,-11.6 -2.6,-16.3 1.6,-2.9 2.8,-3.7 6,-3.7 3.8,0 6.1,3.2 6.7,9.1 0.5,5.3 0.6,5.4 6.3,6.2 l 3.7,0.5 0.4,-5.9 c 0.3,-4.8 1,-6.5 3.3,-8.9 3.2,-3.3 5.9,-3.7 10.9,-1.6 z m -29.7,11.1 c 0.9,2.4 -0.1,2.7 -1.5,0.5 -0.8,-1.3 -0.8,-2 -0.2,-2 0.6,0 1.3,0.7 1.7,1.5 z m 29.7,0.1 c 0.9,2.4 0.7,2.8 -0.9,1.4 -1.7,-1.4 -2,-3 -0.6,-3 0.5,0 1.2,0.7 1.5,1.6 z m 18.4,24.4 c 3.3,2 4.1,4.3 2,5.6 -1.1,0.7 -6.8,-4.7 -6.8,-6.6 0,-1.5 1.1,-1.2 4.8,1 z m 20,41.1 c 4.7,9.5 6.1,19.9 3.5,26.9 -1,2.5 -0.2,5.2 2,7.2 2.2,1.8 2.2,1.8 -1.8,1.2 -6.9,-1 -7.1,-1.2 -4.4,-4 2.2,-2.4 2.4,-3.4 2.3,-12.2 -0.1,-11 -1.3,-14.5 -8.9,-26.3 -2.5,-3.8 -4.5,-7.3 -4.5,-7.7 0.1,-1.9 8.9,9.2 11.8,14.9 z m -94.8,-4.8 c 0,0.8 -0.9,2.2 -2,3.2 -2.3,2.1 -2.5,1.6 -0.8,-2 1.2,-2.7 2.8,-3.4 2.8,-1.2 z"/>
<path d="M 88.6,58.9 c -0.4,0.5 -0.2,1.2 0.3,1.5 0.5,0.4 1.2,0.2 1.5,-0.3 0.4,-0.5 0.2,-1.2 -0.3,-1.5 -0.5,-0.4 -1.2,-0.2 -1.5,0.3 z"/>
<path d="M 303.5,204.6 c -16.8,3.5 -29.9,10.9 -39.4,22.3 l -4.2,4.9 5.2,4.4 c 5,4.2 14.6,16.2 18.3,22.9 l 1.9,3.4 1.3,-3.7 c 4.2,-12 14.1,-19 26.9,-19.1 11.8,0 20.4,5.2 25.5,15.7 3,6 3.2,7.2 2.8,13.4 -0.6,7.7 -2.5,12.1 -7.7,17.5 -6.2,6.6 -10.2,8.2 -21.1,8.3 l -9.5,0.1 -4.9,13.2 c -4.8,13.2 -4.9,13.3 -7.7,12.7 -2.2,-0.4 -2.9,-0.1 -3.4,1.5 -0.9,2.9 0.1,3.6 8.1,6 9.2,2.7 26.3,3 34.9,0.5 49.5,-14.4 63.8,-74.6 25.8,-108.5 -11.4,-10.2 -27.5,-16.2 -42.7,-16 -4.5,0.1 -9,0.3 -10.1,0.5 z"/>
<path d="M 186.5,221.5 c -44.3,9.6 -71.9,53 -61.1,95.8 7.3,28.6 29.4,50.8 58.1,58.4 8.7,2.2 30.2,2.5 38.4,0.4 24.6,-6.3 43.7,-21.6 54.2,-43.6 5,-10.4 6.9,-17.8 7.6,-29.5 2.3,-38.6 -24.8,-73.5 -63.2,-81.5 -8.9,-1.8 -25.7,-1.8 -34,0 z m 31.6,45.7 c 20.2,9.4 27,33.3 14.6,51.4 -7.3,10.7 -21.8,16.8 -34.6,14.6 -3.6,-0.6 -6.7,-0.9 -6.9,-0.7 -0.2,0.1 -3,7.6 -6.3,16.6 -3.3,9 -6.2,16.5 -6.5,16.8 -0.2,0.3 -3,-0.4 -6.1,-1.4 -6.2,-2.1 -16.9,-9.3 -22.2,-14.9 -4.2,-4.3 -4.9,-3.4 12.3,-17.1 6.9,-5.5 12.5,-10.4 12.5,-10.9 0.1,-0.5 -1.4,-3.8 -3.1,-7.4 -5.9,-12 -4.7,-25.1 3.2,-36 3.7,-5.2 8.6,-8.8 15.7,-11.8 8,-3.4 19.3,-3 27.4,0.8 z"/>
<path d="M 198.9,271.1 c -8.6,1.3 -17.2,7.6 -21.5,15.9 -2.8,5.4 -2.6,18.1 0.4,24.2 1.3,2.7 2.9,4.8 3.4,4.8 0.6,0 3.1,-1.6 5.4,-3.6 4.3,-3.5 4.4,-3.6 2.9,-6.4 -2,-4 -1.9,-10.8 0.4,-15 2.1,-4 8.9,-8 13.5,-8 5,0.1 11.1,3.4 13.6,7.4 1.8,3.1 2.2,4.7 1.8,9.7 -0.3,4.8 -1,6.5 -3.3,8.9 -3.5,3.6 -9.8,6.2 -14.3,5.8 -3.2,-0.3 -3.5,0 -5.3,4.6 -1.5,3.6 -1.7,5.2 -0.9,6 0.6,0.6 4.6,1.1 8.8,1.1 11.3,0 19.1,-4.5 25,-14.5 2.4,-3.9 2.7,-5.6 2.7,-13 0,-6.8 -0.5,-9.3 -2.2,-12.6 -5.9,-11.2 -17.9,-17.2 -30.4,-15.3 z"/>
<path d="M 303.5,244.7 c -8.1,4.2 -12.5,11.3 -12.5,20 0,5.6 2.9,14.3 4.7,14.3 0.5,0 2.4,-1.3 4.3,-2.9 3.2,-2.6 3.4,-3 2.2,-5.5 -6.3,-13.8 12.2,-25.1 21.4,-13 2.3,2.9 2.6,4.1 2.2,8.4 -0.4,3.4 -1.3,5.9 -2.8,7.5 -2.7,2.8 -8.3,4.7 -11.6,3.9 -1.8,-0.5 -2.4,0.1 -3.8,3.7 -2.2,5.4 -1.2,6.4 6.2,6.3 12.8,-0.1 22.2,-9.6 22.2,-22.4 0,-9 -4.2,-16 -12.2,-20.1 -4.7,-2.4 -15.9,-2.5 -20.3,-0.2 z"/>
</svg>
