<svg xmlns="http://www.w3.org/2000/svg" viewBox="0 0 384 384">
<path d="M 72.7,11.1 c -2,1.1 -4.9,3.8 -6.5,6.1 -2.6,4 -2.7,4.8 -3.2,20.2 l -0.5,16.1 -17,0.5 c -15.8,0.5 -17.2,0.7 -20.3,2.8 -5.9,4.3 -7.2,8.4 -7.2,23.1 0,14 0.7,17.1 4.8,21.5 4.6,4.9 7.7,5.6 24.7,5.6 l 15.5,0 0,13.7 c 0,15.7 0.9,20 5,24.7 4.7,5.3 7,5.8 24.1,5.4 14.2,-0.3 15.6,-0.5 18.7,-2.6 5.8,-4.2 6.6,-7 7.2,-24.7 l 0.5,-16 16.5,-0.5 c 18.4,-0.6 21.4,-1.5 25.7,-8 2.1,-3.1 2.3,-4.4 2.3,-18.5 0,-14.2 -0.2,-15.4 -2.3,-18.6 -1.2,-1.8 -3.8,-4.4 -5.6,-5.6 -3.2,-2.2 -4.4,-2.3 -19.6,-2.3 -13.9,0 -16.4,-0.2 -16.9,-1.6 -0.3,-0.9 -0.6,-7.8 -0.6,-15.4 0,-14.9 -0.6,-17.9 -4.8,-22.4 -4.5,-4.8 -7.8,-5.6 -22.9,-5.6 -11.8,0.1 -14.4,0.4 -17.6,2.1 z m 33.9,9 c 1.7,1.9 2,4.3 2.4,21.8 l 0.5,19.6 20.2,0.5 c 25.7,0.6 24.6,-0.1 25.1,16.6 0.2,7 -0.1,12.6 -0.7,14.3 -2.2,5.1 -4,5.6 -25.1,6.1 l -19.5,0.5 -0.3,19.2 -0.2,19.2 -3.1,2.5 c -2.9,2.5 -3.6,2.6 -15.4,2.6 -11.6,0 -12.6,-0.1 -15.2,-2.4 l -2.8,-2.4 -0.3,-19.6 -0.3,-19.6 -17.2,0 c -9.5,0 -18.9,-0.5 -20.9,-1 -6.1,-1.7 -6.8,-3.7 -6.8,-18 0.1,-18.3 -0.3,-18 25.9,-18 l 19.1,0 0,-18.9 c 0,-18.9 0,-19 2.6,-22 l 2.6,-3.1 13.7,0 c 12.7,0 13.9,0.2 15.7,2.1 z"/>
<path d="M 237,43.9 c -2.7,1.3 -3.4,2.2 -3.2,3.9 0.4,2.9 -4.5,7.4 -7.4,6.7 -1.8,-0.4 -2.5,0.3 -3.9,3.7 -1.6,4 -1.6,4.3 0.1,5.5 2.3,1.7 2,8.2 -0.3,10 -1.4,1.1 -1.4,1.6 -0.2,5 1.1,2.7 2.1,3.8 3.6,3.8 3,0 7.5,4.5 6.9,6.8 -0.7,2.7 7.3,6.4 9,4.2 1.5,-2 7.3,-1.9 9.6,0.2 1.6,1.4 2.3,1.5 5.9,0.3 3.2,-1.1 3.9,-1.8 3.6,-3.2 -0.7,-2.6 3.7,-7.1 6.9,-7.2 2.1,-0.1 3,-0.9 4.2,-4 1.4,-3.5 1.4,-3.9 -0.1,-4.8 -2.5,-1.3 -2.3,-8.4 0.2,-10 1.6,-1 1.7,-1.6 0.8,-4.2 -1.4,-4.2 -2.6,-5.6 -4.3,-4.9 -2.1,0.8 -7.6,-4.7 -7,-7 0.3,-1.2 -0.5,-2.2 -2.4,-3.2 -3.3,-1.7 -7,-2 -7,-0.5 0,0.5 -2,1 -4.5,1 -3.2,0 -4.5,-0.4 -4.5,-1.4 0,-2.2 -2.3,-2.5 -6,-0.7 z m 17.7,10.8 c 4.3,2 8,7.4 8.8,12.8 0.7,4.8 -2.4,11.7 -6.7,14.8 -3.3,2.5 -11.8,3.4 -15.8,1.7 -4.2,-1.7 -8.8,-7.3 -9.6,-11.5 -2.5,-13.4 10.9,-23.7 23.3,-17.8 z"/>
<path d="M 240.8,58.6 c -7.4,4 -7.6,16 -0.4,20.8 4,2.5 10.9,2.1 14.5,-1 8.6,-7.2 3.8,-21.5 -7.2,-21.4 -2.3,0.1 -5.4,0.7 -6.9,1.6 z m 11.6,4.5 c 1.9,1.5 2.6,2.9 2.6,5.7 0,7.5 -8.3,11 -13.5,5.7 -7.3,-7.2 2.8,-17.8 10.9,-11.4 z"/>
<path d="M 244.3,65.7 c -1.9,0.7 -1.6,6 0.3,6.7 2.9,1.1 5.3,0.6 6.4,-1.4 2.1,-4 -2,-7.3 -6.7,-5.3 z"/>
<path d="M 310.7,63.7 c -0.4,0.3 -0.7,2.4 -0.7,4.5 0,2.7 -0.4,3.8 -1.5,3.8 -0.9,0 -4.5,1.3 -8.2,3 -3.6,1.6 -7.1,3 -7.6,3 -0.6,0 -2.6,-1.4 -4.4,-3.2 l -3.3,-3.2 -7.7,7.7 -7.7,7.7 3.2,3.3 c 1.8,1.8 3.2,3.7 3.2,4.2 0,0.6 -1.3,4.1 -2.9,8 -1.6,3.8 -3.2,7.8 -3.5,8.7 -0.4,1.4 -1.6,1.8 -5,1.8 -5.1,0 -5.6,0.7 -5.7,8.8 l 0,5.7 -2.7,-6.7 c -1.5,-3.6 -3,-6.9 -3.3,-7.2 -0.3,-0.3 -2,-0.1 -3.7,0.5 -3,1 -3.4,0.9 -8.2,-4.3 -4.4,-4.7 -4.9,-5.7 -4.5,-8.5 0.6,-3.2 0.4,-3.4 -4.9,-5.7 -9,-4 -9.4,-4 -10.8,-1.2 -1.1,2.5 -1.5,2.6 -8.9,2.6 -7.1,0 -7.7,-0.2 -8.3,-2.3 -1.3,-5 -1.9,-5.1 -9.2,-2.2 -3.8,1.5 -7.2,3 -7.6,3.4 -0.4,0.4 -0.2,2.1 0.4,3.9 1.2,3.1 1.1,3.3 -4.1,8.6 l -5.3,5.4 -3.4,-1.4 c -3.3,-1.4 -3.4,-1.3 -4.9,1.5 -0.8,1.6 -2.3,5.1 -3.4,7.9 l -2,4.9 3.4,1.6 3.3,1.6 -0.2,7.3 c -0.3,7.5 -0.7,8.2 -5.9,10.1 -0.9,0.3 3.7,13.5 5.2,15 0.4,0.4 2.1,0.2 3.9,-0.4 2.9,-1 3.3,-0.8 6.3,2.5 l 3.1,3.6 28.1,0 28.1,0 2.7,-2.6 c 2.6,-2.5 3,-2.6 5.9,-1.4 1.7,0.7 3.2,1.1 3.5,0.9 1.3,-1.4 6.4,-14.3 5.9,-15.1 -0.3,-0.5 -1.7,-1.3 -3,-1.8 -2.2,-0.9 -2.4,-1.5 -2.4,-8.4 0,-7.6 0.5,-8.8 4.7,-10 1.8,-0.6 2.2,-0.3 2.5,2.1 0.3,2.6 0.7,2.8 5.2,3.3 l 4.8,0.5 2.5,6.5 c 1.3,3.6 2.8,6.9 3.3,7.4 1.8,1.8 1.1,5.2 -1.5,7.6 -3.3,3.1 -3.2,4 0.8,7.8 l 3.3,3.2 44,0 44,0 3.2,-3.3 c 3.9,-4 4,-5.3 0.7,-8.7 l -2.6,-2.7 2.9,-6.4 c 1.6,-3.5 3.4,-7.6 4,-9.2 1,-2.4 1.7,-2.7 5.7,-2.7 l 4.5,0 0,-10.9 0,-11 -4.7,-0.3 -4.8,-0.3 -2,-5.5 c -1.1,-3 -2.9,-7 -3.9,-8.9 l -1.8,-3.3 3.1,-3.2 c 1.7,-1.8 3.1,-3.7 3.1,-4.2 0,-0.6 -3.4,-4.4 -7.5,-8.4 l -7.6,-7.3 -3.2,3.2 c -1.8,1.7 -3.7,3.1 -4.2,3.1 -0.4,0 -3.1,-1.1 -5.9,-2.4 -2.9,-1.4 -6.5,-2.8 -8.1,-3.2 -3.7,-0.9 -4.5,-2 -4.5,-6.2 l 0,-3.2 -10.3,0 c -5.7,0 -10.7,0.3 -11,0.7 z m 26.8,25.9 c 19.5,9.2 27.6,30.9 18.6,50 -7.2,15.4 -24.7,24.7 -40.3,21.5 -12.9,-2.6 -22.3,-9.6 -27.9,-20.8 -3.1,-6.3 -3.4,-7.5 -3.4,-16.3 0,-8.2 0.4,-10.3 2.7,-15.2 4.8,-10.3 14.3,-18.5 24.7,-21.5 7.3,-2.1 18.6,-1 25.6,2.3 z m -112.9,22.7 c 10.2,5.2 15.3,13.8 15.4,25.7 0,9.5 -2.8,15.9 -9.4,21.7 -14.6,12.9 -36.6,8.3 -45.3,-9.5 -3.8,-7.8 -3.8,-17.4 0,-24.8 3.1,-6.1 10.2,-12.7 16,-14.8 6.3,-2.3 16.9,-1.6 23.3,1.7 z"/>
<path d="M 313.8,96.3 c -12.4,3.5 -20.8,14.5 -20.7,27.2 0,14.6 9,25.5 23.6,28.5 9.7,2.1 21.7,-2.8 27.9,-11.1 4.1,-5.6 5.7,-11.1 5.2,-18.6 -0.5,-8 -2.8,-13.3 -8.1,-18.6 -7.1,-7.1 -18.3,-10 -27.9,-7.4 z m 14.9,9.8 c 3.8,1.4 9.2,6.7 10.9,10.8 3.9,9.3 -1,20.4 -10.8,24.6 -12.7,5.2 -26.9,-4.5 -26.8,-18.5 0,-3.4 3.2,-10 6.1,-12.7 5.6,-5.1 13.9,-6.8 20.6,-4.2 z"/>
<path d="M 314.8,116.9 c -6.5,5.8 -3.2,15.6 5.8,16.8 10.3,1.4 15.4,-13.5 6.3,-18.2 -4.4,-2.3 -8.5,-1.9 -12.1,1.4 z"/>
<path d="M 203.5,117.2 c -11.5,4 -17.6,18.3 -12.6,29.3 6.2,13.7 23.5,17.7 34.8,8 8.1,-6.9 9.8,-20 3.7,-28.8 -5.4,-7.8 -17,-11.6 -25.9,-8.5 z m 14.6,8.1 c 5.6,3.7 8.2,8.4 7.6,13.8 -0.5,6.1 -3.7,10.3 -9.2,12.4 -6,2.3 -10.5,1.4 -15.4,-3.3 -5.2,-5 -6.2,-10.3 -3.1,-16.7 3.8,-7.9 13.2,-10.8 20.1,-6.2 z"/>
<path d="M 206.4,132.3 c -6.9,6 0.4,16.5 8.5,12.3 5.8,-3.1 5.5,-10.2 -0.6,-13.4 -3.2,-1.7 -4.9,-1.5 -7.9,1.1 z"/>
<path d="M 167,188.5 l 0,15.5 80.8,0.2 80.7,0.3 0,3.5 0,3.5 -72.7,0.3 -72.8,0.2 0,33 c 0,31.2 0.1,33.3 2,37 1.3,2.6 3.4,4.7 6,6 3.8,2 5.7,2 79.2,2 l 75.3,0 3.9,-2.3 c 7.6,-4.3 7.6,-4.4 7.6,-46.4 l 0,-37.3 8,0 8,0 0,-15.5 0,-15.5 -103,0 -103,0 0,15.5 z m 107,45.7 c 4.9,3.4 7.2,7.1 7.7,12.5 1.5,15.4 -17.5,24.2 -27.5,12.9 -5.8,-6.7 -6.4,-13.6 -1.8,-20.7 4.6,-6.9 15,-9.1 21.6,-4.7 z"/>
<path d="M 45.1,225.9 c -2.1,3.8 0.1,5.6 9.5,8.1 11.8,3.1 13.7,5 16.8,16.8 2,7.5 2.3,9.9 1.4,12.5 -1.4,4.1 -9.9,13 -15.4,15.9 l -4.3,2.2 -8.3,-2.1 c -15.2,-3.9 -15.4,-4.1 -19.2,-17.3 -3,-10 -5.3,-12.2 -9.1,-8.3 -1.4,1.4 -1.6,3 -1.3,8.5 0.9,12.1 8.7,23.5 20.2,29.6 4.8,2.5 5.9,2.7 18.3,2.7 l 13.3,0 5.7,5.8 5.8,5.8 -3.7,3.4 c -2.1,2 -4.8,3.5 -6.2,3.5 -1.7,0 -7.4,4.9 -21,18.2 -10.3,9.9 -19.4,19.4 -20.2,21 -3.4,6.5 -1.1,15.2 4.9,18.8 4,2.5 12.3,2.7 15.7,0.4 4.9,-3.3 39,-37.9 39,-39.6 0,-1 1.6,-3.6 3.6,-5.8 l 3.6,-4 22.5,21.8 c 12.4,11.9 23.8,22.5 25.4,23.6 2.2,1.4 4.2,1.7 7.8,1.4 6.3,-0.6 10.5,-3.7 12.7,-9.3 3,-8 2.2,-9.3 -23.1,-34.5 -12.4,-12.4 -22.5,-23 -22.5,-23.7 0,-0.7 1,-1.3 2.3,-1.3 3,0 6.7,-3.9 6.7,-7.2 0,-1.4 -1,-3.8 -2.1,-5.2 l -2.2,-2.8 20.8,-20.1 c 11.4,-11.1 21.6,-20.3 22.6,-20.5 1.8,-0.3 12.9,-11.6 12.9,-13.1 0,-0.4 -1.5,-2.2 -3.4,-4 -3.9,-3.7 -3.3,-3.9 -11.9,3.4 -2.6,2.1 -4.7,4.6 -4.7,5.5 0,0.8 -9.4,10.9 -20.9,22.4 l -20.9,20.9 -3,-2.2 c -1.7,-1.1 -4.1,-2.1 -5.4,-2.1 -2.7,0 -7.8,4.7 -7.8,7.2 0,3.4 -1.8,2.6 -7.8,-3.5 l -6.2,-6.2 1.1,-4 c 1.6,-5.8 0.6,-18.1 -1.9,-23.7 -2.8,-6.5 -10,-13.9 -16.8,-17.3 -4.5,-2.3 -7.4,-3 -13.9,-3.3 -7.7,-0.4 -8.4,-0.3 -9.4,1.7 z m 105.5,123.2 c 6,5.8 7.2,9.9 3.3,11.9 -3.2,1.8 -6.2,0.5 -11.2,-4.9 -5.2,-5.6 -5.6,-7.2 -2.7,-10.1 3,-3 4.6,-2.5 10.6,3.1 z"/>
</svg>
