<svg xmlns="http://www.w3.org/2000/svg" viewBox="0 0 384 384">
<path d="M 303.5,5.8 c -1.6,1.1 -5.4,4.4 -8.2,7.5 -4.9,5.2 -5.3,5.9 -5.3,10.5 0,4.3 0.5,5.5 3.9,9.4 l 4,4.5 -5.5,5.4 c -4.1,4 -5.8,5.1 -6.8,4.4 -17,-12.2 -31.9,-20 -48.5,-25.5 -35.2,-11.7 -69.1,-12 -104.1,-0.8 -42.1,13.4 -79.4,45.8 -99,86.1 -6.3,13 -11.5,29.1 -14.2,43.7 -3,16.5 -3,42 0,58.2 9.9,53 43.2,96.8 91.7,121.1 18.8,9.3 48.2,16.6 67.7,16.7 l 5.7,0 -0.6,4.8 c -0.4,3.7 0,6 1.6,9.7 2.9,6.5 4.6,8.3 10.6,11.1 l 5,2.4 73.1,0 73,0 5.3,-2.6 c 8.8,-4.4 13.6,-14.2 11.3,-22.9 -0.6,-2.2 -10.1,-20.4 -21.2,-40.4 l -20,-36.3 3.4,-5.6 c 33.9,-56.4 32.4,-125.9 -4,-180.3 l -5.5,-8.2 5.4,-5.5 5.5,-5.5 4.3,3.7 c 8.1,6.9 12.8,6.3 21.6,-2.7 7.2,-7.2 8.8,-10.6 7.3,-15.1 -0.6,-2 -9.3,-11.4 -23.8,-25.9 -20.8,-20.7 -23.2,-22.9 -26.8,-23.3 -2.8,-0.4 -4.8,0 -6.9,1.4 z m 26.3,30.5 l 20.2,20.3 -4,3.9 -4,3.9 -20.5,-20.4 -20.5,-20.4 3.7,-3.8 c 2,-2.1 4,-3.8 4.3,-3.8 0.3,0 9.6,9.1 20.8,20.3 z m -115.6,-6.3 c 54.2,11.4 97.4,49.7 114.8,101.7 6,18.2 7.5,27.7 7.4,49.3 0,19.9 -1.5,29.7 -6.9,46.5 -3,9 -12.9,30.5 -14.2,30.5 -0.4,0 -2.4,-3.1 -4.4,-6.8 l -3.6,-6.8 2.3,-4.5 c 3.4,-6.9 8.9,-23.4 11,-33.4 2.6,-12.7 2.6,-40.3 0,-53 -2.3,-11 -7.6,-26.6 -12.1,-35.5 -13,-25.9 -36.8,-49.5 -62.8,-62.7 -16.9,-8.4 -41.4,-14.3 -60.1,-14.3 l -8.6,0 0,21 0,21 7,0 7,0 0,-14.1 0,-14.2 6.3,0.7 c 27.4,3.1 50.9,13.4 69,30.6 l 6.2,5.9 -9.7,9.8 -9.8,9.8 4.7,4.8 4.8,4.7 9.6,-9.6 9.6,-9.6 2.7,3.5 c 13.2,17.3 22.8,43 24.3,64.8 l 0.6,9.9 -14.1,0 -14.2,0 0,7 0,7 13.5,0 c 13.3,0 13.5,0 13.5,2.2 -0.1,5.8 -7.4,32.8 -8.9,32.8 -0.3,0 -2.4,-3.3 -4.6,-7.3 -5.1,-9.1 -10.1,-12.8 -18,-13.5 -6.9,-0.6 -13.3,1.7 -17.2,6.1 -1.6,1.8 -13.1,21.9 -25.7,44.7 -12.6,22.8 -23.4,42 -24,42.7 -1.1,1.1 -11.7,3.3 -16.3,3.3 -2.3,0 -2.3,-0.1 -2.3,-14 l 0,-14.1 -6.7,0.3 -6.8,0.3 -0.3,13.8 c -0.3,15.8 1,14.6 -12.8,12.2 -13.2,-2.3 -24,-5.9 -36.3,-12 -10.3,-5.2 -27.1,-16.5 -27.1,-18.3 0,-0.5 4.3,-5 9.5,-10.2 l 9.6,-9.3 -4.8,-4.9 -4.7,-4.8 -9.8,9.7 c -11.3,11.3 -9.6,11.5 -19,-1.8 -12,-16.9 -19.5,-36.8 -22.3,-59.7 l -0.7,-5.2 14.1,0 14.1,0 0,-7 0,-7 -14.1,0 -14.1,0 0.7,-5.3 c 1.9,-15.8 5.6,-28.7 11.8,-41.7 3.8,-7.8 11.5,-20 16.6,-26 l 3,-3.5 9.8,9.8 9.9,9.7 4.7,-4.8 4.7,-4.7 -14.8,-14.8 -14.7,-14.7 -5.7,5.7 c -18.6,19 -32,44.8 -37.5,72 -2.6,13.3 -2.4,39.5 0.6,53.3 5.9,27.5 18.5,50.6 38.5,70.5 16.1,16 33,26.4 54.5,33.5 15.7,5.2 29.8,7.3 46.6,6.8 l 13.4,-0.3 -1.8,3 c -1,1.6 -2.9,5 -4.2,7.4 l -2.4,4.4 -14.5,-0.6 c -48,-2 -90.3,-24.9 -118.4,-64.1 -38.8,-54 -37.8,-126.3 2.5,-180.6 13.5,-18.2 33.2,-34.5 54.4,-44.9 24.6,-12.1 44.2,-16.3 72,-15.6 10.9,0.3 19.1,1.1 25.7,2.5 z m 99.1,22.8 l 6.7,6.8 -5.3,5.2 -5.3,5.2 -6.9,-7 -6.9,-7 4.9,-5 c 2.7,-2.7 5.2,-5 5.5,-5 0.3,0 3.6,3.1 7.3,6.8 z m -33.6,171.4 c 1.1,1.3 8.5,14.2 16.6,28.8 8,14.6 23.6,42.8 34.6,62.8 11.1,20 20.1,37.2 20.1,38.3 0,1.1 -1.1,3.1 -2.5,4.4 l -2.4,2.5 -71.6,0 -71.6,0 -2.4,-2.5 c -1.4,-1.3 -2.5,-3.3 -2.5,-4.4 0,-2.3 68.1,-126.3 71.3,-129.9 1.3,-1.4 3.2,-2.2 5.2,-2.2 2,0 3.9,0.8 5.2,2.2 z"/>
<path d="M 177.4,104.5 c -0.2,0.5 -0.5,11.8 -0.6,25 l -0.3,23.9 -3.3,1 c -5.1,1.4 -12.8,8.9 -14.9,14.4 -2.3,5.9 -2.2,16.2 0.1,21.7 l 1.7,3.9 -14.8,14.8 -14.8,14.8 4.8,4.7 4.7,4.8 14.8,-14.7 14.7,-14.7 6.2,2.1 c 8.1,2.7 15,1.9 22.4,-2.5 9.5,-5.7 14.7,-16 13.5,-27.1 -1.1,-10.4 -8,-19.6 -17.2,-22.6 l -3.4,-1.1 -0.2,-24.6 -0.3,-24.5 -6.4,-0.2 c -3.5,0 -6.5,0.3 -6.7,0.9 z m 14.2,64 c 8.9,5.8 8.1,18.8 -1.6,23.8 -9.3,4.8 -20.9,-3.3 -19.6,-13.7 1.2,-10.2 12.7,-15.7 21.2,-10.1 z"/>
<path d="M 267,277.5 l 0,27.5 7,0 7,0 0,-27.5 0,-27.5 -7,0 -7,0 0,27.5 z"/>
<path d="M 268.2,320.8 c -6.9,3.7 -9.4,13.1 -5.3,19.8 2.1,3.4 7.5,6.4 11.6,6.4 11,0 17.7,-13.8 10.8,-22.1 -4.8,-5.7 -11.2,-7.2 -17.1,-4.1 z"/>
</svg>
