<svg xmlns="http://www.w3.org/2000/svg" viewBox="0 0 384 384">
<path d="M 78.9,74.9 l -2.9,2.9 0,13.1 0,13.1 -10.7,0 c -13.9,0.1 -18.5,1.8 -21.4,8.4 -1.9,4.4 -1.9,6.6 -1.7,81.3 0.3,72.2 0.4,77.1 2.1,79.6 3.6,5.6 7,6.7 20,6.7 l 11.7,0 0,12.6 c 0,12.5 0,12.6 2.9,15.5 3.1,3.1 6.4,3.6 10.5,1.8 4.3,-2 5.6,-6.5 5.6,-18.8 l 0,-11.1 11.5,0 11.5,0 0,10.9 c 0,12.5 1.1,16.6 5.1,18.6 4.3,2.3 7.7,1.8 11,-1.4 2.9,-2.9 2.9,-3 2.9,-15.5 l 0,-12.6 12,0 12,0 0,12.6 c 0,12.5 0,12.6 2.9,15.5 3.7,3.7 7.9,3.8 12,0.3 l 3,-2.5 0.3,-12.7 0.3,-12.7 11.8,-0.3 11.7,-0.3 0,11.8 c 0,9.9 0.3,12.3 2,15 3.5,5.7 12.4,5.4 15.5,-0.6 1.1,-2.2 1.5,-6.1 1.5,-14.6 l 0,-11.6 11.8,0.3 11.7,0.3 0.3,12.7 0.3,12.7 3,2.5 c 4.1,3.5 8.3,3.4 12,-0.3 2.9,-2.9 2.9,-3 2.9,-15.5 l 0,-12.6 12,0 12,0 0,12.6 c 0,12.5 0,12.6 2.9,15.5 3.3,3.2 6.7,3.7 11,1.5 4.2,-2.2 5.1,-5.5 5.1,-18.1 l 0,-11.5 12.3,0 c 13.4,0 16.7,-1.1 20.4,-6.7 1.7,-2.5 1.8,-7.4 2.1,-79.6 0.2,-76.2 0.2,-77 -1.8,-81.3 -3.3,-6.6 -7.8,-8.4 -21.8,-8.4 l -11.2,0 0,-11.4 c 0,-13 -1.1,-17.1 -5.1,-19.1 -4.3,-2.3 -7.7,-1.8 -11,1.4 l -2.9,2.9 0,13.1 0,13.1 -12,0 -12,0 0,-13.1 0,-13.1 -2.9,-2.9 c -3.7,-3.7 -7.9,-3.8 -12,-0.3 l -3.1,2.6 0,13.4 0,13.4 -12,0 -12,0 0,-12 c 0,-9 -0.4,-12.9 -1.5,-15.1 -3.1,-6 -12,-6.3 -15.5,-0.6 -1.7,2.7 -2,5.1 -2,15.4 l 0,12.3 -12,0 -12,0 0,-13.4 0,-13.4 -3.1,-2.6 c -4.1,-3.5 -8.3,-3.4 -12,0.3 l -2.9,2.9 0,13.1 0,13.1 -12,0 -12,0 0,-13.1 0,-13.1 -2.9,-2.9 c -3.2,-3.1 -6.4,-3.6 -10.6,-1.7 -4.5,2 -5.5,5.5 -5.5,18.8 l 0,12 -11.4,0 -11.4,0 -0.4,-12.8 c -0.4,-13.5 -1.2,-16.1 -5.5,-18.1 -4,-1.8 -7.3,-1.3 -10.4,1.8 z m 244.1,117.1 l 0,69 -131,0 -131,0 0,-69 0,-69 131,0 131,0 0,69 z"/>
<path d="M 84,191.4 l 0,33.6 10.5,0 10.4,0 0.3,-11.2 0.3,-11.2 5.8,11.2 5.8,11.2 11.5,0 11.5,0 -4.2,-7.8 c -2.4,-4.2 -5.5,-9.9 -7.1,-12.5 -1.5,-2.6 -2.8,-4.9 -2.8,-5.1 0,-0.2 1.4,-0.9 3,-1.6 1.7,-0.7 4.3,-2.7 5.9,-4.5 9,-10.2 5.8,-26.2 -6.4,-32.4 -4.7,-2.5 -5.8,-2.6 -24.7,-2.9 l -19.8,-0.4 0,33.6 z m 33.4,-13.8 c 2.1,2 2,5.3 -0.1,7.6 -1.2,1.3 -3,1.8 -7,1.8 l -5.3,0 0,-5.5 0,-5.5 5.4,0 c 3.6,0 6,0.5 7,1.6 z"/>
<path d="M 166.6,158.9 c -0.3,0.5 -5.5,14.3 -11.5,30.7 -6,16.5 -11.4,31.2 -12,32.7 l -1.1,2.8 11.2,-0.3 11.2,-0.3 1.5,-4.8 1.5,-4.7 11.2,0 11.2,0 1.7,5 1.7,5 10.9,0 c 6,0 10.9,-0.2 10.9,-0.4 0,-0.3 -21.9,-60.7 -23.5,-64.9 -0.6,-1.5 -2.2,-1.7 -12.5,-1.7 -6.6,0 -12.1,0.4 -12.4,0.9 z m 15.3,31.4 l 3,8.7 -6,0 c -3.2,0 -5.9,-0.3 -5.9,-0.7 0,-1.3 5.4,-17.2 5.7,-16.9 0.2,0.1 1.6,4.2 3.2,8.9 z"/>
<path d="M 220,191.5 l 0,33.5 10.5,0 10.5,0 0,-16.3 0.1,-16.2 5.1,16.3 5.1,16.3 9.1,-0.3 9,-0.3 4.7,-15.3 c 2.6,-8.5 5,-15.6 5.3,-15.9 0.3,-0.4 0.6,6.6 0.6,15.5 l 0,16.2 10,0 10,0 0,-33.5 0,-33.6 -12.7,0.3 -12.7,0.3 -6.7,18.9 c -3.8,10.3 -7,19.3 -7.2,19.9 -0.2,0.6 -3.6,-8 -7.6,-19.1 l -7.4,-20.2 -12.8,0 -12.9,0 0,33.5 z"/>
</svg>
