<svg xmlns="http://www.w3.org/2000/svg" viewBox="0 0 384 384">
<path d="M 72.7,11.1 c -2,1.1 -4.9,3.8 -6.5,6.1 -2.6,4 -2.7,4.8 -3.2,20.2 l -0.5,16.1 -17,0.5 c -15.8,0.5 -17.2,0.7 -20.3,2.8 -5.9,4.3 -7.2,8.4 -7.2,23.1 0,14 0.7,17.1 4.8,21.5 4.6,4.9 7.7,5.6 24.7,5.6 l 15.5,0 0,13.7 c 0,15.7 0.9,20 5,24.7 4.7,5.3 7,5.8 24.1,5.4 14.2,-0.3 15.6,-0.5 18.7,-2.6 5.8,-4.2 6.6,-7 7.2,-24.7 l 0.5,-16 16.5,-0.5 c 18.4,-0.6 21.4,-1.5 25.7,-8 2.1,-3.1 2.3,-4.4 2.3,-18.5 0,-14.2 -0.2,-15.4 -2.3,-18.6 -1.2,-1.8 -3.8,-4.4 -5.6,-5.6 -3.2,-2.2 -4.4,-2.3 -19.6,-2.3 -13.9,0 -16.4,-0.2 -16.9,-1.6 -0.3,-0.9 -0.6,-7.8 -0.6,-15.4 0,-14.9 -0.6,-17.9 -4.8,-22.4 -4.5,-4.8 -7.8,-5.6 -22.9,-5.6 -11.8,0.1 -14.4,0.4 -17.6,2.1 z m 33.9,9 c 1.7,1.9 2,4.3 2.4,21.8 l 0.5,19.6 20.2,0.5 c 25.7,0.6 24.6,-0.1 25.1,16.6 0.2,7 -0.1,12.6 -0.7,14.3 -2.2,5.1 -4,5.6 -25.1,6.1 l -19.5,0.5 -0.3,19.2 -0.2,19.2 -3.1,2.5 c -2.9,2.5 -3.6,2.6 -15.4,2.6 -11.6,0 -12.6,-0.1 -15.2,-2.4 l -2.8,-2.4 -0.3,-19.6 -0.3,-19.6 -17.2,0 c -9.5,0 -18.9,-0.5 -20.9,-1 -6.1,-1.7 -6.8,-3.7 -6.8,-18 0.1,-18.3 -0.3,-18 25.9,-18 l 19.1,0 0,-18.9 c 0,-18.9 0,-19 2.6,-22 l 2.6,-3.1 13.7,0 c 12.7,0 13.9,0.2 15.7,2.1 z"/>
<path d="M 200.2,62.6 c -2.1,1.5 -2.2,2 -2.2,20.2 0,10.3 -0.4,19.2 -0.8,19.8 -0.4,0.6 -2.9,2.5 -5.7,4.4 -2.7,1.8 -6.9,4.9 -9.3,6.8 l -4.3,3.5 -3.7,-2.2 c -7.2,-4.3 -12,-6.4 -13.4,-5.9 -0.7,0.3 -8,11.6 -16.2,25.2 -12.7,21 -14.7,24.8 -13.6,26.1 0.8,0.9 4.4,3.5 8.2,5.7 6.3,3.7 6.9,4.3 6.3,6.7 -3,12 -3.7,31 -1.6,43.6 0.7,3.8 2.7,11.5 4.6,17 l 3.3,10 -17.8,17.9 -17.8,17.9 -3,-2.2 c -1.7,-1.1 -4,-2.1 -5.3,-2.1 -2.7,0 -7.9,4.7 -7.9,7.1 0,3.5 -1.7,2.7 -7.8,-3.4 l -6.2,-6.2 1.1,-4 c 1.6,-5.8 0.6,-18.1 -1.9,-23.7 -2.8,-6.5 -10,-13.9 -16.8,-17.3 -4.5,-2.3 -7.4,-3 -13.9,-3.3 -7.7,-0.4 -8.4,-0.3 -9.4,1.7 -2.1,3.8 0.1,5.6 9.5,8.1 11.8,3.1 13.7,5 16.8,16.8 2,7.5 2.3,9.9 1.4,12.5 -1.4,4.1 -9.9,13 -15.4,15.9 l -4.3,2.2 -8.3,-2.1 c -15.2,-3.9 -15.4,-4.1 -19.2,-17.3 -3,-10 -5.3,-12.2 -9.1,-8.3 -1.4,1.4 -1.6,3 -1.3,8.5 0.9,12.1 8.7,23.5 20.2,29.6 4.8,2.5 5.9,2.7 18.3,2.7 l 13.3,0 5.7,5.8 5.8,5.8 -3.7,3.4 c -2.1,2 -4.8,3.5 -6.2,3.5 -1.7,0 -7.4,4.9 -21,18.2 -10.3,9.9 -19.4,19.4 -20.2,21 -3.4,6.5 -1.1,15.2 4.9,18.8 4,2.5 12.3,2.7 15.7,0.4 4.9,-3.3 39,-37.9 39,-39.6 0,-1 1.6,-3.6 3.6,-5.8 l 3.6,-4 22.5,21.8 c 12.4,11.9 23.8,22.5 25.4,23.6 2.2,1.4 4.2,1.7 7.8,1.4 6.3,-0.6 10.5,-3.7 12.7,-9.3 3,-8 2.2,-9.3 -23.1,-34.5 -12.4,-12.4 -22.5,-23 -22.5,-23.7 0,-0.7 1,-1.3 2.3,-1.3 3,0 6.7,-3.9 6.7,-7.2 0,-1.4 -1,-3.8 -2.2,-5.3 l -2.1,-2.7 16.9,-16.4 c 9.3,-8.9 17.1,-16.3 17.4,-16.3 0.3,0 2,2.3 3.9,5.2 17.3,26.5 45.2,44.6 76.1,49.2 48.2,7.4 95,-17.3 116.2,-61.2 9.6,-19.9 13.1,-44 9.4,-64.6 -1,-5.3 -1.5,-10 -1.2,-10.5 0.3,-0.5 3.7,-2.8 7.6,-5.1 3.8,-2.3 7,-4.9 7,-5.7 0,-0.9 -6.6,-12.6 -14.7,-26 -10.9,-18.2 -15.1,-24.4 -16.5,-24.4 -1.1,0 -5.1,1.9 -8.9,4.1 l -7,4.2 -2.7,-2.2 c -1.5,-1.1 -6,-4.4 -9.9,-7.1 l -7.3,-5.1 0,-18.9 c 0,-17.7 -0.1,-19.1 -2,-21 -1.9,-1.9 -3.3,-2 -52.8,-2 -44.3,0 -51,0.2 -53,1.6 z m 94.8,22.4 c 0,6 -0.4,11 -0.8,11 -0.4,0 -3.2,-0.9 -6.2,-1.9 -20.9,-7.3 -47.2,-7.6 -68.3,-0.6 -4.3,1.4 -8.3,2.3 -8.8,2 -1,-0.7 -1.3,-17.4 -0.3,-19.9 0.5,-1.4 5.2,-1.6 42.5,-1.6 l 41.9,0 0,11 z m -20.8,19 c 50.1,11.1 83.1,60.1 74.3,110.5 -5.6,32 -27.8,59.7 -58.3,72.8 -12.6,5.4 -21.3,7 -37.2,7 -12.6,0 -15.8,-0.3 -24.3,-2.6 -22.7,-6.2 -40.1,-17.8 -53.7,-35.8 -8.3,-11 -8.3,-11.7 -2.1,-18.5 2.8,-3 5.1,-5.9 5.1,-6.3 0,-0.4 -1.6,-2.2 -3.5,-4.1 -3.7,-3.6 -3.6,-3.7 -9.8,1.9 -3.5,3.2 -3.9,2.7 -6.8,-9.6 -1.9,-8.1 -2.1,-11.3 -1.6,-24.5 0.3,-11.2 1,-17.1 2.5,-21.8 6,-20.1 16.8,-36.6 31.7,-48.9 12.1,-9.9 23.4,-15.6 38.9,-19.7 12.1,-3.1 31.9,-3.3 44.8,-0.4 z m -106.2,15.2 c 2.2,1.3 4,2.7 4,3.1 0,0.4 -2.4,3.8 -5.3,7.5 -7.1,9 -11,15.4 -15,24.5 -1.9,4.3 -3.6,8 -3.9,8.3 -0.8,0.8 -8.8,-3.8 -8.8,-5.1 0,-1.5 23.4,-40.4 24.3,-40.4 0.4,-0.1 2.6,0.9 4.7,2.1 z m 186.5,17.5 c 6.5,10.9 12,20.1 12.2,20.5 0.4,0.8 -7,5.8 -8.5,5.8 -0.5,0 -2.1,-3.1 -3.6,-7 -3,-7.4 -12,-22.6 -16.5,-27.5 -5.6,-6.2 -5.6,-6.1 -1.4,-8.9 2.1,-1.4 4.3,-2.5 4.9,-2.5 0.6,-0.1 6.4,8.8 12.9,19.6 z m -203.9,212.4 c 6,5.8 7.2,9.9 3.3,11.9 -3.2,1.8 -6.2,0.5 -11.2,-4.9 -5.2,-5.6 -5.6,-7.2 -2.7,-10.1 3,-3 4.6,-2.5 10.6,3.1 z"/>
<path d="M 250.6,106.9 c -2.1,2.3 -2.2,10.4 0,12.5 3.3,3.4 5.4,0.8 5.4,-6.6 0,-4.6 -0.4,-5.9 -1.9,-6.7 -1.4,-0.8 -2.2,-0.6 -3.5,0.8 z"/>
<path d="M 250.3,133 c -1.2,0.5 -2.6,1.8 -3.2,2.9 -0.7,1.3 -1.1,12.9 -1.1,32.9 0,28 0.2,31.2 1.8,33.1 1.7,2.1 2.2,2.1 27.7,1.9 l 25.9,-0.3 1.6,-2.8 c 1.3,-2.4 1.3,-3 0,-5.5 l -1.6,-2.7 -20.4,-0.3 c -14.8,-0.2 -20.6,-0.6 -21.2,-1.5 -0.4,-0.6 -0.8,-13.2 -0.8,-27.9 l 0,-26.7 -2.6,-2 c -3,-2.3 -3,-2.3 -6.1,-1.1 z"/>
<path d="M 160.4,196.5 c -1.4,3.6 0.3,4.6 7.3,4.3 6.5,-0.3 6.8,-0.4 6.8,-2.8 0,-2.4 -0.3,-2.5 -6.8,-2.8 -5.3,-0.2 -6.8,0 -7.3,1.3 z"/>
<path d="M 331,196.5 c -2.3,2.8 0.5,4.5 7.5,4.5 6.5,0 8.2,-1.1 6.9,-4.5 -0.5,-1.1 -2.2,-1.5 -6.9,-1.5 -4.3,0 -6.6,0.5 -7.5,1.5 z"/>
<path d="M 250.6,276.6 c -2.1,2.1 -2.1,10.7 0,12.8 3.3,3.4 5.4,0.8 5.4,-6.6 0,-4.6 -0.4,-5.9 -1.9,-6.8 -1.5,-0.7 -2.3,-0.6 -3.5,0.6 z"/>
</svg>
