<svg xmlns="http://www.w3.org/2000/svg" viewBox="0 0 384 384">
<path d="M 166,30.3 c -0.3,0.3 -6.6,1.2 -14,2.1 -65.3,7.9 -109.2,32.9 -109.3,62.1 0,23.7 31.4,46.2 79.3,56.9 24.3,5.4 31.3,6 64.5,6 32.9,0 40.7,-0.8 66.5,-6.5 10.8,-2.4 13.4,-3.6 20.8,-9.1 6.5,-4.8 11.9,-6.8 18.7,-6.8 4.7,0 6.2,-0.6 12.7,-4.9 21.8,-14.6 29.3,-32.1 21.2,-49.1 -11.3,-23.7 -49.6,-41.4 -105,-48.6 -12,-1.6 -54.3,-3.2 -55.4,-2.1 z"/>
<path d="M 328,121.9 c -1.5,4.7 -7.8,13.9 -12.4,18 -3.1,2.9 -3.2,3.5 -0.7,7 2,2.8 3.5,7.9 4.5,15.2 0.6,4.3 0.9,4.7 4.5,5.8 2.1,0.6 4.1,1.1 4.4,1.1 1.4,0 1.8,-7.8 1.5,-29 -0.3,-21.4 -0.4,-22.3 -1.8,-18.1 z"/>
<path d="M 42.7,120.6 c -0.4,0.4 -0.7,9.5 -0.7,20.3 0,28.4 2,34.9 14.2,46.8 16.1,15.6 45.8,27.7 82.3,33.3 18.5,2.8 50.1,4.8 52.3,3.2 8.5,-6 11.7,-7.2 19.5,-7.2 4.3,0 7.7,-0.3 7.5,-0.8 -3.5,-6.7 -4.2,-9.4 -4.2,-15.7 -0.1,-9.1 3.2,-15.4 11.5,-22.1 3.3,-2.6 5.7,-4.9 5.5,-5.1 -0.2,-0.3 -4.8,0.1 -10.3,0.8 -14.2,1.8 -54.8,1.5 -71.2,-0.5 -33.1,-4 -64.4,-14.2 -83.8,-27.4 -7.5,-5.1 -16.6,-15 -19.6,-21.4 -1.3,-2.7 -2.6,-4.5 -3,-4.2 z"/>
<path d="M 267.5,179.6 c -12.6,9.6 -23.9,18.4 -25,19.5 -2,2 -2,2 0.2,3.7 10.2,8.1 49.1,37.2 49.6,37.2 0.4,0 0.7,-6 0.7,-13.3 l 0,-13.3 7.6,0.8 c 16.3,1.7 28.5,8 40.5,20.6 14.7,15.5 20.7,33.8 18,55 -2,15.5 -11.5,32.7 -23.5,42.3 -6.5,5.3 -17.1,10.8 -26.1,13.5 -7.9,2.4 -25.5,2.3 -34,-0.1 -18.5,-5.3 -34.7,-18.8 -42.8,-35.6 -5.7,-11.7 -7.2,-19.6 -6.4,-34.1 0.5,-9.2 1.1,-11.9 4.1,-19.4 2,-4.8 3.4,-8.9 3.2,-9.1 -0.2,-0.2 -5.4,-1.4 -11.6,-2.5 -13,-2.5 -11.8,-3.2 -15.6,9 -6.6,21.4 -5,44.1 4.7,65 20.8,45 75.1,64.8 119.8,43.7 38.9,-18.5 60,-62.2 49.6,-103 -9.7,-38.5 -40.7,-65 -80.6,-69.1 l -6.7,-0.7 -0.7,-13.8 c -0.4,-7.7 -1,-13.9 -1.4,-13.8 -0.3,0 -10.9,7.9 -23.6,17.5 z"/>
<path d="M 42.2,208.7 c 0.3,21.5 0.6,24.3 2.5,29.1 11.2,27.6 58.8,48.3 121.4,52.8 l 9.6,0.7 0.6,-14.4 c 0.4,-10 1.4,-17.4 3,-24.1 1.3,-5.4 2.2,-10 1.9,-10.3 -0.3,-0.3 -3,-0.5 -6.1,-0.5 -14.9,0 -40.6,-3.4 -57.6,-7.6 -38.2,-9.5 -63.3,-24.9 -72.2,-44.2 -1.4,-2.8 -2.7,-5.2 -3,-5.2 -0.2,0 -0.3,10.7 -0.1,23.7 z"/>
<path d="M 42.2,274.7 c 0.5,26.9 1.2,30.4 7.5,38.8 5,6.5 15.2,15 24.4,20.2 15,8.6 42.8,17.2 66.9,20.8 14.7,2.1 51.4,4 57.2,2.9 l 4.8,-0.9 -4.6,-6.5 c -6.8,-9.7 -12.9,-21.4 -16.4,-31.7 l -3.2,-9.1 -7.6,-0.7 c -31.6,-2.7 -51.4,-6.2 -70.5,-12.5 -28.5,-9.5 -47.5,-22.9 -54.9,-38.5 -1.6,-3.6 -3.2,-6.5 -3.5,-6.5 -0.2,0 -0.3,10.7 -0.1,23.7 z"/>
</svg>
