<svg xmlns="http://www.w3.org/2000/svg" viewBox="0 0 384 384">
<path d="M 149.5,17.5 l -2.5,2.4 0,105.9 c 0,101.9 0.1,106.1 1.9,108.3 1.3,1.6 3.3,2.4 6.7,2.8 l 4.9,0.6 -12.8,13.8 c -7,7.7 -14.7,16.1 -17,18.8 -2.3,2.7 -4.5,4.9 -4.9,4.9 -0.5,0 -0.8,-11.7 -0.8,-26 0,-27.5 -0.4,-29.9 -4.7,-31.9 -1.5,-0.7 -11.6,-1.1 -28.9,-1.1 -27.7,0 -31.2,0.5 -32.8,4.5 -0.3,0.9 -0.6,16.4 -0.6,34.5 0,29 -0.2,32.9 -1.6,33.4 -0.9,0.3 -9.9,0.6 -20,0.6 -17.1,0 -18.5,0.1 -20.4,2 -1.2,1.2 -2,3.3 -2,5.3 0,3.6 0.3,4.1 22.5,28.2 6,6.7 19.9,21.9 30.9,33.8 11.3,12.4 20.8,22 22.1,22.3 1.3,0.3 3.2,0.3 4.3,0 1,-0.4 10.2,-9.7 20.3,-20.8 10.1,-11.1 23.1,-25.3 28.9,-31.6 l 10.5,-11.5 0.5,27.7 c 0.5,27.7 0.5,27.8 2.9,29.7 2.2,1.8 4.3,1.9 30.8,1.9 l 28.4,0 2.4,-2.5 2.5,-2.4 0,-33.6 0,-33.5 19.4,0 c 18,0 19.5,-0.1 22,-2.1 4.4,-3.4 3.6,-7.7 -2.6,-14.7 -9.3,-10.3 -23,-25.3 -34,-37.3 -6,-6.4 -10.8,-11.9 -10.8,-12.3 0,-0.3 24.5,-0.6 54.4,-0.6 53.5,0 54.4,0 57,-2.1 l 2.6,-2 0,-40.2 0,-40.1 22.4,-22.6 22.4,-22.5 0.7,-5.6 c 0.8,-6.7 -0.1,-7.4 -7.3,-5.8 -4.4,0.9 -6.2,2.4 -20.7,16.9 -8.7,8.7 -16.2,15.7 -16.7,15.4 -0.4,-0.3 -0.8,-25 -0.8,-54.9 l 0,-54.4 -2.6,-2 c -2.7,-2.1 -3.2,-2.1 -88.6,-2.1 l -85.9,0 -2.4,2.5 z m 163.9,14.1 c 0.3,0.9 0.6,26.8 0.6,57.6 l 0,56.1 -12,12.2 c -9.2,9.4 -12,12.9 -12,14.9 0,1.6 -1.4,4.2 -3.7,6.7 -2.9,3.2 -3.5,4.4 -2.6,5.7 1.8,2.9 5.6,2.6 8.8,-0.8 1.6,-1.7 3.9,-3 5.3,-3 1.5,0 4.5,-2.1 8.6,-6 3.5,-3.3 6.6,-5.7 6.9,-5.3 1,0.9 0.8,49.6 -0.1,51.1 -0.7,1 -12.4,1.2 -57,1 l -56.2,-0.3 -4.3,-4.8 c -3.8,-4 -4.9,-4.7 -8.2,-4.7 -3.3,0 -4.4,0.7 -8.1,4.6 -3.7,4.1 -4.8,4.7 -9.3,5.2 -3.3,0.3 -5.6,0 -6.6,-0.8 -1.3,-1.1 -1.5,-12.7 -1.5,-94.9 0,-71.5 0.3,-94 1.2,-94.9 0.9,-0.9 19,-1.2 75.4,-1.2 66.7,0 74.2,0.2 74.8,1.6 z m -204,201 c 0.3,0.9 0.6,16.3 0.6,34.4 l 0,32.9 2.6,2 c 2.4,1.9 4,2.1 16,2.1 7.3,0 13.5,0.4 13.8,0.8 0.2,0.4 -6.2,8 -14.2,16.8 -8.1,8.9 -19.4,21.3 -25.2,27.7 -5.8,6.4 -11,11.7 -11.5,11.7 -0.6,0 -6.7,-6.2 -13.5,-13.7 -6.9,-7.5 -18.3,-20 -25.3,-27.7 -7,-7.6 -12.4,-14.3 -12,-14.7 0.4,-0.4 7,-0.9 14.6,-1.1 13.2,-0.3 14,-0.4 15.8,-2.7 1.8,-2.2 1.9,-4.3 1.9,-34.6 0,-17.8 0.3,-33 0.6,-33.9 0.5,-1.4 3.1,-1.6 17.9,-1.6 14.8,0 17.4,0.2 17.9,1.6 z m 100.6,22.6 c 9.1,10 19.3,21.3 22.8,25 3.5,3.8 6,7.3 5.7,7.8 -0.4,0.6 -6.5,1 -14.6,1 -12.6,0 -14.1,0.2 -15.9,2 -1.9,1.9 -2,3.3 -2,34.4 0,17.8 -0.3,33.1 -0.6,34 -0.5,1.4 -3.1,1.6 -17.9,1.6 -14.8,0 -17.4,-0.2 -17.9,-1.6 -0.3,-0.9 -0.6,-16.2 -0.6,-34 0,-31.1 -0.1,-32.5 -2,-34.4 -1.8,-1.8 -3.3,-2 -15.9,-2 -8.8,0 -14.2,-0.4 -14.6,-1.1 -0.4,-0.5 1.9,-3.8 5.2,-7.2 3.2,-3.4 13.5,-14.7 22.8,-25 l 17,-18.7 6,0 6,0 16.5,18.2 z"/>
<path d="M 179.7,56.7 c -1.4,1.3 -0.6,5.3 1.2,6.3 1.3,0.6 21.3,1 58,1 49.5,0 56.1,-0.2 57.5,-1.6 1.9,-1.8 1.9,-2 0.6,-4.5 -1,-1.8 -2.7,-1.9 -58.9,-1.9 -31.8,0 -58.1,0.3 -58.4,0.7 z"/>
<path d="M 179.7,78.7 c -1.1,1.1 -0.8,4.8 0.5,6.1 0.9,0.9 15.1,1.2 57.9,1.2 50.3,0 56.9,-0.2 58.3,-1.6 1.9,-1.8 1.9,-2 0.6,-4.5 -1,-1.8 -2.7,-1.9 -58.9,-1.9 -31.8,0 -58.1,0.3 -58.4,0.7 z"/>
<path d="M 180.3,100.7 c -1.9,0.7 -1.6,6 0.3,6.7 0.9,0.3 26.9,0.6 57.9,0.6 49.9,0 56.5,-0.2 57.9,-1.6 1.9,-1.8 1.9,-2 0.6,-4.5 -1,-1.8 -2.7,-1.9 -58.3,-1.8 -31.5,0 -57.8,0.3 -58.4,0.6 z"/>
<path d="M 180.3,122.7 c -1.9,0.7 -1.6,6 0.3,6.7 0.9,0.3 26.9,0.6 57.9,0.6 49.9,0 56.5,-0.2 57.9,-1.6 2,-1.9 2,-2.9 0,-4.8 -1.4,-1.4 -8,-1.6 -58.2,-1.5 -31.2,0 -57.3,0.3 -57.9,0.6 z"/>
<path d="M 180.3,144.7 c -0.7,0.2 -1.3,1.8 -1.3,3.4 0,2.1 0.6,3 2.3,3.4 1.2,0.3 13,0.4 26.1,0.3 21.5,-0.3 24,-0.5 25,-2.1 0.8,-1.2 0.8,-2.2 0,-3.5 -1,-1.5 -3.5,-1.7 -26,-1.9 -13.7,-0.1 -25.5,0.1 -26.1,0.4 z"/>
<path d="M 257.6,189.6 c -1.9,1.9 -2,3.6 -0.4,5.2 1.3,1.3 20.2,1.7 23.2,0.6 2.2,-0.9 2,-5.1 -0.3,-6.4 -1.1,-0.5 -6.2,-1 -11.5,-1 -7.3,0 -9.8,0.4 -11,1.6 z"/>
<path d="M 355.8,130.7 c -9.3,9.3 -17.1,17.9 -17.5,19.1 -0.7,3 1.7,5.6 4.4,4.8 3.3,-1.1 35.3,-34.1 35.3,-36.4 0,-1.9 -2.6,-4.2 -4.6,-4.2 -0.4,0 -8.4,7.5 -17.6,16.7 z"/>
</svg>
