<svg xmlns="http://www.w3.org/2000/svg" viewBox="0 0 384 384">
<path d="M 207.5,13.8 c -3.3,1.7 -5.5,6.2 -5.5,11.4 0,6.4 1.3,10 5.9,16 4.9,6.5 7.1,12.4 7.1,19 0,7.6 -1.8,13 -6,18.4 -2.2,2.7 -4.6,6.4 -5.5,8.3 -2.9,6.5 -1.1,18.5 3.2,20.6 1.5,0.8 20.7,1.1 63,1 95.5,-0.3 89,-0.1 91.8,-3 l 2.5,-2.4 0,-42.1 0,-42.1 -2.4,-2.4 c -1.4,-1.4 -4,-2.6 -6.7,-2.9 -2.4,-0.4 -36,-0.7 -74.7,-0.9 -55.4,-0.1 -70.8,0.1 -72.7,1.1 z"/>
<path d="M 50.8,20 c -33.5,0.5 -33.8,0.5 -36,2.8 -2.3,2.2 -2.3,2.5 -2.6,35 -0.2,21.7 0,34 0.8,36.4 2,7 0.3,6.8 62.3,6.8 38.8,0 56.4,-0.3 58.7,-1.1 5.7,-2 6,-4.1 5.9,-39.1 0,-33.7 -0.5,-37.4 -4.9,-39.5 -3.1,-1.5 -37.3,-2 -84.2,-1.3 z"/>
<path d="M 184,57 l 0,3 -13.2,0.2 -13.3,0.2 13,0.6 13,0.5 0.3,2.7 c 0.2,1.6 0.7,2.8 1.2,2.8 0.9,0 15.2,-5.1 15.9,-5.7 1,-0.8 -2,-2.5 -8.5,-4.8 -3.8,-1.4 -7.2,-2.5 -7.6,-2.5 -0.5,0 -0.8,1.3 -0.8,3 z"/>
<path d="M 225.6,133.6 c -1.9,1.8 -1.9,2 -0.6,4.5 1,1.8 2.9,1.9 69.5,1.9 60.8,0 68.5,0.2 69.9,1.6 1.4,1.4 1.6,12.3 1.6,104.8 0,78.9 -0.3,103.5 -1.2,104.4 -0.9,0.9 -17.7,1.2 -69.4,1.2 -60.7,0 -68.4,0.2 -69.8,1.6 -1.9,1.8 -1.9,2 -0.6,4.5 1,1.8 2.9,1.9 71.1,1.9 l 70.1,0 3.4,-3.4 3.4,-3.4 0,-106.4 c 0,-83 -0.3,-106.8 -1.3,-108.8 -0.7,-1.4 -2.8,-3.3 -4.7,-4.2 -3.2,-1.7 -8.8,-1.8 -71.7,-1.8 -60.6,0 -68.3,0.2 -69.7,1.6 z"/>
<path d="M 12.3,150 c -6.6,4 -6.3,-1.3 -6.3,96 0,79.6 0.2,88.5 1.6,91.6 3.2,6.8 -3.9,6.4 115.2,6.4 97.6,0 108,-0.2 108.6,-1.6 0.9,-2.4 0.8,-3.1 -1,-4.8 -1.4,-1.4 -12.6,-1.6 -108.4,-1.6 -96.4,0 -106.8,-0.2 -107.4,-1.6 -0.3,-0.9 -0.6,-40.8 -0.6,-88.9 0,-71.9 0.2,-87.5 1.3,-88.4 1,-0.8 31.3,-1.2 108.2,-1.3 100.4,-0.3 106.8,-0.4 107.9,-2.1 0.8,-1.2 0.8,-2.2 0,-3.5 -1.1,-1.6 -7.5,-1.7 -108.5,-1.9 -105,-0.3 -107.5,-0.3 -110.6,1.7 z"/>
<path d="M 82.5,181.6 c -16.1,3.8 -26.7,12.3 -33.7,27.4 -5.3,11.3 -6.3,16.9 -6.3,37.5 0,16.8 0.3,19.9 2.3,26.8 5.7,20 16.3,31.5 33.7,37 6.7,2.1 8.7,2.2 42,2.2 l 35,0 0,-11.5 0,-11.5 -30,-0.5 c -32.4,-0.6 -33.6,-0.8 -41.2,-6.5 -8.9,-6.9 -13.6,-30.8 -10.2,-52.8 1.9,-12.5 6.6,-18.9 17.4,-23.8 4.8,-2.2 6.4,-2.3 34.8,-2.7 l 29.7,-0.4 0,-11.4 0,-11.4 -33.7,0.1 c -25.4,0 -35.3,0.4 -39.8,1.5 z"/>
<path d="M 171.2,246.2 l 0.3,66.3 17.5,0 17.5,0 0.3,-66.3 0.2,-66.2 -18,0 -18,0 0.2,66.2 z"/>
<path d="M 276,206.4 c 0,20.4 -0.2,23.5 -1.6,24 -0.9,0.3 -11.7,0.6 -24,0.6 l -22.5,0 0.3,15.2 0.3,15.3 23.5,0.5 23.5,0.5 0.3,23.2 0.2,23.3 15.5,0 15.5,0 0,-23.5 0,-23.5 23.5,0 23.5,0 0,-15.5 0,-15.5 -23.2,-0.2 -23.3,-0.3 -0.5,-23.5 -0.5,-23.5 -15.2,-0.3 -15.3,-0.3 0,23.5 z"/>
</svg>
