<svg xmlns="http://www.w3.org/2000/svg" viewBox="0 0 384 384">
<path d="M 0,142.5 l 0,130.5 51,0 51,0 0,-18.5 0,-18.5 -32.2,-0.2 -32.3,-0.3 -0.3,-90.5 c -0.1,-49.8 0,-91.5 0.3,-92.8 l 0.5,-2.2 154,0 154,0 0.5,2.2 c 0.3,1.3 0.4,43 0.3,92.8 l -0.3,90.5 -31.5,0.5 -31.5,0.5 0,18 0,18 50.3,0.3 50.2,0.2 0,-130.5 0,-130.5 -192,0 -192,0 0,130.5 z"/>
<path d="M 181,101.1 c -20.2,2.5 -38.9,11.1 -56,25.7 l -3.5,3 7.2,7.3 7.1,7.3 4.8,-4.1 c 15.6,-13 33.2,-19.5 52.9,-19.5 19.7,0 37.3,6.5 52.9,19.5 l 4.8,4.1 7.1,-7.3 7.2,-7.3 -4,-3.5 c -6,-5.2 -19.7,-14.1 -26.7,-17.2 -16.2,-7.4 -35.9,-10.3 -53.8,-8 z"/>
<path d="M 180.4,136.4 c -12.1,2.8 -25.8,9.9 -31.9,16.6 -1.9,2.1 -1.9,2.1 4.8,8.8 5,5 7,6.4 8,5.7 12.2,-9.2 19.4,-11.8 32.2,-11.8 12.8,0 20,2.6 32.2,11.8 1,0.7 3,-0.8 8,-5.8 l 6.8,-6.8 -4.9,-4.4 c -13.6,-12.1 -37.3,-18.2 -55.2,-14.1 z"/>
<path d="M 178.9,185.9 c -16.4,2.3 -31.2,9.3 -41.7,19.7 l -7.2,7.2 0.2,79.3 0.3,79.4 62.3,0.3 62.2,0.2 0,-79.4 0,-79.4 -3.3,-4 c -8.9,-10.6 -19.4,-16.8 -36.2,-21.3 -7.9,-2.1 -27.9,-3.2 -36.6,-2 z m 22,30.9 c 7.4,3.7 10.2,12.7 6.2,19.9 -3,5.2 -6.5,7.5 -12,8 -8.8,0.8 -15.1,-4.8 -15.8,-13.9 -0.3,-4.1 0.1,-6 1.6,-8.6 4.3,-6.7 12.9,-9.1 20,-5.4 z m 3.3,57 c 18.5,6.7 27.4,27.3 19.4,44.7 -11.9,26.1 -47.3,27.1 -59.8,1.8 -6.8,-13.8 -4.6,-27.7 6.1,-38.4 9.3,-9.2 22.5,-12.4 34.3,-8.1 z"/>
<path d="M 187.7,289.4 c -7.2,2.6 -10.8,7.7 -10.9,15.5 -0.1,17.5 23.3,23.6 31.2,8.2 4.8,-9.4 0.9,-19.3 -9.2,-23.6 -4.5,-1.8 -6.1,-1.8 -11.1,-0.1 z"/>
</svg>
