<svg xmlns="http://www.w3.org/2000/svg" viewBox="0 0 384 384">
<path d="M 303.5,19.1 c -18.7,5.1 -32.6,16.2 -40.3,32 -11.7,23.8 -7.4,49.7 11.3,68.4 11.8,11.9 25.4,17.5 42.1,17.5 16.5,0 30.3,-5.8 41.9,-17.4 12.2,-12.2 18.1,-27.4 17.3,-44.6 -0.6,-12.1 -3.6,-21.1 -10.3,-31 -8.6,-12.7 -20.5,-20.7 -37.2,-24.9 -9.8,-2.5 -15.5,-2.5 -24.8,0 z m 25.6,12.3 c 14,4.3 23.7,12.4 30.1,25.3 4,8.1 4.3,9.2 4.6,18.7 0.3,8.4 0,11.2 -1.8,16.6 -4.3,12.8 -13.8,23.7 -25.8,29.3 -6.5,3.1 -7.2,3.2 -19.8,3.2 l -13,0 -7.8,-3.8 c -10.1,-5.1 -17.2,-12.2 -22.3,-22.3 l -3.8,-7.8 0,-13 c 0,-12.7 0.1,-13.3 3.2,-19.9 5.6,-11.7 17.1,-21.9 29.1,-25.8 6.9,-2.2 21,-2.5 27.3,-0.5 z"/>
<path d="M 310.5,46.5 c -6.5,6.4 -0.6,17 8.3,15 3.9,-0.8 6.1,-3.4 6.8,-7.7 1.4,-8.1 -9.3,-13.2 -15.1,-7.3 z"/>
<path d="M 308.7,70.7 c -0.4,0.3 -0.7,9.3 -0.7,20 l 0,19.3 8.5,0 8.5,0 0,-20 0,-20 -7.8,0 c -4.3,0 -8.2,0.3 -8.5,0.7 z"/>
<path d="M 42.5,37.4 c -3.6,1.6 -7,5.1 -8.3,8.6 -0.5,1.4 -5.1,19 -10.1,39.2 l -9.1,36.6 0,30.6 c 0,33.7 0.2,35.1 6.2,41.3 l 3.1,3.2 -2.8,3.3 c -6.1,7.1 -6.5,9.2 -6.5,33.6 0,24.4 0.3,26 6,32.6 l 3.3,3.7 -2.5,2.7 c -1.4,1.5 -3.5,4.6 -4.7,6.9 -1.9,3.9 -2.1,5.8 -2.1,26.6 0,22 0,22.4 2.6,27.5 2.8,5.7 6.9,9.6 12.9,12.3 3.8,1.8 10.5,1.9 140,1.9 129.5,0 136.2,-0.1 140,-1.9 6.2,-2.8 10.3,-6.8 13.6,-13.2 l 2.9,-5.8 0,-20.5 c 0,-22.7 -0.6,-25.7 -7.1,-33 -3.1,-3.6 -3.1,-3.7 -1.2,-5.1 1.1,-0.8 3.4,-4.3 5.1,-7.8 l 3.2,-6.4 0,-20.3 0,-20.2 -3,-6.2 c -1.6,-3.4 -3.8,-7 -4.9,-8 -2.1,-1.9 -2.1,-1.9 0.6,-5 1.4,-1.7 3.7,-5.5 5,-8.4 2.1,-4.9 2.3,-6.5 2.3,-24.3 l 0,-19 -5.7,0.3 -5.8,0.3 -0.5,20.2 c -0.5,19.8 -0.5,20.2 -3,22.9 -5.3,5.7 2.3,5.4 -141.7,5.4 -124.4,0 -133,-0.1 -136.3,-1.8 -1.9,-0.9 -4.5,-3.2 -5.7,-5.1 -2.2,-3.3 -2.3,-4 -2.3,-29.2 l 0,-25.9 123.5,0 123.5,0 -4,-3.6 c -2.1,-1.9 -4.2,-4.4 -4.5,-5.5 -0.6,-1.9 -3.1,-1.9 -119.2,-1.9 -99,0 -118.4,-0.2 -118,-1.3 0.3,-0.8 4.2,-16.2 8.7,-34.3 4.5,-18.1 8.9,-33.7 9.8,-34.7 1.4,-1.6 7.7,-1.7 104.8,-1.7 l 103.3,0 1.5,-2.8 c 0.8,-1.5 2.3,-3.6 3.5,-4.6 1.2,-1.1 2.1,-2.3 2.1,-2.8 0,-0.4 -48.5,-0.8 -107.7,-0.8 -87.6,0.1 -108.4,0.3 -110.8,1.4 z m 264.2,167.2 c 1.9,0.9 4.5,3.1 5.9,4.9 2.4,3.1 2.4,3.5 2.4,24 0,19.5 -0.1,21 -2.2,24.3 -1.2,2 -3.8,4.2 -6.2,5.3 -3.9,1.8 -9.5,1.9 -136.1,1.9 -126.6,0 -132.2,-0.1 -136.1,-1.9 -2.4,-1.1 -5,-3.3 -6.2,-5.3 -2.1,-3.3 -2.2,-4.8 -2.2,-24 0,-19.6 0.1,-20.6 2.3,-23.8 1.2,-1.8 3.8,-4.1 5.7,-5.1 3.3,-1.8 8.9,-1.9 136.3,-1.9 121.1,0 133.2,0.1 136.4,1.6 z m 4.4,76.1 l 3.9,4.2 0,21.6 0,21.6 -3.9,4.2 -4,4.2 -133.8,0.3 c -92.9,0.2 -134.9,0 -137.5,-0.8 -2.2,-0.6 -4.9,-2.5 -6.7,-4.8 l -3.1,-3.7 0,-20.8 c 0,-19.7 0.1,-21.1 2.1,-23.9 1.2,-1.6 3.6,-3.9 5.3,-4.9 3,-1.9 6.9,-1.9 138.4,-1.7 l 135.3,0.3 4,4.2 z"/>
<path d="M 281.5,210.5 c -3.5,3.4 -3.4,9.3 0,12.5 2.3,2.2 2.9,2.3 5.7,1.2 1.8,-0.6 3.2,-1.1 3.3,-0.9 1.4,2.3 4.5,11.6 4.5,13.3 0,2.6 1.9,7.4 3,7.4 0.4,0 1.7,-1.1 2.9,-2.4 2.8,-2.9 2.4,-4.6 -3,-13.7 -2.3,-3.9 -3.9,-7.8 -3.9,-9.7 0,-4.3 -1.8,-7.8 -4.7,-9.1 -3.6,-1.6 -5.1,-1.4 -7.8,1.4 z m 2.4,7 c 0.3,1.7 0.2,1.7 -1.3,0.3 -1.9,-2 -2.1,-3.1 -0.3,-2.6 0.6,0.3 1.4,1.3 1.6,2.3 z m 6,0.2 c -0.1,1.7 -0.3,2.1 -0.6,1 -0.5,-1.8 -2.3,-2.4 -2.3,-0.7 0,0.5 -0.5,1 -1,1 -0.7,0 -0.7,-0.6 0,-2 1.6,-3 4,-2.5 3.9,0.7 z"/>
<path d="M 47.5,214.8 c -7.1,3.3 -12.5,11.7 -12.5,19.1 0,3.9 3.1,11.4 5.8,14.4 5.1,5.7 18,8 24.7,4.5 14.1,-7.5 15.6,-27.2 2.7,-36.2 -5.5,-3.9 -14.6,-4.7 -20.7,-1.8 z m 15,11.4 c 5.8,5.1 4.5,13.6 -2.4,16.5 -4.7,2 -8.9,0.7 -11.8,-3.6 -3.2,-4.7 -2.9,-7.7 1.1,-11.7 4.2,-4.2 9.1,-4.6 13.1,-1.2 z"/>
<path d="M 181,234 l 0,11 5.5,0 5.5,0 0,-11 0,-11 -5.5,0 -5.5,0 0,11 z"/>
<path d="M 202,234 l 0,11.1 5.3,-0.3 5.2,-0.3 0,-10.5 0,-10.5 -5.2,-0.3 -5.3,-0.3 0,11.1 z"/>
<path d="M 222.4,224.3 c -0.3,0.8 -0.3,5.6 -0.2,10.8 l 0.3,9.4 5.3,0.3 5.2,0.3 0,-11 0,-11.1 -5,0 c -3.3,0 -5.2,0.5 -5.6,1.3 z"/>
<path d="M 243,234 l 0,11 5.5,0 5.5,0 0,-11 0,-11 -5.5,0 -5.5,0 0,11 z"/>
<path d="M 277.3,227.6 c -5,7.7 -6.4,12.4 -3.9,12.4 0.7,0 2.1,-2 3,-4.5 1,-2.5 2.2,-4.5 2.7,-4.5 0.6,0 0.7,-0.4 0.4,-1 -0.3,-0.5 -0.1,-1.9 0.5,-3 2.4,-4.5 0.2,-4 -2.7,0.6 z"/>
<path d="M 89,230 c -2.4,2.4 -2.6,5.3 -0.4,7.4 1.3,1.4 5.9,1.6 35.3,1.6 36,0 36.1,0 36.1,-5 0,-5.6 0.9,-5.5 -35.4,-5.8 -32.6,-0.3 -33.6,-0.2 -35.6,1.8 z"/>
<path d="M 269.3,243.3 c -2.8,1.9 -3.3,2.7 -3,5.7 0.2,3.3 0.5,3.6 6,5.3 9.7,3.1 11.7,0.7 6.1,-7.7 -2,-3.1 -4.2,-5.6 -4.8,-5.5 -0.6,0 -2.6,1.1 -4.3,2.2 z"/>
<path d="M 293,246.7 c 0,3.1 -0.3,4.3 -0.9,3.4 -0.6,-1 -1.3,-1.1 -2.9,-0.2 -1.1,0.6 -3,1.1 -4.1,1.1 -1.2,0 -2.1,0.6 -2.1,1.4 0,1.1 1.1,1.4 4.4,1.1 3,-0.2 4.9,0.1 5.7,1.1 1.7,2.1 3.3,1.7 8.4,-1.8 4.7,-3.3 5.6,-5.2 3,-6.2 -0.8,-0.3 -1.5,-1.5 -1.5,-2.6 0,-2.5 -0.8,-2.5 -3.3,-0.3 -1.8,1.7 -1.9,1.7 -3.2,0 -2.2,-3 -3.5,-1.9 -3.5,3 z"/>
<path d="M 278.6,245.5 c 1.8,2.8 2.4,3.1 2.4,1.2 0,-0.7 -0.9,-1.8 -2,-2.5 -2,-1.2 -2.1,-1.2 -0.4,1.3 z"/>
<path d="M 278,282.3 c 0,0.5 0.5,1.8 1.1,2.9 0.9,1.7 0.8,2.3 -0.5,3 -1.7,0.9 -3.8,4.6 -5,8.5 l -0.7,2.3 14.5,0 c 12.6,0 14.6,-0.2 14.6,-1.6 0,-2 -1.7,-5.3 -4.2,-8.1 -1.4,-1.5 -1.8,-2.9 -1.3,-4.5 0.5,-2 0.4,-2.1 -0.7,-0.8 -2.1,2.5 -14.3,2 -16.3,-0.5 -0.8,-1.1 -1.5,-1.6 -1.5,-1.2 z m 4,10.8 c 0,0.5 -0.7,0.9 -1.5,0.9 -1.5,0 -2,-1.2 -0.9,-2.3 0.8,-0.8 2.4,0.1 2.4,1.4 z m 12.9,-0.4 c 0,0.5 -0.3,0.9 -0.9,1.1 -0.5,0.2 -1,-0.4 -1,-1.3 0,-1.6 1.6,-1.4 1.9,0.2 z"/>
<path d="M 50,286.5 c -8.2,2.6 -15,11.8 -15,20.4 0,6 4.5,13.8 9.9,17.2 3.8,2.4 5.7,2.9 10.9,2.9 12.5,0 20.9,-7.9 21.3,-20.2 0.5,-14 -13.6,-24.6 -27.1,-20.3 z m 13.2,13.3 c 3.1,3.2 3.7,6.5 2,10.8 -2.4,5.7 -11.3,7.4 -15.7,3 -5.1,-5.1 -3.7,-12.7 2.9,-16 3.9,-2 7.3,-1.3 10.8,2.2 z"/>
<path d="M 181,306.5 l 0,10.5 5.5,0 5.5,0 0,-10.5 0,-10.5 -5.5,0 -5.5,0 0,10.5 z"/>
<path d="M 202,306.5 l 0,10.5 5.5,0 5.5,0 0,-10.5 0,-10.5 -5.5,0 -5.5,0 0,10.5 z"/>
<path d="M 222,306.5 l 0,10.5 5.5,0 5.5,0 0,-10.5 0,-10.5 -5.5,0 -5.5,0 0,10.5 z"/>
<path d="M 243,306.5 l 0,10.5 5.5,0 5.5,0 0,-10.5 0,-10.5 -5.5,0 -5.5,0 0,10.5 z"/>
<path d="M 273.4,301.3 c -0.3,0.8 -0.3,5.6 -0.2,10.8 0.3,8.9 0.4,9.4 2.6,9.7 1.6,0.3 2.2,1 2.2,3 0,3.8 1.4,5.4 4.1,5 2,-0.2 2.5,-1 2.7,-4.1 0.3,-3.3 0.6,-3.7 3.2,-3.7 2.6,0 2.9,0.4 3.2,3.7 0.3,3.3 0.7,3.8 3,4.1 2.4,0.3 2.7,0 3,-3.5 0.2,-3.1 0.7,-3.9 2.6,-4.1 2.1,-0.3 2.2,-0.7 2.2,-11.3 l 0,-10.9 -14,0 c -10.8,0 -14.2,0.3 -14.6,1.3 z"/>
<path d="M 88.6,303.2 c -2.1,2.9 -2,5.1 0.2,7.1 1.7,1.5 5.5,1.7 34.6,1.7 20.6,0 33.4,-0.4 34.7,-1 1.3,-0.7 1.9,-2.1 1.9,-4.5 0,-2.4 -0.6,-3.8 -1.9,-4.5 -1.3,-0.6 -14.1,-1 -35,-1 -33,0 -33,0 -34.5,2.2 z"/>
<path d="M 266.7,301.6 c -1,1 -0.8,14.6 0.2,16.2 0.5,0.8 1.7,1.2 2.7,1 1.7,-0.3 1.9,-1.3 1.9,-8.8 0,-7.8 -0.2,-8.5 -2,-8.8 -1.2,-0.2 -2.4,0 -2.8,0.4 z"/>
<path d="M 304,310.1 c 0,8.8 0.1,9 2.3,8.7 2.1,-0.3 2.2,-0.8 2.5,-9.1 l 0.3,-8.7 -2.6,0 c -2.5,0 -2.5,0 -2.5,9.1 z"/>
<path d="M 281.5,138.5 c -3.5,3.4 -3.4,9.3 0,12.5 2.3,2.2 2.9,2.3 5.7,1.2 1.8,-0.6 3.2,-1.1 3.3,-0.9 1.4,2.3 4.5,11.6 4.5,13.3 0,2.6 1.9,7.4 3,7.4 0.4,0 1.7,-1.1 2.9,-2.4 2.8,-2.9 2.4,-4.6 -3,-13.7 -2.3,-3.9 -3.9,-7.8 -3.9,-9.7 0,-4.3 -1.8,-7.8 -4.7,-9.1 -3.6,-1.6 -5.1,-1.4 -7.8,1.4 z m 2.4,7 c 0.3,1.7 0.2,1.7 -1.3,0.3 -1.9,-2 -2.1,-3.1 -0.3,-2.6 0.6,0.3 1.4,1.3 1.6,2.3 z m 6,0.2 c -0.1,1.7 -0.3,2.1 -0.6,1 -0.5,-1.8 -2.3,-2.4 -2.3,-0.7 0,0.5 -0.5,1 -1,1 -0.7,0 -0.7,-0.6 0,-2 1.6,-3 4,-2.5 3.9,0.7 z"/>
<path d="M 47.5,142.2 c -5.8,2.9 -7.5,4.7 -10.1,10.3 -2.9,6.2 -3,11.2 -0.3,17 5.1,10.8 17.1,15.3 27.7,10.5 12.6,-5.7 16.2,-20.3 7.9,-32.3 -4.5,-6.5 -17.5,-9.3 -25.2,-5.5 z m 14.1,10.7 c 6.1,3.7 6.2,12.4 0.1,16.1 -4.3,2.7 -8,2.5 -11.6,-0.6 -4.2,-3.5 -5,-8.3 -2.1,-12.4 3.7,-5.2 8.4,-6.2 13.6,-3.1 z"/>
<path d="M 181.2,160.7 l 0.3,10.8 5,0 5,0 0.3,-10.8 0.3,-10.7 -5.6,0 -5.6,0 0.3,10.7 z"/>
<path d="M 202,161 l 0,11.1 5.3,-0.3 5.2,-0.3 0,-10.5 0,-10.5 -5.2,-0.3 -5.3,-0.3 0,11.1 z"/>
<path d="M 222.4,151.3 c -0.3,0.8 -0.3,5.6 -0.2,10.8 l 0.3,9.4 5.3,0.3 5.2,0.3 0,-11 0,-11.1 -5,0 c -3.3,0 -5.2,0.5 -5.6,1.3 z"/>
<path d="M 243.2,160.7 l 0.3,10.8 5,0 5,0 0.3,-10.8 0.3,-10.7 -5.6,0 -5.6,0 0.3,10.7 z"/>
<path d="M 277.3,155.6 c -5,7.7 -6.4,12.4 -3.9,12.4 0.7,0 2.1,-2 3,-4.5 1,-2.5 2.2,-4.5 2.7,-4.5 0.6,0 0.7,-0.4 0.4,-1 -0.3,-0.5 -0.1,-1.9 0.5,-3 2.4,-4.5 0.2,-4 -2.7,0.6 z"/>
<path d="M 88.6,157.6 c -2,1.9 -2,4.4 -0.2,7 1.4,1.8 3.1,1.9 34.1,2.2 28.3,0.2 33.1,0.1 35.1,-1.3 2.6,-1.7 3.3,-6.2 1.2,-8.3 -0.9,-0.9 -10,-1.2 -34.9,-1.2 -29.4,0 -34,0.2 -35.3,1.6 z"/>
<path d="M 269.3,171.3 c -2.8,1.9 -3.3,2.7 -3,5.7 0.2,3.3 0.5,3.6 6,5.3 9.7,3.1 11.7,0.7 6.1,-7.7 -2,-3.1 -4.2,-5.6 -4.8,-5.5 -0.6,0 -2.6,1.1 -4.3,2.2 z"/>
<path d="M 293,174.7 c 0,3.1 -0.3,4.3 -0.9,3.4 -0.6,-1 -1.3,-1.1 -2.9,-0.2 -1.1,0.6 -3,1.1 -4.1,1.1 -1.2,0 -2.1,0.6 -2.1,1.4 0,1.1 1.1,1.4 4.4,1.1 3,-0.2 4.9,0.1 5.7,1.1 1.7,2.1 3.3,1.7 8.4,-1.8 4.7,-3.3 5.6,-5.2 3,-6.2 -0.8,-0.3 -1.5,-1.5 -1.5,-2.6 0,-2.5 -0.8,-2.5 -3.3,-0.3 -1.8,1.7 -1.9,1.7 -3.2,0 -2.2,-3 -3.5,-1.9 -3.5,3 z"/>
<path d="M 278.6,173.5 c 1.8,2.8 2.4,3.1 2.4,1.2 0,-0.7 -0.9,-1.8 -2,-2.5 -2,-1.2 -2.1,-1.2 -0.4,1.3 z"/>
</svg>
