<svg xmlns="http://www.w3.org/2000/svg" viewBox="0 0 384 384">
<path d="M 238.1,33 l -15.2,16 -32.2,0.2 -32.2,0.3 0.3,15 c 0.5,21.5 4.6,52.4 9.4,70.3 3.6,13.6 3.8,12.7 -2.4,12.7 -2.9,0.1 -22.4,0.6 -43.3,1.3 -20.9,0.7 -47.2,1.5 -58.4,1.8 -24.6,0.8 -23.6,0.2 -24.5,13.1 -0.4,4.8 -1.3,16 -2.1,24.8 -2,20.9 -3.3,37.1 -4.5,52.5 -0.5,6.9 -1.4,17 -2,22.5 -3.2,31.9 -3,34.5 3.3,34.5 1.7,0 6.7,0.4 11.1,1 4.5,0.5 15.3,1.7 24.1,2.5 8.8,0.9 21.9,2.2 29,3 7.2,0.8 20,2.1 28.5,3 8.5,0.8 19.8,2 25,2.6 5.2,0.5 14.7,1.4 21,1.9 6.3,0.5 12.9,1.2 14.5,1.5 1.7,0.4 9.8,1.3 18,2.1 8.3,0.8 17.1,1.7 19.6,2 6.3,0.9 7.6,-0.7 8.3,-9.8 0.3,-4 1,-13.8 1.6,-21.8 0.6,-8 1.5,-21 2.1,-29 0.6,-8 1.4,-14.9 1.9,-15.3 0.4,-0.5 1.8,-0.6 3,-0.2 1.9,0.6 2,0.8 0.6,1.8 -1.3,1 -1.8,4.7 -2.6,18.2 -0.6,9.3 -1.2,18.3 -1.5,20 -0.3,1.6 -1,9.8 -1.5,18.2 -0.6,8.3 -1.3,15.9 -1.6,16.7 -0.5,1.3 0.1,1.6 2.5,1.6 3.9,0 5.1,-2.6 5.1,-11.4 0,-3.5 0.6,-13 1.4,-21.2 2.5,-25.9 3,-40.5 1.5,-41.5 -0.9,-0.5 2.7,-0.9 8.8,-0.9 8.8,0 11.4,-0.4 18.2,-2.9 10.4,-3.8 18,-9.1 27.6,-19.3 29.2,-30.8 47.7,-85.7 51.5,-152.7 0.5,-9.5 0.7,-17.8 0.4,-18.2 -0.3,-0.5 -15,-0.9 -32.7,-0.9 l -32.2,0 -16,-16 c -8.8,-8.8 -16.5,-16 -17.1,-16 -0.6,0 -7.9,7.2 -16.3,16 z m 29.9,21.5 l 12.5,12.5 26.8,0 26.9,0 -0.7,10.2 c -2.3,37.7 -12.1,75.7 -26.7,103.7 -7.4,14.1 -11.3,19.7 -20.8,29.1 -11.6,11.6 -18.5,15 -30.7,15 -6.8,0 -8.4,-0.3 -7.5,-1.2 0.7,-0.7 1.2,-2.5 1.2,-4 0,-2.7 0.1,-2.8 4,-2.2 5.2,0.8 12.7,-1.6 20,-6.6 6.6,-4.5 14.5,-12.9 13.2,-14.2 -0.9,-0.9 -2.2,-0.6 -26.2,6 -8,2.2 -16.3,4.2 -18.5,4.5 -2.2,0.3 -3.2,0.3 -2.2,0.1 1.2,-0.4 1.7,-1.6 1.7,-4 0,-3.2 -0.2,-3.4 -2.7,-2.8 -2.2,0.4 -2.4,0.3 -1.3,-0.5 0.8,-0.6 4,-1.6 7,-2.3 6.6,-1.4 5.1,-1 13.5,-3.5 3.9,-1.2 11.5,-3.3 17,-4.8 21.3,-5.7 21.8,-5.9 24.2,-10.1 1.3,-2.2 2.8,-5 3.4,-6.4 0.6,-1.4 1.7,-3.8 2.5,-5.4 0.8,-1.6 1.2,-3.1 0.9,-3.4 -0.2,-0.3 -3.7,0.4 -7.7,1.6 -4,1.1 -11.8,3.2 -17.3,4.7 -5.5,1.5 -12,3.3 -14.5,4.1 -2.5,0.7 -6.5,1.8 -9,2.3 -2.5,0.6 -7,1.7 -10,2.6 -7.6,2.1 -10.1,2.5 -9.5,1.4 0.4,-0.5 1.7,-0.9 3.1,-0.9 2.1,0 2.4,-0.5 2.4,-3.5 0,-3.3 -0.2,-3.5 -2.7,-2.9 -1.6,0.3 -4,1 -5.5,1.4 -1.6,0.5 -2.8,0.5 -2.8,0 0,-0.9 5.7,-2.5 7.7,-2.2 0.6,0.2 1.4,-0.2 1.8,-0.8 0.3,-0.5 1.7,-1 3,-1 2.2,0 2.3,0.3 1.8,3.5 -0.6,3.7 0,4.1 4.5,2.9 1.7,-0.5 2.2,-1.4 2.2,-4 0,-3.2 -0.2,-3.4 -2.7,-2.9 -2,0.5 -2.4,0.4 -1.3,-0.3 1.3,-0.9 12.9,-4.2 26.5,-7.7 8.6,-2.2 26.8,-7.3 31,-8.7 3.9,-1.3 4,-1.3 7.3,-12.1 2,-6.3 3.1,-11.2 2.5,-11.8 -0.5,-0.5 -3.6,-0.1 -7.3,1 -3.6,1.1 -10.8,3.1 -16,4.5 -5.2,1.4 -16.2,4.4 -24.5,6.7 -26.2,7.2 -24.9,6.9 -24.2,5.3 1.1,-2.5 -19.7,-2.1 -26.8,0.6 -1.7,0.6 -3,1.1 -3,1 0,-0.4 -6.4,1.3 -9.8,2.6 -4.3,1.6 -5.4,1.3 -6.7,-2.2 -1.3,-3.3 -5.7,-3.4 -6.2,-0.2 -0.7,4.2 -7.4,-19.9 -10.1,-36.2 -3.3,-20 -4.7,-31.1 -4.7,-38.4 l 0,-7.6 26.3,0 26.2,0 12.5,-12.5 c 6.9,-6.9 12.7,-12.5 13,-12.5 0.3,0 6.1,5.6 13,12.5 z m -95.6,96 c 0.3,0.8 0.1,1.5 -0.4,1.5 -0.6,0 -1,-0.7 -1,-1.5 0,-0.8 0.2,-1.5 0.4,-1.5 0.2,0 0.6,0.7 1,1.5 z m 66.1,-0.4 c -1.6,0.5 -3.9,1.1 -5,1.4 -2.1,0.5 -5.2,1.3 -14.5,4 -3,0.9 -6.4,1.7 -7.5,1.9 -1.1,0.1 -3.3,0.8 -4.9,1.4 -3.4,1.5 -3.2,2.9 2,13.9 2.8,5.9 3.9,7.3 5.2,6.8 2.4,-0.9 15.5,-4.5 16.4,-4.5 0.5,0 0.8,1.7 0.8,3.9 0,3.6 0.2,3.8 2.8,3.4 4.5,-0.6 -3.5,2.3 -10.2,3.7 -3.4,0.7 -5.6,1.7 -5.6,2.5 0,1.7 8.6,13.1 10.5,13.9 0.8,0.3 1.5,0.1 1.5,-0.4 0,-0.6 1,-1 2.3,-1 2.1,0.1 2.1,0.1 0.2,1.2 -5.1,2.7 -6,8 -2,11.8 1.4,1.3 2.5,2.8 2.5,3.4 0,1.9 -15,-13.8 -19.9,-20.9 -6.5,-9.3 -17.1,-30.8 -19.3,-38.9 -0.2,-0.6 2.4,-0.9 5.7,-0.7 3.3,0.1 8.5,-0.3 11.5,-0.9 3,-0.7 6.2,-1.3 7,-1.4 0.8,-0.1 2.2,-0.5 3,-0.9 2.8,-1.2 16.5,-4.6 18.5,-4.6 1.3,0.1 1,0.4 -1,1 z m -45.1,3.4 c 0.3,0.8 0.1,1.5 -0.4,1.5 -0.6,0 -1,-0.7 -1,-1.5 0,-0.8 0.2,-1.5 0.4,-1.5 0.2,0 0.6,0.7 1,1.5 z m -18.5,4.7 c 1.9,6.4 10.5,26.6 14.2,33.3 9,16.6 20.9,31.3 31.9,39.5 5.3,4 6.8,5.5 6,6.5 -0.6,0.7 -1.5,7.3 -2,14.6 -1.2,16.8 -2.9,37.4 -3.8,45.9 l -0.7,6.5 -5,0 c -5.4,-0.1 -26,-1.9 -39,-3.5 -4.4,-0.5 -15,-1.7 -23.5,-2.5 -8.5,-0.8 -21.8,-2.2 -29.5,-3 -7.7,-0.8 -18.7,-2 -24.5,-2.6 -5.8,-0.5 -16.8,-1.7 -24.5,-2.5 -7.7,-0.8 -18.3,-1.8 -23.5,-2.3 -14.1,-1.3 -13.2,-0.5 -12.5,-13 0.3,-5.8 1.1,-14.9 1.6,-20.1 1.3,-12.6 3.7,-39.3 5,-55.5 0.5,-7.2 1.4,-15.4 1.9,-18.4 0.6,-3 1,-8 1,-11.2 0,-3.3 0.5,-6.1 1.3,-6.7 1.5,-1.3 37.4,-3 84.9,-4.1 20.2,-0.5 37.2,-1.2 37.8,-1.6 0.6,-0.4 0.9,-1.3 0.6,-2.1 -0.3,-0.8 -0.2,-1.4 0.3,-1.4 0.4,0 1.4,1.9 2,4.2 z m 68.1,56.1 c 2.7,1.2 5,2.6 5,3 0,0.4 -0.8,0.3 -1.9,-0.2 -1,-0.6 -2.1,-0.7 -2.5,-0.4 -1.2,1.2 -0.6,4.6 1.2,5.9 2.9,2.3 -3.7,0.1 -7.8,-2.6 -3.1,-1.9 -2.5,-2 1.8,-0.3 2.2,0.9 1.5,-5.5 -0.8,-6.7 -1.1,-0.6 -2,-2 -1.9,-3.3 l 0,-2.2 0.9,2.3 c 0.6,1.3 3,3.2 6,4.5 z m -5.1,26.3 c 0.2,0.2 0.2,0.7 -0.2,1 -0.3,0.3 -1.6,-0.2 -2.9,-1.1 l -2.3,-1.7 2.5,0.7 c 1.4,0.4 2.7,0.9 2.9,1.1 z"/>
<path d="M 243.6,64.6 l -9.9,10.4 -24.5,0 -24.5,0 0.7,3.7 c 0.3,2.1 0.6,6.4 0.6,9.6 0,4.3 0.4,5.9 1.6,6.4 1.4,0.5 9.9,-1.5 26.4,-6.2 2.5,-0.8 9.7,-2.7 16,-4.4 35.3,-9.6 41.4,-11.3 42.5,-12.3 1.2,-1 -15.3,-17.8 -17.5,-17.7 -0.8,0 -5.9,4.7 -11.4,10.5 z"/>
<path d="M 290,77 c -3.6,1 -11.7,3.3 -18,5 -6.3,1.8 -13.7,3.8 -16.5,4.5 -2.7,0.7 -10.2,2.7 -16.5,4.5 -6.3,1.8 -13.7,3.8 -16.5,4.5 -4.1,1.1 -18.3,5 -30.5,8.4 -3.3,1 -3.6,4.3 -1.2,14.1 1.5,6.4 2.1,7.5 3.7,7.2 2,-0.3 5.2,-1.1 35,-9.3 8.3,-2.3 17.3,-4.7 20,-5.4 2.8,-0.8 10.2,-2.8 16.5,-4.5 6.3,-1.8 13.8,-3.8 16.5,-4.5 2.8,-0.8 10.2,-2.8 16.5,-4.5 6.3,-1.8 14.3,-3.9 17.8,-4.8 3.5,-0.9 6.7,-2.3 7.2,-3.1 0.4,-0.9 0.9,-4.3 1.1,-7.6 l 0.4,-6 -14.5,-0.1 c -11.1,-0.1 -16,0.3 -21,1.6 z"/>
<path d="M 318,101.2 c -1.9,0.5 -5.7,1.5 -8.5,2.3 -5,1.5 -26.8,7.4 -44.5,12.1 -5.2,1.4 -12.6,3.4 -16.5,4.5 -3.8,1.1 -11.3,3.2 -16.5,4.5 -5.2,1.4 -12.6,3.4 -16.5,4.5 -3.8,1.1 -9.7,2.7 -13,3.6 -3.3,0.8 -6.3,1.8 -6.7,2.2 -0.8,0.7 2,11.4 3.8,14.4 1,1.8 1.5,1.7 10.8,-0.7 5.4,-1.4 11.2,-3 13,-3.6 2.8,-1 17,-4.8 42.6,-11.6 5.2,-1.4 12.7,-3.4 16.5,-4.5 3.9,-1.1 11.3,-3.2 16.5,-4.5 18.6,-4.9 20.1,-5.5 20.9,-7.7 1.6,-4.1 3.2,-15 2.4,-15.7 -0.4,-0.4 -2.4,-0.3 -4.3,0.2 z"/>
<path d="M 245.7,198.7 c -0.4,0.3 -0.7,2.2 -0.7,4 0,2.4 0.4,3.3 1.3,2.9 0.6,-0.3 2,-0.9 3,-1.2 1.1,-0.4 1.7,-1.7 1.7,-3.5 0,-2.4 -0.4,-2.9 -2.3,-2.9 -1.3,0 -2.7,0.3 -3,0.7 z"/>
<path d="M 131,311.9 c 0,0.5 1.4,4.8 3.1,9.5 4.8,13.1 4.8,13.1 -13.7,14 -14.7,0.7 -30.2,3.2 -36.6,5.9 -5.3,2.2 -6.8,4.3 -6.8,9.2 0,7.8 5,10.3 26.5,13.6 31.7,4.7 77.8,0.6 85.6,-7.7 1.8,-1.9 2.1,-3.1 1.6,-7 -0.3,-2.7 -1.1,-5.1 -2,-5.5 -0.8,-0.5 -1.8,-2.1 -2.2,-3.6 -1.6,-7 -7.8,-22.9 -9.3,-24.1 -0.9,-0.6 -3.6,-1.2 -6.1,-1.2 -2.5,0 -10.2,-0.6 -17.1,-1.4 -20.4,-2.4 -23,-2.5 -23,-1.7 z m -3,46.6 l 12.5,1.3 -12,0 c -6.6,0.1 -14.9,-0.5 -18.5,-1.2 l -6.5,-1.4 6,0 c 3.3,0 11.6,0.5 18.5,1.3 z"/>
</svg>
