<svg xmlns="http://www.w3.org/2000/svg" viewBox="0 0 384 384">
<path d="M 38.7,150.7 c -0.4,0.3 -0.7,19.2 -0.7,42 l 0,41.3 4.3,-0.6 c 2.3,-0.3 5.2,-0.7 6.5,-1 l 2.2,-0.4 0.1,-22.3 0,-22.2 7.6,21.2 c 8.5,23.9 6.9,22.1 17.7,20.7 l 4.6,-0.7 0,-39.3 0,-39.4 -6.5,0 -6.5,0 -0.2,22.7 -0.3,22.7 -6.4,-18.5 c -3.6,-10.1 -7.3,-20.3 -8.2,-22.7 l -1.8,-4.2 -5.9,0 c -3.2,0 -6.2,0.3 -6.5,0.7 z"/>
<path d="M 95,188.7 l 0,38.8 11.8,-0.8 c 6.4,-0.4 13.6,-1 16,-1.3 l 4.2,-0.5 0,-6.1 0,-6.1 -9.5,0.7 -9.5,0.7 0,-9.5 0,-9.6 8,0 8,0 0,-6 0,-5.9 -7.7,-0.3 -7.8,-0.3 -0.3,-9.7 -0.3,-9.7 9.3,-0.3 9.3,-0.3 0,-6 0,-6 -15.7,-0.3 -15.8,-0.3 0,38.8 z"/>
<path d="M 139,156.5 l 0,6.5 6,0 6,0 0,30.5 0,30.6 6.8,-0.3 6.7,-0.3 0.3,-30.3 0.2,-30.2 6,0 6,0 0,-6.5 0,-6.5 -19,0 -19,0 0,6.5 z"/>
<path d="M 189.7,150.7 c -0.4,0.3 -0.7,16.8 -0.7,36.5 l 0,35.8 7,0 7,0 0,-14 0,-14 8,0 8,0 0,-6 0,-6 -8,0 -8,0 0,-10 0,-10 9,0 9,0 0,-6.5 0,-6.5 -15.3,0 c -8.5,0 -15.7,0.3 -16,0.7 z"/>
<path d="M 233.7,165.2 c -0.4,8.3 -0.7,24.9 -0.7,36.9 l 0,21.7 8.8,0.6 c 4.8,0.3 12,0.8 16,1.1 l 7.2,0.5 0,-6.5 0,-6.5 -5.2,0 c -2.9,0 -7,-0.3 -9,-0.6 l -3.8,-0.7 0,-30.8 0,-30.9 -6.3,0 -6.4,0 -0.6,15.2 z"/>
<path d="M 277,188.5 l 0,38.5 4.8,0 c 2.6,0 5.7,0.3 7,0.6 l 2.2,0.6 0,-39.1 0,-39.1 -7,0 -7,0 0,38.5 z"/>
<path d="M 303,150.4 c 0,0.3 2.9,8.8 6.5,19 3.6,10.2 6.5,18.9 6.5,19.4 0,0.5 -3.4,9.2 -7.5,19.3 -4.1,10 -7.5,18.9 -7.5,19.6 0,0.7 1.2,1.3 2.8,1.3 1.5,0 4.3,0.3 6.3,0.6 l 3.5,0.6 4.4,-11.1 c 2.4,-6.2 4.6,-10.8 5,-10.4 0.4,0.4 2.4,5.8 4.5,12 4.3,12.3 3.3,11.4 13.7,12.8 l 4.7,0.6 -1.8,-5.3 c -1.1,-2.9 -4.6,-13 -8,-22.5 l -6,-17.2 7,-17.3 c 3.9,-9.5 7.5,-18.3 8,-19.6 0.9,-2.3 0.8,-2.3 -6.2,-2 l -7.1,0.3 -3.7,9.2 c -2,5 -3.9,9.4 -4.2,9.8 -0.3,0.3 -2.2,-3.8 -4.1,-9.2 l -3.4,-9.8 -6.7,-0.3 c -3.7,-0.2 -6.7,-0.1 -6.7,0.2 z"/>
</svg>
