<svg xmlns="http://www.w3.org/2000/svg" viewBox="0 0 384 384">
<path d="M 35.4,25.4 c -5.3,2.4 -5.5,3.7 -5.2,44.5 l 0.3,37.3 2.8,2.4 2.8,2.4 37.9,0 37.9,0 2.8,-2.4 2.8,-2.4 0.3,-37.9 c 0.2,-41.7 0.2,-41.9 -5.8,-44 -5.3,-1.8 -72.4,-1.7 -76.6,0.1 z m 75.7,4.6 c 1.8,1 1.9,2.5 1.9,37.9 0,33.1 -0.2,37 -1.7,38.2 -1.3,1.1 -8.5,1.4 -37.3,1.4 -28.8,0 -36,-0.3 -37.3,-1.4 -1.5,-1.2 -1.7,-5.1 -1.7,-37.7 0,-31.6 0.2,-36.5 1.6,-37.8 1.3,-1.4 6.1,-1.6 37,-1.6 22.6,0 36.2,0.4 37.5,1 z"/>
<path d="M 56,39.5 c 0,2 0.5,2.5 2.5,2.5 2,0 2.5,-0.5 2.5,-2.5 0,-2 -0.5,-2.5 -2.5,-2.5 -2,0 -2.5,0.5 -2.5,2.5 z"/>
<path d="M 66,39.5 c 0,2 0.5,2.5 2.5,2.5 2,0 2.5,-0.5 2.5,-2.5 0,-2 -0.5,-2.5 -2.5,-2.5 -2,0 -2.5,0.5 -2.5,2.5 z"/>
<path d="M 76,39.5 c 0,2 0.5,2.5 2.5,2.5 2,0 2.5,-0.5 2.5,-2.5 0,-2 -0.5,-2.5 -2.5,-2.5 -2,0 -2.5,0.5 -2.5,2.5 z"/>
<path d="M 86,39.5 c 0,2 0.5,2.5 2.5,2.5 2,0 2.5,-0.5 2.5,-2.5 0,-2 -0.5,-2.5 -2.5,-2.5 -2,0 -2.5,0.5 -2.5,2.5 z"/>
<path d="M 50.2,46.2 c -1.7,1.7 -1.7,44.9 0,46.6 1.7,1.7 44.9,1.7 46.6,0 1.7,-1.7 1.7,-44.9 0,-46.6 -1.7,-1.7 -44.9,-1.7 -46.6,0 z m 7.8,4.4 c 1.1,1.2 1,1.8 -0.3,3.2 -1.6,1.5 -1.8,1.5 -3.4,0 -1.3,-1.4 -1.4,-2 -0.3,-3.2 0.7,-0.9 1.6,-1.6 2,-1.6 0.4,0 1.3,0.7 2,1.6 z m 35,35 c 1.1,1.2 1,1.8 -0.3,3.2 -1.6,1.5 -1.8,1.5 -3.4,0 -1.3,-1.4 -1.4,-2 -0.3,-3.2 0.7,-0.9 1.6,-1.6 2,-1.6 0.4,0 1.3,0.7 2,1.6 z"/>
<path d="M 41.7,52.7 c -0.4,0.3 -0.7,1.5 -0.7,2.5 0,1.3 0.7,1.8 2.5,1.8 2,0 2.5,-0.5 2.5,-2.5 0,-1.8 -0.5,-2.5 -1.8,-2.5 -1,0 -2.2,0.3 -2.5,0.7 z"/>
<path d="M 101,54.5 c 0,2 0.5,2.5 2.5,2.5 2,0 2.5,-0.5 2.5,-2.5 0,-2 -0.5,-2.5 -2.5,-2.5 -2,0 -2.5,0.5 -2.5,2.5 z"/>
<path d="M 41,64.5 c 0,2 0.5,2.5 2.5,2.5 2,0 2.5,-0.5 2.5,-2.5 0,-2 -0.5,-2.5 -2.5,-2.5 -2,0 -2.5,0.5 -2.5,2.5 z"/>
<path d="M 101,64.5 c 0,2 0.5,2.5 2.5,2.5 2,0 2.5,-0.5 2.5,-2.5 0,-2 -0.5,-2.5 -2.5,-2.5 -2,0 -2.5,0.5 -2.5,2.5 z"/>
<path d="M 41,74.5 c 0,2 0.5,2.5 2.5,2.5 2,0 2.5,-0.5 2.5,-2.5 0,-2 -0.5,-2.5 -2.5,-2.5 -2,0 -2.5,0.5 -2.5,2.5 z"/>
<path d="M 101,74.5 c 0,2 0.5,2.5 2.5,2.5 2,0 2.5,-0.5 2.5,-2.5 0,-2 -0.5,-2.5 -2.5,-2.5 -2,0 -2.5,0.5 -2.5,2.5 z"/>
<path d="M 41,84.5 c 0,2 0.5,2.5 2.5,2.5 2,0 2.5,-0.5 2.5,-2.5 0,-2 -0.5,-2.5 -2.5,-2.5 -2,0 -2.5,0.5 -2.5,2.5 z"/>
<path d="M 101,84.5 c 0,2 0.5,2.5 2.5,2.5 2,0 2.5,-0.5 2.5,-2.5 0,-2 -0.5,-2.5 -2.5,-2.5 -2,0 -2.5,0.5 -2.5,2.5 z"/>
<path d="M 56,99.5 c 0,2 0.5,2.5 2.5,2.5 2,0 2.5,-0.5 2.5,-2.5 0,-2 -0.5,-2.5 -2.5,-2.5 -2,0 -2.5,0.5 -2.5,2.5 z"/>
<path d="M 66,99.5 c 0,2 0.5,2.5 2.5,2.5 2,0 2.5,-0.5 2.5,-2.5 0,-2 -0.5,-2.5 -2.5,-2.5 -2,0 -2.5,0.5 -2.5,2.5 z"/>
<path d="M 76,99.5 c 0,2 0.5,2.5 2.5,2.5 2,0 2.5,-0.5 2.5,-2.5 0,-2 -0.5,-2.5 -2.5,-2.5 -2,0 -2.5,0.5 -2.5,2.5 z"/>
<path d="M 86,99.5 c 0,2 0.5,2.5 2.5,2.5 2,0 2.5,-0.5 2.5,-2.5 0,-2 -0.5,-2.5 -2.5,-2.5 -2,0 -2.5,0.5 -2.5,2.5 z"/>
<path d="M 142,43 l 0,12 105.5,0 105.5,0 0,-12 0,-12 -105.5,0 -105.5,0 0,12 z"/>
<path d="M 142.7,80.7 c -0.4,0.3 -0.7,6 -0.7,12.5 l 0,11.8 93.5,0 93.6,0 -0.3,-12.3 -0.3,-12.2 -92.6,-0.3 c -50.9,-0.1 -92.9,0.1 -93.2,0.5 z"/>
<path d="M 35.4,149.4 c -5.3,2.4 -5.5,3.7 -5.2,44.5 l 0.3,37.3 2.8,2.4 2.8,2.4 37.9,0 37.9,0 2.8,-2.4 2.8,-2.4 0.3,-37.9 c 0.2,-41.7 0.2,-41.9 -5.8,-44 -5.3,-1.8 -72.4,-1.7 -76.6,0.1 z m 75.7,4.6 c 1.8,1 1.9,2.5 1.9,37.9 0,33.1 -0.2,37 -1.7,38.2 -1.3,1.1 -8.5,1.4 -37.3,1.4 -28.8,0 -36,-0.3 -37.3,-1.4 -1.5,-1.2 -1.7,-5.1 -1.7,-37.7 0,-31.6 0.2,-36.5 1.6,-37.8 1.3,-1.4 6.1,-1.6 37,-1.6 22.6,0 36.2,0.4 37.5,1 z"/>
<path d="M 51.7,163.7 c -1,1.7 -7.8,39.6 -7.2,40.2 0.9,0.8 58.1,0.8 59,0 0.6,-0.6 -6.2,-38.5 -7.2,-40.2 -0.6,-0.9 -44,-0.9 -44.6,0 z"/>
<path d="M 44.2,214.5 l 0.3,8 29.5,0 29.5,0 0.3,-8 0.3,-8 -30.1,0 -30.1,0 0.3,8 z m 6.8,-0.5 c 0,1.5 0.7,2 2.5,2 1.8,0 2.5,-0.5 2.5,-2 0,-1.1 0.5,-2 1,-2 0.6,0 1,0.9 1,2 0,1.4 0.7,2 2.1,2 1.2,0 2.3,-0.8 2.6,-2 0.3,-1.1 0.9,-2 1.4,-2 0.5,0 0.9,0.9 0.9,2 0,1.3 0.7,2 2,2 1.3,0 2,-0.7 2,-2 0,-1.1 0.7,-2 1.5,-2 0.8,0 1.5,0.9 1.5,2 0,1.3 0.7,2 2,2 1.3,0 2,-0.7 2,-2 0,-1.1 0.7,-2 1.5,-2 0.8,0 1.5,0.9 1.5,2 0,1.3 0.7,2 2,2 1.3,0 2,-0.7 2,-2 0,-1.1 0.5,-2 1,-2 0.6,0 1,1.3 1,3 l 0,3 -18,0 -18,0 0,-3 c 0,-1.7 0.5,-3 1,-3 0.6,0 1,0.9 1,2 z m 47.5,1 c 0,3.1 -3.3,4 -5.2,1.4 -1.6,-2.2 0.1,-4.6 3.1,-4.2 1.5,0.2 2.1,1 2.1,2.8 z"/>
<path d="M 142,167 l 0,12 105.5,0 105.5,0 0,-12 0,-12 -105.5,0 -105.5,0 0,12 z"/>
<path d="M 142,217 l 0,12 93.5,0 93.5,0 0,-12 0,-12 -93.5,0 -93.5,0 0,12 z"/>
<path d="M 319.5,267 c -13.5,2.8 -24.8,10.6 -31.9,21.8 -17.9,28.9 -0.2,67.1 33.7,72.4 23.9,3.7 46.9,-11.8 53.2,-35.9 6.6,-25.4 -10.2,-52.3 -36.2,-57.8 -7.4,-1.6 -12.7,-1.7 -18.8,-0.5 z m 15.5,19 c 4.1,4.1 3.5,9.3 -1.5,12.6 -4.6,3 -11.5,-1.1 -11.5,-6.8 0,-6.4 8.6,-10.2 13,-5.8 z m 2,38.5 l 0,17.5 -6.9,0 -6.8,0 -0.6,-8.3 c -0.4,-4.5 -0.7,-11 -0.7,-14.4 l 0,-6.2 -3.7,-0.3 c -3.3,-0.3 -3.8,-0.7 -4.1,-3.1 l -0.3,-2.7 11.5,0 11.6,0 0,17.5 z"/>
<path d="M 35.4,273.4 c -5.3,2.4 -5.5,3.7 -5.2,44.5 l 0.3,37.3 2.8,2.4 2.8,2.4 37.9,0 37.9,0 2.8,-2.4 2.8,-2.4 0.3,-37.9 c 0.2,-41.7 0.2,-41.9 -5.8,-44 -5.3,-1.8 -72.4,-1.7 -76.6,0.1 z m 75.7,4.6 c 1.8,1 1.9,2.5 1.9,37.9 0,33.1 -0.2,37 -1.7,38.2 -2.4,2 -72.2,2 -74.6,0 -1.5,-1.2 -1.7,-5.1 -1.7,-37.7 0,-31.6 0.2,-36.5 1.6,-37.8 1.3,-1.4 6.1,-1.6 37,-1.6 22.6,0 36.2,0.4 37.5,1 z"/>
<path d="M 63.5,307.1 c -15.3,18.3 -16.8,20.4 -17.3,24.6 -0.6,5.9 1.5,10 7.1,13.6 4.8,3.2 9,3.4 13.3,0.8 3.6,-2.2 34.8,-39.4 35.2,-42.1 0.4,-2.4 -2.9,-8.9 -6,-11.6 -3.5,-3.3 -8.3,-5.4 -12.2,-5.4 -3.3,0 -4.3,1.1 -20.1,20.1 z m 28.4,-14.3 c 3.2,2.3 7.1,7.9 7.1,10.1 0,1.9 -31.1,39.6 -33.9,41.1 -4.4,2.3 -10.9,0.3 -14.6,-4.6 -0.8,-1 -1.5,-3.8 -1.5,-6.1 0,-4.4 -0.2,-4.1 23.5,-32.7 l 9,-10.8 3.9,0.5 c 2.2,0.3 5.1,1.4 6.5,2.5 z"/>
<path d="M 88.4,302.5 c -0.7,2.9 1,5.5 3.6,5.5 2.4,0 4.2,-2.4 3.8,-5.2 -0.2,-1.8 -1,-2.4 -3.5,-2.6 -2.8,-0.3 -3.3,0.1 -3.9,2.3 z m 4.6,1.5 c 0,0.5 -0.4,1 -1,1 -0.5,0 -1,-0.5 -1,-1 0,-0.6 0.5,-1 1,-1 0.6,0 1,0.4 1,1 z"/>
<path d="M 73.6,301.8 c -0.7,1.2 3.2,4.8 4.1,3.8 0.8,-0.8 -0.8,-3.8 -2.4,-4.3 -0.6,-0.2 -1.4,0 -1.7,0.5 z"/>
<path d="M 70.2,307.2 c 0.6,1.6 3.6,3.4 4.4,2.5 0.9,-0.9 -1.5,-3.7 -3.3,-3.7 -0.8,0 -1.3,0.5 -1.1,1.2 z"/>
<path d="M 79.2,307.2 c 0.6,1.6 3.6,3.4 4.4,2.5 0.9,-0.9 -1.5,-3.7 -3.3,-3.7 -0.8,0 -1.3,0.5 -1.1,1.2 z"/>
<path d="M 66.2,311.2 c 0.6,1.6 3.6,3.4 4.4,2.5 0.9,-0.9 -1.5,-3.7 -3.3,-3.7 -0.8,0 -1.3,0.5 -1.1,1.2 z"/>
<path d="M 75.6,310.9 c -0.3,0.4 0.3,1.6 1.3,2.5 2.2,2 4,0.4 2.1,-1.9 -1.4,-1.7 -2.6,-1.9 -3.4,-0.6 z"/>
<path d="M 84.6,310.8 c -0.7,1.2 3.2,4.8 4.1,3.8 0.8,-0.8 -0.8,-3.8 -2.4,-4.3 -0.6,-0.2 -1.4,0 -1.7,0.5 z"/>
<path d="M 72,315.9 c 0,1.2 2.9,3.5 3.6,2.8 1.1,-1 -0.5,-3.7 -2.1,-3.7 -0.8,0 -1.5,0.4 -1.5,0.9 z"/>
<path d="M 81,315.9 c 0,1.5 2.8,3.3 4,2.6 0.8,-0.5 0.8,-1.1 -0.1,-2.1 -1.3,-1.5 -3.9,-1.9 -3.9,-0.5 z"/>
<path d="M 77,319.8 c 0,0.5 0.9,1.7 1.9,2.6 1.4,1.3 2.1,1.4 2.7,0.5 0.4,-0.7 -0.1,-1.8 -1.1,-2.6 -2.1,-1.5 -3.5,-1.7 -3.5,-0.5 z"/>
<path d="M 60.7,321.8 c -2,2.1 -2.2,4.2 -0.6,4.2 1.4,0 3.8,-3 3.9,-4.8 0,-1.7 -1.4,-1.5 -3.3,0.6 z"/>
<path d="M 67,321.1 c 0,1.2 2.9,3.8 4.3,3.9 1.5,0 0.6,-3 -1.2,-4 -2.5,-1.3 -3.1,-1.3 -3.1,0.1 z"/>
<path d="M 64.7,325.6 c -0.8,0.8 0.1,2.4 1.4,2.4 0.5,0 0.9,-0.7 0.9,-1.5 0,-1.5 -1.2,-2 -2.3,-0.9 z"/>
<path d="M 60.2,328.7 c -1,0.4 -0.9,0.9 0.4,2.4 1.7,1.9 4.4,2.6 4.4,1.1 0,-1.5 -3.4,-4 -4.8,-3.5 z"/>
<path d="M 69.2,329.2 c -1.5,1.5 -1.6,4.1 0,3.6 0.6,-0.2 1.8,-1.4 2.6,-2.6 1.2,-1.9 1.2,-2.2 0,-2.2 -0.8,0 -1.9,0.5 -2.6,1.2 z"/>
<path d="M 52.6,331.9 c -0.4,0.7 -0.5,1.5 -0.2,1.8 0.9,0.9 1.9,-0.4 1.4,-1.8 -0.4,-1.1 -0.6,-1.1 -1.2,0 z"/>
<path d="M 56.3,336.2 c 0.2,0.7 0.7,1.3 1.2,1.3 0.5,0 1,-0.6 1.3,-1.3 0.2,-0.6 -0.4,-1.2 -1.3,-1.2 -0.9,0 -1.5,0.6 -1.2,1.2 z"/>
<path d="M 61,340 c 0,0.5 0.5,1 1,1 0.6,0 1,-0.5 1,-1 0,-0.6 -0.4,-1 -1,-1 -0.5,0 -1,0.4 -1,1 z"/>
<path d="M 142.2,291.2 l 0.3,12.3 60.5,0 60.4,0 1.3,-4.5 c 0.8,-2.5 2.2,-8 3.2,-12.3 l 1.8,-7.7 -63.9,0 -63.9,0 0.3,12.2 z"/>
<path d="M 142,341 l 0,12 65,0 c 35.8,0 65,-0.2 65,-0.4 0,-0.4 -4.3,-16.7 -5.6,-21.4 l -0.6,-2.2 -61.9,0 -61.9,0 0,12 z"/>
</svg>
