<svg xmlns="http://www.w3.org/2000/svg" viewBox="0 0 384 384">
<path d="M 24,79.2 c -7.5,5.1 -7.5,5 -7.8,33.6 -0.3,25.3 -0.3,25.7 1.9,27.4 1.1,1 2.9,1.8 3.9,1.8 0.9,0 2.5,0.9 3.5,2 2.6,2.9 1,7.2 -3.1,8.5 -6.8,2.2 -6.4,-0.4 -6.4,44.1 l 0,40.3 2.2,1.5 c 1.7,1.2 4.9,1.6 13.5,1.6 l 11.3,0 0,19.3 c 0,15.8 0.3,19.7 1.6,21.5 l 1.5,2.2 46.4,0 46.4,0 1.5,-2.2 c 1.1,-1.5 1.6,-4.5 1.6,-8.6 0,-7.9 1.1,-10.2 5,-10.2 4.4,0 6,3.1 6,11.5 0,4.2 0.5,7.6 1.2,8.3 0.9,0.9 11.5,1.2 41.4,1.2 l 40.2,0 0.6,-3.1 c 1.2,-6.1 0.9,-6.8 -3.1,-7.1 l -3.8,-0.3 -0.3,-10.8 -0.3,-10.7 -5.4,0 -5.5,0 0,11.1 0,11 -5.2,-0.3 -5.3,-0.3 -0.3,-10.8 -0.3,-10.7 -5.4,0 -5.5,0 0,11.1 0,11 -5.2,-0.3 -5.3,-0.3 -0.3,-10.8 -0.3,-10.7 -4.9,0 -4.9,0 -0.3,10.7 -0.3,10.8 -5.1,0.3 -5.1,0.3 -0.7,-5.7 c -0.8,-7.2 -3.3,-11.3 -8.6,-14.3 -3.3,-1.9 -5.2,-2.2 -9.2,-1.9 -8.5,0.9 -13.7,6.3 -14.7,15.5 l -0.6,5.8 -5.2,0.3 -5.3,0.3 0,-11 0,-11.1 -5.5,0 -5.4,0 -0.3,10.7 -0.3,10.8 -5.2,0.3 -5.3,0.3 0,-11 0,-11.1 -5.5,0 -5.5,0 0,11.1 0,11 -5.2,-0.3 -5.3,-0.3 -0.3,-10.8 -0.3,-10.7 -5.4,0 -5.5,0 0,11.1 0,11 -5.2,-0.3 -5.3,-0.3 -0.3,-16.2 -0.2,-16.3 98.1,-0.2 98.1,-0.3 4.6,-5.3 4.5,-5.2 -116.2,0 -116.1,0 0,-33.5 c 0,-26.9 0.3,-33.5 1.3,-33.5 1.8,0 7.4,-6 8.6,-9.3 0.6,-1.6 1.1,-4 1.1,-5.4 0,-4.3 -3.9,-11 -7.6,-13.3 l -3.4,-2.2 0,-20.2 c 0,-15.9 0.3,-20.6 1.4,-22.2 1.4,-1.9 4.1,-1.9 151.6,-1.9 147.5,0 150.2,0 151.6,1.9 1.1,1.6 1.4,6.3 1.4,22.2 l 0,20.2 -3.6,2.1 c -2.3,1.4 -4.2,3.7 -5.6,6.7 -3.4,7.9 -1.2,15.3 6,19.9 l 3.1,2 0.1,24.6 0,24.6 5.3,2 5.2,2 0.3,-29.5 c 0.3,-32.6 0.4,-31.5 -6,-33.6 -4.3,-1.4 -6,-5.7 -3.3,-8.6 1,-1.1 2.6,-2 3.5,-2 1,0 2.8,-0.8 3.9,-1.8 2.2,-1.7 2.2,-2.1 1.9,-27.4 -0.3,-28.6 -0.3,-28.5 -7.8,-33.6 l -3.3,-2.2 -152.7,0 -152.7,0 -3.3,2.2 z"/>
<path d="M 54,158 l 0,49 27.5,0 27.5,0 0,-49 0,-49 -27.5,0 -27.5,0 0,49 z m 44,0 l 0,38 -16.5,0 -16.5,0 0,-38 0,-38 16.5,0 16.5,0 0,38 z"/>
<path d="M 120,158 l 0,49 27.5,0 27.5,0 -0.2,-48.8 -0.3,-48.7 -27.2,-0.3 -27.3,-0.2 0,49 z m 43.8,0.2 l 0.2,37.8 -16.5,0 -16.5,0 0,-38 0,-38 16.3,0.2 16.2,0.3 0.3,37.7 z"/>
<path d="M 185.7,109.7 c -0.4,0.3 -0.7,22.4 -0.7,49 l 0,48.3 27.5,0 27.5,0 0,-49 0,-49 -26.8,0 c -14.8,0 -27.2,0.3 -27.5,0.7 z m 43.3,48.3 l 0,38 -16.5,0 -16.5,0 0,-37.3 c 0,-20.6 0.3,-37.7 0.7,-38 0.3,-0.4 7.8,-0.7 16.5,-0.7 l 15.8,0 0,38 z"/>
<path d="M 251,158 l 0,49 27.5,0 27.5,0 0,-49 0,-49 -27.5,0 -27.5,0 0,49 z m 44,0 l 0,38 -16.5,0 -16.5,0 0,-38 0,-38 16.5,0 16.5,0 0,38 z"/>
<path d="M 298.5,221.4 c -25.7,7.1 -41.9,22.8 -48.6,47.1 -4.2,15.2 -2.6,29.6 5.1,45 18.7,38 69.6,47.4 100.3,18.5 22.8,-21.3 28,-50.6 13.9,-77.5 -6.6,-12.6 -20.9,-25.6 -33.3,-30.1 -14.4,-5.3 -25.8,-6.2 -37.4,-3 z m 27.6,13.2 c 22.9,6.7 37.9,26.6 37.9,50.4 0,22.7 -15.4,42.8 -37.9,49.4 -8.3,2.4 -22.1,2.1 -30.1,-0.7 -22,-7.8 -35,-26 -35,-49.2 0,-23.2 13,-41.4 35,-49.2 8,-2.8 21.8,-3.1 30.1,-0.7 z"/>
<path d="M 305.9,250.9 c -3.8,3.9 -4,9.6 -0.4,13.5 1.9,2.1 3.3,2.6 7,2.6 6.3,0 9.5,-3.1 9.5,-9.4 0,-3.7 -0.5,-4.8 -3.1,-7 -4.3,-3.6 -9.1,-3.5 -13,0.3 z"/>
<path d="M 304.3,276.6 c -1,0.4 -1.3,5.7 -1.3,21.5 l 0,20.9 9.5,0 9.5,0 -0.2,-21.3 -0.3,-21.2 -8,-0.2 c -4.4,-0.1 -8.6,0.1 -9.2,0.3 z"/>
<path d="M 240,254.7 c 0,4.1 0.1,4.1 2.4,-0.5 1.6,-3.1 1.6,-3.2 -0.4,-3.2 -1.6,0 -2,0.7 -2,3.7 z"/>
</svg>
