<svg xmlns="http://www.w3.org/2000/svg" viewBox="0 0 384 384">
<path d="M 295.5,17.6 c -4.4,0.8 -8.9,1.6 -10,1.8 -1.1,0.2 -3.8,0.7 -6,1.1 -2.2,0.4 -4.4,1.1 -5,1.5 -0.5,0.5 -2.8,1.2 -5,1.6 -2.2,0.4 -3.5,0.9 -2.8,1.1 1,0.4 9.8,-1.6 24.8,-5.4 1.1,-0.3 7.9,-0.8 15,-1.1 10,-0.4 12.1,-0.7 9,-1.3 -5.4,-1.1 -10.5,-0.9 -20,0.7 z"/>
<path d="M 321.9,19.1 c 1.4,0.6 2.1,1.3 1.5,1.8 -1.4,1.3 -88.2,25.8 -89.2,25.2 -0.5,-0.3 -1.1,-1.6 -1.5,-2.9 -0.4,-1.8 0,-2.6 1.9,-3.4 2.2,-1 3.3,-2.8 1.8,-2.8 -0.3,0 -4.1,1.9 -8.3,4.2 -4.2,2.4 -8.8,4.9 -10.4,5.7 -1.5,0.8 -2.7,1.8 -2.7,2.3 0,0.5 -0.4,0.7 -0.9,0.4 -0.9,-0.6 -7.2,1.2 -8.1,2.3 -0.3,0.3 -0.9,0.6 -1.5,0.7 -0.5,0 -2.5,0.4 -4.3,0.9 -3,0.7 -3.1,0.9 -1.5,2.1 1.5,1.1 1.5,1.3 0.3,1.4 -0.9,0 -2,-0.4 -2.6,-1 -0.6,-0.6 -2.4,-0.4 -4.9,0.5 -2.2,0.8 -4.8,1.4 -5.9,1.5 -3,0 -11.8,5.5 -16.3,10.2 -2.2,2.4 -6.4,8.8 -9.3,14.3 -4.5,8.8 -6.7,11.6 -17.5,22.5 -15.8,16 -22.6,24 -31.2,37 -7.6,11.3 -14.5,24.1 -13.6,25 0.3,0.3 0.8,0 1,-0.6 0.2,-0.6 3.2,-6 6.6,-12 6.5,-11.2 12.4,-19.6 21,-29.7 2.7,-3.1 4.7,-5.7 4.4,-5.7 -0.2,0 3.8,-4.1 8.9,-9.2 5.2,-5 9.6,-8.9 9.9,-8.7 0.3,0.3 -2.7,6.6 -6.6,14 -3.9,7.4 -9.8,18.6 -13.1,24.9 -3.4,6.3 -7.7,14.6 -9.8,18.5 -2,3.8 -7.2,13.6 -11.4,21.7 -12.3,23.5 -13.2,25.2 -14.3,25.5 -1.3,0.5 -2.3,-4.5 -2.3,-11.6 0,-5.8 3.5,-21.8 5.1,-23.6 1.1,-1.1 1.2,-2.5 0.1,-2.5 -0.5,0 -2.4,4.4 -4.2,9.7 -3.1,8.8 -3.4,10.9 -3.4,20.8 -0.1,9.8 0.2,11.6 2.5,16.5 6.8,14.5 20.2,21.4 41.4,21.3 19.1,-0.1 40.3,-5.8 66.3,-17.9 4.1,-1.9 7.8,-3.4 8.3,-3.4 0.6,0 0.7,3.8 0.4,9.2 -1.6,29.5 -1.5,29.2 -3.4,31.3 -11.9,13 3.5,26.6 33.4,29.6 24.8,2.4 48.7,-2.8 57.2,-12.5 5.8,-6.5 5.3,-11.8 -1.7,-18.6 -2.6,-2.6 -4,-4.8 -4,-6.5 0,-1.4 -0.4,-4.5 -1,-6.8 -0.5,-2.3 -1.7,-9.2 -2.6,-15.2 -0.9,-6.1 -3.1,-20.4 -5,-31.9 -1.9,-11.5 -3.4,-21.9 -3.4,-23.2 0,-1.5 2.9,-4.7 9.8,-10.7 19.3,-16.9 36.6,-36.5 48.7,-55.2 13.3,-20.8 16.6,-29.5 17.2,-46.8 0.5,-12.8 0.5,-12.8 -2.6,-19.2 -1.9,-3.8 -5,-8 -7.7,-10.4 -4.7,-4.2 -17.6,-10.1 -21.6,-10 l -2.3,0 2.4,1 z m 15.7,7.6 c 7.7,5.7 11,18.8 8.4,33 -8.3,45 -72.3,110.3 -142.6,145.6 -15.2,7.6 -28.1,12.6 -45.4,17.5 -8.5,2.3 -11.2,2.6 -26,2.7 -16,0 -16.7,-0.1 -22.6,-2.8 -6,-2.8 -11.9,-7.8 -12.6,-10.6 -0.2,-1 1.5,-1.5 7.2,-1.8 7.1,-0.4 18.8,-2.8 27.5,-5.8 5.7,-1.9 17.6,-6.4 20,-7.4 29.1,-13.4 44.1,-21.5 64.5,-34.6 3.9,-2.5 8.2,-4.4 10.7,-4.7 9,-1.2 21.2,-9.3 24.8,-16.4 1.1,-2.2 5,-6.9 8.6,-10.5 9,-8.9 32.9,-39.6 37.9,-48.7 0.9,-1.5 3.8,-6.8 6.6,-11.7 5.6,-10 15.7,-30.4 19.9,-40.5 1.5,-3.6 3.2,-7 3.7,-7.7 1,-1.3 2.8,-0.5 9.4,4.4 z m -16.5,1.5 c -2.8,7.2 -13.5,29.3 -19.6,40.3 -9.5,17.3 -28.4,43.3 -40.7,56.1 -6.4,6.7 -8.5,8.2 -11.6,8.7 -2,0.3 -4.5,0.8 -5.4,1.2 -1.7,0.7 -1.8,-0.4 -1.8,-14.8 0,-15.6 -2,-34.9 -5.9,-57.4 -1.1,-5.9 -1.6,-11.1 -1.3,-11.4 0.4,-0.4 14.7,-4.6 31.7,-9.4 17.1,-4.7 32.1,-9 33.5,-9.5 1.4,-0.5 4.3,-1.4 6.5,-1.9 3.8,-1 14.7,-3.8 15.2,-4 0.1,-0.1 -0.1,0.9 -0.6,2.1 z m -91.8,17.2 c 0.3,0.8 0,1.9 -0.6,2.4 -1.7,1.3 -14.5,5.1 -15.1,4.4 -0.6,-0.5 7.4,-5.8 10.9,-7.2 3,-1.3 4.2,-1.2 4.8,0.4 z m 2.4,13.2 c 4,19.4 5.6,34.7 6,56.4 l 0.5,22.5 -5.6,4.3 c -3,2.3 -7,6.3 -8.7,8.7 -5.8,8.1 -39.5,27.9 -71.9,42.2 -13.4,6 -31,11.5 -42.2,13.3 -11,1.8 -11.3,1.6 -8,-5 3.8,-7.4 14.8,-28.3 18.2,-34.5 1.5,-2.8 5,-9.3 7.7,-14.5 7.6,-14.4 15.9,-30.2 22.7,-43 3.4,-6.3 7,-13.2 8.1,-15.3 1.1,-2.1 5.4,-6.6 9.5,-10.1 6.5,-5.4 11.1,-8.9 26.6,-20.2 3,-2.2 32.8,-11.5 34.9,-11 0.6,0.1 1.5,2.9 2.2,6.2 z m -26.7,-4.2 c 0,0.2 -0.9,0.6 -2,0.9 -1.1,0.3 -2,0.1 -2,-0.4 0,-0.5 0.9,-0.9 2,-0.9 1.1,0 2,0.2 2,0.4 z m -14,9.4 c 0,1.1 -4.1,3.4 -4.8,2.7 -0.4,-0.4 0.2,-1.3 1.2,-2.1 2.2,-1.5 3.6,-1.8 3.6,-0.6 z m -22,16.8 c -4.4,4 -6.3,4 -3.7,0 1.4,-2.1 2.5,-2.7 7,-3.5 0.4,0 -1.1,1.5 -3.3,3.5 z m 104.9,106.4 c 1.1,6.3 2.7,16.4 3.6,22.5 0.9,6 2.5,16.2 3.6,22.6 2.8,17.1 3.2,16 -4.8,13.8 -3.8,-1.1 -11.7,-2.3 -17.8,-2.7 l -11,-0.7 -0.6,-9.5 c -0.4,-5.2 -0.7,-16.6 -0.8,-25.2 l -0.1,-15.7 5.3,-3.5 c 2.8,-1.9 8.4,-5.9 12.2,-8.9 3.9,-3.1 7.3,-5.2 7.7,-4.8 0.4,0.4 1.6,5.8 2.7,12.1 z m -33.9,23.8 c 0,7.7 0.3,18 0.6,23 l 0.7,9.1 -3.9,0.6 c -10,1.5 -16.1,2.9 -18.7,4.2 -1.5,0.8 -3.2,1.1 -3.8,0.8 -0.9,-0.6 -0.4,-30.9 0.6,-36 0.3,-1.1 1.9,-2.8 3.7,-3.9 1.8,-1 5.3,-3 7.8,-4.4 2.5,-1.4 6.1,-3.6 8,-4.9 1.9,-1.2 3.8,-2.3 4.2,-2.3 0.5,0 0.8,6.2 0.8,13.8 z m 1.2,48.7 c 0.4,20.9 0.7,19 -2.8,19.3 -4.5,0.4 -18.1,-3.2 -23.7,-6.3 -4.7,-2.7 -7.7,-5.8 -7.7,-8.1 0,-2.4 5,-7.2 9.7,-9.4 4,-1.9 18.8,-5.7 23.1,-5.9 0.9,-0.1 1.3,2.7 1.4,10.4 z m 29.5,-8.6 c 10.1,2.1 18.6,6.1 21.6,10.2 1.7,2.4 1.8,3 0.6,5.4 -3,6 -18,11.7 -34.6,13 -6.7,0.6 -8.7,0.5 -9.4,-0.6 -0.5,-0.8 -0.9,-7.8 -0.9,-15.7 l 0,-14.2 6.8,0 c 3.7,0 10.8,0.9 15.9,1.9 z"/>
<path d="M 260.8,26.3 c -1.6,0.6 -2.8,1.5 -2.8,2 0,0.5 0.8,0.6 1.8,0.2 0.9,-0.4 2.5,-1 3.5,-1.2 0.9,-0.3 1.7,-0.9 1.7,-1.4 0,-1.1 -0.7,-1 -4.2,0.4 z"/>
<path d="M 252.8,29.7 c -1,0.2 -1.8,0.9 -1.8,1.4 0,1.2 0.3,1.2 3.6,-0.6 2.8,-1.4 1.9,-1.8 -1.8,-0.8 z"/>
<path d="M 243.3,33.8 c -2.9,1.4 -5.3,3 -5.3,3.4 0,0.5 0.8,0.4 1.8,-0.1 0.9,-0.5 3.6,-1.8 5.9,-2.8 2.3,-1 4.3,-2.1 4.3,-2.6 0,-1.1 -1.1,-0.8 -6.7,2.1 z"/>
<path d="M 72.5,244.4 c -23.8,5.5 -41.4,21.2 -48.9,43.8 -12.1,36.1 8.4,74.7 45.3,85.2 8,2.3 25.7,2.1 34.6,-0.3 19.8,-5.5 36.3,-20.7 43.5,-39.9 4.1,-10.9 5.4,-20.6 4,-31.1 -0.6,-5.1 -1.8,-11.1 -2.6,-13.3 -7,-19.9 -22.9,-35.9 -41.9,-42.4 -9.8,-3.2 -24.7,-4.1 -34,-2 z m 11.2,9.6 c 0.3,1.1 1.4,2 2.4,2 1.2,0 1.9,-0.7 1.9,-2 0,-2.5 2.8,-2.6 11.4,-0.4 22.2,5.7 39,23.9 42.4,46 0.9,5.6 0.3,7.4 -3,8.7 -0.9,0.4 -0.5,1.3 1.4,2.9 2.5,2.2 2.6,2.6 1.8,7.6 -1.2,6.9 -1.7,8.5 -5.1,15.7 -8,16.7 -24.9,29.1 -43.7,31.9 -3.9,0.6 -4.3,0.4 -5.2,-1.9 -1.2,-3.1 -2.3,-3.2 -4.4,-0.1 -1.3,2.1 -2.1,2.4 -5.3,1.9 -22.6,-3.1 -41.8,-20.5 -47.8,-43.3 -2.1,-7.7 -1.9,-10.7 0.5,-11.5 2.6,-0.8 2.6,-3.5 0,-4.2 -2.5,-0.7 -2.6,-3.6 -0.5,-11.8 4.1,-15.9 15.1,-30 28.7,-36.9 12.5,-6.3 23.5,-8.4 24.5,-4.6 z"/>
<path d="M 99,286.5 c -22.5,15.9 -20.2,13.4 -39.2,41 -3.4,4.9 -7.5,10.9 -9.2,13.3 -2.3,3.3 -2.7,4.5 -1.8,5.4 1.5,1.5 2.3,1.1 18.2,-10.2 6.3,-4.5 14.8,-10.5 18.9,-13.3 7.9,-5.5 7.8,-5.5 27.6,-34 14.9,-21.7 13.3,-21.9 -14.5,-2.2 z m 10.3,0.5 c -1.2,2.1 -2,2.7 -2.8,1.9 -0.7,-0.7 -0.3,-1.6 1.4,-3 3.2,-2.6 3.5,-2.4 1.4,1.1 z m -7.3,7.9 c 0,1.6 -0.7,3.4 -1.5,4.1 -1.3,1.1 -1.5,0.7 -1.5,-2.7 0,-2.2 0.3,-4.3 0.6,-4.6 1.2,-1.2 2.4,0.4 2.4,3.2 z m -8.5,13.8 c -1,4.1 -2.5,1.4 -2.5,-4.6 0,-7.8 2.4,-10.4 2.8,-3 0.2,2.9 0.1,6.3 -0.3,7.6 z m -6.5,-4.6 c 0,2 -1.5,2.6 -2.5,0.9 -0.9,-1.5 0.3,-4.3 1.5,-3.5 0.5,0.3 1,1.5 1,2.6 z m -2.5,6.9 c 4.6,4.7 5.2,3.9 -9,13.5 -5.5,3.8 -11.1,7.7 -12.4,8.9 -1.8,1.6 -2.3,1.7 -1.8,0.5 0.7,-2.1 18,-26.9 18.7,-26.9 0.3,0 2.4,1.8 4.5,4 z"/>
</svg>
