<svg xmlns="http://www.w3.org/2000/svg" viewBox="0 0 384 384">
<path d="M 296,17.4 c -4.1,0.6 -6.8,1.4 -6,1.7 0.8,0.3 3.3,0.2 5.5,-0.4 8.4,-1.9 31.7,0.2 27.8,2.6 -0.4,0.3 -17,5.1 -36.8,10.7 -19.8,5.6 -39.4,11.2 -43.6,12.5 -4.2,1.2 -8.1,2 -8.7,1.6 -0.5,-0.3 -1.2,-1.7 -1.3,-3.1 -0.3,-2 0.4,-2.8 5.1,-5.2 3,-1.5 4.8,-2.8 4,-2.8 -0.8,0 -4.8,1.6 -8.8,3.7 -7.2,3.6 -7.2,3.6 -5.2,5.6 2.8,2.5 1.4,4.1 -4.8,5.7 -2.6,0.6 -5.7,1.5 -6.9,2 -4.6,1.9 -3,-0.5 3,-4.2 3.4,-2.1 5.7,-3.8 5,-3.8 -1.4,0 -8.7,4.1 -9.1,5.2 -0.2,0.5 -0.7,0.6 -1.2,0.3 -0.4,-0.3 -2.5,0.3 -4.6,1.2 -2.2,0.9 -4.3,1.7 -4.9,1.8 -2.7,0.5 -2.8,0.7 -1,1.5 1.9,0.7 1.8,0.9 -0.8,1.9 -3.7,1.4 -7.2,1.4 -3.7,-0.1 3.7,-1.5 0.6,-2.2 -3.7,-0.7 -2.9,0.9 -3.4,1.4 -2,1.8 1,0.4 -0.7,0.7 -3.7,0.7 -10.9,0.2 -21.1,8.6 -28.8,23.9 -4.2,8.4 -6.4,11.3 -13.7,18.5 -17.3,17.1 -37.9,41.7 -36.9,44.2 0.2,0.4 -0.5,1.3 -1.4,2 -1.6,1.2 -6.8,9.9 -6.8,11.4 0,0.3 0.7,0.1 1.5,-0.6 0.8,-0.7 1.5,-1.7 1.5,-2.2 0,-1.9 12.6,-19.5 21.6,-30.3 10,-11.9 22,-24.2 22.9,-23.4 0.5,0.5 -1.8,4.9 -31,60.4 -8.4,15.9 -17,32.4 -19.1,36.4 -2.2,4.1 -4.4,7.7 -5.1,7.9 -1.6,0.5 -2.7,-7.5 -2.1,-15.6 0.3,-3.7 1.7,-10.1 3.2,-14.2 1.5,-4.1 2.9,-8.4 3.2,-9.5 0.5,-1.9 0.5,-1.9 -0.9,-0.2 -2.7,3.3 -7.6,20.1 -8.3,28.4 -2.2,26.7 13.8,41.7 44.6,41.6 17.7,-0.1 33.3,-4.1 58.8,-15 8.4,-3.6 15.5,-6.3 15.7,-6.1 0.2,0.2 0,8.8 -0.6,19.2 -0.9,17.9 -1.1,19 -3.4,21.8 -8.7,10.3 -0.1,21.2 21.2,26.9 11.4,3.1 38.3,3.1 49.7,0 11.9,-3.2 19.5,-7.7 22.4,-13.4 3.1,-5.9 2.3,-9.6 -3,-14.8 l -4.1,-3.9 -2.7,-16.8 c -1.5,-9.2 -3.5,-21.2 -4.3,-26.7 -0.9,-5.5 -2.6,-16.4 -3.9,-24.3 l -2.2,-14.3 6.4,-5.7 c 48.6,-42.5 74.7,-85.4 70,-114.8 -1.2,-7.6 -3.7,-12.9 -8.4,-18.2 -4.1,-4.4 -11.2,-8.7 -12.1,-7.2 -0.3,0.5 -0.2,1 0.3,1 0.5,0 2.8,1.9 5,4.2 24.7,24.9 -7.4,84.2 -75.3,138.8 -15.2,12.2 -41.3,28.8 -60,38 -18.3,9 -28.8,13.2 -45,17.7 -12.2,3.3 -34,4.3 -43.3,1.9 -6.8,-1.7 -13.7,-5.9 -17.2,-10.3 l -2.2,-2.8 3.9,-0.7 c 2.1,-0.4 5.6,-0.7 7.9,-0.7 4.6,-0.1 16.3,-3 27.3,-6.7 21.6,-7.4 51.2,-22.1 77.4,-38.6 6.4,-4 12,-6.8 13.6,-6.8 3.6,0 15.9,-6 20.4,-9.9 1.9,-1.8 4.5,-5.2 5.7,-7.7 1.2,-2.4 4.1,-6 6.3,-7.8 8.1,-6.6 27.9,-32 39.6,-50.6 5.7,-9.2 20.9,-38.8 26.6,-52 3.6,-8.2 4.4,-9.3 6,-8 0.6,0.5 1.5,0.7 1.9,0.3 1.1,-1.1 -5.5,-3.5 -13.9,-4.9 -9.2,-1.6 -12.2,-1.6 -22.5,0 z m 24.9,11.6 c -1.9,5.2 -17.6,36.6 -23,45.7 -8.8,15.1 -24.1,35.7 -35.9,48.4 -7.7,8.4 -9.4,9.7 -12.7,10.1 -2.1,0.3 -4.6,0.8 -5.5,1.2 -1.7,0.8 -1.8,-0.3 -1.8,-14.5 0,-16.4 -3.4,-47.6 -7,-63.6 -0.6,-2.5 -0.7,-4.9 -0.3,-5.3 0.4,-0.4 10,-3.3 21.3,-6.5 11.3,-3.1 21.6,-6.1 23,-6.5 1.4,-0.5 5.9,-1.8 10,-2.9 4.1,-1.2 11.6,-3.3 16.5,-4.7 5,-1.5 10.6,-3 12.5,-3.4 1.9,-0.4 3.6,-0.8 3.7,-0.9 0.1,0 -0.3,1.2 -0.8,2.9 z m -89,30.2 c 4.7,27.4 5.3,33.3 5.8,55 l 0.5,22.6 -2.8,2.4 c -7.7,6.4 -10.7,9.4 -12,11.9 -4.6,9 -65.2,41.2 -95.4,50.7 -12.2,3.8 -29,6.5 -29,4.6 0,-0.5 8.9,-17.4 39.5,-74.9 6.8,-12.7 14.2,-26.8 16.5,-31.5 2.9,-5.8 5.8,-10 9.2,-13.2 2.8,-2.6 5.3,-4.8 5.7,-5 0.3,-0.2 6.7,-4.9 14.2,-10.5 l 13.6,-10.2 15.4,-4.5 c 8.5,-2.5 15.9,-4.5 16.5,-4.5 0.6,-0.1 1.7,3.2 2.3,7.1 z m -40.4,4.8 c 0.3,0.5 -0.1,1 -0.9,1 -0.8,0 -1.9,0.7 -2.4,1.6 -0.7,1.3 -1.1,1.4 -1.7,0.4 -0.5,-0.8 -0.1,-1.8 1,-2.7 2.2,-1.6 3.2,-1.6 4,-0.3 z m -21.5,16 c -4.5,3.9 -6,4.7 -6,3.2 0,-2.5 4.7,-5.9 10,-7.1 0.3,0 -1.5,1.7 -4,3.9 z m 102.4,97.2 c 1,6.3 6.7,42.4 8.1,50.8 0.7,4.7 1.7,11 2,14.1 l 0.7,5.7 -6.8,-1.9 c -3.8,-1.1 -11.8,-2.3 -17.9,-2.7 l -11,-0.7 -0.6,-11 c -0.4,-6.1 -0.7,-17.4 -0.8,-25.2 l -0.1,-14.2 6.8,-4.5 c 3.7,-2.5 9.2,-6.6 12.2,-9 3,-2.5 5.8,-4.5 6.2,-4.5 0.4,-0.1 0.9,1.4 1.2,3.1 z m -32.2,37.3 c 0.1,9.1 0.2,19.1 0.3,22.2 l 0,5.8 -4,0.8 c -4.3,0.9 -17.8,4.4 -20.8,5.4 -1.7,0.5 -1.8,-0.3 -1.2,-16.8 0.3,-9.6 0.8,-18.3 1,-19.5 0.3,-1.4 3.3,-3.7 8.9,-6.8 4.6,-2.6 9.2,-5.4 10.2,-6.1 1.1,-0.8 2.7,-1.5 3.7,-1.5 1.5,0 1.7,1.5 1.9,16.5 z m 1,48.5 c 0.4,7.4 0.5,14.1 0.3,14.7 -0.9,2.7 -16.5,-0.1 -25.9,-4.7 -4.6,-2.2 -8.6,-6.2 -8.6,-8.5 0,-2.4 4.3,-6.6 9.2,-9.1 4.9,-2.5 19.8,-6.4 22.8,-6.1 1.2,0.2 1.6,2.8 2.2,13.7 z m 30.1,-12 c 13.9,3.1 23.6,9.4 22.1,14.4 -1.9,6.6 -16.5,12.5 -35.2,14.2 -10.3,0.9 -10.2,1.1 -10.2,-16.2 l 0,-14.4 7.3,0 c 3.9,0 11.2,0.9 16,2 z"/>
<path d="M 282,20 c -1.4,0.5 -5.3,1.6 -8.7,2.6 -3.5,1 -6.1,2 -5.8,2.2 0.5,0.5 18.6,-3.8 19.7,-4.8 1.1,-0.9 -2.3,-0.9 -5.2,0 z"/>
<path d="M 261.1,26.5 c -1.9,0.6 -3.1,1.4 -2.5,1.6 1.2,0.7 8,-1.6 6.8,-2.3 -0.5,-0.3 -2.5,0 -4.3,0.7 z"/>
<path d="M 249,31.2 c -1.4,0.6 -2,1.2 -1.3,1.5 0.6,0.2 2.4,-0.3 4,-1.1 3.2,-1.7 1.1,-2 -2.7,-0.4 z"/>
<path d="M 77,244 c -18.7,3.2 -36,16.3 -44.8,33.9 -2.3,4.5 -3.9,8.8 -3.6,9.6 0.5,1.1 2.2,1.5 6.4,1.5 l 5.8,0 3.2,-5.7 c 17.4,-30.8 56.8,-36.2 80.5,-11.1 3.6,3.7 6.5,7.4 6.5,8.1 0,0.7 -2.7,3.3 -6,5.8 -3.2,2.4 -5.8,4.8 -5.7,5.3 0.4,1.3 41.6,21 42.4,20.3 0.3,-0.4 -0.1,-5.3 -1,-10.9 -0.9,-5.7 -2.4,-15.5 -3.3,-21.8 -0.9,-6.3 -2.2,-12 -2.8,-12.7 -0.8,-0.9 -2.4,-0.3 -6.5,2.9 l -5.5,4.2 -1.5,-2.5 c -0.8,-1.3 -4.9,-5.8 -9,-10 -8.4,-8.4 -17.4,-13.4 -29.2,-16.3 -6.8,-1.7 -18.2,-1.9 -25.9,-0.6 z"/>
<path d="M 84,283.8 c 0,1.1 -1.4,2.5 -3.5,3.5 -3.2,1.5 -3.8,1.5 -5.8,0.2 -2.2,-1.4 -2.5,-1.3 -5.7,2 -3.1,3.2 -3.3,3.7 -1.8,5.1 1.4,1.5 1.4,1.9 -0.1,5.5 -1,2.3 -2.4,3.9 -3.6,4.1 -3.7,0.5 -3.2,10.8 0.4,10.8 2.3,0 4.5,5.6 3.6,9.2 -0.9,3.4 4.4,8.5 7.1,6.8 2.4,-1.4 9.4,1.2 9.4,3.5 0,2.1 9.5,2.1 10.3,0 0.4,-0.8 2.2,-2.1 4.2,-2.9 2.9,-1.2 4,-1.3 5.6,-0.3 1.6,1 2.3,0.7 5.1,-2 2.7,-2.7 3,-3.5 2.1,-5.5 -1.3,-3 1.2,-8.8 3.9,-8.8 1.5,0 1.8,-0.8 1.8,-5.1 0,-4.1 -0.4,-5.2 -1.9,-5.6 -2.1,-0.5 -5.5,-8 -4,-8.9 1.6,-1 1,-4 -1.4,-6.2 -2.5,-2.3 -4.7,-2.8 -6.2,-1.3 -1.4,1.2 -9.5,-2.5 -9.5,-4.4 0,-1.1 -1.2,-1.5 -5,-1.5 -4.2,0 -5,0.3 -5,1.8 z m 14.5,11.4 c 5.2,3.5 7.5,7.7 7.5,13.7 0,2.8 -0.7,6.5 -1.5,8 -5.2,10.1 -19.9,12.1 -27.4,3.6 -6.4,-7.3 -6.4,-16.1 0.1,-22.5 4,-4.1 6.1,-4.9 12.7,-4.9 4,-0.1 6.3,0.5 8.6,2.1 z"/>
<path d="M 80.5,300.3 c -4.3,4.3 -5.2,7.9 -3.4,13.1 2.6,7.5 10.9,10.6 18.5,7 4.1,-2 6.4,-5.9 6.4,-10.9 0,-7.8 -5.1,-12.5 -13.6,-12.5 -3.9,0 -5.1,0.5 -7.9,3.3 z m 13.6,2 c 2.1,1.6 3.9,5.1 3.9,7.7 0,3 -5.3,8 -8.3,8 -4.1,0 -8.7,-4.6 -8.7,-8.6 0,-6.5 8.1,-10.9 13.1,-7.1 z"/>
<path d="M 86.2,306.2 c -2.5,2.5 -0.2,7.8 3.3,7.8 2.4,0 4.6,-3 3.9,-5.4 -1.1,-3.6 -4.8,-4.8 -7.2,-2.4 z"/>
<path d="M 19.6,319.7 c -0.2,0.3 0.2,1.9 0.9,3.6 0.7,1.8 4.3,11.5 8,21.7 3.7,10.2 7,18.9 7.4,19.3 0.4,0.4 2.7,-1.3 5,-3.8 2.3,-2.5 4.4,-4.5 4.8,-4.5 0.3,0 2.9,1.8 5.8,4 19.7,15.2 48.1,17.1 70.3,4.8 10.8,-6 28,-26 25.7,-29.8 -0.4,-0.6 -3.5,-1 -7,-1 -5.6,0 -6.6,0.3 -7.6,2.2 -0.7,1.3 -3.7,4.9 -6.8,8.1 -13.9,14.6 -34.4,19.4 -53.1,12.5 -5.7,-2.1 -18,-9.9 -18,-11.4 0,-0.3 2.5,-3.5 5.6,-7 3.1,-3.6 5.4,-6.8 5,-7.1 -0.9,-1 -45.5,-12.1 -46,-11.6 z"/>
</svg>
