<svg xmlns="http://www.w3.org/2000/svg" viewBox="0 0 384 384">
<path d="M 32.2,49.7 c -11.8,3 -16.3,18 -7.5,25.2 l 3.6,3 19.4,0.3 c 15.9,0.2 19.5,0.6 20.3,1.8 1.6,2.5 1.1,5.6 -1.1,7.6 -1.9,1.7 -4.3,1.9 -24.7,2.4 l -22.6,0.5 -1.5,2.7 c -1.4,2.4 -1.4,2.8 0.4,4.8 1.9,2.1 2.5,2.1 26.1,1.8 l 24.2,-0.3 3.9,-3.1 c 5.6,-4.5 7.5,-8.7 6.9,-15.4 -0.4,-4.7 -1,-5.9 -4.2,-9 l -3.8,-3.5 -19,-0.3 c -11.3,-0.2 -19.6,-0.8 -20.3,-1.4 -1.8,-1.5 -1.6,-4.2 0.5,-6.1 1.5,-1.3 5.3,-1.6 24.4,-1.9 13.4,-0.2 23.1,-0.7 23.6,-1.3 1.6,-1.7 2.2,-4.9 1.2,-6.5 -1.3,-2 -42.6,-3.1 -49.8,-1.3 z"/>
<path d="M 140.6,49.5 c -3,1 -4.5,4.9 -2.9,7.4 0.8,1.3 3.4,1.7 13.8,1.9 l 12.8,0.3 -0.6,8.2 c -0.4,4.5 -1.1,12.7 -1.6,18.2 -1,10.9 -0.5,13.1 3.5,14.1 5.6,1.4 6.7,-2.1 9.1,-31.1 l 0.8,-9 13.2,-0.5 c 11.7,-0.4 13.4,-0.7 14.7,-2.5 2.1,-2.8 2,-5.2 -0.4,-6.5 -2.6,-1.4 -58.6,-1.9 -62.4,-0.5 z"/>
<path d="M 287.8,49.6 c -2.4,1.3 -2.7,2 -3.2,9.1 -0.4,4.3 -1.1,11.2 -1.6,15.3 -2.3,18.2 -2.3,21.7 -0.1,23.9 2.5,2.5 3.9,2.6 6.8,0.6 1.7,-1.2 2.2,-3.1 3.2,-12.7 3.2,-32.8 3.2,-34.6 -0.6,-36.6 -1.3,-0.7 -2.6,-0.6 -4.5,0.4 z"/>
<path d="M 312.5,50 c -1.9,0.9 -3.1,2.4 -3.3,3.9 -0.7,4.7 1.4,5.1 24.8,5.1 19.7,0 21.8,0.2 23.3,1.8 2.3,2.6 2.1,5.8 -0.5,7.6 -1.9,1.3 -5.8,1.6 -23,1.6 -11.3,0 -21.8,0.4 -23.1,0.9 -2.9,1.1 -4.2,6 -5.1,17.9 -0.4,6.3 -0.2,7.6 1.5,9.3 4.4,4.4 8.4,1.3 9.4,-7.6 1.2,-10.4 -0.7,-9.5 19.3,-9.5 23.7,0 29.1,-2 32.8,-11.7 2.3,-6.1 1.4,-11.7 -2.7,-15.9 -4.1,-4.2 -6.2,-4.5 -30.6,-4.7 -15.9,-0.2 -20.4,0.1 -22.8,1.3 z"/>
<path d="M 112.5,51.7 c -1.4,1.5 -2.5,3.1 -2.5,3.4 0,0.4 -5.2,9.4 -11.5,19.9 -6.3,10.6 -11.5,19.6 -11.5,20 0,1.4 4.2,5 6,5 2.8,0 3.7,-1.3 13.9,-18.4 5.1,-8.6 9.7,-15.6 10.1,-15.6 0.5,0 5.2,7.4 10.6,16.5 5.4,9.1 10.6,16.8 11.6,17.1 2.7,0.8 5.3,-0.3 6.7,-2.9 1.1,-2.1 0.6,-3.5 -5.8,-14.3 -3.9,-6.5 -7.6,-12.6 -8.1,-13.4 -0.6,-0.8 -1.4,-2.5 -2,-3.8 -1.6,-3.7 -8.1,-13.6 -9.8,-15 -2.5,-1.9 -4.9,-1.4 -7.7,1.5 z"/>
<path d="M 229.8,50.1 c -2.7,1.5 -2.2,5.6 1,8.5 1.5,1.3 5.7,4.8 9.5,7.6 3.7,2.9 6.7,5.7 6.7,6.3 0,0.5 -2.8,3.2 -6.3,5.9 -3.4,2.7 -6.6,5.5 -7.2,6 -0.5,0.6 -2.9,2.6 -5.2,4.4 -2.8,2.2 -4.3,4.2 -4.3,5.6 0,2.5 2.8,5.6 5.2,5.6 1.2,0 10,-5.9 11.8,-8 0.3,-0.3 4,-3.5 8.4,-7 10.3,-8.5 12.6,-10.8 12.6,-12.5 0,-2 -3.1,-5 -13.3,-13.1 -14,-10.9 -15.2,-11.5 -18.9,-9.3 z"/>
<path d="M 162,128 c 0,0.5 -0.6,1 -1.4,1 -0.7,0 -3.6,0.7 -6.2,1.5 -2.7,0.8 -11.8,3.5 -20.3,5.9 -14.2,4 -15.4,4.2 -15.8,2.5 -0.6,-2.2 -3.1,-1.4 -2.9,0.9 0.1,1.2 -1.1,1.9 -3.9,2.5 -2.2,0.5 -6.2,1.5 -9,2.2 -2.7,0.7 -6.3,1.6 -7.8,2 -4.8,1 -10.3,7.4 -16.3,19 -10.7,20.9 -26.4,50.6 -27.1,51.4 -0.7,0.9 -1.6,-1 -2.3,-4.6 -0.8,-3.8 -0.8,-3.8 -0.9,1.1 -0.3,13.7 11.2,21.5 27.7,18.6 10.2,-1.7 17.9,-4.3 29.6,-9.8 0.5,-0.3 0.7,3.6 0.4,9 -0.4,6.7 -1,10.2 -2.3,12.2 -1.7,2.6 -1.7,2.8 0.2,5.4 3.4,4.8 8.7,6.6 20.1,7 11.7,0.5 18.2,-0.8 23,-4.4 3.8,-3 4.2,-6.7 1,-10.1 -2.2,-2.3 -3.1,-6.7 -6.9,-33.5 l -1.1,-7.7 10.4,-10.3 c 25.1,-24.8 33.1,-46.4 21.6,-57.7 -3.6,-3.5 -6,-4.3 -2.9,-0.9 1.2,1.2 2.8,4 3.7,6.3 1.4,3.9 1.4,4.8 0,10.4 -2.1,8.1 -5.3,14.3 -12.5,23.7 -14.6,19.5 -41.8,40.4 -64.1,49.5 -20.2,8.2 -34.8,8.9 -42.2,2.2 -2.8,-2.5 -2.2,-3 4.1,-3.7 3.2,-0.4 8.5,-1.6 11.7,-2.7 7.4,-2.5 26.7,-11.8 35.9,-17.3 3.8,-2.4 9.1,-5 11.6,-6 2.6,-0.9 5.6,-2.7 6.8,-3.9 7.1,-7.4 16.9,-19.2 22,-26.7 6,-8.7 19.3,-34.5 18.3,-35.5 -0.9,-0.9 -2.2,-0.6 -2.2,0.5 z m -3.6,8.7 c -9.3,21.1 -27.7,46.2 -33.9,46.3 -1.8,0 -2,-0.7 -2.1,-8.4 -0.1,-4.6 -1,-13.7 -1.9,-20.1 -0.9,-6.4 -1.5,-11.8 -1.3,-11.9 0.2,-0.2 6.4,-2 13.8,-4.1 7.4,-2 16.2,-4.5 19.5,-5.6 8.8,-2.6 8.8,-2.6 5.9,3.8 z m -40,16.2 c 0.9,4.9 1.6,14 1.6,20.3 l 0,11.4 -5.2,5.1 c -11.3,11 -41.4,25.9 -56.4,28 -5.4,0.7 -5.5,0.2 -1,-8 1.8,-3.4 5.9,-11.2 9.1,-17.2 5,-9.5 14.6,-27.4 18.1,-33.6 0.6,-1.1 3,-3 5.3,-4.1 2.3,-1.1 4.6,-2.9 5.2,-3.9 0.5,-1.1 1.8,-1.9 2.8,-1.9 1,0 2.1,-0.3 2.5,-0.8 1,-0.9 11.5,-4 14.2,-4.1 1.9,-0.1 2.3,0.9 3.8,8.8 z m 19,52.8 c 1.5,7.7 4.9,31.4 4.5,31.8 -0.3,0.2 -2.2,0 -4.4,-0.5 -2.2,-0.5 -5.8,-1 -8.1,-1 l -4.1,0 -0.6,-8.3 c -1.3,-16.3 -1.4,-15.8 5,-20.5 3.2,-2.3 6,-4.2 6.4,-4.2 0.4,0 1,1.2 1.3,2.7 z m -16.4,12 c 0,2.1 0.3,6.8 0.6,10.5 0.7,6.5 0.6,6.8 -1.8,7.7 -1.4,0.5 -4.5,1.2 -6.9,1.6 l -4.4,0.7 0.5,-9.3 c 0.3,-5.1 1,-9.4 1.5,-9.6 0.6,-0.2 2.8,-1.4 5,-2.7 5.3,-3.2 5.5,-3.2 5.5,1.1 z m 1,28.3 c 0,6.6 -0.1,7 -2.2,7 -4.1,0 -9.7,-2 -12.5,-4.5 -2.8,-2.3 -2.8,-2.3 -0.9,-4.4 2,-2.2 9.2,-4.9 13.4,-5 2.1,-0.1 2.2,0.3 2.2,6.9 z m 20.7,-4.3 c 4.8,2.5 5.2,5.9 0.8,8.4 -3.2,1.9 -16,4.3 -17.6,3.4 -0.5,-0.4 -0.9,-3.8 -0.9,-7.7 l 0,-7.1 6.9,0.5 c 4.1,0.3 8.5,1.3 10.8,2.5 z"/>
<path d="M 243.3,179.5 l -2.8,2.4 15.8,0.1 c 8.6,0 15.7,-0.3 15.7,-0.6 0,-0.3 -1,-1.4 -2.2,-2.5 -1.9,-1.5 -4,-1.8 -13,-1.9 -10,0 -10.9,0.2 -13.5,2.5 z"/>
<path d="M 238.2,186.2 c -0.8,0.8 -1.2,6.2 -1.2,17.5 0,16.1 0,16.4 2.5,18.8 l 2.4,2.5 24.4,0 c 31.2,0 28.7,1.7 28.7,-20 0,-14.7 -0.2,-16.2 -2,-18 -1.9,-1.9 -3.3,-2 -27.8,-2 -18.7,0 -26.1,0.3 -27,1.2 z"/>
<path d="M 263.2,230 c -0.9,1.5 -1,2.6 -0.2,4 0.6,1.1 1,4.8 0.8,8.3 l -0.3,6.2 -16.2,0.5 c -14.3,0.4 -16.5,0.7 -18.9,2.6 -5.5,4 -6.6,6.7 -7.5,16.6 -0.8,9.6 -0.2,11.8 3,11.8 3.3,0 3.9,-1.9 3.4,-10.4 -0.6,-8.1 -0.5,-8.3 2.5,-11.7 l 3,-3.4 29.4,-0.3 c 34.5,-0.4 37.1,-0.1 41,4 2.4,2.5 2.8,3.9 2.8,8.5 0,3 -0.5,6.3 -1,7.4 -1.5,2.7 0.4,5.9 3.5,5.9 3.1,0 5,-3.2 3.5,-5.9 -0.5,-1.1 -1,-4.7 -1,-8.1 0,-7.1 -1.7,-10.9 -6.2,-14.2 -3,-2.1 -4.6,-2.3 -19.3,-2.8 l -16,-0.5 0,-6.5 c 0,-3.6 0.4,-7.5 0.8,-8.6 1.6,-4.4 -4.6,-7.3 -7.1,-3.4 z"/>
<path d="M 201.8,285.6 c -1.6,0.8 -2.8,1.9 -2.8,2.4 0,0.6 6.2,1 15.5,1 9,0 15.5,-0.4 15.5,-0.9 0,-0.6 -1,-1.7 -2.2,-2.5 -3.1,-2.2 -22.1,-2.2 -26,0 z"/>
<path d="M 286.2,285.6 c -1.2,0.8 -2.2,1.9 -2.2,2.5 0,0.5 6.5,0.9 15.8,0.9 l 15.7,-0.1 -2.8,-2.4 c -2.6,-2.3 -3.6,-2.5 -13.5,-2.5 -8.1,0 -11.3,0.4 -13,1.6 z"/>
<path d="M 196.8,292.1 c -1.6,0.9 -1.8,2.9 -1.8,18.3 0,15.5 0.2,17.5 1.8,18.9 1.6,1.5 5,1.7 27.5,1.7 25.3,0 25.6,0 27.1,-2.2 1.3,-1.8 1.6,-5.3 1.6,-17.4 0,-21.6 2.5,-19.8 -29.2,-20.1 -16.3,-0.2 -25.9,0.1 -27,0.8 z"/>
<path d="M 281.2,292.6 c -2.1,1.5 -2.2,2.1 -2.2,17 0,15 0.6,18.8 3.4,20.6 0.6,0.4 12.4,0.8 26.3,0.8 21.5,0 25.4,-0.2 26.7,-1.6 1.3,-1.3 1.6,-4.3 1.6,-17.7 0,-8.9 -0.4,-16.7 -0.8,-17.3 -2,-3 -5.5,-3.4 -28.9,-3.4 -20,0 -24.2,0.3 -26.1,1.6 z"/>
</svg>
