<svg xmlns="http://www.w3.org/2000/svg" viewBox="0 0 384 384">
<path d="M 54.7,26.5 c -4.8,1.6 -8.3,4.8 -10.8,9.7 -1.8,3.6 -1.9,7.8 -1.9,127.2 0,84.6 0.3,124.4 1.1,126.3 1.4,3.8 6.7,9.2 10.8,10.9 2.8,1.2 19.9,1.4 109,1.4 100.5,0 105.8,-0.1 109.6,-1.9 5.1,-2.4 8.1,-5.6 10,-11 1.3,-3.8 1.5,-19.2 1.5,-126 l 0,-121.7 -2.7,-5.5 c -2.3,-4.5 -3.7,-5.9 -8.2,-8.2 l -5.5,-2.7 -104.5,0 c -86,0.1 -105.3,0.3 -108.4,1.5 z m 205.3,137.5 l 0,115 -97.2,-0.2 -97.3,-0.3 -0.3,-113.5 c -0.1,-62.4 0,-114.1 0.3,-114.8 0.3,-0.9 20.8,-1.2 97.5,-1.2 l 97,0 0,115 z"/>
<path d="M 82,70 c -1.8,1.8 -2,3.3 -2,18.9 0,15.1 0.2,17.1 1.9,19.2 l 1.9,2.4 79.1,0 c 74.5,0 79.1,-0.1 80.8,-1.8 1.6,-1.5 1.8,-4 2.1,-18.8 0.3,-14.3 0.1,-17.4 -1.3,-19.5 l -1.5,-2.4 -79.5,0 c -78.2,0 -79.5,0 -81.5,2 z"/>
<path d="M 197.6,135.2 c -1.3,1.9 -1.6,5.9 -1.6,24 0,11.9 0.4,22.8 1,24.2 l 1,2.6 20.8,0 c 14.8,0 21.1,-0.3 22,-1.2 1.7,-1.7 1.7,-48.9 0,-50.6 -0.9,-0.9 -7,-1.2 -21.4,-1.2 -19.8,0 -20.3,0.1 -21.8,2.2 z"/>
<path d="M 82,145.5 l 0,7.5 51,0 51.1,0 -0.3,-7.3 -0.3,-7.2 -50.7,-0.3 -50.8,-0.2 0,7.5 z"/>
<path d="M 82.4,170.4 c -0.3,0.7 -0.4,4.2 -0.2,7.7 l 0.3,6.4 50.5,0 50.5,0 0.3,-6.9 c 0.2,-4.9 -0.1,-7.2 -1,-7.7 -0.7,-0.5 -23.5,-0.9 -50.6,-0.9 -40.5,0 -49.4,0.2 -49.8,1.4 z"/>
<path d="M 76.9,200.7 c -1.1,1.2 -1.5,7.4 -1.7,28 l -0.3,26.3 2.5,2.5 2.5,2.5 21.9,0 c 21.5,0 21.9,0 24,-2.3 2.1,-2.3 2.2,-3 2.2,-28.3 0,-21.9 -0.2,-26.3 -1.6,-28.2 -1.5,-2.2 -1.9,-2.2 -24.8,-2.2 -20.5,0 -23.5,0.2 -24.7,1.7 z"/>
<path d="M 138,217.5 l 0,7.5 51,0 51,0 0,-7.5 0,-7.5 -51,0 -51,0 0,7.5 z"/>
<path d="M 138,248.5 l 0,7.5 51,0 51,0 0,-7.5 0,-7.5 -51,0 -51,0 0,7.5 z"/>
<path d="M 291.2,82.2 l 0.3,11.3 10.5,0.5 10.5,0.5 0,114.5 0,114.5 -97.2,0.3 -97.2,0.2 -0.3,-7.2 -0.3,-7.3 -11.2,-0.3 -11.2,-0.3 -0.7,2.5 c -0.3,1.4 -0.4,6.7 -0.2,11.8 0.4,11.8 2.9,17.6 9.2,21.3 l 4.3,2.5 107.2,0 c 96.8,0 107.5,-0.2 110.4,-1.6 4.5,-2.3 6.6,-4.4 8.8,-8.6 1.8,-3.6 1.9,-8 1.9,-127.8 0,-119.8 -0.1,-124.2 -1.9,-127.8 -4.4,-8.6 -8.7,-10.2 -28.1,-10.2 l -15.1,0 0.3,11.2 z"/>
</svg>
