<svg xmlns="http://www.w3.org/2000/svg" viewBox="0 0 384 384">
<path d="M 72.7,11.1 c -2,1.1 -4.9,3.8 -6.5,6.1 -2.6,4 -2.7,4.8 -3.2,20.2 l -0.5,16.1 -17,0.5 c -15.8,0.5 -17.2,0.7 -20.3,2.8 -5.9,4.3 -7.2,8.4 -7.2,23.1 0,14 0.7,17.1 4.8,21.5 4.6,4.9 7.7,5.6 24.7,5.6 l 15.5,0 0,13.7 c 0,15.7 0.9,20 5,24.7 4.7,5.3 7,5.8 24.1,5.4 14.2,-0.3 15.6,-0.5 18.7,-2.6 5.8,-4.2 6.6,-7 7.2,-24.7 l 0.5,-16 16.5,-0.5 c 18.4,-0.6 21.4,-1.5 25.7,-8 2.1,-3.1 2.3,-4.4 2.3,-18.5 0,-14.2 -0.2,-15.4 -2.3,-18.6 -1.2,-1.8 -3.8,-4.4 -5.6,-5.6 -3.2,-2.2 -4.4,-2.3 -19.6,-2.3 -13.9,0 -16.4,-0.2 -16.9,-1.6 -0.3,-0.9 -0.6,-7.8 -0.6,-15.4 0,-14.9 -0.6,-17.9 -4.8,-22.4 -4.5,-4.8 -7.8,-5.6 -22.9,-5.6 -11.8,0.1 -14.4,0.4 -17.6,2.1 z m 33.9,9 c 1.7,1.9 2,4.3 2.4,21.8 l 0.5,19.6 20.2,0.5 c 25.7,0.6 24.6,-0.1 25.1,16.6 0.2,7 -0.1,12.6 -0.7,14.3 -2.2,5.1 -4,5.6 -25.1,6.1 l -19.5,0.5 -0.3,19.2 -0.2,19.2 -3.1,2.5 c -2.9,2.5 -3.6,2.6 -15.4,2.6 -11.6,0 -12.6,-0.1 -15.2,-2.4 l -2.8,-2.4 -0.3,-19.6 -0.3,-19.6 -17.2,0 c -9.5,0 -18.9,-0.5 -20.9,-1 -6.1,-1.7 -6.8,-3.7 -6.8,-18 0.1,-18.3 -0.3,-18 25.9,-18 l 19.1,0 0,-18.9 c 0,-18.9 0,-19 2.6,-22 l 2.6,-3.1 13.7,0 c 12.7,0 13.9,0.2 15.7,2.1 z"/>
<path d="M 257.5,143.6 c -21.8,5.2 -35,12.6 -48.4,27.1 -3.9,4.2 -7.1,8.2 -7.1,8.7 0,0.6 2.7,3.3 6,5.9 6.5,5.1 16.3,16.8 20.6,24.5 1.5,2.6 3.5,6 4.4,7.5 l 1.7,2.8 2.2,-6 c 5.9,-16.4 24.8,-27.4 41.3,-24.1 12.3,2.4 21.3,8.8 26.7,19 7.9,14.7 5.4,31.8 -6.4,43.5 -8.7,8.8 -20.9,12.9 -32.2,10.8 -4.3,-0.8 -6.1,-0.8 -6.9,0 -0.7,0.7 -3,6.1 -5.2,12.2 -9,24.7 -7.9,22.6 -11.7,21.9 -2.8,-0.5 -3.5,-0.2 -4.5,1.6 -1.9,3.5 -0.6,4.7 8,7.4 31,9.8 63.7,1.9 86.5,-20.8 32.7,-32.8 32.4,-86.1 -0.7,-118.7 -9.6,-9.5 -21.7,-16.6 -35.3,-20.9 -5.7,-1.8 -9.9,-2.3 -22,-2.6 -8.2,-0.1 -15.9,-0.1 -17,0.2 z"/>
<path d="M 113.5,164.1 c -52.3,6.6 -92.5,51.9 -92.5,104.5 0,43.4 28.1,83.2 69.2,98.4 13.3,4.8 17.6,5.5 36.8,5.5 16.1,-0.1 19.6,-0.3 27,-2.3 9.7,-2.7 24.2,-9.2 32.7,-14.9 7.6,-5 19.4,-16.2 25.5,-24.3 6.6,-8.6 15.1,-26.4 17.8,-37 4.4,-17.5 3.6,-41.2 -2.1,-58.3 -15.7,-47.6 -64.1,-77.9 -114.4,-71.6 z m 25.6,59.5 c 16.6,4.9 27.9,15.9 32.8,31.8 3.8,12.3 2.4,23.9 -4.5,36.3 -9.6,17.3 -32,27 -51.1,21.9 -4.7,-1.2 -5.2,-1.2 -5.8,0.3 -3.2,8 -14.5,39.3 -14.5,39.9 0,0.5 -0.6,1.6 -1.3,2.6 -1.2,1.7 -1.6,1.7 -7.5,-0.3 -3.4,-1.2 -9.4,-4 -13.3,-6.4 -7.3,-4.4 -20.9,-16.8 -20.9,-19.1 0,-0.8 4.3,-4.9 9.6,-9.2 22.5,-18.4 27.4,-22.6 27.4,-23.9 0,-0.7 -0.6,-1.8 -1.4,-2.4 -2.6,-2.1 -7.4,-15.4 -8.1,-22.1 -2.8,-26.7 18.9,-50.7 46.1,-50.9 3.9,-0.1 9.5,0.6 12.5,1.5 z"/>
<path d="M 116.3,232.4 c -18.4,6 -29.7,24.1 -26.4,42.2 1.2,6 4.3,13.4 6.8,15.9 1.3,1.3 2.2,1 7.4,-3.1 3.2,-2.6 5.9,-5 5.9,-5.4 0,-0.4 -0.8,-2.2 -1.7,-4.1 -2.4,-4.6 -2.4,-14.2 0.1,-19.2 4,-8.1 14.5,-12.7 23.5,-10.3 6.5,1.7 9.5,3.7 12.9,8.8 2.3,3.6 2.7,5.2 2.7,11.3 0,6.1 -0.4,7.8 -2.7,11.2 -4.2,6.4 -8.9,8.8 -17.8,9 l -7.4,0.2 -2.3,5.8 c -3.2,8.3 -3,9 2,10.4 10,2.7 23.9,-1.1 32.8,-9 20.1,-17.9 15.6,-49.3 -8.8,-61.3 -5.4,-2.6 -7.9,-3.2 -14.6,-3.5 -5.1,-0.2 -9.8,0.2 -12.4,1.1 z"/>
<path d="M 263,194.9 c -9,2.9 -17.1,11.1 -19.6,19.7 -2,7.1 -1.4,16.5 1.5,22.3 3.2,6.2 3.7,6.2 10.1,0.8 l 3.3,-2.9 -1.8,-4.9 c -4.1,-11.6 3.6,-22.9 15.6,-22.9 16.1,0 22.9,20 10.2,29.7 -2.6,2 -5.1,2.8 -10,3.2 l -6.6,0.6 -1.9,5.4 c -1,3 -1.5,5.7 -1.2,6 1.1,1.2 15.3,1.3 18.7,0.2 5.5,-1.8 12,-6.7 15.4,-11.3 10.5,-14.9 5.4,-35.5 -11,-44 -4.5,-2.3 -18,-3.5 -22.7,-1.9 z"/>
</svg>
