<svg xmlns="http://www.w3.org/2000/svg" viewBox="0 0 384 384">
<path d="M 203.9,40.6 c -19.7,13.5 -28.1,22.5 -35.4,37.9 -6.6,13.9 -8.3,30.9 -4.6,45 4.6,17.9 14.3,33.5 37.2,60 20.7,23.9 28.4,45.7 19.6,55.4 -6.9,7.6 -23.9,7.7 -52.7,0.6 -7.4,-1.9 -18.8,-5.2 -25.2,-7.4 -16.1,-5.6 -25.9,-5.5 -30.7,0.3 -0.7,0.8 -1.3,3.8 -1.3,6.6 0.2,20.1 33,39.9 78.2,47.3 13.2,2.2 17.9,2.6 18.5,1.7 0.3,-0.4 -1,-1.3 -2.8,-2 -13.1,-5.2 -22.7,-11.6 -22.7,-15.2 0,-3.8 3.2,-4.3 33,-4.4 26.2,0 29.1,-0.2 36.5,-2.2 20.9,-5.9 28.6,-16.7 25.6,-36.2 -3.5,-23.3 -11.8,-36 -57,-88.2 -16.5,-19.1 -23.9,-30.9 -26.2,-41.7 -1.4,-6.8 -0.6,-22.2 1.6,-30.6 1.5,-6 10.4,-24.5 13.3,-27.8 2.8,-3.2 0.5,-2.8 -4.9,0.9 z"/>
<path d="M 156,79.2 c -4.4,4.7 -14.3,22.3 -18,31.9 -13.4,35.3 -8.8,68.3 13.7,97.4 7.4,9.6 18.5,20.5 23.2,23 16.1,8.3 36.2,-7.9 30,-24.2 -1.5,-3.9 -4.1,-6.5 -14.4,-14.3 -24.7,-18.6 -38.6,-40.1 -41.7,-64.4 -1.7,-13.9 1.4,-31.3 8.6,-47.9 1.9,-4.3 1.5,-4.6 -1.4,-1.5 z"/>
<path d="M 118.7,154 c -3.5,8.2 -6.7,23.8 -6.7,32.9 0,10.6 2.6,17.8 8.4,23.6 9,8.9 21.6,10.3 21.6,2.4 0,-2.4 -1.3,-4.5 -6,-9.3 -3.4,-3.5 -7.1,-8.7 -8.6,-12 -2.5,-5.5 -5.3,-18.2 -7.2,-32.6 -0.5,-3.6 -1.1,-5.8 -1.5,-5 z"/>
<path d="M 250.5,291.7 c -7,2.4 -13.9,9.5 -15.9,16.4 -4.6,15.5 0.8,32.5 12.4,38.6 4,2.2 5.5,2.4 14.2,2.1 8.8,-0.3 10,-0.5 13.9,-3.3 3.9,-2.8 11.2,-13.6 9.9,-14.8 -0.3,-0.3 -2.1,-0.8 -4.1,-1.2 -3.5,-0.7 -3.7,-0.5 -4.8,2.7 -4.4,13.4 -24.4,14.6 -31.9,2 -2.4,-4.2 -2.7,-5.6 -2.7,-14.2 0,-11.3 1.7,-15.7 7.8,-20.1 3.4,-2.5 4.9,-2.9 10.5,-2.9 7.7,0 11.9,2.1 14.8,7.6 1.7,3.2 2.2,3.5 5.3,3 1.8,-0.3 3.5,-0.7 3.8,-1 0.8,-0.7 -3.4,-8 -5.9,-10.2 -4.9,-4.4 -8,-5.6 -15.1,-6 -5.1,-0.3 -8.6,0.1 -12.2,1.3 z"/>
<path d="M 105.3,292.7 c 0.3,1 2.4,6.5 4.8,12.3 2.3,5.8 7.2,17.9 10.9,27 l 6.6,16.5 3.5,0.3 c 4,0.3 4.8,-0.4 7.1,-6.3 0.8,-2.2 5.6,-14.2 10.7,-26.7 5,-12.5 9.1,-23.2 9.1,-23.8 0,-0.7 -1.4,-1 -3.6,-0.8 -3.5,0.3 -3.7,0.5 -7,8.8 -1.8,4.7 -5.9,15.5 -9.1,24 -3.1,8.5 -6,15.9 -6.3,16.3 -0.4,0.4 -3.2,-6.3 -6.3,-15 -3.2,-8.7 -7.2,-19.9 -9.1,-24.8 l -3.4,-9 -4.2,-0.3 c -3.7,-0.3 -4.2,-0.1 -3.7,1.5 z"/>
<path d="M 165.8,319.1 c -0.3,29.8 -0.2,30.4 4.4,29.7 l 2.3,-0.3 0.3,-22.8 c 0.1,-12.5 0.6,-22.7 1,-22.7 0.4,0 1.7,2.8 2.9,6.2 5.5,16.5 12.9,37.4 13.6,38.5 0.5,0.7 2.2,1.3 3.8,1.3 3.7,0 3.8,-0.3 15.7,-35.2 2.1,-5.9 4,-10.8 4.5,-10.8 0.4,0 0.7,10.3 0.7,23 l 0,23 3.5,0 3.5,0 0,-29.1 0,-29 -5.2,0.3 -5.3,0.3 -3.8,11 c -3.6,10.1 -7.5,21.3 -11.5,32.3 -1.6,4.7 -2.5,4.5 -4,-0.8 -1.4,-4.9 -12.1,-35.8 -13.7,-39.8 -1.3,-3.1 -1.6,-3.2 -6.9,-3.2 l -5.5,0 -0.3,28.1 z"/>
</svg>
