<svg xmlns="http://www.w3.org/2000/svg" viewBox="0 0 384 384">
<path d="M 229.9,42.9 c -2.4,1.5 -9.5,7.2 -15.7,12.5 l -11.3,9.7 -5.5,-5 c -5.2,-4.8 -5.9,-5.1 -10.8,-5.1 -5,0 -5.6,0.3 -11.5,5.6 l -6.2,5.6 -18.2,0.5 c -10,0.3 -19.1,1 -20.2,1.6 -2.2,1.1 -21.7,14.5 -56.7,39 l -22.8,15.8 -14,28.2 c -7.7,15.5 -14.2,29.6 -14.6,31.3 -1.4,7 5.1,14.4 12.6,14.4 1.9,0 5.5,-0.9 7.9,-2 2.4,-1.1 4.5,-2 4.7,-2 0.2,0 0.4,27.7 0.4,61.5 0,66.6 -0.1,65.4 5.5,70.5 l 2.7,2.5 102.9,0.3 103,0.2 4.7,-4.7 c 4.6,-4.6 50.9,-62 54.5,-67.5 1.5,-2.5 1.7,-5.9 1.7,-34.5 l 0,-31.8 17.5,-17.5 c 9.7,-9.6 18.5,-19 19.7,-20.8 4,-6.4 3.3,-7.8 -27.9,-59.7 -6.3,-10.5 -12.5,-20.1 -13.9,-21.5 -3,-3.1 -9.9,-3.9 -34.4,-3.9 l -17.6,-0.1 -10.3,-11 c -9.8,-10.5 -15.7,-15 -19.9,-15 -1,0 -3.8,1.3 -6.3,2.9 z m 21.4,44.6 c 8.1,8.5 14.7,15.8 14.7,16.3 0,0.5 -3.4,4.2 -7.6,8.3 l -7.7,7.4 -7.9,-8.5 c -11.2,-12 -21.8,-24.6 -21.8,-25.8 0,-1.1 13.8,-13.2 14.9,-13.2 0.3,0 7.2,7 15.4,15.5 z m -49.9,16.3 c 6.4,7.4 11.6,13.8 11.6,14.3 0,0.5 -12,0.9 -28.5,0.9 -20,0 -28.5,-0.3 -28.5,-1.1 0,-0.6 6.8,-7.9 15,-16.2 14.8,-14.8 15.1,-15.1 16.9,-13.1 1,1 7.1,7.9 13.5,15.2 z m -62.2,-7.1 c -1.7,2.1 -7.3,8 -12.4,13.1 l -9.4,9.3 -7,-0.3 -6.9,-0.3 14.5,-10.1 c 24,-16.8 26.3,-18 21.2,-11.7 z m 105.4,49.4 c 0.3,0.6 0.3,35.9 -0.1,78.5 l -0.7,77.4 -84.9,0 -84.9,0 0,-77.8 c 0,-42.8 0.3,-78.2 0.7,-78.5 1.2,-1.2 169.1,-0.8 169.9,0.4 z"/>
<path d="M 121.3,159.6 c -4.9,2.4 -7.7,7.5 -7,13 0.5,5.1 2.7,8.1 7.4,10 4.8,2.1 70.9,2 75.8,0 4.6,-1.9 6.8,-5.8 6.9,-11.7 0.1,-4.2 -0.3,-5.3 -3.1,-8.1 -4.3,-4.3 -7.6,-4.6 -45.8,-4.7 -26.5,0 -31.5,0.2 -34.2,1.5 z"/>
</svg>
