<svg xmlns="http://www.w3.org/2000/svg" viewBox="0 0 384 384">
<path d="M 72.7,11.1 c -2,1.1 -4.9,3.8 -6.5,6.1 -2.6,4 -2.7,4.8 -3.2,20.2 l -0.5,16.1 -17,0.5 c -15.8,0.5 -17.2,0.7 -20.3,2.8 -5.9,4.3 -7.2,8.4 -7.2,23.1 0,14 0.7,17.1 4.8,21.5 4.6,4.9 7.7,5.6 24.7,5.6 l 15.5,0 0,13.7 c 0,15.7 0.9,20 5,24.7 4.7,5.3 7,5.8 24.1,5.4 14.2,-0.3 15.6,-0.5 18.7,-2.6 5.8,-4.2 6.6,-7 7.2,-24.7 l 0.5,-16 16.5,-0.5 c 18.4,-0.6 21.4,-1.5 25.7,-8 2.1,-3.1 2.3,-4.4 2.3,-18.5 0,-14.2 -0.2,-15.4 -2.3,-18.6 -1.2,-1.8 -3.8,-4.4 -5.6,-5.6 -3.2,-2.2 -4.4,-2.3 -19.6,-2.3 -13.9,0 -16.4,-0.2 -16.9,-1.6 -0.3,-0.9 -0.6,-7.8 -0.6,-15.4 0,-14.9 -0.6,-17.9 -4.8,-22.4 -4.5,-4.8 -7.8,-5.6 -22.9,-5.6 -11.8,0.1 -14.4,0.4 -17.6,2.1 z m 33.9,9 c 1.7,1.9 2,4.3 2.4,21.8 l 0.5,19.6 20.2,0.5 c 25.7,0.6 24.6,-0.1 25.1,16.6 0.2,7 -0.1,12.6 -0.7,14.3 -2.2,5.1 -4,5.6 -25.1,6.1 l -19.5,0.5 -0.3,19.2 -0.2,19.2 -3.1,2.5 c -2.9,2.5 -3.6,2.6 -15.4,2.6 -11.6,0 -12.6,-0.1 -15.2,-2.4 l -2.8,-2.4 -0.3,-19.6 -0.3,-19.6 -17.2,0 c -9.5,0 -18.9,-0.5 -20.9,-1 -6.1,-1.7 -6.8,-3.7 -6.8,-18 0.1,-18.3 -0.3,-18 25.9,-18 l 19.1,0 0,-18.9 c 0,-18.9 0,-19 2.6,-22 l 2.6,-3.1 13.7,0 c 12.7,0 13.9,0.2 15.7,2.1 z"/>
<path d="M 17,214.5 l 0,31.6 12.3,-0.3 12.2,-0.3 0.5,-11 0.5,-11 20.5,0 20.5,0 0.3,11.3 0.3,11.3 12.7,-0.3 12.7,-0.3 0,-31 0,-31 -12.7,-0.3 -12.7,-0.3 -0.3,12.8 -0.3,12.8 -20.5,0 -20.5,0 -0.5,-12.5 -0.5,-12.5 -12.2,-0.3 -12.3,-0.3 0,31.6 z"/>
<path d="M 120,191 l 0,8 34.5,0 34.5,0 0,15.5 0,15.5 -21.7,-0.2 -21.8,-0.3 -0.3,-10.3 -0.3,-10.2 -12.4,0 -12.5,0 0,18.5 0,18.5 39.8,0 c 36.5,0 40,-0.2 43.7,-1.9 8.9,-4.1 10.4,-8.6 10.5,-30.6 0,-16.9 -0.8,-21 -4.8,-24.8 -5.7,-5.4 -8,-5.7 -50.3,-5.7 l -38.9,0 0,8 z"/>
<path d="M 224,214.5 l 0,31.6 11.8,-0.3 11.7,-0.3 0.3,-23.3 0.2,-23.2 11,0 11,0 0.2,23.2 0.3,23.3 11.7,0.3 11.8,0.3 0.2,-23.3 0.3,-23.3 11,0 11,0 0.3,23.3 0.2,23.3 11.8,-0.3 11.7,-0.3 0.3,-25.6 c 0.2,-25.2 0.2,-25.6 -2,-29 -1.3,-1.9 -4.1,-4.3 -6.3,-5.4 -3.8,-1.9 -6.3,-2 -56.2,-2.3 l -52.3,-0.3 0,31.6 z"/>
<path d="M 351,214.5 l 0,31.6 12.3,-0.3 12.2,-0.3 0,-31 0,-31 -12.2,-0.3 -12.3,-0.3 0,31.6 z"/>
</svg>
