<svg xmlns="http://www.w3.org/2000/svg" viewBox="0 0 384 384">
<path d="M 72.7,11.1 c -2,1.1 -4.9,3.8 -6.5,6.1 -2.6,4 -2.7,4.8 -3.2,20.2 l -0.5,16.1 -17,0.5 c -15.8,0.5 -17.2,0.7 -20.3,2.8 -5.9,4.3 -7.2,8.4 -7.2,23.1 0,14 0.7,17.1 4.8,21.5 4.6,4.9 7.7,5.6 24.7,5.6 l 15.5,0 0,13.7 c 0,15.7 0.9,20 5,24.7 4.7,5.3 7,5.8 24.1,5.4 14.2,-0.3 15.6,-0.5 18.7,-2.6 5.8,-4.2 6.6,-7 7.2,-24.7 l 0.5,-16 16.5,-0.5 c 18.4,-0.6 21.4,-1.5 25.7,-8 2.1,-3.1 2.3,-4.4 2.3,-18.5 0,-14.2 -0.2,-15.4 -2.3,-18.6 -1.2,-1.8 -3.8,-4.4 -5.6,-5.6 -3.2,-2.2 -4.4,-2.3 -19.6,-2.3 -13.9,0 -16.4,-0.2 -16.9,-1.6 -0.3,-0.9 -0.6,-7.8 -0.6,-15.4 0,-14.9 -0.6,-17.9 -4.8,-22.4 -4.5,-4.8 -7.8,-5.6 -22.9,-5.6 -11.8,0.1 -14.4,0.4 -17.6,2.1 z m 33.9,9 c 1.7,1.9 2,4.3 2.4,21.8 l 0.5,19.6 20.2,0.5 c 25.7,0.6 24.6,-0.1 25.1,16.6 0.2,7 -0.1,12.6 -0.7,14.3 -2.2,5.1 -4,5.6 -25.1,6.1 l -19.5,0.5 -0.3,19.2 -0.2,19.2 -3.1,2.5 c -2.9,2.5 -3.6,2.6 -15.4,2.6 -11.6,0 -12.6,-0.1 -15.2,-2.4 l -2.8,-2.4 -0.3,-19.6 -0.3,-19.6 -17.2,0 c -9.5,0 -18.9,-0.5 -20.9,-1 -6.1,-1.7 -6.8,-3.7 -6.8,-18 0.1,-18.3 -0.3,-18 25.9,-18 l 19.1,0 0,-18.9 c 0,-18.9 0,-19 2.6,-22 l 2.6,-3.1 13.7,0 c 12.7,0 13.9,0.2 15.7,2.1 z"/>
<path d="M 279,20.1 c -2.9,1.2 -6.8,4.6 -8.2,7.3 -1.5,2.8 -16.8,44.9 -16.8,46.3 0,0.8 1.3,1.3 3.3,1.3 1.8,0 4.2,0.7 5.3,1.5 1.3,0.9 3.2,1.2 5.6,0.8 4.3,-0.6 9.4,1.1 10.8,3.8 2.7,5 -0.5,8.6 -6.6,7.4 l -3.4,-0.6 0.1,4.3 c 0.1,2.4 0,7.7 -0.3,11.9 -0.3,6.5 -0.7,8 -3,10.5 -11.3,12.5 -14.4,15.4 -18.3,17.5 -3.7,1.9 -5.2,3.9 -9.8,11.9 -5.1,8.9 -7.3,12.9 -20.9,39 -8.1,15.3 -23.6,44.5 -27.3,51.5 -1.8,3.3 -11.9,22.3 -22.5,42.3 -21.7,41.1 -22.3,42.8 -20.3,57.1 3.3,22.5 18,37.1 37.3,37.1 16.4,0 34.7,-11.4 42.6,-26.5 2.6,-5 26.4,-63.4 26.4,-64.8 0,-0.2 -3.3,-0.8 -7.2,-1.1 -9.9,-1 -16.6,-2.5 -20.9,-4.7 -11.6,-5.8 -17,-16.9 -12.6,-25.8 1.5,-2.9 1.4,-3.5 -0.3,-7.4 -2.7,-5.8 -2.5,-9.4 0.8,-15.8 2.3,-4.6 3.6,-5.8 8.8,-8.5 4.2,-2.2 8.8,-3.5 14.8,-4.4 7.5,-1 8.6,-1.5 8,-2.9 -1.4,-3 -1.6,-11.4 -0.5,-15.3 0.7,-2.2 3,-5.7 5.1,-7.8 l 4,-4 -2.8,-1.4 c -4.4,-2.3 -10.9,-10 -12.3,-14.4 -3.5,-11.7 6.5,-21.3 20.7,-19.9 13,1.3 23.4,11.5 23.4,23 l 0,4.7 5.3,-2.1 c 11.6,-4.6 10.7,-3.9 10.7,-8.9 0,-7 4.2,-14.2 13.6,-23.8 7.9,-7.9 8.8,-9.3 19.7,-30.5 6.3,-12.2 14.2,-27.5 17.6,-33.9 6.8,-13.1 7.4,-16.5 4,-23.5 -3.1,-6.5 -18.4,-19.4 -29.8,-25.3 -10.1,-5.1 -37.4,-8.8 -44.1,-5.9 z m 9.6,34.3 c 3.8,3.8 4.1,4.8 1.8,7 -2.4,2.5 -7.8,2 -11.3,-1 -3.5,-2.9 -3.9,-4.9 -1.4,-7.6 2.6,-2.9 7,-2.3 10.9,1.6 z m 19.1,7.6 c 6.1,3.7 5.2,10 -1.4,10 -6.8,0 -12.2,-6.3 -8.7,-10.1 2.2,-2.4 6,-2.4 10.1,0.1 z m 19.2,8.5 c 4.6,2.3 5.6,7.6 2,9.6 -6.3,3.3 -16.4,-5.2 -11.7,-9.9 1.6,-1.6 6.3,-1.5 9.7,0.3 z m -29.7,17.5 c 3.5,2.7 4.1,5.7 1.6,8.2 -5,5 -17.2,-3.4 -12.8,-8.7 1.8,-2.2 8.2,-1.9 11.2,0.5 z m 18.5,8 c 3.6,2.2 5.2,6.2 3.3,8.5 -0.7,0.9 -2.9,1.5 -5.2,1.5 -3,0 -4.6,-0.7 -6.9,-2.9 -3.4,-3.5 -3.6,-4.4 -0.9,-7.1 2.5,-2.5 5.6,-2.5 9.7,0 z m -32.2,16.4 c 3.9,1.7 5.9,4.8 5.1,8.2 -0.6,2.1 -1.2,2.4 -5,2.4 -7.5,0 -12.6,-6 -8.5,-10.1 2.3,-2.3 3.8,-2.4 8.4,-0.5 z m 21.2,9.5 c 1.7,1.1 3.4,2.9 3.8,4.1 0.9,2.8 -2,6 -5.4,6 -6.5,0 -12.7,-7.6 -8.6,-10.7 2.6,-1.8 6.5,-1.6 10.2,0.6 z"/>
<path d="M 251,84.1 c -1.9,1.2 -5.4,3.9 -7.8,6 -2.4,2.1 -9.1,6.1 -14.9,8.9 -12.2,5.9 -18.6,11.4 -28.5,24.5 -3.7,4.8 -8.7,10.1 -12.2,12.6 -10,7.3 -12.3,9.7 -16.4,17.2 -2.2,4 -6.9,12.3 -10.5,18.5 -3.6,6.2 -7.8,14.8 -9.3,19 -4.4,12.6 -7.4,18.9 -10.2,21.5 -2.1,1.8 -9.6,4.3 -32.2,10.7 -16.2,4.5 -34.7,9.7 -41,11.5 -6.3,1.8 -20.4,5.6 -31.3,8.6 -18.6,5 -19.6,5.4 -18,7 3.9,3.8 90.8,63.9 92.3,63.9 0.9,0 5.9,-0.9 11.1,-2 5.2,-1.2 11.6,-2.5 14.4,-3.1 2.7,-0.5 5.2,-1.3 5.6,-1.7 0.8,-0.9 3.6,-6 30.4,-56.7 12.5,-23.7 24,-45.3 25.5,-48 1.5,-2.8 8,-15.1 14.5,-27.5 6.5,-12.4 14.8,-27.9 18.6,-34.5 6.1,-10.9 7.2,-12.3 11.3,-14.2 6.9,-3.4 12,-8.6 15.6,-16 2.9,-5.9 3.4,-7.8 3.4,-14.8 0.1,-6.1 -0.3,-8.7 -1.7,-10.8 -2.1,-3.3 -4.1,-3.4 -8.7,-0.6 z"/>
<path d="M 316.4,145.2 c -11.1,11.7 -12.6,15.5 -8.5,22.1 1.1,1.9 2.1,3.7 2.1,3.9 0,0.3 -2.1,1.1 -4.7,1.9 -2.7,0.7 -7.6,2.6 -11,4.1 -3.4,1.6 -12.3,4.5 -19.7,6.3 -18.9,4.8 -21.9,6.6 -23.7,14.4 -1.1,5 0.7,10.3 4.3,12.2 1.2,0.7 6.1,1.6 10.7,1.9 l 8.5,0.5 -10,2.7 c -5.4,1.6 -13.5,3 -17.9,3.4 -19.1,1.3 -27.3,5.2 -28.1,13.4 -0.6,5.7 1,8.8 6.1,11.7 5.1,2.8 13.7,4.3 26.6,4.4 6.7,0.1 9.3,0.4 7.4,0.9 -1.6,0.4 -10.6,0.5 -20,0.2 -16.3,-0.4 -17.1,-0.4 -18.9,1.6 -3.8,4.3 0.7,12.7 9,16.7 7,3.3 30.4,4.7 40.4,2.4 5.4,-1.2 13.5,-7.2 15.1,-11.1 1.2,-2.9 0.4,-10.5 -1.5,-14.9 -0.6,-1.3 0.8,-2.1 7,-4.3 10.2,-3.7 15.2,-6.9 17,-11.1 1.8,-4.5 1.8,-5.4 -0.7,-12 -1.4,-3.8 -3,-6.2 -5,-7.4 l -2.8,-1.7 5.7,-1.9 c 17.4,-5.7 26.2,-12.8 26.2,-21 0,-2.3 -3.3,-9.5 -6.2,-13.7 -1,-1.4 -0.3,-2.6 5.5,-7.8 6.3,-5.8 6.7,-6.4 6.7,-10.5 0,-3.2 -0.7,-5.1 -2.6,-7.5 -2.7,-3.2 -7.3,-6 -9.7,-6 -0.8,0 -4.1,2.8 -7.3,6.2 z"/>
<path d="M 250.5,152.9 c -5.9,2.4 -8,9.7 -4.6,15.8 3.5,6.1 8.3,8.7 16.4,8.8 6.5,0 7,-0.2 9.8,-3.3 5.6,-6.2 2.9,-15.2 -6,-19.9 -4.5,-2.4 -11.6,-3 -15.6,-1.4 z"/>
</svg>
