<svg xmlns="http://www.w3.org/2000/svg" viewBox="0 0 384 384">
<path d="M 53.5,18.1 l -3.5,3.1 0,116.2 c 0,63.8 -0.4,116.7 -0.8,117.3 -1.3,2.1 -11.5,-1.3 -15,-5.1 -2.7,-2.8 -5.3,-9.6 -7.7,-20.1 -1.5,-6.5 -7,-8.7 -10.1,-4 -2.2,3.4 -1.4,14.7 1.5,22.5 4,10.7 14.9,21.5 25.8,25.6 2.7,1 5.1,2.3 5.5,2.8 0.4,0.6 0.8,12.1 0.8,25.6 l 0,24.5 -8.9,8.2 c -9.7,9 -13.1,14.4 -13.1,21 0,5.6 3.8,12.3 8.6,15 4.7,2.7 13,3.1 17.7,0.7 1.8,-0.9 11.9,-10.2 22.5,-20.8 l 19.3,-19.1 19,-0.3 19,-0.3 17.4,17.1 c 9.9,9.6 19,17.7 21,18.5 10.5,4.5 23.3,-2.5 25.1,-13.6 0.9,-5.3 -1.2,-11.1 -5.6,-16.2 -3.2,-3.6 -3.7,-4.6 -2.4,-5.1 0.9,-0.3 26.4,-0.6 56.8,-0.6 60.5,0 57.9,0.3 61.1,-6 1.3,-2.5 1.5,-11.1 1.5,-58.7 l 0,-55.8 31.4,-31.5 c 28.5,-28.6 31.5,-31.9 32.1,-35.5 0.3,-2.2 1,-5 1.5,-6.2 2,-4.8 -3.6,-10.5 -7.3,-7.5 -0.6,0.5 -3.2,1.2 -5.6,1.5 -4.2,0.5 -5.6,1.7 -27.5,23.6 -12.7,12.7 -23.4,23.1 -23.9,23.1 -0.4,0 -0.7,-34.4 -0.7,-76.5 0,-63.9 -0.2,-77.1 -1.4,-80 -2.9,-6.9 5.7,-6.5 -129,-6.5 l -121.5,0 -3.6,3.1 z m 233,101.6 l 0,82.2 -16.7,16.9 c -15.6,15.6 -16.8,17.1 -16.8,20.5 0,3 -0.9,4.7 -5,9.2 -5.4,5.9 -5.9,7.8 -3.3,10.7 2.8,3.1 6,2.2 11.8,-3.3 3,-2.8 5.8,-4.8 6.4,-4.5 2.1,1.3 7,-1.9 14.8,-9.6 7.7,-7.7 8.2,-8 8.8,-5.7 0.3,1.3 0.4,18.1 0.3,37.4 l -0.3,35 -61.5,0.3 -61.5,0.2 -12.4,-12.4 c -11.7,-11.7 -12.2,-12.5 -10.2,-13.5 1.2,-0.7 2.6,-0.9 3.1,-0.6 1.5,0.9 7,-4.8 7.6,-8 0.4,-2.2 -0.1,-4 -2.1,-6.9 -1.4,-2.1 -2.5,-4.1 -2.3,-4.5 0.2,-0.3 11.6,-11.7 25.4,-25.4 16.3,-16.1 25.7,-24.7 27.1,-24.7 1.3,0 4.7,-2.9 9.2,-7.9 l 7.1,-8 -3.1,-3.6 c -5.6,-6.3 -5.9,-6.3 -14.2,1 -5,4.4 -7.6,7.5 -8,9.3 -0.4,2.1 -7.6,9.7 -25.7,27.3 -13.9,13.4 -25.6,24.6 -26.1,24.7 -0.5,0.2 -2.3,-0.8 -4,-2.2 -1.7,-1.4 -4.1,-2.6 -5.4,-2.6 -3.3,0 -9.3,5.5 -9.7,8.7 -0.2,1.5 -0.7,2.8 -1.3,2.9 -0.5,0.2 -4.3,-2.8 -8.4,-6.6 -6.6,-6.2 -7.3,-7.2 -6.7,-9.7 0.4,-1.5 1,-7.1 1.3,-12.3 0.4,-8.4 0.2,-10.3 -2,-16.2 -1.3,-3.7 -2.2,-7 -1.9,-7.3 0.3,-0.3 15.6,-0.5 34,-0.5 29.8,0 33.7,-0.2 35.4,-1.7 2.4,-2.1 2.3,-4.8 -0.2,-7.3 -1.9,-1.9 -3.3,-2 -36.8,-2 -30.1,0 -35.1,0.2 -37,1.6 -2.2,1.5 -2.5,1.4 -6.2,-2 -2.1,-1.9 -7,-5 -10.9,-6.8 l -7.1,-3.3 0,-75.1 c 0,-41.3 0.3,-75.4 0.7,-75.7 0.3,-0.4 48.6,-0.6 107.2,-0.5 l 106.6,0.3 0,82.2 z m -209.1,86.4 c 2.5,2.2 4,4.7 5.2,8.7 0.9,3.1 2.3,7.7 3,10.1 1.7,5.4 1.8,10.5 0.3,13.4 -1.3,2.6 -12,13.7 -13.1,13.7 -0.4,0 -0.8,-11 -0.8,-24.5 0,-15.1 0.4,-24.5 1,-24.5 0.5,0 2.5,1.4 4.4,3.1 z m 7.1,75.9 l 7.9,8 -3.9,4 c -2.9,3 -4.7,4 -7,4 -2.1,0 -4,0.9 -5.5,2.5 -1.3,1.4 -2.7,2.5 -3.2,2.5 -1.4,0 -1,-27.8 0.5,-28.3 2.5,-1.1 3.4,-0.5 11.2,7.3 z m 97.7,61.8 c 7.3,7.3 8.2,9.8 4.8,13.2 -3.7,3.7 -6.9,2.6 -13.9,-4.4 -7.1,-7.1 -8.1,-10.6 -4.1,-13.8 3.7,-3 6,-2.2 13.2,5 z"/>
<path d="M 96,75 c -2.4,2.4 -2.5,3.8 -0.4,6.8 l 1.5,2.2 81.8,0 c 78,0 81.9,-0.1 83.4,-1.8 2.2,-2.5 2.1,-4.8 -0.3,-7.2 -2,-2 -3.3,-2 -83,-2 -79.7,0 -81,0 -83,2 z"/>
<path d="M 95.6,107.2 c -2.1,3 -2,4.4 0.4,6.8 2,2 3.3,2 83,2 79.7,0 81,0 83,-2 2.5,-2.5 2.6,-5.2 0.2,-7.3 -1.7,-1.6 -8.9,-1.7 -83.5,-1.7 l -81.6,0 -1.5,2.2 z"/>
<path d="M 96,138 c -2.4,2.4 -2.5,3.8 -0.4,6.8 l 1.5,2.2 81.8,0 c 78,0 81.9,-0.1 83.4,-1.8 2.2,-2.5 2.1,-4.8 -0.3,-7.2 -2,-2 -3.3,-2 -83,-2 -79.7,0 -81,0 -83,2 z"/>
<path d="M 95.6,170.2 c -2.1,3 -2,4.4 0.4,6.8 2,2 3.3,2 83,2 79.7,0 81,0 83,-2 2.5,-2.5 2.6,-5.2 0.2,-7.3 -1.7,-1.6 -8.9,-1.7 -83.5,-1.7 l -81.6,0 -1.5,2.2 z"/>
<path d="M 207.4,262.8 c -2.4,1.6 -3.3,4.8 -2.1,7.3 1.2,2.4 1.4,2.4 17.4,2.7 17.4,0.3 19.3,-0.2 19.3,-5.2 0,-4.9 -2.4,-5.6 -18.6,-5.6 -8.2,0 -15.4,0.4 -16,0.8 z"/>
<path d="M 345.7,181.8 c -20.1,20.1 -24.7,25.2 -24.7,27.4 0,2.8 2.3,4.8 5.7,4.8 2.6,0 51.3,-48.9 51.3,-51.6 0,-2.5 -3,-5.4 -5.6,-5.4 -1.2,0 -11.4,9.5 -26.7,24.8 z"/>
</svg>
