<svg xmlns="http://www.w3.org/2000/svg" viewBox="0 0 384 384">
<path d="M 297.1,81.2 c -1.2,1.2 -2.4,3.3 -2.7,4.5 -0.4,1.3 -0.7,2.4 -0.8,2.5 0,0.1 -13.1,0.5 -29.1,0.8 l -29,0.5 -0.3,18.2 -0.2,18.3 10.4,0 c 9.7,0 10.4,0.1 9.9,1.9 -0.3,1 -12.5,13.9 -27.3,28.5 l -26.7,26.6 -12.4,0 -12.4,0 -7.9,-7.9 -7.8,-7.9 -0.9,-7.8 c -0.4,-4.4 -0.9,-11.1 -1,-14.9 -0.2,-6.1 -0.3,-5.5 -1.1,5 -0.5,6.6 -1.2,12.2 -1.4,12.5 -0.3,0.2 -9.1,-8.2 -19.6,-18.8 -10.6,-10.5 -19,-19.3 -18.7,-19.6 0.5,-0.5 11.1,-2.7 22.7,-4.6 5,-0.8 7.2,-1.6 7.2,-2.6 0,-0.8 -0.5,-1.4 -1.1,-1.4 -0.6,0 -3.8,-1.6 -7.2,-3.6 l -6.2,-3.7 -14.5,0.6 c -16.9,0.8 -26,1.7 -26,2.7 0,0.4 2.3,3.7 5.1,7.4 l 5.1,6.8 5.9,-0.7 6,-0.7 20.4,20.3 20.5,20.3 0,9.3 0,9.3 -3.5,0 c -1.9,0 -3.5,0.4 -3.5,0.9 0,0.5 -0.7,1.7 -1.6,2.5 -1.3,1.4 -5.5,1.6 -30.9,1.6 -16.1,0 -30,-0.3 -30.9,-0.6 -1.4,-0.5 -1.6,-3.1 -1.6,-18.5 0,-13.5 -0.3,-18.1 -1.3,-18.3 -0.6,-0.3 -6.8,-0.7 -13.7,-1 l -12.5,-0.6 -1.6,2.7 c -1.6,2.5 -1.7,2.5 -2.3,0.6 -0.6,-1.8 -1.8,-2.1 -13.2,-2.6 -6.9,-0.3 -13.1,-0.4 -13.7,-0.1 -0.7,0.2 -2.4,2.6 -4,5.3 -2.7,4.9 -2.7,5 -2.6,23.2 0.1,10.1 0.4,22.2 0.7,26.8 1,12 1.3,12.2 20.2,11.2 8,-0.4 15,-0.5 15.5,-0.1 0.6,0.4 7.2,0.5 14.8,0.2 l 13.7,-0.5 0,-12.7 c 0,-12.4 0.1,-12.8 2.3,-13.4 2.8,-0.7 56.5,-0.8 59.3,0 1.3,0.4 2.4,1.6 2.7,3.3 0.8,3.7 4.8,5.8 8.2,4.3 2.8,-1.3 13.7,-1.6 14.9,-0.5 0.4,0.4 -8.2,9.6 -19.1,20.5 l -19.8,19.8 -5.1,0 c -5.5,0 -8.3,1.9 -10.3,7.2 l -1,2.8 -28.8,0.2 -28.8,0.3 -0.3,16.5 c -0.1,9.1 0,17.5 0.3,18.7 0.5,2.2 0.9,2.3 13.8,2.4 l 13.2,0 -4,1.9 -4,1.8 2.8,1.1 c 3.6,1.4 12.8,1.4 16.4,0 l 2.8,-1.1 -4,-1.8 -4,-1.9 12.8,0 c 10.4,-0.1 12.7,0.2 12.7,1.3 0,0.8 1,2.2 2.2,3 2.8,2 21.7,2.3 23.6,0.4 1.7,-1.7 1.7,-49.9 0,-51.6 -0.7,-0.7 -2.2,-1.2 -3.5,-1.2 -1.3,0 -2.3,-0.6 -2.3,-1.3 0,-0.6 8.7,-9.9 19.4,-20.5 l 19.4,-19.2 13.3,0 13.3,0 25.3,25.2 c 13.9,13.9 25.3,25.8 25.3,26.5 0,1 -2.4,1.3 -9,1.3 l -9,0 0.2,18.2 0.3,18.3 12.8,0.3 c 7.6,0.1 12.7,0.7 12.7,1.3 0,0.5 -1.3,1.2 -3,1.5 -5.5,1.1 -3.6,2.7 4.5,3.8 8.2,1.1 16.6,-2.3 9.6,-3.9 -6.4,-1.4 -2.7,-2.5 8.2,-2.5 l 11.4,0 3.7,3.6 c 3.3,3.2 4.2,3.6 7.4,3 2,-0.3 6.7,-0.6 10.5,-0.6 l 6.7,0 -0.2,-26.2 -0.3,-26.3 -11.1,-0.3 -11,-0.3 -2.5,4.8 -2.4,4.8 -15.5,0.3 c -8.5,0.1 -16.6,0 -18,-0.3 -2.8,-0.7 -52,-49.1 -52,-51.2 0,-1.6 9.5,-1.8 10.5,-0.3 1.8,2.9 8.5,-0.2 8.5,-3.9 0,-1.4 0.9,-2.5 2.6,-3.1 3.4,-1.3 40,-1.3 42.5,0 1.5,0.9 1.9,2.2 1.9,6.5 l 0,5.4 13.3,0.3 c 13,0.3 16.3,1.4 9.6,3.1 -7.2,1.9 5.1,4.9 13.6,3.3 4.2,-0.8 4.7,-3.3 0.8,-3.8 -1.6,-0.2 -2.8,-0.8 -2.8,-1.3 0,-0.6 4.8,-1.1 11.7,-1.3 11.3,-0.3 11.7,-0.2 12.9,2 0.7,1.3 1.9,2.8 2.8,3.5 2.2,1.7 21.5,1.7 22.8,0 1.3,-1.5 1.7,-48.7 0.5,-50.4 -0.5,-0.8 -4.7,-1.5 -11,-1.9 -11.3,-0.8 -11.2,-0.8 -14.7,6.3 l -1.6,3.3 -28.9,0 -28.9,0 -0.3,11.2 -0.3,11.3 -20,0.3 c -23,0.3 -26.5,0 -26.5,-2.8 0,-1.8 -0.9,-2 -10.7,-2.2 l -10.8,-0.3 24.7,-25 24.7,-25 10.2,0 c 6.9,0 10.3,-0.4 10.6,-1.2 0.2,-0.6 -1,-1.4 -2.6,-1.8 -1.7,-0.4 -3.1,-1.3 -3.1,-2.1 0,-1.1 2.2,-1.4 11.3,-1.4 l 11.2,0 3.1,3.7 3.1,3.7 10.4,-0.3 c 5.7,-0.1 10.7,-0.5 11.1,-0.7 0.4,-0.3 0.8,-12.2 0.8,-26.5 l 0,-25.9 -8.9,0 c -4.9,0 -9.6,-0.3 -10.4,-0.6 -0.8,-0.3 -2.4,0.5 -3.6,1.8 z m -125.1,100.7 c 0,0.7 -2.2,1.1 -5.5,1.1 l -5.5,0 0,-6.8 0,-6.7 5.5,5.7 c 3,3.1 5.5,6.1 5.5,6.7 z"/>
<path d="M 88.4,83.5 c -0.4,0.9 -0.2,4.7 0.4,8.3 0.7,3.7 1.4,8.4 1.7,10.4 0.3,2.1 1.4,4.2 2.3,4.7 2.6,1.3 37.2,-1.3 37.2,-2.9 0,-2.4 -5.4,-17.6 -6.6,-18.6 -0.8,-0.6 -6.7,-1.4 -13.1,-1.7 -6.5,-0.4 -13.9,-1 -16.5,-1.3 -4,-0.5 -4.9,-0.4 -5.4,1.1 z"/>
</svg>
