<?xml version="1.0" standalone="no"?>
<!DOCTYPE svg PUBLIC "-//W3C//DTD SVG 20010904//EN"
 "http://www.w3.org/TR/2001/REC-SVG-20010904/DTD/svg10.dtd">
<svg version="1.0" xmlns="http://www.w3.org/2000/svg"
 width="384.000000pt" height="384.000000pt" viewBox="0 0 384.000000 384.000000"
 preserveAspectRatio="xMidYMid meet">
<metadata>
Created by potrace 1.16, written by Peter Selinger 2001-2019
</metadata>
<g transform="translate(0.000000,384.000000) scale(0.100000,-0.100000)"
fill="#000000" stroke="none">
<path d="M1565 3678 c-32 -18 -44 -40 -44 -78 0 -78 30 -90 233 -90 l166 0 0
-164 0 -165 -57 -6 c-333 -37 -645 -180 -870 -399 -56 -53 -63 -65 -63 -99 0
-50 35 -87 84 -87 29 0 48 11 108 66 173 156 393 270 618 319 114 25 344 30
462 11 335 -55 640 -237 838 -501 308 -411 362 -947 142 -1406 -181 -376 -544
-653 -952 -725 -137 -24 -346 -22 -477 5 -237 49 -430 146 -622 312 -68 59
-91 73 -117 73 -49 0 -84 -37 -84 -88 0 -38 6 -46 71 -108 101 -94 212 -172
342 -237 128 -65 228 -100 377 -132 148 -32 429 -33 573 -1 305 67 541 195
757 412 459 459 575 1144 295 1737 -47 100 -129 231 -189 302 l-37 45 95 95
96 96 54 -57 c30 -32 66 -60 80 -64 56 -14 106 28 106 89 0 38 -8 48 -172 214
-95 96 -184 179 -197 184 -38 15 -90 -7 -106 -46 -20 -46 -10 -73 54 -138 l56
-57 -95 -95 -95 -95 -50 41 c-220 184 -487 294 -807 334 l-48 6 0 165 0 164
169 0 c168 0 170 0 200 26 25 20 31 34 31 64 0 30 -6 44 -31 64 l-31 26 -421
0 c-299 -1 -428 -4 -442 -12z"/>
<path d="M1882 2649 c-169 -16 -386 -100 -418 -162 -20 -37 -10 -81 23 -107
36 -28 63 -25 148 15 117 56 211 77 345 76 188 0 355 -57 497 -171 145 -116
259 -305 288 -479 l7 -44 -27 21 c-62 49 -149 12 -149 -63 0 -42 15 -59 145
-162 106 -84 129 -95 171 -81 23 8 147 155 202 240 22 34 15 87 -15 114 -33
30 -96 25 -125 -9 -16 -19 -25 -24 -28 -15 -2 7 -12 46 -21 87 -40 172 -127
325 -264 461 -209 209 -483 306 -779 279z"/>
<path d="M315 2305 c-33 -32 -33 -84 -1 -122 l24 -28 442 0 442 0 24 28 c32
38 32 90 -1 122 l-24 25 -441 0 -441 0 -24 -25z"/>
<path d="M1935 1971 c-138 -36 -226 -144 -233 -288 -7 -130 58 -242 173 -298
64 -32 164 -36 234 -11 l44 16 246 -250 c231 -235 248 -251 281 -250 39 1 61
14 78 47 30 55 24 63 -233 328 l-246 254 17 57 c42 146 -26 304 -161 370 -57
28 -147 39 -200 25z m125 -186 c66 -34 90 -116 55 -185 -34 -65 -136 -83 -194
-34 -60 50 -62 142 -3 196 44 41 92 49 142 23z"/>
<path d="M539 1745 c-54 -29 -60 -107 -12 -145 25 -19 42 -20 463 -20 l438 0
26 31 c42 49 28 107 -31 138 -15 8 -151 11 -440 11 -342 -1 -423 -3 -444 -15z"/>
<path d="M316 1154 c-38 -39 -36 -93 5 -128 l31 -26 428 0 428 0 31 26 c41 35
43 89 5 128 l-27 26 -437 0 -437 0 -27 -26z"/>
<path d="M1946 865 c-25 -24 -26 -27 -26 -148 0 -121 1 -125 26 -151 34 -33
73 -34 113 0 l31 26 0 123 c0 119 -1 123 -26 149 -35 34 -82 35 -118 1z"/>
</g>
</svg>
