<svg xmlns="http://www.w3.org/2000/svg" viewBox="0 0 384 384">
<path d="M 72.7,11.1 c -2,1.1 -4.9,3.8 -6.5,6.1 -2.6,4 -2.7,4.8 -3.2,20.2 l -0.5,16.1 -17,0.5 c -15.8,0.5 -17.2,0.7 -20.3,2.8 -5.9,4.3 -7.2,8.4 -7.2,23.1 0,14 0.7,17.1 4.8,21.5 4.6,4.9 7.7,5.6 24.7,5.6 l 15.5,0 0,13.7 c 0,15.7 0.9,20 5,24.7 4.7,5.3 7,5.8 24.1,5.4 14.2,-0.3 15.6,-0.5 18.7,-2.6 5.8,-4.2 6.6,-7 7.2,-24.7 l 0.5,-16 16.5,-0.5 c 18.4,-0.6 21.4,-1.5 25.7,-8 2.1,-3.1 2.3,-4.4 2.3,-18.5 0,-14.2 -0.2,-15.4 -2.3,-18.6 -1.2,-1.8 -3.8,-4.4 -5.6,-5.6 -3.2,-2.2 -4.4,-2.3 -19.6,-2.3 -13.9,0 -16.4,-0.2 -16.9,-1.6 -0.3,-0.9 -0.6,-7.8 -0.6,-15.4 0,-14.9 -0.6,-17.9 -4.8,-22.4 -4.5,-4.8 -7.8,-5.6 -22.9,-5.6 -11.8,0.1 -14.4,0.4 -17.6,2.1 z m 33.9,9 c 1.7,1.9 2,4.3 2.4,21.8 l 0.5,19.6 20.2,0.5 c 25.7,0.6 24.6,-0.1 25.1,16.6 0.2,7 -0.1,12.6 -0.7,14.3 -2.2,5.1 -4,5.6 -25.1,6.1 l -19.5,0.5 -0.3,19.2 -0.2,19.2 -3.1,2.5 c -2.9,2.5 -3.6,2.6 -15.4,2.6 -11.6,0 -12.6,-0.1 -15.2,-2.4 l -2.8,-2.4 -0.3,-19.6 -0.3,-19.6 -17.2,0 c -9.5,0 -18.9,-0.5 -20.9,-1 -6.1,-1.7 -6.8,-3.7 -6.8,-18 0.1,-18.3 -0.3,-18 25.9,-18 l 19.1,0 0,-18.9 c 0,-18.9 0,-19 2.6,-22 l 2.6,-3.1 13.7,0 c 12.7,0 13.9,0.2 15.7,2.1 z"/>
<path d="M 127.5,122.5 l -2.5,2.4 0,117.4 0,117.4 2.3,2.1 2.3,2.2 95.1,0 c 52.3,0 95.9,-0.3 96.8,-0.6 4.3,-1.7 4.5,-4.1 4.5,-49.1 l 0,-42.7 24.5,-24.6 c 19.7,-19.8 24.5,-25.1 24.5,-27.2 0,-1.5 0.5,-3.9 1.2,-5.3 1,-2.2 0.9,-2.9 -1,-4.7 -1.8,-1.9 -2.5,-2 -4.7,-1 -1.4,0.7 -3.8,1.2 -5.2,1.2 -2,0 -6.6,4 -20.9,18.2 l -18.4,18.1 -0.2,-60.7 -0.3,-60.8 -2.8,-2.4 -2.8,-2.4 -95,0 -95,0 -2.4,2.5 z m 180.9,16.1 c 0.3,0.9 0.6,29.3 0.6,63.1 l 0,61.6 -12.4,12.6 c -12.3,12.6 -14.6,15.5 -14.6,18.7 0,0.9 -1.6,3.4 -3.5,5.5 -3.6,4.1 -4.3,6.7 -2.3,8.7 2,2 4.2,1.4 8.5,-2.3 2.3,-1.9 4.9,-3.5 5.8,-3.5 2.8,0 6.8,-2.7 12,-7.9 2.7,-2.8 5.3,-5.1 5.7,-5.1 0.5,0 0.7,12.7 0.6,28.3 l -0.3,28.2 -83.2,0.3 -83.3,0.2 0,-104.3 c 0,-57.4 0.3,-104.7 0.7,-105 0.3,-0.4 37.6,-0.7 82.9,-0.7 74,0 82.2,0.2 82.8,1.6 z"/>
<path d="M 160.6,166.6 c -2.1,2 -2,3.7 0.2,5.7 1.7,1.5 7.6,1.7 64.4,1.7 59.3,0 62.6,-0.1 64.1,-1.8 2,-2.2 2.2,-4.3 0.5,-6 -0.9,-0.9 -16.6,-1.2 -64.4,-1.2 -56.2,0 -63.4,0.2 -64.8,1.6 z"/>
<path d="M 160.7,190.8 c -2.1,2.3 -2.1,3.6 -0.1,5.6 1.4,1.4 8.6,1.6 64.8,1.6 47.8,0 63.5,-0.3 64.4,-1.2 1.7,-1.7 1.5,-4.2 -0.6,-6.1 -1.7,-1.5 -7.6,-1.7 -64.4,-1.7 -59.3,0 -62.6,0.1 -64.1,1.8 z"/>
<path d="M 160,215.5 c -1,1.2 -1,2.1 -0.2,4 l 1.2,2.5 64.1,-0.2 c 59.9,-0.3 64.3,-0.4 65.3,-2.1 0.8,-1.2 0.8,-2.2 0,-3.5 -1,-1.6 -5.4,-1.7 -65.1,-2 -56.6,-0.2 -64.2,0 -65.3,1.3 z"/>
<path d="M 159.8,240.5 c -0.8,1.9 -0.8,2.8 0.2,4 1.1,1.3 8.7,1.5 65.3,1.3 59.7,-0.3 64.1,-0.4 65.1,-2.1 0.8,-1.2 0.8,-2.2 0,-3.5 -1,-1.6 -5.4,-1.7 -65.3,-2 l -64.1,-0.2 -1.2,2.5 z"/>
<path d="M 160.7,263.8 c -2.2,2.4 -2.1,3.5 0.1,5.5 1.6,1.5 5.1,1.7 28.8,1.7 28.4,0 29.4,-0.2 29.4,-4.5 0,-4.3 -1,-4.5 -29.5,-4.5 -25.1,0 -27.3,0.1 -28.8,1.8 z"/>
<path d="M 246.2,312.2 c -0.6,0.6 -1.2,2 -1.2,2.9 0,3.4 2.4,4 15,3.7 10.4,-0.3 12.5,-0.6 13.4,-2.1 0.8,-1.2 0.8,-2.2 0,-3.5 -0.9,-1.4 -3,-1.7 -13.5,-2 -8.8,-0.2 -12.8,0.1 -13.7,1 z"/>
<path d="M 354.3,248.2 c -10.1,10.1 -18.7,19.4 -19,20.7 -0.6,2.5 1.7,5.1 4.6,5.1 0.8,0 10,-8.4 20.3,-18.8 17,-16.8 18.9,-19 18.6,-21.7 -0.2,-2.5 -0.8,-3.1 -3.2,-3.3 -2.5,-0.3 -4.9,1.7 -21.3,18 z"/>
</svg>
