<svg xmlns="http://www.w3.org/2000/svg" viewBox="0 0 384 384">
<path d="M 52.4,31.9 c -12,3.4 -21.4,11.3 -27,22.6 l -2.9,6 0,120.5 0,120.5 2.7,5.8 c 3.5,7.5 12.3,16.6 19.5,20.3 l 5.8,2.9 141.5,0 141.5,0 5.5,-2.7 c 7.7,-3.8 15.7,-11.9 19.4,-19.8 l 3.1,-6.5 0,-101 0,-101 -2.8,-5.7 c -4.2,-8.5 -11.6,-16.1 -19.5,-20 l -6.7,-3.3 -80.5,-0.6 c -44.3,-0.4 -81.7,-0.7 -83.2,-0.8 -2.3,-0.1 -2.8,-0.6 -3.3,-3.9 -2.3,-13.6 -11.2,-25.6 -22.7,-30.6 -3.5,-1.5 -7.1,-3.1 -8.1,-3.7 -1,-0.6 -16.6,-0.9 -39,-0.8 -31.9,0.1 -38.1,0.3 -43.3,1.8 z m 279.2,68.5 l 4.4,4.3 0,94.1 c 0,103 0.2,99.3 -5.8,103.7 -2.7,2 -4.3,2 -138.5,2 l -135.9,0 -3.3,-3.6 c -2.6,-2.9 -3.5,-4.9 -4,-9 -0.3,-3 -0.5,-46.5 -0.3,-96.6 l 0.3,-91.3 3.3,-3.2 c 3.1,-3.2 3.6,-3.3 13,-3.9 5.3,-0.3 66.6,-0.6 136.1,-0.7 l 126.4,-0.2 4.3,4.4 z"/>
<path d="M 176.5,126.4 c -23.6,5.5 -42.8,20.7 -53,42.1 -5.1,10.7 -6.8,18.3 -6.8,32 -0.1,21.8 6.4,37.7 21.8,53 10,10 16.7,14.4 28.8,18.9 7.9,2.9 8.8,3 24.7,3 15.2,0 17.1,-0.2 23.7,-2.6 12.3,-4.4 20.1,-9.4 29.9,-19.2 7.7,-7.7 9.8,-10.6 13.8,-18.6 6.4,-13.2 8,-20 8,-34.5 -0.1,-14.1 -1.7,-21.3 -7.4,-33 -9.2,-18.9 -25.8,-33 -46.5,-39.5 -9,-2.8 -28.1,-3.6 -37,-1.6 z m 37.9,15.7 c 3.1,1.1 5.8,2.4 6.1,2.9 0.3,0.5 -0.1,2.5 -0.9,4.4 -1.4,3.2 -1.3,3.7 0.6,6.1 1.1,1.5 1.7,3.3 1.4,4.2 -0.6,1.4 -1.2,1.1 -4.1,-1.7 l -3.4,-3.3 -2,2.4 c -2.6,3.1 -2.6,5 -0.1,5.6 1,0.3 2.2,1.3 2.5,2.3 0.3,1 1.3,2.2 2.3,2.6 1.4,0.6 1.1,0.8 -1.3,1.3 -2.4,0.5 -3.1,1.2 -3.3,3.4 -0.2,1.6 0.3,3.8 1.1,5.1 1.4,2.1 1.2,2.5 -3.4,7.8 -5.9,6.8 -6.9,9.2 -6.9,17.2 0,6 0.1,6.3 4.4,10.5 l 4.5,4.4 6.6,-0.6 c 4.1,-0.4 7.5,-0.2 9,0.5 3,1.3 3.5,4.2 0.6,3.3 -1.1,-0.3 -2.2,-0.1 -2.6,0.5 -0.3,0.5 -0.2,1 0.4,1 4.1,0 5.3,8.2 2.2,15.2 -1,2.4 -2.6,6.9 -3.6,10.1 -2.1,7.3 -4.6,10 -12,12.8 -7.3,2.7 -26.4,3.8 -33.4,1.9 l -4.3,-1.1 0.7,-6.7 c 0.5,-4.8 1.2,-7 2.6,-8 1.3,-0.9 1.9,-2.5 1.9,-5.5 0,-2.3 0.7,-5.1 1.5,-6.1 3.3,-4.4 0.4,-8.6 -7.1,-10.5 -2.8,-0.7 -6.2,-2.7 -8.8,-5.1 -2.3,-2.1 -5.4,-4.3 -6.8,-4.9 -2.6,-1 -3.2,-2.5 -4.6,-10.6 -0.7,-3.7 -1,-4.1 -5.5,-5.5 -2.6,-0.9 -5.1,-2 -5.5,-2.6 -0.4,-0.5 -2.6,-1.6 -5,-2.4 -3.2,-1 -4.5,-1.1 -5.4,-0.2 -1.9,1.9 -2.8,1.4 -2.8,-1.4 0,-3.6 1.7,-6.4 4,-6.4 1.5,0 2,0.7 2,2.5 0,1.3 0.8,2.9 1.9,3.4 1.7,0.9 1.8,0.6 1.7,-2.9 -0.1,-3.6 0.5,-4.4 5.7,-9.1 7.9,-7 11.6,-9.4 15.1,-9.7 1.6,-0.1 4,-0.9 5.2,-1.7 1.3,-0.8 3.5,-1.5 4.9,-1.5 2.8,0 3,-0.9 2.6,-9.1 -0.2,-4.3 0,-4.8 2.9,-6.5 2.6,-1.6 3.1,-2.4 2.7,-4.7 -0.4,-3.3 1.4,-5.1 4.3,-4.2 1.8,0.6 2.1,1.2 1.5,3.3 -1.4,5.5 -1.1,8.6 0.8,9 1,0.2 2.7,-0.4 3.7,-1.3 1,-0.9 4.5,-2.7 7.7,-4 4.7,-2 6,-2.9 6.7,-5.4 1.1,-3.8 3.2,-4 11,-1 z m -50.4,8.6 c 0,1.5 -4.5,5.3 -6.2,5.3 -2.7,0 -2.2,-2.7 1,-4.4 2.9,-1.6 5.2,-2 5.2,-0.9 z m 65.9,6 c 0,0.5 -0.3,0.9 -0.9,1.1 -0.5,0.2 -1,-0.4 -1,-1.3 0,-1.6 1.6,-1.4 1.9,0.2 z m -63.4,7.3 c 0.3,0.5 -0.1,1 -1,1 -0.9,0 -1.3,-0.5 -1,-1 0.3,-0.6 0.8,-1 1,-1 0.2,0 0.7,0.4 1,1 z m 79.5,6 c 0,0.5 -0.7,1 -1.5,1 -0.8,0 -1.5,-0.5 -1.5,-1 0,-0.6 0.7,-1 1.5,-1 0.8,0 1.5,0.4 1.5,1 z m -18.4,4.2 c 0.6,1.9 0.8,2 1.8,0.6 1.3,-1.8 4,-1 2.8,0.8 -0.8,1.2 -11.2,2.7 -11.2,1.6 0,-1.5 3.2,-5.2 4.5,-5.2 0.7,0 1.7,1 2.1,2.2 z m 16.7,5.4 c 2.5,-0.6 4.7,0.3 4.7,1.9 0,1 -1.7,1.3 -6.8,1.1 -8.7,-0.3 -9.6,-0.8 -7.4,-4.5 l 1.6,-2.9 3,2.5 c 1.8,1.5 3.7,2.2 4.9,1.9 z m -108.1,19.9 c 0.4,0.5 3.7,0.9 7.4,1 l 6.8,0 0.7,3.3 c 0.8,4.1 -0.8,5.1 -5.8,3.3 -2.9,-1.1 -3.8,-1 -5.8,0.3 -3.7,2.4 -5.5,2 -5.5,-1.2 0,-1.5 -0.7,-3.8 -1.6,-5 -0.9,-1.3 -1.3,-3 -1,-3.9 0.5,-1.3 0.9,-1.3 2.4,-0.2 0.9,0.8 2,1.8 2.4,2.4 z m 0.6,20.3 c -0.8,5.8 1.3,9.6 10.5,18.7 8,8.1 14.7,15.7 14.7,17 0,0.3 -2.8,-1.3 -6.2,-3.7 -12.5,-8.8 -22.6,-24.2 -25.3,-39 l -0.7,-3.8 3.7,3.5 c 3.4,3.1 3.7,3.8 3.3,7.3 z"/>
<path d="M 200.6,148.8 c -0.8,1.4 2,3.4 4.1,3 2.8,-0.5 2.2,-3.3 -0.9,-3.6 -1.4,-0.2 -2.9,0.1 -3.2,0.6 z"/>
</svg>
