<svg xmlns="http://www.w3.org/2000/svg" viewBox="0 0 384 384">
<path d="M 55.2,17 c -1.8,1.1 -3.7,3 -4.2,4.2 -3.4,8.5 -4.1,48.4 -1,69.8 3.5,25.3 10.7,50.9 19.4,69.6 2,4.2 3.6,7.8 3.6,8 0,1.2 12.2,22.2 17.3,29.9 11.4,17 27.1,35.4 39.5,46.1 4.2,3.7 7.8,7.1 8,7.5 0.3,0.8 -7.8,24.1 -10.4,29.6 -0.7,1.7 -1.4,3.4 -1.4,3.8 0,0.7 -6.3,18.3 -7.9,22 -0.5,1.1 -1.8,4.5 -2.9,7.5 -1.1,3 -3.5,9.3 -5.2,14 -1.8,4.7 -3.9,11 -4.8,14.1 -1.5,5.3 -1.5,5.7 0.4,9 4.1,7 2.9,6.9 60.7,6.9 45.3,0 52.3,-0.2 55.2,-1.6 7.2,-3.4 8,-9 3.3,-21.4 -1.4,-3.6 -4.6,-12.4 -7.2,-19.5 -2.6,-7.2 -5.4,-14.4 -6.2,-16.2 -2.8,-6.2 -2.2,-6.5 7.4,-3.2 32.3,11 66,15.4 98.9,13 18.8,-1.4 21.7,-2.3 24.6,-8.3 3.7,-7.6 5.9,-5.1 -66.5,-77.5 l -66.3,-66.3 13.8,-13.8 c 10.5,-10.7 13.7,-14.5 13.7,-16.5 0,-3.4 -2.5,-5.7 -6.2,-5.7 -2.6,0 -5,2 -16.4,13.7 l -13.3,13.8 -66.3,-66.1 c -36.5,-36.4 -67.3,-66.7 -68.5,-67.3 -3.3,-1.7 -7.4,-1.3 -11.1,0.9 z m 133.5,153.2 c 64,64 116.3,116.7 116.3,117.2 0,2 -37.7,-1.3 -51.7,-4.5 -29,-6.7 -57.3,-18.5 -78.9,-32.9 -54,-36.1 -89.7,-90.9 -100.4,-154.5 -2,-12.1 -3.7,-41.5 -2.3,-41.5 0.4,0 53.1,52.3 117,116.2 z m -17.7,104.9 c 6.9,4.4 8.5,6 10.1,9.7 1,2.4 1.9,4.8 1.9,5.4 0,0.5 0.7,2.4 1.5,4.1 0.8,1.8 3.5,9 6,16.2 2.6,7.1 5.3,14.4 6.1,16.2 0.8,1.7 1.7,4.5 2,6.2 l 0.7,3.1 -32.6,0 c -21.3,0 -32.8,-0.4 -33.2,-1 -0.4,-0.6 0.6,-4.3 2.1,-8.3 1.5,-4 3.8,-10.1 5.1,-13.7 1.3,-3.6 3.3,-8.8 4.3,-11.5 1.1,-2.8 3.5,-9.5 5.5,-15 2,-5.5 4,-10.9 4.4,-12 0.5,-1.1 1.4,-3.3 2,-4.8 1.1,-2.8 1.2,-2.8 3.5,-1.3 1.3,0.8 6.1,3.9 10.6,6.7 z"/>
<path d="M 240.7,21.4 c -2,2.1 -2.2,4.6 -0.4,7 1,1.4 4.4,2.3 13.4,3.6 13.7,2 14.6,2.3 22.8,5.8 13.4,5.8 26.6,16.6 34.5,28.3 8.6,12.6 14.9,31.1 15,43.6 0,6.9 5.5,10.7 9.6,6.6 1.4,-1.5 1.6,-3.2 1.1,-12.3 -1.1,-21.3 -10,-40.3 -26.7,-57 -16.6,-16.6 -35.9,-25.6 -57,-26.7 -9.1,-0.5 -10.8,-0.3 -12.3,1.1 z"/>
<path d="M 240.4,47.5 c -3.4,5.3 0.6,9.5 9,9.5 10.3,0 24.2,6.5 33.8,15.7 9.7,9.4 16.8,24.1 16.8,34.9 0,8.4 4.2,12.4 9.5,9 2.1,-1.4 2.5,-2.4 2.5,-7 0,-7.5 -3.3,-19.8 -7.7,-28.6 -5.3,-10.4 -17.9,-23.1 -28.3,-28.2 -8.9,-4.5 -21.2,-7.8 -28.6,-7.8 -4.6,0 -5.6,0.4 -7,2.5 z"/>
<path d="M 257.6,76 c -8.4,2.6 -15.4,12.2 -14.3,20 0.9,6.7 5,12.5 10.9,15.4 6.5,3.3 10.1,3.3 16.6,0 12.5,-6.2 14.5,-21.4 4.2,-30.8 -5.4,-4.8 -11.2,-6.4 -17.4,-4.6 z m 9.8,13.6 c 1.4,1.5 2.6,3.7 2.6,4.9 0,3.1 -4.4,7.5 -7.5,7.5 -3.3,0 -7.5,-4.1 -7.5,-7.3 0,-3 4.5,-7.7 7.5,-7.7 1.2,0 3.4,1.2 4.9,2.6 z"/>
</svg>
