<svg xmlns="http://www.w3.org/2000/svg" viewBox="0 0 384 384">
<path d="M 165,26.5 c -52.2,6.7 -94,41.2 -105.9,87.4 -3.6,13.6 -4.3,23.9 -3.1,41 2.5,33.9 11.3,60.6 29.2,88.7 8.8,13.8 12.8,26.8 13.6,44 0.7,16.3 -3,29.4 -11.9,42.5 -4.3,6.3 -17.5,19 -22.3,21.3 -1.7,0.9 -4.4,2.5 -6.1,3.6 l -3,2 76.9,-0.3 76.9,-0.2 2.8,-8.4 c 5.9,-17.4 14.2,-31.1 21,-34.6 2.3,-1.2 8.2,-1.5 31.9,-1.5 l 29.2,0 2.8,-2.8 c 3.7,-3.7 4.6,-9.6 3.1,-20.3 -0.6,-4.5 -1,-8.3 -0.9,-8.4 0.2,0 2,-1.3 4.1,-2.9 7,-5.1 7.1,-11.3 0.2,-14.2 -3.4,-1.4 -4,-3.4 -1.1,-3.4 0.7,0 2.5,-0.9 4,-2.1 2.2,-1.7 2.6,-2.8 2.6,-7 0,-4.6 2.9,-19.7 5,-26.4 1,-3 1.4,-3.1 9,-4.3 4.4,-0.6 9.2,-1.8 10.8,-2.6 6,-3.1 4.9,-6.2 -4.8,-15.3 -8.3,-7.6 -16.7,-18.3 -18.5,-23.3 -2,-5.6 -1.9,-16 0.2,-29.2 1.6,-10.3 1.6,-11.3 -0.2,-22 -3.5,-21.1 -10.6,-38.4 -20.8,-50.9 -6,-7.2 -19.1,-19.3 -28.2,-26 -18.9,-13.9 -40.5,-22 -65.7,-24.8 -11.6,-1.3 -18.3,-1.2 -30.8,0.4 z m 62.8,59 c 0.5,3.8 1.6,5.1 5,6 1.5,0.4 4.9,1.8 7.6,3.1 l 4.9,2.5 3.2,-3.1 c 1.7,-1.6 3.5,-3 4,-3 1.3,0 13.5,12.2 13.5,13.4 0,0.6 -1.4,2.5 -3.1,4.2 l -3.2,3.3 2.1,3.3 c 1.1,1.8 2.7,5.7 3.7,8.5 l 1.7,5.3 4.4,0 4.5,0 -0.3,10.2 -0.3,10.3 -4.4,0.5 c -4.1,0.5 -4.4,0.7 -5.8,4.8 -0.8,2.4 -2.3,6 -3.4,7.9 l -2,3.6 3.2,3.4 3.3,3.3 -6.4,6.5 c -3.5,3.6 -7.1,6.5 -7.9,6.5 -0.8,0 -2.7,-1.2 -4.2,-2.6 l -2.7,-2.6 -4.8,2.5 c -2.7,1.3 -6.6,3 -8.6,3.6 -3.5,1.2 -3.8,1.5 -3.8,5.2 l 0,4 -9.7,-0.3 -9.8,-0.3 -0.3,-3.7 c -0.3,-3.5 -0.6,-3.8 -5.4,-5.4 -2.8,-0.9 -6.2,-2.3 -7.7,-3 -3.6,-1.9 -5.5,-1.7 -7.6,0.6 -1,1.1 -2.4,2 -3.2,2 -1.9,0 -13.3,-11.2 -13.3,-13.1 0,-0.9 0.9,-2.4 2,-3.4 2.1,-1.9 2.7,-5 1.1,-5.9 -0.5,-0.3 -1.9,-3.5 -3.2,-7.1 -2.2,-6.4 -2.3,-6.5 -6,-6.5 -5.3,0 -6,-1.5 -5.7,-11.7 l 0.3,-8.8 4.4,-0.5 c 4.2,-0.5 4.5,-0.7 5.9,-5 0.9,-2.5 2.4,-6 3.4,-7.8 2.4,-4.3 2.3,-5.1 -0.9,-8.4 l -2.7,-2.9 7.2,-7.1 7.1,-7.2 3.1,2.9 c 2.9,2.8 3.2,2.8 6.3,1.6 1.7,-0.8 5.8,-2.3 9,-3.4 5.3,-1.9 5.7,-2.2 5.7,-5.2 0,-1.7 0.3,-3.5 0.7,-3.9 0.4,-0.4 4.8,-0.5 9.8,-0.4 l 9,0.3 0.3,3 z m -94.8,51.5 c 0,1.5 1.5,2.7 5.3,4.4 4.5,2.1 5.4,2.3 6.8,1 2.3,-2.1 3.1,-1.8 7.4,2.6 3.7,3.8 3.8,4 2.1,5.9 -1.7,1.8 -1.7,2.2 0,7 1.5,4 2.3,5.1 4.4,5.3 2.3,0.3 2.5,0.7 2.8,6.5 0.3,6 0.2,6.2 -2.4,6.5 -2.2,0.2 -3.1,1.2 -4.7,5.1 -1.7,4.1 -1.8,5.1 -0.7,7.3 1.3,2.2 1.1,2.7 -2,5.9 -3.8,3.9 -4.6,4.1 -6.9,2.1 -1.4,-1.3 -2.3,-1.1 -6.8,1 -3.8,1.7 -5.3,2.9 -5.3,4.4 0,1.8 -0.7,2 -6,2 -5.4,0 -6,-0.2 -6,-2 0,-3 -9.8,-7.3 -12.1,-5.4 -2.3,2.1 -3.1,1.8 -7.4,-2.6 -3.7,-3.8 -3.8,-4 -2.1,-5.9 1.6,-1.8 1.6,-2.1 -0.6,-6.7 -1.6,-3.4 -3.1,-5 -4.8,-5.4 -2.3,-0.5 -2.5,-1 -2.5,-6.5 0,-5.7 0.1,-6 2.6,-6.3 2,-0.2 3,-1.4 4.7,-5.4 2.1,-4.9 2.1,-5.3 0.5,-7 -1.6,-1.8 -1.5,-2.1 2.4,-5.9 3.8,-3.9 4.2,-4 6.4,-2.6 2.2,1.3 2.9,1.2 7.7,-0.9 3.8,-1.7 5.2,-2.9 5.2,-4.4 0,-1.8 0.6,-2 6,-2 5.3,0 6,0.2 6,2 z"/>
<path d="M 211,104 c -11.4,2 -22.8,11.5 -26.9,22.5 -2,5.1 -2.2,7.3 -1.8,14.5 0.4,5.9 1.2,9.8 2.7,12.9 3.5,6.9 11.2,14.5 18.1,17.6 5.5,2.4 7,2.7 15.7,2.3 8.4,-0.3 10.5,-0.7 15.6,-3.3 14,-7.1 22.1,-23.8 18.6,-38.6 -4.5,-19.3 -22.6,-31.3 -42,-27.9 z m 18.4,11 c 8.5,3.9 15.5,14.2 15.6,22.8 0,7.6 -2,12.9 -6.7,18.3 -6,6.6 -11.2,8.9 -20.1,8.9 -8.2,0 -12.7,-1.7 -18.3,-6.7 -5.8,-5.3 -8.1,-10.4 -8.3,-18.3 -0.1,-8.9 2.3,-14.8 8.4,-20.3 8.3,-7.5 19.5,-9.3 29.4,-4.7 z"/>
<path d="M 210.5,122.4 c -6.7,3 -10.7,9.3 -10.7,16.7 0.1,10.5 7.6,17.9 18.1,17.9 15.8,0 24.2,-16.5 14.8,-29.3 -4.4,-5.8 -15.2,-8.4 -22.2,-5.3 z m 11.9,8.6 c 1.5,0.5 3.3,2.5 4.2,4.3 4.2,8.9 -7.6,17 -15,10.2 -3.9,-3.6 -3.7,-9.4 0.5,-12.9 3.2,-2.8 6.2,-3.2 10.3,-1.6 z"/>
<path d="M 120.2,148.9 c -9.6,3.3 -15.2,10.9 -15.2,20.6 0,9.9 6.2,18 16.1,20.9 15.4,4.6 30.6,-9.8 26.9,-25.5 -3.1,-13 -15.7,-20.2 -27.8,-16 z m 13.3,6 c 4.6,2.1 6.6,4.2 8.5,8.9 1.6,4.2 0.8,11.6 -1.7,15.1 -2.3,3.1 -9.7,7.1 -13.3,7.1 -4,0 -11.3,-4.2 -13.7,-7.9 -3.2,-4.7 -3.2,-12.5 0,-17.2 2.4,-3.7 9.7,-7.9 13.7,-7.9 1.4,0 4.3,0.9 6.5,1.9 z"/>
<path d="M 118.9,161.9 c -2.4,2.4 -2.9,3.8 -2.9,7.6 0,3.8 0.5,5.2 2.9,7.6 2.5,2.4 3.8,2.9 7.9,2.9 4.3,0 5.5,-0.5 8.1,-3.1 2.5,-2.5 3.1,-3.9 3.1,-7.4 0,-3.5 -0.6,-4.9 -3.1,-7.4 -2.6,-2.6 -3.8,-3.1 -8.1,-3.1 -4.1,0 -5.4,0.5 -7.9,2.9 z m 11.2,3.1 c 2.7,1.5 2.6,7.5 -0.2,9 -3,1.7 -6.2,0.8 -7.8,-2.1 -1.3,-2.4 -1.3,-2.9 0.2,-5.3 1.8,-2.7 4.5,-3.3 7.8,-1.6 z"/>
</svg>
