<svg xmlns="http://www.w3.org/2000/svg" viewBox="0 0 384 384">
<path d="M 307.3,62.8 c -1.3,0.8 -10.3,18 -10.3,19.7 0,0.6 1.2,1.6 2.8,2.2 1.5,0.7 9.1,4.5 16.9,8.6 9.7,5 14.5,7.1 15.1,6.3 0.4,-0.6 2.8,-5.1 5.2,-9.9 6.1,-12.2 6,-12.3 -11,-20.9 -13.1,-6.6 -16.2,-7.6 -18.7,-6 z"/>
<path d="M 283.7,107.2 c -28,54.4 -41.8,82.1 -41,82.9 0.4,0.4 1.7,0.9 2.8,1.1 2.2,0.3 5.3,-5.3 31.6,-57.4 10.1,-20 15.6,-29.9 16.9,-30.3 2.9,-0.9 6,1.2 6,4.1 0,1.4 -4.9,12 -10.9,23.7 -6,11.7 -15.9,31 -21.9,42.9 l -11.1,21.7 2.6,2.1 c 1.5,1.1 3,1.7 3.4,1.3 1.1,-1.1 2.9,-4.6 21.7,-41.3 24.5,-48 25,-48.9 29,-46.4 3.3,2.1 2.5,5.7 -4.6,19.5 -3.8,7.4 -13.7,26.8 -22.1,43.1 l -15.2,29.7 2.6,1.7 c 1.5,1 3,1.3 3.5,0.8 0.4,-0.5 5.9,-10.8 12,-22.9 6.2,-12.1 11.6,-22.5 12,-23 0.4,-0.6 6.9,-13.3 14.5,-28.4 11.3,-22.7 13.5,-27.6 12.3,-28.6 -1.7,-1.6 -31.1,-16.5 -32.6,-16.5 -0.6,0 -5.8,9.1 -11.5,20.2 z"/>
<path d="M 60.3,123 c -4.2,1 -5.7,2.3 -7.7,6.4 -1.4,3 -1.6,12.2 -1.6,81.9 l 0,78.4 2.3,3.4 c 1.2,1.8 3.4,3.9 4.7,4.6 2,1 24.3,1.3 101.5,1.3 97.5,0 99,0 102.3,-2 5.8,-3.5 6.2,-5.9 6.2,-35.5 0,-15.1 -0.4,-26.5 -0.9,-26.5 -0.5,0 -2.7,1.5 -4.9,3.2 -2.2,1.8 -5.6,4.6 -7.6,6.1 l -3.6,2.8 0,17.4 0,17.5 -91.5,0 -91.5,0 0,-50 0,-50 85.8,0 85.7,0 13.3,-26.1 c 9.2,-17.9 13.1,-26.6 12.7,-28 -0.4,-1 -2.1,-2.7 -3.8,-3.7 -3,-1.6 -10.1,-1.7 -100.7,-1.9 -53.6,0 -99,0.2 -100.7,0.7 z m 123.7,28.5 l 0,10.5 -10.5,0 -10.5,0 0,-10.5 0,-10.5 10.5,0 10.5,0 0,10.5 z m 30.5,0 l 0,10 -10.5,0 -10.5,0 -0.3,-8.9 c -0.2,-4.9 0,-9.6 0.2,-10.3 0.4,-1.1 2.9,-1.3 10.8,-1.1 l 10.3,0.3 0,10 z m 31.5,0 l 0,10.5 -10.4,0 c -12.1,0 -11.6,0.4 -11.6,-10.5 0,-10.9 -0.5,-10.5 11.6,-10.5 l 10.4,0 0,10.5 z"/>
<path d="M 230.6,243.7 c -0.4,5.3 -0.3,10 0.2,10.5 0.8,0.8 12.3,-7.2 15,-10.5 3.2,-3.8 -3.3,-9.7 -10.5,-9.7 l -4,0 -0.7,9.7 z"/>
<path d="M 89.4,246.4 c -0.3,0.7 -0.4,3.3 -0.2,5.7 l 0.3,4.4 65.5,0 65.5,0 0,-5.5 0,-5.5 -65.3,-0.3 c -55,-0.2 -65.3,0 -65.8,1.2 z"/>
</svg>
