<svg xmlns="http://www.w3.org/2000/svg" viewBox="0 0 384 384">
<path d="M 168,59.6 c -16.4,2.9 -36.7,11.2 -53.5,21.7 -4.9,3.1 -16,11 -24.5,17.7 -24,18.6 -51,37.5 -73.4,51 -4.8,3 -8.3,5.6 -7.7,5.8 1.4,0.5 15.2,-3.4 23.1,-6.5 13.7,-5.4 28.5,-13.7 49.1,-27.4 28.1,-18.7 36.8,-24 52.2,-31.4 21.3,-10.4 40.5,-15.5 58.7,-15.5 27.3,0 56.8,10.3 81.8,28.5 3.4,2.6 6.2,4.2 6.2,3.7 0,-1.8 -18.5,-19.8 -26.7,-26 -20.7,-15.7 -42.6,-23.3 -66.6,-23.1 -6.2,0.1 -14.6,0.7 -18.7,1.5 z"/>
<path d="M 177,84.5 c -20.8,4.7 -40.2,22 -46.9,42 -2.6,7.8 -4.3,18.1 -3.9,23.1 0.3,3.2 0.6,2.3 2.1,-5.6 6,-31.2 29.7,-52 59.7,-52.3 11.2,-0.1 18,1.3 27.5,5.8 14.5,6.9 26.5,20.3 31.6,35.1 2.1,5.9 2.4,8.8 2.4,19.9 0,11 -0.4,14 -2.3,19.7 -3.1,9.1 -10.5,20.1 -17.8,26.7 -4.8,4.3 -5.2,4.9 -2.4,3.4 6.6,-3.5 17.3,-15.2 21.8,-24 7.9,-15.3 9.9,-29.7 6.2,-44.8 -5.6,-22.6 -21.3,-39.7 -43.7,-47.6 -7.7,-2.8 -25.2,-3.5 -34.3,-1.4 z"/>
<path d="M 170.6,104.5 c -25.7,10.5 -38.4,37.3 -30.1,63.2 2.9,9.2 4.1,11.5 4.9,9.3 0.2,-0.8 0.6,-4.7 0.9,-8.5 0.8,-12.8 9.3,-30.3 26.6,-54.3 4.4,-6.3 8.1,-11.6 8.1,-11.8 0,-1.1 -5.1,-0.1 -10.4,2.1 z"/>
<path d="M 217,112.3 c 0,3.2 3.6,15.9 6.6,23 4.3,10.1 13.1,21.7 16.5,21.7 1.2,0 1.1,-8.5 -0.1,-15.1 -1.6,-8.6 -7.4,-19.3 -14.1,-26 -6.3,-6.3 -8.9,-7.4 -8.9,-3.6 z"/>
<path d="M 195.1,119.6 c -9.9,10.8 -23.1,32.5 -27.8,45.5 -4.8,13.5 -3.4,28.1 3.3,34 3.3,2.9 9.7,4.3 18.9,4.3 10.7,0 19.2,-2.5 28.2,-8.3 8.8,-5.7 18,-17 19.9,-24.6 0.7,-2.7 0.6,-2.8 -2.6,-2.2 -4.9,1 -10.7,-1 -14.8,-5.1 -7,-7 -13.7,-22.8 -17.7,-41.5 -1,-4.2 -1.8,-7.7 -2,-7.7 -0.2,0 -2.6,2.5 -5.4,5.6 z"/>
<path d="M 367.9,139.9 c -18.9,5.1 -36.2,13.8 -63.9,32.2 -27.2,18 -36.7,23.8 -51,30.9 -23,11.6 -39.8,16 -60.8,16 -26.9,0 -51.7,-8 -77.1,-25 -5.1,-3.4 -9.4,-6 -9.7,-5.7 -0.8,0.7 17.5,18.8 24.5,24.1 20.8,16 43.2,23.9 67.1,23.9 19.6,-0.1 35.4,-4.1 56.5,-14.3 13.7,-6.7 24.3,-13.5 40,-25.9 21.3,-16.9 50.1,-36.9 72.7,-50.7 5.4,-3.2 9.7,-6.2 9.8,-6.7 0,-0.9 -0.2,-0.9 -8.1,1.2 z"/>
<path d="M 236.5,276.7 c -8.5,22.1 -21.4,56.2 -21.7,57.3 -0.2,1.1 0.8,1.6 3.3,1.8 l 3.6,0.3 3.2,-9.1 3.3,-9.1 12.6,0.3 12.7,0.3 3.5,8.7 c 3.3,8.5 3.5,8.8 6.6,8.8 1.8,0 3.5,-0.3 3.7,-0.8 0.3,-0.4 -3.1,-9.9 -7.4,-21.2 -4.4,-11.3 -9.5,-24.7 -11.5,-29.8 l -3.6,-9.2 -3.8,0 c -2.7,0 -4,0.5 -4.5,1.7 z m 9.9,21.5 c 2.5,7.1 4.6,13 4.6,13.3 0,0.8 -20,0.6 -20,-0.3 -0.1,-1.8 9.5,-27.1 10.1,-26.4 0.3,0.4 2.7,6.4 5.3,13.4 z"/>
<path d="M 273,277.5 c 0,2.4 0.2,2.5 7.4,2.5 4.1,0 8.1,0.3 9,0.6 1.4,0.5 1.6,4 1.6,28.1 l 0,27.4 3.3,-0.3 3.2,-0.3 0.5,-27.5 0.5,-27.5 8.3,-0.3 c 8,-0.3 8.2,-0.3 8.2,-2.7 l 0,-2.5 -21,0 -21,0 0,2.5 z"/>
<path d="M 319.5,276.7 c 0.3,1 3.6,9.9 7.1,19.8 15.2,42.2 13.7,39 17.6,39.3 2,0.2 3.9,-0.3 4.5,-1 0.5,-0.7 5.5,-13.7 11.1,-28.8 5.5,-15.1 10.3,-28.3 10.7,-29.3 0.6,-1.4 0.1,-1.7 -3.2,-1.7 l -3.9,0 -8.3,23.7 c -4.6,13.1 -8.8,24.7 -9.4,25.7 -1.2,2.3 -0.7,3.4 -9.7,-22.9 -10,-29.1 -8.7,-26.5 -13.2,-26.5 -3.4,0 -3.9,0.3 -3.3,1.7 z"/>
<path d="M 26.8,291.9 c -5.4,1.8 -9.5,5.1 -12.1,10 -5.7,10.3 -2.7,26.3 6,32.1 2.9,2 5.1,2.6 11.2,2.8 9.1,0.3 13.8,-1.8 18.6,-8.6 2.7,-3.9 3,-5.3 3.3,-13 0.3,-7.5 0,-9.3 -2,-13.1 -3.7,-7.1 -8.4,-10.2 -16,-10.7 -3.5,-0.2 -7.5,0 -9,0.5 z m 13.3,6.7 c 6,3 9,16.5 5.5,24.8 -3.1,7.4 -10.9,10.2 -18.4,6.4 -5.8,-2.9 -8.2,-7.3 -8.2,-15 0,-8.5 3.1,-14.6 8.5,-16.8 3.3,-1.4 9.4,-1.1 12.6,0.6 z"/>
<path d="M 85.5,291.7 c -1.1,0.3 -3.8,1.8 -6,3.5 l -4,2.9 -0.3,-2.6 c -0.3,-2 -0.9,-2.5 -3.3,-2.5 l -2.9,0 0,31 0,31 3,0 3,0 0,-11.5 c 0,-9.6 0.3,-11.5 1.5,-11.5 0.8,0 1.5,0.4 1.5,0.8 0,0.5 1.5,1.7 3.3,2.7 2.5,1.3 4.9,1.7 9.3,1.3 7.6,-0.5 11.4,-3.1 14.8,-10 2.2,-4.3 2.6,-6.6 2.6,-13.6 0,-7.2 -0.4,-9.1 -2.6,-13.3 -3.9,-7.1 -11.5,-10.3 -19.9,-8.2 z m 10.9,8.3 c 2.5,2.2 3.7,4.4 4.4,7.8 1.2,5.5 0.1,14.3 -2.3,17.8 -5.1,7.8 -16,7.7 -21.2,-0.3 -2.4,-3.7 -2.4,-16.5 0,-21.1 4,-7.4 13.1,-9.4 19.1,-4.2 z"/>
<path d="M 131,292.6 c -10.4,4.5 -15.5,17.7 -11.6,30.5 3,10.1 8.4,13.9 19.6,13.9 9.1,0 14,-2.3 14,-6.6 0,-1.7 -0.4,-2.4 -1.2,-2 -0.7,0.2 -3.7,1.2 -6.7,2.2 -6.3,1.9 -11.7,0.9 -15.6,-3 -3,-3 -5,-9.7 -3.2,-10.8 0.6,-0.4 7.6,-0.8 15.5,-0.8 l 14.2,0 0,-4.3 c 0,-15.5 -12,-24.7 -25,-19.1 z m 14,6.9 c 2.3,2.1 4.4,8 3.6,10 -0.4,1.2 -2.8,1.5 -11.1,1.5 -12,0 -13,-0.7 -10.2,-6.6 3.3,-6.8 12.7,-9.4 17.7,-4.9 z"/>
<path d="M 183.5,292.7 c -1.6,0.8 -4,2.5 -5.2,3.6 l -2.3,2 0,-2.6 c 0,-2.4 -0.4,-2.7 -3.5,-2.7 l -3.5,0 0.2,21.2 0.3,21.3 3.3,0.3 3.2,0.3 0,-14.1 c 0,-15.5 0.9,-19.2 5.5,-22.8 3,-2.4 8.3,-2.9 11.6,-1.2 4.1,2.2 4.9,6 4.9,22.5 l 0,15.5 3.6,0 3.6,0 -0.4,-17.8 c -0.3,-16.7 -0.4,-17.9 -2.6,-21 -4.3,-6 -12.2,-7.9 -18.7,-4.5 z"/>
</svg>
