<svg xmlns="http://www.w3.org/2000/svg" viewBox="0 0 384 384">
<path d="M 72.7,11.1 c -2,1.1 -4.9,3.8 -6.5,6.1 -2.6,4 -2.7,4.8 -3.2,20.2 l -0.5,16.1 -17,0.5 c -15.8,0.5 -17.2,0.7 -20.3,2.8 -5.9,4.3 -7.2,8.4 -7.2,23.1 0,14 0.7,17.1 4.8,21.5 4.6,4.9 7.7,5.6 24.7,5.6 l 15.5,0 0,13.7 c 0,15.7 0.9,20 5,24.7 4.7,5.3 7,5.8 24.1,5.4 14.2,-0.3 15.6,-0.5 18.7,-2.6 5.8,-4.2 6.6,-7 7.2,-24.7 l 0.5,-16 16.5,-0.5 c 18.4,-0.6 21.4,-1.5 25.7,-8 2.1,-3.1 2.3,-4.4 2.3,-18.5 0,-14.2 -0.2,-15.4 -2.3,-18.6 -1.2,-1.8 -3.8,-4.4 -5.6,-5.6 -3.2,-2.2 -4.4,-2.3 -19.6,-2.3 -13.9,0 -16.4,-0.2 -16.9,-1.6 -0.3,-0.9 -0.6,-7.8 -0.6,-15.4 0,-14.9 -0.6,-17.9 -4.8,-22.4 -4.5,-4.8 -7.8,-5.6 -22.9,-5.6 -11.8,0.1 -14.4,0.4 -17.6,2.1 z m 33.9,9 c 1.7,1.9 2,4.3 2.4,21.8 l 0.5,19.6 20.2,0.5 c 25.7,0.6 24.6,-0.1 25.1,16.6 0.2,7 -0.1,12.6 -0.7,14.3 -2.2,5.1 -4,5.6 -25.1,6.1 l -19.5,0.5 -0.3,19.2 -0.2,19.2 -3.1,2.5 c -2.9,2.5 -3.6,2.6 -15.4,2.6 -11.6,0 -12.6,-0.1 -15.2,-2.4 l -2.8,-2.4 -0.3,-19.6 -0.3,-19.6 -17.2,0 c -9.5,0 -18.9,-0.5 -20.9,-1 -6.1,-1.7 -6.8,-3.7 -6.8,-18 0.1,-18.3 -0.3,-18 25.9,-18 l 19.1,0 0,-18.9 c 0,-18.9 0,-19 2.6,-22 l 2.6,-3.1 13.7,0 c 12.7,0 13.9,0.2 15.7,2.1 z"/>
<path d="M 157.8,123.5 c -9.9,3.6 -17.8,12.5 -20.5,22.8 -1,4 -1.3,17.6 -1.3,59.2 l 0,54 -9.9,9.9 -9.9,9.9 -3,-2.2 c -1.7,-1.1 -4.1,-2.1 -5.4,-2.1 -2.7,0 -7.8,4.7 -7.8,7.2 0,3.4 -1.8,2.6 -7.8,-3.5 l -6.2,-6.2 1.1,-4 c 1.6,-5.8 0.6,-18.1 -1.9,-23.7 -2.8,-6.5 -10,-13.9 -16.8,-17.3 -4.5,-2.3 -7.4,-3 -13.9,-3.3 -7.7,-0.4 -8.4,-0.3 -9.4,1.7 -2.1,3.8 0.1,5.6 9.5,8.1 11.8,3.1 13.7,5 16.8,16.8 2,7.5 2.3,9.9 1.4,12.5 -1.4,4.1 -9.9,13 -15.4,15.9 l -4.3,2.2 -8.3,-2.1 c -15.2,-3.9 -15.4,-4.1 -19.2,-17.3 -3,-10 -5.3,-12.2 -9.1,-8.3 -1.4,1.4 -1.6,3 -1.3,8.5 0.9,12.1 8.7,23.5 20.2,29.6 4.8,2.5 5.9,2.7 18.3,2.7 l 13.3,0 5.7,5.8 5.8,5.8 -3.7,3.4 c -2.1,2 -4.8,3.5 -6.2,3.5 -1.7,0 -7.4,4.9 -21,18.2 -10.3,9.9 -19.4,19.4 -20.2,21 -3.4,6.5 -1.1,15.2 4.9,18.8 4,2.5 12.3,2.7 15.7,0.4 4.9,-3.3 39,-37.9 39,-39.6 0,-1 1.6,-3.6 3.6,-5.8 l 3.6,-4 22.5,21.8 c 12.4,11.9 23.8,22.5 25.4,23.6 2.2,1.4 4.2,1.7 7.8,1.4 6.3,-0.6 10.5,-3.7 12.7,-9.3 3,-8 2.2,-9.3 -23.1,-34.5 -12.4,-12.4 -22.5,-23 -22.5,-23.7 0,-0.7 1,-1.3 2.3,-1.3 3,0 6.7,-3.9 6.7,-7.2 0,-1.4 -1,-3.8 -2.2,-5.3 l -2.1,-2.8 6.5,-6.3 c 3.6,-3.5 7.1,-6.4 7.7,-6.4 0.5,0 1.5,1.7 2.2,3.8 1.5,5.2 7,12.6 12.1,16.2 7.7,5.6 10.9,6 46.5,6 28.7,0 32.4,0.2 33,1.6 0.8,2.2 -1.4,20.6 -3.3,27.4 -0.9,3 -2.5,7.1 -3.5,9.2 l -1.9,3.8 -16.1,0 c -9,0 -16.9,0.4 -17.9,1 -5.6,3 -4.4,10.2 1.9,12 2.4,0.8 25.6,1 70.9,0.8 l 67.4,-0.3 1.9,-2.4 c 2.6,-3.1 2.4,-5.7 -0.6,-8.6 -2.4,-2.5 -2.7,-2.5 -18.9,-2.5 l -16.5,0 -2.5,-5.3 c -2.8,-6 -5.3,-18.8 -5.8,-29.2 l -0.3,-7 34.5,-0.5 c 33.7,-0.5 34.6,-0.6 39.8,-2.9 6.8,-3.1 14.4,-11.3 17.2,-18.7 2,-5.5 2,-6.8 1.8,-67.8 l -0.3,-62.1 -3.3,-6.7 c -3.3,-6.8 -8,-11.6 -15.2,-15.4 -3.3,-1.8 -7.8,-1.9 -100.5,-2.1 -80.5,-0.1 -97.6,0.1 -100.7,1.2 z m 196.1,13.5 c 4.9,2.5 8.8,7 10.1,12 0.7,2.6 1,23.7 0.8,62.7 l -0.3,58.8 -2.8,4.8 c -2.2,3.8 -4.1,5.4 -8,7.3 l -5.2,2.4 -91.3,0 c -99.8,0 -95.1,0.3 -101.5,-5.8 -4.5,-4.2 -5.7,-7.5 -5.7,-14.9 l 0,-6.7 6.7,-6.8 c 3.7,-3.8 7.5,-6.8 8.4,-6.8 1.6,0 12.9,-11.3 12.9,-12.9 0,-0.4 -1.5,-2.2 -3.4,-4 -3.9,-3.7 -3.3,-3.9 -11.9,3.4 -2.6,2.1 -4.7,4.6 -4.7,5.5 0,0.9 -1.8,3.4 -4,5.5 l -4,3.9 0,-48.4 0,-48.3 2.5,-4.3 c 1.4,-2.4 4.4,-5.4 6.8,-6.8 l 4.2,-2.6 93.3,0 c 90.6,0 93.4,0.1 97.1,2 z m -75.7,171.5 c 0.8,10.1 3,21.3 5.5,27.2 0.7,1.8 1.3,3.5 1.3,3.8 0,0.3 -12.6,0.5 -28,0.5 -15.4,0 -28,-0.1 -28,-0.3 0,-0.1 0.9,-2.6 2.1,-5.6 2.4,-6.4 3.6,-12.3 5,-25.1 0.6,-5.2 1.3,-9.8 1.6,-10.2 0.2,-0.5 9.3,-0.7 20.1,-0.6 l 19.7,0.3 0.7,10 z m -127.6,40.6 c 6,5.8 7.2,9.9 3.3,11.9 -3.2,1.8 -6.2,0.5 -11.2,-4.9 -5.2,-5.6 -5.6,-7.2 -2.7,-10.1 3,-3 4.6,-2.5 10.6,3.1 z"/>
<path d="M 193.8,164.1 c -1.6,0.9 -1.8,3 -1.8,20.5 l 0,19.4 24.8,-0.2 24.7,-0.3 0.3,-19 c 0.2,-17 0.1,-19.1 -1.5,-20.2 -2.1,-1.6 -43.9,-1.8 -46.5,-0.2 z m 41.2,19.9 l 0,14 -18.5,0 -18.5,0 0,-13.3 c 0,-7.4 0.3,-13.7 0.7,-14 0.3,-0.4 8.7,-0.7 18.5,-0.7 l 17.8,0 0,14 z"/>
<path d="M 249.6,164.6 c -1.9,1.9 -2,2.6 -0.4,4.2 1.7,1.7 70.9,1.7 72.6,0 1.6,-1.6 1.5,-2.3 -0.4,-4.2 -1.3,-1.4 -6,-1.6 -35.9,-1.6 -29.9,0 -34.6,0.2 -35.9,1.6 z"/>
<path d="M 249,182.5 c -1,1.2 -1,1.8 0,3 1.1,1.3 6.4,1.5 36.5,1.5 37,0 38.5,-0.2 36.9,-4.4 -0.6,-1.4 -4.3,-1.6 -36.4,-1.6 -30.6,0 -35.9,0.2 -37,1.5 z"/>
<path d="M 248.6,199.5 c -0.3,0.8 -0.3,2.2 0,3 0.5,1.3 5.6,1.5 36.9,1.5 32.6,0 36.3,-0.2 36.9,-1.6 1.6,-4.2 0.1,-4.4 -37.4,-4.4 -30.9,0 -35.9,0.2 -36.4,1.5 z"/>
<path d="M 193.3,215.7 c -1.8,0.7 -1.6,5 0.3,5.7 0.9,0.3 29.9,0.6 64.4,0.6 59.3,0 63,-0.1 63.9,-1.8 0.6,-1.1 0.6,-2.4 0,-3.5 -0.9,-1.6 -5.4,-1.7 -64.2,-1.6 -34.8,0 -63.8,0.3 -64.4,0.6 z"/>
<path d="M 193.3,232.7 c -1.8,0.7 -1.6,5 0.3,5.7 0.9,0.3 29.9,0.6 64.4,0.6 61.2,0 63,-0.1 64,-1.9 0.7,-1.5 0.6,-2.3 -0.6,-3.5 -1.4,-1.4 -8.5,-1.6 -64.2,-1.5 -34.5,0 -63.3,0.3 -63.9,0.6 z"/>
<path d="M 193,250.5 c -0.6,0.8 -1,2.2 -0.8,3.2 0.3,1.7 2.8,1.8 46.2,1.8 43.2,0 45.9,-0.1 47,-1.8 0.9,-1.5 0.7,-2.1 -0.8,-3.3 -3,-2.1 -89.8,-2.1 -91.6,0.1 z"/>
</svg>
