<svg xmlns="http://www.w3.org/2000/svg" viewBox="0 0 384 384">
<path d="M 161,31.1 c -3,0.4 -10.9,1.5 -17.5,2.4 -48.1,6.4 -86.2,24.9 -97.1,47.1 -7.2,14.5 -4.4,25.6 10,39.9 17.5,17.3 47.6,28.9 90.9,35 14.1,2 62.4,2 76.7,0 43.9,-6.2 75.4,-18.4 92.5,-35.9 16.4,-16.8 16.1,-35.3 -0.8,-51.8 -18.8,-18.4 -53.2,-30.4 -105.3,-36.7 -10.4,-1.2 -41.1,-1.3 -49.4,0 z"/>
<path d="M 326,123.6 c -1.4,3.4 -4.6,8.1 -8.3,12 -16.6,17.8 -47.2,30.3 -90.7,37.1 -16.4,2.6 -66.4,2.5 -83,0 -51.1,-8 -85.9,-24.8 -97.6,-47.2 -1.6,-3 -3.2,-5.5 -3.6,-5.5 -1.4,0 -0.9,40 0.6,46.1 4.4,18.7 25.2,34.9 59.1,45.8 23.4,7.6 44.6,10.9 75.7,11.8 l 21.7,0.6 1.2,-2.9 c 3.8,-9.6 5.9,-13.2 9.8,-17.1 5.3,-5.4 9.8,-7.7 18.7,-9.9 8.1,-2 13.7,-4.7 29.9,-14.4 12.9,-7.7 24.9,-13.7 33,-16.6 7.8,-2.8 19.3,-2.4 27.9,1 5.4,2 7.1,2.4 7.8,1.4 0.7,-1.2 1.2,-47.8 0.5,-47.8 -0.2,0 -1.4,2.5 -2.7,5.6 z"/>
<path d="M 42,209 l 0.1,24 3.5,6.2 c 5,8.8 9.4,13.9 17.2,19.7 17.5,13.2 44.4,22.8 80.7,28.6 10,1.6 61.8,3.4 64.8,2.2 1.2,-0.5 1.2,-1.7 -0.4,-8.5 -1.1,-4.4 -2.9,-15.2 -4.2,-23.9 l -2.3,-15.8 -17.4,-0.2 c -38.8,-0.4 -72.1,-6.6 -98.9,-18.2 -18.7,-8.1 -34.2,-20.9 -39.2,-32.4 -1.3,-3.1 -2.7,-5.7 -3.2,-5.7 -0.4,0 -0.7,10.8 -0.7,24 z"/>
<path d="M 292,192.3 c -4.7,2.4 -14.8,8.1 -22.5,12.7 -16.8,10 -20.6,11.8 -30.9,14.5 -11.8,3 -12.2,3.9 -10.6,20.2 4.8,50.4 19,83.9 46.4,110 11.2,10.6 26.5,21.3 30.6,21.3 7.8,0 38.1,-26.1 48.7,-42 14.8,-22.2 23.1,-46.7 27.7,-82.5 3,-22.3 2.2,-24.3 -9.6,-26.9 -9.4,-2.1 -14,-4.3 -32.8,-15.6 -18.3,-11.1 -28.9,-16 -34.5,-16 -2.7,0 -6.7,1.4 -12.5,4.3 z"/>
<path d="M 42.7,252.6 c -1.4,1.4 -0.7,39.6 0.8,46.2 5.5,23.3 36.4,42.4 84.4,52.2 19.9,4 37.3,5.3 65.6,4.6 22.8,-0.5 43.5,-2.3 45.2,-4 0.3,-0.3 -2.4,-5.1 -6,-10.8 -3.7,-5.7 -9.1,-15.6 -12.2,-22 l -5.5,-11.6 -32.2,-0.5 c -27.5,-0.3 -34.2,-0.7 -44.8,-2.6 -27.3,-4.8 -48.3,-11.5 -65,-20.8 -10.8,-6 -24,-18.7 -27.3,-26.2 -1.2,-2.9 -2.6,-4.9 -3,-4.5 z"/>
</svg>
