<svg xmlns="http://www.w3.org/2000/svg" viewBox="0 0 384 384">
<path d="M 22.2,40.3 l -2.2,2.3 0,94.8 0,94.7 2.5,2.4 2.4,2.5 62.4,0 c 61.3,0 62.4,0 64.2,2 2.9,3.2 11.7,8.7 17.4,11 9.2,3.6 18.5,4.4 28.6,2.5 l 8.9,-1.6 9,9 9,9.1 -3.4,3.6 c -4.2,4.3 -8.6,6.8 -10.8,5.9 -1.1,-0.4 -9.3,7.1 -28.4,26.2 -14.8,14.7 -27.6,28 -28.4,29.5 -5.1,9.7 -1,22.9 8.6,27.8 4.9,2.5 13.8,2.7 18.7,0.3 5,-2.3 57.9,-54.6 56.9,-56.2 -0.4,-0.7 -0.5,-2.3 -0.2,-3.7 0.8,-3.2 7.4,-10.4 9.5,-10.4 0.9,0 15.8,14.2 33.1,31.5 34.5,34.6 35.3,35.1 45.4,34.3 12.5,-1 20.9,-13.4 17.6,-25.9 -1,-3.9 -4.8,-8.1 -33.8,-37.1 -17.9,-18 -32.4,-33 -32.1,-33.2 0.3,-0.3 2.2,-0.7 4.3,-1 4.2,-0.5 7.1,-2.7 9.3,-6.9 1.9,-3.8 0.9,-7.7 -2.8,-11.3 l -3,-2.8 29.8,-29.8 c 20.4,-20.5 30.5,-29.8 31.9,-29.8 1.4,0 4.8,-2.9 9.8,-8.4 4.2,-4.6 7.6,-8.8 7.6,-9.3 0,-0.5 -2.2,-3.1 -5,-5.8 -4.5,-4.4 -5.1,-4.7 -6.7,-3.4 -11.7,9.9 -16.3,14.4 -16.3,16.3 0,3.2 -51.5,54.4 -52.4,52.1 -0.3,-0.9 -0.6,-41.6 -0.6,-90.4 l 0,-88.8 -2.3,-2.1 -2.3,-2.2 -127,0 -127.1,0 -2.1,2.3 z m 236.3,96.7 l 0,79.5 -10.9,0.3 -10.9,0.3 0.7,-2.3 c 0.4,-1.3 0.9,-5.5 1.2,-9.3 1.2,-13.9 -4.5,-28.5 -15,-39.1 -9.9,-9.9 -21,-14.4 -35.2,-14.4 -7.4,0 -8.4,0.2 -9.8,2.2 -3.9,5.5 -0.5,8.6 13.4,12.3 12.3,3.2 15.2,4.5 17.8,8.2 2.4,3.4 8.2,23.8 8.2,28.8 0,4.3 -3.2,11 -5.9,12.5 -1.2,0.6 -12.6,1 -30,1 l -28.1,0 -0.6,-2.8 c -0.9,-4.1 -3.5,-13.2 -4.8,-17.2 -1.5,-4.6 -5.3,-6.1 -9.1,-3.6 l -2.7,1.8 0.4,10.9 0.5,10.9 -46.6,-0.2 -46.6,-0.3 -0.3,-78.5 c -0.1,-43.2 0,-79.1 0.3,-79.8 0.3,-1 22.3,-1.2 107.2,-1 l 106.8,0.3 0,79.5 z m 18.8,-6.3 c 2.3,2.2 2.2,7.8 -0.3,10.3 -3,3 -8.3,2.7 -10.9,-0.6 -2.4,-3 -2.6,-4.3 -1,-7.8 2.1,-4.6 8.1,-5.5 12.2,-1.9 z m -243.6,5.9 c 0.7,2 -1.7,3.7 -3.4,2.3 -1.5,-1.3 -0.6,-3.9 1.3,-3.9 0.8,0 1.7,0.7 2.1,1.6 z m 221.3,100.8 c 0,1.1 -1.9,1.5 -2.5,0.6 -0.3,-0.5 0.1,-1 0.9,-1 0.9,0 1.6,0.2 1.6,0.4 z m 70.2,91.3 c 3.3,3.2 6.7,7.1 7.5,8.6 2.5,4.9 -0.8,10.7 -6.2,10.7 -2.6,0 -4.4,-1.3 -10.9,-8 -6.9,-7.1 -7.7,-8.3 -7.2,-10.7 0.9,-3.7 4.1,-6.3 7.8,-6.3 2.2,0 4.4,1.4 9,5.7 z"/>
<path d="M 269,133.5 c -2,2.4 -0.3,5.5 3.1,5.5 2.5,0 2.9,-0.4 2.9,-2.9 0,-3.9 -3.6,-5.5 -6,-2.6 z"/>
</svg>
