<svg xmlns="http://www.w3.org/2000/svg" viewBox="0 0 384 384">
<path d="M 58.1,8.7 c -2.2,2.7 -2.1,5.6 0.3,7.9 0.6,0.6 6.4,2.6 13,4.3 12.5,3.3 16.7,5.5 19,9.9 0.8,1.5 2.8,8 4.6,14.5 4.4,15.9 4,17.2 -8.3,29.5 -9,9 -14.1,12.2 -19.2,12.2 -3.8,0 -24.6,-5.9 -28,-8 -4.2,-2.6 -5.9,-6 -9.4,-18.5 -4,-14.3 -7.3,-17.4 -12.6,-12 -2.2,2.1 -2.5,3.3 -2.5,9 0,7.8 3.4,18.8 8.1,26.4 6.2,10.1 19.2,19.1 31.9,22.1 7.1,1.7 19.2,1.5 25.4,-0.4 l 4.8,-1.5 8.7,8.1 c 4.7,4.5 8.9,8.7 9.3,9.3 1.6,2.6 -7.9,10.5 -12.4,10.5 -2.6,0 -7,3.9 -30.3,26.6 -20,19.4 -27.8,27.6 -28.9,30.5 -4.1,10.2 -0.1,21 9.6,26 4.4,2.3 13.4,2.5 18.1,0.6 1.8,-0.8 15.5,-13.3 30.5,-27.8 24.9,-24.2 27.2,-26.6 27.2,-29.7 0,-2.7 1,-4.4 5,-8.5 l 4.9,-5.2 10.3,10.1 c 37.4,36.7 55.1,53.3 58.1,54.8 1.9,0.9 6,1.6 8.9,1.6 10.8,0 19.6,-7.7 20.6,-17.9 0.9,-9.9 0.2,-10.8 -34.9,-45.1 -17.6,-17.2 -31.8,-31.8 -31.6,-32.4 0.2,-0.6 2,-1.2 4,-1.4 2.6,-0.2 4.4,-1.2 6.6,-3.8 4.2,-4.7 4.2,-9.1 -0.1,-13.9 l -3.1,-3.6 4.4,-4.5 c 2.4,-2.5 15.9,-15.8 30.1,-29.5 18.6,-18 26.1,-24.7 27.3,-24.3 1.1,0.5 3.7,-1.6 9,-7.2 4.1,-4.4 7.7,-8.7 8.1,-9.8 0.4,-1.3 -0.6,-3.1 -3.7,-6.2 -2.4,-2.4 -4.9,-4.4 -5.6,-4.4 -0.7,0 -5.1,3.4 -9.8,7.6 -5.9,5.3 -8.5,8.2 -8.5,9.8 0,1.7 -8.1,10.1 -29.6,31.1 -25.5,24.9 -29.8,28.7 -31.2,27.7 -5.1,-3.7 -7.9,-5.2 -9.8,-5.2 -2.1,0 -10.3,5.3 -10.5,6.8 -0.4,5.2 -0.8,7.4 -1.3,7.9 -0.3,0.3 -4.7,-3.4 -9.7,-8.3 l -9.1,-9 1.6,-7.7 c 2.1,-10 2,-13.8 -0.4,-23.3 -2.6,-10 -6.9,-17.1 -14.8,-24.4 -9.9,-9.1 -22.2,-14 -35.3,-14 -6.1,0 -7,0.3 -8.8,2.7 z m 149.1,175.1 c 8.4,8.4 9.1,10.3 5.7,14.6 -1.5,1.9 -2.9,2.6 -5.6,2.6 -3.2,0 -4.6,-0.9 -11,-7.3 -8.2,-8.2 -9.1,-11 -4.8,-15.2 4.2,-4.3 7,-3.4 15.7,5.3 z"/>
<path d="M 303.5,204.6 c -16.8,3.5 -29.9,10.9 -39.4,22.3 l -4.2,4.9 5.2,4.4 c 5,4.2 14.6,16.2 18.3,22.9 l 1.9,3.4 1.3,-3.7 c 4.2,-12 14.1,-19 26.9,-19.1 11.8,0 20.4,5.2 25.5,15.7 3,6 3.2,7.2 2.8,13.4 -0.6,7.7 -2.5,12.1 -7.7,17.5 -6.2,6.6 -10.2,8.2 -21.1,8.3 l -9.5,0.1 -4.9,13.2 c -4.8,13.2 -4.9,13.3 -7.7,12.7 -2.2,-0.4 -2.9,-0.1 -3.4,1.5 -0.9,2.9 0.1,3.6 8.1,6 9.2,2.7 26.3,3 34.9,0.5 49.5,-14.4 63.8,-74.6 25.8,-108.5 -11.4,-10.2 -27.5,-16.2 -42.7,-16 -4.5,0.1 -9,0.3 -10.1,0.5 z"/>
<path d="M 186.5,221.5 c -44.3,9.6 -71.9,53 -61.1,95.8 7.3,28.6 29.4,50.8 58.1,58.4 8.7,2.2 30.2,2.5 38.4,0.4 24.6,-6.3 43.7,-21.6 54.2,-43.6 5,-10.4 6.9,-17.8 7.6,-29.5 2.3,-38.6 -24.8,-73.5 -63.2,-81.5 -8.9,-1.8 -25.7,-1.8 -34,0 z m 31.6,45.7 c 20.2,9.4 27,33.3 14.6,51.4 -7.3,10.7 -21.8,16.8 -34.6,14.6 -3.6,-0.6 -6.7,-0.9 -6.9,-0.7 -0.2,0.1 -3,7.6 -6.3,16.6 -3.3,9 -6.2,16.5 -6.5,16.8 -0.2,0.3 -3,-0.4 -6.1,-1.4 -6.2,-2.1 -16.9,-9.3 -22.2,-14.9 -4.2,-4.3 -4.9,-3.4 12.3,-17.1 6.9,-5.5 12.5,-10.4 12.5,-10.9 0.1,-0.5 -1.4,-3.8 -3.1,-7.4 -5.9,-12 -4.7,-25.1 3.2,-36 3.7,-5.2 8.6,-8.8 15.7,-11.8 8,-3.4 19.3,-3 27.4,0.8 z"/>
<path d="M 198.9,271.1 c -8.6,1.3 -17.2,7.6 -21.5,15.9 -2.8,5.4 -2.6,18.1 0.4,24.2 1.3,2.7 2.9,4.8 3.4,4.8 0.6,0 3.1,-1.6 5.4,-3.6 4.3,-3.5 4.4,-3.6 2.9,-6.4 -2,-4 -1.9,-10.8 0.4,-15 2.1,-4 8.9,-8 13.5,-8 5,0.1 11.1,3.4 13.6,7.4 1.8,3.1 2.2,4.7 1.8,9.7 -0.3,4.8 -1,6.5 -3.3,8.9 -3.5,3.6 -9.8,6.2 -14.3,5.8 -3.2,-0.3 -3.5,0 -5.3,4.6 -1.5,3.6 -1.7,5.2 -0.9,6 0.6,0.6 4.6,1.1 8.8,1.1 11.3,0 19.1,-4.5 25,-14.5 2.4,-3.9 2.7,-5.6 2.7,-13 0,-6.8 -0.5,-9.3 -2.2,-12.6 -5.9,-11.2 -17.9,-17.2 -30.4,-15.3 z"/>
<path d="M 303.5,244.7 c -8.1,4.2 -12.5,11.3 -12.5,20 0,5.6 2.9,14.3 4.7,14.3 0.5,0 2.4,-1.3 4.3,-2.9 3.2,-2.6 3.4,-3 2.2,-5.5 -6.3,-13.8 12.2,-25.1 21.4,-13 2.3,2.9 2.6,4.1 2.2,8.4 -0.4,3.4 -1.3,5.9 -2.8,7.5 -2.7,2.8 -8.3,4.7 -11.6,3.9 -1.8,-0.5 -2.4,0.1 -3.8,3.7 -2.2,5.4 -1.2,6.4 6.2,6.3 12.8,-0.1 22.2,-9.6 22.2,-22.4 0,-9 -4.2,-16 -12.2,-20.1 -4.7,-2.4 -15.9,-2.5 -20.3,-0.2 z"/>
</svg>
