<svg xmlns="http://www.w3.org/2000/svg" viewBox="0 0 384 384">
<path d="M 50.8,7.2 c -5.3,4.4 -2,7.8 10.9,11.3 6.9,1.8 10.8,3.4 12.3,5 3.9,4.2 8.9,22.6 7.6,28 -0.4,1.8 -4,6.2 -9,11.2 -10.1,10 -11.8,10.5 -24.4,7.3 -15.8,-4 -17.3,-5.4 -21.2,-20 -2.5,-9.6 -3.3,-11 -6.5,-11 -5.7,0 -7.1,8.4 -3.5,20.2 6.4,20.7 27.8,33.3 48.6,28.5 l 6.9,-1.6 7.5,7.4 7.4,7.5 -3.4,3.5 c -2.2,2.3 -4.7,3.8 -7.1,4.1 -3.2,0.5 -6.8,3.8 -26.2,23.3 -19.2,19.3 -22.6,23.2 -23.2,26.3 -1.4,7.7 2,14.9 8.6,18.3 3.5,1.8 12.6,1.9 15.8,0.1 1.2,-0.7 12.2,-10.8 24.2,-22.5 18.6,-18 21.9,-21.7 21.9,-24.1 0,-3.3 5.2,-10 7.8,-10 0.9,0 13.1,11.4 27.2,25.2 l 25.5,25.3 0.5,55.5 0.5,55.5 2.5,5 c 2.9,5.9 8.4,11.6 14.2,14.7 4.2,2.2 5.4,2.3 35.8,2.8 l 31.5,0.5 -0.3,9 c -0.2,9.4 -3,21.8 -5.8,26.1 -1.6,2.4 -1.9,2.4 -15.5,2.4 -8.4,0 -14.8,0.5 -16.4,1.2 -3.3,1.5 -4.2,5.1 -2.1,8.3 l 1.6,2.5 63.8,0 c 48.3,0 64.1,-0.3 65,-1.2 0.7,-0.7 1.2,-2.7 1.2,-4.4 0,-5.6 -2.3,-6.4 -19,-6.4 l -14.6,0 -1.7,-2.9 c -2.4,-4.1 -5.5,-18.3 -5.9,-27.1 l -0.3,-7.5 31.5,-0.5 c 35,-0.6 35.2,-0.6 43,-7.6 2.3,-2.1 5.4,-6.1 6.8,-8.8 l 2.7,-5.1 0,-58.5 0,-58.5 -2.7,-5 c -3.1,-6 -7.7,-10.4 -13.8,-13.6 l -4.5,-2.4 -88.3,-0.2 -88.4,-0.3 -24.5,-23.9 c -13.4,-13.2 -24.2,-24.5 -23.8,-25.1 0.3,-0.5 1.9,-1 3.5,-1 2.9,0 6.3,-3.2 7.5,-7 0.6,-1.7 -0.8,-5.1 -3.7,-9.1 -0.9,-1.3 2.6,-5.2 22.1,-24.5 14.3,-14.1 24.4,-23.3 26.4,-24 3.1,-1.1 14.7,-12.9 14.7,-14.9 0,-1.1 -7.4,-7.5 -8.7,-7.5 -1.7,0 -14.3,12.2 -14.3,13.8 0,1.4 -27.9,29.9 -44.1,45 l -4.6,4.3 -3,-2.5 c -1.7,-1.4 -4.2,-2.6 -5.6,-2.6 -3.4,0 -8.7,4.6 -8.7,7.5 0,4.6 -2.2,3.8 -9.2,-3.3 l -7.1,-7 1.3,-5.2 c 5.2,-21.7 -8.3,-43.7 -30.5,-49.6 -6.3,-1.7 -14.6,-1.8 -16.7,-0.2 z m 116.8,140.2 l 2.8,2.3 -3.9,4.7 -3.8,4.7 -3.4,-3.3 c -3.8,-3.7 -4.1,-6 -1.3,-8.8 2.7,-2.7 6.3,-2.5 9.6,0.4 z m 188.2,10.5 c 4.2,2.2 6.3,4.3 8.6,8.8 1.4,2.8 1.6,9.4 1.6,57.3 0,51.2 -0.1,54.3 -1.9,57.8 -2.3,4.5 -5.6,7.7 -9.4,9.1 -1.9,0.8 -29.5,1.1 -86,1.1 -79,0 -83.4,-0.1 -87.3,-1.9 -4.4,-2 -7.4,-5.6 -9.2,-11 -0.9,-2.4 -1.2,-18.5 -1.2,-54.3 l 0,-50.9 3.3,-1.4 c 4.9,-2 9.6,-7.4 10.9,-12.2 l 1,-4.3 83,0 c 79.4,0 83,0.1 86.6,1.9 z m -69.3,147 c 0.3,0.5 1,5.4 1.5,10.8 0.8,8.6 3.2,19.2 5.5,24.5 0.7,1.7 -0.9,1.8 -24.7,1.8 l -25.4,0 2.3,-7 c 1.3,-3.8 2.8,-11.8 3.4,-17.7 0.6,-6 1.3,-11.4 1.5,-12.1 0.4,-1.5 34.9,-1.8 35.9,-0.3 z"/>
<path d="M 210,183.9 c -1.1,2.1 -1.4,29 -0.4,32.9 l 0.6,2.2 22.2,-0.2 22.1,-0.3 0.3,-17.4 c 0.2,-13.3 -0.1,-17.6 -1,-18.3 -0.7,-0.4 -10.6,-0.8 -22,-0.8 -19.5,0 -20.8,0.1 -21.8,1.9 z m 39,16.6 l 0,12.5 -16.5,0 -16.5,0 0,-12.5 0,-12.5 16.5,0 16.5,0 0,12.5 z"/>
<path d="M 261.4,183.5 c -0.4,0.8 -0.4,2.2 0,3 0.5,1.3 5,1.5 32.4,1.5 27.2,0 32.1,-0.2 33.2,-1.5 1,-1.2 1,-1.8 0,-3 -1.1,-1.3 -6,-1.5 -33.2,-1.5 -27.4,0 -31.9,0.2 -32.4,1.5 z"/>
<path d="M 261,200.4 c 0,1.3 0.7,2.7 1.6,3 0.9,0.3 15.4,0.6 32.4,0.6 26,0 30.9,-0.2 32,-1.5 0.7,-0.8 1,-2.2 0.6,-3 -0.5,-1.3 -5,-1.5 -33.6,-1.5 l -33,0 0,2.4 z"/>
<path d="M 262.2,213.9 c -0.8,0.5 -1.2,1.7 -1,2.7 0.3,1.8 1.9,1.9 33.1,2.2 28.6,0.2 32.8,0 33.3,-1.3 0.4,-0.8 0.1,-2.2 -0.6,-3 -1.1,-1.3 -6,-1.5 -32.4,-1.5 -17.1,0 -31.7,0.4 -32.4,0.9 z"/>
<path d="M 210.4,230.5 c -0.4,0.8 -0.4,2.2 0,3 0.8,2.3 114.7,2.3 116.6,0 0.7,-0.8 1,-2.2 0.6,-3 -0.5,-1.3 -7.7,-1.5 -58.6,-1.5 -50.7,0 -58.1,0.2 -58.6,1.5 z"/>
<path d="M 211.3,244.7 c -0.7,0.2 -1.3,1.6 -1.3,2.9 l 0,2.4 58.5,0 c 53.4,0 58.6,-0.1 59.2,-1.6 1.6,-4.3 -0.1,-4.4 -59.1,-4.3 -30.9,0 -56.7,0.3 -57.3,0.6 z"/>
<path d="M 210.4,261.5 c -0.4,0.8 -0.4,2.2 0,3 0.8,2.3 81.7,2.3 83.6,0 1,-1.2 1,-1.8 0,-3 -1.9,-2.3 -82.8,-2.3 -83.6,0 z"/>
<path d="M 34.3,224.4 c -11.2,3.7 -13.3,7.7 -13.3,26 l 0,13.7 10.8,-0.3 10.7,-0.3 0.3,-10.7 c 0.3,-11.6 1.2,-13.5 5.7,-12.4 l 2.5,0.6 0,12.3 c 0,6.7 -0.4,12.8 -0.9,13.5 -0.4,0.7 -2.6,1.9 -4.7,2.7 l -3.9,1.3 0,5.8 0,5.8 3.8,0.9 c 2,0.5 4.2,1.8 4.7,2.8 0.6,1.1 0.9,8.6 0.8,18.1 l -0.3,16.3 -2.9,0.3 c -1.6,0.2 -3.2,-0.2 -3.7,-1 -0.5,-0.7 -0.9,-7.2 -0.9,-14.4 0,-8.7 -0.4,-13.4 -1.2,-14.2 -1.6,-1.6 -19,-1.6 -20.6,0 -1.5,1.5 -1.6,27.7 -0.2,33 1.4,4.9 5.3,9.4 10.4,12 3.1,1.7 6.4,2.3 13.9,2.6 15.7,0.7 24.6,-2.8 28.7,-11.2 1.8,-3.7 2,-6.2 2,-20.9 0,-19.2 -0.6,-21.7 -6.9,-26.7 l -4.1,-3.3 3.5,-2.4 c 5.5,-3.7 6.9,-7.3 7.3,-19.6 0.6,-14.4 -0.2,-19 -4,-23.3 -5.1,-5.8 -10.7,-7.7 -22.8,-8.1 -6.9,-0.2 -11.9,0.2 -14.7,1.1 z"/>
<path d="M 87,280.9 l 0,57.1 17.8,0 c 20.8,0 26.1,-1.1 32.4,-6.8 6.9,-6.2 6.8,-5.5 6.8,-50.7 0,-37.8 -0.1,-40.8 -1.9,-44.3 -2.3,-4.5 -4.2,-6.2 -10.1,-9.3 -4.2,-2.3 -5.7,-2.4 -24.7,-2.7 l -20.3,-0.3 0,57 z m 29.8,-40.3 l 2.2,1.5 0,38.5 c 0,37.5 -0.1,38.5 -2.1,40.5 -4.3,4.3 -4.4,3.4 -4.7,-39.2 -0.1,-22.2 0,-41 0.3,-41.6 0.6,-1.7 1.6,-1.6 4.3,0.3 z"/>
</svg>
