<svg xmlns="http://www.w3.org/2000/svg" viewBox="0 0 384 384">
<path d="M 97.8,54.1 c -6.8,3.5 -7.3,5.6 -7.3,29.9 0,23.9 0.4,25.7 6.4,29.7 1.9,1.3 4.7,2.3 6.2,2.3 2.8,0 2.9,0.1 2.9,5.4 0,5.6 -0.8,6.6 -5,6.6 -3,0 -8.8,5.8 -10,9.8 -1.2,4.6 -1.3,37.3 0,42.6 1.2,5.4 5.6,9.6 10.8,10.3 l 4.2,0.6 0,5.7 0,5.7 -4.1,0.7 c -5.2,0.8 -9.4,4.9 -10.9,10.6 -0.8,2.9 -1.1,10.9 -0.8,23.4 0.4,20.9 1,23.5 6.5,27.2 2.6,1.8 5.5,1.9 48.1,2.2 l 45.2,0.3 0,14.2 c 0,9.8 -0.4,14.7 -1.2,15.5 -0.9,0.9 -13.1,1.2 -48.8,1.2 -26.1,0 -48.1,0.4 -48.8,0.8 -0.9,0.6 -1.2,3.3 -1,9.8 l 0.3,8.9 47.3,0.3 47.4,0.2 3.6,2.8 c 5.1,3.9 13.3,3.9 18.5,-0.1 l 3.6,-2.7 47.5,0 47.6,0 0,-9.4 c 0,-7.6 -0.3,-9.5 -1.6,-10 -0.9,-0.3 -22.8,-0.6 -48.8,-0.6 -35.4,0 -47.5,-0.3 -48.4,-1.2 -0.8,-0.8 -1.2,-5.7 -1.2,-15.5 l 0,-14.2 45.3,-0.3 c 44.9,-0.3 45.2,-0.3 48.3,-2.5 5.8,-4.2 6.4,-6.8 6.4,-29.8 0,-13.3 -0.4,-21.4 -1.1,-22.8 -2.4,-4.7 -6.2,-7.6 -10.5,-8.3 l -4.4,-0.6 0,-5.9 0,-5.9 3.5,0 c 2.8,0 4.5,-0.9 7.8,-3.9 l 4.2,-4 0.3,-21.6 c 0.2,-15.3 0,-22.6 -0.9,-24.6 -1.4,-3.6 -7.3,-8.9 -9.9,-8.9 -4.2,0 -5,-1 -5,-6.5 l 0,-5.2 4.1,-0.6 c 5,-0.7 9.5,-4.6 11,-9.7 0.6,-2.1 0.9,-11.7 0.7,-24.2 -0.3,-19.1 -0.5,-20.9 -2.4,-23.5 -4.9,-6.6 1.2,-6.2 -105.4,-6.2 -94.1,0 -96.6,0 -100.2,2 z"/>
</svg>
