<svg xmlns="http://www.w3.org/2000/svg" viewBox="0 0 384 384">
<path d="M 149.9,16.9 l -2.4,1.9 -0.5,66.4 -0.5,66.3 -61.8,0.5 c -59.8,0.5 -61.9,0.6 -63.3,2.4 -1.2,1.7 -1.4,18.1 -1.4,108.3 0,105 0,106.3 2,108.3 2,2 3.3,2 88.8,2 l 86.9,0 1.9,-2.1 c 1.8,-2 1.9,-4.4 2.2,-42.3 l 0.3,-40.1 22,-22.1 c 17.5,-17.5 22.2,-22.8 22.8,-25.5 l 0.7,-3.4 38.6,-0.5 c 36.2,-0.5 38.7,-0.6 40.7,-2.4 2.1,-1.9 2.1,-2.5 2.1,-42 l 0,-40 22.4,-22.6 22.4,-22.5 0.7,-5.6 c 0.8,-6.7 -0.1,-7.4 -7.3,-5.8 -4.4,0.9 -6.2,2.4 -20.7,16.9 -8.7,8.7 -16.2,15.7 -16.7,15.4 -0.4,-0.3 -0.8,-25 -0.8,-54.9 l 0,-54.4 -2.6,-2 c -2.7,-2.1 -3.2,-2.1 -88.4,-2.1 -83,0 -85.9,0.1 -88.1,1.9 z m 163.5,14.7 c 0.3,0.9 0.6,26.8 0.6,57.6 l 0,56.1 -12,12.2 c -9.2,9.4 -12,12.9 -12,14.9 0,1.6 -1.4,4.2 -3.7,6.7 -2.9,3.2 -3.5,4.4 -2.6,5.7 1.8,2.9 5.6,2.6 8.8,-0.8 1.6,-1.7 3.9,-3 5.3,-3 1.5,0 4.5,-2.1 8.6,-6 3.5,-3.3 6.6,-5.7 6.9,-5.3 1,0.9 0.8,49.5 -0.1,51.1 -0.7,1 -12.5,1.2 -55.8,1 l -54.9,-0.3 -0.5,-32.6 c -0.5,-30.2 -0.6,-32.9 -2.4,-34.8 l -1.9,-2.1 16.8,-0.2 c 14.7,-0.3 16.9,-0.5 17.9,-2.1 0.8,-1.2 0.8,-2.2 0,-3.5 -1,-1.5 -3.5,-1.7 -25,-2 -13.1,-0.1 -24.9,0 -26.1,0.3 -1.6,0.4 -2.3,1.4 -2.5,3.8 -0.3,3.2 -0.3,3.2 -6.3,3.5 -3.2,0.2 -6.9,0.1 -8.2,-0.3 l -2.3,-0.5 0,-59.3 c 0,-44.8 0.3,-59.6 1.2,-60.5 0.9,-0.9 19,-1.2 75.4,-1.2 66.7,0 74.2,0.2 74.8,1.6 z m -166.4,147.9 l 0,12.5 -46.1,0 c -29.8,0 -46.7,0.4 -48,1 -2.2,1.2 -2.5,4.3 -0.6,5.9 1,0.7 15.6,1.2 47.8,1.3 l 46.4,0.3 0.3,6.7 0.3,6.8 -45.5,0 c -27.1,0 -46.5,0.4 -48,1 -2.8,1 -3.4,3.8 -1.4,5.8 0.9,0.9 12.9,1.2 48,1.2 l 46.8,0 0,4.8 c 0,2.7 0.6,5.7 1.5,6.8 0.8,1 1.5,2.2 1.5,2.6 0,0.5 -22,0.8 -49,0.8 l -49,0 -0.6,2.6 c -0.4,1.7 -0.2,2.9 0.7,3.5 0.8,0.5 27.1,0.8 59.4,0.6 l 58,-0.2 0.3,-3.3 0.3,-3.2 8,0 7.9,0 0,22.8 0,22.7 -11.5,11.5 c -9.5,9.5 -11.7,12.2 -12.1,15.2 -0.4,2.2 -1.8,4.8 -3.5,6.4 -3.1,3 -3.6,5.3 -1.7,7.2 2,2 4.3,1.4 7.8,-2.3 2.2,-2.2 4.3,-3.5 6,-3.5 1.8,0 4.2,-1.6 8,-5.5 3,-3 5.8,-5.5 6.2,-5.5 0.4,0 0.8,11.7 0.8,26 l 0,26 -75.2,-0.2 -75.3,-0.3 -0.3,-94 c -0.1,-51.7 0,-94.6 0.3,-95.3 0.3,-0.9 12.5,-1.2 56,-1.2 l 55.5,0 0,12.5 z m 38.8,14.7 l -0.3,27.3 -7.7,0.3 -7.7,0.3 -0.3,-3.3 c -0.2,-2.8 -0.9,-3.5 -3.8,-4.4 -3.3,-1.1 -3.5,-1.4 -3.8,-6.4 -0.3,-5.8 0.7,-7.7 4.6,-8.2 2.3,-0.2 2.7,-0.8 2.7,-3.3 0,-2.5 -0.5,-3.2 -3.5,-4.1 l -3.5,-1.2 -0.3,-9.8 c -0.4,-15.3 -1.2,-14.4 12.3,-14.4 l 11.5,0 -0.2,27.2 z m 31.7,56.8 c -7.7,7.7 -14.3,14 -14.7,14 -0.5,0 -0.8,-6.3 -0.8,-14 l 0,-14 14.7,0 14.8,0 -14,14 z"/>
<path d="M 179.7,56.7 c -1.4,1.3 -0.6,5.3 1.2,6.3 1.3,0.6 21.3,1 58,1 49.5,0 56.1,-0.2 57.5,-1.6 1.9,-1.8 1.9,-2 0.6,-4.5 -1,-1.8 -2.7,-1.9 -58.9,-1.9 -31.8,0 -58.1,0.3 -58.4,0.7 z"/>
<path d="M 179.7,78.7 c -1.1,1.1 -0.8,4.8 0.5,6.1 0.9,0.9 15.1,1.2 57.9,1.2 50.3,0 56.9,-0.2 58.3,-1.6 1.9,-1.8 1.9,-2 0.6,-4.5 -1,-1.8 -2.7,-1.9 -58.9,-1.9 -31.8,0 -58.1,0.3 -58.4,0.7 z"/>
<path d="M 180.3,100.7 c -1.9,0.7 -1.6,6 0.3,6.7 0.9,0.3 26.9,0.6 57.9,0.6 49.9,0 56.5,-0.2 57.9,-1.6 1.9,-1.8 1.9,-2 0.6,-4.5 -1,-1.8 -2.7,-1.9 -58.3,-1.8 -31.5,0 -57.8,0.3 -58.4,0.6 z"/>
<path d="M 180.3,122.7 c -1.9,0.7 -1.6,6 0.3,6.7 0.9,0.3 26.9,0.6 57.9,0.6 49.9,0 56.5,-0.2 57.9,-1.6 2,-1.9 2,-2.9 0,-4.8 -1.4,-1.4 -8,-1.6 -58.2,-1.5 -31.2,0 -57.3,0.3 -57.9,0.6 z"/>
<path d="M 257.6,189.6 c -1.9,1.9 -2,3.6 -0.4,5.2 1.3,1.3 20.2,1.7 23.2,0.6 2.2,-0.9 2,-5.1 -0.3,-6.4 -1.1,-0.5 -6.2,-1 -11.5,-1 -7.3,0 -9.8,0.4 -11,1.6 z"/>
<path d="M 53.2,259.6 c -2.8,1.9 -2.8,3.9 0,5.8 2,1.4 9.1,1.6 57,1.6 33.1,0 55.7,-0.4 57.2,-1 3.6,-1.3 3.6,-5.7 0,-7 -1.5,-0.6 -24.1,-1 -57.2,-1 -47.9,0 -55,0.2 -57,1.6 z"/>
<path d="M 52.1,281.9 c -0.9,0.6 -1.1,1.8 -0.7,3.5 l 0.6,2.6 26.3,-0.2 26.2,-0.3 0,-3 0,-3 -25.5,-0.2 c -14,-0.2 -26.1,0.1 -26.9,0.6 z"/>
<path d="M 129.7,325.7 c -1.1,1.1 -0.8,4.8 0.5,6.1 1.9,1.9 21.2,1.6 23.2,-0.4 1.9,-1.9 2,-3.6 0.4,-5.2 -1.3,-1.3 -22.9,-1.8 -24.1,-0.5 z"/>
<path d="M 355.8,130.7 c -9.3,9.3 -17.1,17.9 -17.5,19.1 -0.7,3 1.7,5.6 4.4,4.8 3.3,-1.1 35.3,-34.1 35.3,-36.4 0,-1.9 -2.6,-4.2 -4.6,-4.2 -0.4,0 -8.4,7.5 -17.6,16.7 z"/>
<path d="M 227.8,267.7 c -9.2,9.2 -17.1,17.6 -17.4,18.6 -0.8,2.7 1.8,5.1 4.8,4.4 1.2,-0.4 9.6,-8 18.6,-17 12.5,-12.6 16.2,-16.9 16.2,-18.9 0,-2.4 -1.6,-3.8 -4.3,-3.8 -0.6,0 -8.6,7.5 -17.9,16.7 z"/>
</svg>
