<svg xmlns="http://www.w3.org/2000/svg" viewBox="0 0 384 384">
<path d="M 214.5,14.4 c -6.4,2.9 -12.9,10.2 -14.4,16.1 -0.7,2.7 -1.1,15.7 -1.1,34.8 l 0,30.5 -4.4,1.1 c -5.1,1.3 -9.9,5 -12.4,9.5 -1.4,2.6 -1.7,6.1 -1.7,23.6 0,12.5 -0.4,20.8 -1,21.2 -0.5,0.4 -35.8,0.8 -78.3,0.8 -75.9,0 -77.2,0 -79.2,2 -2,2 -2,3.3 -2,108.5 0,104.7 0,106.5 2,108.5 1.1,1.1 3,2.2 4.2,2.5 1.3,0.3 40.2,0.4 86.5,0.3 l 84.2,-0.3 2.3,-2.3 2.3,-2.3 0.3,-40 0.3,-40.1 21,-21.1 c 11.6,-11.6 21.7,-22 22.4,-23.1 1.9,-2.9 3,-11.2 1.6,-12 -0.6,-0.4 -3.4,-0.4 -6.3,0 -5.3,0.7 -5.5,0.8 -22,17.2 l -16.8,16.6 0,-29.7 0,-29.6 78.8,-0.3 c 88.5,-0.3 82.3,0.2 88.2,-8 l 3,-4.1 0,-42.9 c 0,-47 0.1,-46 -6,-51.2 -1.7,-1.4 -4.8,-3 -7,-3.6 l -3.9,-1 -0.3,-32.8 -0.3,-32.7 -2.8,-4.7 c -3.3,-5.5 -7.6,-9.4 -13.2,-11.9 -3.7,-1.7 -8,-1.9 -61.5,-1.9 l -57.5,0 -5,2.4 z m 121,11.6 c 7,4.3 7,4.1 7.3,38.7 l 0.3,31.3 -4,0 c -3.7,0 -4,0.2 -5.1,3.7 -4.9,15.5 -16.7,29.3 -31,36.1 -19.7,9.5 -41.5,8 -59.6,-4 -9.9,-6.6 -21.3,-22.4 -23.9,-33.1 -0.6,-2.4 -1.2,-2.7 -4.6,-2.7 l -3.9,0 0,-30.8 c 0,-28.9 0.1,-30.9 2,-34 1.1,-1.8 3.4,-4.1 5.2,-5.2 3.2,-1.9 5.2,-2 58.7,-2 53.8,0 55.5,0.1 58.6,2 z m -155.5,151.8 c 0,11.3 1.7,19.9 4.5,22.2 1.3,1.1 1.5,7 1.5,41.9 l 0,40.6 -10.6,10.5 c -10.5,10.5 -13.4,14.3 -13.4,17.8 0,1 -1.4,3.1 -3,4.7 -3.8,3.6 -4,7.2 -0.4,8.1 2.1,0.5 3.3,0 6.3,-3 2.1,-2 4.2,-3.6 4.7,-3.5 2.8,0.5 4.7,-0.6 9.7,-5.6 3,-3 5.8,-5.5 6.1,-5.5 0.3,0 0.6,11.7 0.6,26 l 0,26 -75.2,-0.2 -75.3,-0.3 -0.3,-94 c -0.1,-51.7 0,-94.6 0.3,-95.3 0.3,-0.9 15.8,-1.2 72.5,-1.2 l 72,0 0,10.8 z"/>
<path d="M 258.8,55.2 l -17.6,18.3 10.2,0.5 10.1,0.5 0.5,23 0.5,23 15.5,0 15.5,0 0.3,-23.3 0.2,-23.2 10.3,0 10.2,0 -18.5,-18.5 c -10.2,-10.2 -18.7,-18.5 -19,-18.5 -0.3,0 -8.5,8.2 -18.2,18.2 z"/>
<path d="M 52.8,193.1 c -2.1,1.2 -2.3,4.2 -0.4,5.8 0.9,0.8 17.3,1 59.2,0.9 l 57.9,-0.3 0.3,-2.3 c 0.8,-5.4 2.5,-5.2 -58.7,-5.2 -36.6,0.1 -57.2,0.4 -58.3,1.1 z"/>
<path d="M 53.3,215 c -2.6,1 -3,4.2 -0.9,5.9 0.9,0.8 17.3,1 59.2,0.9 l 57.9,-0.3 0.3,-2.7 c 0.3,-2.2 -0.2,-3 -2.3,-3.8 -3.3,-1.3 -111.1,-1.2 -114.2,0 z"/>
<path d="M 51.7,237.7 c -1.6,1.6 -0.6,5.3 1.6,5.8 1.2,0.3 27.8,0.4 59.2,0.3 l 57,-0.3 0,-3 0,-3 -58.6,-0.3 c -32.2,-0.1 -58.9,0.1 -59.2,0.5 z"/>
<path d="M 53.3,259.2 c -3.2,1.5 -3,5.2 0.2,6.6 3.4,1.6 111.7,1.7 114.6,0.2 1.1,-0.6 1.9,-2.1 1.9,-3.5 0,-1.4 -0.8,-2.9 -1.9,-3.5 -2.8,-1.4 -111.8,-1.3 -114.8,0.2 z"/>
<path d="M 52.2,281.9 c -0.8,0.4 -1.2,1.9 -1,3.2 l 0.3,2.4 26.5,0 26.5,0 0,-3 0,-3 -25.5,-0.2 c -14,-0.2 -26.1,0.1 -26.8,0.6 z"/>
<path d="M 129.7,325.7 c -1.1,1.1 -0.8,4.8 0.5,6.1 1.5,1.5 20.1,1.6 22.9,0.2 2.1,-1.2 2.5,-4 0.7,-5.8 -1.3,-1.3 -22.9,-1.8 -24.1,-0.5 z"/>
<path d="M 228.4,267.1 c -17.9,17.9 -19.6,20.1 -17.2,22.6 1,1 2.5,1.3 4,1 2.5,-0.7 35.8,-33.7 35.8,-35.5 0,-1.6 -2.9,-4.2 -4.8,-4.2 -0.8,0 -8.9,7.2 -17.8,16.1 z"/>
</svg>
