<svg xmlns="http://www.w3.org/2000/svg" viewBox="0 0 384 384">
<path d="M 61.7,70.2 c -0.3,1.3 -0.4,19.6 -0.3,40.8 l 0.1,38.5 24.7,0.3 24.7,0.2 10.5,-13.7 c 18.8,-24.8 21.1,-27.6 22.1,-28 0.9,-0.3 12.4,8.3 43.3,32.2 l 12.3,9.6 12.6,-0.3 12.7,-0.3 -11.2,-8.5 c -6.2,-4.7 -11.2,-9 -11.2,-9.6 0,-1.3 16.7,-23.4 17.7,-23.4 0.7,0 21.4,15.6 42,31.7 l 13.2,10.3 24,0 24.1,0 0,-28.5 0,-28.4 -78.2,-0.3 c -71.6,-0.3 -78.6,-0.4 -82.1,-2 -2.1,-1 -8.8,-6.5 -15,-12.3 l -11.1,-10.5 -37.2,0 -37.2,0 -0.5,2.2 z"/>
<path d="M 38.7,177.7 c -0.2,0.5 0.6,8.7 1.9,18.3 1.2,9.6 4.5,35.5 7.4,57.5 2.8,22 5.6,44 6.1,49 0.6,4.9 1.4,10.3 1.8,12 l 0.7,3 134.1,0.3 c 127.1,0.2 134.2,0.1 134.7,-1.5 0.3,-1 1,-5 1.5,-8.8 0.9,-6.1 5.3,-34.3 12.1,-77.5 4.8,-30.5 8,-51.1 8,-52 0,-1.2 -307.7,-1.4 -308.3,-0.3 z"/>
</svg>
