<svg xmlns="http://www.w3.org/2000/svg" viewBox="0 0 384 384">
<path d="M 181.5,112.4 c -6,2.6 -11.5,11.3 -11.5,18.1 0,9.2 8.8,19.5 16.5,19.5 2.2,0 2.4,0.3 1.5,1.9 -2,3.8 1.6,7.4 4.5,4.5 1.1,-1.1 1.2,-2 0.5,-3.4 -1.4,-2.6 -1.3,-3 1,-3 4.1,0 10.1,-4 13.1,-8.7 5.9,-9.5 3,-22.2 -6.5,-27.8 -4.9,-2.9 -13.9,-3.4 -19.1,-1.1 z"/>
<path d="M 97.8,130.8 c -7.8,4.8 -7.5,18 0.5,21.3 1.6,0.7 3.3,2.3 3.7,3.5 0.8,1.9 0.4,2.9 -2,5.3 -3.6,3.6 -3.9,7.3 -0.7,10.5 l 2.3,2.3 -2.3,2.1 c -1.5,1.3 -2.3,3.2 -2.3,5.2 0,2 0.8,3.9 2.3,5.2 l 2.3,2.1 -2.3,2.3 c -4.5,4.5 -1.4,12.4 5,12.4 6.3,0 9.2,-8.9 4.2,-12.8 l -2.5,-2 2.5,-1.6 c 3.2,-2.1 3.5,-8.4 0.5,-11.1 l -2,-1.8 2,-1.9 c 2.7,-2.5 2.7,-8.1 0,-10.8 -1.1,-1.1 -2.4,-2 -3,-2 -2.1,0 0.8,-4.4 4.6,-6.9 5.3,-3.7 7.4,-9.3 5.3,-14.7 -2.8,-7.3 -11.8,-10.6 -18.1,-6.6 z"/>
<path d="M 270.6,131.1 c -8.2,6.4 -6.9,18.1 2.5,21.9 3.5,1.5 4,5.4 0.9,7 -4.4,2.4 -4.6,10.8 -0.3,12.5 1.4,0.5 1.3,0.9 -0.5,2.8 -3.7,3.9 -3.8,7.2 -0.4,10.7 1.9,1.9 2.5,3 1.6,3 -0.8,0 -2.2,1.6 -3.1,3.6 -1.6,3.2 -1.6,3.8 -0.2,6.2 3,5.4 10.6,5.2 13.1,-0.3 1.5,-3.3 0.1,-7.6 -3.1,-9.1 -2.2,-1.1 -2.2,-1.2 -0.4,-1.8 2,-0.6 4.3,-4.5 4.3,-7.1 0,-0.7 -1.2,-2.7 -2.6,-4.4 -2.1,-2.5 -2.3,-3.2 -1.1,-3.7 4.3,-1.6 4.1,-10.1 -0.3,-12.4 -3.1,-1.6 -2.6,-5.5 0.9,-7 7.5,-3.1 10.3,-11.6 5.9,-18 -1.3,-1.9 -3.5,-4 -4.8,-4.7 -3.8,-1.9 -9.4,-1.6 -12.4,0.8 z"/>
<path d="M 43.1,137.6 c -3.2,4.1 -2.7,8.1 1.5,11.9 l 3.6,3.3 -2.3,3.2 c -2.3,3 -2.3,3.2 -0.7,6.1 0.9,1.6 1.3,2.9 0.9,2.9 -1.6,0 -2,4.4 -0.7,6.5 1.1,1.7 1.1,2.4 -0.2,4.3 -1.2,1.8 -1.3,2.8 -0.4,4.7 1,2.2 0.9,2.5 -0.8,2.5 -1.5,0 -2,0.7 -2,2.6 0,2.1 0.4,2.5 2.3,2.2 1.4,-0.2 2.3,-1.1 2.5,-2.6 0.2,-1.3 1,-2.2 2.1,-2.2 1,0 2.6,-0.9 3.7,-2.1 1.7,-1.9 1.7,-2.2 0.2,-4.9 -1.5,-2.6 -1.5,-2.9 0.1,-4.4 1.4,-1.5 1.5,-1.9 0,-4.4 -1.3,-2.4 -1.3,-3 0,-5.4 1.5,-2.5 1.4,-2.9 -0.8,-5.9 l -2.4,-3.2 3.6,-3 c 3,-2.3 3.7,-3.6 3.7,-6.3 0,-7.6 -9.5,-11.4 -13.9,-5.8 z"/>
<path d="M 327.2,137.3 c -3.4,3.6 -2.3,12.7 1.5,12.7 0.6,0 1.6,0.7 2.3,1.5 1.1,1.3 0.9,2 -0.9,3.8 -2.5,2.8 -2.6,4.5 -0.5,7.5 0.8,1.2 1.1,2.2 0.5,2.2 -1.6,0 -2.3,3.8 -1.1,6.1 0.9,1.7 0.9,2.7 -0.1,4.5 -1.8,3.4 0.2,7.4 3.6,7.4 2.2,0 2.5,0.4 2,1.9 -0.8,2.7 2.7,4.7 4.5,2.6 1.5,-1.8 0.6,-4.5 -1.6,-4.5 -1,0 -1.4,-0.5 -1,-1.5 0.3,-0.8 0.8,-2.1 1.1,-2.8 0.3,-0.7 -0.1,-2.1 -0.9,-3.2 -1.2,-1.7 -1.2,-2.2 0.1,-4.2 1.4,-2.1 1.4,-2.6 -0.1,-4.8 -1.5,-2.3 -1.5,-2.7 -0.1,-4.9 1.8,-2.7 1.1,-5.2 -1.8,-6.8 -2,-1 -2,-1.2 1.6,-4.2 5.1,-4.3 6,-9.4 2.4,-13 -3.4,-3.4 -8.5,-3.5 -11.5,-0.3 z"/>
<path d="M 38,158.5 c -1.6,2 -0.5,4.5 2,4.5 1.4,0 2,-0.7 2,-2.4 0,-2.8 -2.4,-4.1 -4,-2.1 z"/>
<path d="M 322,158.5 c -0.9,1 -1,2.2 -0.4,3.5 0.8,1.9 1.1,1.9 3.2,0.5 2.7,-2 2.8,-3.1 0.3,-4.4 -1.4,-0.8 -2.2,-0.7 -3.1,0.4 z"/>
<path d="M 340.2,158.2 c -1.8,1.8 -1.4,3.6 0.9,4.3 1.1,0.4 2.5,1.8 3.1,3.1 1.3,2.7 3,3.1 4.8,0.9 1.6,-1.9 -0.5,-4.9 -3.1,-4.2 -1.2,0.3 -1.6,0 -1.2,-0.9 0.5,-1.4 -1.3,-4.4 -2.6,-4.4 -0.4,0 -1.2,0.5 -1.9,1.2 z"/>
<path d="M 55.6,158.9 c -1,1.6 0.5,4.1 2.4,4.1 1.9,0 3.4,-2.5 2.4,-4.1 -0.3,-0.5 -1.4,-0.9 -2.4,-0.9 -1,0 -2.1,0.4 -2.4,0.9 z"/>
<path d="M 182.4,162.4 c -5.5,5.5 -4.5,13.9 2.2,17.8 l 3.7,2.2 -3,1.4 c -7.8,3.7 -8.6,15.9 -1.3,20 3.5,2 3.7,2.8 0.9,3.7 -2.8,0.9 -5.9,6.3 -5.9,10.3 0,7 4.4,11.2 11.8,11.2 4.4,0 7.6,-2 9.7,-6 3,-5.8 0.8,-12.6 -4.8,-15.3 l -2.9,-1.4 3.6,-2.2 c 4.6,-2.9 6.4,-8.1 4.6,-13.5 -1.2,-3.7 -5.1,-7.6 -7.9,-7.6 -0.9,-0.1 0.1,-1 2.1,-2.1 11.4,-6 7.2,-21.9 -5.8,-21.9 -2.8,0 -4.4,0.8 -7,3.4 z"/>
<path d="M 32.6,163.5 c -0.7,2 0.3,4.5 1.9,4.5 0.7,0 1.8,-0.7 2.5,-1.5 1,-1.2 1,-1.8 0,-3 -0.7,-0.8 -1.8,-1.5 -2.5,-1.5 -0.7,0 -1.5,0.7 -1.9,1.5 z"/>
<path d="M 61.3,162.7 c -2.2,0.8 -1.4,3.9 1.2,5.1 1.4,0.6 2.5,1.8 2.5,2.6 0,1.7 2.3,2.7 3.9,1.6 2.1,-1.2 0.8,-4.5 -1.7,-4.4 -1.5,0 -2.2,-0.4 -2,-1.5 0.3,-1.8 -0.9,-4.1 -2,-4 -0.4,0 -1.3,0.3 -1.9,0.6 z"/>
<path d="M 317,163.5 c -1,1.2 -1,1.8 0,3 1.6,2 3.6,1.9 4.4,-0.1 0.6,-1.6 -0.9,-4.4 -2.4,-4.4 -0.4,0 -1.3,0.7 -2,1.5 z"/>
<path d="M 87.5,164.7 c -3,3 -1.1,7.3 3.2,7.3 2.8,0 4.8,-3.3 3.4,-5.9 -1.4,-2.5 -4.8,-3.3 -6.6,-1.4 z"/>
<path d="M 262.2,163.7 c -2.2,0.8 -3.4,4.1 -2.2,6.3 2,3.8 8.7,1.6 7.8,-2.6 -0.4,-2 -3.8,-4.3 -5.6,-3.7 z"/>
<path d="M 290.2,163.7 c -4.2,1.5 -3.2,8.3 1.3,8.3 2.6,0 5,-3.2 4.1,-5.5 -0.6,-1.8 -3.7,-3.4 -5.4,-2.8 z"/>
<path d="M 115.3,164.7 c -0.7,0.2 -1.3,1.8 -1.3,3.4 0,2.2 0.5,3 2.6,3.5 3.5,0.9 5.9,-1.5 5,-5 -0.6,-2.5 -3,-3.3 -6.3,-1.9 z"/>
<path d="M 29.3,167.2 c -2.7,1.3 -2.9,3 -0.8,4.8 1.2,1 1.8,1 3,0 1.7,-1.4 2,-4 0.4,-4 -0.5,0 -0.7,-0.5 -0.4,-1 0.7,-1.2 0.7,-1.2 -2.2,0.2 z"/>
<path d="M 164.2,167.6 c -3.1,2.1 -3.1,8.7 0,10.8 3,2.2 6,2 8.6,-0.4 3.4,-3.2 2.6,-9 -1.4,-10.9 -3.3,-1.5 -4.5,-1.4 -7.2,0.5 z"/>
<path d="M 208.5,168.5 c -3,3 -3.1,5.4 -0.4,8.9 4,5.1 10.9,2.3 10.9,-4.4 0,-6.6 -5.9,-9.2 -10.5,-4.5 z"/>
<path d="M 312.7,167.7 c -1.2,1.2 -0.7,4.1 0.7,4.6 1.9,0.7 4,-1.8 3.2,-3.8 -0.6,-1.5 -2.8,-2 -3.9,-0.8 z"/>
<path d="M 349.7,167.7 c -1.2,1.2 -0.7,4.1 0.7,4.6 1.9,0.7 4,-1.8 3.2,-3.8 -0.6,-1.5 -2.8,-2 -3.9,-0.8 z"/>
<path d="M 80.2,172.2 c -3.6,3.6 1.1,9.6 4.9,6.2 3.1,-2.8 1.8,-7.4 -2.1,-7.4 -0.9,0 -2.1,0.5 -2.8,1.2 z"/>
<path d="M 122.1,172.4 c -0.8,0.9 -1.1,2.6 -0.7,4 1.3,5.3 7.9,3.8 7.4,-1.7 -0.2,-2.6 -0.8,-3.3 -2.9,-3.5 -1.4,-0.2 -3.1,0.4 -3.8,1.2 z"/>
<path d="M 252.8,173.5 c -1.3,3 0.3,5.5 3.6,5.5 4.2,0 5.9,-3.6 3,-6.4 -2.3,-2.4 -5.3,-2 -6.6,0.9 z"/>
<path d="M 296.2,172.2 c -3.6,3.6 1.1,9.6 4.9,6.2 3.1,-2.8 1.8,-7.4 -2.1,-7.4 -0.9,0 -2.1,0.5 -2.8,1.2 z"/>
<path d="M 72.6,179.6 c -2.5,2.5 -0.5,7.3 3.1,7.4 1.5,0 4.3,-2.8 4.3,-4.3 -0.1,-3.6 -4.9,-5.6 -7.4,-3.1 z"/>
<path d="M 129.6,179.9 c -2.4,2.6 -0.4,7 3.1,7.1 1.6,0 4.3,-2.8 4.3,-4.5 0,-1.7 -2.7,-4.5 -4.4,-4.5 -0.7,0 -2,0.8 -3,1.9 z"/>
<path d="M 152.2,179.6 c -1.5,1 -2.2,2.5 -2.2,4.9 0,5.4 4.8,8.7 9.2,6.4 3,-1.6 3.8,-2.8 3.8,-6.2 0,-5.5 -6.1,-8.4 -10.8,-5.1 z"/>
<path d="M 219.9,180.1 c -2.8,2.8 -2.2,7.6 1.2,10.2 4.5,3.3 9.9,0.1 9.9,-5.8 0,-5.9 -6.9,-8.6 -11.1,-4.4 z"/>
<path d="M 246.5,179.3 c -2.3,1.8 -1.4,6.3 1.5,7.2 2.3,0.7 3.6,0.1 5,-2.5 0.8,-1.5 0.6,-2.4 -1,-4 -2.4,-2.4 -3,-2.4 -5.5,-0.7 z"/>
<path d="M 303.5,179.3 c -2.3,1.8 -1.4,6.3 1.5,7.2 2.3,0.7 3.6,0.1 5,-2.5 0.8,-1.5 0.6,-2.4 -1,-4 -2.4,-2.4 -3,-2.4 -5.5,-0.7 z"/>
<path d="M 52.7,183.7 c -0.4,0.3 -0.7,1.5 -0.7,2.5 0,1.3 0.7,1.8 2.5,1.8 2,0 2.5,-0.5 2.5,-2.5 0,-1.8 -0.5,-2.5 -1.8,-2.5 -1,0 -2.2,0.3 -2.5,0.7 z"/>
<path d="M 324.7,184.3 c -0.3,0.9 0,2.2 0.6,3.2 1.7,2.2 4.9,0.9 4.5,-1.9 -0.4,-2.5 -4.3,-3.4 -5.1,-1.3 z"/>
<path d="M 38.7,190.3 c -0.8,2.1 0.8,3.9 2.9,3.5 2.7,-0.5 2.5,-4.2 -0.2,-4.6 -1.2,-0.2 -2.4,0.3 -2.7,1.1 z"/>
<path d="M 55.3,190.6 c -0.4,1.1 0.1,2.2 1.3,3.1 1.6,1.2 2,1.2 3.1,-0.3 0.6,-0.9 0.9,-2.2 0.6,-3 -0.7,-1.9 -4.2,-1.8 -5,0.2 z"/>
<path d="M 321.3,190.6 c -0.3,0.8 0.2,2.3 1.1,3.2 1.6,1.6 1.8,1.6 3.1,-0.1 0.7,-1.1 1.1,-2.5 0.8,-3.3 -0.7,-1.9 -4.2,-1.8 -5,0.2 z"/>
<path d="M 338.3,190.6 c -0.3,0.8 0.1,2.2 0.9,3 1.3,1.4 1.7,1.4 3.2,-0.1 1.3,-1.3 1.4,-2 0.5,-3.1 -1.5,-1.9 -3.8,-1.8 -4.6,0.2 z"/>
<path d="M 140.1,191.9 c -4.2,4.2 -1.2,11.1 4.8,11.1 5.6,0 8.6,-5.6 5.4,-9.9 -2.6,-3.4 -7.4,-4 -10.2,-1.2 z"/>
<path d="M 231.1,192.6 c -1.2,1.5 -2.1,3.2 -2.1,3.9 0,0.7 0.9,2.4 2.1,3.9 2.7,3.4 8.1,3.6 10.3,0.4 5.1,-7.3 -4.8,-15.1 -10.3,-8.2 z"/>
<path d="M 35.4,196.5 c -0.8,1.9 0.3,3.5 2.6,3.5 1.9,0 3,-1.7 2.3,-3.8 -0.6,-1.7 -4.2,-1.5 -4.9,0.3 z"/>
<path d="M 58.7,196.3 c -0.8,2.1 0.8,3.9 2.9,3.5 2.7,-0.5 2.5,-4.2 -0.2,-4.6 -1.2,-0.2 -2.4,0.3 -2.7,1.1 z"/>
<path d="M 318.2,197.2 c 0.2,1.5 1,2.3 2.3,2.3 1.3,0 2.1,-0.8 2.3,-2.3 0.3,-1.8 -0.1,-2.2 -2.3,-2.2 -2.2,0 -2.6,0.4 -2.3,2.2 z"/>
<path d="M 341.6,195.9 c -1,1.6 0.5,4.1 2.4,4.1 1.9,0 3.4,-2.5 2.4,-4.1 -0.3,-0.5 -1.4,-0.9 -2.4,-0.9 -1,0 -2.1,0.4 -2.4,0.9 z"/>
<path d="M 94.6,203.6 c -0.9,0.8 -1.6,2.2 -1.6,2.9 0,1.8 2.7,4.5 4.5,4.5 1.8,0 4.5,-2.8 4.5,-4.5 0,-1.3 -3.7,-4.5 -5.2,-4.5 -0.3,0 -1.4,0.7 -2.2,1.6 z"/>
<path d="M 110,203.8 c -1.7,1.3 -2.1,2.4 -1.6,4 1,3.1 5.5,4.1 7.3,1.6 1.7,-2.4 1.3,-4.3 -1.3,-6.1 -1.9,-1.2 -2.4,-1.1 -4.4,0.5 z"/>
<path d="M 267.8,202.7 c -1,0.3 -2.1,1.6 -2.4,3 -0.9,3.4 1.6,5.8 5,4.9 2.1,-0.5 2.6,-1.2 2.6,-3.6 0,-3.1 -2.2,-4.9 -5.2,-4.3 z"/>
<path d="M 282.8,202.7 c -1,0.3 -2.1,1.6 -2.4,3 -0.9,3.4 1.6,5.8 5,4.9 2.1,-0.5 2.6,-1.2 2.6,-3.6 0,-3.1 -2.2,-4.9 -5.2,-4.3 z"/>
<path d="M 89.6,212.6 c -3.4,3.4 -0.8,8.2 3.9,7 2,-0.5 2.5,-1.3 2.5,-3.6 0,-1.9 -0.7,-3.3 -1.9,-4 -2.5,-1.3 -2.7,-1.3 -4.5,0.6 z"/>
<path d="M 115.6,212.2 c -0.9,0.5 -1.6,2.2 -1.6,3.8 0,2.3 0.5,3.1 2.6,3.6 3.4,0.9 5.9,-1.5 5,-4.9 -0.6,-2.7 -3.5,-3.9 -6,-2.5 z"/>
<path d="M 260.9,213.1 c -1.8,1.8 -1.9,2.3 -0.6,4.2 0.8,1.2 2.2,2.3 3.1,2.5 4.2,0.9 6.4,-5.8 2.7,-7.8 -2.6,-1.3 -2.8,-1.3 -5.2,1.1 z"/>
<path d="M 287,212.8 c -1.6,1.3 -2.1,2.4 -1.6,4 1.3,3.8 6.9,4 8.1,0.1 1.3,-4 -3.2,-6.8 -6.5,-4.1 z"/>
<path d="M 84.6,221.3 c -3.8,2.7 0.2,9.5 4.2,7.1 2.4,-1.6 2.8,-5.5 0.6,-7.1 -1,-0.7 -2.1,-1.3 -2.4,-1.3 -0.3,0 -1.4,0.6 -2.4,1.3 z"/>
<path d="M 120.6,221.3 c -2.2,1.6 -1.8,5.5 0.7,7.1 3.9,2.4 7.9,-4.4 4.1,-7.1 -1,-0.7 -2.1,-1.3 -2.4,-1.3 -0.3,0 -1.4,0.6 -2.4,1.3 z"/>
<path d="M 256.6,221.2 c -0.9,0.5 -1.6,2.2 -1.6,3.8 0,2.3 0.5,3.1 2.6,3.6 3.4,0.9 5.9,-1.5 5,-4.9 -0.6,-2.7 -3.5,-3.9 -6,-2.5 z"/>
<path d="M 292.8,221.1 c -1.1,0.6 -1.8,2.2 -1.8,3.9 0,2.4 0.5,3.1 2.7,3.6 4.3,1.1 6.9,-3.8 3.7,-7 -1.8,-1.9 -2.3,-1.9 -4.6,-0.5 z"/>
<path d="M 172.5,230.4 c -1.3,0.9 -1.9,2.6 -1.9,5.1 0,4.2 2.2,6.5 6.4,6.5 4.2,0 6.4,-2.3 6.4,-6.5 0,-4.2 -2.2,-6.5 -6.4,-6.5 -1.4,0 -3.5,0.6 -4.5,1.4 z"/>
<path d="M 196.6,230.3 c -1.3,1 -1.7,2.4 -1.4,5.7 0.3,3.8 0.7,4.6 3.1,5.4 6.5,2.3 12,-4.2 8.3,-9.9 -1.9,-2.8 -6.9,-3.5 -10,-1.2 z"/>
<path d="M 164.2,244.6 c -3.3,2.3 -2.7,7.9 1,10.7 2.3,1.7 3.1,1.8 5.7,0.8 5.2,-2.2 5.9,-9.5 1.2,-12 -2.8,-1.5 -5.3,-1.4 -7.9,0.5 z"/>
<path d="M 205.2,245 c -5.5,5.2 0.4,14.4 7,10.9 3.1,-1.6 3.8,-2.8 3.8,-6.6 0,-5.7 -6.5,-8.3 -10.8,-4.3 z"/>
<path d="M 154.4,261.4 c -1.6,3.2 -1.6,3.6 0,6 4.9,7.5 15.8,1.5 11.5,-6.3 -1.2,-2 -2.4,-2.7 -5.7,-2.9 -3.9,-0.3 -4.3,-0.1 -5.8,3.2 z"/>
<path d="M 212.6,260.2 c -3.3,4.7 -0.4,10.8 4.9,10.8 3,0 7.5,-4.1 7.5,-6.7 0,-3.7 -2.9,-6.3 -7,-6.3 -2.9,0 -4.3,0.6 -5.4,2.2 z"/>
</svg>
