<svg xmlns="http://www.w3.org/2000/svg" viewBox="0 0 384 384">
<path d="M 88.7,31.7 c -0.4,0.3 -0.7,25.3 -0.7,55.5 l 0,54.8 14,0 14,0 0,-39.4 c 0,-21.7 0.3,-40.1 0.6,-41 0.6,-1.4 7.8,-1.6 72,-1.6 l 71.4,0 0.2,56.7 0.3,56.8 14.3,0.3 14.2,0.3 -0.2,-71.3 -0.3,-71.3 -99.6,-0.3 c -54.7,-0.1 -99.9,0.1 -100.2,0.5 z"/>
<path d="M 131.2,91.2 l 0.3,11.3 56.5,0 56.5,0 0,-11 0,-11 -56.8,-0.3 -56.8,-0.2 0.3,11.2 z"/>
<path d="M 132,131.5 l 0,11.5 56.5,0 56.5,0 0,-11.5 0,-11.5 -56.5,0 -56.5,0 0,11.5 z"/>
<path d="M 52.5,158.2 c -0.3,1.3 -0.4,48.4 -0.3,104.8 l 0.3,102.5 135.8,0.3 135.7,0.2 -0.2,-87.7 -0.3,-87.8 -5.4,-0.3 c -3,-0.2 -6.5,-0.1 -7.8,0.3 l -2.3,0.5 0,71.1 0,71 -3.7,-0.3 -3.8,-0.3 -0.3,-71.8 -0.2,-71.7 -50,0 -49.9,0 -5.4,-9.8 c -3,-5.3 -7.1,-12.6 -9,-16.2 l -3.6,-6.5 -64.5,-0.3 -64.6,-0.2 -0.5,2.2 z"/>
</svg>
