<svg xmlns="http://www.w3.org/2000/svg" viewBox="0 0 384 384">
<path d="M 41.8,30.2 l -0.3,9.3 -13.4,0.3 c -13.7,0.3 -16.1,0.9 -16.1,4.3 0,3.1 3.4,3.9 16.9,3.9 l 13.1,0 0,9 0,9 -13.8,0 c -14.3,0 -16.2,0.5 -16.2,4.2 0,2.9 4.2,3.8 17.6,3.8 l 12.4,0 0,9 c 0,8.7 0.1,9 2.5,9.6 1.4,0.3 10.9,0.4 21.2,0.2 17.3,-0.3 19.2,-0.5 23.7,-2.7 2.6,-1.3 6.4,-4 8.3,-5.9 3.6,-3.6 9.3,-14.3 9.3,-17.5 0,-1.3 0.8,-1.7 3.4,-1.7 5.4,0 6,1.6 3.7,10.2 -6.9,25.6 -10.1,39 -10.1,41.9 0,7.7 7.6,13.8 17.1,13.9 l 4.6,0 0.6,4.5 c 0.2,2.5 1.6,6.7 2.9,9.3 2.3,4.6 2.6,4.7 7.4,5 l 5,0.3 2.3,-5.6 c 3.3,-7.8 9.9,-14.8 17.9,-18.7 6.2,-3.1 7.4,-3.3 16.2,-3.2 10.4,0 14.8,1.4 22.7,7.3 7.4,5.4 14.3,18.1 14.3,26.3 l 0,2.8 21.4,0 21.4,0 0.7,-4.9 c 1.6,-11.9 10,-23.1 21.5,-28.5 5.8,-2.8 7.5,-3.1 15.5,-3.1 7.8,0 9.8,0.4 15.2,2.9 10.8,5 19,15.6 21.3,27.6 0.6,2.9 1.2,5.6 1.5,5.8 0.9,0.9 8.3,-3 10.9,-5.7 4.2,-4.4 4.9,-7.7 5.4,-25.7 0.5,-20.4 -0.5,-26.9 -5.1,-32.1 -4.8,-5.4 -7.9,-6.3 -22.4,-6.3 -7,0 -13.3,-0.4 -13.9,-0.8 -0.5,-0.4 -5.9,-9 -11.9,-19.1 -8.5,-14.1 -12.3,-19.5 -16.8,-23.7 -10,-9.3 -21.8,-15.8 -33.8,-18.8 -8.8,-2.2 -59.9,-2.3 -66.9,-0.2 -12.4,3.7 -22.8,11.3 -29.5,21.4 -4.8,7.3 -6.4,12.3 -15.6,48.2 -2.9,11.3 -5.7,21.1 -6.2,21.7 -1.3,1.8 -10.2,1.7 -11.7,-0.2 -0.6,-0.8 -1,-1.8 -0.7,-2.2 0.3,-0.4 3.3,-11.7 6.7,-25 l 6.2,-24.1 -1.8,-3.9 c -2.4,-4.8 -7.3,-8.1 -13.4,-8.9 -4.6,-0.6 -4.8,-0.7 -5.4,-4.5 -1.7,-10.5 -9.5,-21.5 -18.1,-25.5 -4.7,-2.3 -6.1,-2.4 -26.2,-2.4 l -21.2,0 -0.3,9.2 z m 153.7,8.3 c 1.4,1.3 2.5,3 2.4,3.7 0,0.7 -2.4,11.4 -5.3,23.8 l -5.2,22.5 -19.2,0.3 c -17,0.2 -19.2,0.1 -19.2,-1.4 0,-3.1 5.2,-24 7,-28.2 2.1,-4.8 10.7,-14.2 15.7,-17.4 4.4,-2.7 13.8,-5.7 18.1,-5.7 2.2,-0.1 4.1,0.7 5.7,2.4 z m 51.5,0.4 c 9.4,3.2 19.7,9.6 26,16.1 7.2,7.4 22.5,32.6 20.3,33.4 -2.3,0.9 -90.6,0.7 -92,-0.2 -1,-0.6 -0.3,-5.3 3.3,-20.3 5.4,-23.3 7,-27 12.7,-29.9 3.7,-1.9 5.4,-2.1 13.7,-1.7 6.1,0.3 11.8,1.2 16,2.6 z"/>
<path d="M 170.3,130.4 c -7.4,2.4 -13.1,6.5 -16.8,11.9 -1.9,2.8 -3.5,5.7 -3.5,6.4 0,1 2.6,1.3 10.2,1.3 5.6,0 9.9,0.3 9.6,0.6 -0.3,0.3 -19,0.5 -41.5,0.4 -43,-0.1 -46.6,0.3 -47.7,4.3 -0.3,1.2 -0.6,8.8 -0.6,16.9 l 0,14.7 -4.6,3.2 c -2.5,1.7 -6.1,4.5 -8,6.1 l -3.5,3.1 -5.9,-3.7 c -3.3,-2.1 -6.8,-3.6 -7.7,-3.4 -1.7,0.3 -26.3,40 -26.3,42.4 0,0.6 2.9,3 6.5,5.3 5.5,3.4 6.5,4.4 6,6.3 -9.8,43.5 11.5,86.7 52.1,105.4 35.1,16.3 77.5,8.1 104.8,-20 11.4,-11.8 18.8,-25.3 23.2,-42.1 2.3,-9.2 2.5,-11.2 2,-24.5 -0.3,-8 -0.8,-16.1 -1.1,-18 -0.6,-3.4 -0.4,-3.6 5.4,-7.2 3.7,-2.3 6.1,-4.4 6.1,-5.5 0,-2.7 -24.1,-42.3 -25.7,-42.3 -0.8,0 -4.1,1.6 -7.4,3.5 l -6,3.5 -6.6,-5 c -3.6,-2.8 -7,-5 -7.5,-5 -0.5,0 -0.6,-0.5 -0.2,-1.1 0.4,-0.8 0.9,-0.8 1.7,0 3,3 14.8,-1.2 21.1,-7.4 6.3,-6.3 8.7,-12.2 8.8,-21 0,-8.9 -2.6,-15.5 -8.5,-21.3 -7.6,-7.4 -19.6,-10.7 -28.4,-7.8 z m 3.6,23.8 c 0.5,1.3 0.9,8.8 0.8,16.8 l 0,14.5 -0.6,-15.1 c -0.4,-10.6 -1,-15.6 -2,-16.7 -0.9,-1.2 -1,-1.7 -0.2,-1.7 0.6,0 1.5,1 2,2.2 z m -12.1,17.5 c 0.1,5.2 -0.1,9.3 -0.6,9.3 -0.6,0 -0.7,-2.8 -0.5,-6.4 0.3,-3.5 0.3,-7.6 -0.1,-9 -0.5,-2.2 -1.2,-2.6 -4.5,-2.6 -4.9,0 -7.1,0.8 -7.1,2.6 0,3.5 3.5,9.7 6.9,12.1 2.9,2.1 3.1,2.4 1.1,1.8 -22.4,-6.3 -42.2,-6.3 -59.9,-0.1 -2.4,0.9 -4.7,1.3 -5.2,1 -1,-0.6 -1.2,-14.4 -0.3,-16.8 0.6,-1.5 4.3,-1.6 35.3,-1.4 l 34.6,0.3 0.3,9.2 z m -18.3,15.8 c 27.9,5.8 51,26.4 60.8,54.2 2.9,8.4 3.1,9.6 3.1,24.8 0.1,14.1 -0.2,16.9 -2.2,23.5 -5.8,18.1 -15.6,32.2 -30.1,42.9 -8.2,6.1 -14.3,9.1 -25.1,12.6 -7.6,2.5 -10,2.8 -22.5,2.9 -16.8,0 -24.9,-1.9 -39,-9.2 -7.3,-3.8 -10.9,-6.6 -19.1,-14.7 -8.9,-8.9 -10.6,-11.2 -15.3,-20.6 -14.3,-28.9 -11.3,-61.1 8.2,-86.4 18.7,-24.4 50.8,-36.2 81.2,-30 z m -87.7,13.5 c 1.7,1.1 3.2,2.2 3.2,2.5 0,0.3 -2.3,3.3 -5.1,6.7 -2.8,3.5 -7.4,11.1 -10.3,17 l -5.3,10.7 -3.4,-2.1 c -1.9,-1.1 -3.6,-2.2 -3.8,-2.4 -0.6,-0.5 19.8,-34.4 20.7,-34.4 0.4,0 2.2,0.9 4,2 z m 156.4,14.6 c 5.4,8.7 9.7,16.5 9.5,17.2 -0.1,0.7 -1.6,2.2 -3.4,3.3 l -3.1,2 -5,-10.3 c -2.7,-5.7 -7.4,-13.5 -10.5,-17.5 l -5.6,-7.2 3.2,-2 c 1.8,-1.1 3.7,-1.9 4.2,-1.8 0.6,0.2 5.4,7.5 10.7,16.3 z"/>
<path d="M 124.6,190.5 c -0.9,2.4 -0.7,8.8 0.3,10.4 0.5,0.8 1.6,1.1 2.5,0.8 2.4,-0.9 1.9,-12 -0.5,-12.5 -0.9,-0.2 -1.9,0.4 -2.3,1.3 z"/>
<path d="M 122.6,214.2 c -1.4,1.9 -1.6,6.4 -1.6,28.5 0,25 0.1,26.4 2,28.3 1.9,1.9 3.3,2 22.5,2 19.2,0 20.6,-0.1 22.5,-2 2.5,-2.5 2.5,-4.2 0.3,-6.9 -1.7,-2 -2.9,-2.1 -18.8,-2.3 l -17,-0.3 -0.3,-22.9 c -0.2,-19.6 -0.5,-23.2 -1.9,-24.8 -2.2,-2.5 -5.9,-2.3 -7.7,0.4 z"/>
<path d="M 50,265.5 c -2.5,3 -0.4,4.6 5.2,4.3 4.2,-0.2 5.4,-0.7 5.6,-2.2 0.2,-1 -0.2,-2.2 -1,-2.7 -2.1,-1.4 -8.5,-1 -9.8,0.6 z"/>
<path d="M 193,265.5 c -2.4,2.9 -0.4,4.5 5.4,4.5 4.2,0 5.5,-0.4 6,-1.7 0.5,-1.1 0.1,-2.2 -1,-3 -2.4,-1.8 -8.9,-1.6 -10.4,0.2 z"/>
<path d="M 124.4,334.4 c -0.3,0.7 -0.4,3.3 -0.2,5.7 0.2,3.7 0.7,4.5 2.6,4.7 2.1,0.3 2.2,0 2.2,-5.7 0,-5.5 -0.2,-6.1 -2,-6.1 -1.1,0 -2.3,0.6 -2.6,1.4 z"/>
<path d="M 289.4,129.9 c -10.2,2.6 -19,10.4 -22,19.5 -2.2,6.5 -1.5,17.6 1.4,23.3 2.9,5.7 7.9,10.5 13.8,13.4 7.2,3.5 18.9,3.4 26,-0.3 18.2,-9.5 21.9,-33.3 7.6,-47.6 -6.8,-6.8 -18.5,-10.4 -26.8,-8.3 z"/>
</svg>
