<svg xmlns="http://www.w3.org/2000/svg" viewBox="0 0 384 384">
<path d="M 183.7,5.4 c -5.9,2.2 -10.3,6.1 -13.1,11.8 l -2.6,5.2 0,27.3 0,27.3 -8.4,0 c -7.6,0 -8.7,0.3 -11.5,2.6 -6.6,5.5 -6,15.5 1.1,19.2 1.8,0.9 11.9,10.1 22.4,20.4 10.5,10.4 19.7,18.8 20.4,18.8 0.7,0 9.9,-8.4 20.4,-18.8 10.5,-10.3 20.6,-19.5 22.4,-20.4 7.1,-3.7 7.7,-13.7 1.1,-19.2 -2.7,-2.3 -3.9,-2.6 -11.4,-2.6 l -8.4,0 -0.3,-28.3 -0.3,-28.4 -3,-4.9 c -4.2,-6.8 -10.5,-10.5 -18.7,-11 -3.9,-0.3 -7.7,0.1 -10.1,1 z"/>
<path d="M 84.4,79.4 c -5.7,2.7 -10.6,8 -12.2,13.4 -0.6,2 -6.8,38 -13.7,80 l -12.6,76.3 0.3,38.7 c 0.3,34.3 0.5,39.1 2,41.8 3.1,5.7 7.1,9.7 12.3,12 l 5,2.4 126.5,0 126.5,0 5,-2.4 c 5.2,-2.3 9.2,-6.3 12.3,-12 1.5,-2.7 1.7,-7.5 2,-41.8 l 0.3,-38.7 -12.6,-76.3 c -6.9,-42 -13.1,-78 -13.7,-80 -1.6,-5.4 -6.5,-10.7 -12.2,-13.4 -4.8,-2.2 -6.2,-2.4 -24.5,-2.4 l -19.4,0 4.7,5 c 2.5,2.7 4.6,5.9 4.6,7 0,1.1 -2.1,4.3 -4.6,7 l -4.7,5 6.1,0 c 11.2,0 20.2,5.1 24.7,13.9 2.1,4.1 14.5,101.4 14.5,113.9 0,9.3 -1.6,14.4 -5.2,16.3 -1.2,0.7 -5.1,1.6 -8.6,2 -12.9,1.4 -20.7,9.6 -22.2,23.3 -1.3,11.5 -6.6,19.4 -15.2,23 -5.6,2.4 -110,2.4 -115.6,0 -8.6,-3.6 -13.9,-11.5 -15.2,-23 -1.5,-13.7 -9.3,-21.9 -22.2,-23.3 -11.5,-1.3 -13.8,-4.2 -13.8,-17.8 0,-12.8 12.4,-110.2 14.5,-114.4 4.5,-8.8 13.5,-13.9 24.7,-13.9 l 6.1,0 -4.7,-5 c -2.5,-2.7 -4.6,-5.9 -4.6,-7 0,-1.1 2.1,-4.3 4.6,-7 l 4.7,-5 -19.4,0 c -18.3,0 -19.7,0.2 -24.5,2.4 z"/>
<path d="M 124.9,151.5 c -1.5,0.8 -3.4,3.1 -4.4,5.1 -2.3,4.9 -1.4,9.9 2.5,13.9 l 3,3 66,0 66,0 3,-3 c 3.9,-4 4.8,-9 2.5,-13.9 -3,-6.3 -4.4,-6.6 -32.1,-6.6 l -24.7,0 -6.3,6 c -3.7,3.6 -7.1,6 -8.4,6 -1.3,0 -4.7,-2.4 -8.4,-6 l -6.3,-6 -24.9,0 c -19.6,0.1 -25.5,0.4 -27.5,1.5 z"/>
<path d="M 114.5,199.4 c -6.9,3.1 -9.5,11.1 -5.5,17.4 4,6.4 1.4,6.2 83,6.2 81.6,0 79,0.2 83,-6.2 2.5,-4 2.2,-10.8 -0.6,-14 -4.4,-4.9 -3.4,-4.8 -82.6,-4.8 -59.4,0.1 -74.9,0.3 -77.3,1.4 z"/>
</svg>
