<svg xmlns="http://www.w3.org/2000/svg" viewBox="0 0 384 384">
<path d="M 310,48.9 c -1.2,2.4 -1.4,69 -0.1,71 1.3,2.1 7.3,2.7 24.6,2.6 10.2,-0.1 16.9,-0.6 18.3,-1.4 l 2.2,-1.2 0,-34.9 c 0,-30.4 -0.2,-35.1 -1.6,-36.4 -1.3,-1.4 -4.7,-1.6 -21.9,-1.6 -19.2,0 -20.5,0.1 -21.5,1.9 z"/>
<path d="M 264.2,53 c -5.9,3.6 -6.8,10.1 -2.3,17.2 3.5,5.6 3.2,5.8 -7.5,5.8 -9.2,0 -12.2,1.4 -16.1,7.7 -1.7,2.6 -10.6,16.9 -19.8,31.8 -9.2,14.8 -20,32.2 -24,38.5 l -7.1,11.5 -17,0.5 c -21.3,0.6 -23.4,1.6 -23.4,11.2 0,9.8 4.4,11.8 25.4,11.8 15.1,0 15.6,0.1 16.7,2.2 0.7,1.3 10.9,17.8 22.7,36.8 11.8,19 23,37.2 25.1,40.4 5.3,8.6 6.9,9.5 18.4,10.3 5.3,0.3 9.7,0.9 9.7,1.3 0,0.4 -0.7,1.3 -1.6,2.1 -2.4,1.9 -4.4,6.5 -4.4,9.8 0,6.8 4.6,11.1 12.1,11.1 3.7,0 4.8,-0.5 8.3,-4.3 6.5,-6.7 20.5,-25.9 21.1,-29 0.4,-1.5 0.4,-3.9 0,-5.5 -0.6,-3 -14.6,-22.2 -21.1,-28.9 -3.7,-3.9 -4.5,-4.3 -8.8,-4.3 -4.1,0 -5.3,0.5 -8.2,3.4 -2.6,2.6 -3.4,4.2 -3.4,7 0,4 1.9,8.4 4.4,10.5 2.7,2.2 1.8,3.1 -2.9,3.1 l -4.6,0 -4.5,-7.3 c -32.1,-51.3 -35.8,-57.6 -35.2,-58.3 0.3,-0.2 11.3,-0.3 24.6,-0.2 l 24.1,0.3 -3,4.5 c -4.1,6 -3.7,12 1,16.2 3.9,3.4 10.5,3.9 14.2,0.9 4.7,-3.6 23,-28.8 23.5,-32.3 0.8,-4.6 -0.3,-6.8 -9.6,-19.3 -12.4,-16.8 -14.3,-18.5 -19.6,-18.5 -11.5,0 -16.1,9.5 -9.2,18.9 2.5,3.5 2.8,4.5 1.7,5.2 -2,1.2 -46.6,1.2 -47.4,-0.1 -0.4,-0.6 4.2,-8.8 10.1,-18.3 5.8,-9.4 14.9,-24.1 20.1,-32.5 l 9.5,-15.2 4.4,0 c 2.4,0 4.4,0.2 4.4,0.5 0,0.2 -1.3,2.6 -3,5.2 -3.4,5.3 -3.7,8.9 -1.4,13.4 1.5,3 6.5,5.9 10.1,5.9 4.2,0 8.7,-4.1 18.1,-16.6 12.3,-16.1 13.7,-18.6 12.3,-22.4 -1.6,-4.6 -21.8,-30.8 -25.1,-32.5 -4,-2 -7.9,-1.9 -11.8,0.5 z"/>
<path d="M 68.5,105.5 c -4.4,0.7 -11.5,1.6 -15.7,1.9 -13.1,1.3 -11.9,-4 -12.5,53.9 l -0.6,49.7 2.3,2.5 c 1.3,1.4 2.2,2.7 1.9,2.9 -0.2,0.2 -3.9,0.9 -8.3,1.5 -4.3,0.6 -8.2,1.4 -8.7,1.7 -0.5,0.3 -0.9,2.2 -0.9,4.3 0,3.3 0.5,4 3.4,5.6 3.6,1.9 4.1,1.9 24.1,-0.9 l 10,-1.4 6.7,3.7 c 3.8,2 6.6,4 6.5,4.6 -0.2,0.5 -2.6,1.3 -5.3,1.7 -9.2,1.3 -9.4,1.4 -9.4,5.7 0,4.6 2.9,7.1 8.2,7.1 3.1,0 27.1,-3 39.3,-5 3.3,-0.5 13,-1.9 21.5,-3 21.7,-2.9 20,-2.3 20,-7 0,-3.2 -0.5,-4.3 -2.7,-5.7 -1.5,-1 -4.3,-1.8 -6.3,-1.8 l -3.5,0 -0.5,-47.5 c -0.3,-29 -0.9,-48.1 -1.5,-49.1 -0.5,-0.9 -11.6,-7.3 -24.6,-14.3 -26.5,-14.2 -25.5,-13.9 -43.4,-11.1 z"/>
<path d="M 313,139.7 c -3.9,1.4 -4,2.7 -4,37.9 l 0,34.3 2.2,1.5 c 3.3,2.4 39.9,2.3 42.2,0 1.4,-1.3 1.6,-6 1.6,-36.4 l 0,-34.9 -2.2,-1.5 c -1.8,-1.3 -5.5,-1.6 -20.3,-1.5 -9.9,0 -18.7,0.3 -19.5,0.6 z"/>
<path d="M 311.3,233.5 l -2.3,1.6 0,34.5 c 0,33.1 0.1,34.5 2,36.4 1.9,1.9 3.3,2 20.8,2 15.4,0 19.2,-0.3 21,-1.6 l 2.2,-1.5 0,-34.7 c 0,-20.1 -0.4,-35.3 -1,-36.2 -1.4,-2.3 -39.5,-2.8 -42.7,-0.5 z"/>
</svg>
