<svg xmlns="http://www.w3.org/2000/svg" viewBox="0 0 384 384">
<path d="M 112.6,16.4 c -11.1,4.1 -19.8,13.6 -29.2,32.1 -8.5,16.6 -14.3,26 -16.7,27 -2.8,1.3 -11.1,13.5 -13.7,20.3 -3.4,8.9 -2.5,14.3 4,23.7 l 3.1,4.6 -2.5,4.3 c -1.3,2.3 -6.6,9.4 -11.6,15.7 -14.7,18.3 -20,31.9 -20,51.5 0,12.8 1.2,18.9 5.7,28.3 2.5,5.3 5.5,9.4 10.6,14.6 11.3,11.3 24.1,16.5 40.8,16.5 35.3,0 68.6,-29.6 75,-66.7 1.6,-9.2 2.3,-10.3 6.4,-10.3 9.5,0 15.5,-16.1 10.9,-29.7 -4.2,-12.6 -14.6,-14 -19.4,-2.7 l -1.9,4.4 -2.5,-2.5 c -4.9,-4.9 -10.5,-2.3 -12.6,5.6 -2.6,9.5 1.8,18.5 8.5,17.7 2.9,-0.3 3.5,-0.1 3.5,1.4 0,1 -0.5,2.7 -1.2,3.8 -0.9,1.5 -0.9,2.4 0.1,4.3 1.1,2.1 1.1,3.8 -0.3,10.3 -6.9,34.2 -41.5,60.8 -73.4,56.5 -26.4,-3.6 -44.9,-27.5 -42.9,-55.5 1.1,-15.9 6.7,-27.3 24,-49.3 11.8,-15 11.3,-14.7 19,-13.9 7.9,0.9 18.8,-1.3 25.9,-5.1 6.5,-3.5 19.8,-16.3 19.8,-19 0,-2.7 7.2,-9.3 19.5,-17.8 12.8,-8.9 24.7,-20.2 27.5,-26.2 1.5,-3.2 2.1,-6.6 2.2,-11.3 0.1,-8.1 -1.3,-10.7 -9.6,-19 l -5.6,-5.4 -3,2.9 c -4.4,4.3 -2.8,8.5 3.4,8.5 1.9,0 4,1.2 6.3,3.5 3.4,3.4 3.6,3.8 3,9.3 -0.6,7.5 -4.3,14.6 -10.4,20.2 -5.2,4.9 -35,27.7 -38.9,29.8 -1.3,0.7 -4.3,3.6 -6.6,6.4 -9.2,11 -13.3,13.9 -23.1,15.7 -10,1.8 -20,-1.4 -24.7,-7.9 -1.4,-2 -2,-4.4 -2,-8.5 0,-6.6 0.6,-7.9 7.6,-16.2 3,-3.5 5.4,-7.3 5.4,-8.4 0,-2.6 17.6,-35.1 23.6,-43.6 4.9,-6.9 11.2,-12.5 16.7,-14.8 4.8,-2 13.1,-2 14.7,0 0.7,0.9 2.8,2.3 4.6,3.1 4.7,2.2 6.6,0.6 6.2,-5 l -0.3,-4.1 -11,-0.2 c -7.6,-0.2 -12.2,0.2 -14.9,1.1 z m 57.3,128 c 4.2,3.3 5.5,17 2.3,23.6 -5.4,11 -16.2,4.3 -16.2,-10.1 0,-11.5 7.4,-18.7 13.9,-13.5 z"/>
<path d="M 163.4,157.1 c -1,1.7 1.3,3.6 2.7,2.2 1.2,-1.2 0.4,-3.3 -1.1,-3.3 -0.5,0 -1.2,0.5 -1.6,1.1 z"/>
<path d="M 303.5,204.6 c -16.8,3.5 -29.9,10.9 -39.4,22.3 l -4.2,4.9 5.2,4.4 c 5,4.2 14.6,16.2 18.3,22.9 l 1.9,3.4 1.3,-3.7 c 4.2,-12 14.1,-19 26.9,-19.1 11.8,0 20.4,5.2 25.5,15.7 3,6 3.2,7.2 2.8,13.4 -0.6,7.7 -2.5,12.1 -7.7,17.5 -6.2,6.6 -10.2,8.2 -21.1,8.3 l -9.5,0.1 -4.9,13.2 c -4.8,13.2 -4.9,13.3 -7.7,12.7 -2.2,-0.4 -2.9,-0.1 -3.4,1.5 -0.9,2.9 0.1,3.6 8.1,6 9.2,2.7 26.3,3 34.9,0.5 49.5,-14.4 63.8,-74.6 25.8,-108.5 -11.4,-10.2 -27.5,-16.2 -42.7,-16 -4.5,0.1 -9,0.3 -10.1,0.5 z"/>
<path d="M 186.5,221.5 c -44.3,9.6 -71.9,53 -61.1,95.8 7.3,28.6 29.4,50.8 58.1,58.4 8.7,2.2 30.2,2.5 38.4,0.4 24.6,-6.3 43.7,-21.6 54.2,-43.6 5,-10.4 6.9,-17.8 7.6,-29.5 2.3,-38.6 -24.8,-73.5 -63.2,-81.5 -8.9,-1.8 -25.7,-1.8 -34,0 z m 31.6,45.7 c 20.2,9.4 27,33.3 14.6,51.4 -7.3,10.7 -21.8,16.8 -34.6,14.6 -3.6,-0.6 -6.7,-0.9 -6.9,-0.7 -0.2,0.1 -3,7.6 -6.3,16.6 -3.3,9 -6.2,16.5 -6.5,16.8 -0.2,0.3 -3,-0.4 -6.1,-1.4 -6.2,-2.1 -16.9,-9.3 -22.2,-14.9 -4.2,-4.3 -4.9,-3.4 12.3,-17.1 6.9,-5.5 12.5,-10.4 12.5,-10.9 0.1,-0.5 -1.4,-3.8 -3.1,-7.4 -5.9,-12 -4.7,-25.1 3.2,-36 3.7,-5.2 8.6,-8.8 15.7,-11.8 8,-3.4 19.3,-3 27.4,0.8 z"/>
<path d="M 198.9,271.1 c -8.6,1.3 -17.2,7.6 -21.5,15.9 -2.8,5.4 -2.6,18.1 0.4,24.2 1.3,2.7 2.9,4.8 3.4,4.8 0.6,0 3.1,-1.6 5.4,-3.6 4.3,-3.5 4.4,-3.6 2.9,-6.4 -2,-4 -1.9,-10.8 0.4,-15 2.1,-4 8.9,-8 13.5,-8 5,0.1 11.1,3.4 13.6,7.4 1.8,3.1 2.2,4.7 1.8,9.7 -0.3,4.8 -1,6.5 -3.3,8.9 -3.5,3.6 -9.8,6.2 -14.3,5.8 -3.2,-0.3 -3.5,0 -5.3,4.6 -1.5,3.6 -1.7,5.2 -0.9,6 0.6,0.6 4.6,1.1 8.8,1.1 11.3,0 19.1,-4.5 25,-14.5 2.4,-3.9 2.7,-5.6 2.7,-13 0,-6.8 -0.5,-9.3 -2.2,-12.6 -5.9,-11.2 -17.9,-17.2 -30.4,-15.3 z"/>
<path d="M 303.5,244.7 c -8.1,4.2 -12.5,11.3 -12.5,20 0,5.6 2.9,14.3 4.7,14.3 0.5,0 2.4,-1.3 4.3,-2.9 3.2,-2.6 3.4,-3 2.2,-5.5 -6.3,-13.8 12.2,-25.1 21.4,-13 2.3,2.9 2.6,4.1 2.2,8.4 -0.4,3.4 -1.3,5.9 -2.8,7.5 -2.7,2.8 -8.3,4.7 -11.6,3.9 -1.8,-0.5 -2.4,0.1 -3.8,3.7 -2.2,5.4 -1.2,6.4 6.2,6.3 12.8,-0.1 22.2,-9.6 22.2,-22.4 0,-9 -4.2,-16 -12.2,-20.1 -4.7,-2.4 -15.9,-2.5 -20.3,-0.2 z"/>
</svg>
