<svg xmlns="http://www.w3.org/2000/svg" viewBox="0 0 384 384">
<path d="M 91.3,60 c -5.2,1.2 -11.5,6.6 -14.1,12 -1.5,3.1 -1.7,8.4 -1.7,49 l 0,45.5 9,0 9,0 0.3,-42.9 c 0.1,-29.7 0.6,-43.3 1.3,-44.3 0.9,-1.1 12.3,-1.3 61.3,-1.3 l 60.2,0 6.9,-7 c 3.8,-3.9 7.3,-7 7.6,-7 0.4,0 3.2,2.6 6.2,5.7 l 5.5,5.7 6.5,-3.2 c 3.5,-1.8 7.2,-3.2 8.1,-3.2 1.4,0 1.7,-0.8 1.4,-4.8 l -0.3,-4.7 -82,-0.2 c -45.1,0 -83.5,0.2 -85.2,0.7 z"/>
<path d="M 306.2,64.4 c 0.3,3.4 0.7,3.9 4.3,5.2 4.6,1.6 5.5,1.7 5.5,0.6 0,-1.2 -4.3,-5.7 -7.3,-7.7 l -2.8,-1.8 0.3,3.7 z"/>
<path d="M 266.8,67.6 c -0.3,6.1 -0.5,6.3 -7.3,8.4 -2.2,0.7 -7.1,2.8 -10.9,4.6 l -7,3.5 -5.1,-5.1 -5,-5 -10.8,10.8 c -5.9,5.9 -10.7,11 -10.7,11.4 0,0.4 2.1,2.7 4.7,5.1 l 4.7,4.5 -3.8,8.1 c -2.1,4.5 -4.4,10.3 -5,12.9 l -1.2,4.7 -7.2,0.3 -7.3,0.3 0.3,15.7 0.3,15.7 7.3,0.3 c 6.2,0.2 7.2,0.5 7.2,2.1 0,2.3 3.5,10.9 7.2,17.7 l 2.7,5.1 -4.4,4.3 c -2.5,2.4 -4.5,4.9 -4.5,5.5 0,0.6 4.7,5.7 10.5,11.5 l 10.5,10.4 4.9,-4.8 4.9,-4.9 7.4,3.6 c 4,1.9 9.7,4.2 12.6,5.2 l 5.2,1.7 0,5.9 0,6 15.3,-0.3 15.2,-0.3 0.3,-5.7 0.3,-5.7 6.7,-2 c 3.7,-1.1 9.4,-3.4 12.6,-5.1 6.5,-3.3 6.6,-3.2 11.6,2.2 1.3,1.6 3.1,2.8 3.8,2.8 0.8,0 6.2,-4.8 11.9,-10.6 l 10.5,-10.6 -4.3,-4.4 -4.4,-4.4 3.8,-7.4 c 2,-4 3.7,-7.7 3.7,-8.2 0,-0.4 0.7,-2.8 1.6,-5.1 l 1.7,-4.3 6.3,0 6.4,0 0,-16 0,-16 -6.3,0 -6.2,0 -1.9,-6.3 c -1.1,-3.4 -3.6,-9.2 -5.5,-13 l -3.5,-6.7 4.9,-5 4.9,-5 -10.4,-10.5 c -5.8,-5.8 -11.2,-10.5 -12.1,-10.5 -0.9,0 -3.5,2 -5.8,4.5 l -4.2,4.5 -4.4,-2.5 c -2.4,-1.4 -5.6,-3 -7.2,-3.5 -1.5,-0.5 -5.3,-1.8 -8.3,-2.8 l -5.5,-1.9 -0.5,-5.4 -0.5,-5.4 -15.2,-0.3 -15.2,-0.3 -0.3,5.7 z m 25.3,27.5 c 8.3,1.3 20.6,7.1 26.5,12.6 12.3,11.3 17.9,24.4 17.7,40.8 -0.3,22.7 -14.8,42 -36.6,48.9 -28.1,8.9 -55.7,-4.4 -67,-32.4 -2.4,-6 -3.3,-20.2 -1.7,-28.2 4,-20.8 20.5,-37.2 41.5,-41.4 7.8,-1.6 11.2,-1.6 19.6,-0.3 z"/>
<path d="M 266,110.7 c -3,1.6 -7,3.9 -8.8,5.1 -3.2,2.4 -11.2,12.3 -11.2,14 0,0.5 -0.7,2.3 -1.5,4 -2.3,4.5 -2.2,21.3 0.1,27.2 7.2,18.4 26.7,29.7 44.7,26 15.9,-3.3 28.1,-14 32.4,-28.3 2.4,-8.1 1.5,-20.8 -2.1,-28.1 -3.5,-7.3 -11.4,-15.4 -18.7,-19.2 -4.9,-2.6 -6.5,-2.8 -17.4,-3.1 -11.4,-0.3 -12.3,-0.2 -17.5,2.4 z m 24.2,10.9 c 19.8,5.6 26.4,30.2 11.8,44.4 -21.9,21.3 -57.4,-3.5 -43.5,-30.5 3.5,-6.9 8.4,-11.1 15.7,-13.6 6.6,-2.3 8.7,-2.3 16,-0.3 z"/>
<path d="M 276.5,134.7 c -8,4.3 -10.5,11.9 -6.5,19.2 2.7,4.7 7,7.1 12.6,7.1 8.5,0 14.4,-5.5 14.4,-13.6 0,-10.2 -11.7,-17.5 -20.5,-12.7 z"/>
<path d="M 22.9,171 l -3,3 0.3,16.1 c 0.3,15.5 0.4,16.1 2.7,18 2.2,1.8 4.7,1.9 59.6,1.9 l 57.3,0 3.1,-2.6 c 2.5,-2.1 3.1,-3.3 3.1,-6.5 l 0,-3.9 7,0 7,0 0,11 c 0,6 0.1,11.3 0.3,11.6 0.1,0.4 -16.9,4.9 -37.8,10.1 -20.9,5.2 -38.4,9.8 -38.8,10.3 -0.5,0.4 -1,9.7 -1,20.6 l -0.2,19.8 -3,0.8 c -6.4,1.7 -6.5,2 -6.5,36.6 0,32.8 0.4,36 4.5,37.6 0.9,0.3 6.1,0.6 11.5,0.6 l 9.9,0 2.5,-3.3 2.6,-3.4 0,-31.1 0,-31 -2.5,-3 c -1.4,-1.6 -3.6,-3.3 -5,-3.6 -2.5,-0.6 -2.5,-0.7 -2.5,-11.9 l 0,-11.2 31.7,0.5 31.8,0.5 0,20.5 0,20.5 -17.6,0.5 c -17.4,0.5 -17.6,0.5 -21.2,3.3 -4.3,3.3 -7.7,9.3 -7.7,13.7 l 0,3 89.1,0 89.2,0 -0.7,-4.3 c -0.9,-5.4 -4.6,-11 -8.8,-13.3 -2.7,-1.5 -6.3,-2 -18.8,-2.4 l -15.5,-0.5 -0.3,-20.7 -0.2,-20.7 29.8,-0.3 29.8,-0.3 4.8,-3.5 c 7.2,-5.1 9,-9.3 9.5,-21.9 0.3,-9.8 0.2,-10.4 -1.5,-9.7 -1.1,0.5 -3.2,1.2 -4.9,1.8 -7.3,2.4 -7.5,2.6 -7.5,9.4 l 0,6.2 -85.2,-0.1 -85.3,-0.2 -19.7,4.9 -19.7,5 -0.4,3.5 -0.4,3.6 -0.1,-3.8 c -0.2,-2.8 0.2,-3.9 1.6,-4.3 0.9,-0.3 2.6,-1 3.7,-1.4 1.1,-0.5 4,-1.2 6.5,-1.6 2.5,-0.3 5,-1 5.5,-1.4 0.6,-0.4 3.2,-1.1 5.9,-1.5 2.7,-0.3 5.6,-1 6.5,-1.5 0.9,-0.4 10.4,-2.9 21.1,-5.5 10.7,-2.5 21.2,-5.1 23.3,-5.6 l 3.7,-1 0,-24.9 0,-25 -13,0 c -12.5,0 -13,-0.1 -13,-2.1 0,-3.1 -1.7,-5.7 -5,-7.4 -2.5,-1.3 -10.9,-1.5 -59,-1.5 l -56.2,0 -2.9,3 z m 114.9,7.7 l 0.3,2.3 -52.3,0.2 -52.3,0.3 -0.3,10.3 -0.3,10.3 -2.7,-0.3 -2.7,-0.3 -0.3,-11.4 c -0.1,-6.3 0,-12.1 0.2,-12.8 0.4,-1.1 10.7,-1.3 55.3,-1.1 l 54.8,0.3 0.3,2.2 z"/>
<path d="M 75.7,177.7 c -1.9,1.8 0.1,2.3 8.8,2.3 7.8,0 9.5,-0.3 9.5,-1.5 0,-1.2 -1.6,-1.5 -8.8,-1.5 -4.9,0 -9.2,0.3 -9.5,0.7 z"/>
<path d="M 75,226.2 c 0,11.8 0.4,15 1.9,18.4 2.8,6.2 4.1,6.4 4.1,0.6 0,-4.2 0.4,-5.2 2.5,-6.6 1.3,-0.9 3.4,-1.6 4.5,-1.6 1.2,0 3,-0.5 4.1,-1 1.7,-1 1.9,-2.2 1.9,-12.5 l 0,-11.5 -9.5,0 -9.5,0 0,14.2 z"/>
</svg>
