<svg xmlns="http://www.w3.org/2000/svg" viewBox="0 0 384 384">
<path d="M 69.5,41 c -14.3,1.6 -27.5,11.9 -32.9,25.7 l -2.7,6.8 0.3,120 0.3,120 3.2,6.7 c 4.1,8.6 10.9,15.5 19.8,19.9 l 7,3.4 68.8,0.3 68.9,0.2 -0.6,-2.2 c -0.4,-1.3 -1.9,-7.1 -3.4,-12.9 l -2.6,-10.6 -62.8,-0.6 c -40.2,-0.5 -63.6,-1.1 -65,-1.8 -1.3,-0.5 -3.5,-2.6 -4.8,-4.6 l -2.5,-3.7 0,-115.6 c 0,-109.7 0.1,-115.7 1.8,-118.3 1,-1.6 3.2,-3.7 5,-4.7 3.1,-1.9 6,-2 125.1,-2 l 121.9,0 3.4,2.1 c 6.6,4.1 6.3,1.2 6.3,71.7 l 0,63.9 4.3,1.2 c 2.3,0.7 8,3 12.6,5.2 4.6,2.2 8.7,3.7 9,3.3 1,-1 1.2,-72.9 0.4,-109.9 -0.9,-34.7 -0.9,-35 -3.5,-40.6 -3.6,-8 -12,-16 -21.2,-20.3 l -7.6,-3.6 -121.2,0.1 c -66.7,0.1 -124,0.5 -127.3,0.9 z"/>
<path d="M 97.1,107 c -1.8,0.4 -4.8,2.2 -6.5,3.9 -3,3.1 -3.1,3.4 -3.4,14 -0.4,12.4 0.6,15.6 6.1,19 2.8,1.7 5,2.1 12.7,2.1 10.8,0 14.9,-1.5 18.1,-6.6 1.8,-3 2,-4.6 1.7,-14.4 -0.3,-10.8 -0.3,-11 -3.5,-14.2 -2.6,-2.6 -4.4,-3.3 -9,-3.9 -7.4,-0.9 -11.9,-0.9 -16.2,0.1 z"/>
<path d="M 177,107.9 c -9.1,0.3 -17.3,1 -18.2,1.5 -1,0.4 -2.7,2.3 -3.8,4.1 -1.7,2.7 -2,4.9 -2,13.6 0,9 0.3,10.7 2.2,13.5 4.2,6.1 1.5,5.9 69.2,5.9 34.2,0 63.3,-0.3 64.8,-0.8 1.5,-0.4 3.9,-2.3 5.4,-4.3 2.4,-3.1 2.8,-4.8 3.2,-11.7 0.5,-10.7 -0.9,-15.9 -5.3,-19.3 l -3.5,-2.6 -47.7,-0.3 c -26.3,-0.1 -55.2,0 -64.3,0.4 z"/>
<path d="M 96.9,173.9 c -8.1,2.5 -9.9,6.1 -9.9,20.4 l 0,10.5 3.9,3.5 c 4.5,4.1 11.2,5.4 20.8,4.2 11.7,-1.4 14.3,-5 14.3,-19.5 0,-11.5 -1.5,-15.1 -7.4,-18 -4.4,-2.1 -16.2,-2.7 -21.7,-1.1 z"/>
<path d="M 159.8,175.1 c -5.6,2.9 -6.8,6.1 -6.8,18.1 0,8.3 0.4,10.8 1.9,13.1 3.7,5.7 2.3,5.5 49.8,6.3 l 44,0.7 7.4,-3.1 c 10.4,-4.3 17.4,-6.1 30.2,-8 l 11.2,-1.7 0.3,-7.8 c 0.3,-9.3 -1.4,-13.6 -6.7,-17.3 l -3.6,-2.4 -62,0 c -59.7,0.1 -62.1,0.2 -65.7,2.1 z"/>
<path d="M 282.7,228.5 c -8.3,1.7 -20.3,6.8 -27.9,11.9 -8.8,5.8 -19.8,18.1 -24.8,27.8 -15.8,30.4 -10.3,65.7 14,89.8 25.3,25.1 62.3,29.4 93.8,10.9 3.1,-1.9 9.3,-7 13.7,-11.4 9,-9 14.8,-18.4 19.1,-31 2.5,-7.3 2.8,-9.3 2.8,-22.5 0.1,-13.7 -0.1,-15 -3.1,-23.6 -4.6,-13.3 -10.3,-22.2 -20.5,-31.9 -6.7,-6.4 -10.7,-9.2 -18,-12.8 -5.1,-2.6 -12,-5.4 -15.3,-6.2 -8.4,-2.3 -25.4,-2.8 -33.8,-1 z m 25.9,30.8 c 6.8,6.2 5.2,16.2 -3.2,20.2 -13,6.1 -24.3,-11.7 -13.3,-20.9 2.4,-2 4.2,-2.6 8,-2.6 4.2,0 5.5,0.5 8.5,3.3 z m 3.2,61.5 l 0.2,28.3 -11.7,-0.3 -11.8,-0.3 -0.5,-23.5 -0.5,-23.5 -6.2,-0.3 -6.3,-0.3 0,-3.8 c 0,-2.1 0.3,-4.1 0.7,-4.5 0.4,-0.3 8.6,-0.5 18.2,-0.4 l 17.6,0.3 0.3,28.3 z"/>
<path d="M 167.1,239.7 c -11.6,0.7 -14.1,4.2 -14.1,19.8 0,10.5 0,10.5 3.3,14.1 4.2,4.6 7.8,5.3 26.3,5.4 l 15.1,0 2.8,-7.8 c 3.3,-9.4 6.4,-15.6 12,-24.3 l 4.3,-6.6 -6.7,-0.7 c -6.6,-0.6 -31,-0.5 -43,0.1 z"/>
<path d="M 91.1,243.1 c -4,3.9 -4.4,5.7 -3.9,17.9 l 0.3,10.2 3.6,3.2 c 4.3,4 9.8,5.1 20.4,4.1 6.6,-0.7 7.6,-1.1 10.7,-4.2 3.3,-3.4 3.3,-3.5 3.6,-13.9 0.4,-11.8 -0.5,-15.3 -4.8,-18.4 -2.4,-1.7 -4.5,-2 -14.8,-2 l -12,0 -3.1,3.1 z"/>
</svg>
