<svg xmlns="http://www.w3.org/2000/svg" viewBox="0 0 384 384">
<path d="M 109.4,92.4 c -1.8,0.8 -3.5,1.9 -3.8,2.5 -0.5,0.8 -10.8,1.1 -33.7,1.1 l -33,0 0.3,9.7 0.3,9.8 33.2,0.3 c 31.8,0.2 33.3,0.3 34.3,2.2 0.7,1.2 0.9,10.9 0.8,26.7 l -0.3,24.8 -28.1,0.5 c -30.3,0.5 -30.1,0.5 -33,6.1 -1.1,2.3 -1.4,10.6 -1.4,47.4 0,44.1 0,44.5 -2,44.5 -1.1,0 -2.3,0.7 -2.6,1.5 -1,2.5 2.9,8.7 6.6,10.7 3.3,1.7 7.4,1.8 68.8,1.8 71.6,0 68.8,0.2 73.2,-6 2.7,-3.8 2.3,-7.4 -0.7,-7.8 l -2.3,-0.3 0,-45.5 0,-45.4 -2.9,-3.2 -2.9,-3.3 -28.4,-0.5 -28.3,-0.5 -0.3,-24.9 c -0.2,-22.1 0,-25.1 1.4,-26.8 1.6,-1.7 5.1,-1.8 80.4,-1.8 59.8,0 78.9,0.3 79.8,1.2 0.9,0.9 1.2,8.3 1.2,27 l 0,25.8 -26.7,0 c -29.4,0 -30.1,0.2 -34,5.9 l -2.3,3.4 0,44.2 c 0,43.4 0,44.3 -2,44.8 -2.7,0.7 -2.6,4.7 0.2,8.2 4.4,5.6 3.2,5.5 74.1,5.5 l 65.4,0 3.7,-3.3 c 2,-1.7 4.1,-4.7 4.6,-6.4 0.8,-3 0.6,-3.4 -1.6,-3.9 l -2.4,-0.6 0,-44.3 c 0,-26.4 -0.4,-45.4 -1,-46.9 -0.5,-1.4 -2.4,-3.5 -4.2,-4.6 -3.1,-1.9 -5.1,-2 -30.5,-2 l -27.3,0 0,-25.9 c 0,-20.3 0.3,-26.1 1.3,-27 0.9,-0.7 11,-1.2 30.3,-1.3 l 28.9,-0.3 0.3,-9.8 0.3,-9.7 -28.5,0 -28.5,0 -3.7,-2.5 c -4.8,-3.3 -10.5,-3.3 -16.3,0 l -4.3,2.5 -77.2,0 -77.1,0 -3.7,-2.5 c -4.2,-2.8 -9.5,-3.2 -14.4,-1.1 z"/>
</svg>
