<svg xmlns="http://www.w3.org/2000/svg" viewBox="0 0 384 384">
<path d="M 149.5,17.5 l -2.5,2.4 0,106.1 0,106.1 2.5,2.4 2.4,2.5 30.4,0 30.4,0 1.7,6 c 2.7,9.4 3.2,24.9 1.2,35.4 -4,21.1 -11.4,35.5 -26,50.4 -19.3,19.9 -44.9,29.6 -73.1,27.8 -5.5,-0.4 -11.3,-1.1 -13,-1.6 -1.6,-0.5 -5.7,-1.7 -9,-2.6 -7.1,-2 -20.9,-9 -26.8,-13.5 -21.3,-16.3 -33,-36.5 -37.8,-65.4 -3.2,-18.8 4.4,-47.3 17.3,-64.6 5.5,-7.4 15.2,-17.2 21.8,-22.1 3.7,-2.7 15.2,-8.7 20.8,-10.8 4.5,-1.7 9.2,-7.6 9.2,-11.6 0,-2.4 -0.8,-3.9 -3.2,-5.9 -3.6,-3 -4.3,-3 -15.8,1.6 -24,9.6 -45,29.1 -56.8,52.9 -8.5,17.3 -11.2,29.4 -11.2,50.7 0,17.3 0.6,21.2 5.6,36.2 6.5,19.6 18.4,36.6 35.3,50.2 14.2,11.4 23.7,16 48.1,23.1 5.8,1.7 37.8,1.8 43.5,0.1 15.5,-4.4 20,-6 27.4,-9.5 8.6,-4.1 16.5,-9.1 21.2,-13.4 1.4,-1.3 2.8,-2.4 3.2,-2.4 2.4,0 16.9,-17.4 22.9,-27.5 6.8,-11.4 12.8,-27.6 14.8,-39.9 1.5,-9 1.2,-28.1 -0.5,-36.1 -0.8,-3.8 -1.5,-7.1 -1.5,-7.2 0,-0.2 20.8,-0.3 46.3,-0.3 l 46.4,0 2.1,-2.3 c 2.2,-2.3 2.2,-2.6 2.2,-42.1 l 0,-39.7 22.4,-22.4 22.4,-22.5 0.7,-5.6 c 0.8,-6.6 0,-7.5 -5.4,-6.7 -5.9,0.9 -7.9,2.5 -23.6,18.2 -8.2,8.3 -15.3,15.1 -15.7,15.1 -0.5,0 -0.8,-24.7 -0.8,-54.8 l 0,-54.9 -2.3,-2.1 -2.3,-2.2 -86.3,0 -86.2,0 -2.4,2.5 z m 163.9,14.1 c 0.3,0.9 0.6,26.8 0.6,57.7 l 0,56.1 -12,12.1 c -9.9,10.1 -12,12.7 -12,15.1 0,2.1 -1,4 -3.5,6.4 -4,3.9 -4.3,5 -1.6,7.4 2.2,2 4.1,1.3 8,-2.8 1.4,-1.4 3.4,-2.6 4.6,-2.6 2.5,0 6.1,-2.6 11.7,-8.4 2.7,-2.7 3.9,-3.4 4.3,-2.4 0.3,0.7 0.4,12.6 0.3,26.3 l -0.3,25 -43,0 -43,0 -4.5,-8.6 c -12.6,-23.9 -29.8,-40.5 -53.5,-51.4 l -7.5,-3.5 0,-62.8 c 0,-47.5 0.3,-63.1 1.2,-64 0.9,-0.9 19,-1.2 75.4,-1.2 66.7,0 74.2,0.2 74.8,1.6 z m -142.6,151.5 c 2.4,1.6 4.8,2.9 5.3,2.9 0.6,0 6.1,5.1 12.3,11.2 10,10.1 17.6,20.2 17.6,23.7 0,1.6 -41.1,1.6 -42.8,-0.1 -0.9,-0.9 -1.2,-7.1 -1.2,-21.6 l 0,-20.3 2.3,0.7 c 1.2,0.3 4.1,1.9 6.5,3.5 z"/>
<path d="M 179.7,56.7 c -1.4,1.3 -0.6,5.3 1.2,6.3 1.3,0.6 21.3,1 58,1 49.5,0 56.1,-0.2 57.5,-1.6 1.9,-1.8 1.9,-2 0.6,-4.5 -1,-1.8 -2.7,-1.9 -58.9,-1.9 -31.8,0 -58.1,0.3 -58.4,0.7 z"/>
<path d="M 179.7,78.7 c -1.1,1.1 -0.8,4.8 0.5,6.1 0.9,0.9 15.1,1.2 57.9,1.2 50.3,0 56.9,-0.2 58.3,-1.6 1.9,-1.8 1.9,-2 0.6,-4.5 -1,-1.8 -2.7,-1.9 -58.9,-1.9 -31.8,0 -58.1,0.3 -58.4,0.7 z"/>
<path d="M 180.3,100.7 c -1.6,0.6 -1.7,4.5 -0.1,6.1 0.9,0.9 15.3,1.2 58.5,1.2 56.2,0 57.2,0 58.3,-2 0.8,-1.4 0.8,-2.6 0,-4 -1.1,-2 -2.1,-2 -58.3,-1.9 -31.5,0 -57.8,0.3 -58.4,0.6 z"/>
<path d="M 180.3,122.7 c -1.9,0.7 -1.6,6 0.3,6.7 0.9,0.3 26.9,0.6 57.9,0.6 49.9,0 56.5,-0.2 57.9,-1.6 2,-1.9 2,-2.9 0,-4.8 -1.4,-1.4 -8,-1.6 -58.2,-1.5 -31.2,0 -57.3,0.3 -57.9,0.6 z"/>
<path d="M 180.1,145.4 c -0.7,0.8 -1.1,2.5 -0.9,3.8 l 0.3,2.3 25.9,0 c 23.6,0 26,-0.2 27,-1.8 0.8,-1.2 0.8,-2.2 0,-3.5 -1,-1.5 -3.6,-1.7 -26.1,-2 -21,-0.2 -25.2,0 -26.2,1.2 z"/>
<path d="M 257.8,189.1 c -2.1,1.2 -2.3,4 -0.6,5.7 1.3,1.3 20.2,1.7 23.2,0.6 2.6,-1 2.1,-6 -0.6,-6.8 -3.7,-1 -20.2,-0.6 -22,0.5 z"/>
<path d="M 355.8,130.7 c -9.3,9.2 -17.1,17.8 -17.5,19.1 -0.7,3 1.7,5.6 4.4,4.8 3.3,-1.1 35.3,-34 35.3,-36.4 0,-1.9 -2.5,-4.2 -4.6,-4.2 -0.3,0 -8.3,7.5 -17.6,16.7 z"/>
<path d="M 113.2,139.3 l -3.2,3.3 0,46.4 c 0.1,36.3 0.4,47.3 1.4,50.3 0.8,2 4,7.6 7.2,12.3 3.3,4.7 6.6,9.6 7.4,11 5.5,8.7 24,35.2 26.2,37.6 2,2.2 3.5,2.8 6.6,2.8 2.3,0 4.5,-0.6 5.2,-1.5 0.7,-0.8 1.8,-1.5 2.6,-1.5 2.2,0 4.4,-4.2 4.4,-8.3 0,-3.2 -1.6,-6.2 -9.7,-18.3 -5.4,-8 -10.5,-15.6 -11.3,-16.9 -0.8,-1.3 -4.1,-6.1 -7.2,-10.7 -9.2,-13.3 -8.8,-10.9 -8.8,-59.9 l 0,-42.8 -3.5,-3.6 c -3.2,-3.1 -4.1,-3.5 -8.8,-3.5 -4.7,0 -5.7,0.4 -8.5,3.3 z"/>
</svg>
