<svg xmlns="http://www.w3.org/2000/svg" viewBox="0 0 384 384">
<path d="M 170.2,16.5 c -26.5,6.1 -48.7,24 -60.1,48.7 -6.5,14 -7.3,18.6 -7.8,43.4 l -0.5,22.1 -6.3,0.7 c -23.3,2.4 -44,20.3 -49.9,43.2 -2.3,9.1 -2.4,135.9 -0.1,144.9 5,19.6 20.3,35.5 40,41.8 l 7,2.2 96.5,0 c 107.2,0 100.3,0.4 114.4,-6.7 7.9,-4 20.1,-16.2 24.4,-24.4 6.8,-13.1 6.7,-11.6 6.7,-85.9 l 0,-67 -2.8,-8 c -3.3,-9.6 -10.1,-19.9 -17.1,-26.1 -8.7,-7.7 -25,-14.4 -34.8,-14.4 l -3.8,0 0,-19.5 c 0,-28.4 -3.2,-41 -14.5,-58.1 -10.8,-16.1 -26.5,-28.1 -45.3,-34.4 -9,-3.1 -10.8,-3.3 -24.7,-3.6 -10.4,-0.2 -16.9,0.1 -21.3,1.1 z m 34.2,29.1 c 15,3.9 28.8,14.7 35.8,28 5.7,10.8 6.8,17 6.8,38.6 l 0,18.8 -58.1,0 -58.1,0 0.4,-20.8 c 0.5,-24.3 1.7,-29.4 9.9,-41.6 7.6,-11.4 19.6,-19.9 32.7,-23 7.9,-2 23,-2 30.6,0 z m -3.9,131.9 c 8.4,2.2 15,6.1 20.5,12.2 9.2,10.1 13.5,24.2 11,36.5 -2.5,13 -11.3,24.9 -22.4,30.3 l -5.6,2.7 0,8.4 0,8.4 -14.6,0 -14.6,0 0.3,-12.8 c 0.4,-11.7 0.6,-13.1 3.1,-17.3 3.3,-5.6 7.6,-9.4 14.1,-12.5 2.7,-1.2 6,-3.2 7.3,-4.5 5.3,-5 5,-15.1 -0.5,-20.1 -7.7,-6.9 -21.6,-3.5 -23.6,5.8 -0.4,1.6 -0.8,3.5 -1.1,4.1 -0.2,1 -4,1.3 -14.2,1.3 -7.6,0 -14.1,-0.2 -14.4,-0.5 -1.3,-1.4 1.5,-13.7 4.7,-20.1 8.8,-18.1 29.6,-27.2 50,-21.9 z m 3.5,128 l 0,14.5 -14.5,0 -14.5,0 0,-14.5 0,-14.5 14.5,0 14.5,0 0,14.5 z"/>
</svg>
