<svg xmlns="http://www.w3.org/2000/svg" viewBox="0 0 384 384">
<path d="M 257.8,79.7 l -0.3,5.7 -6,2.1 c -3.3,1.2 -8.3,3.3 -11.2,4.8 -2.9,1.5 -5.8,2.7 -6.5,2.7 -0.7,0 -3.4,-2.1 -6,-4.7 l -4.8,-4.7 -10.5,10.4 c -5.8,5.8 -10.5,10.9 -10.5,11.4 0,0.6 2.1,3.1 4.6,5.7 l 4.6,4.6 -2.8,5.4 c -1.5,3 -3.7,8.5 -5,12.4 l -2.2,7 -6.9,0.5 -6.8,0.5 0,15 0,15 7,0.3 7.1,0.3 1.3,4.7 c 0.8,2.6 2.9,7.7 4.8,11.4 1.8,3.7 3.3,7.3 3.3,8 0,0.7 -1.9,3.2 -4.2,5.5 l -4.3,4.3 10.8,10.7 10.7,10.8 4.3,-4.3 c 2.3,-2.3 4.8,-4.2 5.5,-4.2 0.7,0 3.4,1.1 6,2.4 2.6,1.3 7.7,3.3 11.4,4.5 l 6.7,2.2 0.3,5.7 0.3,5.7 15,0 15,0 0.3,-5.6 0.3,-5.7 4.7,-1.2 c 2.6,-0.6 7.8,-2.7 11.6,-4.6 3.9,-1.9 7.4,-3.4 8,-3.4 0.6,0 3,1.9 5.3,4.2 l 4.3,4.2 10.5,-10.4 c 5.8,-5.8 10.5,-10.9 10.5,-11.5 0,-0.6 -1.8,-2.8 -3.9,-4.9 l -4,-3.9 3.1,-6.1 c 1.8,-3.4 4.1,-8.8 5.3,-12.1 l 2.1,-6 6.4,-0.5 6.5,-0.5 0.3,-15.2 0.3,-15.2 -6.7,-0.3 -6.7,-0.3 -1.6,-6 c -1,-3.3 -3.3,-9 -5.2,-12.7 l -3.6,-6.6 4.6,-4.6 4.6,-4.6 -10.7,-10.7 -10.7,-10.7 -4.5,4.2 c -2.5,2.3 -4.7,4.2 -4.9,4.2 -0.2,0 -4,-1.6 -8.3,-3.6 -4.3,-2 -9.9,-4.2 -12.4,-4.8 l -4.5,-1.1 -0.5,-5.5 -0.5,-5.5 -15.2,-0.3 -15.2,-0.3 -0.3,5.8 z m 27.4,27.4 c 23.4,4.8 41.4,27.4 41,51.4 -0.2,14.7 -8.1,31 -18.9,39.2 -9.1,6.9 -23.5,12.3 -32.9,12.3 -5.5,0 -18.4,-3 -22.8,-5.2 -14.4,-7.4 -23.3,-18.1 -27.7,-33.7 -5.5,-19.1 2,-42.6 16.9,-53.4 13.9,-10.1 29.1,-13.8 44.4,-10.6 z"/>
<path d="M 263.5,119.5 c -13,3.6 -23.3,13.3 -27.8,26.2 -2.8,7.7 -2.1,20.9 1.4,28.3 5.5,11.7 17.1,20.5 30.5,23.2 13.8,2.8 30.7,-4.9 39.8,-18.1 3.3,-4.7 6.6,-15.6 6.6,-21.6 0,-9.2 -4.8,-20 -12.3,-27.2 -11,-10.8 -24.3,-14.6 -38.2,-10.8 z m 21.5,14.5 c 5,2.6 10.4,8 13,13 2.5,4.8 2.7,15.1 0.5,20.4 -2.1,4.9 -8,11.3 -12.9,13.9 -5.8,3 -18.4,3 -24.2,0 -12.9,-6.8 -17.8,-22.6 -11.1,-35.9 2.9,-5.8 4.5,-7.3 11.2,-10.7 6.6,-3.4 17.6,-3.7 23.5,-0.7 z"/>
<path d="M 267.5,145 c -3,1.2 -6.1,5 -7.6,9.2 -3.5,10.1 6.8,19.9 17.8,16.9 5.6,-1.5 10.3,-7.4 10.3,-12.7 0,-10 -11.2,-17.3 -20.5,-13.4 z"/>
<path d="M 44.4,108.7 c -0.9,2.1 -2,4.9 -2.4,6.3 -1,3.2 -11.7,30.5 -13.6,34.7 -0.8,1.7 -1.4,3.5 -1.4,4.1 0,0.5 -0.9,2.9 -2,5.3 -1.1,2.4 -2,5 -2,5.6 0,1 10.2,1.3 47.9,1.3 l 47.9,0 2.5,-6.3 c 1.5,-3.4 3.8,-9.4 5.2,-13.2 1.5,-3.9 3.9,-10.2 5.5,-14 4.1,-10 10,-25.9 10,-26.8 0,-0.4 -21.6,-0.7 -48,-0.7 l -48,0 -1.6,3.7 z"/>
<path d="M 157.3,118.7 c -1,0.4 -1.3,20.2 -1.3,94.3 0,84.6 0.2,93.8 1.6,94.4 2,0.8 153.8,0.8 155.8,0 1.4,-0.5 1.6,-3.9 1.6,-27.4 l 0,-26.7 -2.7,-3.6 c -1.6,-1.9 -4.7,-6.1 -7.1,-9.1 -4.1,-5.4 -6,-6.4 -9.6,-5 -1.2,0.5 -1.6,2 -1.6,6 l 0,5.4 -21,0 -21,0 0,-5.3 0,-5.4 -9.6,-3.7 -9.6,-3.8 -4.4,4.3 -4.4,4.3 -14.7,-14.7 -14.7,-14.7 4.8,-4.9 4.8,-4.8 -2.8,-5.4 c -1.5,-3 -3.3,-7.2 -3.9,-9.4 l -1.2,-4 -6.7,-0.3 -6.6,-0.3 0,-20.4 0,-20.5 6.3,0 c 6.1,0 8.7,-1.1 8.7,-3.6 0,-0.7 1.4,-4.2 3,-7.8 1.7,-3.7 2.8,-7.1 2.5,-7.6 -0.6,-1 -43.8,-1.3 -46.2,-0.3 z"/>
<path d="M 144.9,127.7 c -0.9,1.5 -2.2,4.5 -2.9,6.6 -0.7,2.2 -1.8,5.1 -2.6,6.5 -0.8,1.5 -1.4,3.2 -1.4,3.8 0,0.6 -1.3,4.2 -2.9,8 -1.6,3.8 -4.3,10.5 -5.9,14.9 l -3,8 -27.1,0.3 -27.1,0.2 0,54.4 0,54.4 8.8,2.7 c 15.2,4.7 50.2,15.7 61.3,19.4 1.5,0.5 3.2,0.5 3.8,0.2 0.8,-0.5 1,-25.8 0.9,-91.5 -0.3,-84.2 -0.4,-90.5 -1.9,-87.9 z"/>
</svg>
