<svg xmlns="http://www.w3.org/2000/svg" viewBox="0 0 384 384">
<path d="M 149.5,17.5 l -2.5,2.4 0,106.1 0,106.1 2.5,2.4 2.4,2.5 85.9,0 c 85.4,0 85.9,0 88.6,-2.1 l 2.6,-2 0,-40.2 0,-40.1 22.4,-22.6 22.4,-22.5 0.7,-5.6 c 0.8,-6.7 -0.1,-7.4 -7.3,-5.8 -4.4,0.9 -6.2,2.4 -20.7,16.9 -8.7,8.7 -16.2,15.7 -16.7,15.4 -0.4,-0.3 -0.8,-25 -0.8,-54.9 l 0,-54.4 -2.6,-2 c -2.7,-2.1 -3.2,-2.1 -88.6,-2.1 l -85.9,0 -2.4,2.5 z m 163.9,14.1 c 0.3,0.9 0.6,26.8 0.6,57.6 l 0,56.1 -12,12.2 c -9.2,9.4 -12,12.9 -12,14.9 0,1.6 -1.4,4.2 -3.7,6.7 -2.9,3.2 -3.5,4.4 -2.6,5.7 1.8,2.9 5.6,2.6 8.8,-0.8 1.6,-1.7 3.9,-3 5.3,-3 1.5,0 4.5,-2.1 8.6,-6 3.5,-3.3 6.6,-5.7 6.9,-5.3 0.9,0.8 0.9,48.6 0.1,50.7 -0.6,1.4 -8.1,1.6 -74.8,1.6 -56.4,0 -74.5,-0.3 -75.4,-1.2 -1.7,-1.7 -1.7,-187.9 0,-189.6 0.9,-0.9 19,-1.2 75.4,-1.2 66.7,0 74.2,0.2 74.8,1.6 z"/>
<path d="M 179.7,56.7 c -1.4,1.3 -0.6,5.3 1.2,6.3 1.3,0.6 21.3,1 58,1 49.5,0 56.1,-0.2 57.5,-1.6 1.9,-1.8 1.9,-2 0.6,-4.5 -1,-1.8 -2.7,-1.9 -58.9,-1.9 -31.8,0 -58.1,0.3 -58.4,0.7 z"/>
<path d="M 179.7,78.7 c -1.1,1.1 -0.8,4.8 0.5,6.1 0.9,0.9 15.1,1.2 57.9,1.2 50.3,0 56.9,-0.2 58.3,-1.6 1.9,-1.8 1.9,-2 0.6,-4.5 -1,-1.8 -2.7,-1.9 -58.9,-1.9 -31.8,0 -58.1,0.3 -58.4,0.7 z"/>
<path d="M 180.3,100.7 c -1.9,0.7 -1.6,6 0.3,6.7 0.9,0.3 26.9,0.6 57.9,0.6 49.9,0 56.5,-0.2 57.9,-1.6 1.9,-1.8 1.9,-2 0.6,-4.5 -1,-1.8 -2.7,-1.9 -58.3,-1.8 -31.5,0 -57.8,0.3 -58.4,0.6 z"/>
<path d="M 180.3,122.7 c -1.9,0.7 -1.6,6 0.3,6.7 0.9,0.3 26.9,0.6 57.9,0.6 49.9,0 56.5,-0.2 57.9,-1.6 2,-1.9 2,-2.9 0,-4.8 -1.4,-1.4 -8,-1.6 -58.2,-1.5 -31.2,0 -57.3,0.3 -57.9,0.6 z"/>
<path d="M 180.3,144.7 c -0.7,0.2 -1.3,1.8 -1.3,3.4 0,2.1 0.6,3 2.3,3.4 1.2,0.3 13,0.4 26.1,0.3 21.5,-0.3 24,-0.5 25,-2.1 0.8,-1.2 0.8,-2.2 0,-3.5 -1,-1.5 -3.5,-1.7 -26,-1.9 -13.7,-0.1 -25.5,0.1 -26.1,0.4 z"/>
<path d="M 257.6,189.6 c -1.9,1.9 -2,3.6 -0.4,5.2 1.3,1.3 20.2,1.7 23.2,0.6 2.2,-0.9 2,-5.1 -0.3,-6.4 -1.1,-0.5 -6.2,-1 -11.5,-1 -7.3,0 -9.8,0.4 -11,1.6 z"/>
<path d="M 33.5,95.6 c -1.1,0.3 -3,0.7 -4.2,1 -3,0.6 -9,5.9 -11.1,9.8 -1.4,2.6 -1.8,6.8 -2,26.6 l -0.4,23.6 -4.8,2.2 c -7.9,3.6 -8,4.1 -8,38.9 0,33.5 0.3,35.2 7,38.5 3.2,1.7 8.4,1.8 63.5,1.8 55.1,0 60.3,-0.1 63.5,-1.8 6.7,-3.3 7,-5 7,-38.5 0,-34.8 -0.1,-35.3 -8.1,-38.9 l -4.8,-2.2 -0.3,-24.2 -0.3,-24.2 -3,-4.3 c -1.6,-2.3 -4.8,-5.2 -7,-6.3 -3.8,-2 -5.5,-2.1 -44.5,-2.3 -22.3,0 -41.4,0.1 -42.5,0.3 z m 85.2,11.7 l 2.8,2.7 0.3,23.4 0.3,23.3 -2.8,0.6 c -2.3,0.5 -3.3,1.7 -5.6,7.1 -10.1,23 -36.7,32.7 -59.3,21.6 -10.3,-5 -19.7,-15.9 -22.4,-26 -0.4,-1.8 -1.5,-2.7 -3.6,-3 l -2.9,-0.5 -0.3,-21.5 c -0.2,-18.9 0,-21.9 1.5,-25 3,-5.8 4.1,-6 49,-5.7 l 40.3,0.2 2.7,2.8 z"/>
<path d="M 61.7,126.8 c -7,7 -12.7,13 -12.7,13.4 0,0.4 3.3,0.8 7.3,1 l 7.2,0.3 0.3,16.7 0.2,16.8 11.5,0 11.5,0 0,-17 0,-17 7.7,0 7.8,0 -13.5,-13.5 c -7.4,-7.4 -13.7,-13.5 -14,-13.5 -0.3,0 -6.3,5.7 -13.3,12.8 z"/>
<path d="M 355.8,130.7 c -9.3,9.3 -17.1,17.9 -17.5,19.1 -0.7,3 1.7,5.6 4.4,4.8 3.3,-1.1 35.3,-34.1 35.3,-36.4 0,-1.9 -2.6,-4.2 -4.6,-4.2 -0.4,0 -8.4,7.5 -17.6,16.7 z"/>
<path d="M 29.9,291 c -7.9,7.2 -14.5,13.5 -14.7,14 -0.3,0.7 59.7,1 178.3,1 118.6,0 178.6,-0.3 178.3,-1 -0.1,-0.5 -6.8,-6.8 -14.7,-14 l -14.4,-13 -149.2,0 -149.2,0 -14.4,13 z"/>
<path d="M 13.2,310.7 c -3.4,1.3 -4.2,5.9 -4.2,23.8 l 0,17.5 184.5,0 184.5,0 0,-17.5 c 0,-18.3 -0.8,-22.4 -4.5,-23.9 -2,-0.7 -358.4,-0.7 -360.3,0.1 z m 162,11 c 1.5,1.3 1.8,3.1 1.8,9.6 0,13 7.3,11.7 -68.5,11.7 -76,0 -69,1.1 -69,-11.4 0,-3.9 0.6,-8.1 1.3,-9.4 l 1.3,-2.2 65.6,0 c 59.7,0 65.8,0.2 67.5,1.7 z m -147.7,4.4 c 2.8,5.2 1,12.5 -3.3,13.6 -5.9,1.4 -8.8,-10.2 -3.8,-15.2 2.9,-2.9 5.1,-2.4 7.1,1.6 z m 275.2,-1.9 c 4.3,4 2.3,15.8 -2.6,15.8 -2.3,0 -4.8,-2.7 -5.6,-6.2 -0.8,-3.3 1.1,-9.4 3.3,-10.8 2.3,-1.3 2.3,-1.3 4.9,1.2 z m 19.3,1.8 c 2.5,4.6 -0.2,14 -4,14 -4.1,0 -6.7,-5.3 -5.6,-11.5 1.2,-6.3 6.8,-7.8 9.6,-2.5 z m 34.9,-2.6 c 0.7,0.9 1.1,4.2 0.9,8.8 l -0.3,7.3 -8,0 -8,0 -0.3,-7.9 c -0.2,-5.7 0.1,-8.2 1,-8.7 2.2,-1.5 13.4,-1 14.7,0.5 z"/>
<path d="M 343.3,325.6 c -0.8,0.4 -1.3,2.6 -1.3,6 l 0,5.4 7,0 7.1,0 -0.3,-5.8 -0.3,-5.7 -5.5,-0.2 c -3,-0.1 -6.1,0.1 -6.7,0.3 z"/>
<path d="M 9,361.5 c 0,4.2 2.2,9 4.5,9.9 2.2,0.8 357.8,0.8 360,0 2.3,-0.9 4.5,-5.7 4.5,-9.9 l 0,-3.5 -184.5,0 -184.5,0 0,3.5 z"/>
</svg>
