<svg xmlns="http://www.w3.org/2000/svg" viewBox="0 0 384 384">
<path d="M 112.3,27.5 c -10,2.2 -17.4,6.7 -26.8,16.7 -9.8,10.2 -16.4,22.3 -19.2,34.8 -2.4,10.4 -2.3,31.7 0,43 7,33.4 25.1,65.3 52.7,92.8 32.4,32.4 68.6,50 106.6,51.9 27.6,1.3 49.2,-5.5 64.6,-20.4 8.5,-8.4 13,-15.7 15.3,-25.4 3.3,-14.3 1.1,-21 -6.2,-18.5 -2.5,0.8 -2.9,2 -3.7,10.6 -1.1,11.6 -5.6,20 -13.9,25.7 -6.3,4.2 -10.3,5.4 -21.1,6 -43,2.6 -107.5,-40.4 -145.1,-96.7 -34.7,-51.9 -36.6,-97.9 -4.5,-108.9 19.7,-6.7 54.8,3.2 86.7,24.6 33.8,22.5 66.5,58.2 82.8,90.4 3.9,7.7 5.4,9.2 9.2,8.7 2,-0.2 3,-1.1 3.8,-3.2 0.8,-2.4 0.4,-3.9 -3.5,-11.4 -5.4,-10.2 -15.1,-24.9 -24,-36.4 -8.9,-11.3 -32.4,-34.9 -44,-44 -40.4,-31.7 -80.9,-46.6 -109.7,-40.3 z m -34.3,58.7 c 0,8.2 6.9,29.8 14,43.8 19.3,38.2 58.4,80 96.3,102.9 16.4,9.9 43.7,21.1 51.4,21.1 1.2,0 2.5,0.4 2.8,1 1,1.6 -20,1.2 -30.1,-0.5 -29.4,-5.1 -56.5,-19.6 -82.3,-44.1 -38,-36.1 -59.1,-83.5 -54.5,-122.2 0.7,-5.7 2.4,-7.1 2.4,-2 z"/>
<path d="M 316.6,104.6 c -1.9,1.8 -2,4.7 -0.5,7.6 0.9,1.7 0.2,2.9 -5.5,8.8 -3.6,3.7 -6.6,7.3 -6.6,7.9 0,2.2 4.8,6.1 6.7,5.5 1,-0.4 4.6,-3.4 8.1,-6.8 l 6.2,-6.1 5.7,5.8 5.8,5.7 -38.8,38.8 c -31.8,31.8 -38.7,39.2 -38.7,41.5 0,3.1 3.9,6.2 6.7,5.3 2.5,-0.8 85.3,-83.9 85.3,-85.6 0,-0.7 -6.4,-7.8 -14.3,-15.7 -14.5,-14.6 -16.8,-16.1 -20.1,-12.7 z"/>
<path d="M 119.2,228.6 c -2.2,1.5 -2.2,1.8 -2.2,25.8 l 0,24.3 -41.2,35.4 c -22.6,19.5 -41.6,36.2 -42.2,37.1 -1.6,2.6 3.3,7.3 6.6,6.5 1.2,-0.4 12.3,-9.2 24.5,-19.7 12.2,-10.4 22.6,-19 23.1,-19 0.6,0 7.3,3.3 14.9,7.4 l 13.8,7.4 0.3,10.3 c 0.2,7.8 0.7,10.8 1.9,12.1 1.9,2.2 4.2,2.3 6.9,0.4 1.6,-1.2 2,-3 2.4,-12.2 l 0.5,-10.8 13.5,-7.3 c 7.4,-4 14,-7.3 14.7,-7.3 0.6,0 11.4,8.8 23.9,19.5 12.5,10.7 23.6,19.5 24.6,19.5 2.2,0 5.8,-3.4 5.8,-5.5 0,-2.4 -3.5,-5.6 -44.2,-40.4 l -38.8,-33.1 0,-24 c 0,-22.7 -0.1,-24.1 -2,-26 -2.4,-2.4 -3.8,-2.5 -6.8,-0.4 z m -2.2,78.9 c 0,7.4 -0.3,13.5 -0.6,13.5 -0.4,0 -4.9,-2.3 -10.1,-5.1 -6.9,-3.8 -9.2,-5.4 -8.4,-6.2 3.4,-3.4 17.7,-15.6 18.4,-15.6 0.4,-0.1 0.7,6 0.7,13.4 z m 21.5,-5.1 c 3.9,3.3 7.6,6.5 8.3,7.2 1.1,0.9 -0.6,2.2 -8.2,6.3 -5.3,2.8 -9.9,5.1 -10.1,5.1 -0.3,0 -0.5,-6.1 -0.5,-13.6 0,-12.8 0.1,-13.6 1.8,-12.3 0.9,0.7 4.9,4 8.7,7.3 z"/>
<path d="M 257.2,276.1 c -11,5.5 -14,18.8 -6.5,28.8 5.1,6.7 7.2,7.1 41.3,7.1 29.7,0 30.7,-0.1 35,-2.3 2.6,-1.2 5.7,-4 7.4,-6.4 2.5,-3.6 2.9,-5.2 2.9,-10.3 0,-5.1 -0.4,-6.7 -2.9,-10.3 -1.7,-2.4 -4.8,-5.2 -7.4,-6.5 -4.3,-2.1 -5.3,-2.2 -35,-2.2 -29.1,0 -30.7,0.1 -34.8,2.1 z m 67.8,6.4 c 3.5,1.8 6,6.2 6,10.5 0,7.1 -5.3,12 -12.9,12 -7.7,0 -13.5,-8.2 -11.1,-15.5 2.4,-7.4 10.9,-10.7 18,-7 z m -46.5,6 c 2.8,2.7 3,4.2 1.4,7.9 -2.7,5.9 -11.9,2.9 -11.9,-3.9 0,-2.1 4.4,-6.5 6.5,-6.5 0.9,0 2.7,1.1 4,2.5 z m 11.5,3.5 c 1.1,2.2 2.3,4 2.6,4 0.3,0 0.4,-1.9 0.3,-4.3 -0.2,-2.3 0.1,-4.3 0.7,-4.5 1.4,-0.3 1.1,12.1 -0.3,12.5 -0.7,0.3 -2.6,-1.7 -4.2,-4.3 l -3,-4.8 -0.3,4.4 c -0.2,2.5 -0.7,4.5 -1.3,4.5 -1.1,0 -2,-9.9 -1.1,-12.2 0.9,-2.2 4.3,0.2 6.6,4.7 z"/>
<path d="M 271.5,291 c -1,3.2 0.4,6 3,6 2.6,0 4,-2.8 3,-6 -0.4,-1.3 -1.5,-2 -3,-2 -1.5,0 -2.6,0.7 -3,2 z"/>
<path d="M 259.2,331.1 c -1.8,0.6 -5,2.7 -7.1,4.8 -10,10 -6.2,25.9 7.5,31 5,1.9 7.6,2.1 32.4,2.1 24.7,0 27.4,-0.2 32.4,-2 12.7,-4.8 17.1,-18.4 9.4,-29.1 -5.5,-7.6 -7.1,-7.9 -41.3,-7.8 -16.5,0 -31.5,0.5 -33.3,1 z m 13.7,8.4 c 4,3.4 5.6,8.4 4.1,13 -4.4,13.3 -24,10.3 -24,-3.7 0,-3.8 2.8,-8.6 6.2,-10.4 4,-2.3 10.3,-1.7 13.7,1.1 z m 26.6,5 c 3.2,3.1 3.2,5.9 -0.1,9.1 -1.9,2 -3.1,2.4 -5.2,1.9 -3.5,-0.8 -4,-1.4 -4.8,-5.2 -0.5,-2.6 -0.1,-3.7 1.9,-5.7 3.2,-3.2 5.1,-3.3 8.2,-0.1 z m 12.5,-0.5 c 0,0.5 -1.1,1 -2.5,1 -1.6,0 -2.5,0.6 -2.5,1.5 0,0.8 0.9,1.5 1.9,1.5 1.1,0 2.3,0.4 2.6,1 0.4,0.6 -0.5,1 -1.9,1 -2.2,0 -2.6,0.4 -2.6,3.1 0,2 -0.4,2.9 -1.2,2.7 -0.8,-0.3 -1.4,-2.8 -1.6,-6.6 l -0.3,-6.2 4.1,0 c 2.2,0 4,0.4 4,1 z m 10,0 c 0,0.5 -1.1,1 -2.5,1 -1.6,0 -2.5,0.6 -2.5,1.5 0,0.8 0.9,1.5 1.9,1.5 1.1,0 2.3,0.4 2.6,1 0.4,0.6 -0.5,1 -1.9,1 -2.2,0 -2.6,0.4 -2.6,3.1 0,2 -0.4,2.9 -1.2,2.7 -0.8,-0.3 -1.4,-2.8 -1.6,-6.6 l -0.3,-6.2 4.1,0 c 2.2,0 4,0.4 4,1 z"/>
<path d="M 292.4,347.5 c -0.9,3.6 0.2,5.5 3,5.5 2.7,0 4.1,-2.7 3.1,-6 -1,-3 -5.3,-2.7 -6.1,0.5 z"/>
</svg>
