<svg xmlns="http://www.w3.org/2000/svg" viewBox="0 0 384 384">
<path d="M 70.5,21.5 c -0.5,0.1 -4.1,1.2 -8,2.4 -18.1,5.4 -33.8,22.3 -38.4,41.6 -1.5,6.1 -1.6,18.1 -0.2,25.5 2.4,12.5 12.5,27.2 24,34.9 15.9,10.6 35.7,12.8 53.1,5.8 l 5.8,-2.4 22.4,22.4 c 12.4,12.2 22,22.3 21.4,22.3 -0.5,0 -2.3,-1.2 -3.8,-2.7 -2.7,-2.6 -3.1,-2.7 -12.8,-2.4 -5.5,0.1 -10,-0.1 -10,-0.6 0,-0.5 1.6,-3.5 3.5,-6.7 2.9,-4.8 3.3,-6.2 2.3,-7.5 -3,-4 -12.4,-13.1 -13.5,-13.1 -1.5,0 -8.2,9.9 -11.7,17.4 -6.4,13.6 -10.6,32.1 -10.6,46.1 0.1,9.3 4.4,32.5 7,37.3 0.5,0.9 2,4.4 3.5,7.6 6.3,14.7 21.7,32.5 36.4,42.5 9,6.1 21.2,11.6 32.7,14.8 8.8,2.4 11.6,2.7 25.9,2.7 13,-0.1 17.5,-0.4 23.8,-2.1 8.1,-2.2 10.1,-3.2 7.9,-4 -3.2,-1.2 -13.5,-9.7 -17.1,-14.3 -8.6,-10.9 -13.9,-27.4 -12.7,-39.9 0.6,-6.6 3.5,-17.1 6.2,-22.3 1.1,-2 1.4,-7.5 1.4,-22.3 l 0,-19.5 14.9,0 c 16.7,0 16.1,-0.3 16.1,7.5 0,2.4 0.4,4.6 0.8,4.9 0.5,0.3 3.3,-0.1 6.3,-0.9 3,-0.8 7.3,-1.5 9.7,-1.5 l 4.2,0 0,-5 0,-5 9.9,0 c 11.2,0 10.5,-0.6 11.6,9.1 0.8,6.7 1.1,7.1 5.5,9.4 1.9,1 6,4.3 9.2,7.3 3.2,3 6.1,5.2 6.5,4.8 1.5,-1.5 1.4,-14.5 -0.1,-25.6 -3.4,-24.3 -13.2,-43.9 -30.5,-61 -11.3,-11.3 -24.4,-19.7 -38.4,-24.6 -20.5,-7.3 -49.8,-7.3 -70.4,0 -7,2.5 -21.3,9.9 -21.3,11.1 0,0.7 3.3,4.4 7.4,8.4 l 7.5,7.2 4.3,-2.2 c 2.3,-1.2 5.6,-2.5 7.2,-3 2.6,-0.8 2.3,-0.3 -2.5,4 l -5.4,4.9 5.5,5.6 c 3,3.1 5.7,5.6 6,5.6 0.3,0 1.6,-1.7 3,-3.7 2.5,-3.6 11.4,-11.3 13.1,-11.3 0.5,0 0.9,8.2 0.9,19 l 0,19 -12.2,0 c -9.2,0.1 -12.8,0.4 -14.2,1.5 -4.1,3.1 -3.4,1.3 1.1,-2.8 5.9,-5.5 9.3,-10.8 9.3,-14.9 0,-2.9 -2.3,-5.6 -21.7,-25 l -21.8,-21.8 1.4,-3.2 c 7.9,-19.8 6.3,-39.5 -4.6,-56 -10.7,-16.3 -28.8,-25.9 -48.3,-25.7 -4.1,0 -7.9,0.2 -8.5,0.4 z m 26.6,19.2 c 8.9,4.2 14.9,9.9 19.5,18.5 3.9,7.3 3.9,7.3 3.9,18.8 0,11 -0.2,11.8 -3.3,18.2 -4.4,9 -11.4,16.1 -19.9,20 -8.6,4.1 -21,5 -29.2,2.3 -20.4,-6.7 -32.1,-25.2 -29.2,-45.9 2.3,-16.1 12.4,-28 28.6,-33.9 7.9,-2.8 21.4,-1.9 29.6,2 z m 140.3,88.6 c 3.3,1.6 8.3,4.6 11,6.7 7,5.1 18.4,17.5 22.3,24.1 5.6,9.5 5.9,9 -4.8,8.7 l -9.3,-0.3 -2.6,-6.5 c -5.3,-13.9 -15,-27.4 -24.5,-34.2 -3.9,-2.9 -3.9,-2.9 -1,-2.2 1.7,0.4 5.7,2 8.9,3.7 z m -22.9,4.7 c 2.3,1.6 5.7,4.8 7.5,7 3.8,4.8 11.4,19.2 12.8,24.3 l 1,3.7 -13.4,0 -13.4,0 0,-19 c 0,-10.5 0.3,-19 0.6,-19 0.3,0 2.5,1.3 4.9,3 z m -56,39 c -0.3,0.5 -1.4,1 -2.3,1 -1.5,0 -1.5,-0.2 -0.2,-1 2,-1.3 3.3,-1.3 2.5,0 z m -21,31 l 0,19 -9.7,0 -9.8,0 -0.7,-2.8 c -1,-3.5 -1,-28.9 0,-32.5 l 0.7,-2.7 9.8,0 9.7,0 0,19 z m 52.5,0 l 0,19 -14.9,0 c -13.2,0 -15,-0.2 -15.5,-1.7 -0.9,-2.2 -0.9,-34 -0.1,-35.3 0.4,-0.6 6.7,-1 15.6,-1 l 14.9,0 0,19 z m -49.6,34.6 c 0.8,0.3 2.2,2.8 3.2,5.6 3.8,11.5 11.7,24.3 20.1,32.5 3,2.9 4.9,5.3 4.3,5.3 -0.5,0 -1,-0.5 -1,-1.1 0,-0.5 -0.4,-0.7 -1,-0.4 -2.4,1.5 -20.1,-10.6 -27.7,-18.9 -6.8,-7.5 -14.7,-20.1 -13.9,-22.1 0.4,-1.1 2.2,-1.5 7.5,-1.5 3.8,0 7.6,0.3 8.5,0.6 z m 49.6,17.9 c 0,22 0.1,21.9 -10,11.6 -6.9,-7 -14.2,-19.6 -15.6,-26.9 l -0.6,-3.2 13.1,0 13.1,0 0,18.5 z"/>
<path d="M 72.7,54.7 c -0.4,0.3 -0.7,3.9 -0.7,7.9 l 0,7.3 -7.7,0.3 -7.8,0.3 -0.3,7.4 c -0.2,5.3 0.1,7.7 1,8.2 0.7,0.5 4.3,0.9 8.1,0.9 l 6.7,0 0,7.5 0,7.5 8,0 8,0 0,-7.5 0,-7.5 7.5,0 c 8.7,0 8.8,-0.2 8.3,-10.5 l -0.3,-6 -7.7,-0.3 -7.8,-0.3 0,-7.3 c 0,-5.8 -0.3,-7.5 -1.6,-8 -2.1,-0.8 -12.9,-0.8 -13.7,0.1 z"/>
<path d="M 244.4,202.9 c -15.6,4.4 -29.2,17.4 -34.4,32.7 -8.6,24.9 2.6,52 26.6,64.2 2.2,1.1 7.8,2.8 12.3,3.7 10.5,2.2 21.8,0.8 31.3,-3.7 l 6.3,-2.9 2.9,3.3 c 11.4,12.9 11.5,12.9 13.3,11.9 1,-0.5 3.6,-2.8 5.7,-5 l 3.9,-4 -5.3,-6.3 c -3,-3.5 -6.2,-7.2 -7.2,-8.3 -1.7,-2 -1.6,-2.2 1.3,-6.5 10.4,-15.6 11.8,-34.8 3.8,-51.7 -4.2,-8.8 -14.3,-19.4 -22.3,-23.3 -12.5,-6.1 -26.2,-7.6 -38.2,-4.1 z m 21.7,10.1 c 26.8,5.1 40.9,34.6 28.1,59.2 -7.4,14.2 -27.1,24.1 -41.9,20.9 -18.6,-4.1 -30.5,-16.3 -33.5,-34.5 -3.3,-20 10.1,-40.5 29.6,-45.2 6.5,-1.6 10.9,-1.7 17.7,-0.4 z"/>
<path d="M 309.1,311.1 c -4.4,3.8 -8.1,7.5 -8.1,8.2 0,0.7 2.3,3.9 5.1,7.2 2.8,3.3 9.3,11.3 14.6,17.8 10.9,13.6 14,15.7 20.2,13.9 5.6,-1.7 11.1,-8.1 11.1,-13 0,-2 -0.8,-4.9 -1.8,-6.3 -2.2,-3.4 -31.3,-34.9 -32.2,-34.9 -0.4,0 -4.4,3.2 -8.9,7.1 z"/>
</svg>
