<svg xmlns="http://www.w3.org/2000/svg" viewBox="0 0 384 384">
<path d="M 11.2,64.3 l -2.2,2.3 0,119 0,119.1 2.3,2.1 2.3,2.2 115,0 115,0 -0.1,-5.8 -0.2,-5.7 -111.1,-0.3 -111.2,-0.2 0,-111.5 0,-111.5 164.5,0 164.5,0 0,84.9 0,84.8 6,4.7 6,4.7 0,-94 0,-94 -2.2,-1.5 c -2,-1.4 -20.2,-1.6 -174.3,-1.6 l -172.2,0 -2.1,2.3 z"/>
<path d="M 27,91.5 l 0,5.5 6,0 6,0 0,-5.5 0,-5.5 -6,0 -6,0 0,5.5 z"/>
<path d="M 51,91.5 l 0,5.5 5.5,0 5.5,0 0,-5.5 0,-5.5 -5.5,0 -5.5,0 0,5.5 z"/>
<path d="M 74,91.5 l 0,5.5 6,0 6,0 0,-5.5 0,-5.5 -6,0 -6,0 0,5.5 z"/>
<path d="M 98,91.5 l 0,5.5 5.5,0 5.5,0 0,-5.5 0,-5.5 -5.5,0 -5.5,0 0,5.5 z"/>
<path d="M 121,91.5 l 0,5.5 6,0 6,0 0,-5.5 0,-5.5 -6,0 -6,0 0,5.5 z"/>
<path d="M 145,91.5 l 0,5.5 5.5,0 5.5,0 0,-5.5 0,-5.5 -5.5,0 -5.5,0 0,5.5 z"/>
<path d="M 168,91.5 l 0,5.5 6,0 6,0 0,-5.5 0,-5.5 -6,0 -6,0 0,5.5 z"/>
<path d="M 192,91.5 l 0,5.5 5.8,0 5.7,0 0,-5.5 0,-5.5 -5.7,0 -5.8,0 0,5.5 z"/>
<path d="M 215,91.5 l 0,5.5 6,0 6,0 0,-5.5 0,-5.5 -6,0 -6,0 0,5.5 z"/>
<path d="M 239,91.5 l 0,5.5 6,0 6,0 0,-5.5 0,-5.5 -6,0 -6,0 0,5.5 z"/>
<path d="M 262,91.5 l 0,5.5 6,0 6,0 0,-5.5 0,-5.5 -6,0 -6,0 0,5.5 z"/>
<path d="M 286,91.5 l 0,5.5 6,0 6,0 0,-5.5 0,-5.5 -6,0 -6,0 0,5.5 z"/>
<path d="M 309,91.5 l 0,5.5 6,0 6,0 0,-5.5 0,-5.5 -6,0 -6,0 0,5.5 z"/>
<path d="M 333,91.5 l 0,5.5 6,0 6,0 0,-5.5 0,-5.5 -6,0 -6,0 0,5.5 z"/>
<path d="M 192.5,120.1 c -7,2 -7.4,3.1 -20.4,50.7 -6.7,24.3 -12.1,44.6 -12.1,45.1 0,0.6 1.3,0.6 3.2,0 1.9,-0.5 35,-0.9 78.3,-0.9 43.3,0 76.4,0.4 78.3,0.9 2.1,0.7 3.2,0.6 3.2,-0.1 0,-0.5 -5.4,-20.9 -12.1,-45.2 -13.1,-47.9 -13.3,-48.5 -20.8,-50.6 -4.5,-1.2 -93.4,-1.2 -97.6,0.1 z m 61,13.4 c 14.7,3.1 25.4,10.5 30.7,21.3 2.8,5.6 3.3,7.7 3.2,13.2 -0.2,10.7 -5.5,19.5 -15.5,26 -9.7,6.3 -17.5,8.4 -30.4,8.4 -13.1,0 -21.1,-2.2 -30.8,-8.8 -18,-12.1 -20.3,-33.4 -5.1,-48.2 11.2,-10.8 30.4,-15.6 47.9,-11.9 z"/>
<path d="M 232,139.1 c -11.7,2 -23.9,9.9 -27.9,18.3 -2.8,5.7 -2.8,14.5 0,20.2 6.2,12.9 26.6,21.4 44.8,18.5 19.3,-3 32.2,-14.5 32.2,-28.6 0,-10.4 -6.4,-18.9 -18.5,-24.6 -9.5,-4.4 -19.4,-5.6 -30.6,-3.8 z m 17.1,5.9 c 1.7,1 1.9,2.2 1.9,11 l 0,9.9 7.3,0.3 c 10.8,0.4 10.4,2 -3.3,13.8 -6.1,5.2 -11.8,9.8 -12.5,10.3 -0.9,0.5 -4.4,-1.8 -10.5,-7 -5.1,-4.3 -10.5,-9 -12.2,-10.4 -1.9,-1.6 -2.9,-3.2 -2.6,-4.5 0.3,-1.6 1.3,-1.9 7.6,-2.2 l 7.2,-0.3 0,-9.4 c 0,-11.6 0.7,-12.5 9.1,-12.5 3.3,0 6.9,0.5 8,1 z"/>
<path d="M 237.8,161.2 l -0.3,10.3 -4.4,0.5 -4.4,0.5 6.1,5.2 c 3.3,2.9 6.3,5.3 6.7,5.3 0.4,0 3.4,-2.4 6.7,-5.3 l 6.1,-5.2 -4.4,-0.5 -4.4,-0.5 -0.3,-10.3 -0.3,-10.2 -3.4,0 -3.4,0 -0.3,10.2 z"/>
<path d="M 56.1,127.3 l -2.1,2.4 0.2,56.7 c 0.3,54.9 0.4,56.8 2.2,58.2 1.1,0.8 2.9,1.4 3.9,1.4 2.5,0 81.9,-55.4 83.1,-58 2.1,-4.5 0.4,-6 -40.8,-34.8 -22.3,-15.5 -41.3,-28.2 -42.4,-28.2 -1,0 -2.8,1.1 -4.1,2.3 z m 41.4,36.7 c 16,11.2 29.4,20.6 29.8,21 0.4,0.3 -9.9,8.1 -23,17.3 -13.1,9.1 -27.1,18.8 -31,21.6 l -7.3,5.2 0,-43.2 c 0,-34.7 0.3,-43 1.3,-42.6 0.7,0.2 14.3,9.6 30.2,20.7 z"/>
<path d="M 163,222.8 c -10.3,5.1 -11,22.5 -1.1,27.7 2.6,1.3 9.9,1.5 53.6,1.5 l 50.7,0 4.6,-4 c 6.2,-5.5 18.5,-11.5 27.8,-13.5 5.6,-1.3 10.5,-1.6 18.5,-1.3 6.3,0.3 10.9,0.1 10.9,-0.5 0,-3.1 -3.6,-7.8 -7.4,-9.7 -4.1,-2 -5.7,-2 -79.2,-2 -69.3,0 -75.2,0.1 -78.4,1.8 z m 19.1,6.5 c 4.7,3.6 5.1,9.7 1,13.8 -3.7,3.7 -7.9,3.8 -12,0.3 -6.4,-5.4 -2.7,-15.4 5.6,-15.4 2.1,0 4.5,0.6 5.4,1.3 z"/>
<path d="M 174.7,234.7 c -1.3,1.2 -0.7,4.1 1,4.7 2.1,0.8 4.8,-1.7 4,-3.8 -0.6,-1.6 -3.8,-2.2 -5,-0.9 z"/>
<path d="M 298.4,242.9 c -11.7,3.2 -19,7.5 -28,16.5 -12.5,12.5 -18,25.8 -17.8,43.1 0.4,32.9 27.8,59.9 60.9,59.8 16.2,0 30.4,-6.1 42.6,-18.3 31.7,-31.5 19.3,-84.8 -23.3,-99.7 -10,-3.6 -24.3,-4.1 -34.4,-1.4 z m 27.7,11.7 c 12.1,3.6 21.5,10.6 28.1,20.8 14.6,22.6 7.8,52.9 -15.1,67.5 -8.5,5.4 -16.2,7.3 -28.1,6.9 -9.8,-0.3 -11.1,-0.6 -18.5,-4.2 -10.7,-5.2 -18.3,-12.8 -23.3,-23.3 -3.4,-7.2 -3.7,-8.6 -4,-18.5 -0.4,-8.9 -0.1,-11.7 1.8,-17.2 5.3,-15.9 17.6,-27.5 34,-32.2 6.4,-1.8 18.7,-1.7 25.1,0.2 z"/>
<path d="M 332,268.1 c -0.8,1.3 -1.9,1.9 -3.4,1.7 -3.5,-0.4 -5.8,1.9 -4.4,4.5 0.9,1.8 0.7,2.3 -1.1,3.5 -2.7,1.8 -2.7,4.3 0,6 1.5,1 1.9,2 1.5,3.7 -0.8,3.1 1.7,5.3 4,3.4 1.4,-1.1 1.9,-1 3.4,0.9 2.3,2.8 5.6,2.9 6.3,0.1 0.5,-1.7 1.1,-2 2.8,-1.6 3.3,0.9 4.9,-0.9 4.2,-4.4 -0.5,-2.5 -0.2,-3.1 1.6,-3.6 2.9,-0.7 2.7,-3.7 -0.4,-5.7 -2,-1.3 -2.3,-2 -1.5,-3.5 1.3,-2.5 -1,-4.4 -4.3,-3.6 -1.9,0.5 -2.8,0.2 -3.7,-1.4 -1.4,-2.7 -3.6,-2.7 -5,0 z m 6.8,11.7 c 0.4,4.2 -2.8,6.1 -6.4,3.7 -2.9,-1.9 -3.1,-3.8 -0.4,-6.5 2.8,-2.8 6.4,-1.3 6.8,2.8 z"/>
<path d="M 293.7,284.6 c -2.4,1.3 -2.8,2 -2.2,4.1 0.4,1.6 0,3.4 -1,5 -1.3,2 -2.3,2.4 -5.2,2.1 -2.8,-0.2 -3.7,0.2 -4.9,2.2 -1.7,3.2 -1.8,5.7 0,6.7 3.6,2.1 3.7,8.6 0.1,9.9 -1.9,0.8 -1.9,2.7 0.1,6.5 1.2,2.5 2,3 3.9,2.5 1.5,-0.4 3.2,0.2 5,1.6 2.2,1.7 2.6,2.6 2.1,5.3 -0.6,3.1 -0.4,3.4 3.5,4.9 4,1.6 4.1,1.6 6.1,-0.9 2.5,-3.2 6.2,-3.2 9.3,0.1 l 2.3,2.5 3.9,-2 c 3.6,-1.8 3.9,-2.2 3.5,-5.4 -0.5,-4.2 2.5,-6.9 6.8,-6.1 2.3,0.5 2.8,0.1 4.5,-3.7 1.5,-3.2 1.6,-4.4 0.7,-4.7 -5.3,-1.7 -5.4,-9.6 -0.1,-11.4 0.7,-0.2 0.5,-1.7 -0.6,-4.5 -1.5,-3.9 -1.9,-4.1 -4.8,-3.6 -4.3,0.7 -7.2,-2.4 -6.4,-6.5 0.5,-2.5 0.2,-3.1 -2.9,-4.5 -4.5,-2.2 -5.2,-2.1 -7.3,0.4 -1,1.3 -2.9,2.1 -4.6,2.1 -1.9,0 -3.4,-0.7 -4.3,-2.1 -1.7,-2.5 -3.6,-2.6 -7.5,-0.5 z m 19.1,18.9 c 6.2,7.2 -1.5,17.7 -10.3,14.1 -6.3,-2.7 -7.5,-9.8 -2.5,-14.8 2.7,-2.6 3.6,-3 6.8,-2.5 2.2,0.4 4.6,1.7 6,3.2 z"/>
<path d="M 27,279.5 l 0,5.5 6,0 6,0 0,-5.5 0,-5.5 -6,0 -6,0 0,5.5 z"/>
<path d="M 51,279.5 l 0,5.5 5.5,0 5.5,0 0,-5.5 0,-5.5 -5.5,0 -5.5,0 0,5.5 z"/>
<path d="M 74,279.5 l 0,5.5 6,0 6,0 0,-5.5 0,-5.5 -6,0 -6,0 0,5.5 z"/>
<path d="M 98,279.5 l 0,5.5 5.5,0 5.5,0 0,-5.5 0,-5.5 -5.5,0 -5.5,0 0,5.5 z"/>
<path d="M 121,279.5 l 0,5.5 6,0 6,0 0,-5.5 0,-5.5 -6,0 -6,0 0,5.5 z"/>
<path d="M 145,279.5 l 0,5.5 5.5,0 5.5,0 0,-5.5 0,-5.5 -5.5,0 -5.5,0 0,5.5 z"/>
<path d="M 168,279.5 l 0,5.5 6,0 6,0 0,-5.5 0,-5.5 -6,0 -6,0 0,5.5 z"/>
<path d="M 192,279.5 l 0,5.5 5.8,0 5.7,0 0,-5.5 0,-5.5 -5.7,0 -5.8,0 0,5.5 z"/>
<path d="M 215,279.5 l 0,5.5 6,0 6,0 0,-5.5 0,-5.5 -6,0 -6,0 0,5.5 z"/>
<path d="M 239,279.5 l 0,5.5 3.4,0 c 3.1,0 3.4,-0.3 5.3,-5.5 l 2.1,-5.5 -5.4,0 -5.4,0 0,5.5 z"/>
</svg>
