<svg xmlns="http://www.w3.org/2000/svg" viewBox="0 0 384 384">
<path d="M 218,40.4 c -4.1,2.4 -25.1,14.4 -46.6,26.8 -21.6,12.4 -40.6,23.4 -42.3,24.4 l -3.1,1.8 0.2,63.5 0.3,63.5 22.5,13 c 63.5,36.5 77.5,44.4 78.2,44 0.4,-0.3 0.8,-54.7 0.8,-121 0,-95.7 -0.3,-120.4 -1.2,-120.4 -0.7,0 -4.7,2 -8.8,4.4 z"/>
<path d="M 299.5,68.8 c -12,11.7 -11.6,9.7 -3.8,19.5 31.4,39.1 32.4,93.1 2.6,133.2 -3.3,4.4 -6.7,8.6 -7.6,9.4 -0.9,0.7 -1.7,1.9 -1.7,2.5 0,2.2 17.7,18.9 19.4,18.3 1.8,-0.7 12.3,-13.8 17.3,-21.6 31.6,-49.3 27.7,-115.4 -9.5,-160.1 -4.7,-5.6 -7.9,-9 -8.4,-9 -0.2,0 -3.9,3.6 -8.3,7.8 z"/>
<path d="M 265.8,102.6 c -4.8,4.9 -8.7,9.3 -8.7,9.9 -0.1,0.5 1.8,3.5 4,6.5 5,6.7 7.4,11.4 10.1,19.4 2.8,8.3 3,26.4 0.4,35.1 -2.1,7.2 -7.5,17.4 -12.3,23.3 l -3.6,4.4 8.9,8.9 c 4.9,4.9 9.4,8.9 10,8.9 1.5,0 11.2,-12.8 15.2,-20 1.7,-3 4.5,-9.8 6.3,-15 2.9,-8.6 3.3,-10.9 3.7,-24.6 0.4,-13.7 0.2,-15.8 -2.1,-24.5 -4,-15.1 -9.9,-26.4 -18.9,-36.3 l -4.4,-4.9 -8.6,8.9 z"/>
<path d="M 50.3,100.6 c -4.7,2.3 -10,8.6 -11.3,13.4 -0.7,2.7 -1,17.5 -0.8,44.8 0.3,40 0.3,40.8 2.5,44.9 2.5,4.7 7.1,8.4 12.2,10.2 2.1,0.7 11.8,1.1 26.2,1.1 l 22.9,0 0,-58 0,-58 -24.2,0 c -20.2,0 -24.8,0.3 -27.5,1.6 z"/>
<path d="M 268.8,294.6 c -5.9,1.8 -13.5,9 -16.8,15.9 -1.9,4.1 -2.5,7 -2.8,15.8 -0.5,13.5 1.6,20.3 8.7,27.6 13.6,14 38.3,11.4 48.6,-5 7.4,-11.7 7.2,-32.2 -0.3,-43.4 -3.5,-5 -10.1,-10.1 -15,-11.5 -5.2,-1.4 -16.8,-1.1 -22.4,0.6 z m 19.5,6.5 c 5.3,1.4 10,6 12.8,12.1 1.9,4.3 2.3,7.1 2.4,14.3 0,11.5 -2,17 -8.2,22.4 -11.2,9.9 -28.5,6.4 -35.5,-7.3 -2.6,-4.9 -3.6,-18 -1.9,-24.1 3.7,-14 16.5,-21.3 30.4,-17.4 z"/>
<path d="M 91.9,296.7 c -0.6,1.5 -3.5,9.1 -6.4,16.8 -3,7.7 -8.3,21.5 -11.8,30.7 l -6.5,16.8 4.3,0 c 4.3,0 4.4,0 6.3,-5.3 1.1,-2.8 2.3,-6.3 2.7,-7.7 1.4,-4.8 2,-5 15.9,-5 7.2,0 13.6,0.4 14.3,0.8 0.7,0.4 2.5,4.3 4.1,8.7 l 2.9,8 4.6,0.3 4.5,0.3 -9,-23.3 c -4.9,-12.8 -10.7,-27.8 -12.8,-33.3 l -3.8,-10 -4.1,-0.3 c -3.7,-0.3 -4.2,0 -5.2,2.5 z m 11.6,24.5 c 2.5,7 4.5,13.1 4.5,13.7 0,1.3 -21.6,1.6 -22.3,0.3 -0.2,-0.4 2.1,-7.8 5.2,-16.4 6.5,-18.1 5.2,-18.4 12.6,2.4 z"/>
<path d="M 136,318.3 c 0,27 0.8,31.8 5.8,37.3 5.1,5.6 8.7,6.9 18.8,6.9 8.3,0 9.5,-0.2 14,-3 3.8,-2.4 5.5,-4.3 7.9,-9 l 3,-6 0.3,-25.3 0.3,-25.3 -3.8,0.3 -3.8,0.3 -0.5,25 c -0.5,22.8 -0.7,25.3 -2.5,28.5 -3,5 -7.6,7.3 -14.5,7.3 -7,-0.1 -11.1,-2.1 -14.2,-7 -2.2,-3.7 -2.3,-4.7 -2.8,-28.8 l -0.5,-25 -3.7,-0.3 -3.8,-0.3 0,24.4 z"/>
<path d="M 196,297.5 l 0,3.4 9.3,0.3 9.2,0.3 0.3,29.7 0.2,29.8 4,0 4,0 0.2,-29.8 0.3,-29.7 9.3,-0.3 9.2,-0.3 0,-3.4 0,-3.5 -23,0 -23,0 0,3.5 z"/>
</svg>
