<svg xmlns="http://www.w3.org/2000/svg" viewBox="0 0 384 384">
<path d="M 182,24.4 c -11.8,4.2 -35.5,16.9 -58.5,31.3 -12.8,8 -31.4,17.9 -39.5,21.2 -4.1,1.6 -12,3.7 -17.4,4.6 -11.3,1.9 -13.7,3.1 -17.1,8.9 l -2.4,4.2 1.4,17.9 c 4.2,50.4 13.3,90.5 28.7,126.5 19.8,46.4 51.4,84.5 92.3,111.5 14.2,9.3 19.4,11.8 23.8,11.2 4.7,-0.6 19.2,-9.2 32.4,-19.1 53.6,-40 86.4,-95.2 101.8,-171 4,-20 5.8,-33.2 8,-58.4 1.5,-18 1.5,-18.4 -0.5,-22.3 -2.7,-5.2 -6.7,-7.5 -15.4,-8.9 -17.4,-2.8 -27,-7.1 -61.6,-28 -25.7,-15.4 -49.3,-27.8 -58.4,-30.5 -6.7,-2 -10,-1.9 -17.6,0.9 z m 57.7,90.8 c 20.2,30.7 19.7,29.8 18.6,30.9 -2.1,2.1 -57.8,26.7 -58.1,25.6 -0.1,-0.7 1.3,-6.8 3.2,-13.7 2.5,-9.1 3.1,-12.7 2.3,-13.2 -3.6,-2.3 -10.3,-3.3 -22.7,-3.2 -12.3,0 -14.2,0.3 -21,2.8 -10.6,4 -15.3,6.5 -25,13.4 -4.6,3.4 -8.6,5.9 -8.8,5.7 -0.2,-0.2 1.8,-4.5 4.4,-9.6 8.9,-16.9 24.5,-30.6 41.6,-36.7 6.6,-2.3 8.9,-2.6 23.8,-2.7 l 16.5,-0.3 3.8,-11.6 c 2.1,-6.4 4.2,-11.6 4.6,-11.6 0.4,0 8,10.9 16.8,24.2 z m -56.7,72.9 c 0,0.6 -1.4,6.5 -3.2,13.1 -2,7.7 -2.8,12.2 -2.2,12.8 1.7,1.7 14.5,4 22.3,4 4.1,0 10.4,-0.7 14,-1.6 9.2,-2.2 23.2,-9.1 32.1,-15.7 4.1,-3 7.7,-5.4 7.8,-5.2 0.2,0.2 -1.7,4.5 -4.3,9.5 -8.4,16.2 -24.5,30.7 -40,35.8 -8.9,3 -21.4,4.4 -31.5,3.6 -10.3,-0.8 -9.2,-1.8 -13.6,12.8 -1.6,5.4 -3.3,9.6 -3.9,9.5 -1.6,-0.5 -35.5,-51.2 -35.5,-53.1 0,-0.3 1.5,-1.3 3.3,-2.3 7,-3.7 52.3,-24.2 53.5,-24.3 0.6,0 1.2,0.5 1.2,1.1 z"/>
</svg>
