<svg xmlns="http://www.w3.org/2000/svg" viewBox="0 0 384 384">
<path d="M 218,8.9 c -8.3,2.7 -13.1,5.5 -19.3,11.1 -11,10 -15.8,21.3 -15.8,36.6 0,12.7 2.1,18.3 19.3,53.9 14.9,30.8 20.1,44.4 21.9,57.1 1.9,13.5 1.1,12.4 7.9,12.4 l 5.9,0 0.6,-4.8 c 2.6,-19.6 5.6,-27.8 23,-63.7 18.2,-37.4 19.9,-42.7 19.3,-57.8 -0.3,-9.3 -0.7,-10.9 -4.1,-18 -6.3,-13.3 -17.5,-22.9 -31.6,-27.1 -7.2,-2.1 -20,-2 -27.1,0.3 z m 26.4,25.5 c 8.9,5.2 13.1,13.3 12.4,24 -0.5,8.6 -4.4,14.9 -11.7,19.3 -6.5,3.9 -12.4,4.9 -19,3.3 -6.8,-1.6 -12.4,-5.9 -16.1,-12.2 -6.7,-11.8 -2.1,-28.5 9.5,-34.5 7.9,-4.2 17.7,-4.1 24.9,0.1 z"/>
<path d="M 145.7,32 c -62.3,5.8 -113.2,47 -131.1,106.2 -4.2,13.8 -5.9,25.9 -5.9,42.8 0,17.9 2.1,31 7.7,47.8 16.9,50.2 61.2,88.7 113.5,98.6 12.8,2.4 44.3,2.2 57.1,-0.4 11.4,-2.3 23.8,-6.5 34.5,-11.7 l 7.5,-3.6 -0.7,-5.1 c -0.5,-2.8 -0.7,-9.2 -0.6,-14.2 l 0.2,-9.1 -8.2,4.8 c -7.5,4.5 -9.7,5.5 -9.7,4.5 0,-0.2 2,-4.6 4.3,-9.7 2.4,-5.2 4.9,-10.6 5.5,-12.2 1.1,-2.5 1.6,-2.7 7.1,-2.7 l 5.9,0 2.7,-5.2 c 1.5,-2.8 5.1,-8.3 8.1,-12.2 l 5.3,-7.1 -9.7,-0.5 c -9.6,-0.5 -9.7,-0.5 -9.6,-3 0.1,-2.2 2.4,-20 4,-30.3 l 0.6,-3.7 -12.4,0 -12.4,0 -1.3,9.2 c -1.6,12.7 -4.2,25 -5.4,26.6 -0.7,0.9 -10.7,1.2 -46.1,1 l -45.1,-0.3 -1.7,-8 c -2.1,-10 -4.8,-30.6 -4.8,-36.8 l 0,-4.7 48.1,0 48.2,0 -0.7,-9.2 c -0.3,-5 -0.6,-10.3 -0.6,-11.8 l 0,-2.8 -47.5,-0.7 -47.5,-0.7 0,-4.3 c 0,-5.8 2.7,-26.2 4.8,-36 l 1.7,-8 23.5,-0.6 c 12.9,-0.4 27.9,-0.7 33.2,-0.8 l 9.6,-0.1 -5.6,-12 -5.6,-12 -20.6,0 c -22.4,0 -25.4,-0.4 -24.5,-2.9 2.4,-6.4 10,-17.6 16.1,-23.7 6.5,-6.5 10.1,-8.7 18,-10.9 0.7,-0.2 1.5,-2.8 1.9,-5.7 0.4,-2.9 1.3,-8.2 2.1,-11.7 0.8,-3.5 1.3,-6.5 1.1,-6.7 -0.9,-1 -7.1,-1.1 -15,-0.4 z m -45.7,47.3 c -2.7,5.8 -5,11.1 -5,11.7 0,1.9 -3.7,2.6 -15.3,2.9 l -11.2,0.3 2,-2.2 c 5.2,-5.8 32.9,-24.9 34.2,-23.6 0.2,0.2 -1.9,5.1 -4.7,10.9 z m -14,39.4 c 0,0.5 -0.9,5.8 -2,12 -1.1,6.2 -2.5,17.1 -3.2,24.2 l -1.2,13.1 -22.9,0 -22.9,0 0.6,-4.8 c 1.3,-8.8 5.6,-23.5 9.7,-32.8 4.2,-9.7 5.1,-10.9 8.4,-11.7 3.3,-0.8 33.5,-0.8 33.5,0 z m -5.3,87.3 c 0.7,6.9 2,17 2.9,22.5 0.9,5.5 1.7,10.9 1.8,12 0.1,1.9 -0.6,2 -17.3,2.3 -11.5,0.2 -17.8,-0.1 -18.7,-0.8 -3.9,-3.3 -15.4,-37.7 -15.4,-46.3 l 0,-2.7 22.7,0.2 22.7,0.3 1.3,12.5 z m 18.5,74.5 c 3.1,6.9 5.3,12.5 4.8,12.5 -2.9,0 -25.7,-15.8 -31.4,-21.9 l -3,-3.1 12,0 12,0 5.6,12.5 z m 94.2,-11.7 c 1,1.6 -9,17.7 -14.8,23.9 -7.3,7.9 -12.9,11.3 -19.8,12 -7.8,0.7 -16.2,-3.8 -23.9,-13 -5.8,-6.9 -14.4,-21.9 -13.2,-23.1 0.9,-0.9 71.1,-0.7 71.7,0.2 z"/>
<path d="M 281.7,126.7 l -6.8,13.8 2.4,9.5 c 1.4,5.2 2.8,11.4 3.2,13.7 l 0.7,4.3 -8.1,0 c -9.5,0 -9,-0.8 -9.4,14.5 l -0.2,10 8.8,0.3 c 6.9,0.2 8.7,0.6 8.7,1.8 0,2.9 -3.2,17 -5.6,24.4 -1.3,4.1 -2.2,7.5 -2.1,7.6 0.4,0.3 25.9,-1.5 26.3,-1.9 0.2,-0.2 1.3,-3.8 2.3,-7.9 6,-23.2 5.4,-53.7 -1.4,-77.2 -2.8,-9.8 -9.6,-25.8 -11,-26.3 -0.6,-0.2 -4.1,5.9 -7.8,13.4 z"/>
<path d="M 287.5,236.4 c -25.7,7.1 -41.9,22.8 -48.6,47.1 -6.7,24.5 3.1,52.3 23.9,67.7 24.9,18.4 59.3,16.6 81.5,-4.2 22.8,-21.3 28,-50.4 13.9,-77.5 -4.9,-9.5 -18.2,-22.8 -27.2,-27.3 -15.1,-7.5 -30.3,-9.5 -43.5,-5.8 z m 27.6,13.2 c 17.6,5.2 31.1,18.7 36.3,36.3 0.9,3 1.6,9.1 1.6,13.6 0,23.2 -15.2,43.2 -37.9,49.9 -8.3,2.4 -22.1,2.1 -30.1,-0.7 -16.1,-5.8 -28.2,-18 -33,-33.5 -2.7,-8.7 -2.7,-22.7 0,-31.3 4.8,-15.8 17.9,-28.9 33.9,-34 7.3,-2.3 21.8,-2.5 29.2,-0.3 z"/>
<path d="M 294.9,265.9 c -3.3,3.3 -3.8,7.5 -1.4,12 1.7,3.4 3.3,4.1 8.6,4.1 5.7,0 8.9,-3.4 8.9,-9.4 0,-3.7 -0.5,-4.8 -3.1,-7 -4.3,-3.6 -9.1,-3.5 -13,0.3 z"/>
<path d="M 293.3,291.6 c -1,0.4 -1.3,5.7 -1.3,21.5 l 0,20.9 9.5,0 9.5,0 -0.2,-21.3 -0.3,-21.2 -8,-0.2 c -4.4,-0.1 -8.6,0.1 -9.2,0.3 z"/>
</svg>
