<svg xmlns="http://www.w3.org/2000/svg" viewBox="0 0 384 384">
<path d="M 177,23.6 c -14,3.7 -24.8,11.2 -29.5,20.5 -4.9,9.5 -5.9,18.8 -4.9,46.4 0.5,13.7 0.9,30.2 0.9,36.5 0,13.6 0,13.5 -14.9,33.2 -12,15.9 -16.4,23 -24.6,40.3 -10.9,22.7 -15.2,34.7 -15.8,43.7 -0.2,4.3 -0.1,7.8 0.4,7.8 0.5,-0.1 2,-0.7 3.4,-1.5 3.3,-1.9 11.3,-1.9 14.9,-0.1 l 2.8,1.5 -2,-4 c -2.8,-5.6 -3.3,-15.1 -1.3,-24 1.8,-8.2 7.1,-21.6 11.1,-28.5 4.5,-7.6 3.9,-4.2 -0.9,5.2 -7.5,15 -9,20.4 -9,32.9 -0.1,9.4 0.2,11.6 2.1,15.1 4.2,7.8 4.8,7.3 5,-4.4 0.2,-14 3.4,-26.4 10.3,-40.3 7,-13.8 9.6,-17 16.9,-20.3 3.3,-1.5 6.3,-3.1 6.6,-3.6 0.3,-0.5 -0.8,-1.6 -2.4,-2.5 -8.4,-4.3 -7.9,-10.1 2,-24.5 3.3,-4.9 3.8,-6.3 4.3,-13.5 0.5,-7.6 0.4,-8.2 -2.4,-12.4 -4.6,-6.8 -4,-13.1 1.7,-19.3 2.5,-2.6 2.5,-2.7 0.9,-7.4 -1.8,-5.4 -2.1,-16.9 -0.5,-21.1 5.2,-13.8 20,-6.7 22.1,10.7 0.3,2.4 0.6,2.5 6.8,2.5 l 6.5,0 0.6,-5.5 c 1,-9.2 4.9,-14.5 12.6,-17.1 12.9,-4.2 24.2,14.3 19.2,31.2 -1.1,3.5 -1,4 1.5,6.9 2.8,3.4 3.2,6.9 1.5,13.5 -2.2,8.4 -2.2,8.7 2.9,19.1 2.8,5.6 6.7,14.8 8.7,20.5 2,5.7 6.5,16.5 10,23.9 10.6,22.7 12.4,30.7 12.5,54.9 l 0,14.4 3.7,3.2 c 3.5,3 3.8,3.7 4,9.1 0.1,3.3 0.2,6.2 0.3,6.5 0.1,1.4 7,3.9 10.8,3.9 4.4,0 9.8,-3.4 14.6,-9.1 4.5,-5.4 5.2,-7.6 3.1,-9.9 -4.1,-4.5 -21.4,-6.7 -27.6,-3.4 -1.7,0.8 -3.3,1.3 -3.7,1 -0.3,-0.4 1.7,-1.6 4.5,-2.8 l 5.1,-2.1 2.4,-8.1 c 1.8,-6.3 2.3,-10.5 2.3,-19.1 0,-10.7 -0.1,-11.2 -3.8,-18.9 -2.9,-6.1 -5.4,-9.6 -11,-15 -6.4,-6.3 -6.7,-6.7 -2.5,-3.8 5.8,4 13.8,12.9 16.7,18.7 4.6,9.3 5,24.8 0.9,38.8 -1,3.8 -1.8,7 -1.6,7.1 0.2,0.2 3.2,0.9 6.8,1.5 6.4,1.3 13.3,4.1 14.5,6.1 0.7,1.1 4.5,1.3 6.9,0.4 0.8,-0.3 2.3,-2.9 3.2,-5.7 2.4,-7.2 1.4,-22.3 -2.1,-33.7 -3.7,-11.8 -14,-32.6 -21.7,-44 -22,-32.5 -25.8,-38.5 -28.8,-45.5 -5.8,-14.2 -8.1,-25.2 -8.5,-42 -0.6,-23.6 -5.5,-37.8 -17.4,-49.5 -13.3,-13.2 -33.9,-19 -51.1,-14.4 z m 38.9,18 c 1.2,1.5 2.1,3 2.1,3.5 0,1.2 -5.5,3.9 -8,3.9 -1.7,0 -2,-0.6 -2,-3.8 0,-6.4 4.2,-8.3 7.9,-3.6 z m 0.6,26.5 c 2,1.8 4.1,4.1 4.6,5.3 0.7,1.3 -0.2,0.7 -2.3,-1.4 -1.8,-1.9 -4.4,-4.3 -5.8,-5.2 -1.4,-0.9 -2,-1.7 -1.3,-1.7 0.7,-0.1 2.8,1.3 4.8,3 z m -44.2,3.7 c 1.5,1.4 2.7,3 2.7,3.5 0,0.5 -1.8,-0.7 -4,-2.7 -2.2,-2 -4.5,-3.6 -5,-3.6 -0.6,0 -1,-0.5 -1,-1 0,-1.4 3.8,0.5 7.3,3.8 z m 65.9,53.7 c 5.1,2.9 7.4,6.6 5.8,9.6 -1.4,2.5 -3.1,2.4 -6.4,-0.2 -3,-2.4 -5.6,-6.9 -5.6,-9.9 0,-2.6 0.8,-2.5 6.2,0.5 z"/>
<path d="M 156.2,84.3 c -3.1,3.6 -2.1,12 1.9,17.2 l 2.2,2.7 -5.2,5.2 c -4.2,4.3 -5.1,5.8 -5.1,8.7 0,4.6 3.6,9.7 12.1,17 8.5,7.5 9.5,7.9 18.2,7.9 8,0 7.5,0.2 26.7,-10.3 10.2,-5.7 12.7,-8.2 13.6,-14.3 1.1,-7.3 -0.7,-9.4 -10.8,-13.3 l -2.7,-1 3.1,-3.1 c 2.8,-2.8 3,-3.5 2.6,-8.1 -0.7,-6.5 -3.7,-9.9 -8.8,-9.9 -5.7,0 -8,3.1 -8,10.8 l 0,6.2 -4.1,-2.1 c -3.5,-1.8 -5.5,-2 -12.3,-1.7 -4.5,0.3 -8.8,0.8 -9.7,1.2 -1.4,0.6 -1.7,-0.1 -2.1,-4.4 -0.4,-3.4 -1.3,-5.9 -2.8,-7.5 -2.5,-2.7 -7.1,-3.3 -8.8,-1.2 z m 52.8,4.4 c 0,1.3 -0.3,1.3 -1.5,0.3 -0.8,-0.7 -1.5,-1.9 -1.5,-2.7 0,-1.3 0.3,-1.3 1.5,-0.3 0.8,0.7 1.5,1.9 1.5,2.7 z m -45.2,0.4 c 0.2,2.3 0.2,2.3 -1.3,0.5 -1.8,-2.4 -2,-3.9 -0.2,-3.4 0.6,0.3 1.3,1.5 1.5,2.9 z m 9.2,12.4 c -1.4,1.6 -4,2 -4,0.6 0,-1 1.7,-1.9 3.9,-2 1.1,-0.1 1.1,0.2 0.1,1.4 z m 16.4,0 c 0.3,1 -0.1,1.5 -1.3,1.5 -1,0 -2.4,-0.7 -3.1,-1.5 -1.1,-1.3 -0.9,-1.5 1.3,-1.5 1.4,0 2.7,0.7 3.1,1.5 z m 25.6,13.5 c 0,1.4 -18.6,12.1 -26,14.9 -12.4,4.6 -25,3 -33.7,-4.3 -4.8,-4 -4.3,-6.6 0.5,-2.8 6.8,5.3 10,6.5 18.8,6.6 l 8.2,0.1 14.9,-7.7 c 14.9,-7.7 17.3,-8.6 17.3,-6.8 z"/>
<path d="M 95,254.8 c -1.9,1.1 -6.7,5.9 -10.7,10.8 -7.9,9.9 -11.3,12.1 -23.1,14.9 -3.9,0.9 -8.3,2.6 -9.7,3.7 l -2.6,2 0.3,16.1 c 0.2,8.9 -0.1,19.6 -0.5,23.8 -0.9,7.3 -0.8,7.6 1.8,10.7 3.1,3.7 9.1,5.8 29.3,10.2 7.3,1.6 21.3,5.7 31.1,9 26.3,8.9 30.5,8.4 43.5,-4.8 l 4.8,-5 -0.3,-8.5 c -0.4,-8.3 -0.5,-8.7 -5.2,-15.4 -4.6,-6.4 -16.2,-23.8 -30.4,-45.5 -9.6,-14.6 -18.6,-23.8 -23.5,-23.8 -0.7,0 -2.9,0.8 -4.8,1.8 z"/>
<path d="M 244.3,261.2 c -1.2,0.6 -2.4,1.7 -2.8,2.5 -0.3,0.9 -1,11.1 -1.5,22.8 -0.5,11.9 -1.9,27 -3.1,34.2 -2.8,17.5 -2.4,27.4 1.4,33.2 4.3,6.5 9.6,8.4 21.1,7.9 10.7,-0.5 14.4,-2.1 23.3,-9.9 7.9,-7 22.5,-17.2 35.9,-25.3 11.9,-7 17.4,-12.1 17.4,-16.1 0,-1.6 -1.5,-3.6 -4.7,-6.2 -2.6,-2.1 -8.4,-7.4 -12.8,-11.8 -8.6,-8.5 -9.5,-10.2 -9.5,-19.4 0,-8.4 -5.2,-12.2 -9.9,-7.2 -9.8,10.4 -12,12.5 -15.3,14.2 -4.1,2.1 -11.1,2.5 -15.5,0.8 -1.5,-0.5 -4.3,-2.4 -6,-4.2 -3,-2.8 -3.3,-3.7 -3.3,-8.7 0,-3.1 -0.5,-6.1 -1.2,-6.8 -1.5,-1.5 -10.5,-1.5 -13.5,0 z"/>
<path d="M 127.4,273.7 c 4,6 10.5,16.1 14.5,22.5 4,6.5 7.6,11.8 8,11.8 0.3,0 2.1,-0.9 3.9,-2 2.8,-1.7 3.2,-2.5 3.2,-6 0,-2.3 -0.7,-5.4 -1.5,-7 -1.2,-2.4 -33.3,-30 -34.8,-30 -0.3,0 2.7,4.8 6.7,10.7 z"/>
<path d="M 226.5,312 c -14,11.1 -29.2,16.1 -49.1,16.4 l -13.1,0.1 0.5,8.5 c 0.2,4.7 0.6,8.6 0.7,8.8 0.2,0.2 10.1,-0.2 22.1,-0.8 15.7,-0.8 24.3,-0.8 30.4,-0.1 11.7,1.5 11,1.7 11,-3.2 0,-3.8 1.9,-19.1 3.6,-29.5 0.3,-2.3 0.3,-4.2 -0.2,-4.1 -0.5,0 -3.1,1.8 -5.9,3.9 z"/>
</svg>
