<svg xmlns="http://www.w3.org/2000/svg" viewBox="0 0 384 384">
<path d="M 21.5,58.4 c -3.7,1.6 -7,5.2 -8.4,8.9 -0.8,1.9 -1.1,34.5 -1.1,103 0,95.6 0.1,100.4 1.9,103.7 1,1.9 3.3,4.5 5.1,5.8 l 3.3,2.2 61.2,0 c 33.6,0 61.4,0.2 61.6,0.4 0.2,0.2 0.3,7.2 0.1,15.5 l -0.3,15.1 -36.3,0 c -29.7,0 -36.6,0.3 -38.2,1.4 -1.7,1.3 -1.9,2.7 -1.9,14.1 0,11.4 0.2,12.8 1.9,14.1 3,2.1 188.2,2.1 191.2,0 1.7,-1.3 1.9,-2.7 1.9,-14.1 0,-11.4 -0.2,-12.8 -1.9,-14.1 -1.6,-1.1 -8.5,-1.4 -38.2,-1.4 l -36.3,0 -0.3,-15.1 c -0.2,-8.3 -0.1,-15.3 0.1,-15.5 0.2,-0.2 14.6,-0.4 31.9,-0.4 28.2,0 31.4,-0.2 30.8,-1.6 -0.3,-0.9 -0.6,-3.1 -0.6,-5 l 0,-3.4 -111.9,0 -112,0 -1.5,-2.2 c -1.4,-2 -1.6,-13.2 -1.6,-100.5 0,-97 0,-98.3 2,-100.3 2,-2 3.3,-2 142,-2 138.7,0 140,0 142,2 2,2 2,3.3 2,62.5 l 0,60.5 5,0 5,0 -0.2,-62.4 c -0.3,-61.3 -0.3,-62.5 -2.4,-65.2 -1.1,-1.5 -3.3,-3.7 -4.8,-4.8 -2.7,-2.1 -3,-2.1 -145.4,-2.3 -117.4,-0.2 -143.2,0 -145.7,1.1 z m 154.5,239.1 l 0,15.5 -10,0 -10,0 0,-15.5 0,-15.5 10,0 10,0 0,15.5 z m 77,31 l 0,5.5 -87,0 -87,0 0,-5.5 0,-5.5 87,0 87,0 0,5.5 z"/>
<path d="M 144.7,110.5 c -22.5,4.3 -43,14.9 -59.5,30.9 -19,18.4 -22.7,27.9 -14.1,36.2 2.6,2.5 3.8,2.9 8.4,2.9 4.9,0 5.8,-0.3 9.4,-3.9 2.2,-2.2 4.2,-3.8 4.3,-3.5 0.2,0.2 1.6,3.1 3.2,6.4 9.4,20 28.7,36.3 49.2,41.5 10.7,2.8 29.1,2.8 39.8,0 22,-5.6 43.5,-24.4 50.7,-44.4 0.7,-2 1.6,-3.6 2,-3.6 0.4,0 2.2,1.5 4.1,3.4 5.8,5.8 13.2,6 18.7,0.6 6.6,-6.6 4.9,-13.9 -6.1,-26.8 -16,-18.6 -36.9,-31.7 -60.5,-37.9 -12.5,-3.2 -37.1,-4.1 -49.6,-1.8 z m 31.9,29.3 c 4.7,2.4 10,8.1 12,12.8 1.8,4.3 1.8,14.5 0,18.8 -0.7,1.8 -2.8,4.9 -4.6,7 -14.9,16.9 -43,6.2 -43,-16.4 0.1,-10 5.3,-18.2 14.5,-22.7 6.1,-2.9 14.8,-2.7 21.1,0.5 z m -43.1,2.9 c -4.2,10.1 -4.8,12.3 -4.8,19.3 0,21.2 15.8,37 36.9,37 27.2,0 45.3,-28.6 33.5,-53.1 -1.2,-2.3 -1.9,-4.4 -1.7,-4.6 0.7,-0.8 15,6.9 21.1,11.2 3.3,2.4 7.3,5.7 9,7.4 l 3,3.2 -2.4,6.7 c -11.4,32.9 -48.3,51.4 -81.6,41.2 -17.1,-5.3 -32.9,-18.6 -40.3,-34.1 -5.4,-11.2 -5.9,-13.5 -3.6,-16.1 3.7,-4 14,-11.4 21.9,-15.5 9,-4.8 10,-5.1 9,-2.6 z"/>
<path d="M 303.5,203.1 c -18.7,5.1 -32.6,16.2 -40.3,32 -11.7,23.8 -7.4,49.7 11.3,68.4 11.8,11.9 25.4,17.5 42.1,17.5 16.5,0 30.3,-5.8 41.9,-17.4 12.2,-12.2 18.1,-27.4 17.3,-44.6 -0.6,-12.1 -3.6,-21.1 -10.3,-31 -8.6,-12.7 -20.5,-20.7 -37.2,-24.9 -9.8,-2.5 -15.5,-2.5 -24.8,0 z m 25.6,12.3 c 14,4.3 23.7,12.4 30.1,25.3 4,8.1 4.3,9.2 4.6,18.7 0.3,8.4 0,11.2 -1.8,16.6 -4.3,12.8 -13.8,23.7 -25.8,29.3 -6.5,3.1 -7.2,3.2 -19.8,3.2 l -13,0 -7.8,-3.8 c -10.1,-5.1 -17.2,-12.2 -22.3,-22.3 l -3.8,-7.8 0,-13 c 0,-12.7 0.1,-13.3 3.2,-19.9 5.6,-11.7 17.1,-21.9 29.1,-25.8 6.9,-2.2 21,-2.5 27.3,-0.5 z"/>
<path d="M 310.5,230.5 c -2.8,2.7 -3.4,8.8 -1.2,11.6 2.1,2.7 5.7,4.1 9.2,3.5 4,-0.8 6.4,-3.4 7.1,-7.8 1.4,-8.1 -9.3,-13.2 -15.1,-7.3 z"/>
<path d="M 308.7,254.7 c -0.4,0.3 -0.7,9.3 -0.7,20 l 0,19.3 8.5,0 8.5,0 0,-20 0,-20 -7.8,0 c -4.3,0 -8.2,0.3 -8.5,0.7 z"/>
</svg>
