<svg xmlns="http://www.w3.org/2000/svg" viewBox="0 0 384 384">
<path d="M 287.2,22 c -2,1.3 -3.5,3.1 -3.8,4.9 -0.4,2 -10.6,12.8 -36.3,38.5 l -35.6,35.6 -24.9,-24.9 c -16.5,-16.5 -25.3,-26.1 -26,-28.2 -3.6,-10.7 -19.6,-8.8 -19.6,2.4 0,5.2 1.5,7.6 6,9.6 3.4,1.5 43,38.8 43,40.5 0,0.3 -26.4,0.7 -58.7,0.8 l -58.8,0.3 -5.7,2.8 c -6.9,3.4 -13.1,10.1 -15.2,16.4 -0.9,2.6 -1.6,7.7 -1.6,11.5 l 0,6.8 4.8,0 c 2.6,0 7.1,0.3 9.9,0.6 l 5.3,0.7 0,-9.2 0,-9.1 120.5,0 c 66.3,0 120.8,-0.1 121.3,-0.3 0.4,-0.1 0.8,22.1 1,49.5 l 0.2,49.6 10,-0.1 10.1,-0.2 -0.3,-49 -0.3,-49 -3.1,-5.5 c -1.8,-3.2 -5.2,-7.1 -8,-9.3 -8.5,-6.5 -10.3,-6.7 -51.8,-6.7 l -37.1,0 29.5,-29.6 c 21.2,-21.2 30.7,-30.1 33.7,-31.5 8.3,-3.6 9.5,-12.8 2.4,-17.6 -4.2,-2.8 -6.6,-2.9 -10.9,-0.3 z"/>
<path d="M 95.6,132.1 c -4.8,1.1 -10.1,5 -12.6,9.2 l -1.9,3.1 3.1,1.9 c 3,1.8 3.2,1.8 4.5,0.1 0.7,-1 1.3,-2.1 1.3,-2.6 0,-0.4 1.3,-1.4 3,-2.3 2.5,-1.3 12.5,-1.5 77.2,-1.5 57.4,0 74.9,0.3 76.8,1.3 1.3,0.7 3.5,2.8 4.7,4.6 l 2.3,3.4 0,53.7 0,53.7 -3.4,3.9 -3.4,3.9 -75.6,0.3 c -83.5,0.3 -79.8,0.5 -82.8,-6 -0.9,-2 -1.3,-4.8 -1.1,-7.1 0.6,-4.3 0.6,-4.3 -4.2,-2 -2.9,1.4 -3.5,2.2 -3.5,4.7 0.1,4 3,10.5 6.1,13.3 5.9,5.4 3.8,5.3 84.9,5.3 65.5,0 75.5,-0.2 78.8,-1.5 4.7,-2 7.9,-5 10.3,-9.7 1.8,-3.5 1.9,-6.6 1.9,-59.2 0,-36.6 -0.4,-56.4 -1.1,-58.3 -0.5,-1.5 -2.7,-4.5 -4.7,-6.6 -6.7,-6.8 -5,-6.7 -85.1,-6.6 -39.8,0.1 -73.3,0.5 -75.5,1 z"/>
<path d="M 282.7,132.4 c -5.1,1.9 -7.3,4 -9.3,9.2 -2.1,5.6 -1.2,10.4 2.7,14.9 5.7,6.5 14.9,7.1 21.4,1.4 12.3,-10.8 0.6,-31 -14.8,-25.5 z"/>
<path d="M 40.3,151.9 c -11.5,4.2 -21.2,12.9 -26.8,24.1 -1.5,3 -4,6.6 -5.6,8.1 -2.9,2.7 -2.9,2.8 -2.9,14.6 0,10.6 0.2,12.2 2,14.1 1.2,1.2 2.5,2.2 2.9,2.2 0.5,0 2.3,2.5 4.1,5.6 6.7,12 17.9,20.9 29.7,23.9 3.7,0.9 8.5,2.1 10.6,2.7 2.7,0.8 4.3,0.8 6,0 1.2,-0.6 4.3,-1.3 6.9,-1.7 11.1,-1.5 26.1,-12.1 32.3,-23 1.6,-2.8 4.6,-6.6 6.7,-8.6 l 3.8,-3.6 0,-11.1 0,-11.2 -3.3,-3.7 c -1.9,-2.1 -4.9,-6.6 -6.7,-10.1 -4.2,-7.9 -13.3,-16.5 -22,-20.6 -6.1,-2.9 -7.3,-3.1 -19.5,-3.4 -10.7,-0.2 -13.9,0.1 -18.2,1.7 z m 31.4,3.3 c 8.9,3 17.7,9.6 23.1,17.6 2.3,3.5 4.2,6.9 4.2,7.5 0,0.9 -10.7,1.2 -41.8,1.1 -46.6,-0.1 -43.3,0.6 -38.1,-7.6 5.7,-8.9 15.2,-16.2 25.4,-19.4 6.6,-2.1 19.5,-1.7 27.2,0.8 z m 32.5,31.5 c 1.5,1.4 1.8,3.2 1.8,12.4 0,10 -0.2,10.9 -2.2,12.3 -2,1.4 -8.1,1.6 -46.6,1.6 l -44.3,0 -2.4,-2.5 c -2.3,-2.2 -2.5,-3.2 -2.5,-12 0,-14.8 -4.7,-13.5 49.2,-13.5 40.6,0 45.3,0.2 47,1.7 z m -6.2,30.1 c 0,1.9 -6,10 -10.3,13.9 -10,9.2 -24.4,13.6 -37.2,11.5 -13.1,-2.2 -26.5,-11.3 -32.3,-22 l -2.3,-4.2 41,0 c 22.6,0 41.1,0.4 41.1,0.8 z"/>
<path d="M 56.8,154.6 c -0.5,0.4 -0.8,5.6 -0.8,11.6 l 0,10.8 -3.3,0 c -5.4,0 -14.7,-2.2 -14.7,-3.4 0,-0.7 1.8,-4.9 4,-9.4 2.1,-4.5 3.5,-8.2 3,-8.2 -1.3,0 -5.7,7.8 -7.6,13.4 -0.9,2.5 -1.8,4.6 -2,4.6 -0.2,0 -2.7,-0.9 -5.5,-2 -2.8,-1.2 -5.7,-1.9 -6.3,-1.7 -1,0.4 4.5,3.3 9.8,5.1 1.1,0.4 1.6,1.2 1.2,2.1 -0.6,1.8 0.5,2 2.1,0.4 0.8,-0.8 2.8,-0.8 7.5,0 8.2,1.4 17,1.4 26.1,0 5.2,-0.8 7.2,-0.8 7.5,0 0.6,1.8 2.2,1.3 2.2,-0.7 0,-1.3 1.6,-2.3 5.5,-3.7 3,-1 5.5,-2.2 5.5,-2.7 0,-1.2 -0.9,-1 -6.6,1.1 l -5.1,2 -3.2,-7.4 c -1.8,-4 -4.1,-8.1 -5.2,-9.1 -1,-0.9 -1.9,-1.5 -1.9,-1.3 0,0.2 1.8,4 4,8.4 2.2,4.4 4,8.5 4,9.1 0,1.2 -10.2,3.4 -15.8,3.4 l -3.1,0 -0.3,-11.6 c -0.2,-6.4 -0.6,-11.2 -1,-10.8 z"/>
<path d="M 16.5,198.2 c 1.1,5.2 3.1,7.3 4,4.4 1.5,-4.9 1.8,-5.1 2.4,-2.1 0.9,4.5 3.2,3.7 4.8,-1.9 0.8,-2.6 1.2,-5 0.9,-5.3 -1,-1.1 -2.6,0.9 -2.6,3.3 0,1.4 -0.4,2.2 -1,1.9 -0.5,-0.3 -1,-1.7 -1,-3.1 0,-3.6 -2.8,-3 -3.8,0.8 l -0.9,3.3 -0.7,-3.3 c -0.4,-1.7 -1.3,-3.2 -2,-3.2 -1.1,0 -1.1,1 -0.1,5.2 z"/>
<path d="M 31.5,196.6 c 0.8,4.4 2.2,7.4 3.4,7.4 0.5,0 1.3,-1.7 1.9,-3.8 0.6,-2.1 1,-2.8 1.1,-1.6 0.1,1.1 0.7,2.9 1.5,3.9 1.3,1.8 1.4,1.8 2.4,-0.1 0.6,-1.1 1.3,-3.6 1.7,-5.7 0.9,-4.6 -1,-5.1 -2.1,-0.5 l -0.7,3.3 -0.9,-3.3 c -0.5,-1.7 -1.5,-3.2 -2.2,-3.2 -0.7,0 -1.7,1.5 -2.1,3.2 l -0.8,3.3 -0.6,-2.9 c -0.3,-1.6 -1.2,-3.1 -2,-3.4 -1.1,-0.4 -1.2,0.3 -0.6,3.4 z"/>
<path d="M 46.6,195.7 c 1.8,6.9 2.1,7.8 3.5,7.8 0.8,0 1.5,-1.2 1.7,-2.8 0.2,-1.5 0.7,-2.7 1.2,-2.7 0.5,0 1,1.2 1.2,2.7 0.4,3.5 2.9,3.7 3.8,0.3 2,-7.7 2.1,-8 0.5,-8 -0.9,0 -1.5,0.9 -1.5,2.5 0,1.4 -0.4,2.5 -1,2.5 -0.5,0 -1,-1.1 -1,-2.5 0,-3.7 -2.8,-3.1 -3.9,0.7 l -0.9,3.3 -0.7,-3.3 c -0.4,-1.7 -1.4,-3.2 -2.1,-3.2 -1.1,0 -1.3,0.7 -0.8,2.7 z"/>
<path d="M 61,202.5 c 0,0.9 0.5,1.5 1,1.3 1.2,-0.4 1.1,-1.6 -0.1,-2.4 -0.5,-0.3 -0.9,0.2 -0.9,1.1 z"/>
<path d="M 66,202.5 c 0,0.9 0.5,1.5 1,1.3 1.2,-0.4 1.1,-1.6 -0.1,-2.4 -0.5,-0.3 -0.9,0.2 -0.9,1.1 z"/>
<path d="M 71.2,202.1 c 0.3,0.8 0.8,1.3 1.1,1.1 0.9,-0.3 0.7,-1.1 -0.5,-1.8 -0.6,-0.4 -0.8,0 -0.6,0.7 z"/>
<path d="M 34.8,219.7 c -0.3,1.1 -2.6,2.5 -5.7,3.6 -2.8,1 -5.1,2.2 -5.1,2.7 0,1.3 0.2,1.3 6,-1 5.2,-2 7,-1.9 7,0.4 0,2.3 6,13.4 7.6,14 0.9,0.3 1.4,0.3 1.2,-0.1 -0.2,-0.5 -2,-4.1 -4.1,-8 -2,-4 -3.7,-7.7 -3.7,-8.2 0,-1 2.9,-1.7 11.8,-2.7 l 6.2,-0.7 0,10.7 c 0,6.4 0.4,10.6 1,10.6 0.6,0 1,-4.2 1,-10.6 l 0,-10.7 6.8,0.7 c 8.7,0.9 11.2,1.6 11.2,3 0,0.9 -1.5,4.3 -6.8,14.8 -0.2,0.5 0.1,0.8 0.8,0.8 0.6,0 2.7,-3.5 4.7,-7.8 2,-4.2 3.7,-7.8 3.9,-8 0.1,-0.2 2.5,0.6 5.5,1.7 5,2 7.3,2 5.3,0.2 -0.5,-0.5 -3,-1.6 -5.6,-2.6 -3.2,-1.2 -4.5,-2.2 -4.1,-3.1 0.3,-0.8 0.1,-1.4 -0.5,-1.4 -0.6,0 -1.2,0.5 -1.4,1.2 -0.3,0.9 -2.1,0.9 -7.6,0 -8.9,-1.5 -17.7,-1.5 -26.1,-0.1 -4.9,0.9 -6.6,0.9 -6.9,0 -0.6,-1.7 -1.9,-1.3 -2.4,0.6 z"/>
<path d="M 131.1,167.5 c -10.1,16.6 -11.8,37 -4.7,54.7 2.3,5.7 8.5,15.8 9.6,15.8 0.3,0 1.7,-1.1 3.2,-2.5 l 2.8,-2.4 -3.4,-5 c -6.3,-9.3 -8,-15.2 -8,-28.1 -0.1,-13 1.1,-17.9 7,-27.6 l 3.5,-5.8 -2.8,-2.2 c -1.5,-1.3 -3,-2.3 -3.3,-2.4 -0.3,0 -2.1,2.5 -3.9,5.5 z"/>
<path d="M 225.8,164.5 l -2.7,2.4 3.4,5.7 c 5.8,9.5 7,14.5 6.9,27.4 0,12.9 -1.7,18.8 -8,28.1 l -3.4,5 2.8,2.4 c 1.5,1.4 2.9,2.4 3.2,2.5 0.6,0 7.1,-10.2 9.4,-14.7 6.2,-12.3 5.9,-35.7 -0.5,-48.6 -2.7,-5.4 -7.3,-12.7 -7.9,-12.7 -0.3,0 -1.7,1.1 -3.2,2.5 z"/>
<path d="M 273.7,173.8 c -2.2,2.4 -2.1,4.5 0.1,6.5 2.7,2.4 5.9,2.1 7.8,-0.8 1.5,-2.3 1.5,-2.7 0,-5 -2,-3 -5.6,-3.3 -7.9,-0.7 z"/>
<path d="M 294.3,173.2 c -3,3.8 -1.2,8.8 3.1,8.8 2.5,0 5.6,-2.8 5.6,-5.2 0,-3.6 -6.6,-6.3 -8.7,-3.6 z"/>
<path d="M 173.6,176.6 c -5.7,2.1 -10.2,5.8 -13.3,11.2 -2.4,4 -2.8,5.8 -2.8,12.2 0,5.7 0.6,8.5 2.2,11.5 8.4,15.7 29.9,18.1 41.4,4.6 16.4,-19.1 -3.9,-48.2 -27.5,-39.5 z m 12.8,15.1 c 6.1,3.6 11.7,7.1 12.4,7.6 0.9,0.7 -2.3,3.1 -11.8,8.8 -7.2,4.4 -13.6,7.9 -14.1,7.9 -0.5,0 -0.9,-6.8 -0.9,-16.1 0,-14.6 0.2,-16.1 1.6,-15.5 1,0.4 6.7,3.6 12.8,7.3 z"/>
<path d="M 144.7,182.2 c -6,12.6 -5.6,28.7 0.9,38.6 1.5,2.2 1.5,2.2 4.4,0.5 1.7,-0.9 3,-2 3,-2.4 0,-0.3 -1,-2.8 -2.2,-5.5 -3.4,-7.4 -3.1,-19 0.5,-26.4 l 2.7,-5.5 -2.7,-2.2 c -1.6,-1.3 -3.1,-2.3 -3.5,-2.3 -0.3,0 -1.8,2.4 -3.1,5.2 z"/>
<path d="M 212.7,179.3 l -2.7,2.2 2.7,5.5 c 3.6,7.4 3.9,19 0.5,26.4 -1.2,2.7 -2.2,5.2 -2.2,5.5 0,0.4 1.3,1.5 3,2.4 2.9,1.7 2.9,1.7 4.4,-0.5 4.4,-6.8 6.5,-19.2 4.7,-27.9 -1.2,-5.5 -5.7,-15.9 -6.9,-15.9 -0.4,0 -1.9,1 -3.5,2.3 z"/>
<path d="M 274,194 c -2.4,2.4 -2.5,4.3 -0.4,6.4 2.2,2.3 6,2 7.8,-0.6 0.9,-1.2 1.6,-2.6 1.6,-3 0,-1.4 -3.9,-4.8 -5.5,-4.8 -0.8,0 -2.4,0.9 -3.5,2 z"/>
<path d="M 294.8,193.2 c -4,3.3 -1.9,8.8 3.3,8.8 4.1,0 5.9,-3.8 3.5,-7.5 -1.8,-2.7 -4.3,-3.2 -6.8,-1.3 z"/>
<path d="M 274.1,213.9 c -1.2,1.2 -2.1,2.8 -2.1,3.6 0,2.6 3.9,5.7 6.3,4.9 2.7,-0.8 3.3,-1.4 4.1,-4 1.4,-4.5 -4.9,-7.9 -8.3,-4.5 z"/>
<path d="M 295.9,212.7 c -2.3,0.6 -3.8,4.4 -2.8,7 0.5,1.3 1.3,2.3 1.8,2.3 0.5,0 1.6,0.3 2.4,0.6 1.8,0.6 5.7,-2.9 5.7,-5.1 0,-1.6 -3.5,-5.6 -4.7,-5.4 -0.5,0.1 -1.5,0.3 -2.4,0.6 z"/>
<path d="M 309.5,230.4 c -13.5,3.3 -27.8,13.7 -34.9,25.5 -13.2,21.8 -9.4,50.6 8.8,68.6 10.8,10.6 23.8,15.9 39.1,15.9 15.7,0 28.5,-5.4 39.6,-16.5 6.9,-7 12.9,-17.4 14.8,-25.9 1.6,-6.9 1.3,-21.9 -0.5,-28.1 -5.8,-19.7 -22.9,-35.8 -42.2,-39.8 -6.8,-1.4 -18.3,-1.3 -24.7,0.3 z m 26.7,11.7 c 14.6,4.9 24.6,15 29.3,29.7 1.3,4.1 1.6,7.8 1.3,15 -0.3,8.3 -0.8,10.7 -3.5,16.5 -4.4,9.3 -11.8,16.9 -21.2,21.5 -7.5,3.7 -7.6,3.7 -20.1,3.7 l -12.5,0 -7.2,-3.8 c -9,-4.8 -16.4,-12.5 -20.6,-21.4 -3,-6.5 -3.2,-7.4 -3.2,-18.8 0,-11.6 0.1,-12.2 3.4,-19 3.8,-7.7 11,-15.6 18.1,-19.8 10,-5.8 25.2,-7.4 36.2,-3.6 z"/>
<path d="M 316.9,255.9 c -3.6,3.6 -3.7,7 -0.3,11 5.1,6.1 14.4,2.6 14.4,-5.4 0,-7.9 -8.4,-11.2 -14.1,-5.6 z"/>
<path d="M 315,296.5 l 0,18.5 8,0 8,0 0,-18.5 0,-18.5 -8,0 -8,0 0,18.5 z"/>
<path d="M 63,256.2 c -3,0.5 -7.2,0.8 -9.2,0.6 l -3.8,-0.4 0,11.5 c 0,6.2 0.5,13.1 1.1,15.1 2,6.5 7.8,13.1 14.8,16.7 l 6.3,3.3 94.3,0 94.3,0 -0.9,-4.3 c -0.4,-2.3 -1.1,-6.8 -1.4,-10 l -0.6,-5.7 -94,0 -93.9,0 0,-14 c 0,-7.7 -0.3,-13.9 -0.7,-13.9 -0.5,0.1 -3.3,0.6 -6.3,1.1 z"/>
</svg>
