<svg xmlns="http://www.w3.org/2000/svg" viewBox="0 0 384 384">
<path d="M 150.7,23 c -60.2,9.6 -104.6,51.5 -116.4,110 -2.4,12.1 -2.4,39.4 0.1,51 6,28.1 16.7,48.6 35.5,68.2 21.1,22.1 45.3,35.2 74.5,40.5 12.2,2.2 36,2.2 48.2,0 21.5,-3.9 45.7,-15 62.2,-28.5 l 4.3,-3.5 5,4.9 c 4.9,4.8 4.9,4.9 4.9,11.4 0,4.9 0.5,7.4 2.1,10 2.7,4.4 57.8,59.6 63.8,63.9 11.2,7.9 27.3,0.5 28.9,-13.4 1,-9.5 -0.2,-11.1 -34.4,-45.2 -33.8,-33.7 -33.7,-33.7 -44,-33.2 -4.2,0.3 -4.8,-0.1 -9.6,-4.8 l -5,-5.1 7.1,-9.8 c 12.5,-17.4 21.2,-37.6 24.7,-57.8 2.2,-12.2 2.2,-34.3 0,-46.6 -7.5,-42.3 -35,-79.2 -73.1,-98.3 -10.8,-5.4 -24.2,-10 -35.6,-12.2 -9.9,-1.9 -34.9,-2.8 -43.2,-1.5 z m 34.3,23.5 c 16.5,2.7 33.9,9.6 47.5,18.8 8.6,5.9 22.5,19.6 28.3,28 9.6,14 16.4,30.3 19.2,46.7 1.8,9.9 1.5,29.2 -0.5,39 -2,9.6 -6.5,23 -10.3,30.5 -13.9,27.5 -39.9,48.9 -70.7,58.1 -7.8,2.4 -11.2,2.8 -26,3.2 -18.5,0.5 -26,-0.4 -38.5,-4.5 -17.8,-5.9 -31.3,-14.4 -45.6,-28.7 -11.1,-11.1 -18.7,-21.9 -23.5,-33.5 -10.6,-25.4 -12.5,-52.1 -5.3,-76.7 15.8,-54.6 70.4,-89.8 125.4,-80.9 z"/>
<path d="M 163.7,78.4 c -5,1.8 -6.7,3.4 -8.8,8.1 -2.4,5.2 -2.4,10.3 0.1,46.1 2.1,31.3 2.7,37.1 4,42.3 2.9,11.1 14.8,10.7 17.9,-0.5 0.6,-2.2 2.3,-16.5 3.7,-31.9 3,-33 3.1,-54.3 0.1,-58.8 -3.6,-5.5 -10.5,-7.7 -17,-5.3 z"/>
<path d="M 162.5,201.9 c -2.8,1.2 -7.6,6.1 -8.6,8.9 -5,13 9.6,25 22.1,18.3 13,-6.9 8.2,-26.6 -6.7,-27.7 -2.6,-0.2 -5.7,0 -6.8,0.5 z"/>
<path d="M 99.7,313.7 c -0.4,0.3 -0.7,3.7 -0.7,7.5 l 0,6.8 69,0 69.1,0 -0.3,-7.3 -0.3,-7.2 -68.1,-0.3 c -37.4,-0.1 -68.4,0.1 -68.7,0.5 z"/>
<path d="M 130,354.5 l 0,7.5 38.5,0 38.5,0 0,-7.5 0,-7.5 -38.5,0 -38.5,0 0,7.5 z"/>
</svg>
