<svg xmlns="http://www.w3.org/2000/svg" viewBox="0 0 384 384">
<path d="M 11.2,64.3 l -2.2,2.3 0,119 0,119.1 2.3,2.1 2.3,2.2 115,0 115,0 -0.1,-5.8 -0.2,-5.7 -111.1,-0.3 -111.2,-0.2 0,-111.5 0,-111.5 164.5,0 164.5,0 0,84.9 0,84.8 6,4.7 6,4.7 0,-94 0,-94 -2.2,-1.5 c -2,-1.4 -20.2,-1.6 -174.3,-1.6 l -172.2,0 -2.1,2.3 z"/>
<path d="M 27,91.5 l 0,5.5 6,0 6,0 0,-5.5 0,-5.5 -6,0 -6,0 0,5.5 z"/>
<path d="M 51,91.5 l 0,5.5 5.5,0 5.5,0 0,-5.5 0,-5.5 -5.5,0 -5.5,0 0,5.5 z"/>
<path d="M 74,91.5 l 0,5.5 6,0 6,0 0,-5.5 0,-5.5 -6,0 -6,0 0,5.5 z"/>
<path d="M 98,91.5 l 0,5.5 5.5,0 5.5,0 0,-5.5 0,-5.5 -5.5,0 -5.5,0 0,5.5 z"/>
<path d="M 121,91.5 l 0,5.5 6,0 6,0 0,-5.5 0,-5.5 -6,0 -6,0 0,5.5 z"/>
<path d="M 145,91.5 l 0,5.5 5.5,0 5.5,0 0,-5.5 0,-5.5 -5.5,0 -5.5,0 0,5.5 z"/>
<path d="M 168,91.5 l 0,5.5 6,0 6,0 0,-5.5 0,-5.5 -6,0 -6,0 0,5.5 z"/>
<path d="M 192,91.5 l 0,5.5 5.8,0 5.7,0 0,-5.5 0,-5.5 -5.7,0 -5.8,0 0,5.5 z"/>
<path d="M 215,91.5 l 0,5.5 6,0 6,0 0,-5.5 0,-5.5 -6,0 -6,0 0,5.5 z"/>
<path d="M 239,91.5 l 0,5.5 6,0 6,0 0,-5.5 0,-5.5 -6,0 -6,0 0,5.5 z"/>
<path d="M 262,91.5 l 0,5.5 6,0 6,0 0,-5.5 0,-5.5 -6,0 -6,0 0,5.5 z"/>
<path d="M 286,91.5 l 0,5.5 6,0 6,0 0,-5.5 0,-5.5 -6,0 -6,0 0,5.5 z"/>
<path d="M 309,91.5 l 0,5.5 6,0 6,0 0,-5.5 0,-5.5 -6,0 -6,0 0,5.5 z"/>
<path d="M 333,91.5 l 0,5.5 6,0 6,0 0,-5.5 0,-5.5 -6,0 -6,0 0,5.5 z"/>
<path d="M 56,127 c -2,2 -2,3.3 -2,58.3 0,61.7 -0.1,60.7 5.8,60.7 3.8,0 82.3,-54.9 83.6,-58.4 0.6,-1.5 0.6,-3.3 0,-4.5 -1.3,-2.9 -80.3,-58.1 -83.1,-58.1 -1.3,0 -3.2,0.9 -4.3,2 z m 41.4,37 c 16.2,11.3 29.5,20.9 29.5,21.5 0,0.9 -57.5,41.5 -59.9,42.3 -0.6,0.2 -1,-15 -1,-42.3 0,-25.7 0.4,-42.5 0.9,-42.3 0.5,0.1 14.2,9.5 30.5,20.8 z"/>
<path d="M 171.5,148.1 c -3.6,1.1 -5.5,2.6 -7.8,5.9 -1.4,2.1 -1.7,5.1 -1.7,19.8 0,18.6 0.6,21.4 5.3,24.5 1.3,0.9 4,2 5.8,2.4 2.8,0.8 4.6,2.7 10,10.2 3.6,5.2 7.7,10 9,10.7 3.8,2.1 108.8,2 112.9,-0.1 1.5,-0.8 5.8,-5.7 9.4,-10.9 5.6,-8.1 7,-9.5 10,-10 4.8,-0.9 9.3,-5 10.6,-9.4 0.5,-2 1,-10 1,-17.7 0,-11.6 -0.4,-14.7 -1.9,-18.2 -3.8,-8.3 1.2,-7.8 -84.1,-8 -44.5,-0.1 -76.7,0.2 -78.5,0.8 z m 156.4,6.5 l 3.1,2.6 0,16.9 c 0,16.7 0,17 -2.5,19.4 -1.6,1.7 -3.5,2.5 -5.9,2.5 -3.3,0 -3.9,0.6 -10.6,10.2 -3.9,5.7 -8.1,10.8 -9.3,11.5 -3,1.6 -104.4,1.9 -107.9,0.2 -1.3,-0.6 -5.5,-5.6 -9.3,-11.2 -5.4,-7.8 -7.6,-10.3 -9.5,-10.5 -9.3,-1 -10,-2.5 -10,-22.7 l 0,-15.7 2.9,-2.9 2.9,-2.9 76.5,0 76.5,0 3.1,2.6 z"/>
<path d="M 184.4,157.3 c -0.3,0.8 -0.4,3.9 -0.2,6.8 l 0.3,5.4 6,0 6,0 0,-6.5 0,-6.5 -5.8,-0.3 c -4.2,-0.2 -5.9,0.1 -6.3,1.1 z"/>
<path d="M 206.4,157.3 c -0.3,0.8 -0.4,3.9 -0.2,6.8 l 0.3,5.4 6.4,0 6.5,0 0,-6.5 0,-6.5 -6.2,-0.3 c -4.7,-0.2 -6.4,0.1 -6.8,1.1 z"/>
<path d="M 229,163 l 0,7.1 6.3,-0.3 6.2,-0.3 0,-6.5 0,-6.5 -6.2,-0.3 -6.3,-0.3 0,7.1 z"/>
<path d="M 255.4,157.3 c -0.3,0.8 -0.4,3.9 -0.2,6.8 l 0.3,5.4 6.4,0 6.3,0 0,-6.5 0,-6.5 -6.1,-0.3 c -4.6,-0.2 -6.3,0.1 -6.7,1.1 z"/>
<path d="M 278.2,162.7 l 0.3,6.8 6,0 6,0 0,-6.5 0,-6.5 -6.3,-0.3 -6.3,-0.3 0.3,6.8 z"/>
<path d="M 300.4,157.4 c -0.3,0.7 -0.4,3.8 -0.2,6.7 l 0.3,5.4 6,0 6,0 0.3,-6.8 0.3,-6.7 -6.1,0 c -4.2,0 -6.2,0.4 -6.6,1.4 z"/>
<path d="M 179.7,174.7 c -0.4,0.3 -0.7,2.3 -0.7,4.3 0,3 0.8,4.4 4.8,8.3 l 4.8,4.7 60,0 60,0 4.7,-4.8 c 4.1,-4.2 4.7,-5.3 4.7,-9 l 0,-4.2 -68.8,0 c -37.9,0 -69.2,0.3 -69.5,0.7 z m 133.9,4.4 c 0.3,0.6 -1.1,2.8 -3.2,5 l -3.8,3.9 -58,0 -58,0 -3.3,-3.2 c -1.8,-1.8 -3.3,-4 -3.3,-5 0,-1.7 3,-1.8 64.4,-1.8 45.5,0 64.7,0.3 65.2,1.1 z"/>
<path d="M 197.2,207.2 l 0.3,6.3 6.5,0 6.5,0 0,-6 0,-6 -6.8,-0.3 -6.8,-0.3 0.3,6.3 z"/>
<path d="M 220,207.5 l 0,6.5 6.5,0 6.5,0 0,-6.5 0,-6.5 -6.5,0 -6.5,0 0,6.5 z"/>
<path d="M 242,207.5 l 0,6.5 6.5,0 6.5,0 0,-6.5 0,-6.5 -6.5,0 -6.5,0 0,6.5 z"/>
<path d="M 264,207.5 l 0,6.5 6.5,0 6.5,0 0,-6.5 0,-6.5 -6.5,0 -6.5,0 0,6.5 z"/>
<path d="M 287,207.5 l 0,6.5 6.5,0 6.5,0 0,-6.5 0,-6.5 -6.5,0 -6.5,0 0,6.5 z"/>
<path d="M 298.4,242.9 c -11.7,3.2 -19,7.5 -28,16.5 -12.5,12.5 -18,25.8 -17.8,43.1 0.4,32.9 27.8,59.9 60.9,59.8 16.2,0 30.4,-6.1 42.6,-18.3 31.7,-31.5 19.3,-84.8 -23.3,-99.7 -10,-3.6 -24.3,-4.1 -34.4,-1.4 z m 27.7,11.7 c 12.1,3.6 21.5,10.6 28.1,20.8 14.6,22.6 7.8,52.9 -15.1,67.5 -8.5,5.4 -16.2,7.3 -28.1,6.9 -9.8,-0.3 -11.1,-0.6 -18.5,-4.2 -10.7,-5.2 -18.3,-12.8 -23.3,-23.3 -3.4,-7.2 -3.7,-8.6 -4,-18.5 -0.4,-8.9 -0.1,-11.7 1.8,-17.2 5.3,-15.9 17.6,-27.5 34,-32.2 6.4,-1.8 18.7,-1.7 25.1,0.2 z"/>
<path d="M 332,268.1 c -0.8,1.3 -1.9,1.9 -3.4,1.7 -3.5,-0.4 -5.8,1.9 -4.4,4.5 0.9,1.8 0.7,2.3 -1.1,3.5 -2.7,1.8 -2.7,4.3 0,6 1.5,1 1.9,2 1.5,3.7 -0.8,3.1 1.7,5.3 4,3.4 1.4,-1.1 1.9,-1 3.4,0.9 2.3,2.8 5.6,2.9 6.3,0.1 0.5,-1.7 1.1,-2 2.8,-1.6 3.3,0.9 4.9,-0.9 4.2,-4.4 -0.5,-2.5 -0.2,-3.1 1.6,-3.6 2.9,-0.7 2.7,-3.7 -0.4,-5.7 -2,-1.3 -2.3,-2 -1.5,-3.5 1.3,-2.5 -1,-4.4 -4.3,-3.6 -1.9,0.5 -2.8,0.2 -3.7,-1.4 -1.4,-2.7 -3.6,-2.7 -5,0 z m 6.8,11.7 c 0.4,4.2 -2.8,6.1 -6.4,3.7 -2.9,-1.9 -3.1,-3.8 -0.4,-6.5 2.8,-2.8 6.4,-1.3 6.8,2.8 z"/>
<path d="M 293.7,284.6 c -2.4,1.3 -2.8,2 -2.2,4.1 0.4,1.6 0,3.4 -1,5 -1.3,2 -2.3,2.4 -5.2,2.1 -2.8,-0.2 -3.7,0.2 -4.9,2.2 -1.7,3.2 -1.8,5.7 0,6.7 3.6,2.1 3.7,8.6 0.1,9.9 -1.9,0.8 -1.9,2.7 0.1,6.5 1.2,2.5 2,3 3.9,2.5 1.5,-0.4 3.2,0.2 5,1.6 2.2,1.7 2.6,2.6 2.1,5.3 -0.6,3.1 -0.4,3.4 3.5,4.9 4,1.6 4.1,1.6 6.1,-0.9 2.5,-3.2 6.2,-3.2 9.3,0.1 l 2.3,2.5 3.9,-2 c 3.6,-1.8 3.9,-2.2 3.5,-5.4 -0.5,-4.2 2.5,-6.9 6.8,-6.1 2.3,0.5 2.8,0.1 4.5,-3.7 1.5,-3.2 1.6,-4.4 0.7,-4.7 -5.3,-1.7 -5.4,-9.6 -0.1,-11.4 0.7,-0.2 0.5,-1.7 -0.6,-4.5 -1.5,-3.9 -1.9,-4.1 -4.8,-3.6 -4.3,0.7 -7.2,-2.4 -6.4,-6.5 0.5,-2.5 0.2,-3.1 -2.9,-4.5 -4.5,-2.2 -5.2,-2.1 -7.3,0.4 -1,1.3 -2.9,2.1 -4.6,2.1 -1.9,0 -3.4,-0.7 -4.3,-2.1 -1.7,-2.5 -3.6,-2.6 -7.5,-0.5 z m 19.1,18.9 c 6.2,7.2 -1.5,17.7 -10.3,14.1 -6.3,-2.7 -7.5,-9.8 -2.5,-14.8 2.7,-2.6 3.6,-3 6.8,-2.5 2.2,0.4 4.6,1.7 6,3.2 z"/>
<path d="M 27,279.5 l 0,5.5 6,0 6,0 0,-5.5 0,-5.5 -6,0 -6,0 0,5.5 z"/>
<path d="M 51,279.5 l 0,5.5 5.5,0 5.5,0 0,-5.5 0,-5.5 -5.5,0 -5.5,0 0,5.5 z"/>
<path d="M 74,279.5 l 0,5.5 6,0 6,0 0,-5.5 0,-5.5 -6,0 -6,0 0,5.5 z"/>
<path d="M 98,279.5 l 0,5.5 5.5,0 5.5,0 0,-5.5 0,-5.5 -5.5,0 -5.5,0 0,5.5 z"/>
<path d="M 121,279.5 l 0,5.5 6,0 6,0 0,-5.5 0,-5.5 -6,0 -6,0 0,5.5 z"/>
<path d="M 145,279.5 l 0,5.5 5.5,0 5.5,0 0,-5.5 0,-5.5 -5.5,0 -5.5,0 0,5.5 z"/>
<path d="M 168,279.5 l 0,5.5 6,0 6,0 0,-5.5 0,-5.5 -6,0 -6,0 0,5.5 z"/>
<path d="M 192,279.5 l 0,5.5 5.8,0 5.7,0 0,-5.5 0,-5.5 -5.7,0 -5.8,0 0,5.5 z"/>
<path d="M 215,279.5 l 0,5.5 6,0 6,0 0,-5.5 0,-5.5 -6,0 -6,0 0,5.5 z"/>
<path d="M 239,279.5 l 0,5.5 3.4,0 c 3.1,0 3.4,-0.3 5.3,-5.5 l 2.1,-5.5 -5.4,0 -5.4,0 0,5.5 z"/>
</svg>
