<svg xmlns="http://www.w3.org/2000/svg" viewBox="0 0 384 384">
<path d="M 303.5,56.4 c -4,1.7 -23.9,19.9 -34.3,31.3 -11.1,12.2 -19.2,23.6 -25.7,36.4 -0.9,1.7 -2.1,1.9 -10,1.9 -11.2,0 -19.8,1.3 -29.7,4.6 l -7.6,2.5 -4.6,-4.6 c -2.5,-2.5 -5.8,-5 -7.3,-5.6 -3.5,-1.3 -116.3,-1.2 -119.8,0.1 -7.4,2.8 -16,17.3 -20,33.7 -10.2,41.9 0.2,93.2 20.7,101.7 3.1,1.3 11.9,1.6 60.3,1.6 l 56.6,0.1 4.4,-2.5 c 4.1,-2.5 7.3,-5.6 10.6,-10.5 l 1.5,-2.4 6.5,2.1 c 8.6,2.9 17.6,4.2 28.4,4.2 l 9,0 3.8,6.8 c 9.6,16.8 17,26.2 32.9,41.7 21.1,20.7 25.4,23.5 32.6,21.5 7.3,-1.9 11.8,-10.3 9,-16.8 -0.7,-1.7 -7.1,-8.4 -14.3,-14.9 -7.1,-6.6 -16.2,-15.5 -20.1,-19.9 -7.6,-8.5 -15.9,-20.2 -15,-21.1 1,-1 16.9,-2.1 22.1,-1.6 6.7,0.8 10,2.6 16,8.9 5.5,5.7 8.6,7 13.9,6 7.6,-1.4 12,-8.9 9.8,-16.4 -1.7,-5.5 -13.2,-16.4 -21.6,-20.3 -11.1,-5.2 -19.9,-5.7 -47.3,-2.7 l -10.1,1.1 -5.6,-4.9 -5.6,-4.8 9.8,-4.7 c 5.5,-2.6 10.9,-5 12.1,-5.4 1.4,-0.4 6,0.6 12.9,2.9 14.8,5 27.7,7.5 41.2,8.3 12.8,0.6 15.9,-0.2 19.9,-5.3 2.7,-3.4 2.8,-9.8 0.2,-14 -1.7,-2.9 -7.2,-6.3 -10.3,-6.5 -0.7,0 0.7,-0.8 3.2,-1.7 5.7,-2.2 9,-6.9 9,-12.8 0,-3.8 -0.6,-5 -4.1,-8.5 l -4.2,-4.2 -12.6,0.6 c -14.4,0.7 -26.8,3.2 -42.6,8.4 l -11,3.6 -6,-2.8 c -3.3,-1.5 -8.4,-3.8 -11.2,-5.1 -2.9,-1.3 -5.3,-2.7 -5.2,-3.1 0.1,-0.5 2.3,-2.8 5,-5.2 l 4.8,-4.3 17.6,1.7 c 28.6,2.8 39.5,0.3 52.4,-11.9 9.8,-9.3 11.8,-14.2 8.4,-21.3 -4.4,-9.3 -16.1,-9.7 -22.9,-0.8 -1.5,2 -4.6,4.7 -6.9,6 -3.8,2.3 -5.2,2.5 -16.1,2.5 -14.3,0 -15.5,-0.5 -13.2,-5.3 3.7,-7.7 26.2,-32 40,-43.1 6.9,-5.6 9.7,-11.4 7.9,-16.9 -1.4,-4.3 -4.8,-7.5 -9.2,-8.7 -4.2,-1.2 -4.7,-1.2 -8.4,0.4 z m -78.5,127.8 c 4.1,1.6 7.9,3.3 8.4,3.8 0.6,0.6 -0.6,1.6 -3,2.5 -2.1,0.9 -5.3,2.2 -6.9,3 -3.9,1.8 -11.2,3.4 -12,2.7 -0.3,-0.3 -0.5,-4 -0.5,-8.3 l 0,-7.9 3.3,0.6 c 1.7,0.4 6.6,2 10.7,3.6 z"/>
</svg>
