<svg xmlns="http://www.w3.org/2000/svg" viewBox="0 0 384 384">
<path d="M 17.5,68.8 c -0.2,0.2 -0.1,1 0.2,1.8 0.3,0.8 0.1,1.4 -0.3,1.4 -1,0 -0.8,191.4 0.1,196.8 0.3,1.8 1,3 1.5,2.7 0.4,-0.3 1.5,0.2 2.4,1 1.3,1.3 20.7,1.5 168.7,1.5 154.4,0 167.3,-0.1 168.4,-1.6 0.7,-1 1.7,-1.4 2.3,-1 0.8,0.5 1,0.2 0.6,-0.8 -0.4,-0.9 0.1,-1.8 1,-2.2 1.5,-0.6 1.6,-9.5 1.6,-97.6 l 0,-96.9 -2.3,-2.4 -2.2,-2.5 -170.9,-0.2 c -93.9,-0.2 -170.9,-0.1 -171.1,0 z m 329,13.1 c 0.3,0.5 0.5,40.5 0.5,88.7 0,69.7 -0.2,87.9 -1.2,88.6 -0.7,0.4 -71.1,0.8 -156.5,0.8 l -155.2,0 -2.1,-2.2 c -2,-2.2 -2,-3 -2,-87.7 0,-78.1 0.1,-85.6 1.7,-87.3 1.5,-1.7 7.8,-1.8 157.9,-1.8 95.4,0 156.5,0.4 156.9,0.9 z"/>
<path d="M 203.6,101.7 c -0.6,2.5 -2.1,6.1 -4.7,11.5 -0.5,1 -0.9,2.3 -0.9,3 0,0.7 -0.6,2.5 -1.4,4 -0.8,1.5 -1.7,4.2 -2.1,6 -0.4,1.8 -1.4,4.2 -2.1,5.3 -2.1,2.9 -1.8,6.5 0.5,6.5 1.4,0 2.2,-1 2.7,-3.2 1.5,-6.9 2.8,-7.8 11.5,-7.8 6.7,0 8.1,0.3 8.6,1.7 1.9,5.8 4,9.3 5.6,9.3 2.1,0 2.3,-3.8 0.2,-6.6 -0.8,-1 -1.5,-2.6 -1.5,-3.4 0,-0.8 -0.6,-2.7 -1.4,-4.1 -0.7,-1.4 -1.6,-3.9 -2,-5.5 -0.4,-1.6 -1.3,-4.3 -2.1,-5.9 -3.2,-7 -4.5,-10.4 -4.5,-11.9 0,-1.1 -0.9,-1.6 -2.9,-1.6 -2.3,0 -3,0.5 -3.5,2.7 z m 5.8,8.8 c 0.4,1.9 1.3,4.7 2.1,6.2 2.9,5.5 2.2,6.3 -5.1,6.3 -5.9,0 -6.5,-0.2 -5.9,-1.8 0.4,-0.9 1,-2.6 1.3,-3.7 0.2,-1.1 0.8,-2.5 1.2,-3 0.4,-0.6 1.1,-2.6 1.5,-4.5 0.4,-1.9 0.9,-3.9 1.2,-4.3 0.9,-1.5 3.1,1.4 3.7,4.8 z"/>
<path d="M 230.2,114.9 c 0.3,14 0.5,16.2 2.2,18 6.8,7.5 19.9,6.4 23.9,-2 1.4,-2.8 1.7,-6.4 1.7,-17.7 0,-13.5 -0.1,-14.2 -2,-14.2 -1.9,0 -2,0.7 -2,14.3 l 0,14.3 -3.3,3.2 c -2,1.9 -4.3,3.2 -5.8,3.2 -3.9,0 -8.9,-2.9 -10,-5.7 -0.5,-1.3 -0.9,-8.5 -0.9,-15.9 0,-12.9 -0.1,-13.4 -2.1,-13.4 -2,0 -2.1,0.3 -1.7,15.9 z"/>
<path d="M 266,100.9 c 0,1.7 0.8,2 4.8,2.3 l 4.7,0.3 0.3,17.2 c 0.2,16.4 0.3,17.3 2.2,17.3 1.9,0 2,-0.9 2.2,-17.3 l 0.3,-17.2 5.3,-0.3 c 4.4,-0.3 5.2,-0.6 5.2,-2.3 0,-1.8 -0.8,-1.9 -12.5,-1.9 -11.7,0 -12.5,0.1 -12.5,1.9 z"/>
<path d="M 308.5,100 c -0.3,0.5 -1.4,1 -2.4,1 -3.3,0 -9,6.8 -9.7,11.7 -1,7.1 0,14.6 2.5,18.2 4.7,6.6 15,8.9 22.8,5.1 6.8,-3.3 8.7,-7 9.1,-17.6 l 0.4,-9.2 -3.7,-4.1 c -2.1,-2.3 -4.6,-4.1 -5.6,-4.1 -1,0 -2.1,-0.5 -2.4,-1 -0.3,-0.6 -2.8,-1 -5.5,-1 -2.7,0 -5.2,0.4 -5.5,1 z m 14.5,6.8 c 4,3.9 4,3.9 4,11.5 0,6.7 -0.3,7.9 -2.6,10.6 -1.4,1.7 -3.4,3.1 -4.4,3.1 -1,0 -2.2,0.4 -2.5,1 -1.7,2.8 -10.1,0.1 -14.6,-4.6 -2.1,-2.2 -2.4,-3.5 -2.4,-9.9 0,-6.4 0.3,-7.7 2.5,-10 3.5,-3.7 6.9,-5.3 11.7,-5.4 3.6,-0.1 4.8,0.5 8.3,3.7 z"/>
<path d="M 175.7,276.7 c -0.4,0.3 -0.7,1.5 -0.7,2.5 0,1 -0.4,1.8 -0.9,1.8 -0.6,0 -0.7,1.6 -0.4,3.5 0.3,2 0.1,4.1 -0.6,4.9 -0.6,0.7 -1,2.4 -0.9,3.7 0.3,2.3 0.1,2.4 -5,2.1 -3.2,-0.3 -5.9,0.1 -6.7,0.8 -1,0.8 -3.5,1.1 -7,0.8 -3,-0.3 -5.6,-0.1 -5.7,0.4 -0.2,0.5 -2.1,0.9 -4.3,1 -2.2,0 -4.4,0.4 -5,0.8 -0.5,0.4 -3,1.1 -5.5,1.5 -2.5,0.4 -5.4,1.4 -6.5,2.1 -2.4,1.7 -3.8,1.8 -2.9,0.1 0.4,-0.6 0.3,-0.9 -0.1,-0.5 -0.5,0.5 -0.9,1.9 -1.1,3.2 -0.3,2.6 1.8,5 5.4,6 1.2,0.4 2.2,1.2 2.2,1.7 0,1.5 -2.7,2.1 -4.7,1 -2.8,-1.4 -5.2,0.3 -3.7,2.6 0.6,1 1.7,1.8 2.5,1.8 2,0.1 10.2,2.6 11.4,3.5 0.6,0.4 2.8,0.8 5,0.8 2.2,0.1 4.1,0.5 4.3,1 0.1,0.5 2.5,0.7 5.2,0.4 2.8,-0.2 5.6,0 6.2,0.5 0.7,0.5 7.8,1.1 15.7,1.2 8.9,0.1 15,0.7 16.2,1.4 1.5,0.9 2.3,0.9 3.8,0 1.3,-0.8 7.1,-1.3 16.3,-1.4 7.9,-0.1 14.9,-0.6 15.6,-1.2 0.6,-0.5 3.4,-0.7 6.2,-0.5 2.7,0.3 5.1,0.1 5.2,-0.3 0.2,-0.5 1.8,-0.9 3.6,-1.1 1.9,-0.1 3.5,-0.5 3.8,-0.9 0.2,-0.4 2.6,-1 5.3,-1.4 3.3,-0.4 5.7,-1.5 7.2,-3.1 3,-3.2 1.4,-5 -2.7,-3 -1.6,0.8 -4,1.7 -5.4,1.9 -1.4,0.2 -3.3,0.7 -4.3,1.2 -1,0.4 -3.1,0.5 -4.7,0.2 -1.6,-0.4 -3,-0.2 -3.2,0.4 -0.2,0.5 -3.2,1 -6.8,1 -3.5,0 -6.9,0.4 -7.5,0.7 -1.4,0.9 -61.5,1 -61.5,0.1 0,-1.5 13.2,-2.1 35.8,-1.7 12.8,0.1 23.3,0 23.5,-0.4 0.1,-0.4 3.1,-0.8 6.7,-0.9 3.6,-0.1 7.1,-0.6 7.7,-1.1 0.7,-0.6 2.8,-0.8 4.8,-0.6 1.9,0.2 3.6,0 3.8,-0.5 0.1,-0.5 1.5,-1 3,-1 1.5,0 3,-0.3 3.3,-0.8 0.3,-0.5 1.3,-0.9 2.3,-0.9 2.4,0 7.1,-3.7 7.1,-5.6 0,-0.8 -2.1,-2.4 -4.7,-3.7 -2.7,-1.2 -4.9,-2.5 -5.1,-2.8 -0.2,-0.4 -1.2,-0.5 -2.3,-0.2 -1,0.3 -2.5,0.1 -3.2,-0.4 -0.6,-0.6 -3,-1.1 -5.2,-1.1 -2.2,-0.1 -4.1,-0.5 -4.3,-1 -0.1,-0.4 -2.9,-0.6 -6.2,-0.4 -3.8,0.3 -6.5,0 -7.5,-0.8 -0.8,-0.6 -3.3,-1 -5.7,-0.8 -2.4,0.1 -4.3,-0.1 -4.3,-0.5 0,-0.4 -0.6,-1.1 -1.3,-1.6 -0.7,-0.4 -1.3,-2.7 -1.4,-5 0,-2.3 -0.4,-4.4 -0.9,-4.7 -0.5,-0.3 -0.9,-2.1 -0.9,-4 l 0,-3.4 -13.8,0 c -7.6,0 -14.2,0.3 -14.5,0.7 z m -40.1,38.8 c -0.9,0.7 -2.6,1 -3.8,0.7 -1.9,-0.5 -2,-0.6 -0.4,-1.7 0.9,-0.7 2.6,-1 3.8,-0.7 1.9,0.5 2,0.6 0.4,1.7 z m 9.4,0.4 c 0,1.1 -2.5,2.1 -5.6,2.1 -2.5,0 -3.3,-1.5 -1.1,-2.3 2.1,-0.9 6.7,-0.7 6.7,0.2 z m 13.3,2.1 c -0.8,0.9 -5.8,1.4 -10.7,1.1 -3.5,-0.1 -2.4,-1.8 1.4,-2.3 3.9,-0.5 10.3,0.3 9.3,1.2 z"/>
</svg>
