<svg xmlns="http://www.w3.org/2000/svg" viewBox="0 0 384 384">
<path d="M 188.3,26.9 c -5.2,2.4 -7.3,6.4 -8.5,15.6 -1.3,10.2 -1.1,12.6 1.2,15.7 1.1,1.5 2,3.3 2,4 0,2.4 5.3,8.7 8.7,10.3 6.4,3.1 12.1,-1.2 18,-13.3 3,-6.3 3.4,-7.8 2.4,-9.8 -0.6,-1.4 -1.1,-4.5 -1.1,-6.9 0,-6.3 -2.6,-12.1 -6.5,-14.5 -4.9,-3 -11.2,-3.5 -16.2,-1.1 z"/>
<path d="M 167.2,81 c -6.8,2.7 -13,5.4 -13.8,6.1 -5.2,4.3 -8,16.1 -11.5,48.9 -1.4,13.2 -0.6,52.9 1.2,58.4 1.2,3.6 1.4,3.8 4.8,3.2 4.4,-0.7 6.1,-1.1 8.4,-2.1 2.3,-1 4.6,0 4.7,2.2 0.1,1 0.3,5.3 0.6,9.5 0.4,5.4 0.2,7.8 -0.5,7.8 -1.9,0 -3.3,-5.2 -2.8,-10.2 0.6,-6.6 -0.3,-7.7 -5.4,-6.8 -5.1,0.9 -5.8,1.7 -7,7 -0.9,3.8 -0.7,4.6 1.1,6.5 l 2.1,2.2 -2,0.6 c -2.1,0.5 -2.1,1.1 -2,27.9 0.1,15 0.4,28.6 0.8,30.3 0.6,2.9 0.8,3 7.4,3.3 l 6.8,0.3 -0.3,29.2 -0.3,29.2 -4.8,5.9 c -8.5,10.5 -7.4,14 4.5,13.4 6.3,-0.3 6.9,-0.6 11.5,-5 2.7,-2.5 5.9,-4.8 7,-5.2 2.3,-0.7 2.9,-2.9 4.3,-15.6 0.5,-4.7 1.4,-12.6 2,-17.5 0.6,-5 1.9,-17.3 3,-27.5 3.1,-28.6 4.9,-43.5 6.7,-56 1.4,-9.5 1.8,-11 2.5,-8.5 0.8,3 2.9,18.9 5.3,41.5 0.8,6.9 2.1,18.8 3,26.5 0.8,7.7 2.2,20.4 3,28.2 0.8,7.8 1.9,17.2 2.6,20.8 1,6 1.5,6.8 4.8,8.9 2,1.3 4.5,3.3 5.6,4.6 3.1,3.5 7,5 12.5,5 6.1,0 9,-1.3 9,-4.1 0,-2.2 -4.5,-9.3 -7.8,-12.2 -2.9,-2.6 -3,-5.9 -3.7,-66.2 l -0.6,-52 5.3,-2.5 c 5.9,-2.8 9,-7.5 9.2,-13.9 0.1,-3.4 -0.1,-3.6 -4.1,-4.5 -2.4,-0.6 -4.3,-1.4 -4.3,-1.9 0,-0.5 1,-0.7 2.3,-0.4 7.8,1.8 8.4,1.8 9.1,0 1.1,-2.8 3.6,-28.1 3.6,-36.3 0,-13.3 -4.8,-52.6 -7.4,-61.1 -3.5,-11.5 -4.1,-12 -18.7,-17.4 -7.3,-2.8 -13.6,-5.1 -14.1,-5.3 -1.2,-0.5 -2.7,4 -5.3,16.4 -3.5,16 -4.1,17.2 -5,10.4 -0.3,-3 -1.2,-7.2 -1.7,-9.3 -0.9,-2.8 -0.8,-4.7 0.2,-7.7 1.5,-4.6 0.3,-7 -3.5,-7 -3.6,0 -4.8,2.2 -3.6,6.8 0.8,3 0.7,6 -0.4,12.8 -0.9,4.8 -1.7,8.9 -1.9,9.1 -0.1,0.2 -1.1,-3.2 -2.1,-7.5 -5.2,-21.9 -5.9,-24.3 -7.3,-24.1 -0.4,0.1 -6.2,2.3 -13,4.9 z m -3.4,67 c 0,4.7 -0.5,15.5 -1.2,24 -1.1,13.5 -1.4,15.1 -2.4,12.7 -2.2,-5.3 -1.4,-33.3 1.5,-47.7 l 0.6,-3.5 0.7,3 c 0.4,1.6 0.8,6.8 0.8,11.5 z m 67.2,-1.8 c 1.1,11 1.3,23.1 0.3,34.8 -0.7,7.9 -0.8,8.2 -1.4,4 -0.4,-2.5 -1.3,-11.9 -1.9,-21 -2,-25.6 0.6,-40.7 3,-17.8 z m 4,49.7 c 0,0.5 -0.9,0.7 -2,0.4 -1.1,-0.3 -2,-0.7 -2,-0.9 0,-0.2 0.9,-0.4 2,-0.4 1.1,0 2,0.4 2,0.9 z m -2.5,16.1 c -1,2 -2,2.9 -2.6,2.3 -0.5,-0.5 0,-2.7 1.3,-5.4 1.9,-3.6 2.3,-4 2.6,-2.2 0.2,1.2 -0.4,3.6 -1.3,5.3 z m -77.6,-1.2 c 0.6,2.1 0.5,3.6 -0.3,4.8 -1.2,1.6 -1.3,1.6 -1.8,-0.3 -0.5,-2 0.2,-8.7 0.9,-8 0.2,0.2 0.8,1.8 1.2,3.5 z"/>
</svg>
