<svg xmlns="http://www.w3.org/2000/svg" viewBox="0 0 384 384">
<path d="M 301.4,2.1 c -2.2,1.1 -5.4,5.8 -5.4,8.1 0,0.7 -18.2,19.5 -40.5,41.8 l -40.5,40.5 -28.5,-28.5 c -15.7,-15.7 -28.8,-29.4 -29.1,-30.5 -1.8,-6.5 -5.6,-9.5 -11.9,-9.5 -6.8,0 -12.7,7.1 -11.1,13.5 1,3.8 5.4,8.3 8.9,9 2.4,0.5 8.4,5.9 25.5,22.8 12.2,12.2 22.2,22.5 22.2,22.9 0,0.4 -30.5,0.9 -67.7,1 l -67.8,0.3 -5,2.5 c -6.4,3.1 -13.4,10.1 -16.5,16.5 l -2.5,5 -0.3,89.2 -0.2,89.1 2.1,5.9 c 3,7.9 11.3,16.2 19.2,19.1 l 5.8,2.2 133.9,0 133.9,0 5.8,-2.2 c 7.9,-2.9 16.2,-11.2 19.2,-19.1 l 2.1,-5.9 -0.2,-89.1 -0.3,-89.2 -2.5,-5 c -3.1,-6.4 -10.1,-13.4 -16.5,-16.5 l -5,-2.5 -44.8,-0.5 -44.7,-0.5 34.2,-34.2 c 18.9,-18.8 35.4,-34.4 36.8,-34.8 9.2,-2.6 11.7,-14.7 4.2,-20.5 -2.7,-2.2 -9.2,-2.6 -12.8,-0.9 z m 28.6,205.9 l 0,92 -138,0 -138,0 0,-92 0,-92 138,0 138,0 0,92 z"/>
<path d="M 82.6,128.1 c -4,1 -9.7,4.7 -12.8,8.4 -4.8,5.6 -4.9,7.1 -4.6,73.7 l 0.3,62.5 3,4.9 c 1.9,3 4.9,6 7.9,7.9 l 4.9,3 85.4,0.3 c 54.6,0.1 86.8,-0.1 89.1,-0.8 5.7,-1.5 11.8,-6.5 14.4,-11.8 l 2.3,-4.7 0.3,-60.5 c 0.2,-41.7 0,-62.1 -0.8,-65.6 -1.3,-6.1 -6.3,-12.4 -12.4,-15.7 l -4.1,-2.2 -84.5,-0.2 c -49.7,-0.1 -86.1,0.3 -88.4,0.8 z m 173.3,10.7 c 1.9,1 4.3,3.4 5.3,5.3 1.7,3.2 1.8,7.2 1.8,64.4 0,58.7 -0.1,61.1 -2,64.2 -1,1.8 -3.1,4 -4.7,5 -2.5,1.7 -7.7,1.8 -87,2.1 -93,0.3 -89.3,0.5 -93.3,-6 -2,-3.2 -2,-4.5 -1.8,-66.5 l 0.3,-63.1 2.5,-2.7 c 1.4,-1.5 3.4,-3.1 4.5,-3.5 1.1,-0.5 40,-0.9 86.5,-0.9 80,-0.1 84.7,0 87.9,1.7 z"/>
<path d="M 161.5,144.6 c -1.1,0.2 -4.5,0.9 -7.5,1.5 -21.6,4.2 -41.8,23.9 -47.5,46.4 -1.9,7.6 -1.9,23.4 0,31 5.5,21.8 23.7,40.2 45.5,46.1 10.3,2.8 25.4,2.4 35.7,-1 27.6,-9 45.6,-35.3 44,-64.2 -1.8,-32.3 -27.6,-58.1 -59.9,-59.8 -4.6,-0.3 -9.2,-0.3 -10.3,0 z m 16.1,26.8 c 4.7,4.7 4.7,9.5 0,14.2 -2.6,2.6 -4.2,3.4 -7.1,3.4 -5.1,0 -10.5,-5.3 -10.5,-10.2 0.1,-6.5 4.3,-10.7 10.9,-10.8 2.5,0 4.2,0.9 6.7,3.4 z m 2.4,51.1 l 0,23.5 -9.5,0 -9.5,0 -0.2,-19.8 -0.3,-19.7 -5.2,-0.3 -5.3,-0.3 0,-3.5 0,-3.4 15,0 15,0 0,23.5 z"/>
<path d="M 296.7,128 c -12.1,3.8 -16.3,18.2 -8.1,27.8 4,4.7 8.9,6.6 15,5.9 15.5,-1.7 20.7,-22.5 7.7,-31.1 -4.3,-2.8 -10.4,-3.9 -14.6,-2.6 z"/>
<path d="M 286.6,175.1 c -3,2.3 -3.3,4.5 -1,7.7 3,4.4 10.4,1.6 10.4,-3.9 0,-1.6 -4.4,-5.9 -6,-5.9 -0.4,0 -1.9,0.9 -3.4,2.1 z"/>
<path d="M 309.6,175.1 c -3,2.3 -3.3,4.5 -1,7.7 2.1,3.1 6.9,3 9,-0.3 2.1,-3.2 1.2,-6.8 -2.1,-8.3 -3.2,-1.5 -2.8,-1.6 -5.9,0.9 z"/>
<path d="M 285.6,198.6 c -3.4,3.3 -0.5,9.4 4.4,9.4 3,0 6,-3 6,-6.1 0,-4.1 -7.3,-6.5 -10.4,-3.3 z"/>
<path d="M 308.7,198.8 c -2.1,2.3 -2.1,4.1 -0.1,7 3,4.4 10.4,1.6 10.4,-4 0,-4.4 -7.2,-6.5 -10.3,-3 z"/>
<path d="M 285.7,221.8 c -2.1,2.3 -2.1,4.1 -0.1,7 3,4.3 10.4,1.6 10.4,-3.9 0,-4.3 -7.3,-6.5 -10.3,-3.1 z"/>
<path d="M 308.3,222.6 c -1.5,2.4 -1.5,2.9 -0.2,5.3 2,3.6 7.1,4.1 9.3,0.9 2.1,-2.9 2,-5.1 -0.2,-7.1 -2.8,-2.6 -6.9,-2.1 -8.9,0.9 z"/>
<path d="M 288.8,245 c -4.3,3.3 -5,6.6 -4.6,22.4 l 0.3,14.6 3.3,3.2 c 3.1,3.2 3.6,3.3 12.1,3.6 6.8,0.3 9.7,0 12.4,-1.3 5.6,-2.6 6.7,-6.1 6.7,-22 0,-20.5 -1.5,-22.5 -17.6,-22.5 -8.6,0 -10.5,0.3 -12.6,2 z"/>
</svg>
