<svg xmlns="http://www.w3.org/2000/svg" viewBox="0 0 384 384">
<path d="M 72.7,11.1 c -2,1.1 -4.9,3.8 -6.5,6.1 -2.6,4 -2.7,4.8 -3.2,20.2 l -0.5,16.1 -17,0.5 c -15.8,0.5 -17.2,0.7 -20.3,2.8 -5.9,4.3 -7.2,8.4 -7.2,23.1 0,14 0.7,17.1 4.8,21.5 4.6,4.9 7.7,5.6 24.7,5.6 l 15.5,0 0,13.7 c 0,15.7 0.9,20 5,24.7 4.7,5.3 7,5.8 24.1,5.4 14.2,-0.3 15.6,-0.5 18.7,-2.6 5.8,-4.2 6.6,-7 7.2,-24.7 l 0.5,-16 16.5,-0.5 c 18.4,-0.6 21.4,-1.5 25.7,-8 2.1,-3.1 2.3,-4.4 2.3,-18.5 0,-14.2 -0.2,-15.4 -2.3,-18.6 -1.2,-1.8 -3.8,-4.4 -5.6,-5.6 -3.2,-2.2 -4.4,-2.3 -19.6,-2.3 -13.9,0 -16.4,-0.2 -16.9,-1.6 -0.3,-0.9 -0.6,-7.8 -0.6,-15.4 0,-14.9 -0.6,-17.9 -4.8,-22.4 -4.5,-4.8 -7.8,-5.6 -22.9,-5.6 -11.8,0.1 -14.4,0.4 -17.6,2.1 z m 33.9,9 c 1.7,1.9 2,4.3 2.4,21.8 l 0.5,19.6 20.2,0.5 c 25.7,0.6 24.6,-0.1 25.1,16.6 0.2,7 -0.1,12.6 -0.7,14.3 -2.2,5.1 -4,5.6 -25.1,6.1 l -19.5,0.5 -0.3,19.2 -0.2,19.2 -3.1,2.5 c -2.9,2.5 -3.6,2.6 -15.4,2.6 -11.6,0 -12.6,-0.1 -15.2,-2.4 l -2.8,-2.4 -0.3,-19.6 -0.3,-19.6 -17.2,0 c -9.5,0 -18.9,-0.5 -20.9,-1 -6.1,-1.7 -6.8,-3.7 -6.8,-18 0.1,-18.3 -0.3,-18 25.9,-18 l 19.1,0 0,-18.9 c 0,-18.9 0,-19 2.6,-22 l 2.6,-3.1 13.7,0 c 12.7,0 13.9,0.2 15.7,2.1 z"/>
<path d="M 39.4,183.7 c -0.3,1.6 -1.2,5.3 -2,8.4 -0.8,3.1 -1.4,6.4 -1.4,7.2 0,1.2 3.9,1.5 25.8,2 27.5,0.6 34.6,1.6 42.3,5.8 5.7,3.1 8.2,7.8 7.5,14.1 -1.2,11.6 -9.3,20.5 -23.5,25.8 -6.2,2.4 -25.9,4.6 -27.4,3.1 -1.1,-1.1 0.3,-8.7 5.4,-29.3 1.6,-6.4 2.9,-11.9 2.9,-12.2 0,-0.3 -8.1,-0.6 -17.9,-0.6 l -17.9,0 -2.2,9.2 c -1.2,5.1 -3.4,14.7 -5,21.3 -4.8,20.1 -7,30.7 -6.4,31.6 0.7,1.2 32.7,1.1 48.2,-0.1 22.2,-1.7 41.9,-6.4 51.5,-12.2 19,-11.5 28.8,-24.1 29.1,-37.1 0,-3.4 -0.3,-8.2 -0.7,-10.7 -0.7,-4.2 -0.7,-4.3 0.6,-2 2,3.5 25.8,68.4 28.7,78.2 l 0.8,2.6 -8.1,0.6 c -4.5,0.3 -18.3,1.1 -30.7,1.6 -82.3,3.6 -130,12.2 -130,23.2 0,3.2 6,7.7 13.3,9.9 33.1,9.9 83,14.9 147.7,15 73.9,0.1 147.1,-6.4 170.2,-15.1 8.5,-3.2 11,-5.5 10.6,-9.8 -0.3,-3.5 -0.6,-3.8 -7.3,-6.6 -23.3,-9.6 -62.2,-14.8 -125.5,-16.7 -19.5,-0.6 -35.7,-1.3 -35.9,-1.5 -0.8,-0.8 32.5,-39.1 62.5,-72 5.6,-6.1 10.9,-12.3 11.9,-13.7 l 1.7,-2.7 25.2,0 c 27.8,0 34.9,1 44,6.4 5.5,3.2 7.6,6.9 7.6,13.1 0,11.1 -9.9,21.7 -25.2,27.1 -5,1.7 -24.8,3.9 -25.8,2.7 -1,-1 0.7,-10.6 4.9,-27.2 1.7,-6.6 3.1,-12.8 3.1,-13.6 0,-1.3 -2.4,-1.5 -17.7,-1.3 l -17.7,0.3 -7.4,29.8 c -4.1,16.4 -7.1,30.5 -6.8,31.4 1,2.5 50.6,1.3 66.7,-1.6 27.8,-5 44.3,-13.8 55.3,-29.5 7.8,-11 9.3,-19 5.9,-29.7 -3.4,-10.6 -16.6,-20.3 -34.2,-25.2 -7.1,-2 -10.4,-2.1 -52,-2.5 l -44.4,-0.3 -2.9,2.8 c -4.3,4 -16.4,19 -30.7,38 -6.7,9 -12.6,16.3 -13,16.3 -0.9,0 -9.6,-25.5 -16.1,-46.8 l -3.1,-10.2 -66.9,0 -67,0 -0.6,2.7 z m 235.8,120.6 c 5.5,2.3 8.8,6.4 8.8,10.8 0,7.7 -8.8,13.4 -20.5,13.4 -8.2,0 -13.2,-2.7 -16.5,-8.8 l -2.5,-4.7 2,-3.7 c 2.4,-4.3 6,-7.2 10.6,-8.4 4.4,-1.1 14,-0.3 18.1,1.4 z m -189.4,1 c 1.2,1.2 3.4,4.6 5,7.5 3.3,6 3.3,6 8.1,-3.6 l 3.1,-6.2 4.6,0 c 5.8,0 5.8,0.3 -2.7,13.8 -6.5,10.4 -9.3,12.7 -12.7,10.6 -1.7,-1.1 -14.2,-21.4 -14.2,-23.2 0,-2.2 6.4,-1.4 8.8,1.1 z m 52,9.9 l -0.3,12.3 -4,0 -4,0 -0.3,-10.9 c -0.1,-6.1 0,-11.6 0.2,-12.3 0.3,-0.8 2.2,-1.3 4.6,-1.3 l 4.1,0 -0.3,12.2 z m 42.9,-10.2 c 4.6,2 8.3,6.9 8.3,10.9 0,1.4 -1.5,3.9 -3.7,6.1 -4.3,4.3 -10.3,6 -20.8,6 l -6.5,0 0,-12.5 0,-12.5 9.3,0 c 6.9,0 10.3,0.5 13.4,2 z m 46.1,0.7 c -0.3,2.6 -0.6,2.8 -5.6,3.1 -4.4,0.3 -5.3,0.6 -5,2 0.2,1.3 1.5,1.8 5.1,2 4.2,0.3 4.7,0.5 4.7,2.8 0,2.2 -0.4,2.4 -4.5,2.4 -3.3,0 -4.7,0.5 -5.2,1.6 -0.8,2.2 1.4,3.4 6.5,3.4 3.9,0 4.3,0.2 4,2.2 -0.3,2.2 -0.7,2.3 -9.3,2.3 l -9,0 -0.3,-12.3 -0.3,-12.2 9.6,0 9.6,0 -0.3,2.7 z"/>
<path d="M 257.2,310.6 c -2.7,1.9 -3,7.4 -0.4,9.6 2.6,2.3 7.5,3.1 12.1,1.8 6.2,-1.6 8.1,-7.1 3.9,-11 -2.7,-2.5 -12.2,-2.8 -15.6,-0.4 z"/>
<path d="M 166.4,310.4 c -0.7,1.9 0,9.8 1,11.4 1,1.7 7.3,0.7 9.9,-1.5 2.1,-2 2.2,-7.6 0.1,-9.7 -2,-2.1 -10.2,-2.2 -11,-0.2 z"/>
</svg>
