<svg xmlns="http://www.w3.org/2000/svg" viewBox="0 0 384 384">
<path d="M 134.2,29.5 c -22.2,4.2 -41.8,14.4 -57,29.7 -16,15.9 -25.6,35 -29.8,59.2 -3.8,21.7 1.6,48.3 14.1,69.5 5.6,9.4 18.5,23.7 27.8,30.7 12.8,9.6 31.3,16.9 49.5,19.5 l 8.2,1.1 0,11.4 0,11.3 -46,0.3 -46,0.3 -2.6,2.7 c -3.3,3.3 -4.3,8.4 -4.3,23.5 l -0.1,11.3 -12.5,0 c -11.3,0 -12.5,0.2 -13.5,1.9 -1.5,2.9 -1.4,54.3 0.2,55.9 0.8,0.8 6.5,1.2 19.1,1.2 l 17.9,0 3.7,4.1 c 3,3.4 4.4,4.2 8.1,4.6 11,1.1 17.8,-11.3 11,-20 -1.9,-2.3 -2,-4.1 -2,-24.5 0,-19.1 -0.2,-22.1 -1.6,-22.6 -0.9,-0.3 -6,-0.6 -11.5,-0.6 l -9.9,0 0.3,-12 c 0.2,-9.8 0.6,-12.3 2,-13.8 1.6,-1.5 5.5,-1.7 44.7,-2 l 43,-0.3 0,14.1 0,14 -12,0 c -10.8,0 -12,0.2 -13,1.9 -1.5,2.9 -1.4,54.3 0.2,55.9 0.8,0.8 6.5,1.2 19.1,1.2 l 17.9,0 3.7,4.1 c 3,3.4 4.4,4.2 8.1,4.6 11,1.1 17.8,-11.3 11,-20 -1.9,-2.3 -2,-4.1 -2,-24.5 0,-19.1 -0.2,-22.1 -1.6,-22.6 -0.9,-0.3 -6,-0.6 -11.4,-0.6 l -9.9,0 0.2,-13.8 0.2,-13.7 34.3,-0.3 c 18.8,-0.1 34.2,-0.6 34.2,-1 0,-0.4 -2.1,-2.6 -4.7,-4.7 l -4.8,-4 -29.5,-0.5 -29.5,-0.5 0,-11 0,-11 9.8,-1.7 c 11.1,-1.9 22.3,-5 25.1,-7.1 1.8,-1.4 1.8,-1.6 0.1,-8.8 -2.1,-8.8 -3,-10.2 -5.5,-8.9 -3.2,1.7 -3.3,1.1 -0.6,-2.4 2.1,-2.8 2.6,-4.6 2.6,-9 0,-3.1 -0.4,-5.6 -0.9,-5.6 -0.5,0 -2.1,1.7 -3.7,3.7 -4.5,6.1 -15.7,17.4 -18.6,18.9 -1.5,0.8 -4.1,1.4 -5.8,1.4 l -3,0 0,-15 0,-15 15.4,0 c 8.5,0 15.7,-0.4 16,-0.8 0.3,-0.5 0.8,-2.8 1.2,-5 l 0.7,-4.2 -16.7,0 -16.6,0 0,-21.1 0,-21 26.1,0.2 26.1,0.1 4.3,-4.3 4.4,-4.4 -1.9,-12.5 c -1,-6.9 -3,-16 -4.4,-20.3 -1.4,-4.3 -2.6,-8.2 -2.6,-8.8 0,-0.6 3.2,-0.9 8.2,-0.7 l 8.3,0.3 2.7,5 c 1.5,2.7 4.2,9 5.9,13.8 1.9,5.1 3.7,8.6 4.3,8.3 0.6,-0.2 4,-1.6 7.6,-3.1 3.6,-1.5 6.9,-3 7.4,-3.5 1.2,-1.2 -1.8,-10.3 -6.7,-20.5 -14.3,-29.3 -41.2,-50.2 -73.3,-57 -10.7,-2.3 -29.9,-2.8 -39.2,-1 z m 12.8,33 l 0,15.5 -17.8,0 c -9.8,0 -18.1,-0.3 -18.5,-0.6 -1.1,-1.2 13.2,-20.3 19.7,-26.3 2.4,-2.3 7.3,-3.7 13.9,-4 l 2.7,-0.1 0,15.5 z m 22.8,-13.4 c 2,0.7 5.2,3.4 8.6,7.5 8.1,9.5 14.8,19.2 14.1,20.4 -0.4,0.6 -7.3,1 -18.1,1 l -17.4,0 0,-15.6 0,-15.6 4.8,0.6 c 2.6,0.4 6.2,1.2 8,1.7 z m 29.7,12.2 c 8.4,5.6 17.5,13.6 17.5,15.3 0,1.2 -1.4,1.4 -6.7,1.2 l -6.7,-0.3 -2.9,-5 c -1.6,-2.7 -4.9,-7.6 -7.3,-10.8 -2.4,-3.1 -4.4,-6 -4.4,-6.2 0,-0.8 3.6,1.2 10.5,5.8 z m -86.9,-3.1 c -0.8,1.3 -4.1,6.2 -7.3,11 l -5.7,8.8 -6.2,0 c -3.5,0 -6.5,-0.4 -6.9,-0.9 -0.7,-1.3 11.1,-11.7 19.3,-16.8 7.6,-4.8 9.2,-5.3 6.8,-2.1 z m -17.6,29.6 c 0,0.5 -1.1,4.1 -2.4,8 -2.2,6.4 -5.1,21.2 -5.8,29.7 l -0.3,3 -10.7,0.3 c -12.6,0.3 -11.8,1.4 -8.9,-12.4 1.9,-9 7.9,-24.3 10.8,-27.7 1.3,-1.3 3.2,-1.7 9.5,-1.7 4.3,0 7.8,0.4 7.8,0.8 z m 52,20.2 l 0,21 -25.9,0 -25.8,0 0.4,-5.3 c 0.9,-10.7 3.8,-22.7 8.2,-34 l 1.1,-2.7 21,0 21,0 0,21 z m 53.9,-15.5 c 3.4,9 6,20.3 6.7,28.6 l 0.7,7.9 -25.7,0 -25.6,0 0,-21 0,-21 20.9,0 21,0 2,5.5 z m -112.8,56.5 c 1.5,8.8 5.2,21.8 8.4,29.2 0.6,1.6 -0.1,1.8 -8.7,1.8 l -9.5,0 -2.6,-4.9 c -1.5,-2.7 -3.8,-7.9 -5.2,-11.5 -2.7,-7.1 -5.9,-23.2 -4.9,-24.7 0.3,-0.5 5.1,-0.8 10.7,-0.7 l 10.1,0.3 1.7,10.5 z m 58.9,10 l 0,21 -20.4,0 -20.4,0 -3.1,-8.4 c -4,-11.2 -6.1,-19.4 -6.8,-27.2 l -0.6,-6.4 25.7,0 25.6,0 0,21 z m -40.7,37 c 2.1,3.2 6,8.6 8.8,11.9 2.8,3.4 4.7,6.1 4.2,6.1 -0.4,0 -5,-2.4 -10,-5.3 -8.8,-4.9 -22.3,-15.7 -22.3,-17.8 0,-0.5 3.5,-0.9 7.8,-0.9 l 7.7,0 3.8,6 z m 40.7,9 l 0,15 -2.9,0 c -4.9,0 -7.3,-1.5 -14.3,-8.6 -6.7,-6.9 -16.8,-19.2 -16.8,-20.7 0,-0.4 7.7,-0.7 17,-0.7 l 17,0 0,15 z m -69.2,118.3 l 0.2,20.7 -3.8,-0.6 c -6.5,-1 -12.8,3.5 -13.8,9.8 l -0.7,3.8 -17.8,0 -17.9,0 0,-27.5 0,-27.5 26.8,0.2 26.7,0.3 0.3,20.8 z m 100,0 l 0.2,20.7 -3.8,-0.6 c -6.5,-1 -12.8,3.5 -13.8,9.8 l -0.7,3.8 -17.8,0 -17.9,0 0,-27.5 0,-27.5 26.8,0.2 26.7,0.3 0.3,20.8 z m -101.3,23.2 c 7.6,3.7 7.8,14.2 0.3,18.1 -6.1,3.1 -13.4,-0.7 -14.4,-7.7 -0.6,-4.5 1.3,-8 5.6,-10.1 4.3,-2.2 4.4,-2.2 8.5,-0.3 z m 100,0 c 7.6,3.7 7.8,14.2 0.3,18.1 -6.1,3.1 -13.4,-0.7 -14.4,-7.7 -0.6,-4.5 1.3,-8 5.6,-10.1 4.3,-2.2 4.4,-2.2 8.5,-0.3 z"/>
<path d="M 44.5,310.4 c -4.3,1.4 -8.9,3.7 -11.9,6 -1.6,1.3 -1.7,1.8 -0.6,3.1 1.1,1.3 1.5,1.2 3.9,-0.6 8.5,-6.7 22.5,-6.5 29.9,0.4 2,1.8 2.4,1.9 3.2,0.7 0.5,-0.8 1,-1.8 1,-2.1 0,-1.4 -7.9,-5.8 -12.9,-7.3 -6.4,-1.9 -7.3,-1.9 -12.6,-0.2 z"/>
<path d="M 46.4,318 c -1.8,0.4 -4.8,1.7 -6.9,3 -3.2,2 -3.5,2.4 -2.2,3.8 1.3,1.3 1.8,1.3 3.9,-0.2 5.7,-4 14.2,-4 18.9,0.1 1.8,1.5 5.2,0.7 4.6,-1.1 -0.5,-1.7 -7.7,-5.3 -11.7,-5.9 -1.9,-0.3 -4.9,-0.2 -6.6,0.3 z"/>
<path d="M 45.5,326.6 c -3.9,2 -4,2.1 -2.6,3.8 1,1.2 1.6,1.2 3.9,0 3.4,-1.8 5.3,-1.8 7.8,0 1.3,1 2.3,1.1 3.1,0.4 2.1,-1.7 1.5,-2.8 -2.2,-4.4 -4.4,-1.8 -6.3,-1.8 -10,0.2 z"/>
<path d="M 48.2,333.9 c -1.8,1.1 -1.1,5.1 1,6.5 1.4,0.8 2.2,0.6 3.9,-1 1.7,-1.8 1.9,-2.5 1,-4.3 -1.2,-2.2 -3.6,-2.7 -5.9,-1.2 z"/>
<path d="M 28,351 c 0,0.6 4.5,1 11.5,1 7,0 11.5,-0.4 11.5,-1 0,-0.6 -4.5,-1 -11.5,-1 -7,0 -11.5,0.4 -11.5,1 z"/>
<path d="M 53,351 c 0,0.5 1.1,1 2.5,1 1.4,0 2.5,-0.5 2.5,-1 0,-0.6 -1.1,-1 -2.5,-1 -1.4,0 -2.5,0.4 -2.5,1 z"/>
<path d="M 132,321.5 l 0,12.5 2.9,0 c 2.3,0 3,0.5 3.3,2.2 0.2,1.5 1.1,2.4 2.6,2.6 1.4,0.2 2.2,1 2.2,2.3 0,1.7 0.8,1.9 8,1.9 7.3,0 8,-0.2 8,-2 0,-1.3 0.7,-2 2,-2 1.5,0 2,-0.7 2,-2.5 0,-2.2 0.4,-2.5 3.5,-2.5 l 3.5,0 0,-12.5 0,-12.5 -19,0 -19,0 0,12.5 z m 4,-6.5 c 0,5.1 1.8,5.3 2.2,0.2 0.4,-5.1 2.2,-4.7 2.6,0.6 0.4,5.2 2.2,4.6 2.2,-0.9 0,-2.1 0.5,-3.9 1,-3.9 0.6,0 1,1.8 1,4 0,5.1 1.8,5.3 2.2,0.2 0.2,-2 0.8,-3.7 1.3,-3.7 0.6,0 1.1,1.7 1.3,3.7 0.4,5.1 2.2,4.9 2.2,-0.2 0,-2.2 0.5,-4 1,-4 0.6,0 1,1.8 1,3.9 0,5.5 1.8,6.1 2.2,0.9 0.4,-5.3 2.2,-5.7 2.6,-0.6 0.4,5.1 2.2,4.9 2.2,-0.2 0,-5.3 1.8,-5.1 2.2,0.2 0.4,5.6 2.2,5.5 2.6,0 0.6,-8.1 2.2,-3.1 2.2,6.9 l 0,9.9 -3.5,0 c -2.8,0 -3.5,0.4 -3.5,1.9 0,1.3 -0.8,2.1 -2.2,2.3 -1.5,0.2 -2.4,1.1 -2.6,2.5 -0.3,2.1 -0.9,2.3 -5.8,2.3 -5.1,0 -5.4,-0.1 -5.4,-2.5 0,-1.8 -0.5,-2.5 -2,-2.5 -1.3,0 -2,-0.7 -2,-2 0,-1.6 -0.7,-2 -3.5,-2 l -3.5,0 0,-10.5 c 0,-6.3 0.4,-10.5 1,-10.5 0.6,0 1,1.8 1,4 z"/>
<path d="M 128,351 c 0,0.6 4.5,1 11.5,1 7,0 11.5,-0.4 11.5,-1 0,-0.6 -4.5,-1 -11.5,-1 -7,0 -11.5,0.4 -11.5,1 z"/>
<path d="M 153,351 c 0,0.5 1.1,1 2.5,1 1.4,0 2.5,-0.5 2.5,-1 0,-0.6 -1.1,-1 -2.5,-1 -1.4,0 -2.5,0.4 -2.5,1 z"/>
<path d="M 67,350.9 c 0,0.5 0.7,1.4 1.5,2.1 1.9,1.6 1.9,2.9 -0.2,5.2 -2.1,2.4 -0.9,3.6 1.5,1.5 2.3,-2.1 3.1,-2.1 5.4,0 2.7,2.4 3.5,0.7 1,-2 l -2.2,-2.3 2.2,-2.2 c 2.9,-2.9 1.5,-4.2 -1.5,-1.4 l -2.4,2.2 -1.8,-2 c -1.9,-2.1 -3.5,-2.6 -3.5,-1.1 z"/>
<path d="M 174.2,354.2 c -4,4 -4.2,4.1 -6.1,2.4 -2.9,-2.6 -3.4,-0.3 -0.5,2.5 l 2.5,2.3 5,-5.1 c 2.8,-2.8 4.7,-5.3 4.2,-5.6 -0.5,-0.3 -2.8,1.3 -5.1,3.5 z"/>
<path d="M 271.1,115 c -17.3,2.4 -32.4,9.6 -44.8,21.4 -17.3,16.4 -24.9,32.6 -26,55.7 -1.2,25.5 7,45.6 25.9,63.5 31.1,29.3 79.4,29.3 110.7,-0.1 28.4,-26.7 34.1,-68.3 14,-102.2 -7.4,-12.4 -22.7,-25.8 -36.6,-31.9 -12.6,-5.6 -30.1,-8.2 -43.2,-6.4 z m 20,31.6 c 4,2 7.3,9.3 6.4,14 -0.3,1.9 -2.1,4.9 -4,6.8 -5.7,5.7 -13.9,5.3 -19.4,-1 -2.6,-2.9 -3.1,-4.3 -3.1,-8.6 0,-4.5 0.4,-5.4 3.9,-8.9 3.4,-3.4 4.4,-3.9 8.5,-3.9 2.6,0 6.1,0.7 7.7,1.6 z m 5.9,67.4 l 0,30 -12.5,0 -12.5,0 0,-18.9 c 0,-10.3 -0.3,-21.6 -0.6,-24.9 l -0.7,-6.1 -6.8,-0.7 -6.9,-0.7 0,-4.3 0,-4.4 20,0 20,0 0,30 z"/>
<path d="M 248,291.5 l 0,8.5 -12,0 c -10.8,0 -12,0.2 -13,1.9 -1.5,2.9 -1.4,54.3 0.2,55.9 0.8,0.8 6.5,1.2 19.1,1.2 l 17.9,0 3.7,4.1 c 3,3.4 4.4,4.2 8.1,4.6 11,1.1 17.8,-11.3 11,-20 -1.9,-2.3 -2,-4.1 -2,-24.5 0,-19.1 -0.2,-22.1 -1.6,-22.6 -0.9,-0.3 -5.8,-0.6 -11,-0.6 l -9.4,0 0,-6.9 0,-6.9 -4.7,-1.6 c -2.6,-0.9 -5,-1.6 -5.5,-1.6 -0.4,0 -0.8,3.8 -0.8,8.5 z m 30.8,31.8 l 0.2,20.7 -3.8,-0.6 c -6.5,-1 -12.8,3.5 -13.8,9.8 l -0.7,3.8 -17.8,0 -17.9,0 0,-27.5 0,-27.5 26.8,0.2 26.7,0.3 0.3,20.8 z m -1.3,23.2 c 7.6,3.7 7.8,14.2 0.3,18.1 -6.1,3.1 -13.4,-0.7 -14.4,-7.7 -0.6,-4.5 1.3,-8 5.6,-10.1 4.3,-2.2 4.4,-2.2 8.5,-0.3 z"/>
<path d="M 233,321.5 l 0,12.5 2.9,0 c 2.3,0 3,0.5 3.3,2.2 0.2,1.5 1.1,2.4 2.6,2.6 1.4,0.2 2.2,1 2.2,2.3 0,1.7 0.8,1.9 8,1.9 7.3,0 8,-0.2 8,-2 0,-1.3 0.7,-2 2,-2 1.5,0 2,-0.7 2,-2.5 0,-2.2 0.4,-2.5 3.5,-2.5 l 3.5,0 0,-12.5 0,-12.5 -19,0 -19,0 0,12.5 z m 4,-6.5 c 0,5.1 1.8,5.3 2.2,0.2 0.4,-5.1 2.2,-4.7 2.6,0.6 0.4,5.2 2.2,4.6 2.2,-0.9 0,-2.1 0.5,-3.9 1,-3.9 0.6,0 1,1.8 1,4 0,5.1 1.8,5.3 2.2,0.2 0.2,-2 0.8,-3.7 1.3,-3.7 0.6,0 1.1,1.7 1.3,3.7 0.4,5.1 2.2,4.9 2.2,-0.2 0,-2.2 0.5,-4 1,-4 0.6,0 1,1.8 1,3.9 0,5.5 1.8,6.1 2.2,0.9 0.4,-5.3 2.2,-5.7 2.6,-0.6 0.4,5.1 2.2,4.9 2.2,-0.2 0,-5.3 1.8,-5.1 2.2,0.2 0.4,5.6 2.2,5.5 2.6,0 0.6,-8.1 2.2,-3.1 2.2,6.9 l 0,9.9 -3.5,0 c -2.8,0 -3.5,0.4 -3.5,1.9 0,1.3 -0.8,2.1 -2.2,2.3 -1.5,0.2 -2.4,1.1 -2.6,2.5 -0.3,2.1 -0.9,2.3 -5.8,2.3 -5.1,0 -5.4,-0.1 -5.4,-2.5 0,-1.8 -0.5,-2.5 -2,-2.5 -1.3,0 -2,-0.7 -2,-2 0,-1.6 -0.7,-2 -3.5,-2 l -3.5,0 0,-10.5 c 0,-6.3 0.4,-10.5 1,-10.5 0.6,0 1,1.8 1,4 z"/>
<path d="M 229,351 c 0,0.6 4.5,1 11.5,1 7,0 11.5,-0.4 11.5,-1 0,-0.6 -4.5,-1 -11.5,-1 -7,0 -11.5,0.4 -11.5,1 z"/>
<path d="M 254,351 c 0,0.5 1.1,1 2.5,1 1.4,0 2.5,-0.5 2.5,-1 0,-0.6 -1.1,-1 -2.5,-1 -1.4,0 -2.5,0.4 -2.5,1 z"/>
<path d="M 275.2,354.2 c -4,4 -4.2,4.1 -6.1,2.4 -2.9,-2.6 -3.4,-0.3 -0.5,2.5 l 2.5,2.3 5,-5.1 c 2.8,-2.8 4.7,-5.3 4.2,-5.6 -0.5,-0.3 -2.8,1.3 -5.1,3.5 z"/>
</svg>
