<svg xmlns="http://www.w3.org/2000/svg" viewBox="0 0 384 384">
<path d="M 169,30.6 c -11.4,1.7 -17.3,2.7 -22,4.1 -25.8,7.3 -45.4,20.3 -56.2,37.4 -12.8,20.1 -11.3,43.3 4.2,62.3 5,6.1 13.6,13.6 19.8,17.2 l 3.2,1.8 0,14.9 c 0,16.4 0.9,19.8 5.7,21.4 4.5,1.6 8.2,-0.5 20.9,-11.6 l 11.8,-10.3 5.6,0.8 c 6.9,1.1 37.6,1.2 45,0.1 l 5.5,-0.8 11.5,10.1 c 6.3,5.5 12.7,10.7 14.2,11.6 3.4,1.8 6.9,1 10,-2.3 2.2,-2.3 2.3,-3.3 2.6,-18.2 l 0.3,-15.7 4.7,-2.9 c 8,-5 21.3,-19.2 25,-26.8 10.8,-22 6.5,-44.5 -12.3,-63.2 -15.1,-15.2 -39.8,-26.2 -65.7,-29.5 -7.7,-0.9 -28.2,-1.2 -33.8,-0.4 z m 40.1,19.4 c 13.4,2.8 18.2,4.4 28.7,9.7 25.8,12.9 37,34.9 27.9,54.6 -4.2,9.2 -15.4,19.9 -26.8,25.8 -4.8,2.4 -5.9,5 -5.9,14 0,4.3 -0.4,6.9 -1.1,6.9 -0.6,0 -3.8,-2.5 -7.2,-5.5 -7,-6.3 -7.7,-6.5 -23.7,-4 -5.2,0.8 -12.6,1.5 -16.5,1.5 -3.8,0 -11.3,-0.7 -16.5,-1.5 -15.9,-2.4 -16.6,-2.3 -24,4 -8.8,7.4 -9.5,7.3 -8.6,-1.5 0.3,-4.1 0.2,-7.9 -0.4,-8.9 -0.5,-1 -5.4,-4.8 -10.9,-8.5 -14.3,-9.5 -20.7,-17.6 -23.8,-30 -1.4,-6 -1.4,-7 0.1,-13.2 2.3,-9.1 5.4,-14 13.9,-22.1 21.1,-19.8 60.2,-28.6 94.8,-21.3 z"/>
<path d="M 134.4,74.5 c -1.4,5.6 -2.8,5.5 54.1,5.5 56.9,0 55.5,0.1 54.1,-5.5 l -0.6,-2.5 -53.5,0 -53.5,0 -0.6,2.5 z"/>
<path d="M 135.2,95.2 c -1.7,1.7 -1.5,4.4 0.4,6.2 1.4,1.4 7.5,1.6 52.5,1.6 33.3,0 51.7,-0.4 53,-1 2.1,-1.2 2.5,-5 0.7,-6.8 -1.7,-1.7 -104.9,-1.7 -106.6,0 z"/>
<path d="M 135.2,118.2 c -1.9,1.9 -1.4,4.5 1,6.2 3.3,2.4 62.3,2.4 65.6,0 2.4,-1.7 2.9,-4.3 1,-6.2 -1.7,-1.7 -65.9,-1.7 -67.6,0 z"/>
<path d="M 70.5,183.3 c -25.9,12.6 -31.5,46.2 -10.8,65.8 12.9,12.2 30.7,14.6 47.1,6.3 8.4,-4.3 12.9,-8.9 17.5,-18.4 3,-6 3.2,-7.2 3.2,-17 0,-9.7 -0.2,-11 -3.1,-17.1 -3.8,-8 -11,-15.4 -19,-19.4 -5.3,-2.7 -7,-3 -16.9,-3.3 -10.8,-0.3 -11.2,-0.2 -18,3.1 z m 30,7.7 c 9.4,4.3 15.4,11.7 18.1,22.4 2.7,10.7 -0.5,20.6 -9.6,29.7 -3.7,3.7 -6.2,5.2 -11.5,6.8 -8.4,2.6 -11.6,2.6 -19.9,0.1 -7.8,-2.4 -14.8,-8.6 -18.6,-16.5 -2.1,-4.2 -2.5,-6.4 -2.5,-14 0.1,-9.5 1,-12.3 6.3,-19.3 8.2,-10.8 25.1,-14.9 37.7,-9.2 z"/>
<path d="M 278,180.9 c -5.8,1.9 -13.5,6.5 -17.7,10.7 -16.1,16.1 -14.8,45.2 2.7,59.3 23.1,18.6 57.1,8.3 65.4,-19.8 5.5,-18.6 -4.1,-39.5 -21.9,-47.8 -5.2,-2.4 -7.4,-2.8 -16,-3 -5.5,-0.1 -11.1,0.1 -12.5,0.6 z m 25.1,10.6 c 7.1,3.7 11.5,7.9 14.5,14.3 13,27.5 -14.6,55.6 -41.9,42.8 -10.9,-5.2 -17.8,-16 -17.9,-28.2 -0.2,-14.4 9.3,-27.2 23.2,-31.1 6.3,-1.8 16.1,-0.8 22.1,2.2 z"/>
<path d="M 53,265.6 c -16.8,4.5 -29,17.2 -32,33.3 -0.5,2.9 -1,15 -1,26.7 0,18 0.2,21.5 1.6,22.8 1.4,1.4 8.7,1.6 65.8,1.6 50.7,0 64.6,-0.3 66,-1.3 1.6,-1.2 1.7,-3.4 1.4,-26.7 -0.3,-24.1 -0.5,-25.8 -2.7,-31.3 -5.2,-12.6 -19,-23.5 -32.6,-25.7 -9.8,-1.6 -59.9,-1.2 -66.5,0.6 z m 24,8 c 0,0.4 -1.6,2.4 -3.5,4.5 -1.9,2.2 -3.5,4.8 -3.5,5.8 0,1.1 3,14 6.6,28.7 3.7,15.3 6.2,27 5.6,27.6 -0.4,0.4 -12.5,0.7 -26.8,0.6 l -25.9,-0.3 0,-21.5 0,-21.5 2.8,-5 c 5.1,-9.3 12.6,-15.6 21.4,-18 4.9,-1.3 23.3,-2 23.3,-0.9 z m 45,1 c 7.1,2 14.5,7.5 18.7,13.9 5,7.5 6.4,16 6.1,35.5 l -0.3,16.5 -27.2,0.3 c -15,0.1 -27.3,0 -27.3,-0.3 0,-0.3 2.9,-12.2 6.5,-26.5 6.8,-27.2 7.5,-31.9 5,-34 -0.9,-0.7 -2.5,-2.6 -3.6,-4.2 l -2,-2.8 9.2,0 c 5.4,0 11.6,0.7 14.9,1.6 z m -29.5,26.1 c -2.1,8.7 -4.1,16.4 -4.5,17.1 -0.4,0.8 -2.4,-5.5 -4.4,-14 -2,-8.4 -3.9,-16 -4.2,-16.9 -0.2,-0.9 1.3,-3.6 3.7,-6.3 l 4.2,-4.8 4.6,4.6 4.5,4.5 -3.9,15.8 z"/>
<path d="M 256.6,265.1 c -12.5,2.1 -24.2,11.2 -30.4,23.8 l -3.7,7.5 -0.3,25.4 c -0.2,18.5 0,25.7 0.9,26.8 1,1.2 11,1.4 66,1.4 57.5,0 64.9,-0.2 66.3,-1.6 1.4,-1.3 1.6,-4.9 1.6,-23.7 0,-12.2 -0.5,-24.2 -1.1,-26.6 -3.8,-16.7 -17.5,-29.9 -34.3,-33 -6.9,-1.3 -57.5,-1.3 -65,0 z m 18.4,13.1 c -2.9,3.7 -4,5.8 -3.5,7.3 0.3,1.1 1.9,7.6 3.6,14.5 1.6,6.9 4.6,18.7 6.5,26.3 1.8,7.6 3.4,14.1 3.4,14.3 0,0.2 -12.1,0.4 -27,0.4 l -27,0 0,-20.4 c 0,-22.7 0.5,-25.5 6.5,-33.6 7.1,-9.7 16.7,-13.9 31.8,-14 l 9.9,0 -4.2,5.2 z m 52.3,-2.4 c 6.6,3 14.1,10.4 17.4,17.1 2.8,5.5 2.8,6 3.1,26.8 l 0.3,21.3 -27,0 c -18.4,0 -27.1,-0.3 -27.1,-1.1 0,-0.5 1.4,-6.5 3.1,-13.2 1.7,-6.7 4,-16 5.1,-20.7 1,-4.7 2.6,-11.2 3.3,-14.5 2,-8.5 1.9,-9 -2,-13.4 -1.9,-2.1 -3.5,-4.2 -3.5,-4.6 0,-0.4 5.1,-0.5 11.3,-0.3 8.6,0.4 12.3,1 16,2.6 z m -33.4,5.1 l 4.1,4.8 -3.9,15.4 c -2,8.4 -4.2,15.4 -4.7,15.6 -0.5,0.2 -2.7,-6.8 -4.9,-15.6 l -3.9,-16 4,-4.4 c 2.1,-2.5 4.2,-4.6 4.6,-4.6 0.3,-0.1 2.4,2.1 4.7,4.8 z"/>
</svg>
