<svg xmlns="http://www.w3.org/2000/svg" viewBox="0 0 384 384">
<path d="M 35.4,25.4 c -5.3,2.4 -5.5,3.7 -5.2,44.5 l 0.3,37.3 2.8,2.4 2.8,2.4 37.9,0 37.9,0 2.8,-2.4 2.8,-2.4 0.3,-37.9 c 0.2,-41.7 0.2,-41.9 -5.8,-44 -5.3,-1.8 -72.4,-1.7 -76.6,0.1 z m 75.7,4.6 c 1.8,1 1.9,2.5 1.9,37.9 0,33.1 -0.2,37 -1.7,38.2 -1.3,1.1 -8.5,1.4 -37.3,1.4 -28.8,0 -36,-0.3 -37.3,-1.4 -1.5,-1.2 -1.7,-5.1 -1.7,-37.7 0,-31.6 0.2,-36.5 1.6,-37.8 1.3,-1.4 6.1,-1.6 37,-1.6 22.6,0 36.2,0.4 37.5,1 z"/>
<path d="M 66,52.6 c -2.5,0.9 -6.3,2.9 -8.5,4.5 -2.2,1.6 -7,5 -10.8,7.6 -3.7,2.5 -6.5,4.8 -6.3,5 0.7,0.8 7.5,-2.6 13.6,-6.7 12.8,-8.7 20.9,-10.1 30.9,-5.5 6.2,2.9 5.3,0.9 -1.4,-3.1 -5.5,-3.2 -11.8,-3.8 -17.5,-1.8 z"/>
<path d="M 68.4,57.4 c -1.7,0.8 -3.9,2.4 -4.8,3.7 -2.6,3.8 -1.8,3.9 1.8,0.3 2.6,-2.6 4.2,-3.4 7,-3.4 9.2,0 15.3,8.6 11.5,16.3 -1,2.1 -1,2.1 0.5,0.3 2.3,-2.9 2,-9.8 -0.5,-13 -4.1,-5.2 -9.6,-6.7 -15.5,-4.2 z"/>
<path d="M 67.3,61.5 c -2.9,2 -4.6,7.5 -3.4,10.6 0.9,2.2 1,2.2 1,0.3 0.1,-1.1 1.5,-4.1 3.1,-6.7 1.7,-2.6 3,-5 3,-5.2 0,-0.9 -1.6,-0.5 -3.7,1 z"/>
<path d="M 73.1,64.8 c -3.7,5.2 -5.3,10 -4.1,12.2 1.6,2.9 7.1,2.7 10.7,-0.5 l 2.8,-2.5 -2.3,-1.8 c -1.3,-1 -2.9,-3.7 -3.6,-6.1 l -1.3,-4.4 -2.2,3.1 z"/>
<path d="M 79.5,64.5 c 0.3,1.6 1.3,3.7 2.1,4.5 2.4,2.4 1.8,-2.3 -0.7,-5.1 l -2,-2.4 0.6,3 z"/>
<path d="M 101.4,69.9 c -2.9,1.5 -6.5,3.8 -8.2,5 -10.4,7.4 -21,9 -29.7,4.6 -2.7,-1.3 -5.1,-2.3 -5.3,-2 -0.8,0.8 8.3,6.6 12.2,7.6 5.5,1.5 13.2,-0.3 19.1,-4.4 2.5,-1.8 7.9,-5.6 12.1,-8.5 8.2,-5.6 8.1,-6.9 -0.2,-2.3 z"/>
<path d="M 142,43 l 0,12 105.5,0 105.5,0 0,-12 0,-12 -105.5,0 -105.5,0 0,12 z"/>
<path d="M 142.7,80.7 c -0.4,0.3 -0.7,6 -0.7,12.5 l 0,11.8 93.5,0 93.6,0 -0.3,-12.3 -0.3,-12.2 -92.6,-0.3 c -50.9,-0.1 -92.9,0.1 -93.2,0.5 z"/>
<path d="M 35.4,149.4 c -5.3,2.4 -5.5,3.7 -5.2,44.5 l 0.3,37.3 2.8,2.4 2.8,2.4 37.9,0 37.9,0 2.8,-2.4 2.8,-2.4 0.3,-37.9 c 0.2,-41.7 0.2,-41.9 -5.8,-44 -5.3,-1.8 -72.4,-1.7 -76.6,0.1 z m 75.7,4.6 c 1.8,1 1.9,2.5 1.9,37.9 0,33.1 -0.2,37 -1.7,38.2 -1.3,1.1 -8.5,1.4 -37.3,1.4 -28.8,0 -36,-0.3 -37.3,-1.4 -1.5,-1.2 -1.7,-5.1 -1.7,-37.7 0,-31.6 0.2,-36.5 1.6,-37.8 1.3,-1.4 6.1,-1.6 37,-1.6 22.6,0 36.2,0.4 37.5,1 z"/>
<path d="M 67.5,164.5 c -2.3,2.2 -2.5,3.2 -2.5,10.8 0,6.7 -0.4,8.9 -1.9,10.8 -2.1,2.7 -6.5,11.2 -7.5,14.6 -0.6,1.9 -0.4,2.3 1.6,2.3 2,0 2.6,-0.8 3.6,-4.5 0.6,-2.5 2,-5.3 2.9,-6.3 1.7,-1.7 2.2,-3.5 2.6,-9.5 0.2,-3.2 0.8,-3.4 2.5,-0.7 1.5,2.4 4,2.6 7,0.4 1.2,-0.8 2.6,-1.3 3.1,-0.9 1.5,0.9 6.8,15.5 7.4,20.3 0.4,3.6 0.3,4.2 -1.1,4 -1.3,-0.2 -1.8,0.6 -2,3.7 -0.3,3.7 -0.7,4.2 -4.3,5.8 -2.1,0.9 -5.3,1.7 -7,1.7 -2.3,0 -3,0.4 -2.7,1.7 0.4,2.3 10.4,2.6 11.4,0.3 0.5,-1.1 0.8,-0.9 1.3,1 1.1,4.2 5.6,3.8 12.4,-1.1 3.1,-2.2 5.7,-4.4 5.7,-4.8 0,-0.4 -0.9,-1.6 -2,-2.6 -1.1,-1 -2,-2.4 -2,-3.1 0,-2 -1.9,-2.7 -3.6,-1.3 -1.2,1 -1.3,0.9 -0.8,-0.4 0.3,-0.8 1.2,-1.8 2,-2.1 2.3,-0.9 1.6,-6.7 -1.6,-12.1 -6.3,-10.9 -7.7,-14.2 -8.3,-19.2 -0.3,-2.8 -1.2,-6 -1.8,-7.2 -2.9,-4.6 -10.6,-5.5 -14.4,-1.6 z m 3,8.5 c 0.8,2.6 2.2,2.6 3,-0.1 1,-3.1 4.9,-2.1 5.3,1.3 0.2,1.6 -0.1,2.8 -0.7,2.8 -0.6,0 -0.8,-0.6 -0.5,-1.4 0.8,-2.1 -1.7,-3.2 -2.8,-1.2 -1.1,2 -3.2,2.1 -4.8,0.1 -0.7,-0.8 -1.6,-1.2 -2.1,-0.9 -0.5,0.3 -0.9,-0.2 -0.9,-1 0,-2.3 2.8,-2 3.5,0.4 z m 19,35.8 c -0.3,0.3 -1.1,0 -1.8,-0.7 -0.9,-1 -0.8,-1.1 0.6,-0.5 1,0.3 1.5,0.9 1.2,1.2 z"/>
<path d="M 54.9,205.6 c -0.7,0.8 -2.5,2.2 -4.1,3 -2.7,1.4 -2.9,1.9 -2.6,6.1 l 0.3,4.7 7.8,2 c 8.2,2.1 10.8,1.7 11.5,-1.8 0.5,-2.2 -8.3,-15.6 -10.2,-15.6 -0.7,0 -1.9,0.7 -2.7,1.6 z"/>
<path d="M 64,210 c 2,2.9 4,3.9 4,2.2 0,-1 -4.3,-5.2 -5.4,-5.2 -0.4,0 0.2,1.3 1.4,3 z"/>
<path d="M 142,167 l 0,12 105.5,0 105.5,0 0,-12 0,-12 -105.5,0 -105.5,0 0,12 z"/>
<path d="M 142,217 l 0,12 93.5,0 93.5,0 0,-12 0,-12 -93.5,0 -93.5,0 0,12 z"/>
<path d="M 319.5,267 c -13.5,2.8 -24.8,10.6 -31.9,21.8 -17.9,28.9 -0.2,67.1 33.7,72.4 23.9,3.7 46.9,-11.8 53.2,-35.9 6.6,-25.4 -10.2,-52.3 -36.2,-57.8 -7.4,-1.6 -12.7,-1.7 -18.8,-0.5 z m 15.5,19 c 4.1,4.1 3.5,9.3 -1.5,12.6 -4.6,3 -11.5,-1.1 -11.5,-6.8 0,-6.4 8.6,-10.2 13,-5.8 z m 2,38.5 l 0,17.5 -6.9,0 -6.8,0 -0.6,-8.3 c -0.4,-4.5 -0.7,-11 -0.7,-14.4 l 0,-6.2 -3.7,-0.3 c -3.3,-0.3 -3.8,-0.7 -4.1,-3.1 l -0.3,-2.7 11.5,0 11.6,0 0,17.5 z"/>
<path d="M 35.4,273.4 c -5.3,2.4 -5.5,3.7 -5.2,44.5 l 0.3,37.3 2.8,2.4 2.8,2.4 37.9,0 37.9,0 2.8,-2.4 2.8,-2.4 0.3,-37.9 c 0.2,-41.7 0.2,-41.9 -5.8,-44 -5.3,-1.8 -72.4,-1.7 -76.6,0.1 z m 75.7,4.6 c 1.8,1 1.9,2.5 1.9,37.9 0,33.1 -0.2,37 -1.7,38.2 -2.4,2 -72.2,2 -74.6,0 -1.5,-1.2 -1.7,-5.1 -1.7,-37.7 0,-31.6 0.2,-36.5 1.6,-37.8 1.3,-1.4 6.1,-1.6 37,-1.6 22.6,0 36.2,0.4 37.5,1 z"/>
<path d="M 53.4,289.4 c -1.7,0.8 -3.4,2.1 -3.7,3 -0.4,0.9 -1.8,1.6 -3.2,1.6 -1.8,0 -2.5,0.5 -2.5,2 0,1.5 0.7,2 2.5,2 1.4,0 2.8,0.7 3.2,1.5 0.3,0.9 1.9,2.3 3.5,3.1 2.5,1.3 3.5,1.3 5.9,0.3 1.7,-0.6 3.4,-2 4,-3 0.9,-1.8 2.5,-1.9 20.9,-1.9 19.3,0 20,-0.1 20,-2 0,-1.9 -0.7,-2 -20,-2 -17.1,0 -20.1,-0.2 -20.7,-1.5 -0.3,-0.9 -1.8,-2.2 -3.4,-3 -3.3,-1.8 -2.6,-1.8 -6.5,-0.1 z m 5.6,5.1 c 1,1.2 1,1.8 0,3 -0.7,0.8 -1.8,1.5 -2.5,1.5 -0.7,0 -1.8,-0.7 -2.5,-1.5 -1,-1.2 -1,-1.8 0,-3 0.7,-0.8 1.8,-1.5 2.5,-1.5 0.7,0 1.8,0.7 2.5,1.5 z"/>
<path d="M 86,311.5 l -2.3,2.5 -19.9,0 c -19.1,0 -19.8,0.1 -19.8,2 0,1.9 0.7,2 19.6,2 l 19.6,0 2.9,3.1 c 2.5,2.7 3.4,3.1 6.2,2.5 1.7,-0.3 4.1,-1.7 5.2,-3.1 1.2,-1.4 3.1,-2.5 4.3,-2.5 1.5,0 2.2,-0.6 2.2,-2 0,-1.4 -0.7,-2 -2.3,-2 -1.3,0 -3.4,-1.1 -4.7,-2.5 -1.5,-1.6 -3.4,-2.5 -5.5,-2.5 -2.1,0 -4,0.9 -5.5,2.5 z m 7.9,3.3 c 1.8,3.4 -2.4,5.7 -4.9,2.7 -1,-1.2 -1,-1.8 0,-3 1.7,-2 3.7,-1.9 4.9,0.3 z"/>
<path d="M 51.1,331.4 c -1.3,1.4 -3.3,2.6 -4.5,2.8 -3,0.4 -2.8,4.2 0.2,4.6 1.2,0.2 3.3,1.4 4.7,2.8 3.1,3.1 6.9,3.1 10.1,-0.1 2.4,-2.4 2.7,-2.5 22.2,-2.7 18.9,-0.3 19.7,-0.4 19.7,-2.3 0,-1.9 -0.8,-2 -19.6,-2.3 -19.4,-0.2 -19.6,-0.3 -21.9,-2.7 -3.1,-3.3 -7.9,-3.3 -10.9,-0.1 z m 7.8,3 c 1.6,2 0.3,4.6 -2.4,4.6 -2.7,0 -3.6,-1.7 -2.3,-4.3 1,-2 3.1,-2.2 4.7,-0.3 z"/>
<path d="M 142.2,291.2 l 0.3,12.3 60.5,0 60.4,0 1.3,-4.5 c 0.8,-2.5 2.2,-8 3.2,-12.3 l 1.8,-7.7 -63.9,0 -63.9,0 0.3,12.2 z"/>
<path d="M 142,341 l 0,12 65,0 c 35.8,0 65,-0.2 65,-0.4 0,-0.4 -4.3,-16.7 -5.6,-21.4 l -0.6,-2.2 -61.9,0 -61.9,0 0,12 z"/>
</svg>
