<svg xmlns="http://www.w3.org/2000/svg" viewBox="0 0 384 384">
<path d="M 285.6,110 c -14.7,2.6 -26.9,8.9 -36.6,18.9 -33,33.9 -18.9,89.8 26.5,104.5 6.5,2.1 9.9,2.6 18.5,2.6 12.8,0 19.5,-1.6 30.4,-7.2 21,-10.9 33.8,-32.1 33.7,-55.7 -0.1,-18.7 -5.5,-31.7 -19.1,-45.2 -11.3,-11.3 -25,-17.4 -41.5,-18.4 -3.8,-0.2 -9.2,0 -11.9,0.5 z"/>
<path d="M 29.6,130.1 l -2.6,2 0,20.9 0,20.9 2.6,2 c 2.3,1.8 4.1,2.1 12,2.1 8.5,0 9.3,0.2 9.9,2.1 0.8,2.5 -0.1,3.6 -5.7,6.4 -3.6,1.8 -4.3,2.6 -4.3,5.1 0,4.3 3.9,5.8 16,6.2 19.1,0.6 25.3,-4.9 13.4,-11.9 -3.3,-1.9 -4.4,-3.1 -4.4,-5 0,-2.4 0.2,-2.4 10.2,-2.9 15,-0.7 14.3,0.5 14.3,-25.1 l 0,-20.8 -2.6,-2 c -2.6,-2 -3.9,-2.1 -29.4,-2.1 -25.5,0 -26.8,0.1 -29.4,2.1 z"/>
<path d="M 178.3,137.4 c -2.5,2.2 -2.9,3.2 -3.3,10.3 l -0.5,7.8 -28.7,0.5 c -27,0.5 -28.8,0.6 -31.4,2.6 -4.6,3.4 -6.5,6.7 -7,12.5 -0.4,4.4 -0.1,6.2 1.8,9.8 4.5,8.6 4.3,8.6 34.6,8.9 14.7,0.1 27.7,0.5 29,0.7 2,0.5 2.2,1.1 2.2,7.1 0,7.8 1.1,10.1 5.4,11.9 6,2.5 6.4,2.3 30.9,-21.1 10.4,-10 11.7,-11.7 11.7,-14.6 -0.1,-1.8 -0.6,-4.3 -1.3,-5.5 -1.6,-2.8 -29.3,-29.1 -33.2,-31.5 -4,-2.4 -6.8,-2.3 -10.2,0.6 z"/>
<path d="M 24.6,204.9 c -1.4,2.2 -3,4.2 -3.6,4.6 -0.5,0.3 -1,2.1 -1,3.9 0,2.6 0.5,3.5 2.3,4 2.9,0.8 72.1,0.8 74.1,0 3.1,-1.2 1.9,-6.7 -2.5,-11.8 l -4.1,-4.6 -31.4,0 -31.4,0 -2.4,3.9 z"/>
</svg>
