<svg xmlns="http://www.w3.org/2000/svg" viewBox="0 0 384 384">
<path d="M 175,39.1 c -18.8,2 -42,9.6 -58.5,19 -39.6,22.7 -65.5,58.3 -75.7,104.1 -2,8.9 -2.3,13 -2.3,30.3 0.1,22.2 1,28.7 7,48 6.8,21.7 18.6,41.3 35.5,58.8 20.5,21.3 41.4,34 69.4,42.1 26.3,7.7 60.3,7.5 86.1,-0.4 9,-2.8 23.6,-8.8 25.2,-10.4 1,-0.9 0,-3.3 -4.8,-11.6 -3.4,-5.8 -7.2,-12.2 -8.5,-14.3 l -2.4,-3.7 -3.8,1.6 c -8.8,3.9 -20.4,7.4 -29.2,9 -13.8,2.4 -37.1,1.5 -50,-1.9 -34,-8.9 -62.8,-32.1 -78.3,-63.2 -5.4,-10.7 -8.1,-18.6 -10.8,-32 -2.7,-13.1 -2.3,-35.4 0.9,-48.6 15,-61.8 73.1,-101.6 134.8,-92.4 18.5,2.7 37.7,9.6 51.4,18.3 7.7,4.9 18,13.3 18,14.7 0,0.6 -5.6,6.6 -12.5,13.4 -11.8,11.7 -13.8,14.1 -11.5,14.1 0.5,0 9.6,1.6 20.2,3.5 10.6,1.9 23.4,4.2 28.3,5.1 5,0.8 12.2,2.2 16,2.9 17.4,3.4 26.5,4.8 27.2,4.2 0.3,-0.4 -0.4,-6.2 -1.6,-13 -1.3,-6.7 -3.3,-18.1 -4.6,-25.2 -6.4,-36.1 -9.7,-53.1 -10.4,-53.8 -0.5,-0.5 -6.5,4.9 -13.4,11.9 l -12.6,12.6 -6.8,-5.8 c -20.7,-17.6 -47,-30 -74.9,-35.4 -12.2,-2.3 -35.2,-3.3 -47.4,-1.9 z"/>
<path d="M 188.3,98.2 c -0.6,0.7 -2,7.1 -3.2,14.3 -1.2,7.1 -2.6,15.5 -3.1,18.5 -0.6,3 -1.9,11.6 -3,19 -1.2,7.4 -2.7,17.5 -3.5,22.5 -3.1,19.8 -4.7,33.2 -4.2,36.8 1.2,8.8 9.5,15.7 18.9,15.7 5.7,0 30.5,-3.6 65.8,-9.7 14.6,-2.4 28.1,-4.7 30,-5 4.7,-0.8 7,-2 7,-3.9 0,-2.5 0.7,-2.4 -55.3,-11.9 -20.3,-3.4 -22.3,-3.8 -27.9,-4.9 -3.2,-0.7 -3.3,-0.9 -5.7,-16.6 -1.1,-6.9 -3.3,-21.3 -5,-32 -1.7,-10.7 -3.8,-24.2 -4.7,-30 -2,-13.2 -3.4,-16.2 -6.1,-12.8 z"/>
<path d="M 313.6,190.2 c -0.3,0.7 -0.7,6 -1.1,11.8 l -0.6,10.5 14.9,3.8 c 8.2,2 15.6,3.7 16.4,3.7 1.2,0 1.8,-2.2 2.8,-9.8 0.6,-5.3 1,-12.2 0.8,-15.2 l -0.3,-5.5 -16.3,-0.3 c -12.5,-0.2 -16.3,0 -16.6,1 z"/>
<path d="M 301.3,244.2 c -2.8,5.7 -4.8,10.6 -4.6,11 0.8,1.5 24.9,18.1 26.3,18.2 1.7,0.1 8,-11.4 12.9,-23.2 l 3,-7.3 -2.2,-0.9 c -1.7,-0.7 -29.2,-8 -30.2,-8 -0.1,0 -2.5,4.6 -5.2,10.2 z"/>
<path d="M 274.3,281 c -4.6,4.4 -8.3,8.2 -8.3,8.6 0,0.8 13.3,24.1 15.3,26.8 1.4,1.9 1.7,1.8 7.8,-3.1 9.2,-7.4 21,-19.6 20.1,-20.9 -0.6,-0.9 -22.9,-17 -25.7,-18.6 -0.5,-0.3 -4.7,2.9 -9.2,7.2 z"/>
</svg>
