<svg xmlns="http://www.w3.org/2000/svg" viewBox="0 0 384 384">
<path d="M 29.4,21.4 c -5.8,2.7 -10.6,8 -12.3,13.5 -0.8,2.8 -1.1,31 -1.1,100.7 l 0,96.9 2.4,5.1 c 2.6,5.6 7.4,9.8 13.3,12 3.1,1.1 20.7,1.3 90.6,1.4 l 86.7,0 0,-6 0,-6 -85.5,0 c -71.7,0 -86.1,-0.2 -89,-1.4 -6.9,-2.9 -6.5,2.9 -6.5,-102.6 0,-104.4 -0.3,-99.2 6,-102.5 2.6,-1.3 20.7,-1.5 159.1,-1.3 l 156.1,0.3 2.9,3.3 2.9,3.2 0,76 0,76 6,0 6,0 0,-76.8 c 0,-72.3 -0.1,-76.9 -1.9,-80.8 -2.3,-4.9 -8.8,-10.7 -14,-12.2 -2.8,-0.9 -44.4,-1.2 -160.2,-1.2 l -156.4,0 -5.1,2.4 z"/>
<path d="M 116.4,44.3 c -0.2,0.7 -0.3,10.5 -0.2,21.7 l 0.3,20.5 35.3,0.3 35.2,0.2 0,-22 0,-22 -35,0 c -27.5,0 -35.2,0.3 -35.6,1.3 z m 51.2,9.7 c 7,2.7 7.2,11.3 0.4,13.8 -2.1,0.8 -2,1 3.1,4.8 l 5.4,3.9 -8.9,0.3 -8.9,0.3 -4.8,-4.1 c -2.6,-2.2 -5.7,-4 -6.8,-4 -1.8,0 -2.1,0.6 -2.1,4 l 0,4 -8.5,0 -8.5,0 0,-12 0,-12 18.4,0 c 10.4,0 19.7,0.5 21.2,1 z"/>
<path d="M 145.2,61.2 c 0.3,2.1 0.8,2.3 5.3,2.3 4.3,0 5,-0.3 5,-2 0,-1.7 -0.8,-2 -5.3,-2.3 -5.1,-0.3 -5.3,-0.2 -5,2 z"/>
<path d="M 191.4,44.3 c -0.2,0.7 -0.3,10.5 -0.2,21.7 l 0.3,20.5 35.3,0.3 35.2,0.2 0,-22 0,-22 -35,0 c -27.5,0 -35.2,0.3 -35.6,1.3 z m 57.4,11.9 l 0.3,2.8 -6.5,0 -6.6,0 0,9 0,9 -9.5,0 -9.5,0 0,-9 0,-9 -6.5,0 -6.5,0 0,-3 0,-3 22.3,0.2 22.2,0.3 0.3,2.7 z"/>
<path d="M 266.5,44.3 c -0.3,0.7 -0.4,10.5 -0.3,21.7 l 0.3,20.5 35.5,0 35.5,0 0,-21.5 0,-21.5 -35.3,-0.3 c -28,-0.2 -35.4,0 -35.7,1.1 z m 32.5,17.7 l 0,9 13,0 13,0 0,3 0,3 -23,0 -23,0 0,-11.3 c 0,-6.3 0.3,-11.7 0.7,-12 0.3,-0.4 4.8,-0.7 10,-0.7 l 9.3,0 0,9 z"/>
<path d="M 94,106.1 c -12.4,2.7 -29.1,6.3 -37.3,8 l -14.7,3.2 0,52.8 c 0,41.7 0.3,52.9 1.3,52.9 0.6,0 14.9,-2.9 31.7,-6.5 16.8,-3.6 31.3,-6.5 32.3,-6.5 1.4,0 1.7,1 1.7,6.5 0,4.3 0.4,6.5 1.2,6.5 0.6,0 18.2,-3.6 39,-8 20.8,-4.4 38,-8 38.3,-8 0.3,0 0.5,-19.6 0.5,-43.5 0,-23.9 -0.3,-43.5 -0.7,-43.5 -0.9,0 -62.2,12.9 -64.5,13.6 -1.7,0.5 -1.8,-0.7 -1.8,-16 0,-16.6 0,-16.6 -2.2,-16.5 -1.3,0.1 -12.4,2.3 -24.8,5 z m 21,18.4 c 0,13.6 0.2,16.5 1.4,16.5 0.8,0 15.2,-2.9 32.1,-6.5 16.8,-3.6 31.2,-6.5 32,-6.5 1.3,0 1.5,5.2 1.5,37 0,20.3 -0.4,37 -0.8,37 -1.1,0 -62.1,12.9 -64.4,13.6 -1.6,0.5 -1.8,-0.3 -1.8,-6.5 0,-3.9 -0.4,-7.1 -0.8,-7.1 -1.1,0 -62.1,12.9 -64.4,13.6 -1.7,0.5 -1.8,-2.2 -1.8,-46.3 l 0,-46.9 32.8,-7.1 c 18,-3.9 33,-7.1 33.5,-7.2 0.4,0 0.7,7.3 0.7,16.4 z"/>
<path d="M 101.5,119.1 c -3.6,1.1 -5.5,3.4 -5.5,6.9 0,1.4 -0.6,3.2 -1.2,3.8 -1,1 -1,1.7 0,3.2 1.4,2.4 1.6,11 0.2,11 -0.5,0 -1,1 -1,2.1 0,1.9 0.4,2.1 3.8,1.5 2,-0.3 4.3,-0.6 5,-0.6 0.6,0 1.2,-1.1 1.2,-2.5 0,-1.5 -0.5,-2.4 -1.2,-2.3 -0.9,0.2 -1.4,-1.3 -1.6,-4.5 -0.3,-4.3 -0.1,-4.8 2.2,-5.7 1.6,-0.6 2.6,-1.7 2.6,-3 0,-1.7 -0.4,-1.9 -2.6,-1.4 -2.3,0.6 -2.5,0.4 -2.2,-1.7 0.2,-1.9 0.9,-2.4 3.3,-2.4 2.5,0 3,-0.4 3,-2.5 0,-2.8 -1.5,-3.3 -6,-1.9 z"/>
<path d="M 85.2,122.7 c -2.1,0.4 -2.2,0.8 -1.6,5.3 0.6,4.7 0.6,4.8 -1.8,4.3 -4.2,-0.8 -8,3.4 -8.6,9.5 -0.8,8.6 3.8,12.7 9.6,8.6 1.2,-0.8 2.7,-1.2 3.3,-0.9 1.9,1.3 5.9,-0.4 5.9,-2.5 0,-1.1 -0.4,-2 -1,-2 -0.6,0 -1,-4.5 -1,-11.5 0,-8.6 -0.3,-11.5 -1.2,-11.4 -0.7,0.1 -2.3,0.4 -3.6,0.6 z m -1.7,18.9 c 0,4.2 -0.3,4.9 -2,4.9 -1.6,0 -2.1,-0.8 -2.3,-3.8 -0.3,-3.9 1.2,-7.1 3.2,-6.4 0.6,0.2 1.1,2.6 1.1,5.3 z"/>
<path d="M 61.5,136.3 c -4.6,1.1 -5,1.4 -5.3,4.5 -0.3,3.2 1,4.3 2.5,1.9 0.9,-1.5 4.3,-3 4.3,-1.9 0,0.4 -1.6,3.1 -3.6,6 -2.1,3.2 -3.4,6.2 -3.2,7.6 l 0.3,2.3 7,-1.6 c 6.8,-1.6 7,-1.7 7.3,-4.9 0.4,-3.7 -1.4,-4.3 -4.1,-1.2 -0.9,1.1 -2.4,2 -3.2,2 -1.1,0 -0.5,-1.7 2.5,-5.9 4.3,-6.4 5.2,-10.2 2.3,-10 -1,0 -4,0.6 -6.8,1.2 z"/>
<path d="M 152.8,144.9 c -5.2,1.7 -10.8,5.5 -13.3,9.1 -5.8,8.3 -4.9,21.8 1.7,26.4 3.8,2.7 13.6,2.1 19.9,-1.2 12.7,-6.6 16,-25 5.8,-32.5 -3,-2.2 -10.1,-3.1 -14.1,-1.8 z m 3.8,13.7 c 0.9,3.7 -0.2,11.5 -1.7,12.5 -3.2,2 -5.2,-6.6 -2.9,-12.5 1.2,-3.3 3.8,-3.3 4.6,0 z"/>
<path d="M 109,155.3 c -6,3.1 -9.8,8.2 -11.2,14.8 -2,9.8 1.3,17.5 8.7,19.9 4.8,1.6 12.7,-0.2 19.6,-4.3 5.1,-3 5.4,-3.5 5.7,-7.6 l 0.3,-4.3 -4.3,0.7 c -2.4,0.4 -5.5,1.6 -7,2.6 -3.2,2.3 -6.4,2.4 -7.2,0.3 -0.4,-0.9 -0.5,-1.8 -0.4,-1.9 0.2,-0.1 3.9,-1 8.3,-1.9 12.2,-2.6 11.5,-2.2 11.5,-6.8 0,-5.2 -2.3,-10 -5.9,-12.1 -4.3,-2.5 -12.8,-2.2 -18.1,0.6 z m 8.7,10.2 c 0.7,1.9 0.5,2 -2.4,2.9 -2.6,0.8 -3.2,-1.1 -1.1,-3.2 1.6,-1.6 2.7,-1.5 3.5,0.3 z"/>
<path d="M 81.5,160.9 c -2.2,1 -4.9,2.8 -5.9,4 -1.9,2.1 -1.9,2.1 -3.8,0.1 -1,-1 -2.4,-1.7 -3.1,-1.5 -0.6,0.2 -3.8,0.9 -6.9,1.5 l -5.8,1.1 0,6 c 0,3.3 0.4,5.9 1,5.9 0.6,0 1,4.5 1,11.5 0,12.9 -0.5,12.3 8,10.5 10.1,-2.2 9,-0.5 9,-14 0,-10 0.3,-12 1.5,-12 1.2,0 1.5,2 1.5,11.6 l 0,11.6 3.8,-0.7 c 2,-0.3 5.9,-1.1 8.5,-1.7 l 4.8,-1 -0.3,-15.3 c -0.3,-13.4 -0.5,-15.6 -2.2,-17.4 -2.3,-2.6 -5.8,-2.6 -11.1,-0.2 z"/>
<path d="M 152,190.4 l -14.5,3.2 -0.3,3.3 c -0.3,3.1 -0.1,3.3 2,2.8 3.2,-0.8 30.8,-6.7 31.3,-6.7 0.3,0 0.5,-1.4 0.5,-3 0,-3.8 -0.1,-3.8 -19,0.4 z"/>
<path d="M 211,146 l 0,36 36,0 36,0 0,-36 0,-36 -36,0 -36,0 0,36 z m 42,-20.5 c -4.2,4.3 -4.7,4.5 -10,4.5 -5.3,0 -5.8,-0.2 -10,-4.5 l -4.4,-4.5 14.4,0 14.4,0 -4.4,4.5 z m 3.5,12.5 l -9.5,9.5 -3.2,-3.3 -3.3,-3.2 9.5,-9.5 9.4,-9.5 3.3,3.2 3.3,3.2 -9.5,9.6 z m 4.7,1.7 c 5,5.7 6,13 2.9,19.8 -5.8,12.9 -23.5,15.3 -33.5,4.6 l -3,-3.1 3.4,-3.5 3.3,-3.4 3.9,3.4 c 3,2.7 4.7,3.5 7.7,3.5 7.5,0 11.9,-6.7 8.7,-13.1 -1.5,-3 -1.5,-3.3 1.2,-6.5 3.2,-3.9 3.4,-3.9 5.4,-1.7 z"/>
<path d="M 329.7,117.8 c -2.3,2.6 -2.4,17.7 -0.1,21 1.6,2.3 5.7,2.9 8.3,1.3 2.1,-1.3 -0.3,-4.1 -2.9,-3.4 -1.8,0.5 -2,0 -2,-5.6 0,-5.8 0.1,-6.1 2.5,-6.1 1.6,0 2.5,-0.6 2.5,-1.5 0,-0.9 -0.9,-1.5 -2.5,-1.5 -2.1,0 -2.5,-0.5 -2.5,-3 0,-3.4 -1,-3.8 -3.3,-1.2 z"/>
<path d="M 292,123 c -3.5,3.5 -2,7 4,9.4 2.2,0.9 4,2.1 4,2.6 0,1.8 -3.1,2.4 -6.1,1.3 -2.2,-0.8 -3.1,-0.8 -3.9,0.2 -0.8,1 -0.5,1.7 1.2,2.9 3.2,2.3 9.3,2.1 11.8,-0.4 3.7,-3.7 2.3,-6.9 -4.7,-10.4 -1.8,-0.9 -3.3,-2.1 -3.3,-2.6 0,-1.3 4.7,-1.3 5.5,0 0.5,0.8 1.1,0.7 2.1,-0.1 2,-1.6 1.8,-2.4 -1.1,-3.7 -3.8,-1.8 -7.2,-1.5 -9.5,0.8 z"/>
<path d="M 311.3,122.2 c -2.7,1.3 -2.8,2.1 -0.9,3.7 1,0.8 1.6,0.9 2.1,0.1 0.9,-1.4 5,-1.3 6.4,0.3 1.4,1.7 0.4,2.7 -2.6,2.7 -3.4,0 -8,2.6 -8.8,5 -1.5,4.7 4.1,8.3 9.7,6.2 1.6,-0.6 2.8,-0.6 2.8,-0.1 0,0.5 0.9,0.9 2,0.9 1.8,0 2,-0.7 2,-7.9 0,-7.4 -0.2,-8.1 -2.6,-10 -2.9,-2.3 -6.6,-2.6 -10.1,-0.9 z m 8.7,10.4 c 0,2.3 -2.4,4.4 -5,4.4 -3.4,0 -4.1,-2.3 -1.2,-3.9 1.8,-1.1 6.2,-1.5 6.2,-0.5 z"/>
<path d="M 286.1,198.5 c -3.3,8.8 -4.8,11.1 -8.4,13.4 -4.9,3 -11.1,2.7 -19.2,-0.9 l -6.6,-3 -5,4.7 c -2.8,2.6 -5.9,5.9 -7,7.4 -1.9,2.7 -1.9,2.7 1.1,9.1 3.4,7.1 3.8,12.3 1.4,17.4 -2,4.2 -5.1,6.4 -13.2,9.4 l -6.3,2.3 0.3,10.1 0.3,10.1 6.7,2.5 c 13.9,5.4 16.9,12.8 10.7,26.5 l -3.1,6.8 6.8,6.8 c 3.8,3.8 7.4,6.9 8,6.9 0.7,0 4.1,-1.3 7.6,-3 7,-3.3 10.3,-3.7 15.1,-1.6 4.6,2 7.2,5.2 10,12.6 l 2.4,6.5 10.5,0.3 10.4,0.3 1.8,-5.8 c 3.1,-10.1 8.8,-15.3 16.5,-15.3 1.7,0 6,1.3 9.6,3 3.6,1.6 6.9,3 7.3,3 0.4,0 3.9,-3.1 7.6,-6.9 l 6.9,-7 -3.2,-7.1 c -3.8,-8.1 -3.9,-14.1 -0.4,-18.9 1.8,-2.5 8.5,-6.4 15.1,-8.8 l 3.3,-1.2 -0.3,-10.2 -0.3,-10.2 -6,-2.1 c -8,-2.8 -10.3,-4.4 -12.6,-8.8 -2.7,-5.3 -2.4,-9.7 1.3,-17.9 l 3.2,-7.1 -7.1,-6.9 -7.1,-6.9 -6.3,3 c -7.3,3.4 -13.3,3.9 -18.4,1.4 -4,-1.9 -5.9,-4.5 -9,-12.7 l -2.3,-6.2 -10,-0.3 -10,-0.3 -2.1,5.6 z m 21.1,44.1 c 14.6,4.9 22.4,23.3 15.8,36.9 -8.2,16.9 -28.7,21.4 -42.5,9.3 -6.4,-5.7 -9.5,-12.3 -9.5,-20.9 0,-18.7 18.2,-31.5 36.2,-25.3 z"/>
<path d="M 189,294.7 c -1.5,4.2 -2.4,5.5 -5.4,7.7 -2.6,2 -2.8,2 -7.8,0.2 l -5,-1.8 -3.9,3.8 c -3.7,3.6 -3.7,3.8 -2.3,6.5 3.3,6.6 1.1,11.9 -6.3,14.9 -3.1,1.2 -3.3,1.5 -3.3,6.5 l 0,5.2 4.5,1.8 c 2.5,0.9 5,2.5 5.5,3.5 1.4,2.7 1.2,7.7 -0.4,10.9 -1.4,2.7 -1.4,2.9 2.4,6.6 l 3.8,3.7 4.7,-1.7 c 4.3,-1.7 4.9,-1.7 8,-0.2 2.6,1.2 3.7,2.6 4.6,5.7 l 1.2,4 5.8,0 c 5.7,0 5.8,0 6.9,-3.5 2.3,-6.9 6.9,-8.6 14.8,-5.4 3.1,1.3 3.3,1.2 6.9,-2.3 l 3.7,-3.7 -1.7,-3.6 c -3.4,-7.1 -1.3,-12 6.1,-14.6 3.2,-1.1 3.3,-1.2 3,-6.7 -0.3,-5.2 -0.5,-5.6 -3.3,-6.5 -7.1,-2.3 -9.1,-7.2 -5.8,-14.2 l 1.7,-3.6 -3.7,-3.7 c -3.6,-3.5 -3.8,-3.6 -6.9,-2.3 -7.9,3.2 -11.7,1.9 -14.5,-4.7 -1.9,-4.6 -2.8,-5.2 -8.1,-5.2 -3.7,0 -4.4,0.3 -5.2,2.7 z m 14.8,26.2 c 8.4,6 7.2,20 -2.2,24.5 -6.6,3.1 -12.9,1.5 -18,-4.4 -2.1,-2.6 -2.6,-4.2 -2.6,-8.5 0,-4.7 0.4,-5.9 3.2,-9.1 1.8,-2 4.1,-4 5.2,-4.5 3.4,-1.4 11.1,-0.4 14.4,2 z"/>
</svg>
