<svg xmlns="http://www.w3.org/2000/svg" viewBox="0 0 384 384">
<path d="M 40.8,43 c -7.2,0.9 -12.1,4 -15.6,9.8 l -2.7,4.7 -0.3,134 -0.2,134 2.2,4.5 c 1.4,2.6 4.3,6 7.3,8.2 l 5,3.8 155.3,0 155.2,0 3.8,-2.4 c 4.9,-3.1 7.8,-6.3 9.7,-10.8 1.3,-3.3 1.5,-19 1.5,-137.1 l 0,-133.4 -2.3,-4.4 c -1.5,-2.8 -4.2,-5.7 -7.8,-8.1 l -5.4,-3.7 -150,0.1 c -82.5,0 -152.5,0.4 -155.7,0.8 z m 220.2,16 c 1.2,0.6 3.1,3.2 4.1,5.6 2.6,5.7 1.3,10.9 -3.6,15.3 -10.5,9.2 -26.5,-3.4 -20.1,-15.7 3.9,-7.5 11.5,-9.5 19.6,-5.2 z m 34,-1.4 c 7.8,3.1 11.2,12.2 7,18.9 -5.7,9.2 -18,8.7 -23.1,-1 -1.7,-3.2 -2,-5 -1.5,-7.8 0.8,-4.2 6.2,-10.3 9.8,-11 1.3,-0.2 2.6,-0.5 3,-0.6 0.4,0 2.6,0.6 4.8,1.5 z m 40.4,1.3 c 4.1,2.7 5.5,5.7 5.6,11.5 0,4.3 -0.4,5.3 -3.9,8.7 -3.3,3.3 -4.5,3.9 -8.2,3.9 -5,0 -9.9,-2.6 -12.5,-6.5 -1.2,-1.9 -1.5,-3.9 -1.2,-7.7 0.5,-4.4 1.1,-5.7 4.2,-8.5 3,-2.8 4.3,-3.3 8.3,-3.3 3.1,0 5.9,0.7 7.7,1.9 z m 6.6,144.1 c 0,58.3 -0.2,106 -0.5,106 -0.3,0 -1.8,-1.5 -3.4,-3.3 l -2.9,-3.2 -13.6,-0.3 -13.5,-0.4 -1.7,-5.1 c -0.9,-2.9 -3.6,-9.8 -6.1,-15.5 l -4.5,-10.2 7.9,-8.8 c 9,-9.8 10.3,-11.8 10.3,-16.1 0,-3.4 -2.2,-6.2 -14.9,-19.5 -13.2,-13.6 -17.4,-16.6 -22.8,-16.6 -4.4,0 -4.9,0.3 -13.9,9.2 l -9.4,9.1 -9.7,-4.5 c -5.4,-2.5 -12.3,-5.4 -15.4,-6.3 l -5.7,-1.8 -0.4,-13.4 -0.4,-13.3 -3.2,-3.3 -3.2,-3.2 -21.8,-0.3 c -23.4,-0.2 -24.8,0 -28.6,5.1 -1.7,2.4 -2.1,4.6 -2.4,15.5 l -0.4,12.8 -6.7,2.3 c -3.6,1.2 -10.4,4 -15,6.2 -4.6,2.1 -8.5,3.9 -8.7,3.9 -0.2,0 -1.8,-1.5 -3.7,-3.3 -14.4,-14 -15.3,-14.7 -20,-14.7 -3.9,0 -5.3,0.7 -10,4.4 -3,2.5 -10.2,9.5 -16,15.7 -15.1,15.9 -15.2,17.3 -2.1,30.9 4.6,4.8 8.4,9.2 8.4,9.7 0,0.6 -1.5,4.3 -3.4,8.4 -1.9,4.1 -4.6,10.8 -6.1,15.1 l -2.7,7.6 -13.5,0.4 -13.5,0.3 -3.4,3.9 -3.4,3.9 0,-106.6 0,-106.7 150,0 150,0 0,106 z m -135,71.1 c 4.1,1.1 10.2,3.5 13.5,5.2 7.4,3.9 19.1,15.3 23.2,22.7 3.5,6.3 7.7,18 6.8,18.9 -0.9,0.8 -116.1,0.8 -116.9,0 -1.1,-1.1 4.5,-15.1 8.6,-21.6 7.5,-11.9 21.5,-22 35.8,-25.7 8.2,-2.2 20.2,-2 29,0.5 z"/>
</svg>
