<svg xmlns="http://www.w3.org/2000/svg" viewBox="0 0 384 384">
<path d="M 148.9,20.4 c -12.8,4.4 -23,13.2 -29.3,25.1 l -3.1,6 0,17 c 0,18.4 -0.1,18.1 7.1,28.9 1.3,2.1 1.4,2.7 0.3,3.1 -0.8,0.3 -21.4,0.6 -45.9,0.7 l -44.5,0.3 -0.3,37.9 c -0.2,38.6 -0.1,40.6 3.5,40.6 0.8,0 4.7,-2.2 8.6,-4.8 10.3,-6.9 17.8,-9.7 25.7,-9.7 7.8,0 19,3.4 23.9,7.3 1.8,1.5 4.2,3.2 5.2,3.8 2.7,1.6 6.4,6.9 10.4,15.1 3.1,6.4 3.5,8 3.5,15.5 0,13.3 -3.9,22.7 -12.9,31.1 -7.5,7 -20.5,12.7 -29.1,12.7 -8.8,0 -24.5,-6.4 -31.4,-12.9 -1.5,-1.4 -3.3,-2.1 -4.8,-1.9 l -2.3,0.3 -0.3,55.9 c -0.1,40.6 0.1,56.2 0.9,57.2 1,1.2 9.8,1.4 51.3,1.2 l 50.1,-0.3 0.3,-3.3 c 0.3,-2.6 -0.4,-4.1 -3.2,-7.2 -13.5,-14.9 -12.9,-40 1.3,-56.2 3.5,-4 4.6,-4.7 15.1,-10 5.9,-3 7.3,-3.3 15,-3.2 9.2,0 16,1.8 22.2,6 2.1,1.3 4.1,2.4 4.6,2.4 1,0 7.2,6.3 7.2,7.4 0,0.4 1.3,2.5 2.8,4.5 5.9,7.5 8,24.5 4.3,34.9 -1,2.9 -2.3,5.8 -3,6.5 -0.6,0.6 -1.1,1.7 -1.1,2.4 0,0.7 -1.6,3.1 -3.6,5.2 -2.8,3.2 -3.5,4.7 -3.2,7.3 l 0.3,3.3 43.9,0.3 c 31.6,0.1 44.3,-0.1 45.2,-0.9 1.2,-0.9 1.4,-9.2 1.4,-45.5 0,-24.8 0.4,-44.4 0.9,-44.4 0.5,0 1.4,0.7 2.2,1.6 3.3,4 18.1,8.4 28.5,8.4 6.5,0 15.7,-1.9 20.9,-4.4 1.7,-0.8 3.7,-1.7 4.5,-2 2.6,-1 10.3,-7.1 11.4,-9.1 0.6,-1 2.8,-4.1 4.8,-6.8 2.1,-2.6 4.2,-6.7 4.8,-9 0.6,-2.3 1.5,-5.2 2,-6.5 0.6,-1.3 1,-7.1 1,-13 -0.1,-15.7 -3,-22.9 -13.9,-34.4 -10.8,-11.4 -21.9,-15.4 -40.1,-14.5 -10.6,0.5 -14.4,1.6 -22.8,6.7 -2.4,1.5 -3.4,1.7 -3.7,0.7 -0.3,-0.6 -0.6,-18.1 -0.7,-38.7 l -0.3,-37.5 -38.5,-0.3 c -21.2,-0.1 -39.1,-0.4 -39.9,-0.7 -1.1,-0.4 -1,-1 0.3,-3.1 7.2,-10.8 7.1,-10.5 7.1,-28.9 0,-16.3 -0.1,-17.2 -2.5,-21.4 -1.4,-2.4 -3,-5.3 -3.7,-6.5 -0.7,-1.1 -3.9,-4.8 -7.2,-8.2 -12.9,-12.9 -34.1,-17.9 -51.2,-12 z"/>
</svg>
