<svg xmlns="http://www.w3.org/2000/svg" viewBox="0 0 384 384">
<path d="M 138.5,37.4 c -53.3,19.5 -86.1,65.3 -92.6,129.3 -1.7,16.1 -0.6,51.2 1.9,64.3 6.8,34.8 19.7,60.4 41.7,82.6 11.4,11.5 21.4,18.6 35.9,25.5 9.9,4.7 25.7,9.9 30,9.9 1.1,0 4.1,-0.7 6.6,-1.4 9.5,-3 14.8,-5.8 25.6,-13.8 2.8,-2.1 5.6,-3.8 6.3,-3.8 0.7,0 4.5,2.1 8.4,4.7 9.4,6 19.1,10.9 24.8,12.4 4.2,1.1 5.4,1 13.5,-1.5 20.2,-6.3 35.7,-15.8 51.5,-31.5 24.2,-24.1 38.7,-55.3 43.4,-93.4 1.7,-14 2,-43.3 0.5,-57.5 -4.3,-39.7 -17.6,-71.2 -40,-94.6 -14.1,-14.8 -30.9,-25.7 -49.3,-32.2 -7.3,-2.5 -8.1,-2.6 -13.5,-1.4 -9.4,2.1 -15.5,4.8 -27.7,12.1 -6.7,4.1 -12,6.7 -12.8,6.3 -0.6,-0.4 -4.1,-2.8 -7.7,-5.4 -8,-5.9 -14.5,-9.2 -23.4,-11.9 -9.1,-2.8 -12.4,-2.6 -23.1,1.3 z m 19.2,30.8 c 12.6,4.7 20.3,16.5 28.7,43.8 2.4,7.9 4.9,14.6 5.5,14.8 0.6,0.2 1.1,0.2 1.1,-0.1 0,-1.5 12.2,-34.2 14.5,-38.6 3.7,-7.5 11.5,-15.4 17.8,-18.2 4.4,-2 6.9,-2.4 15.7,-2.4 l 10.5,0 6,4 c 7.6,5 22,19.3 26.6,26.5 17.5,27 24.9,61.5 22.8,106 -1.5,30.6 -9.5,58.1 -22.9,78.1 -6.6,9.8 -22.2,24.6 -31.5,29.9 -7.1,4 -8.7,4.5 -14,4.5 -12,-0.1 -21.3,-5.5 -28.5,-16.6 -3.5,-5.4 -5.9,-11.1 -13.6,-32.7 -2,-5.8 -4.1,-10.1 -4.8,-9.9 -0.6,0.2 -1.6,2.1 -2.2,4.3 -0.7,2.1 -2.7,8.6 -4.4,14.4 -3.9,12.9 -9.6,25.1 -14.5,30.7 -4.3,5.1 -14.6,10.4 -21.3,11.1 -4,0.3 -5.9,-0.1 -11.3,-2.8 -10.6,-5.4 -17.9,-10.9 -27.4,-20.6 -18.5,-18.9 -29.5,-42.7 -34,-73.5 -3,-20.6 -1.6,-54.5 3,-74.4 8.1,-35.3 28.3,-63.6 55.8,-78.3 5.5,-3 6.8,-3.3 11.4,-2.8 2.9,0.3 7.8,1.6 11,2.8 z"/>
</svg>
