<svg xmlns="http://www.w3.org/2000/svg" viewBox="0 0 384 384">
<path d="M 24.5,16.9 c -1.1,0.5 -2.9,1.9 -4,3.1 -1.9,2.1 -2,3.6 -2,49.1 l 0,46.9 2.8,2.7 2.7,2.8 47,0 47,0 2.7,-2.8 2.8,-2.7 0,-47 0,-47 -2.8,-2.7 -2.7,-2.8 -45.8,-0.2 c -25.1,-0.1 -46.6,0.2 -47.7,0.6 z m 93.7,4.8 c 1.7,1.5 1.8,4.3 1.8,47.1 0,41 -0.2,45.7 -1.7,47.4 -1.5,1.7 -4.3,1.8 -47.1,1.8 -41,0 -45.7,-0.2 -47.4,-1.7 -1.7,-1.5 -1.8,-4.3 -1.8,-47.1 0,-41 0.2,-45.7 1.7,-47.4 1.5,-1.7 4.3,-1.8 47.1,-1.8 41,0 45.7,0.2 47.4,1.7 z"/>
<path d="M 43.2,32.3 c -1.8,2.2 -10.3,49 -9.1,50.2 1.4,1.4 72.4,1.4 73.9,-0.1 1.2,-1.2 -7.2,-47.8 -9.1,-50 -1.6,-2 -54.1,-2 -55.7,-0.1 z"/>
<path d="M 33,95.5 c 0,5.8 0.4,9.5 1.2,10.3 1.7,1.7 71.9,1.7 73.6,0 0.8,-0.8 1.2,-4.5 1.2,-10.3 l 0,-9 -38,0 -38,0 0,9 z m 8.8,-0.2 c 0.3,2.2 0.8,2.7 3.3,2.7 2.6,0 2.9,-0.3 2.9,-3.1 0,-3.8 2.4,-3.5 2.8,0.4 0.3,2.1 0.9,2.7 2.7,2.7 1.8,0 2.4,-0.6 2.7,-2.7 0.4,-3.9 2.8,-4.2 2.8,-0.4 0,2.8 0.3,3.1 2.9,3.1 2.5,0 3,-0.5 3.3,-2.7 0.4,-3.9 2.8,-4.2 2.8,-0.4 0,2.8 0.3,3.1 3,3.1 2.7,0 3,-0.3 3,-3.1 0,-3.8 2.4,-3.5 2.8,0.4 0.3,2.2 0.8,2.7 3.3,2.7 2.6,0 2.9,-0.3 2.9,-3.1 0,-4.7 2.4,-3 2.8,1.9 l 0.3,4.2 -23.5,0 -23.6,0 0,-4.6 c 0,-5 2.2,-5.9 2.8,-1.1 z m 60.6,-0.1 c 1.5,2.4 -0.3,5.2 -3.7,5.6 -3.3,0.4 -5.3,-2.8 -3.7,-5.9 1.4,-2.5 5.8,-2.3 7.4,0.3 z"/>
<path d="M 153.6,40.5 c -2,1.1 -2.1,1.7 -1.9,27.4 0.1,20.9 0.4,26.5 1.5,27.2 0.7,0.5 13.3,0.9 28.1,0.9 l 26.7,0 0,-27.4 c 0,-16.5 -0.4,-27.7 -1,-28.1 -1.7,-1.1 -51.3,-1.1 -53.4,0 z m 40.9,13.9 c 1.1,0.8 1.6,2 1.2,2.9 -0.9,2.3 -17.6,26.5 -18.9,27.3 -1.1,0.7 -13.8,-11.4 -13.8,-13.3 0,-0.6 1,-1.9 2.2,-2.7 2.1,-1.5 2.4,-1.4 6.1,2.1 2.2,2.3 4.1,3.4 4.5,2.8 0.4,-0.6 3.1,-4.7 6.1,-9 8.4,-12.4 8.9,-12.8 12.6,-10.1 z"/>
<path d="M 230.3,55.6 c -0.2,0.5 -0.2,6.8 -0.1,14 l 0.3,12.9 67,0 67,0 0,-13.8 0,-13.7 -66.9,-0.3 c -46.1,-0.1 -67,0.1 -67.3,0.9 z"/>
<path d="M 24.5,139.9 c -1.1,0.5 -2.9,1.9 -4,3.1 -1.9,2.1 -2,3.6 -2,49.1 l 0,46.9 2.8,2.7 2.7,2.8 47,0 47,0 2.7,-2.8 2.8,-2.7 0,-47 0,-47 -2.8,-2.7 -2.7,-2.8 -45.8,-0.2 c -25.1,-0.1 -46.6,0.2 -47.7,0.6 z m 93.7,4.8 c 1.7,1.5 1.8,4.3 1.8,47.1 0,41 -0.2,45.7 -1.7,47.4 -1.5,1.7 -4.3,1.8 -47.1,1.8 -41,0 -45.7,-0.2 -47.4,-1.7 -1.7,-1.5 -1.8,-4.3 -1.8,-47.1 0,-41 0.2,-45.7 1.7,-47.4 1.5,-1.7 4.3,-1.8 47.1,-1.8 41,0 45.7,0.2 47.4,1.7 z"/>
<path d="M 51,169 c 0,12.6 -0.2,15.2 -1.5,15.7 -3.6,1.3 -4.5,5.7 -4.5,21.8 0,17.1 0.8,20.2 5.5,22.3 1.7,0.8 8.8,1.2 20.6,1.2 19,0 22.6,-0.7 24.9,-4.9 0.6,-1.1 1,-9.3 1,-19.1 0,-16.8 0,-17.1 -2.5,-19.6 -2.4,-2.3 -2.5,-3 -2.7,-17.2 l -0.3,-14.7 -20.2,-0.3 -20.3,-0.2 0,15 z m 35,2.5 l 0,11.5 -14.5,0 -14.5,0 0,-11.5 0,-11.5 14.5,0 14.5,0 0,11.5 z"/>
<path d="M 59,170 l 0,4 4.5,0 4.5,0 0,-4 0,-4 -4.5,0 -4.5,0 0,4 z"/>
<path d="M 74,170 l 0,4 4.5,0 4.5,0 0,-4 0,-4 -4.5,0 -4.5,0 0,4 z"/>
<path d="M 153.6,163.5 c -2,1.1 -2.1,1.7 -1.9,27.4 0.1,20.9 0.4,26.5 1.5,27.2 0.7,0.5 13.3,0.9 28.1,0.9 l 26.7,0 0,-27.4 c 0,-16.5 -0.4,-27.7 -1,-28.1 -1.7,-1.1 -51.3,-1.1 -53.4,0 z m 31.7,17.7 l 5.3,-5.2 2.7,2.7 2.7,2.7 -5.2,5.3 -5.2,5.3 5.2,5.3 5.2,5.3 -2.7,2.7 -2.7,2.7 -5.3,-5.2 -5.3,-5.2 -5.3,5.2 -5.3,5.2 -2.7,-2.7 -2.7,-2.7 5.2,-5.3 5.2,-5.3 -5.2,-5.3 -5.2,-5.3 2.7,-2.7 2.7,-2.7 5.3,5.2 5.3,5.2 5.3,-5.2 z"/>
<path d="M 230.3,178.6 c -0.2,0.5 -0.2,6.8 -0.1,14 l 0.3,12.9 67,0 67,0 0,-13.8 0,-13.7 -66.9,-0.3 c -46.1,-0.1 -67,0.1 -67.3,0.9 z"/>
<path d="M 341.3,249.9 c -2.6,2.1 -6.3,5.4 -8,7.3 l -3.3,3.4 15,14.9 15,15 7,-7 c 7,-6.9 7,-7 7,-12.5 l 0,-5.5 -9.9,-9.7 c -9.2,-9.1 -10.2,-9.8 -13.9,-9.8 -3.2,0 -5,0.8 -8.9,3.9 z"/>
<path d="M 24.5,263.9 c -1.1,0.5 -2.9,1.9 -4,3.1 -1.9,2.1 -2,3.6 -2,49.1 l 0,46.9 2.8,2.7 2.7,2.8 47,0 47,0 2.7,-2.8 2.8,-2.7 0,-47 0,-47 -2.8,-2.7 -2.7,-2.8 -45.8,-0.2 c -25.1,-0.1 -46.6,0.2 -47.7,0.6 z m 93.7,4.8 c 1.7,1.5 1.8,4.3 1.8,47.1 0,41 -0.2,45.7 -1.7,47.4 -1.5,1.7 -4.3,1.8 -47.1,1.8 -41,0 -45.7,-0.2 -47.4,-1.7 -1.7,-1.5 -1.8,-4.3 -1.8,-47.1 0,-41 0.2,-45.7 1.7,-47.4 1.5,-1.7 4.3,-1.8 47.1,-1.8 41,0 45.7,0.2 47.4,1.7 z"/>
<path d="M 41.2,279.6 l -2.2,1.5 0,34.9 0,34.9 2.2,1.5 c 3.3,2.4 56.3,2.4 59.6,0 2.1,-1.4 2.2,-2.2 2.2,-16 l 0,-14.4 -2.5,0 c -2.9,0 -3.8,-2.4 -3.3,-9.6 0.3,-4.5 0.5,-4.9 3.1,-5.2 l 2.7,-0.3 0,-8.3 0,-8.3 -6.4,-6.1 -6.4,-6.2 -23.4,0 c -19.5,0 -23.7,0.3 -25.6,1.6 z m 10.7,7.8 c 0.8,0.9 1.1,4.5 0.9,9.8 -0.3,8.2 -0.3,8.3 -3,8.6 l -2.8,0.3 0,-9.4 c 0,-5.1 0.3,-9.7 0.7,-10 1.1,-1.1 3,-0.8 4.2,0.7 z m 14.6,8.6 c 0,9.5 0,9.5 -2.5,9.5 -2.4,0 -2.5,-0.2 -2.8,-8.4 -0.3,-10 0,-11.3 3,-10.9 2.2,0.3 2.3,0.7 2.3,9.8 z m 14,0 c 0,9.5 0,9.5 -2.5,9.5 -2.4,0 -2.5,-0.2 -2.8,-8.3 -0.3,-8.7 0.7,-11.6 3.7,-11 1.3,0.3 1.6,1.9 1.6,9.8 z m 9.9,34.6 c 1.2,3.1 0.6,13.1 -0.8,14.3 -0.9,0.8 -7.5,1.1 -21.7,0.9 l -20.4,-0.3 -0.3,-6.9 c -0.2,-3.8 -0.1,-7.5 0.2,-8.3 0.4,-1 4.8,-1.3 21.5,-1.3 18.1,0 21,0.2 21.5,1.6 z"/>
<path d="M 294.8,294.8 l -24.7,24.7 -5.6,19.4 c -6,21 -6,22.1 -0.2,22.1 1.7,0 10.8,-2.3 20.2,-5.1 l 17.2,-5.1 24.6,-24.6 24.7,-24.7 -15.8,-15.8 -15.7,-15.7 -24.7,24.8 z m -8.8,31.8 l 6.9,1.5 1,5.2 c 2.1,10.7 2.7,9.7 -7.4,12.9 -10.9,3.4 -11.1,3.4 -12.9,0.5 -1.4,-2 -1.3,-3.1 0.9,-10.7 3,-10.3 3.3,-11 4,-11 0.3,0 3.7,0.7 7.5,1.6 z"/>
<path d="M 153.6,287.5 c -2,1.1 -2.1,1.7 -1.9,27.4 0.1,20.9 0.4,26.5 1.5,27.2 0.7,0.5 13.3,0.9 28.1,0.9 l 26.7,0 0,-27.4 c 0,-16.5 -0.4,-27.7 -1,-28.1 -1.7,-1.1 -51.3,-1.1 -53.4,0 z m 38.4,11.6 c 0,0.6 0.7,0.9 1.5,0.5 2,-0.7 5.4,6.2 3.6,7.3 -0.7,0.4 -1.1,1.4 -0.9,2.1 0.2,0.8 -0.6,1.6 -1.7,1.8 -1.1,0.2 -2.3,0.9 -2.7,1.6 -0.5,0.8 -1.1,0.7 -2,-0.2 -0.6,-0.6 -2,-1.2 -3,-1.2 -1.1,0 -1.8,-0.7 -1.8,-2 0,-1.1 -0.4,-2 -1,-2 -0.5,0 -1,-0.7 -1,-1.5 0,-0.8 0.5,-1.5 1,-1.5 0.6,0 1,-0.7 0.8,-1.5 -0.2,-0.9 0.8,-2.2 2.2,-2.9 3.1,-1.8 5,-1.9 5,-0.5 z m -18.2,9.1 c 0.9,0.9 1.7,0.9 3.6,-0.2 3.1,-1.6 5.4,-0.8 5.8,2.2 0.2,1.5 1.1,2.4 2.6,2.6 3,0.5 4.6,3.6 2.7,5.2 -1.9,1.6 -1.9,3.4 -0.1,5 2.2,1.7 0.5,5.4 -2.5,5.5 -1.9,0 -2.5,0.6 -2.7,2.7 -0.4,3.4 -3.6,4.6 -6.2,2.3 -1.6,-1.5 -1.9,-1.5 -3.4,0.1 -1.4,1.3 -2.2,1.5 -4.1,0.6 -1.5,-0.7 -2.2,-1.7 -1.9,-2.5 0.6,-1.7 -2.1,-4.1 -3.6,-3.2 -0.5,0.3 -1.5,-0.5 -2.1,-1.9 -1,-2 -0.9,-2.8 0.5,-4.2 1.6,-1.5 1.6,-1.8 0.1,-3.4 -2.1,-2.3 -0.5,-6 2.6,-6 1.8,0 2.2,-0.6 3.5,-4.8 0.4,-1.5 3.6,-1.6 5.2,0 z"/>
<path d="M 188.6,304.5 c -0.3,0.9 0.1,1.8 1,2.2 1.9,0.7 3.9,-1.1 3,-2.6 -1,-1.6 -3.3,-1.3 -4,0.4 z"/>
<path d="M 172.8,317.1 c -3.6,2.1 -1.6,7.9 2.7,7.9 4.2,0 5.9,-4.4 2.9,-7.4 -1.8,-1.8 -3.2,-2 -5.6,-0.5 z"/>
<path d="M 230.3,302.6 c -0.2,0.5 -0.2,6.8 -0.1,14 l 0.3,12.9 14.7,0.3 14.6,0.3 1.7,-7.3 c 1.5,-6.8 2,-7.7 8.2,-14 l 6.7,-6.7 -22.8,-0.3 c -15.3,-0.2 -23,0 -23.3,0.8 z"/>
</svg>
