<svg xmlns="http://www.w3.org/2000/svg" viewBox="0 0 384 384">
<path d="M 40.5,132.4 c -4.7,2.6 -10.5,9.8 -10.5,13 0,1.9 6.4,18.4 12.5,32.1 1.7,3.7 16.9,40.2 19.7,47 1.1,2.7 2.8,6.8 3.9,9 1,2.2 2.3,6 3,8.4 0.8,3.3 2.5,5.9 6.5,9.8 l 5.5,5.3 126.9,0 126.9,0 3.8,-2.2 c 4.9,-2.9 6.8,-5.2 9.2,-11.3 1.7,-4.4 2.1,-9.3 3.2,-39.5 2.3,-64.9 2.4,-58.8 -1.1,-64.2 -2.1,-3.3 -4.5,-5.5 -8,-7.3 l -4.9,-2.5 -146.3,0.1 -146.3,0.1 -4,2.2 z m 291.7,11.6 c 7.1,4.7 7.2,5.4 6.4,34.8 -0.8,28.6 -2.3,56.2 -3.2,58.7 -0.4,0.9 -2.7,3.2 -5.2,5.1 l -4.5,3.4 -117.7,0 -117.8,0 -3,-3.4 c -1.6,-1.9 -6.2,-11.2 -10.6,-21.7 -4.3,-10.1 -8.4,-19.8 -9.1,-21.4 -7,-14.8 -17.8,-42.6 -17.9,-46 -0.1,-4.3 2.7,-8.9 6.7,-11.2 1.7,-1 33.1,-1.2 136.8,-1.3 l 134.6,0 4.5,3 z"/>
<path d="M 122.8,161.6 c -3.9,2 -4.8,4.3 -4.8,12.3 0,8.2 1,11.4 4.4,13.6 2.8,1.9 5.8,0.9 7.6,-2.6 0.9,-1.6 1.4,-12.1 1.1,-19.6 -0.1,-0.6 -1.3,-2 -2.9,-3.1 -2.5,-1.8 -3,-1.9 -5.4,-0.6 z"/>
<path d="M 278.8,161.6 c -4,2.1 -4.8,4.3 -4.8,13.3 0,7.4 0.2,8.3 2.8,11.2 2.2,2.5 3.3,3 5,2.5 4.2,-1.4 5.5,-4.9 5.4,-14.4 0,-4.8 -0.1,-9 -0.1,-9.4 -0.1,-0.4 -1.3,-1.5 -2.9,-2.6 -2.5,-1.8 -3,-1.9 -5.4,-0.6 z"/>
<path d="M 81.5,163.5 c -2.3,2.2 -2.5,3.2 -2.5,11 0,8.2 0.1,8.8 2.9,11.6 3.5,3.5 4.2,3.6 7.7,0.6 2.6,-2.2 2.6,-2.6 2.5,-12.3 -0.2,-8.9 -0.4,-10.1 -2.4,-11.6 -3,-2.4 -5.4,-2.2 -8.2,0.7 z"/>
<path d="M 159.6,163.5 c -2.6,2.4 -2.6,2.7 -2.1,11.6 0.5,9.1 1.2,11.1 4.6,13 4.8,2.5 8.1,-2.9 8.5,-13.9 0.3,-7.9 0.2,-8.5 -2.3,-10.8 -3.3,-3 -5.3,-3 -8.7,0.1 z"/>
<path d="M 199.3,162.7 c -2.1,1.4 -2.3,2.3 -2.3,11.8 0,10 0.1,10.4 2.6,12.4 3.4,2.7 4,2.6 6.9,-0.4 2.3,-2.2 2.5,-3.1 2.5,-12.4 0,-9.2 -0.2,-10.1 -2.2,-11.5 -2.8,-2 -4.7,-1.9 -7.5,0.1 z"/>
<path d="M 237.5,163.5 c -2.3,2.2 -2.5,3.2 -2.5,11 0,8.2 0.1,8.8 2.9,11.6 3.5,3.5 4,3.5 7.5,0.8 2.5,-2 2.6,-2.4 2.6,-12.4 0,-9.8 -0.1,-10.3 -2.5,-11.9 -3.4,-2.2 -5.2,-2 -8,0.9 z"/>
<path d="M 316,162.8 c -2,1.6 -2.3,3 -2.8,10.5 -0.3,6.9 -0.1,9.2 1.2,11.2 2.3,3.5 5.1,4.8 7.6,3.5 3.5,-1.9 4.7,-5.9 4.6,-14.9 -0.1,-7.4 -0.4,-8.5 -2.5,-10.2 -2.9,-2.4 -5.3,-2.4 -8.1,-0.1 z"/>
<path d="M 101.8,202.1 c -2.7,2 -2.8,2.4 -2.8,10.9 0,8.1 0.2,9.1 2.6,11.9 3.2,3.8 4.4,3.9 7.8,0.5 2.4,-2.5 2.6,-3.2 2.6,-12.1 0,-8.6 -0.2,-9.7 -2.2,-11.4 -2.9,-2.4 -4.6,-2.3 -8,0.2 z"/>
<path d="M 140.2,202.3 c -1.9,2 -2.2,3.5 -2.2,10.9 0,7.8 0.2,8.9 2.6,11.7 3.1,3.7 4.3,3.8 7.8,0.6 2.5,-2.3 2.6,-2.9 2.6,-12 0,-8.8 -0.2,-9.8 -2.2,-11.6 -3.1,-2.5 -6,-2.4 -8.6,0.4 z"/>
<path d="M 179.6,202.1 c -2.4,1.9 -2.6,2.5 -2.6,10.6 0,7.7 0.3,9 2.6,12 3,3.9 4.7,4.1 7.9,0.8 2.3,-2.2 2.5,-3.2 2.5,-11.9 0,-8.5 -0.2,-9.7 -2.2,-11.6 -2.8,-2.5 -4.8,-2.5 -8.2,0.1 z"/>
<path d="M 218.2,202.3 c -1.9,2 -2.2,3.5 -2.2,10.9 0,7.8 0.2,8.9 2.6,11.7 3.1,3.7 4.7,3.9 7.9,0.6 2.3,-2.2 2.5,-3.2 2.5,-11.8 0,-8.5 -0.2,-9.6 -2.3,-11.5 -3,-2.8 -5.8,-2.8 -8.5,0.1 z"/>
<path d="M 257.2,202.3 c -1.9,2 -2.2,3.5 -2.2,10.9 0,7.8 0.2,8.9 2.6,11.7 3.2,3.8 4.4,3.9 7.8,0.5 2.4,-2.5 2.6,-3.3 2.6,-11.9 0,-8.3 -0.2,-9.4 -2.3,-11.3 -3,-2.8 -5.8,-2.8 -8.5,0.1 z"/>
<path d="M 296.2,202.3 c -1.9,2 -2.2,3.5 -2.2,10.9 0,7.8 0.2,8.9 2.6,11.7 3.1,3.7 4.7,3.9 7.9,0.6 2.3,-2.2 2.5,-3.1 2.5,-12.3 0,-9.5 -0.1,-10 -2.5,-11.6 -3.4,-2.2 -5.8,-2 -8.3,0.7 z"/>
</svg>
