<svg xmlns="http://www.w3.org/2000/svg" viewBox="0 0 384 384">
<path d="M 46,139.5 l 0,92.5 61.3,0.2 61.2,0.3 -0.1,3.5 0,3.5 -10.1,0.3 -10.1,0.3 -1.1,2.9 -1,3 45.5,0 c 42.6,0 45.4,-0.1 45.4,-1.8 0,-3.6 -1.4,-4.1 -11.5,-4.4 l -10,-0.3 0,-3.5 0,-3.5 61.8,-0.3 61.7,-0.2 0,-92.5 0,-92.5 -146.5,0 -146.5,0 0,92.5 z m 285.8,-1 l 0.2,83.5 -140,0 -140,0 0,-83.3 c 0,-45.9 0.2,-83.6 0.4,-83.8 0.2,-0.2 63.1,-0.3 139.8,-0.2 l 139.3,0.3 0.3,83.5 z"/>
<path d="M 70.5,65.4 c -5.6,2.5 -5.6,2 -5.3,33.2 l 0.3,28.8 3.5,2 c 3.4,2 5.2,2.1 53,2.4 52.7,0.4 58,0 61.9,-4.2 2.1,-2.2 2.1,-2.8 1.9,-30.6 l -0.3,-28.3 -2.8,-2.1 c -2.8,-2.1 -3.7,-2.1 -56,-2.3 -42.4,-0.2 -53.8,0 -56.2,1.1 z"/>
<path d="M 205.4,65.4 c -6.3,2.8 -6.4,3.3 -6.4,32.4 0,16.1 0.4,27.1 1,28.3 0.6,1 2.5,2.7 4.3,3.6 2.9,1.6 7.7,1.8 53.1,2.1 53,0.3 58.6,-0.1 62.5,-4.2 2.1,-2.2 2.1,-2.8 1.9,-30.6 l -0.3,-28.3 -2.8,-2.1 c -2.8,-2.1 -3.7,-2.1 -56.5,-2.3 -43.7,-0.2 -54.3,0 -56.8,1.1 z"/>
<path d="M 71.7,146.4 c -7.1,2.6 -6.8,0.7 -6.5,32.9 l 0.3,29 2.8,2.1 c 2.8,2.1 3.5,2.1 57.2,2.1 53.7,0 54.4,0 57.2,-2.1 l 2.8,-2.1 0.3,-28.6 c 0.3,-32.3 0.5,-31.4 -7.5,-33.6 -6,-1.7 -101.7,-1.4 -106.6,0.3 z"/>
<path d="M 207.5,146.5 c -7.6,2.7 -7.5,2.3 -7.5,33 l 0,27.3 3,2.6 c 1.7,1.4 4.5,2.8 6.3,3.1 1.8,0.3 26.5,0.5 54.9,0.3 50.7,-0.3 51.7,-0.3 54.5,-2.4 l 2.8,-2.1 0.3,-28.6 c 0.2,-28.4 0.2,-28.6 -2,-30.7 -1.2,-1.1 -3.8,-2.5 -5.7,-3 -2.2,-0.6 -23.5,-1 -53.1,-1 -40.1,0.1 -50.3,0.4 -53.5,1.5 z"/>
<path d="M 22,306 l 0,33 169.5,0 169.5,0 0,-33 0,-33 -169.5,0 -169.5,0 0,33 z m 325.8,-0.3 l 0.2,30.3 -156.5,0 -156.5,0 0,-29.8 c 0,-16.4 0.3,-30.2 0.7,-30.5 0.3,-0.4 70.7,-0.6 156.2,-0.5 l 155.6,0.3 0.3,30.2 z"/>
<path d="M 58,290.6 c -7.2,3.1 -11,8.6 -11,15.8 0,8 3.1,13.1 10.4,16.8 3.3,1.7 5.3,2 12.3,1.6 7.1,-0.4 8.6,-0.2 10,1.4 1.8,2 6.3,2.4 8.1,0.6 1.7,-1.7 1.5,-3.8 -0.4,-5.9 -1.5,-1.7 -1.5,-2.1 0.1,-5.5 1.2,-2.7 1.6,-5.4 1.3,-10 -0.3,-5.4 -0.9,-6.9 -3.3,-9.5 -4.5,-4.7 -9.9,-6.9 -17.5,-6.8 -3.6,0 -8.1,0.7 -10,1.5 z m 18.7,9.6 c 3,2.8 3.2,10.4 0.4,13.9 -1.7,2.1 -2.8,2.4 -8.6,2.4 -6.1,0 -6.9,-0.3 -9.1,-2.8 -2.6,-3 -3.2,-8.3 -1.3,-11.8 2.7,-5.1 13.9,-6.1 18.6,-1.7 z"/>
<path d="M 95.9,291.1 c -1.9,1.9 -2.1,3 -1.7,13 0.3,9 0.7,11.2 2.4,13.6 3.8,5.1 8,6.8 16.9,6.8 8.9,0 13.1,-1.7 16.9,-6.8 1.7,-2.3 2.1,-4.6 2.4,-13.1 0.3,-6.5 0,-11.1 -0.7,-12.5 -1.6,-3 -5.7,-3.8 -8.1,-1.6 -1.7,1.6 -2,3.2 -2,11.9 0,5.6 -0.4,10.6 -0.8,11.3 -1.3,2.1 -6.5,3.4 -10.4,2.8 -5.8,-1 -6.8,-3.2 -6.8,-15.2 0,-9.1 -0.2,-10.3 -1.9,-11.3 -2.8,-1.4 -3.8,-1.3 -6.2,1.1 z"/>
<path d="M 151.2,290.7 c -1.1,1 -4.8,8.5 -8.3,16.7 -6,14.2 -6.2,14.9 -4.4,16.2 3.6,2.7 7.5,1.2 9.5,-3.6 1.2,-3 1.3,-3 9,-3 l 7.7,0 1.8,3.9 c 2.1,4.8 4.7,5.7 8.2,2.7 l 2.6,-2.3 -5.8,-13.9 c -3.3,-7.6 -6.9,-14.9 -8.2,-16.2 -2.8,-2.8 -9.1,-3 -12.1,-0.5 z m 7.7,12 c 0.7,2.1 1.5,4.4 1.7,5 0.4,0.9 -0.6,1.3 -3.4,1.3 l -4,0 1.6,-5 c 1,-2.7 2,-5 2.3,-5 0.3,0 1.1,1.7 1.8,3.7 z"/>
<path d="M 181.8,307 l -0.3,18.2 12.5,-0.4 c 10.6,-0.3 13.2,-0.8 17.3,-2.7 7.1,-3.5 10.2,-8.1 10.2,-15.2 0,-7.3 -2.1,-10.4 -10,-14.4 -5.2,-2.6 -7,-2.9 -17.6,-3.3 l -11.8,-0.4 -0.3,18.2 z m 24.7,-7.4 c 4.3,2 6.2,6.3 4.6,10.2 -1.6,3.9 -5.8,6.1 -13,6.8 l -6.1,0.7 0,-9.7 0,-9.6 5.6,0 c 3.1,0 7.1,0.7 8.9,1.6 z"/>
<path d="M 245,289.5 c 0,0.3 -0.1,7.7 -0.1,16.6 0,17.4 0.4,18.9 5.1,18.9 3.9,0 5.3,-2.2 4.8,-7.3 l -0.5,-4.3 6.1,0.4 c 8.5,0.6 13.8,-1.1 17.5,-5.3 4.5,-5.1 4.4,-10.6 -0.3,-15 -1.9,-1.8 -4.9,-3.5 -6.6,-3.9 -3.8,-0.7 -26,-0.8 -26,-0.1 z m 25.5,10.5 c 1.2,3.7 -1.1,5 -8.6,5 l -6.9,0 0,-3.5 0,-3.5 7.4,0 c 6.6,0 7.5,0.2 8.1,2 z"/>
<path d="M 286.8,290.1 c -1.6,0.9 -1.8,2.8 -1.8,16.7 0,16.7 0.4,18.2 4.6,18.2 4.8,0 5.4,-2 5.4,-18 0,-12.2 -0.3,-15.1 -1.6,-16.4 -1.8,-1.8 -4.1,-2 -6.6,-0.5 z"/>
<path d="M 301,305.4 c 0,17.8 0.5,19.6 5.5,19.6 3.7,0 5.2,-2.3 4.8,-7.2 l -0.4,-4.4 6.1,0.4 c 3.3,0.2 8,-0.1 10.4,-0.8 12.1,-3.4 14.1,-17.1 3.3,-22.1 -3.4,-1.5 -6.6,-1.9 -16.9,-1.9 l -12.8,0 0,16.4 z m 25.9,-6 c 0.9,1.1 1,2 0.1,3.5 -0.9,1.8 -2,2.1 -8.5,2.1 l -7.5,0 0,-3.5 0,-3.5 7.4,0 c 5.2,0 7.7,0.4 8.5,1.4 z"/>
</svg>
