<svg xmlns="http://www.w3.org/2000/svg" viewBox="0 0 384 384">
<path d="M 45.5,74.2 c -0.3,0.7 -0.4,35.9 -0.3,78.3 l 0.3,77 122,0 122,0 0.3,-7.7 0.3,-7.6 -4.9,-7.4 c -6.9,-10.2 -10.5,-17.7 -14.3,-29.8 -3.2,-10 -3.4,-11.3 -3.4,-25.5 0,-16.5 1.5,-23.8 7.4,-36.6 3.2,-6.8 10.1,-18 13.2,-21.5 1.7,-1.8 1.9,-3.4 1.7,-11 l -0.3,-8.9 -121.8,-0.3 c -96.9,-0.2 -121.9,0 -122.2,1 z m 92.9,17.1 c 8.2,3.8 13.7,8.5 19,16.5 8.7,13.1 12.4,31.1 10.5,51.2 -2,21.1 -11,38 -25,47.1 -6.3,4 -19.7,7.3 -26.9,6.6 -9.4,-1 -18,-4.3 -24.3,-9.2 -21.9,-17.3 -28.2,-57.8 -13.7,-88 4.7,-9.6 10.8,-16.8 18.3,-21.3 8.2,-4.9 13.6,-6.2 25.7,-5.9 9,0.2 11.3,0.6 16.4,3 z m 102.1,-0.8 l 4,2 0.3,8.9 c 0.2,4.9 0.1,9.5 -0.2,10.1 -0.3,0.9 -2.3,0.3 -6.6,-1.8 -5,-2.5 -7.7,-3.1 -14.3,-3.5 -7.1,-0.3 -8.8,0 -12.7,2 -5.1,2.6 -9,7.8 -9,12 0,4.4 3.6,10.5 8,13.7 2.2,1.6 8.4,5.3 13.7,8.3 11.1,6.1 18.8,13.1 22.4,20.3 2.1,4.4 2.4,6.3 2.4,16 -0.1,13.2 -1.9,18 -9.7,25 -11.4,10.3 -37.1,12.1 -53,3.9 l -2.8,-1.5 0,-11 0,-11.1 3.9,3.1 c 2.2,1.7 6.1,4.1 8.8,5.3 5.9,2.6 17.5,3.5 22.7,1.8 9,-2.9 13.2,-10.6 10.1,-18.6 -2.2,-5.7 -6.9,-9.8 -20.3,-17.4 -18.9,-10.7 -25.2,-19.7 -25.2,-35.9 0,-16.5 7.1,-26.6 22.6,-32.1 8.1,-2.8 28.7,-2.5 34.9,0.5 z"/>
<path d="M 111.7,108.4 c -10.5,3.9 -16.9,13 -20.2,28.5 -1.9,9.2 -1.9,18 0,27.2 2.1,9.7 4.5,14.8 9.7,20.5 5.5,6.1 10.6,8.3 18.4,8.4 15.6,0 25.9,-12.2 28.6,-33.8 2.6,-21.6 -4,-41.9 -15.8,-48.8 -5.5,-3.2 -15,-4.1 -20.7,-2 z"/>
<path d="M 77,239 c -11.5,2.9 -19.4,9 -24.2,18.8 -3.1,6.3 -3.3,7.2 -3.3,17.7 0,9.9 0.3,11.5 2.7,16 6.7,12.8 19.2,19.4 34.7,18.2 14.1,-1.1 17.1,-3.2 17.1,-12.3 0,-3.5 -0.5,-6.6 -1.1,-6.9 -0.5,-0.4 -2.7,0.1 -4.7,1.1 -5.4,2.6 -15,3 -19.3,0.9 -7.9,-4 -10,-7.9 -10,-18 0,-4.5 0.6,-8.5 1.4,-10.2 4.8,-9.1 16.6,-12.8 26.6,-8.2 6.5,2.9 7.2,2.2 6.9,-6.3 l -0.3,-7.3 -3.9,-1.9 c -4.5,-2.2 -16.9,-3.1 -22.6,-1.6 z"/>
<path d="M 127.1,240 c -11.2,3 -12.1,3.9 -12.1,11 0,3.2 0.5,6.2 1,6.5 0.6,0.3 4.1,-0.6 7.8,-2.1 9.1,-3.6 17.6,-4.2 21.9,-1.5 3.2,2 5,5.8 4,8.5 -0.4,0.9 -2.9,1.6 -6.9,2.1 -20.2,2.1 -27.8,5.6 -32.2,14.9 -2.2,4.6 -2,14.1 0.3,19.2 5.6,12.2 24.2,15.3 34.7,5.8 3.5,-3.3 6.2,-4.5 4.9,-2.3 -0.4,0.5 -0.4,2.1 -0.1,3.5 0.6,2.4 0.8,2.5 9.4,2.2 l 8.7,-0.3 0.3,-21.4 c 0.3,-23.9 -0.5,-30.5 -4.6,-37.1 -6,-9.6 -21.1,-13.3 -37.1,-9 z m 22.9,40.5 c 0,8.7 -5.5,14.5 -13.8,14.5 -7.3,0 -11.5,-6.8 -8.2,-13 1.9,-3.5 8.3,-5.5 18.8,-5.9 3.2,-0.1 3.2,0 3.2,4.4 z"/>
<path d="M 214.7,239.4 c -4.1,1.5 -10.7,6.2 -10.7,7.7 0,0.5 -0.4,0.9 -1,0.9 -0.5,0 -1,-1.1 -1,-2.4 0,-5.2 -0.6,-5.6 -9.4,-5.6 -5,0 -8.7,0.5 -9.4,1.2 -0.9,0.9 -1.2,9.5 -1.2,32.4 0,17.2 0.3,31.9 0.6,32.8 0.9,2.3 17.9,2.3 18.8,0 0.3,-0.9 0.6,-10.5 0.6,-21.5 0,-21.2 0.6,-24.5 5,-28.4 1.6,-1.4 3.6,-2 7.1,-2 4,0 5.4,0.5 7.6,2.8 l 2.8,2.7 0.3,21.8 c 0.1,11.9 0.4,22.7 0.7,23.9 0.5,2.2 1,2.3 8.8,2.3 5.1,0 8.8,-0.5 9.5,-1.2 0.9,-0.9 1.2,-7.1 1.2,-21.8 0,-18 0.2,-21 1.8,-24 4.3,-8 14.2,-9.1 18.9,-2.1 2.2,3.3 2.3,4.2 2.3,25 0,15.6 0.3,22 1.2,22.9 1.6,1.6 16,1.6 17.6,0 1.6,-1.6 1.6,-41.6 0.1,-49 -2.2,-10.2 -6.7,-16 -14.8,-18.7 -8.6,-2.8 -19.3,0.1 -26,7.3 l -3.4,3.6 -3.6,-4.2 c -6.1,-7.1 -15.4,-9.6 -24.4,-6.4 z"/>
<path d="M 325.9,240.3 c -14.7,4.2 -25,20.8 -22,35.5 0.6,3 2.2,7.5 3.5,9.9 l 2.5,4.3 -5.6,8.1 c -3,4.4 -5.3,8.2 -5.1,8.4 0.2,0.2 5.2,-1.4 11.1,-3.5 l 10.7,-4 6.1,1.6 c 11.1,2.8 22.3,-0.7 30.3,-9.7 8.8,-9.7 10.6,-23 4.6,-34.9 -6.3,-12.4 -22.6,-19.5 -36.1,-15.7 z m 19.7,6.1 c 9.9,4.6 16.2,15.6 15.1,26.2 -1.8,17.5 -18.6,28.5 -35,22.9 -3.8,-1.3 -4.9,-1.3 -7.8,-0.1 -1.9,0.7 -4.4,1.7 -5.7,2.1 -2.3,0.7 -2.3,0.7 0.4,-3.5 2.3,-3.4 2.6,-4.5 1.6,-5.8 -6.3,-8.9 -7.9,-19.4 -4.2,-28 2.6,-6 10,-13.3 15.2,-14.9 6.1,-2 14.8,-1.5 20.4,1.1 z"/>
<path d="M 331.6,252.2 c -2,2.8 -0.4,5.8 2.9,5.8 3.3,0 4.9,-3 2.9,-5.8 -0.8,-1.2 -2.1,-2.2 -2.9,-2.2 -0.8,0 -2.1,1 -2.9,2.2 z"/>
<path d="M 328,264.9 c 0,2 0.6,3 2,3.4 1.7,0.4 2,1.4 2,6.1 0,4.9 -0.2,5.6 -2,5.6 -1.6,0 -2,0.7 -2,3.5 l 0,3.5 6.5,0 6.5,0 0,-3.5 c 0,-2.4 -0.5,-3.5 -1.5,-3.5 -1.2,0 -1.5,-1.7 -1.5,-9 l 0,-9 -5,0 c -4.8,0 -5,0.1 -5,2.9 z"/>
</svg>
