<svg xmlns="http://www.w3.org/2000/svg" viewBox="0 0 384 384">
<path d="M 96.3,17.1 c -10.2,3.9 -15.3,13.1 -15.3,27.6 0,6.5 -0.3,8.5 -1.5,8.9 -2.8,1.1 -1.2,10.7 2.5,14.9 1,1.1 2.4,4 3.1,6.5 1.5,5.3 6.6,12 12.2,16.1 4.5,3.3 10.9,3.9 15.5,1.5 4.8,-2.5 12.9,-12 14.3,-16.7 0.7,-2.4 2.3,-5.6 3.5,-7.1 3.1,-3.8 4.9,-12.6 3,-14.7 -0.8,-1 -1.5,-5 -1.9,-10.6 -0.8,-14.8 -6,-23.2 -16.6,-27 -5.8,-2 -12.5,-1.8 -18.8,0.6 z"/>
<path d="M 65,103 c -10.1,3.7 -19.2,7.2 -20.1,7.8 -2,1.3 -3.6,6.2 -9.3,28.8 -4.6,18.3 -8.2,36.8 -8.8,45.9 l -0.3,5 12.6,0.3 c 10.2,0.2 13,0 14.2,-1.2 1.3,-1.4 1.6,-1.4 2.7,-0.1 1.9,2.3 99.1,2.2 101,0 1.1,-1.4 1.4,-1.4 2.4,0 0.9,1.3 3.3,1.5 13.6,1.3 l 12.5,-0.3 0.3,-4.2 c 0.3,-4.2 0.3,-4.2 2.3,-2.2 1.7,1.7 1.9,3.4 1.9,20.4 l 0,18.5 -14.9,0 c -13.9,0 -15,-0.1 -15.6,-1.9 -0.3,-1.1 -0.6,-8 -0.6,-15.5 l -0.1,-13.7 -10.6,0.3 -10.7,0.3 0.1,15.2 0,15.3 -9.7,0 c -8.3,0 -9.8,-0.3 -10.4,-1.8 -0.4,-0.9 -0.9,-7.8 -1.1,-15.2 l -0.4,-13.5 -10.4,-0.3 c -10,-0.3 -10.4,-0.2 -11,2 -1.6,6.2 0.5,29.2 3.6,38.8 7.7,24 20.2,42 38.7,56.1 9,6.8 24.6,14.3 36.6,17.6 8.9,2.4 11.7,2.7 26,2.7 13,-0.1 17.5,-0.4 23.8,-2.1 8.1,-2.2 10.1,-3.2 7.9,-4 -2.9,-1.1 -13.1,-9.4 -16.4,-13.4 -9.2,-11.4 -14.5,-27.3 -13.4,-40.4 0.5,-6.8 3.4,-17.3 6.2,-22.7 1.1,-2 1.4,-7.5 1.4,-22.3 l 0,-19.5 14.9,0 c 16.7,0 16.1,-0.3 16.1,7.5 0,2.4 0.4,4.6 0.8,4.9 0.5,0.3 3.3,-0.1 6.3,-0.9 3,-0.8 7.3,-1.5 9.7,-1.5 l 4.2,0 0,-5 0,-5 10,0 c 5.5,0 10,0.1 10.1,0.2 0,0.2 0.6,3.7 1.2,7.8 1.2,7.4 1.2,7.5 6.1,10.7 2.7,1.8 7.1,5.3 9.7,7.9 2.7,2.6 5.2,4.4 5.6,4 1.5,-1.5 1.4,-14.4 -0.1,-25.6 -3.4,-24.3 -13.2,-43.9 -30.5,-61 -15.1,-15 -30.4,-23.4 -51.3,-28 -10.9,-2.5 -33,-2.7 -42.8,-0.5 -13.5,3.1 -18.1,4.7 -16.9,6.2 0.6,0.7 1.9,1.3 2.8,1.4 0.9,0 1.1,0.3 0.6,0.5 -0.6,0.2 -4.9,-0.9 -9.5,-2.5 -20.3,-7.1 -23.1,-8.1 -25.1,-9.2 -3.4,-1.8 -4.4,0.4 -6.9,14.6 -2.3,13.2 -4.4,24.3 -5.3,28.2 -0.3,1.1 -0.9,4.2 -1.2,6.8 -0.4,2.5 -0.9,4.4 -1.2,4.1 -0.9,-0.9 -1,-5.7 -0.2,-6.2 0.5,-0.3 0.8,-1.5 0.8,-2.7 -0.1,-1.7 -0.2,-1.8 -0.6,-0.5 -0.8,3.2 -2.3,1.9 -2.3,-2 0,-2 -0.7,-6.8 -1.5,-10.7 -1.8,-8.4 -1.9,-13.5 -0.3,-18.6 0.9,-3.1 0.8,-4.4 -0.2,-6.4 -2.4,-4.5 -8.4,-4.5 -11.3,-0.1 -1.5,2.2 -1.5,2.9 0,8 1.4,5.1 1.4,6.3 0,13.8 -0.8,4.6 -2.1,12 -2.8,16.6 -0.7,4.5 -1.6,7.9 -1.9,7.5 -0.4,-0.5 -2.4,-9.8 -4.5,-20.8 -2,-11 -4.2,-22.7 -4.9,-25.9 -0.6,-3.3 -1.5,-6 -2.1,-6.2 -0.5,-0.1 -9.3,2.9 -19.5,6.6 z m 105.5,10.1 c 0.9,1.7 1.4,3.8 1.2,4.7 -0.4,1.3 -0.5,1.2 -0.6,-0.4 0,-1.1 -0.8,-2.9 -1.6,-4 -1.4,-1.9 -1.9,-3.4 -1,-3.4 0.2,0 1.2,1.4 2,3.1 z m 3.9,12.9 c 0.5,3.9 0.4,4.1 -0.4,1.5 -1.5,-4.6 -2,-7.9 -1.1,-6.9 0.5,0.5 1.2,2.9 1.5,5.4 z m 63,3.3 c 3.3,1.6 8.3,4.6 11,6.7 7,5.1 18.4,17.5 22.3,24.1 5.6,9.5 5.9,9 -4.8,8.7 l -9.3,-0.3 -2.6,-6.5 c -5.3,-13.9 -15,-27.4 -24.5,-34.2 -3.9,-2.9 -3.9,-2.9 -1,-2.2 1.7,0.4 5.7,2 8.9,3.7 z m -47.4,20.7 c 0,14.5 -0.3,19 -1.2,19 -0.7,0 -2.2,0.3 -3.4,0.6 -1.9,0.5 -2.2,0 -2.7,-4.3 -0.3,-2.6 -2,-10.6 -3.7,-17.6 -1.7,-7.1 -2.9,-13.4 -2.6,-14 0.2,-0.7 0.5,-0.2 0.5,1 0.2,3.6 1.8,3.6 6.7,-0.1 2.6,-2 5.1,-3.6 5.5,-3.6 0.5,0 0.9,8.5 0.9,19 z m 25.7,-15.1 c 7.1,5.5 15.3,18.9 19.2,30.8 l 1,3.3 -13.5,0 -13.4,0 0,-19 c 0,-10.8 0.4,-19 0.9,-19 0.5,0 3.1,1.7 5.8,3.9 z m -29.8,41.8 c -0.1,3.3 -0.2,3.5 -0.8,1.3 -0.4,-1.4 -0.6,-3.1 -0.3,-3.8 0.8,-2.2 1.2,-1.3 1.1,2.5 z m -45.5,61.9 c 0.8,0.3 2.2,2.8 3.2,5.6 3.8,11.5 11.7,24.3 20.1,32.5 3,2.9 4.9,5.3 4.3,5.3 -0.5,0 -1,-0.5 -1,-1.1 0,-0.5 -0.4,-0.7 -1,-0.4 -2.4,1.5 -20.1,-10.6 -27.7,-18.9 -6.8,-7.5 -14.7,-20.1 -13.9,-22.1 0.4,-1.1 2.2,-1.5 7.5,-1.5 3.8,0 7.6,0.3 8.5,0.6 z m 49.6,17.9 c 0,22 0.1,21.9 -10,11.6 -6.9,-7 -14.2,-19.6 -15.6,-26.9 l -0.6,-3.2 13.1,0 13.1,0 0,18.5 z"/>
<path d="M 244.4,202.9 c -15.6,4.4 -29.2,17.4 -34.4,32.7 -7.2,20.9 -0.3,44.6 16.8,57.8 8,6.1 12.7,8.2 22.1,10.1 10.3,2.1 21.2,0.9 31.1,-3.6 l 6.5,-3 2.9,3.3 c 11.5,12.9 11.5,12.9 13.3,11.9 1,-0.5 3.6,-2.8 5.7,-5 l 3.9,-4 -5.3,-6.3 c -3,-3.5 -6.2,-7.2 -7.2,-8.3 -1.7,-2 -1.6,-2.2 1.3,-6.5 10.4,-15.6 11.8,-34.8 3.8,-51.7 -4.2,-8.8 -14.3,-19.4 -22.3,-23.3 -12.5,-6.1 -26.2,-7.6 -38.2,-4.1 z m 21.7,10.1 c 26.8,5.1 40.9,34.6 28.1,59.2 -7.4,14.2 -27.1,24.1 -41.9,20.9 -18.4,-4 -30.5,-16.3 -33.4,-33.9 -2.8,-16.7 4.9,-33.2 19.6,-41.7 8.3,-4.9 17.5,-6.4 27.6,-4.5 z"/>
<path d="M 309.1,311.2 c -4.5,3.9 -8,7.7 -7.9,8.4 0.2,0.7 6.9,9.3 15,19.2 9.7,11.8 15.8,18.4 17.8,19.2 4.5,1.9 9.9,0 14.4,-5 4.1,-4.6 4.8,-9.7 1.8,-14.1 -2.2,-3.4 -31.3,-34.9 -32.2,-34.9 -0.4,0 -4.4,3.2 -8.9,7.2 z"/>
</svg>
