<svg xmlns="http://www.w3.org/2000/svg" viewBox="0 0 384 384">
<path d="M 93,41.4 c -11,2.5 -20.6,9.9 -26.8,20.7 -5.4,9.6 -6.2,14.6 -6.2,41 0,20.7 0.2,23.8 1.6,24.3 0.9,0.3 19,0.6 40.4,0.6 32.8,0 38.9,-0.2 40,-1.5 0.9,-1.1 1.1,-7.6 0.8,-25.7 -0.4,-21.8 -0.7,-24.9 -2.6,-30.2 -5.8,-15.7 -17.3,-26.4 -32,-29.5 -6.3,-1.3 -8,-1.3 -15.2,0.3 z m 3.5,12.6 c 0,4.2 -0.2,4.5 -2.9,4.8 -1.5,0.2 -3.9,0.1 -5.3,-0.3 -3.8,-0.9 -2.8,-5.5 1.7,-7.8 5.2,-2.6 6.5,-2 6.5,3.3 z m 17.3,-2.4 c 3.4,2.3 2.7,6.8 -1.2,7.2 -1.5,0.2 -3.9,0.1 -5.2,-0.2 -2.1,-0.6 -2.4,-1.2 -2.4,-5.2 l 0,-4.7 3.2,0.7 c 1.8,0.3 4.3,1.3 5.6,2.2 z m -36.3,21.9 l 0,7 -3.3,0.3 c -5.5,0.5 -6.4,-1 -4.1,-7.6 2,-5.8 3.3,-7.4 5.9,-6.9 1.2,0.2 1.5,1.8 1.5,7.2 z m 19,0 l 0,7 -4.4,0.3 c -5.2,0.4 -6.1,-0.5 -6.1,-7 0,-7.2 0.5,-7.9 5.9,-7.6 l 4.6,0.3 0,7 z m 19,0 c 0,7 0,7 -2.9,7.3 -1.5,0.2 -3.9,0.1 -5.2,-0.2 -2.2,-0.6 -2.4,-1.1 -2.4,-7 0,-7.2 0.4,-7.6 6.5,-7.3 l 4,0.2 0,7 z m 14.2,-6.3 c 2,2.5 4.6,11.9 3.5,13 -0.5,0.5 -2.7,0.8 -4.8,0.6 l -3.9,-0.3 -0.3,-5.9 c -0.2,-3.2 -0.1,-6.5 0.2,-7.2 0.7,-1.7 4,-1.8 5.3,-0.2 z m -51.9,28.1 l 0.3,6.8 -5.3,-0.3 -5.3,-0.3 -0.3,-5.4 c -0.4,-7.7 -0.1,-8.3 5.5,-7.9 l 4.8,0.3 0.3,6.8 z m 19,0 l 0.3,6.8 -5.3,-0.3 -5.3,-0.3 -0.3,-5.9 c -0.4,-6.8 0.4,-7.7 6.3,-7.4 l 4,0.3 0.3,6.8 z m 19,0 l 0.3,6.8 -5.3,-0.3 -5.3,-0.3 -0.3,-5.4 c -0.4,-7.7 -0.1,-8.3 5.5,-7.9 l 4.8,0.3 0.3,6.8 z m 18.7,-0.3 l 0,6.5 -5.2,0.3 -5.3,0.3 0,-6.4 c 0,-3.5 0.3,-6.7 0.7,-7.1 0.4,-0.4 2.8,-0.6 5.3,-0.4 l 4.5,0.3 0,6.5 z m -56.5,20.1 l 0,5 -5.2,-0.3 c -4.7,-0.3 -5.3,-0.6 -5.6,-2.7 -0.2,-1.2 -0.1,-3.4 0.2,-4.7 0.6,-2.1 1.2,-2.4 5.6,-2.4 l 5,0 0,5.1 z m 19,0 l 0,5 -5.2,-0.3 c -4.7,-0.3 -5.3,-0.6 -5.6,-2.7 -0.2,-1.2 -0.1,-3.4 0.2,-4.7 0.6,-2.1 1.2,-2.4 5.6,-2.4 l 5,0 0,5.1 z m 18.8,0.1 l 0.3,4.8 -5.5,0 -5.6,0 0,-4.3 c 0,-2.4 0.3,-4.7 0.7,-5.1 0.4,-0.4 2.8,-0.6 5.3,-0.4 l 4.5,0.3 0.3,4.7 z m 19,0 l 0.3,4.8 -5.5,0 -5.6,0 0,-4.3 c 0,-2.4 0.3,-4.7 0.7,-5.1 0.4,-0.4 2.8,-0.6 5.3,-0.4 l 4.5,0.3 0.3,4.7 z"/>
<path d="M 44.4,128.5 l -2.6,2.6 0.4,18.7 c 0.3,17.2 0.6,19.3 3.1,26.2 6.8,18.8 23.9,34.2 42.4,38 l 5.4,1.2 -0.3,12.1 -0.3,12.2 -10.2,0.5 c -7.8,0.4 -10.7,0.9 -12.3,2.2 -2.8,2.4 -2.7,8.1 0.2,10.8 2.1,1.9 3.4,2 30.9,2 26.5,0 28.9,-0.1 31,-1.9 3.2,-2.6 3.2,-8.6 0,-11.2 -1.9,-1.6 -4,-1.9 -12.1,-1.9 -8,0 -9.9,-0.3 -10.4,-1.6 -0.3,-0.9 -0.6,-6.3 -0.6,-12 0,-11.9 -1.3,-10.3 11.7,-14.4 19.6,-6.2 34.9,-23.8 38.9,-44.7 1.7,-9.1 1.9,-33.5 0.2,-36.6 -2.6,-4.9 -7.8,-6.1 -11.9,-2.8 -2.3,1.9 -2.4,2.5 -3,20.3 -0.6,21.1 -1.8,25.4 -9.3,34.9 -7.7,9.8 -18.9,15.6 -31.7,16.6 -13.2,1.1 -25,-3.8 -34.6,-14.1 -9.6,-10.2 -12.3,-19.2 -12.3,-41.5 0,-7.5 -0.4,-14.1 -0.8,-14.7 -1.1,-1.6 -4.8,-3.4 -7.2,-3.4 -1.1,0 -3.2,1.1 -4.6,2.5 z"/>
<path d="M 187.8,207.6 c -5.9,3.2 -5.8,1.8 -5.8,67.4 0,65.9 0,65.4 5.9,68.4 2.6,1.4 12,1.6 79,1.6 46.9,0 77,-0.4 78.5,-1 1.4,-0.5 3.5,-2.4 4.6,-4.2 1.9,-3.2 2,-5.1 2,-64 0,-37 -0.4,-61.7 -1,-63.2 -0.5,-1.4 -2.4,-3.5 -4.2,-4.6 -3.2,-1.9 -5.1,-2 -79.8,-2 -65.7,0.1 -76.9,0.3 -79.2,1.6 z m 98.2,21.4 l 0,8 -8,0 -8,0 0,-7.3 c 0,-4.1 0.3,-7.7 0.7,-8 0.3,-0.4 3.9,-0.7 8,-0.7 l 7.3,0 0,8 z m 22.4,-7.4 c 1.3,0.5 1.6,2.2 1.6,8 l 0,7.4 -8,0 -8,0 0,-7.3 c 0,-4.1 0.3,-7.7 0.7,-8 0.8,-0.9 11.6,-0.9 13.7,-0.1 z m 25.6,7.4 l 0,8 -8,0 -8,0 0,-7.3 c 0,-4.1 0.3,-7.7 0.7,-8 0.3,-0.4 3.9,-0.7 8,-0.7 l 7.3,0 0,8 z m 4.8,63.2 l -0.3,38.3 -71.2,0.3 -71.3,0.2 0,-38.5 0,-38.5 71.5,0 71.5,0 -0.2,38.2 z"/>
<path d="M 262.3,258.9 c -6,1.5 -14.1,6.2 -17.4,9.8 -1.7,2.1 -4.4,6.2 -5.8,9.3 -3.5,7.3 -3.6,19.9 -0.3,27.3 2.8,6.1 10.5,13.8 16.8,16.7 7.6,3.5 20.1,3.4 27.6,-0.3 25.4,-12.5 25.5,-47.4 0.2,-60.1 -5.7,-2.8 -15.7,-4.1 -21.1,-2.7 z m 13.1,22.9 c 9.3,4.8 17.1,9.1 17.3,9.7 0.3,1.1 -35.3,19.6 -36.2,18.7 -0.3,-0.3 -0.5,-8.8 -0.5,-18.9 0,-14 0.3,-18.3 1.3,-18.3 0.6,0 8.8,4 18.1,8.8 z"/>
</svg>
