<svg xmlns="http://www.w3.org/2000/svg" viewBox="0 0 384 384">
<path d="M 164.8,61.2 l -27.8,28 0,63 0,63 59.8,-59.9 59.9,-59.8 -31.3,-31.2 c -17.2,-17.2 -31.6,-31.3 -32.1,-31.2 -0.4,0.1 -13.3,12.7 -28.5,28.1 z"/>
<path d="M 262.6,161.4 c -15.9,16 -29.1,29.7 -29.4,30.4 -0.3,1 56.7,59.2 58.2,59.2 0.9,0 59.6,-59.2 59.6,-60.2 0,-1.3 -57.6,-58.8 -58.7,-58.7 -0.4,0.1 -13.8,13.2 -29.7,29.3 z"/>
<path d="M 58.8,167.2 c -12.6,12.6 -22.8,23.2 -22.8,23.4 0,0.8 45.7,46.4 46.4,46.4 0.3,0 0.6,-20.9 0.6,-46.5 0,-25.6 -0.3,-46.5 -0.7,-46.4 -0.5,0.1 -11,10.5 -23.5,23.1 z"/>
<path d="M 165,258.9 c -20.3,20.5 -27.6,28.5 -27.8,30.4 -0.3,2.4 3.3,6.3 27.6,30.7 15.4,15.4 28.5,28 29,28 0.9,0 58.2,-56.6 58.2,-57.5 0,-0.4 -59.1,-59.5 -59.3,-59.4 -0.1,0.1 -12.6,12.6 -27.7,27.8 z"/>
</svg>
