<svg xmlns="http://www.w3.org/2000/svg" viewBox="0 0 384 384">
<path d="M 72.7,11.1 c -2,1.1 -4.9,3.8 -6.5,6.1 -2.6,4 -2.7,4.8 -3.2,20.2 l -0.5,16.1 -17,0.5 c -15.8,0.5 -17.2,0.7 -20.3,2.8 -5.9,4.3 -7.2,8.4 -7.2,23.1 0,14 0.7,17.1 4.8,21.5 4.6,4.9 7.7,5.6 24.7,5.6 l 15.5,0 0,13.7 c 0,15.7 0.9,20 5,24.7 4.7,5.3 7,5.8 24.1,5.4 14.2,-0.3 15.6,-0.5 18.7,-2.6 5.8,-4.2 6.6,-7 7.2,-24.7 l 0.5,-16 16.5,-0.5 c 18.4,-0.6 21.4,-1.5 25.7,-8 2.1,-3.1 2.3,-4.4 2.3,-18.5 0,-14.2 -0.2,-15.4 -2.3,-18.6 -1.2,-1.8 -3.8,-4.4 -5.6,-5.6 -3.2,-2.2 -4.4,-2.3 -19.6,-2.3 -13.9,0 -16.4,-0.2 -16.9,-1.6 -0.3,-0.9 -0.6,-7.8 -0.6,-15.4 0,-14.9 -0.6,-17.9 -4.8,-22.4 -4.5,-4.8 -7.8,-5.6 -22.9,-5.6 -11.8,0.1 -14.4,0.4 -17.6,2.1 z m 33.9,9 c 1.7,1.9 2,4.3 2.4,21.8 l 0.5,19.6 20.2,0.5 c 25.7,0.6 24.6,-0.1 25.1,16.6 0.2,7 -0.1,12.6 -0.7,14.3 -2.2,5.1 -4,5.6 -25.1,6.1 l -19.5,0.5 -0.3,19.2 -0.2,19.2 -3.1,2.5 c -2.9,2.5 -3.6,2.6 -15.4,2.6 -11.6,0 -12.6,-0.1 -15.2,-2.4 l -2.8,-2.4 -0.3,-19.6 -0.3,-19.6 -17.2,0 c -9.5,0 -18.9,-0.5 -20.9,-1 -6.1,-1.7 -6.8,-3.7 -6.8,-18 0.1,-18.3 -0.3,-18 25.9,-18 l 19.1,0 0,-18.9 c 0,-18.9 0,-19 2.6,-22 l 2.6,-3.1 13.7,0 c 12.7,0 13.9,0.2 15.7,2.1 z"/>
<path d="M 253.2,33.5 c -12.1,3.4 -18,8.9 -23.7,22.1 l -3.5,8.2 0,28.1 0,28.1 38.5,0 38.5,0 0,-28.8 0,-28.7 -2.9,-6 c -3.9,-8.3 -12.8,-17.7 -19.9,-21.1 -7,-3.3 -19,-4.2 -27,-1.9 z m -5.4,17.7 c 2,2 1.5,7.6 -0.7,8.8 -4.6,2.4 -9.1,0 -9.1,-4.9 0,-3.5 1.7,-5.1 5.5,-5.1 1.7,0 3.6,0.5 4.3,1.2 z m 20.6,-0.6 c 1.9,0.7 2.2,7.4 0.4,9.2 -3.1,3.1 -9.8,0.1 -9.8,-4.4 0,-4.3 4.6,-6.6 9.4,-4.8 z m 21.4,0.6 c 0.7,0.7 1.2,2.6 1.2,4.3 0,3.8 -1.6,5.5 -5.1,5.5 -3.5,0 -5.9,-2.4 -5.9,-5.9 0,-3.5 1.7,-5.1 5.5,-5.1 1.7,0 3.6,0.5 4.3,1.2 z m -43,17.4 c 2.9,2 3.1,7.9 0.3,9.4 -4.7,2.5 -9.1,0 -9.1,-5 0,-2.8 3,-6 5.5,-6 0.6,0 2.1,0.7 3.3,1.6 z m 20.6,-0.6 c 2.2,0.8 2.6,1.6 2.6,4.8 0,4.5 -1.4,6.2 -5.1,6.2 -3,0 -5.9,-3.1 -5.9,-6.2 0,-1.9 3.3,-5.8 4.9,-5.8 0.5,0 2.1,0.4 3.5,1 z m 22.4,1.8 c 2.9,3.7 0.3,9.2 -4.3,9.2 -3.2,0 -5.5,-2.5 -5.5,-6 0,-5.3 6.4,-7.4 9.8,-3.2 z m -42,17.5 c 1.7,1.3 1.5,6.2 -0.4,8.1 -1.9,2 -6.8,2.1 -8.3,0.2 -0.7,-0.8 -1.1,-3 -0.9,-4.8 0.5,-5 5.3,-6.8 9.6,-3.5 z m 22,3.1 c 0.4,4.6 -1.1,6.6 -4.9,6.6 -5.7,0 -7.9,-9 -2.6,-10.9 1.2,-0.4 3.3,-0.5 4.7,-0.1 2,0.5 2.6,1.3 2.8,4.4 z m 20,-3.1 c 1.7,1.3 1.5,5.7 -0.5,7.9 -1.9,2.2 -6.6,2.4 -8.2,0.4 -0.7,-0.8 -1.1,-3 -0.9,-4.8 0.5,-5 5.3,-6.8 9.6,-3.5 z m -42.7,16.7 c 2.4,1.3 2.6,6.6 0.2,9.2 -3.4,3.7 -9.3,1.2 -9.3,-3.9 0,-5.1 4.5,-7.7 9.1,-5.3 z m 21,0 c 1.4,0.8 1.9,2.1 1.9,5 0,4 -1.8,6 -5.4,6 -2.2,0 -5.6,-3.6 -5.6,-6 0,-2.4 3.4,-6 5.6,-6 0.8,0 2.4,0.5 3.5,1 z m 21,0 c 2.4,1.3 2.6,6.6 0.2,9.2 -3.4,3.7 -9.3,1.2 -9.3,-3.9 0,-5.1 4.5,-7.7 9.1,-5.3 z"/>
<path d="M 189.9,124.5 c -2,1.3 -4,3.2 -4.4,4.2 -3.4,8.4 -2.4,13.3 3.8,18.9 l 4.2,3.8 0.5,31.6 0.5,31.5 3.8,7.7 c 6.9,14.1 18.8,21.2 40.8,24.1 l 9.4,1.3 0,6.4 c 0,6.5 0,6.5 -3,6.8 -1.6,0.1 -7.8,1.2 -13.8,2.3 -25.1,4.6 -47.6,15.1 -63.6,29.5 -7,6.3 -15.3,16.3 -14.6,17.5 0.7,1 218.3,1.3 220.9,0.3 2.5,-1 -0.2,-5 -8.7,-13.1 -14.3,-13.6 -29.3,-22.5 -48.2,-28.9 -11,-3.7 -27.7,-7.4 -33.1,-7.4 -3.9,0 -4.7,-1.8 -4.2,-9.1 l 0.3,-4.4 7.9,-0.7 c 22.2,-2 36.7,-11.3 43.2,-27.9 l 2.9,-7.4 0.3,-30.2 0.3,-30.1 3.5,-2.7 c 6.3,-4.8 8.1,-12.1 4.8,-19.1 -2.6,-5.5 -7.3,-7.7 -15.1,-7.2 -6.4,0.4 -6.8,0.6 -10.3,4.7 -3.6,4.1 -3.8,4.2 -9,3.9 -4.8,-0.3 -5.5,-0.6 -6,-2.8 l -0.6,-2.5 -38.4,0 -38.5,0 -0.3,2.7 c -0.3,2.7 -0.6,2.8 -5.7,2.8 -4.6,0 -5.6,-0.4 -7.7,-2.8 -4.1,-4.9 -6.9,-6.2 -12.8,-6.2 -4.2,0 -6.4,0.6 -9.1,2.5 z m 35.1,40.7 c 0,20.6 0.2,22.9 2.4,29.9 1.3,4.1 2.9,8.6 3.6,9.9 1.9,3.6 9,10.9 13.8,14.2 l 4.3,3 -0.3,6.6 -0.3,6.7 -6.5,-0.3 c -8.7,-0.5 -14.4,-1.8 -20.5,-4.8 -6.4,-3.3 -9.2,-5.8 -12,-11.4 -3.8,-7.6 -4.5,-13.7 -4.5,-41.2 l 0,-26.1 4.3,-4.3 c 3.9,-3.9 4.6,-4.2 10,-4.3 l 5.7,-0.1 0,22.2 z m 94.3,-17.8 l 4.7,4.3 0,25.5 c 0,14.1 -0.5,27.9 -1,30.8 -2.2,11.4 -9.2,20.1 -19.5,23.9 -5.7,2.1 -20.9,4.6 -22.5,3.6 -0.6,-0.3 -1,-3.5 -1,-7 l 0,-6.5 5.3,-3.5 c 5.6,-3.7 10.9,-10 14.8,-17.5 2.3,-4.3 2.4,-5.4 2.7,-31.3 l 0.3,-26.7 5.8,0 c 5.4,0 6,0.3 10.4,4.4 z"/>
<path d="M 45.1,225.9 c -2.1,3.8 0.1,5.6 9.5,8.1 11.8,3.1 13.7,5 16.8,16.8 2,7.5 2.3,9.9 1.4,12.5 -1.4,4.1 -9.9,13 -15.4,15.9 l -4.3,2.2 -8.3,-2.1 c -15.2,-3.9 -15.4,-4.1 -19.2,-17.3 -3,-10 -5.3,-12.2 -9.1,-8.3 -1.4,1.4 -1.6,3 -1.3,8.5 0.9,12.1 8.7,23.5 20.2,29.6 4.8,2.5 5.9,2.7 18.3,2.7 l 13.3,0 5.7,5.8 5.8,5.8 -3.7,3.4 c -2.1,2 -4.8,3.5 -6.2,3.5 -1.7,0 -7.4,4.9 -21,18.2 -10.3,9.9 -19.4,19.4 -20.2,21 -3.4,6.5 -1.1,15.2 4.9,18.8 4,2.5 12.3,2.7 15.7,0.4 4.9,-3.3 39,-37.9 39,-39.6 0,-1 1.6,-3.6 3.6,-5.8 l 3.6,-4 22.5,21.8 c 12.4,11.9 23.8,22.5 25.4,23.6 2.2,1.4 4.2,1.7 7.8,1.4 6.3,-0.6 10.5,-3.7 12.7,-9.3 3,-8 2.2,-9.3 -23.1,-34.5 -12.4,-12.4 -22.5,-23 -22.5,-23.7 0,-0.7 1,-1.3 2.3,-1.3 3,0 6.7,-3.9 6.7,-7.2 0,-1.4 -1,-3.8 -2.1,-5.2 l -2.2,-2.8 20.8,-20.1 c 11.4,-11.1 21.6,-20.3 22.6,-20.5 1.8,-0.3 12.9,-11.6 12.9,-13.1 0,-0.4 -1.5,-2.2 -3.4,-4 -3.9,-3.7 -3.3,-3.9 -11.9,3.4 -2.6,2.1 -4.7,4.6 -4.7,5.5 0,0.8 -9.4,10.9 -20.9,22.4 l -20.9,20.9 -3,-2.2 c -1.7,-1.1 -4.1,-2.1 -5.4,-2.1 -2.7,0 -7.8,4.7 -7.8,7.2 0,3.4 -1.8,2.6 -7.8,-3.5 l -6.2,-6.2 1.1,-4 c 1.6,-5.8 0.6,-18.1 -1.9,-23.7 -2.8,-6.5 -10,-13.9 -16.8,-17.3 -4.5,-2.3 -7.4,-3 -13.9,-3.3 -7.7,-0.4 -8.4,-0.3 -9.4,1.7 z m 105.5,123.2 c 6,5.8 7.2,9.9 3.3,11.9 -3.2,1.8 -6.2,0.5 -11.2,-4.9 -5.2,-5.6 -5.6,-7.2 -2.7,-10.1 3,-3 4.6,-2.5 10.6,3.1 z"/>
</svg>
