<svg xmlns="http://www.w3.org/2000/svg" viewBox="0 0 384 384">
<path d="M 149.5,17.5 l -2.5,2.4 0,67.8 0,67.8 -22.2,0 c -21.5,0 -22.6,0.2 -31.3,2.8 -31.3,9.6 -55.3,29.8 -69,58.1 -8.6,17.8 -10,24.4 -10,47.6 0,23.2 1.4,29.8 10,47.6 13.8,28.4 38,48.8 69,58 7.7,2.3 11.4,2.7 25.5,3.1 18.4,0.6 26.6,-0.3 38.6,-4.2 17.2,-5.7 31.5,-14.5 44.4,-27.4 16,-16.1 25.5,-33.7 30.1,-55.9 2.3,-11.4 2.5,-30.6 0.4,-40.2 -0.8,-3.6 -1.4,-6.8 -1.5,-7.3 0,-0.4 20.9,-0.7 46.4,-0.7 45.4,0 46.4,0 49,-2.1 l 2.6,-2 0,-40.2 0,-40.1 22.4,-22.6 22.4,-22.5 0.7,-5.6 c 0.8,-6.7 -0.1,-7.4 -7.3,-5.8 -4.4,0.9 -6.2,2.4 -20.7,16.9 -8.7,8.7 -16.2,15.7 -16.7,15.4 -0.4,-0.3 -0.8,-25 -0.8,-54.9 l 0,-54.4 -2.6,-2 c -2.7,-2.1 -3.2,-2.1 -88.6,-2.1 l -85.9,0 -2.4,2.5 z m 163.9,14.1 c 0.3,0.9 0.6,26.8 0.6,57.6 l 0,56.1 -12,12.2 c -9.2,9.4 -12,12.9 -12,14.9 0,1.6 -1.4,4.2 -3.7,6.7 -2.9,3.2 -3.5,4.4 -2.6,5.7 1.8,2.9 5.6,2.6 8.8,-0.8 1.6,-1.7 3.9,-3 5.3,-3 1.5,0 4.5,-2.1 8.6,-6 3.5,-3.3 6.6,-5.7 6.9,-5.3 0.9,0.8 0.9,48.6 0.1,50.7 -0.5,1.4 -5.3,1.6 -43.3,1.6 -23.4,0 -43.1,-0.4 -43.7,-0.8 -0.6,-0.4 -2.6,-3.6 -4.3,-7.1 -5.2,-10.2 -10.9,-18 -20.1,-27.2 -9.6,-9.7 -17,-14.9 -30.3,-21.7 l -9.2,-4.7 -0.3,-63.9 c -0.1,-46.3 0.1,-64.3 0.9,-65.2 0.9,-1.2 14,-1.4 75.4,-1.4 66.8,0 74.3,0.2 74.9,1.6 z m -179.3,139.4 c 5.2,0.5 10.3,1.2 11.2,1.6 1.5,0.6 1.7,3.3 1.7,29.9 0,27.3 0.1,29.4 1.9,31.6 l 1.9,2.4 31.8,0.5 31.8,0.5 1.8,7.5 c 5.5,24 -1.2,54.2 -16.8,74.9 -26.4,35.2 -75.5,47.6 -115,29.1 -26.5,-12.3 -45.8,-35.6 -52.4,-63.1 -2.8,-11.7 -2.8,-32.1 0,-43.8 9.1,-37.8 42.6,-67.3 81,-71.1 10.7,-1 10.6,-1 21.1,0 z m 38.9,13.2 c 5.3,3.2 11.9,8.6 17.6,14.2 8.9,9 17.1,20.6 15.9,22.6 -0.9,1.5 -41.8,1.3 -43.3,-0.2 -1.8,-1.8 -1.7,-41.8 0.1,-41.8 0.7,0 5.1,2.3 9.7,5.2 z"/>
<path d="M 179.7,56.7 c -1.4,1.3 -0.6,5.3 1.2,6.3 1.3,0.6 21.3,1 58,1 49.5,0 56.1,-0.2 57.5,-1.6 1.9,-1.8 1.9,-2 0.6,-4.5 -1,-1.8 -2.7,-1.9 -58.9,-1.9 -31.8,0 -58.1,0.3 -58.4,0.7 z"/>
<path d="M 179.7,78.7 c -1.1,1.1 -0.8,4.8 0.5,6.1 0.9,0.9 15.1,1.2 57.9,1.2 50.3,0 56.9,-0.2 58.3,-1.6 1.9,-1.8 1.9,-2 0.6,-4.5 -1,-1.8 -2.7,-1.9 -58.9,-1.9 -31.8,0 -58.1,0.3 -58.4,0.7 z"/>
<path d="M 180.3,100.7 c -1.9,0.7 -1.6,6 0.3,6.7 0.9,0.3 26.9,0.6 57.9,0.6 49.9,0 56.5,-0.2 57.9,-1.6 1.9,-1.8 1.9,-2 0.6,-4.5 -1,-1.8 -2.7,-1.9 -58.3,-1.8 -31.5,0 -57.8,0.3 -58.4,0.6 z"/>
<path d="M 180.3,122.7 c -1.9,0.7 -1.6,6 0.3,6.7 0.9,0.3 26.9,0.6 57.9,0.6 49.9,0 56.5,-0.2 57.9,-1.6 2,-1.9 2,-2.9 0,-4.8 -1.4,-1.4 -8,-1.6 -58.2,-1.5 -31.2,0 -57.3,0.3 -57.9,0.6 z"/>
<path d="M 180.3,144.7 c -0.7,0.2 -1.3,1.8 -1.3,3.4 0,2.1 0.6,3 2.3,3.4 1.2,0.3 13,0.4 26.1,0.3 21.5,-0.3 24,-0.5 25,-2.1 0.8,-1.2 0.8,-2.2 0,-3.5 -1,-1.5 -3.5,-1.7 -26,-1.9 -13.7,-0.1 -25.5,0.1 -26.1,0.4 z"/>
<path d="M 257.6,189.6 c -1.9,1.9 -2,3.6 -0.4,5.2 1.3,1.3 20.2,1.7 23.2,0.6 2.2,-0.9 2,-5.1 -0.3,-6.4 -1.1,-0.5 -6.2,-1 -11.5,-1 -7.3,0 -9.8,0.4 -11,1.6 z"/>
<path d="M 123.5,212.5 c -4.5,4.4 -2.5,12.5 3.2,12.5 2.6,0 6.1,-3.9 6.9,-7.7 0.5,-2.4 0.1,-3.6 -1.5,-5.2 -2.8,-2.8 -5.6,-2.7 -8.6,0.4 z"/>
<path d="M 118.5,238 c -1,1.6 -6.4,28.2 -8.7,42.5 -3.2,20.9 -1.6,33.8 4.7,36.7 5.6,2.6 12.4,-2.6 18.3,-14 4.9,-9.5 11.4,-26.1 10.6,-27.3 -1.5,-2.5 -3.5,0 -7.4,9.3 -8.8,20.9 -13.9,27.2 -18,22.3 -2.4,-2.9 1.1,-28.2 8.5,-62 0.8,-3.8 1.5,-7.3 1.5,-7.7 0,-1.2 -8.8,-0.9 -9.5,0.2 z"/>
<path d="M 355.8,130.7 c -9.3,9.3 -17.1,17.9 -17.5,19.1 -0.7,3 1.7,5.6 4.4,4.8 3.3,-1.1 35.3,-34.1 35.3,-36.4 0,-1.9 -2.6,-4.2 -4.6,-4.2 -0.4,0 -8.4,7.5 -17.6,16.7 z"/>
</svg>
