<svg xmlns="http://www.w3.org/2000/svg" viewBox="0 0 384 384">
<path d="M 141.5,42.6 c -1.1,0.2 -21.9,1.1 -46.2,1.9 -54.1,1.9 -57.5,2.4 -64,9.8 -4.1,4.7 -4.9,9 -7,36 -2.5,32.3 -2.4,136.7 0.1,168.7 1.9,24.9 2.4,27.9 6,33.1 5.6,8.2 11.5,9.2 67.6,10.9 18.4,0.5 39.2,1.2 46.3,1.4 l 12.7,0.5 0,-58.5 0,-58.4 -25.9,0 c -26.3,0 -31.1,-0.6 -31.1,-3.6 0,-1.8 84.5,-86.9 89.2,-89.9 2.2,-1.3 3.1,-1.4 5,-0.4 3.3,1.6 90.8,89.1 90.8,90.6 0,2.7 -5.7,3.3 -31.6,3.3 l -26.4,0 0,58.4 0,58.4 13.8,-0.4 c 7.5,-0.2 28.6,-0.9 46.7,-1.4 42.9,-1.3 53.6,-2.3 59.5,-5.3 4.9,-2.5 8.5,-7 10,-12.6 6.5,-24.4 6.4,-196.6 -0.1,-222.7 -1.5,-6 -7.8,-12.8 -13.4,-14.3 -10.3,-2.8 -78,-5.4 -149,-5.7 -28,-0.1 -51.9,0 -53,0.2 z"/>
<path d="M 25.4,312.2 c 0.3,1.2 0.8,4.4 1.1,6.9 1.1,9 7.9,16.1 17.1,17.9 2.7,0.5 17.7,1.4 33.4,2 15.7,0.6 36.8,1.5 47,2 46,2.1 195.9,-0.6 215.4,-3.9 7.8,-1.4 12.7,-4.7 15.5,-10.5 2.3,-5 4.6,-14.4 3.8,-15.3 -0.3,-0.3 -3,0.7 -6,2.1 -7,3.5 -13.6,4.4 -39.2,5.6 -55.7,2.6 -121.1,3.4 -171.7,2.2 -56.2,-1.4 -89.4,-2.8 -98.1,-4.2 -4.8,-0.7 -9.2,-2.4 -18,-6.8 -0.4,-0.2 -0.6,0.7 -0.3,2 z"/>
</svg>
