<svg xmlns="http://www.w3.org/2000/svg" viewBox="0 0 384 384">
<path d="M 173.7,28.6 c -0.4,0.4 -0.7,3 -0.7,5.8 0,6.3 -0.6,7.1 -5,8 -1.9,0.3 -7.5,2.5 -12.3,4.8 l -8.8,4.2 -4.7,-4.7 c -2.6,-2.6 -5.2,-4.7 -5.8,-4.7 -0.5,0 -5.9,4.9 -11.9,11 l -10.9,11 5.2,5.3 5.3,5.3 -3.1,6 c -1.7,3.2 -4.1,9 -5.5,12.9 l -2.4,7 -7.1,0.3 -7,0.3 0.2,16.2 0.3,16.2 7,0.3 c 7,0.3 8.5,1.1 8.5,4.5 0,1 2.1,6.1 4.6,11.4 l 4.5,9.6 -4.8,4.9 -4.7,4.8 11.4,11.5 11.5,11.5 5,-5 5,-5 6,3.2 c 3.3,1.7 8.9,4.2 12.5,5.4 l 6.5,2.3 0.5,5.8 0.5,5.8 15.5,0 15.5,0 0.5,-5.7 c 0.3,-3.1 0.7,-5.8 1,-6 0.3,-0.2 2.8,-0.9 5.5,-1.6 2.8,-0.7 8.5,-2.9 12.8,-4.9 l 7.8,-3.6 4.2,4.1 c 2.4,2.3 4.7,4.2 5.3,4.2 0.5,0 5.9,-4.9 11.9,-11 l 10.9,-11 -4.2,-4.3 c -2.3,-2.3 -4.2,-4.8 -4.2,-5.3 0,-0.6 1.6,-4.1 3.5,-7.8 1.9,-3.7 4.2,-9.1 5,-12.1 l 1.6,-5.4 6.7,-0.3 6.7,-0.3 0,-16 0,-16 -6.4,-0.5 -6.4,-0.5 -1.9,-6 c -1,-3.3 -3.5,-9.3 -5.5,-13.3 l -3.6,-7.3 4.9,-5 4.8,-4.9 -10.9,-11 c -6,-6.1 -11.4,-11 -11.9,-11 -0.6,0 -3.1,2.1 -5.7,4.6 l -4.6,4.6 -8.5,-4.1 c -4.6,-2.2 -9.9,-4.4 -11.8,-4.7 -6.2,-1.2 -6.9,-1.9 -7.2,-8.2 l -0.3,-5.7 -15.1,-0.3 c -8.2,-0.1 -15.3,0.1 -15.7,0.4 z m 26.8,34.5 c 7.7,1.4 17.5,5.9 24.3,11.1 13.9,10.7 22.7,31.9 20.2,48.3 -3.6,23 -16.3,38.5 -37.8,46.1 -9.6,3.4 -25.3,3.4 -34.6,0 -23.6,-8.5 -37.6,-27.9 -37.6,-52 0,-34.5 31.1,-59.9 65.5,-53.5 z"/>
<path d="M 181,76 c -12.2,2.6 -24.5,12.4 -29.8,23.7 -2.4,5.2 -2.7,6.9 -2.7,17.3 0,10.6 0.2,12 2.8,17.2 5.4,10.9 13.8,18.2 26.1,22.3 3.6,1.2 7.4,1.6 14,1.3 8,-0.3 10,-0.7 16.1,-3.7 8.6,-4.3 16.1,-11.6 20.1,-19.6 2.7,-5.6 2.9,-6.8 2.9,-17.5 0,-11 -0.2,-11.9 -3.2,-18.1 -8.3,-16.8 -28.2,-26.7 -46.3,-22.9 z m 21.8,16.4 c 20.7,10.5 19,42.7 -2.7,50.1 -6.7,2.3 -17.5,2 -22.9,-0.6 -8.4,-4.1 -13.5,-10.8 -15.2,-20.1 -2.6,-13.5 5.1,-26.3 18.7,-31.4 5.5,-2.1 15.9,-1.2 22.1,2 z"/>
<path d="M 183.5,103.4 c -1.7,0.7 -4.3,2.8 -5.8,4.5 -2.2,2.6 -2.7,4.3 -2.7,8.4 0,8.9 5.6,14.7 14.3,14.7 9.4,0 14.7,-5.3 14.7,-14.9 0,-5 -0.3,-5.7 -3.9,-9.1 -5.2,-4.9 -10.8,-6.1 -16.6,-3.6 z"/>
<path d="M 123.5,198.5 c -20,9.9 -34.8,25.1 -40.4,41.7 -2,5.9 -2.1,8.1 -2.1,54.4 l 0,48.2 6.8,2.5 c 9.6,3.6 16.7,4.8 46.1,7.8 14.2,1.4 109.4,0.7 122.1,-1 15.6,-2.1 30.2,-5.1 35.8,-7.4 l 5.3,-2.1 -0.3,-49.1 -0.3,-49 -3.3,-7.4 c -6.8,-15.6 -20.6,-29.2 -38.9,-38.5 -2.9,-1.4 -5.7,-2.6 -6.2,-2.6 -0.5,0 -8.3,12.3 -17.2,27.2 -8.9,15 -19.2,32.2 -22.7,38.1 -3.5,5.9 -6.6,10.6 -6.9,10.3 -0.2,-0.2 -0.8,-3 -1.3,-6.2 -0.5,-3.3 -1.6,-10.6 -2.5,-16.3 -1.6,-10.2 -1.6,-10.4 0.5,-12.6 5.8,-6.1 4.1,-17.3 -3.1,-21.1 -6.6,-3.4 -15.1,-0.6 -18.2,5.9 -2.8,5.8 -2.1,10.3 2.5,15.3 1.8,2 1.8,2.8 0.9,9 -0.8,5.4 -3.8,23.8 -4.1,25.1 -0.1,0.8 -2,0.1 -2,-0.7 0,-0.5 -1.5,-3.4 -3.4,-6.3 -1.9,-2.9 -4.4,-7 -5.5,-9 -2.8,-5 -23.2,-39.2 -29.5,-49.6 -2.9,-4.7 -5.6,-8.6 -6.1,-8.8 -0.6,-0.1 -3.2,0.8 -6,2.2 z"/>
</svg>
