<svg xmlns="http://www.w3.org/2000/svg" viewBox="0 0 384 384">
<path d="M 286.5,26.6 c -4.4,0.8 -8.9,1.6 -10,1.8 -1.1,0.2 -3.8,0.7 -6,1.1 -2.2,0.4 -4.4,1.1 -5,1.5 -0.5,0.5 -2.8,1.2 -5,1.6 -2.2,0.4 -3.5,0.9 -2.8,1.1 1,0.4 9.8,-1.6 24.8,-5.4 1.1,-0.3 7.9,-0.8 15,-1.1 10,-0.4 12.1,-0.7 9,-1.3 -5.4,-1.1 -10.5,-0.9 -20,0.7 z"/>
<path d="M 312.9,28.1 c 1.5,0.6 2.1,1.3 1.5,1.9 -0.5,0.5 -10.6,3.6 -22.4,6.9 -11.8,3.3 -31.5,8.9 -43.7,12.4 -12.2,3.5 -22.7,6.1 -23.2,5.8 -0.5,-0.3 -1.1,-1.7 -1.2,-3.1 -0.3,-1.8 0.2,-2.8 1.9,-3.5 1.2,-0.5 2.2,-1.3 2.2,-1.7 0,-0.9 -3.6,0.6 -11,4.7 -3,1.6 -6.7,3.6 -8.2,4.4 -1.6,0.8 -2.8,1.8 -2.8,2.3 0,0.5 -0.4,0.7 -0.9,0.4 -0.9,-0.6 -7.2,1.2 -8.1,2.3 -0.3,0.3 -0.9,0.6 -1.5,0.7 -0.5,0 -2.5,0.4 -4.3,0.9 -3,0.7 -3.1,0.9 -1.5,2.1 1.5,1.1 1.5,1.3 0.3,1.4 -0.9,0 -2,-0.4 -2.5,-0.9 -1.1,-1.1 -8.5,0.9 -8.5,2.3 0,0.4 0.8,0.5 1.8,0.1 1.3,-0.5 1.4,-0.3 0.6,0.5 -0.9,0.9 -1.7,0.8 -3.3,-0.2 -1.9,-1.1 -2.8,-0.9 -7.6,1.7 -8,4.3 -13.6,10.6 -19.5,22 -4.5,8.8 -6.7,11.6 -17.5,22.5 -6.8,6.9 -15,15.6 -18.3,19.5 -6.4,7.6 -17.2,23.2 -17.2,24.9 0,0.6 0.8,-0.1 1.7,-1.4 4,-6 13.1,-18 17.6,-23.3 2.7,-3.1 4.7,-5.7 4.4,-5.7 -0.2,0 3.8,-4.1 8.9,-9.2 5.2,-5 9.6,-8.9 9.9,-8.7 0.3,0.3 -2.7,6.6 -6.6,14 -3.9,7.4 -9.8,18.6 -13.1,24.9 -6.8,13 -11.4,21.7 -21.4,40.5 -3.8,7.1 -8.3,15.7 -9.9,18.9 -1.7,3.3 -3.6,6.1 -4.2,6.3 -1.6,0.6 -2.7,-7.7 -2,-15.4 0.7,-6.9 3.4,-18.2 4.8,-19.8 1.1,-1.2 1.1,-2.5 0.1,-2.5 -0.5,0 -2.4,4.4 -4.2,9.7 -3.1,8.8 -3.4,10.9 -3.4,20.8 -0.1,9.8 0.2,11.6 2.5,16.5 6.9,14.7 23.8,23 44.4,21.6 18.8,-1.2 39.5,-7.1 63.3,-18.2 4.1,-1.9 7.8,-3.4 8.4,-3.4 0.7,0 0.8,2.3 0.4,6.3 -0.3,3.4 -0.9,12 -1.2,19.2 -0.6,11.6 -0.9,13.3 -3,15.8 -10.5,12.6 5.2,25.9 34,28.8 24.9,2.4 48.8,-2.8 57.3,-12.5 5.8,-6.5 5.3,-11.8 -1.7,-18.6 -2.5,-2.5 -4,-4.8 -4,-6.4 0,-1.3 -0.4,-4.6 -0.9,-7.3 -0.6,-2.6 -1.7,-9.3 -2.6,-14.8 -0.8,-5.5 -2.9,-18.1 -4.4,-28 -1.6,-9.9 -3.2,-20.5 -3.6,-23.6 l -0.6,-5.6 6.8,-5.9 c 27.4,-23.7 50.5,-51.7 61.4,-74.4 6,-12.5 7.9,-20.2 7.9,-32.4 0,-10.6 -0.2,-11.7 -3.1,-17.4 -1.7,-3.5 -5,-7.8 -7.5,-10.1 -4.7,-4.2 -17.6,-10.1 -21.6,-10 l -2.3,0 2.4,1 z m 15.7,7.6 c 7.7,5.7 11,18.8 8.4,33 -8.3,44.8 -72.2,110.2 -142.1,145.3 -15.8,8 -28.6,12.9 -45.9,17.7 -8.5,2.4 -11.3,2.7 -26,2.7 l -16.5,0.1 -6.6,-3.3 c -6.6,-3.2 -13.5,-9.5 -12.4,-11.3 0.4,-0.5 3.9,-0.9 7.9,-0.9 6.7,0 17.1,-2.1 27.1,-5.5 5.7,-1.9 17.6,-6.3 20,-7.4 29.1,-13.4 44.1,-21.5 64.5,-34.6 3.9,-2.5 8.2,-4.4 10.7,-4.7 9,-1.2 21.2,-9.3 24.8,-16.4 1.1,-2.2 5,-6.9 8.6,-10.5 9,-8.9 32.9,-39.6 37.9,-48.7 0.9,-1.5 3.8,-6.8 6.6,-11.7 5.6,-10 15.7,-30.4 19.9,-40.5 1.5,-3.6 3.2,-7 3.7,-7.7 1,-1.3 2.8,-0.5 9.4,4.4 z m -16.5,1.5 c -3.2,8.3 -14.6,31.4 -21.6,43.8 -8.9,15.8 -27,40.4 -38.7,52.6 -6.4,6.7 -8.5,8.2 -11.6,8.7 -2,0.3 -4.5,0.8 -5.4,1.2 -1.7,0.7 -1.8,-0.4 -1.8,-14.1 0,-16.7 -1,-27.1 -5,-51.9 -1.5,-9.4 -2.5,-17.3 -2.1,-17.6 0.5,-0.6 57.5,-16.9 78.6,-22.5 5.3,-1.4 7.4,-2 8.2,-2.3 0.1,-0.1 -0.1,0.9 -0.6,2.1 z m -91.8,17.2 c 0.3,0.8 0,1.9 -0.6,2.4 -1.7,1.3 -14.5,5.1 -15.2,4.4 -0.8,-0.9 11.6,-8.1 14.1,-8.2 0.7,0 1.4,0.6 1.7,1.4 z m 2.4,13.6 c 3.9,19 5.5,34.4 6,56 l 0.5,22.5 -5.6,4.3 c -3.1,2.3 -7.1,6.3 -8.9,8.8 -6.9,9.8 -55.1,36.6 -84.7,47.2 -17.9,6.3 -30.7,9.5 -36.4,9 l -3.6,-0.3 2.8,-5.5 c 3.8,-7.4 14.8,-28.3 18.2,-34.5 1.5,-2.8 5,-9.3 7.7,-14.5 7.6,-14.4 15.9,-30.2 22.7,-43 3.4,-6.3 7,-13.2 8.1,-15.3 1.1,-2.1 5.4,-6.6 9.5,-10.1 6.5,-5.4 11.3,-9.1 26.6,-20.2 2.9,-2.1 32.8,-11.5 34.9,-11 0.5,0.1 1.5,3.1 2.2,6.6 z m -26.7,-4.6 c 0,0.2 -0.9,0.6 -2,0.9 -1.1,0.3 -2,0.1 -2,-0.4 0,-0.5 0.9,-0.9 2,-0.9 1.1,0 2,0.2 2,0.4 z m -14,9.4 c 0,1 -4.1,3.5 -4.7,2.8 -0.9,-0.8 1.7,-3.6 3.3,-3.6 0.8,0 1.4,0.3 1.4,0.8 z m -22,16.8 c -4.4,4 -6.3,4 -3.7,0 1.4,-2.1 2.5,-2.7 7,-3.5 0.4,0 -1.1,1.5 -3.3,3.5 z m 104.6,104.5 c 0.8,5.2 1.9,12.1 2.3,15.4 0.5,3.3 1.4,8.7 2,12 1.6,8.8 5.1,31.9 5.1,33.7 0,1.3 -0.8,1.3 -6.7,-0.4 -3.8,-1.1 -11.7,-2.2 -17.8,-2.6 l -11,-0.7 -0.6,-9.5 c -0.4,-5.2 -0.7,-16.6 -0.8,-25.2 l -0.1,-15.7 5.3,-3.5 c 2.8,-1.9 8.4,-5.9 12.2,-8.9 3.9,-3.1 7.4,-5.2 7.8,-4.8 0.4,0.5 1.5,5 2.3,10.2 z m -33.6,33.3 c 0,11.8 0.2,22.1 0.5,22.8 0.4,1.1 -1.8,1.8 -9.2,3.2 -5.4,1 -11.1,2.5 -12.6,3.3 -1.5,0.7 -3.2,1.1 -3.8,0.7 -1.1,-0.6 -0.7,-16.5 0.7,-31.9 0.6,-6.6 -0.1,-5.8 11.4,-12.3 2.5,-1.4 6.1,-3.6 8,-4.9 1.9,-1.2 3.8,-2.3 4.2,-2.3 0.5,0 0.8,9.6 0.8,21.4 z m 1.2,41.1 c 0.4,20.9 0.7,19 -2.8,19.3 -4.5,0.4 -18.1,-3.2 -23.7,-6.3 -4.7,-2.7 -7.7,-5.8 -7.7,-8.1 0,-2.4 5,-7.2 9.7,-9.4 4,-1.9 18.8,-5.7 23.1,-5.9 0.9,-0.1 1.3,2.7 1.4,10.4 z m 29.5,-8.6 c 10.1,2.1 18.6,6.1 21.6,10.2 1.7,2.4 1.8,3 0.6,5.4 -1.6,3.3 -9.7,8.1 -17.1,10.1 -7.6,2.2 -26.1,3.5 -27,2 -0.4,-0.6 -0.8,-7.5 -0.8,-15.4 l 0,-14.2 6.8,0 c 3.7,0 10.8,0.9 15.9,1.9 z"/>
<path d="M 251.8,35.3 c -1.6,0.6 -2.8,1.5 -2.8,2 0,0.5 0.8,0.6 1.8,0.2 0.9,-0.4 2.5,-1 3.5,-1.2 0.9,-0.3 1.7,-0.9 1.7,-1.4 0,-1.1 -0.7,-1 -4.2,0.4 z"/>
<path d="M 243.8,38.7 c -1,0.2 -1.8,0.9 -1.8,1.4 0,1.2 0.3,1.2 3.6,-0.6 2.8,-1.4 1.9,-1.8 -1.8,-0.8 z"/>
<path d="M 234.3,42.8 c -2.9,1.4 -5.3,3 -5.3,3.4 0,0.5 0.8,0.4 1.8,-0.1 0.9,-0.5 3.6,-1.8 5.9,-2.8 2.3,-1 4.3,-2.1 4.3,-2.6 0,-1.1 -1.1,-0.8 -6.7,2.1 z"/>
<path d="M 93.3,165.2 c -4,7.7 -5.3,10.8 -4.5,10.8 1.1,0 9.2,-16 8.1,-16 -0.5,0 -2.1,2.4 -3.6,5.2 z"/>
<path d="M 41.5,323.5 c -4.4,2.5 -7.5,4.5 -7,4.5 0.6,0 0.3,0.5 -0.5,1 -1,0.6 35.2,1 103,0.9 l 104.5,0 -2.8,-2.2 c -1.5,-1.3 -5.6,-3.8 -9,-5.5 l -6.2,-3.2 -87,0 -87,0.1 -8,4.4 z"/>
<path d="M 29.5,332.6 c -1.2,1.2 -1.5,3.1 -1.3,7.3 l 0.3,5.6 108.3,0.3 108.3,0.2 -0.3,-7.2 -0.3,-7.3 -106.7,-0.3 c -97.2,-0.2 -106.8,-0.1 -108.3,1.4 z m 97.3,5.8 c 0.2,1.6 -0.2,3.2 -1,3.7 -1.5,1 -74.8,1.2 -77.2,0.3 -1,-0.4 -1.6,-1.8 -1.6,-4 l 0,-3.4 39.8,0.2 39.7,0.3 0.3,2.9 z m -87.2,-0.9 c 0.7,1.8 -1.3,4.5 -3.3,4.5 -1.7,0 -2.7,-2.4 -1.9,-4.5 0.7,-2 4.5,-1.9 5.2,0 z m 162.1,0.1 c 0.3,0.8 -0.2,2.3 -1.1,3.2 -1.4,1.5 -1.8,1.5 -3.1,0.1 -0.9,-0.9 -1.3,-2.3 -0.9,-3.2 0.8,-2.1 4.3,-2.2 5.1,-0.1 z m 10.7,0.1 c 0.9,2.1 -1.6,4.6 -3.7,3.7 -0.9,-0.3 -1.7,-1.7 -1.7,-3 0,-1.9 0.5,-2.4 2.4,-2.4 1.3,0 2.7,0.8 3,1.7 z m 20.6,2.8 c -1.3,1.5 -9,2.2 -9,0.7 0,-0.4 1.8,-0.6 4,-0.4 3,0.3 4.1,0 4.6,-1.2 0.4,-0.9 0.9,-1.5 1.2,-1.2 0.3,0.3 -0.1,1.2 -0.8,2.1 z"/>
<path d="M 29,349.8 c 0,1 0.5,2.3 1.2,3 0.9,0.9 25.9,1.2 106.3,1.2 111.1,0 109.9,0 108.2,-4.4 -0.6,-1.5 -9.3,-1.6 -108.2,-1.6 -102.9,0 -107.5,0.1 -107.5,1.8 z"/>
</svg>
