<svg xmlns="http://www.w3.org/2000/svg" viewBox="0 0 384 384">
<path d="M 62.5,22.5 l -2.5,2.4 0,86.5 0,86.5 -8.7,0.3 -8.8,0.3 -0.3,9.6 -0.3,9.6 16.7,0.6 c 9.2,0.4 29.9,0.7 46.1,0.7 l 29.3,0 0,64.9 c 0,58.2 0.2,64.9 1.6,65.5 2,0.8 14.8,0.8 16.8,0 1.4,-0.6 1.6,-7.3 1.6,-65.5 0,-64.1 0,-64.9 2,-64.9 2,0 2,0.8 2.2,54.2 l 0.3,54.3 10.8,0.3 10.7,0.3 0,-54.6 0,-54.5 37.3,0 37.3,0 1.8,6.9 c 2.4,9.4 1.5,11.8 -8.2,21.3 -11.4,11.2 -11.6,11.3 -26.2,7.3 -14.2,-3.8 -15.5,-5 -19.1,-18.5 -2.5,-9.3 -4.1,-12 -7.4,-12 -3.5,0 -4.5,2 -4.5,9 0,13.2 6.3,25.4 16.7,32.7 10.7,7.3 20.4,9.5 33.3,7.3 l 7.2,-1.2 6.9,6.8 c 3.8,3.8 6.9,7.4 6.9,8 0,2.2 -7,7.4 -9.8,7.4 -2.2,0 -6.8,4.1 -24.9,22.2 -12.1,12.3 -22.6,23.3 -23.2,24.5 -1.6,3.2 -1.3,11 0.5,14.9 2.2,4.5 6.6,7.6 11.9,8.2 9.8,1.1 10,0.9 34.7,-23.6 13.9,-13.8 22.6,-23.1 22.3,-24 -0.7,-1.8 1.7,-6.1 4.9,-9.1 l 2.6,-2.5 4.3,4 c 2.3,2.1 14.3,13.8 26.7,26 12.4,12.2 23.5,22.7 24.8,23.3 3.3,1.7 11.4,1.6 14.9,-0.3 7.7,-3.9 11,-12.8 7.8,-21.1 -1.3,-3.6 -6.7,-9.3 -27.6,-29.6 -20.5,-20 -25.7,-25.5 -24.8,-26.6 0.6,-0.7 2.1,-1.3 3.3,-1.3 3.2,0 7.6,-5 7.6,-8.5 0,-1.8 -1.1,-4 -2.7,-5.8 l -2.8,-2.9 24.5,-23.9 c 13.5,-13.1 25.2,-23.9 26.2,-23.9 1.8,0 13.8,-12.6 13.8,-14.4 0,-0.7 -1.7,-2.9 -3.9,-5 l -3.8,-3.7 -3.4,2.7 c -6.6,5.3 -11.9,10.8 -11.9,12.4 0,0.8 -10.8,12.3 -23.9,25.4 l -23.9,23.9 -3.2,-2.6 c -4,-3.4 -7.4,-3.4 -11.7,-0.1 -2.4,1.8 -3.3,3.3 -3.3,5.5 0,1.7 -0.5,2.9 -1.3,2.9 -0.8,0 -4.3,-3.1 -7.9,-6.8 l -6.6,-6.8 1.5,-6.5 c 1.4,-6.1 1.3,-13.9 -0.3,-19.7 l -0.6,-2.2 22.7,0 22.7,0 2.9,-2.9 2.9,-2.9 0,-94.2 0,-94.1 -2.5,-2.4 -2.4,-2.5 -127.1,0 -127.1,0 -2.4,2.5 z m 236.4,17.9 c 0.8,1 1,22.6 0.9,79.7 l -0.3,78.4 -20,0.3 -20,0.3 -7.5,-3.8 c -6.7,-3.3 -8.5,-3.8 -16.7,-4.1 -8.6,-0.4 -9.2,-0.3 -10.3,1.8 -0.6,1.2 -1,3.1 -0.7,4.1 0.5,1.8 -0.4,1.9 -21.9,1.9 l -22.4,0 0,-13 0,-13 -46.4,0 c -25.5,0 -47.1,-0.3 -48,-0.6 -1.4,-0.6 -1.6,-7.3 -1.6,-65.8 0,-49.4 0.3,-65.5 1.2,-66.4 1.9,-1.9 212.1,-1.7 213.7,0.2 z m 18.9,73.2 c 2.7,3.1 2.8,5.4 0.2,8.6 -2.5,3.3 -4.9,3.9 -8.8,2.2 -5.4,-2.2 -5.5,-10.4 -0.2,-13.1 3.1,-1.6 5.9,-0.8 8.8,2.3 z m -243.5,4.8 c 0.8,1.9 -1.5,3.7 -3.2,2.6 -1.7,-1 -0.7,-4 1.3,-4 0.7,0 1.6,0.6 1.9,1.4 z m 83.5,78.5 c 0.4,2.3 0.2,2.4 -3.5,1.8 -2.1,-0.4 -18.8,-0.7 -37,-0.7 -28.1,0 -33.3,-0.2 -33.3,-1.4 0,-0.8 0.6,-1.7 1.3,-1.9 0.6,-0.3 17.2,-0.5 36.7,-0.4 l 35.5,0.2 0.3,2.4 z m 188.5,140 c 5.8,5.8 6.8,7.3 6.2,9.3 -0.9,3 -3.3,4.8 -6.2,4.8 -3.4,0 -14.3,-10.8 -14.3,-14 0,-1.4 0.4,-3 0.8,-3.6 0.8,-1.3 4.3,-3.3 5.6,-3.4 0.5,0 4.1,3.1 7.9,6.9 z"/>
<path d="M 310.2,114.9 c -0.8,0.4 -1.2,1.9 -1,3.2 0.2,1.9 0.9,2.4 3.3,2.4 3.3,0 4.5,-2.5 2.5,-5 -1.4,-1.7 -2.9,-1.9 -4.8,-0.6 z"/>
<path d="M 18.7,222.7 c -0.4,0.3 -0.7,34.3 -0.7,75.5 l 0,74.8 56,0 56,0 -0.2,-75.3 -0.3,-75.2 -55.1,-0.3 c -30.3,-0.1 -55.4,0.1 -55.7,0.5 z m 94.3,22.3 c 3.8,2.5 -2.5,3 -39.7,3 -37,0 -40.5,-0.3 -38.8,-3 0.8,-1.3 76.4,-1.3 78.5,0 z m 0.8,15.7 c 0.3,1 -8.1,1.3 -39.7,1.3 -22.1,0 -40.1,-0.4 -40.1,-0.8 0,-0.5 0.3,-1.2 0.7,-1.5 0.4,-0.4 18.2,-0.6 39.6,-0.5 30.2,0.2 39.1,0.6 39.5,1.5 z m -0.3,14.3 c 0,1.3 -5.1,1.5 -39.2,1.8 -38.9,0.2 -39.3,0.2 -39.3,-1.8 0,-2 0.4,-2 39.3,-1.8 34.1,0.3 39.2,0.5 39.2,1.8 z m 0.1,15.1 c 0.3,0.6 0,1.5 -0.7,2 -2,1.2 -77.6,1.2 -78.4,-0.1 -0.3,-0.6 -0.3,-1.5 0,-2 0.9,-1.5 78.2,-1.4 79.1,0.1 z m -0.7,13.8 c 4.2,2.7 -0.8,3.1 -38.8,3.1 -21.3,0 -39,-0.3 -39.4,-0.6 -0.3,-0.3 -0.3,-1.2 0,-2 0.4,-1.2 6.8,-1.4 38.7,-1.4 20.9,0 38.7,0.4 39.5,0.9 z m 0.7,15.2 c 0.3,0.6 0,1.5 -0.7,2 -0.8,0.5 -18.6,0.9 -39.5,0.9 -31.9,0 -38.3,-0.2 -38.7,-1.4 -0.3,-0.8 -0.3,-1.7 0,-2 1.2,-1.2 78.1,-0.7 78.9,0.5 z m 0.2,16.6 c 0.3,1 -8,1.3 -39.2,1.3 -21.7,0 -39.7,-0.4 -40,-0.9 -0.3,-0.4 -0.3,-1.1 0.1,-1.5 0.4,-0.3 18.2,-0.5 39.6,-0.4 30.2,0.2 39.1,0.6 39.5,1.5 z m -29.3,14.3 c 0,1.3 -3.5,1.5 -24.7,1.8 -24.4,0.2 -24.8,0.2 -24.8,-1.8 0,-2 0.4,-2 24.8,-1.8 21.2,0.3 24.7,0.5 24.7,1.8 z"/>
</svg>
