<svg xmlns="http://www.w3.org/2000/svg" viewBox="0 0 384 384">
<path d="M 149.5,17.5 l -2.5,2.4 0,82.9 0,83 -3.7,2.8 c -8,5.9 -26.5,22.8 -33.1,30.2 -13,14.6 -22.4,27.7 -25.8,36.1 -1.8,4.5 -2.9,5.8 -6.6,7.6 -2.8,1.4 -5.6,4.1 -8.3,7.9 -2.2,3.1 -5.1,6.3 -6.5,6.9 -5.9,3 -14.3,6.4 -26.5,10.7 l -13,4.7 -1.2,11.4 c -2.2,21.4 -4.3,43.4 -5,51.8 l -0.6,8.4 9.4,-0.7 c 9.4,-0.7 31.5,-2.6 52.9,-4.7 6.3,-0.6 11.8,-1.6 12.2,-2.2 0.4,-0.6 1,-3.4 1.4,-6.2 2.1,-15.7 13,-37.5 18.7,-37.5 2.2,0 7.4,-5 9.1,-8.8 1.5,-3.4 2.5,-4.2 6.3,-5.2 14.4,-4.1 43.7,-27.7 63.8,-51.4 l 9,-10.6 62.1,0 c 61.3,0 62.2,0 64.8,-2.1 l 2.6,-2 0,-40.2 0,-40.1 22.4,-22.6 22.4,-22.5 0.7,-5.6 c 0.8,-6.7 -0.1,-7.4 -7.3,-5.8 -4.4,0.9 -6.2,2.4 -20.7,16.9 -8.7,8.7 -16.2,15.7 -16.7,15.4 -0.4,-0.3 -0.8,-25 -0.8,-54.9 l 0,-54.4 -2.6,-2 c -2.7,-2.1 -3.2,-2.1 -88.6,-2.1 l -85.9,0 -2.4,2.5 z m 163.9,14.1 c 0.3,0.9 0.6,26.8 0.6,57.6 l 0,56.1 -12,12.2 c -9.2,9.4 -12,12.9 -12,14.9 0,1.6 -1.4,4.2 -3.7,6.7 -2.9,3.2 -3.5,4.4 -2.6,5.7 1.8,2.9 5.6,2.6 8.8,-0.8 1.6,-1.7 3.9,-3 5.3,-3 1.5,0 4.5,-2.1 8.6,-6 3.5,-3.3 6.6,-5.7 6.9,-5.3 0.9,0.8 0.9,48.6 0.1,50.7 -0.5,1.4 -5.9,1.6 -49.9,1.6 -30.3,0 -49.6,-0.4 -50,-1 -0.3,-0.5 2.6,-6.1 6.4,-12.5 16.3,-27.1 18.3,-44.5 6.1,-53.4 l -4.1,-3 4.7,-0.3 c 5.4,-0.3 7.7,-2.6 5.8,-5.6 -1,-1.5 -3.5,-1.7 -25,-2 -13.1,-0.1 -24.9,0 -26.1,0.3 -1.7,0.4 -2.3,1.3 -2.3,3.4 0,1.7 0.6,3.1 1.6,3.5 0.9,0.3 6.6,0.6 12.7,0.6 l 11.2,0 -10.7,4.4 c -6,2.4 -15.3,7.1 -20.7,10.4 -5.5,3.3 -10.2,5.8 -10.5,5.4 -0.3,-0.3 -0.6,-31.9 -0.6,-70.2 0,-52.8 0.3,-69.9 1.2,-70.8 0.9,-0.9 19,-1.2 75.4,-1.2 66.7,0 74.2,0.2 74.8,1.6 z m -94.6,134 c 4.6,3.2 1.9,15 -7.5,32.4 -5.4,10 -12.6,20.4 -15.6,22.5 -2.8,1.9 -30.6,2.2 -32.5,0.3 -0.8,-0.8 -1.2,-5.7 -1.2,-15.6 l 0,-14.5 3.4,-3.2 c 10.3,-9.6 38.2,-23.4 47.6,-23.5 2,0 4.6,0.7 5.8,1.6 z m -71.8,51.9 c 0,14.2 0.1,14.7 2.5,17 2.3,2.4 2.8,2.5 17.5,2.5 8.2,0 15,0.3 15,0.6 0,0.4 -3.3,4.5 -7.2,9.2 -14.8,17.4 -46.8,41.2 -55.5,41.2 -1.4,0 -5.5,-3 -11,-8 -9.7,-8.8 -13.3,-13.3 -13.3,-16.6 0,-4.8 12.5,-23.2 25.1,-36.8 7.2,-7.8 24.6,-23.6 26,-23.6 0.5,0 0.9,6.5 0.9,14.5 z m -48.3,66.8 c 9,9 11.2,11.8 10.7,13.3 -1.2,3.4 -2.6,4.4 -5.8,4.4 -2.9,0 -3.7,0.8 -8.3,7.7 -6.1,9.4 -10.6,19.5 -13,29.2 -2.1,8.3 -0.6,7.6 -18.8,9.1 -7.1,0.5 -15.8,1.3 -19.2,1.6 -3.7,0.4 -6.3,0.3 -6.3,-0.2 0,-0.6 8.7,-9.6 19.3,-20.2 16.7,-16.6 19.7,-19.2 22.4,-19.2 4.7,0 7.5,-2.8 7.5,-7.5 0,-4.7 -2.8,-7.5 -7.5,-7.5 -3.8,0 -7.7,3.5 -7.7,6.9 0,2.1 -4.3,6.9 -19.9,22.5 -10.9,10.9 -20.1,19.4 -20.4,19 -0.4,-0.9 1.6,-25.7 3.1,-36.2 l 0.7,-5.4 12.5,-4.7 c 6.9,-2.5 16.8,-6.9 22,-9.7 8.4,-4.4 9.5,-5.3 9.8,-7.9 0.4,-3.7 2.8,-6.5 5.6,-6.5 1.2,0 6.3,4.3 13.3,11.3 z"/>
<path d="M 179.7,56.7 c -1.4,1.3 -0.6,5.3 1.2,6.3 1.3,0.6 21.3,1 58,1 49.5,0 56.1,-0.2 57.5,-1.6 1.9,-1.8 1.9,-2 0.6,-4.5 -1,-1.8 -2.7,-1.9 -58.9,-1.9 -31.8,0 -58.1,0.3 -58.4,0.7 z"/>
<path d="M 179.7,78.7 c -1.1,1.1 -0.8,4.8 0.5,6.1 0.9,0.9 15.1,1.2 57.9,1.2 50.3,0 56.9,-0.2 58.3,-1.6 1.9,-1.8 1.9,-2 0.6,-4.5 -1,-1.8 -2.7,-1.9 -58.9,-1.9 -31.8,0 -58.1,0.3 -58.4,0.7 z"/>
<path d="M 180.3,100.7 c -1.9,0.7 -1.6,6 0.3,6.7 0.9,0.3 26.9,0.6 57.9,0.6 49.9,0 56.5,-0.2 57.9,-1.6 1.9,-1.8 1.9,-2 0.6,-4.5 -1,-1.8 -2.7,-1.9 -58.3,-1.8 -31.5,0 -57.8,0.3 -58.4,0.6 z"/>
<path d="M 180.3,122.7 c -1.9,0.7 -1.6,6 0.3,6.7 0.9,0.3 26.9,0.6 57.9,0.6 49.9,0 56.5,-0.2 57.9,-1.6 2,-1.9 2,-2.9 0,-4.8 -1.4,-1.4 -8,-1.6 -58.2,-1.5 -31.2,0 -57.3,0.3 -57.9,0.6 z"/>
<path d="M 257.6,189.6 c -1.9,1.9 -2,3.6 -0.4,5.2 1.3,1.3 20.2,1.7 23.2,0.6 2.2,-0.9 2,-5.1 -0.3,-6.4 -1.1,-0.5 -6.2,-1 -11.5,-1 -7.3,0 -9.8,0.4 -11,1.6 z"/>
<path d="M 355.8,130.7 c -9.3,9.3 -17.1,17.9 -17.5,19.1 -0.7,3 1.7,5.6 4.4,4.8 3.3,-1.1 35.3,-34.1 35.3,-36.4 0,-1.9 -2.6,-4.2 -4.6,-4.2 -0.4,0 -8.4,7.5 -17.6,16.7 z"/>
</svg>
