<svg xmlns="http://www.w3.org/2000/svg" viewBox="0 0 384 384">
<path d="M 213.4,20.1 c -1.7,1.9 -1.9,4.1 -2.2,19.4 -0.3,16.9 -0.4,17.3 -2.6,18.3 -1.3,0.6 -4.8,3.1 -7.9,5.6 -3.1,2.5 -6.2,4.6 -6.8,4.6 -0.6,0 -3.8,-1.6 -7,-3.5 -3.3,-1.9 -6.6,-3.5 -7.4,-3.5 -1.6,0 -27.5,42.6 -27.5,45.3 0,1 1.9,2.9 4.6,4.5 9.3,5.4 8.8,4.5 7,15.2 -2,11.7 -2,19.3 -0.1,30.6 5.5,31.9 24,57.5 52.2,72.1 15.2,7.9 29,11.3 45.3,11.3 16.3,0 30.1,-3.4 45.3,-11.3 28.2,-14.6 46.7,-40.2 52.2,-72.1 1.9,-11.3 1.9,-18.9 -0.1,-30.6 -1.8,-10.7 -2.3,-9.8 7,-15.2 2.7,-1.6 4.6,-3.5 4.6,-4.5 0,-2.7 -25.9,-45.3 -27.5,-45.3 -0.8,0 -4.1,1.6 -7.4,3.5 -3.2,1.9 -6.4,3.5 -7,3.5 -0.6,0 -3.7,-2.1 -6.8,-4.6 -3.1,-2.5 -6.6,-5 -7.9,-5.6 -2.2,-1 -2.2,-1.5 -2.6,-18.3 -0.3,-15.3 -0.5,-17.5 -2.2,-19.4 -1.9,-2.1 -2.4,-2.1 -47.6,-2.1 -45.2,0 -45.7,0 -47.6,2.1 z m 85.4,19.8 c 0.3,10.8 1.9,10 -12.3,6.2 -17.6,-4.7 -33.4,-4.7 -51,0 -14.1,3.7 -12.5,4.5 -12.5,-5.8 0,-4.9 0.3,-9.3 0.7,-9.6 0.4,-0.4 17.3,-0.6 37.7,-0.5 l 37.1,0.3 0.3,9.4 z m -19.7,16.6 c 20.5,4.3 40.3,17.1 52.2,33.8 36.9,51.7 8.9,123.2 -53.1,136.2 -29.8,6.2 -63.2,-5.2 -82.7,-28.1 -35.4,-41.7 -25.8,-102.7 20.6,-131.3 10.8,-6.6 22.1,-10.3 38.4,-12.5 4.5,-0.6 17.1,0.4 24.6,1.9 z m -93.2,14.2 c 1.7,1 3.1,2.1 3.1,2.5 0,0.5 -1.5,2.5 -3.3,4.5 -6.2,7 -12.8,18.1 -17.1,28.6 l -1.6,3.9 -4,-2.3 c -2.2,-1.3 -4,-2.6 -4,-3 0,-1.9 21.3,-35.9 22.5,-35.9 0.7,0 2.7,0.8 4.4,1.7 z m 166.6,15.9 c 11.4,19 11.4,18.9 5.3,22 -2.8,1.5 -2.9,1.5 -4.4,-2.3 -4.3,-10.5 -10.9,-21.7 -17.1,-28.6 -1.8,-2 -3.3,-4 -3.3,-4.5 0,-1 5.2,-4 7.2,-4.1 1.1,-0.1 5,5.4 12.3,17.5 z"/>
<path d="M 259.2,59.2 c -1.7,1.7 -1.5,10.3 0.3,11.8 1.2,1 1.8,1 3,0 2.8,-2.3 1.6,-13 -1.5,-13 -0.3,0 -1.1,0.5 -1.8,1.2 z"/>
<path d="M 257.6,84.1 l -2.6,2 0,28.3 c 0,23.9 0.2,28.5 1.6,30.4 1.5,2.2 1.9,2.2 24.4,2.2 22.5,0 22.9,0 24.4,-2.2 2.2,-3.1 2,-4.5 -0.9,-7.3 -2.4,-2.5 -2.7,-2.5 -20,-2.5 l -17.5,0 0,-24.4 0,-24.5 -2.6,-2 c -1.5,-1.2 -3,-2.1 -3.4,-2.1 -0.4,0 -1.9,0.9 -3.4,2.1 z"/>
<path d="M 179,139.5 c -2.4,2.9 -0.4,4.5 5.3,4.5 6.3,0 8.8,-1.8 6.2,-4.4 -2.1,-2.1 -9.8,-2.1 -11.5,-0.1 z"/>
<path d="M 331.5,139.6 c -2.6,2.6 -0.1,4.4 6.2,4.4 5.7,0 7.7,-1.6 5.3,-4.5 -1.7,-2 -9.4,-2 -11.5,0.1 z"/>
<path d="M 258.7,211.6 c -1.4,1.4 -0.8,11.1 0.8,12.4 2.8,2.3 4.6,-0.6 4.3,-6.9 -0.3,-4.8 -0.6,-5.6 -2.3,-5.9 -1.2,-0.2 -2.4,0 -2.8,0.4 z"/>
<path d="M 107.1,176.2 c -1.9,1.2 -4.4,3.6 -5.5,5.1 -2.1,2.8 -2.1,3.8 -2.1,43.7 0,39.7 0.1,40.9 2.1,43.6 5.3,7.2 12.8,9.1 20.3,5.2 8.2,-4.3 8.1,-3.7 8.1,-48.6 0,-31.2 -0.3,-39.9 -1.4,-42.6 -3.2,-7.6 -14.7,-11.1 -21.5,-6.4 z"/>
<path d="M 72.5,199.4 c -10.6,5 -18.2,10.2 -26.4,18 -17.3,16.7 -26.4,36.1 -27.8,59.1 -1.2,21.8 5.4,42.1 19.7,59.8 11.9,14.8 30.9,27 50.7,32.4 8.5,2.3 11.8,2.6 25.3,2.7 15.8,0.1 19.9,-0.5 33,-4.6 14.6,-4.6 29.2,-14 40.3,-25.8 36.4,-38.8 30.7,-99.1 -12.2,-131 -7.2,-5.3 -21.3,-12.7 -26.1,-13.6 l -3,-0.7 0,14.5 0,14.4 4.1,2.3 c 19.1,10.8 31.9,32.1 32,53.6 0.1,10.4 -1.6,17.6 -6.3,27.5 -6.9,14.5 -21.3,26.9 -37.7,32.6 -18.8,6.5 -37.5,5.3 -55.6,-3.8 -22.4,-11.2 -36.8,-35.5 -35.1,-59.1 1.5,-20.5 11.8,-37.5 29.9,-49.4 l 6.7,-4.4 0,-13.9 c 0,-13.9 0,-14 -2.2,-14 -1.3,0.1 -5.4,1.6 -9.3,3.4 z"/>
</svg>
