<svg xmlns="http://www.w3.org/2000/svg" viewBox="0 0 384 384">
<path d="M 150,61.9 c -10.6,2.5 -14.4,3.8 -23.5,8.3 -19.3,9.5 -33,22.2 -44.4,41 -7.1,11.7 -11,22.9 -13.7,38.8 -3.8,23.3 1.3,48.5 14.4,70.4 5.5,9.2 17.6,22.4 27.1,29.7 9,6.8 24.5,14.3 36.6,17.6 8.9,2.4 11.7,2.7 26,2.7 13,-0.1 17.5,-0.4 23.8,-2.1 8.1,-2.2 10.1,-3.2 7.9,-4 -3.2,-1.2 -13.5,-9.7 -17.1,-14.3 -8.6,-10.9 -13.9,-27.4 -12.7,-39.9 0.6,-6.6 3.5,-17.1 6.2,-22.3 1.1,-2 1.4,-7.5 1.4,-22.3 l 0,-19.5 14.9,0 c 16.7,0 16.1,-0.3 16.1,7.5 0,2.4 0.4,4.6 0.8,4.9 0.5,0.3 3.3,-0.1 6.3,-0.9 3,-0.8 7.5,-1.5 10,-1.5 l 4.6,0 -0.5,-5 -0.5,-5 10.1,0 c 11.4,0 10.6,-0.6 11.7,9.1 0.8,6.7 1.1,7.1 5.5,9.4 1.9,1 6,4.3 9.2,7.3 3.2,3 6.1,5.2 6.5,4.8 2.5,-2.5 0.8,-26.4 -2.8,-39.6 -2.6,-9.3 -9.2,-23.7 -14.9,-32.1 -5.3,-7.9 -19.6,-22.2 -27,-27.1 -19.4,-12.8 -36.7,-17.9 -60.2,-17.7 -9.8,0.1 -16.7,0.6 -21.8,1.8 z m -13.4,32.3 c -7.7,7.9 -14.3,17.5 -17.5,25.8 -0.8,1.9 -2.1,5 -2.9,6.7 l -1.4,3.3 -9,0 c -10.3,0 -10,0.5 -4.5,-8.9 3.9,-6.6 15.3,-19 22.2,-24.1 5.3,-3.9 14.2,-8.7 18.5,-10.1 1.4,-0.4 2.6,-0.8 2.7,-0.8 0.1,-0.1 -3.5,3.6 -8.1,8.1 z m 72.9,-4.4 c 12.6,6.3 27.5,19.9 34.2,31.3 5.6,9.5 5.9,9 -4.8,8.7 l -9.3,-0.3 -2.6,-6.5 c -5.3,-13.9 -15,-27.4 -24.5,-34.2 -3.9,-2.9 -3.9,-2.9 -1,-2.2 1.7,0.4 5.3,1.8 8,3.2 z m -46.5,21.2 l 0,19 -13.4,0 -13.4,0 1,-3.8 c 0.5,-2 1.3,-4.2 1.7,-4.7 0.4,-0.6 1.4,-2.6 2.1,-4.5 2.5,-6.4 10.3,-17.2 15.2,-21.1 2.8,-2.1 5.4,-3.9 5.9,-3.9 0.5,0 0.9,8.2 0.9,19 z m 25.4,-15.2 c 4.2,3.1 14.4,16.1 14.6,18.5 0,0.4 0.9,2.6 1.9,5 1,2.3 2.4,5.7 2.9,7.4 l 1.1,3.3 -13.5,0 -13.4,0 0,-19 c 0,-10.5 0.3,-19 0.8,-19 0.4,0 2.9,1.7 5.6,3.8 z m -77.9,69.2 l 0,19 -9.7,0 -9.8,0 -0.7,-2.8 c -1,-3.5 -1,-28.9 0,-32.5 l 0.7,-2.7 9.8,0 9.7,0 0,19 z m 52.5,0 l 0,19 -14.9,0 c -13.2,0 -15,-0.2 -15.5,-1.7 -0.9,-2.2 -0.9,-34 -0.1,-35.3 0.4,-0.6 6.7,-1 15.6,-1 l 14.9,0 0,19 z m -49.6,34.6 c 0.8,0.3 2.3,2.9 3.2,5.7 4,12.1 14.8,28.8 22.6,35 1.8,1.4 2.7,2.6 2.1,2.7 -0.7,0 -1.3,-0.5 -1.3,-1.1 0,-0.5 -0.4,-0.7 -1,-0.4 -2.5,1.5 -20.2,-10.6 -27.9,-19.2 -6.6,-7.4 -14.5,-19.9 -13.7,-21.9 0.4,-1 2.5,-1.4 7.5,-1.4 3.8,0 7.6,0.3 8.5,0.6 z m 49.6,17.9 c 0,22 0.1,21.9 -10,11.6 -6.9,-7 -14.2,-19.6 -15.6,-26.9 l -0.6,-3.2 13.1,0 13.1,0 0,18.5 z"/>
<path d="M 218.5,163.5 c -8.8,2.4 -15.8,6.7 -23.1,14 -15.6,15.5 -19.7,37.2 -10.7,57.5 6.9,15.7 20.5,26.2 38.4,29.8 10,1.9 20,0.6 29.9,-3.9 l 6.5,-3 2.9,3.3 c 11.4,12.9 11.5,12.9 13.3,11.9 1,-0.5 3.6,-2.8 5.7,-5 l 3.9,-4 -5.3,-6.3 c -3,-3.5 -6.2,-7.2 -7.2,-8.3 -1.7,-2 -1.7,-2.2 1.6,-7 6.3,-9.5 8,-15.6 8,-29 0,-11.4 -0.1,-12.4 -3.3,-19.7 -2.4,-5.6 -5,-9.6 -9.8,-14.8 -7.4,-8 -12.3,-11.2 -22.4,-14.6 -8.2,-2.8 -20.1,-3.1 -28.4,-0.9 z m 20.6,10.5 c 8,1.5 17.3,6.5 22,11.9 15.3,17.3 14.4,42.1 -2.1,57.4 -6.7,6.3 -10.2,8 -19.9,10.4 -6.1,1.5 -8,1.5 -13.4,0.5 -19.2,-3.9 -31.9,-17.4 -34.3,-36.7 -1.3,-10.7 3.2,-23.8 11,-31.8 9.8,-10.2 22.8,-14.3 36.7,-11.7 z"/>
<path d="M 282.1,272.1 c -4.4,3.8 -8.1,7.5 -8.1,8.2 0,0.7 2.3,3.9 5.1,7.2 2.8,3.3 9.3,11.3 14.6,17.8 10.9,13.6 14,15.7 20.2,13.9 5.6,-1.7 11.1,-8.1 11.1,-13 0,-2 -0.8,-4.9 -1.8,-6.3 -2.2,-3.4 -31.3,-34.9 -32.2,-34.9 -0.4,0 -4.4,3.2 -8.9,7.1 z"/>
</svg>
