<svg xmlns="http://www.w3.org/2000/svg" viewBox="0 0 384 384">
<path d="M 149.5,17.5 l -2.5,2.4 0,99.6 0,99.5 -4,-2.5 c -6.8,-4.3 -15.4,-8.4 -22.6,-10.7 -6.2,-2.1 -8.8,-2.3 -25.4,-2.3 -17.7,0.1 -18.8,0.2 -26.5,2.9 -20.2,7.1 -35,18.5 -45.8,35.2 -21.4,33.1 -17.4,77.3 9.6,105.2 10.3,10.6 21.3,17.6 36.2,22.8 7.7,2.7 8.8,2.8 26.5,2.9 16.6,0 19.2,-0.2 25.4,-2.3 13.6,-4.4 25.8,-11.7 34.6,-20.6 3,-3.1 5.9,-5.6 6.5,-5.6 0.7,0 0.8,2.5 0.3,7.7 -0.3,4.3 -0.7,9.5 -0.7,11.7 l -0.1,3.9 9.3,-0.7 c 9.3,-0.7 31.4,-2.7 52.7,-4.7 6.3,-0.6 11.8,-1.6 12.2,-2.2 0.4,-0.6 1,-3.4 1.4,-6.2 2.1,-15.7 13,-37.5 18.7,-37.5 2.2,0 7.4,-5 9.1,-8.8 1.5,-3.4 2.5,-4.2 6.3,-5.2 10.5,-3 31.9,-18.5 48.9,-35.4 27,-27.1 48.9,-57.9 55.8,-78.8 5.1,-15.2 2.5,-25.8 -7.9,-31 -6,-3.1 -18.4,-2.2 -28.7,2.1 -4.3,1.8 -8.2,3 -8.8,2.6 -0.5,-0.3 -1,-2.5 -1,-4.8 0,-4 0.4,-4.5 22.4,-26.7 l 22.4,-22.5 0.7,-5.6 c 0.8,-6.7 -0.1,-7.4 -7.3,-5.8 -4.4,0.9 -6.2,2.4 -20.7,16.9 -8.7,8.7 -16.2,15.7 -16.7,15.4 -0.4,-0.3 -0.8,-25 -0.8,-54.9 l 0,-54.4 -2.6,-2 c -2.7,-2.1 -3.2,-2.1 -88.6,-2.1 l -85.9,0 -2.4,2.5 z m 163.9,14.1 c 0.3,0.9 0.6,26.8 0.6,57.6 l 0,56.1 -12,12.2 c -9.2,9.4 -12,12.9 -12,14.9 0,1.6 -1.4,4.2 -3.7,6.7 -2.9,3.2 -3.5,4.4 -2.6,5.7 1.8,3 5.3,2.6 8.8,-0.8 2.3,-2.2 3.9,-3.1 5.1,-2.6 1.3,0.5 -0.2,2.1 -6.7,7.2 -9.8,7.7 -19.3,16 -30.1,26.1 l -7.7,7.3 -44.3,0 c -33.2,0 -44.7,-0.3 -45.6,-1.2 -1.7,-1.7 -1.7,-187.9 0,-189.6 0.9,-0.9 19,-1.2 75.4,-1.2 66.7,0 74.2,0.2 74.8,1.6 z m 49.4,137 c 4.6,3.2 1.9,14.9 -7.5,32.4 -6.6,12.3 -13.7,21.9 -33.6,45.2 -18,21.2 -48.8,44.7 -58.4,44.8 -1.4,0 -5.5,-3 -11,-8 -9.7,-8.8 -13.3,-13.3 -13.3,-16.6 0,-3 4,-10.1 11.5,-20.4 l 6.7,-9 33.2,0 c 32.2,0 33.4,-0.1 36,-2.1 l 2.6,-2 0,-27.3 c 0,-31.6 -1.1,-28.4 12,-33.9 12.4,-5.1 17.8,-5.9 21.8,-3.1 z m -49.4,2.7 c -0.3,0.7 -2.1,2.2 -4.1,3.5 l -3.5,2.2 3.2,-4 c 2.9,-3.6 5.7,-4.7 4.4,-1.7 z m 0.6,32.7 c 0,8.1 -0.3,15.5 -0.6,16.4 -0.5,1.4 -3.2,1.6 -19.9,1.6 -10.7,0 -19.6,-0.4 -19.9,-0.9 -0.5,-0.8 14.6,-14.6 23.8,-21.6 2.1,-1.7 6.3,-4.9 9.4,-7.2 3,-2.3 5.9,-4 6.3,-3.7 0.5,0.3 0.9,7.2 0.9,15.4 z m -196.8,14.3 c 12.2,3.9 20.3,9 30.4,19.1 14.2,14.3 20.6,29 20.7,47.4 0.1,24 -5.5,38.4 -20.7,53.8 -10.1,10.1 -18,15.1 -30.4,19.2 -6.8,2.3 -9.4,2.6 -21.7,2.6 -15.7,0 -21,-1.2 -33,-7.1 -39.9,-19.9 -53.1,-69.2 -28.5,-106 11.2,-16.5 30.7,-28.8 50.5,-31.7 7.9,-1.1 25.1,0.3 32.7,2.7 z m 123.1,19.9 c -0.4,0.7 -2.7,4.2 -5.2,7.7 -2.4,3.5 -5.4,8.8 -6.7,11.9 -1.8,4.6 -2.9,5.8 -6.6,7.6 -2.9,1.5 -5.5,4 -8.1,7.9 -3.1,4.6 -5,6.2 -9.5,8.3 -10.8,5 -20.4,8.5 -21.6,8.1 -0.9,-0.4 -1.5,-3.9 -1.9,-10.4 -0.8,-13.5 -4.5,-24.6 -12.4,-37.1 l -3.4,-5.2 38.1,0 c 30.2,0 38,0.3 37.3,1.2 z m 2.4,49.1 c 9,9 11.2,11.8 10.7,13.3 -1.2,3.4 -2.6,4.4 -5.8,4.4 -2.9,0 -3.7,0.8 -8.3,7.7 -6.1,9.4 -10.6,19.5 -13,29.2 -2.1,8.3 -0.6,7.6 -18.8,9.1 -7.1,0.5 -15.8,1.3 -19.2,1.6 -3.7,0.4 -6.3,0.3 -6.3,-0.2 0,-0.6 8.7,-9.6 19.3,-20.2 16.7,-16.6 19.7,-19.2 22.4,-19.2 4.7,0 7.5,-2.8 7.5,-7.5 0,-4.7 -2.8,-7.5 -7.5,-7.5 -3.8,0 -7.7,3.5 -7.7,6.9 0,2.1 -4.3,6.9 -19.9,22.5 -10.9,10.9 -20.1,19.4 -20.3,19 -0.8,-1.4 2.2,-32.4 3.6,-37.4 l 1.3,-4.5 11.9,-4.5 c 6.5,-2.5 16.2,-6.8 21.4,-9.6 8.4,-4.4 9.5,-5.3 9.8,-7.9 0.4,-3.7 2.8,-6.5 5.6,-6.5 1.2,0 6.3,4.3 13.3,11.3 z"/>
<path d="M 179.7,56.7 c -1.4,1.3 -0.6,5.3 1.2,6.3 1.3,0.6 21.3,1 58,1 49.5,0 56.1,-0.2 57.5,-1.6 1.9,-1.8 1.9,-2 0.6,-4.5 -1,-1.8 -2.7,-1.9 -58.9,-1.9 -31.8,0 -58.1,0.3 -58.4,0.7 z"/>
<path d="M 179.7,78.7 c -1.1,1.1 -0.8,4.8 0.5,6.1 0.9,0.9 15.1,1.2 57.9,1.2 50.3,0 56.9,-0.2 58.3,-1.6 1.9,-1.8 1.9,-2 0.6,-4.5 -1,-1.8 -2.7,-1.9 -58.9,-1.9 -31.8,0 -58.1,0.3 -58.4,0.7 z"/>
<path d="M 180.3,100.7 c -1.9,0.7 -1.6,6 0.3,6.7 0.9,0.3 26.9,0.6 57.9,0.6 49.9,0 56.5,-0.2 57.9,-1.6 1.9,-1.8 1.9,-2 0.6,-4.5 -1,-1.8 -2.7,-1.9 -58.3,-1.8 -31.5,0 -57.8,0.3 -58.4,0.6 z"/>
<path d="M 180.3,122.7 c -1.9,0.7 -1.6,6 0.3,6.7 0.9,0.3 26.9,0.6 57.9,0.6 49.9,0 56.5,-0.2 57.9,-1.6 2,-1.9 2,-2.9 0,-4.8 -1.4,-1.4 -8,-1.6 -58.2,-1.5 -31.2,0 -57.3,0.3 -57.9,0.6 z"/>
<path d="M 180.3,144.7 c -0.7,0.2 -1.3,1.8 -1.3,3.4 0,2.1 0.6,3 2.3,3.4 1.2,0.3 13,0.4 26.1,0.3 21.5,-0.3 24,-0.5 25,-2.1 0.8,-1.2 0.8,-2.2 0,-3.5 -1,-1.5 -3.5,-1.7 -26,-1.9 -13.7,-0.1 -25.5,0.1 -26.1,0.4 z"/>
<path d="M 257.6,189.6 c -0.9,0.8 -1.6,2.1 -1.6,2.8 0,3 2.8,3.7 14.1,3.4 11.2,-0.3 11.4,-0.3 11.7,-2.7 0.6,-4.1 -2.1,-5.1 -12.9,-5.1 -7.5,0 -10.1,0.4 -11.3,1.6 z"/>
<path d="M 94.6,248.2 c -2.2,3.1 -2,6.1 0.4,8.3 2,1.8 2.1,1.8 4.8,-0.2 3,-2.2 4,-6.6 2.1,-8.9 -1.7,-2.1 -5.6,-1.7 -7.3,0.8 z"/>
<path d="M 90.6,269.2 c -0.3,1.3 -1.2,5.2 -2,8.8 -3.8,16.5 -5,25.2 -5.1,35.5 0,13.3 1.3,16.5 6.9,16.5 5.9,0 12,-8.6 18.7,-26.7 1.8,-4.6 1.9,-5.7 0.8,-6.4 -1,-0.6 -1.7,-0.2 -2.3,1.4 -4,9.7 -9.9,21.1 -12.1,23.3 -2.5,2.4 -2.8,2.5 -4.3,1 -1.4,-1.4 -1.5,-2.7 -0.4,-11.3 1.5,-12.5 5.6,-34.5 7.8,-42.1 0.6,-2 0.3,-2.2 -3.5,-2.2 -3.4,0 -4.1,0.4 -4.5,2.2 z"/>
<path d="M 355.8,130.7 c -9.3,9.3 -17.1,17.9 -17.5,19.1 -0.7,3 1.7,5.6 4.4,4.8 3.3,-1.1 35.3,-34.1 35.3,-36.4 0,-1.9 -2.6,-4.2 -4.6,-4.2 -0.4,0 -8.4,7.5 -17.6,16.7 z"/>
</svg>
