<svg xmlns="http://www.w3.org/2000/svg" viewBox="0 0 384 384">
<path d="M 160,55.7 c -17.8,1.4 -36.6,9.2 -50.7,20.8 -22.4,18.5 -34.4,43.6 -34.4,72 0,22.7 6.7,41.4 21.3,59.6 9,11.1 19.4,19.1 33.3,25.5 13.7,6.3 21,7.8 38.5,7.8 18.2,0 25.3,-1.6 40.7,-8.9 9.5,-4.5 9.6,-4.5 20.4,-4.5 l 10.9,0 0,4.7 -0.1,4.8 -7.1,3.5 c -8,3.9 -11.9,8 -10.2,10.8 4.6,7.4 25.9,11.3 42.8,7.8 19.7,-4 21.8,-10.9 5.8,-18.6 l -7.2,-3.5 0,-4.7 0,-4.7 15.9,-0.3 c 14.4,-0.3 16.2,-0.5 18.8,-2.4 5.2,-3.9 5.3,-4.6 5.3,-37.9 0,-33.9 -0.1,-34.3 -5.9,-38.2 -3.2,-2.2 -4.4,-2.3 -19.7,-2.3 l -16.3,0 -0.5,-3.3 c -2.7,-18.9 -4.8,-26.1 -11.1,-38.4 -11.9,-22.9 -34.6,-40.8 -59.3,-46.8 -9.8,-2.3 -22.8,-3.5 -31.2,-2.8 z"/>
<path d="M 199.2,268.7 c -9.8,10.4 -12.1,15.9 -9.2,21.4 1,1.8 2.8,1.9 62,1.9 59.2,0 61,-0.1 62,-1.9 2.9,-5.5 0.6,-11 -9.2,-21.4 l -4.4,-4.7 -48.4,0 -48.4,0 -4.4,4.7 z"/>
</svg>
