<svg xmlns="http://www.w3.org/2000/svg" viewBox="0 0 384 384">
<path d="M 223.2,16 c -11.2,3 -24.5,10 -37.2,19.7 -16.9,12.8 -30.4,22.3 -42.6,29.9 -5.9,3.7 -10.2,7 -9.6,7.2 1.9,0.6 13.9,-3.7 22.7,-8.1 4.4,-2.2 14.3,-8.1 22,-13.2 23.3,-15.3 32,-19.9 47,-24.7 8.1,-2.6 22.4,-3.4 31.1,-1.8 13.2,2.4 28.8,9.4 38.6,17.2 1.5,1.2 3,1.9 3.3,1.6 1,-0.9 -17,-17.2 -22.9,-20.7 -11,-6.5 -17.7,-8.4 -32.1,-8.8 -10.6,-0.2 -14.4,0.1 -20.3,1.7 z"/>
<path d="M 237,29.2 c -12.7,2 -23.5,10.1 -29.5,22.1 -2.6,5.1 -3.5,8.2 -3.4,11.6 0,2.5 0.2,4.1 0.4,3.6 0.1,-0.6 0.9,-3 1.6,-5.5 5.1,-17.3 20,-27.8 38,-26.8 14.1,0.8 25.7,8.7 31.7,21.6 2.3,4.9 2.7,7 2.7,15.2 0,8.3 -0.3,10.2 -2.7,15.1 -1.5,3 -4.8,7.7 -7.3,10.4 -2.5,2.7 -4.5,5.1 -4.5,5.3 0,1.3 8.5,-6.7 11.3,-10.6 5.4,-7.5 7.2,-13.4 7.2,-23.7 0,-7.7 -0.5,-9.9 -2.8,-14.8 -1.4,-3.2 -4.1,-7.6 -5.8,-9.8 -8.1,-10.3 -23.2,-15.9 -36.9,-13.7 z"/>
<path d="M 230,41.7 c -2.8,1 -6.6,3.7 -10.1,7.2 -6.4,6.5 -9.2,13.2 -9.2,22.1 0,5.4 2.8,15 4.3,15 0.5,0 0.8,-2.4 0.8,-5.3 0.1,-4.2 1,-7 5.1,-15.2 2.8,-5.5 7.6,-13.3 10.6,-17.3 3,-4 5.5,-7.5 5.5,-7.8 0,-0.7 -2.4,-0.3 -7,1.3 z"/>
<path d="M 259.1,48.9 c 2.4,10.6 9.2,23.2 13,23.9 1.3,0.2 1.4,-0.7 0.8,-6.2 -1,-7.7 -2.6,-11.3 -8.1,-17.2 -5.2,-5.6 -6.9,-5.8 -5.7,-0.5 z"/>
<path d="M 242.2,54.8 c -6.6,8.4 -13.7,22.2 -14.9,28.7 -1.3,6.9 0.3,13.2 4,15.9 4.4,3.2 16.3,3 23.7,-0.5 6.2,-3 12.3,-8.6 15.1,-14.2 2,-3.8 1.9,-4 -1.6,-3.8 -3.4,0.3 -8.8,-4.1 -11.7,-9.4 -2.6,-4.7 -4.2,-9.1 -6.8,-19.3 -0.6,-2.3 -1.4,-4.2 -1.8,-4.2 -0.4,0 -3.1,3.1 -6,6.8 z"/>
<path d="M 346.5,64.9 c -11.6,4.1 -18.9,8 -37.6,20.2 -20.1,13.1 -28.6,17.7 -40.4,22 -7.7,2.7 -10.7,3.2 -21.1,3.7 -10.2,0.4 -13.3,0.1 -20.5,-1.8 -10.5,-2.7 -23.6,-8.8 -30.6,-14.2 -2.9,-2.2 -5.6,-3.9 -5.9,-3.6 -0.2,0.3 3.8,4.6 9,9.5 31.1,29.5 67,28.3 107.5,-3.5 11.3,-8.9 23.2,-17.3 36.1,-25.5 17.4,-10.9 17.8,-11.9 3.5,-6.8 z"/>
<path d="M 74.2,112.1 c -1.9,0.6 -6.2,3.9 -10,7.6 -7.7,7.6 -11,9.3 -18.6,9.3 -7.3,0 -15.7,3.2 -19.4,7.5 -1.7,1.8 -4.1,6 -5.3,9.2 -2.2,5.4 -2.4,7.2 -2.4,24.3 0.1,15.2 0.5,20.3 2.3,28.6 3.9,18.1 12.3,40.9 21.9,59.7 13,25.4 35.2,56.8 52.2,73.7 15.7,15.7 23.8,19.6 39,18.8 10.3,-0.5 16,-2.8 22.8,-9 7.5,-7 10.5,-8.6 17.3,-9.7 8.1,-1.3 12.9,-3.9 16.2,-8.7 4,-5.6 5.5,-13.1 6.3,-30 0.9,-18.1 0.8,-17.5 8.4,-45.2 10.3,-37 18.8,-55.3 32.9,-70.3 5.8,-6.2 9.1,-8.7 15,-11.6 7.4,-3.7 7.9,-3.8 18.6,-3.8 13.1,0 16.3,1.3 24,9.5 9.6,10.2 14,25.2 14,47.5 -0.1,15.6 -1.7,25.6 -6.6,39.5 -6.7,19 -17,36.1 -31.7,52.7 -11.5,13 -22,22 -37,31.9 -6.6,4.3 -11.9,8.3 -11.8,8.9 0.5,1.5 31.2,16.7 39.9,19.8 4,1.4 10.6,3.1 14.5,3.8 l 7.1,1.2 5,-4.2 c 4.8,-4.1 12.6,-12.5 22.8,-24.6 21.1,-25.2 37.9,-56.5 45.1,-84.2 2.5,-9.8 2.8,-12.4 2.8,-27.8 -0.1,-32.7 -6.9,-52.5 -23.5,-68.5 -8.3,-8 -17,-13.2 -27.5,-16.7 -15.8,-5.2 -43.1,-4.1 -60.6,2.4 -20.5,7.6 -40.6,28.6 -53.5,55.8 -6.2,12.9 -7.2,12.9 -13.9,-0.8 -14.8,-30.2 -42,-64.8 -63.8,-81.1 -16.5,-12.4 -33,-18.4 -42.5,-15.5 z m 14.1,3.4 c 3.2,0.8 7.6,2.4 9.9,3.6 13.2,6.7 41.1,32.1 53.1,48.1 17.6,23.6 36,61.4 33.3,68.4 -0.6,1.6 -0.8,1.6 -2.5,-0.2 -1,-1 -3.3,-6 -5.1,-10.9 -7.9,-22 -25.6,-49.3 -45.7,-70.5 -10.9,-11.4 -20.1,-19.3 -32.4,-27.5 -10.4,-6.9 -16.8,-9 -23.4,-7.5 -5.9,1.3 -6.8,0.6 -3.2,-2.6 3.3,-2.8 7.6,-3.1 16,-0.9 z m -27.7,18.4 c 30.4,6.3 60.3,32.8 81.2,72.1 11.7,22 20.6,46.5 24.3,67 3.5,19.1 1.5,42.9 -4.7,55.3 -5.1,10.1 -11.9,15.4 -22.9,17.7 -16.2,3.4 -29.4,-3.1 -47.7,-23.4 -29.5,-32.8 -50.8,-70.5 -62.2,-110.3 -6.6,-23 -8.4,-51.3 -4.2,-65 4.4,-14 14.7,-17.8 36.2,-13.4 z m 284.2,64.2 c 0.3,2.6 0.2,2.7 -10.2,4.3 -13.9,2.1 -13.6,2.2 -13.6,-1.3 0,-2.8 0.3,-3 4.8,-3.7 2.6,-0.3 6.5,-1 8.7,-1.4 2.2,-0.5 5.4,-0.8 7,-0.7 2.4,0.2 3.1,0.7 3.3,2.8 z m -11.8,62.2 c 12.2,4.2 12.5,4.4 12.3,7.2 -0.1,1.5 -0.7,3.2 -1.4,3.6 -1.8,1.1 -27.9,-8 -27.9,-9.8 0,-2.2 1.9,-5.3 3.3,-5.3 0.7,0 6.8,2 13.7,4.3 z m -27.8,51.8 c 7.3,4.5 13.6,8.3 14,8.5 1,0.6 -2.3,7.4 -3.6,7.4 -0.8,0 -27.1,-15.3 -28.5,-16.6 -0.3,-0.3 3.8,-7.4 4.4,-7.4 0.2,0 6.3,3.6 13.7,8.1 z m -113.2,-3.1 c 0,4.5 -2.3,9.2 -6.5,13.3 -7,6.8 -22.1,9.4 -17.7,3.1 0.4,-0.6 4.2,-3 8.6,-5.5 7.8,-4.4 13.6,-9.7 13.6,-12.4 0,-0.8 0.5,-1.5 1,-1.5 0.6,0 1,1.4 1,3 z"/>
<path d="M 49.8,151.3 c -9.8,2.8 -15,9.1 -17.5,21.4 -1.4,6.7 -1.4,9.3 -0.3,18.7 1.3,11.5 3.2,19.5 5.6,23.2 2.1,3.2 24.7,13.1 33.1,14.6 8.9,1.5 12.4,0.4 13.9,-4.3 1.7,-5.2 5.4,-35.6 5.4,-44.7 0,-9.4 -1.5,-13.6 -7,-19.6 -7.6,-8.2 -22.4,-12.3 -33.2,-9.3 z"/>
<path d="M 105.8,185.7 c -0.6,1.7 -1.3,13.4 -1.6,28.9 l -0.5,26 3.1,3.5 c 5.2,6 40.2,22.3 43.4,20.3 1.7,-1.1 0.1,-8.7 -4.2,-19.4 -6,-15.1 -16.1,-35.8 -20.9,-42.8 -4.5,-6.7 -15.8,-19.2 -17.2,-19.2 -0.5,0 -1.4,1.2 -2.1,2.7 z"/>
<path d="M 46.1,236.9 c -1.5,2.7 0.5,8.7 7.5,22.2 7.8,15 17.9,31.1 23,36.8 4,4.4 4.1,4.4 5.2,2.4 1.5,-2.7 2.9,-12.8 3.8,-26.6 l 0.7,-10.7 -3.9,-3.8 c -6,-5.6 -31.9,-22.2 -34.7,-22.2 -0.3,0 -1.1,0.9 -1.6,1.9 z"/>
<path d="M 88.2,242.2 c -1.7,1.7 -1.5,6.4 0.4,8.2 1.8,1.9 6.5,2.1 8.2,0.4 1.8,-1.8 1.4,-6.3 -0.6,-8.1 -2.2,-2 -6.3,-2.2 -8,-0.5 z"/>
<path d="M 101.6,269.2 c -1.4,6.7 -3.6,29.5 -3.6,37.1 0,10.2 0.9,12.5 7.3,18.4 6.5,6 14.2,8.7 25.4,8.7 10.3,0.1 12.3,-0.8 18,-8.2 4.1,-5.4 6.4,-13.6 7.1,-25 l 0.5,-9.3 -4.4,-4.2 c -7.9,-7.4 -36.1,-19.7 -45.5,-19.7 -3.7,0 -4.4,0.3 -4.8,2.2 z"/>
</svg>
