<svg xmlns="http://www.w3.org/2000/svg" viewBox="0 0 384 384">
<path d="M 207.5,37 c -27.7,4.1 -52,16.9 -62.1,32.6 -5,7.9 -6.5,12.1 -7.1,20 -0.9,11.2 2.6,20.2 11.8,30 5,5.4 5.1,5.8 6.4,22.4 0.9,11.9 1.5,15 3.1,15 1.4,0 29.5,-10.4 32.6,-12.1 1.2,-0.6 4.5,-0.4 9.6,0.6 4.3,0.9 13.2,1.9 19.7,2.3 l 12,0.7 8.2,16 c 6.8,13.5 8.2,15.6 8.7,13.5 0.4,-1.4 2.4,-9.5 4.5,-18 l 3.8,-15.4 9.4,-3.6 c 22.7,-8.7 34.9,-18.1 42,-32.5 3.1,-6.4 3.4,-7.7 3.4,-16.5 0,-8.6 -0.3,-10.1 -3.2,-16.2 -9,-19.1 -32.5,-33.3 -63.3,-38.3 -9.8,-1.5 -30.6,-1.8 -39.5,-0.5 z m 74.3,34.2 l -0.3,2.3 -55.7,0.3 -55.8,0.2 0,-2.5 0,-2.5 56.1,0 56,0 -0.3,2.2 z m 0.2,20.3 l 0,2.5 -56,0 c -53.6,0 -56,-0.1 -56,-1.8 0,-1 0.3,-2.2 0.7,-2.5 0.3,-0.4 25.5,-0.7 56,-0.7 l 55.3,0 0,2.5 z m 0,21 l 0,2.5 -56,0 -56,0 0,-2.5 0,-2.5 56,0 56,0 0,2.5 z"/>
<path d="M 119.5,168 c -7.3,1.5 -13.6,4.9 -18.8,10.2 -6.9,7 -9.8,13.2 -10.4,22.9 -1.1,15.6 6.9,29 21.1,35.5 18.2,8.3 39,0.3 47.8,-18.3 3.9,-8.2 4.1,-18.4 0.7,-27.6 -3.2,-8.5 -12.1,-17.4 -20.4,-20.5 -7.1,-2.6 -14.5,-3.4 -20,-2.2 z"/>
<path d="M 248.2,194.3 c -11.5,4.2 -17.1,17.1 -12.5,28.9 2.1,5.7 4.6,8.3 10.7,11.3 8.7,4.3 16.6,3.1 24.4,-3.9 9.6,-8.7 9.4,-22.5 -0.4,-31.7 -6.1,-5.7 -14.4,-7.4 -22.2,-4.6 z"/>
<path d="M 230.6,246 c -5.4,2.7 -7.8,5.2 -10.7,10.8 -2.3,4.5 -2.4,5.6 -2.4,23.2 l 0,18.5 38,0 38,0 0.3,-17.5 c 0.2,-10.1 -0.1,-19 -0.7,-21 -1.4,-4.9 -7.7,-11.9 -12.5,-14.1 -2.7,-1.2 -6.5,-1.9 -11.2,-1.9 -6.7,0 -7.1,0.1 -10.4,3.5 l -3.5,3.6 2.7,2.2 c 2.5,2.2 2.6,2.5 3.2,18 0.6,16.5 0.4,18 -3.7,22.4 l -2,2.3 -3,-4.1 -3,-4.1 0.7,-16.1 c 0.5,-14.1 0.9,-16.4 2.6,-18.2 2.7,-2.9 2.5,-3.9 -1.1,-6.9 -2.7,-2.3 -3.9,-2.6 -10.2,-2.6 -5.1,0.1 -8.4,0.7 -11.1,2 z"/>
<path d="M 94.3,252.1 c -10.3,2 -19.6,8.1 -24.8,16.3 -6.2,9.9 -6.5,11.9 -6.5,44.3 l 0,29.3 63.1,0 63,0 -0.3,-31.3 -0.3,-31.2 -2.8,-5.6 c -7.4,-15.1 -20.7,-22.9 -39,-22.9 l -7.9,0 -6.4,6.2 -6.4,6.1 -6.4,-6.1 -6.4,-6.2 -7.4,0.1 c -4,0.1 -9.2,0.5 -11.5,1 z m 36,15.2 l 3.8,3.3 1.1,26.7 1.1,26.7 -4.8,7 c -2.7,3.8 -5.1,7 -5.5,7 -0.4,0 -2.8,-3.2 -5.3,-7.2 -5.4,-8.2 -5.1,-5.5 -3.6,-37.1 l 1.1,-22.9 3.7,-3.4 c 2,-1.8 3.8,-3.3 4.1,-3.3 0.3,0 2.2,1.4 4.3,3.2 z"/>
</svg>
