<svg xmlns="http://www.w3.org/2000/svg" viewBox="0 0 384 384">
<path d="M 11.2,64.3 l -2.2,2.3 0,119 0,119.1 2.3,2.1 2.3,2.2 115,0 115,0 -0.1,-5.8 -0.2,-5.7 -111.1,-0.3 -111.2,-0.2 0,-111.5 0,-111.5 164.5,0 164.5,0 0,84.9 0,84.8 6,4.7 6,4.7 0,-94 0,-94 -2.2,-1.5 c -2,-1.4 -20.2,-1.6 -174.3,-1.6 l -172.2,0 -2.1,2.3 z"/>
<path d="M 27,91.5 l 0,5.5 6,0 6,0 0,-5.5 0,-5.5 -6,0 -6,0 0,5.5 z"/>
<path d="M 51,91.5 l 0,5.5 5.5,0 5.5,0 0,-5.5 0,-5.5 -5.5,0 -5.5,0 0,5.5 z"/>
<path d="M 74,91.5 l 0,5.5 6,0 6,0 0,-5.5 0,-5.5 -6,0 -6,0 0,5.5 z"/>
<path d="M 98,91.5 l 0,5.5 5.5,0 5.5,0 0,-5.5 0,-5.5 -5.5,0 -5.5,0 0,5.5 z"/>
<path d="M 121,91.5 l 0,5.5 6,0 6,0 0,-5.5 0,-5.5 -6,0 -6,0 0,5.5 z"/>
<path d="M 145,91.5 l 0,5.5 5.5,0 5.5,0 0,-5.5 0,-5.5 -5.5,0 -5.5,0 0,5.5 z"/>
<path d="M 168,91.5 l 0,5.5 6,0 6,0 0,-5.5 0,-5.5 -6,0 -6,0 0,5.5 z"/>
<path d="M 192,91.5 l 0,5.5 5.8,0 5.7,0 0,-5.5 0,-5.5 -5.7,0 -5.8,0 0,5.5 z"/>
<path d="M 215,91.5 l 0,5.5 6,0 6,0 0,-5.5 0,-5.5 -6,0 -6,0 0,5.5 z"/>
<path d="M 239,91.5 l 0,5.5 6,0 6,0 0,-5.5 0,-5.5 -6,0 -6,0 0,5.5 z"/>
<path d="M 262,91.5 l 0,5.5 6,0 6,0 0,-5.5 0,-5.5 -6,0 -6,0 0,5.5 z"/>
<path d="M 286,91.5 l 0,5.5 6,0 6,0 0,-5.5 0,-5.5 -6,0 -6,0 0,5.5 z"/>
<path d="M 309,91.5 l 0,5.5 6,0 6,0 0,-5.5 0,-5.5 -6,0 -6,0 0,5.5 z"/>
<path d="M 333,91.5 l 0,5.5 6,0 6,0 0,-5.5 0,-5.5 -6,0 -6,0 0,5.5 z"/>
<path d="M 56.1,127.3 l -2.1,2.4 0.2,56.7 c 0.3,54.9 0.4,56.8 2.2,58.2 1.1,0.8 2.9,1.4 3.9,1.4 2.5,0 81.9,-55.4 83.1,-58 2.1,-4.5 0.4,-6 -40.8,-34.8 -22.3,-15.5 -41.3,-28.2 -42.4,-28.2 -1,0 -2.8,1.1 -4.1,2.3 z m 41.4,36.7 c 16,11.2 29.4,20.6 29.8,21 0.4,0.3 -9.9,8.1 -23,17.3 -13.1,9.1 -27.1,18.8 -31,21.6 l -7.3,5.2 0,-43.2 c 0,-34.7 0.3,-43 1.3,-42.6 0.7,0.2 14.3,9.6 30.2,20.7 z"/>
<path d="M 202.6,125.9 c -1.2,1.9 -4.9,32.2 -4,33 0.8,0.8 22.2,-1.8 29.2,-3.4 3.2,-0.8 2.8,-2.4 -2,-7.2 l -4.2,-4.2 5.5,-2.5 c 13.7,-6.3 32,-4.9 44.9,3.4 9.3,6 16.3,15.2 20.1,26.2 1.7,5.2 2,8.1 1.7,16.8 -0.3,9.7 -0.6,11.1 -4,18.3 -5,10.4 -13,18.5 -23.2,23.3 -6.5,3.1 -9,3.7 -17.4,4.3 -7.7,0.5 -9.7,0.9 -9.7,2.1 0,2.3 13.1,2.6 20.3,0.5 23,-6.7 38.2,-26.6 38.3,-50 0,-10 -1.3,-16.2 -5.2,-24.1 -12.8,-25.9 -44.5,-36.3 -70.7,-23 -2.9,1.5 -5.2,3.2 -5.2,3.8 0,0.7 1.5,2.7 3.2,4.5 2.4,2.5 2.9,3.6 2,4.2 -1.3,0.8 -19.3,3.4 -19.7,2.9 -0.1,-0.2 0.5,-5.4 1.3,-11.7 l 1.5,-11.4 3.4,3.6 c 1.8,2.1 3.8,3.7 4.3,3.7 0.6,0 3.7,-1.3 6.8,-2.9 18.6,-9.4 39.8,-8.7 56,1.9 12,7.7 21.2,20.3 24.7,33.6 1.9,7.4 1.9,21.3 0,28.7 -4.6,17.8 -18.5,32.6 -36.9,39.4 -2.3,0.8 -9.3,1.8 -15.6,2.2 -9.3,0.5 -11.5,0.9 -11.5,2.1 0,2.3 16.5,2.6 24.7,0.5 20.4,-5.3 38,-22.8 43.2,-43.1 2.1,-8 2.1,-22.8 0,-30.8 -5.3,-20.7 -23.6,-38.7 -44.4,-43.7 -7.8,-1.9 -22.2,-1.6 -29.4,0.5 -3.3,1 -8.6,3.1 -11.7,4.6 l -5.7,2.9 -4.1,-4.9 c -4.2,-5 -5.5,-5.8 -6.5,-4.1 z"/>
<path d="M 244.7,148.7 c -0.4,0.3 -0.7,9 -0.7,19.2 l 0,18.6 10.8,10.8 c 5.9,5.9 11.3,10.7 12,10.7 3.2,0 0.3,-4.4 -8.8,-13.5 l -10,-10 0,-18.2 c 0,-14.6 -0.3,-18.3 -1.3,-18.3 -0.8,0 -1.7,0.3 -2,0.7 z"/>
<path d="M 191.2,160.5 c -1.6,3.6 -1.5,6.5 0.3,6.5 1.6,0 4.8,-6.6 3.9,-8.1 -1,-1.7 -3.1,-0.9 -4.2,1.6 z"/>
<path d="M 198,165.6 c -2,4.7 -1.9,6.4 0.4,6.4 1.3,0 4.6,-7.2 4.6,-9.8 0,-3 -3.2,-0.8 -5,3.4 z"/>
<path d="M 187.7,171.7 c -0.3,0.4 -0.8,2.9 -1.2,5.4 -0.7,4.7 0.6,7.2 2.6,5.2 1.4,-1.4 1.6,-10.5 0.2,-11 -0.6,-0.2 -1.3,0 -1.6,0.4 z"/>
<path d="M 195.2,177.2 c -0.7,0.7 -1.2,3.4 -1.2,6.1 0,4.1 0.3,4.8 1.8,4.5 1.3,-0.2 1.8,-1.5 2,-5.2 0.3,-5.2 -0.7,-7.3 -2.6,-5.4 z"/>
<path d="M 186.4,188.5 c -0.8,2 0.2,8.5 1.6,9.9 1.9,1.9 2.9,-0.8 2.2,-5.8 -0.7,-5 -2.7,-7.1 -3.8,-4.1 z"/>
<path d="M 195.4,193.5 c -0.9,2.3 1.4,9.5 3.2,10.2 2.4,0.9 2.8,-0.4 1.4,-5.2 -1.5,-5.3 -3.6,-7.6 -4.6,-5 z"/>
<path d="M 189.4,204.4 c -0.8,2 2.8,9 4.9,9.4 2.2,0.4 2.2,-0.6 -0.3,-6.2 -1.9,-4.6 -3.6,-5.8 -4.6,-3.2 z"/>
<path d="M 201.4,208.5 c -0.8,1.9 4.3,9.5 6.2,9.5 2.1,0 1.7,-2.6 -1.2,-7 -2.9,-4.3 -4.1,-4.9 -5,-2.5 z"/>
<path d="M 196.5,218.1 c -0.8,1.2 4,8.5 6.1,9.3 2.9,1.1 2.5,-2.4 -0.6,-6.4 -3.3,-4.1 -4.4,-4.7 -5.5,-2.9 z"/>
<path d="M 211.5,221.1 c -0.8,1.1 2.8,5.5 5.9,7.1 1.3,0.7 2.2,0.6 3,-0.2 0.8,-0.9 0.1,-2 -2.9,-4.6 -4.4,-3.7 -5,-3.9 -6,-2.3 z"/>
<path d="M 207.4,230.2 c -0.9,1.4 6.4,8 8.5,7.6 2.8,-0.6 2.1,-2.6 -2.1,-5.7 -4.6,-3.4 -5.3,-3.6 -6.4,-1.9 z"/>
<path d="M 224.7,229.7 c -1.5,1.4 -0.5,3 2.8,4.6 2,0.9 4.5,1.7 5.5,1.7 3.6,0 2.1,-2.9 -2.6,-5 -5.3,-2.3 -4.9,-2.2 -5.7,-1.3 z"/>
<path d="M 221,239.4 c 0,1.6 5.8,4.6 9.1,4.6 2.9,0 2.3,-2.9 -0.8,-4.1 -5.5,-2.1 -8.3,-2.3 -8.3,-0.5 z"/>
<path d="M 298.4,242.9 c -11.7,3.2 -19,7.5 -28,16.5 -12.5,12.5 -18,25.8 -17.8,43.1 0.4,32.9 27.8,59.9 60.9,59.8 16.2,0 30.4,-6.1 42.6,-18.3 31.7,-31.5 19.3,-84.8 -23.3,-99.7 -10,-3.6 -24.3,-4.1 -34.4,-1.4 z m 27.7,11.7 c 12.1,3.6 21.5,10.6 28.1,20.8 14.6,22.6 7.8,52.9 -15.1,67.5 -8.5,5.4 -16.2,7.3 -28.1,6.9 -9.8,-0.3 -11.1,-0.6 -18.5,-4.2 -10.7,-5.2 -18.3,-12.8 -23.3,-23.3 -3.4,-7.2 -3.7,-8.6 -4,-18.5 -0.4,-8.9 -0.1,-11.7 1.8,-17.2 5.3,-15.9 17.6,-27.5 34,-32.2 6.4,-1.8 18.7,-1.7 25.1,0.2 z"/>
<path d="M 332,268.1 c -0.8,1.3 -1.9,1.9 -3.4,1.7 -3.5,-0.4 -5.8,1.9 -4.4,4.5 0.9,1.8 0.7,2.3 -1.1,3.5 -2.7,1.8 -2.7,4.3 0,6 1.5,1 1.9,2 1.5,3.7 -0.8,3.1 1.7,5.3 4,3.4 1.4,-1.1 1.9,-1 3.4,0.9 2.3,2.8 5.6,2.9 6.3,0.1 0.5,-1.7 1.1,-2 2.8,-1.6 3.3,0.9 4.9,-0.9 4.2,-4.4 -0.5,-2.5 -0.2,-3.1 1.6,-3.6 2.9,-0.7 2.7,-3.7 -0.4,-5.7 -2,-1.3 -2.3,-2 -1.5,-3.5 1.3,-2.5 -1,-4.4 -4.3,-3.6 -1.9,0.5 -2.8,0.2 -3.7,-1.4 -1.4,-2.7 -3.6,-2.7 -5,0 z m 6.8,11.7 c 0.4,4.2 -2.8,6.1 -6.4,3.7 -2.9,-1.9 -3.1,-3.8 -0.4,-6.5 2.8,-2.8 6.4,-1.3 6.8,2.8 z"/>
<path d="M 293.7,284.6 c -2.4,1.3 -2.8,2 -2.2,4.1 0.4,1.6 0,3.4 -1,5 -1.3,2 -2.3,2.4 -5.2,2.1 -2.8,-0.2 -3.7,0.2 -4.9,2.2 -1.7,3.2 -1.8,5.7 0,6.7 3.6,2.1 3.7,8.6 0.1,9.9 -1.9,0.8 -1.9,2.7 0.1,6.5 1.2,2.5 2,3 3.9,2.5 1.5,-0.4 3.2,0.2 5,1.6 2.2,1.7 2.6,2.6 2.1,5.3 -0.6,3.1 -0.4,3.4 3.5,4.9 4,1.6 4.1,1.6 6.1,-0.9 2.5,-3.2 6.2,-3.2 9.3,0.1 l 2.3,2.5 3.9,-2 c 3.6,-1.8 3.9,-2.2 3.5,-5.4 -0.5,-4.2 2.5,-6.9 6.8,-6.1 2.3,0.5 2.8,0.1 4.5,-3.7 1.5,-3.2 1.6,-4.4 0.7,-4.7 -5.3,-1.7 -5.4,-9.6 -0.1,-11.4 0.7,-0.2 0.5,-1.7 -0.6,-4.5 -1.5,-3.9 -1.9,-4.1 -4.8,-3.6 -4.3,0.7 -7.2,-2.4 -6.4,-6.5 0.5,-2.5 0.2,-3.1 -2.9,-4.5 -4.5,-2.2 -5.2,-2.1 -7.3,0.4 -1,1.3 -2.9,2.1 -4.6,2.1 -1.9,0 -3.4,-0.7 -4.3,-2.1 -1.7,-2.5 -3.6,-2.6 -7.5,-0.5 z m 19.1,18.9 c 6.2,7.2 -1.5,17.7 -10.3,14.1 -6.3,-2.7 -7.5,-9.8 -2.5,-14.8 2.7,-2.6 3.6,-3 6.8,-2.5 2.2,0.4 4.6,1.7 6,3.2 z"/>
<path d="M 27,279.5 l 0,5.5 6,0 6,0 0,-5.5 0,-5.5 -6,0 -6,0 0,5.5 z"/>
<path d="M 51,279.5 l 0,5.5 5.5,0 5.5,0 0,-5.5 0,-5.5 -5.5,0 -5.5,0 0,5.5 z"/>
<path d="M 74,279.5 l 0,5.5 6,0 6,0 0,-5.5 0,-5.5 -6,0 -6,0 0,5.5 z"/>
<path d="M 98,279.5 l 0,5.5 5.5,0 5.5,0 0,-5.5 0,-5.5 -5.5,0 -5.5,0 0,5.5 z"/>
<path d="M 121,279.5 l 0,5.5 6,0 6,0 0,-5.5 0,-5.5 -6,0 -6,0 0,5.5 z"/>
<path d="M 145,279.5 l 0,5.5 5.5,0 5.5,0 0,-5.5 0,-5.5 -5.5,0 -5.5,0 0,5.5 z"/>
<path d="M 168,279.5 l 0,5.5 6,0 6,0 0,-5.5 0,-5.5 -6,0 -6,0 0,5.5 z"/>
<path d="M 192,279.5 l 0,5.5 5.8,0 5.7,0 0,-5.5 0,-5.5 -5.7,0 -5.8,0 0,5.5 z"/>
<path d="M 215,279.5 l 0,5.5 6,0 6,0 0,-5.5 0,-5.5 -6,0 -6,0 0,5.5 z"/>
<path d="M 239,279.5 l 0,5.5 3.4,0 c 3.1,0 3.4,-0.3 5.3,-5.5 l 2.1,-5.5 -5.4,0 -5.4,0 0,5.5 z"/>
</svg>
