<svg xmlns="http://www.w3.org/2000/svg" viewBox="0 0 384 384">
<path d="M 149.5,17.5 l -2.5,2.4 0,90.6 c 0,89.8 0,90.7 -2,92.3 -2,1.6 -2,1.9 -0.4,7.2 0.9,3 1.8,9.3 2.1,14 0.5,8.3 0.4,8.6 -2.4,11.2 l -2.9,2.8 -5.2,-3.5 c -2.9,-2 -5.2,-4.2 -5.2,-4.9 0,-0.7 0.7,-3 1.5,-5.1 1.8,-4.2 1.3,-7 -1.9,-9 -3.8,-2.5 -14.7,-5.5 -24.4,-6.7 -12.3,-1.6 -14.6,-0.6 -15,6.7 -0.4,6 -1.2,7.1 -6,7.9 -2,0.3 -4.7,0.9 -5.8,1.2 -1.8,0.5 -2.4,-0.1 -3.9,-4.1 -2.6,-6.5 -5.5,-7.9 -11.8,-5.4 -11.8,4.7 -27.7,17.2 -27.7,21.9 0,1.1 1.6,3.7 3.5,5.9 1.9,2.1 3.5,4.1 3.5,4.5 0,0.8 -7,10.6 -7.6,10.6 -0.3,0 -2.1,-0.7 -4.1,-1.5 -4.8,-2 -7.6,-1.9 -9.7,0.4 -3.2,3.6 -6.8,16.9 -7.3,27.7 -0.6,9.8 -0.5,10.2 1.8,11.7 1.4,1 4.3,1.7 7,1.7 l 4.7,0 1.2,6.5 c 0.7,3.6 1.1,6.7 0.9,6.8 -0.2,0.1 -2.6,1.3 -5.4,2.7 -4,2 -5.1,3.1 -5.3,5.3 -0.5,3.9 7.8,19 14.5,26.5 6.7,7.6 9.3,8 15.2,2.7 l 3.9,-3.6 5.1,3.8 c 5.4,4 5.9,5.3 3.6,9.3 -2.1,3.6 -1.8,6.3 0.8,8.8 3,2.9 18.5,7.2 28.3,7.9 7.4,0.5 8.3,0.4 10.3,-1.6 1.5,-1.5 2.1,-3.4 2.1,-6.4 0,-5.6 0.7,-6.3 6.2,-7 2.5,-0.4 5.2,-0.8 5.8,-0.9 0.7,-0.2 2.4,1.9 3.9,4.7 2.3,4.4 3,5 6.2,5.3 8.1,0.7 32.9,-16.4 32.9,-22.7 0,-1 -1.6,-3.6 -3.5,-5.8 -1.9,-2.3 -3.5,-4.4 -3.5,-4.7 0,-0.3 1.6,-2.9 3.6,-5.7 2.7,-3.7 4.1,-4.8 5.3,-4.3 4.8,2.1 9.3,2.8 10.9,1.8 6.1,-3.8 12.3,-36.6 7.6,-40.5 -0.8,-0.7 -3.9,-1.4 -6.9,-1.7 -5.9,-0.5 -5.7,-0.3 -7,-9.3 l -0.7,-4.5 4.2,-1.4 c 4.3,-1.4 7,-4.2 7,-7.2 0,-2.4 -7.1,-15.9 -10.9,-20.7 -1.7,-2.1 -3.1,-4.2 -3.1,-4.5 0,-0.3 7.2,-0.6 15.9,-0.6 l 15.9,0 0.7,2.9 c 1,4.8 2.6,5.4 8.9,3.8 3,-0.8 7.6,-2.7 10.2,-4.1 2.6,-1.4 5.9,-2.6 7.5,-2.6 2.6,0 2.9,0.3 2.9,3.2 0,4.5 -0.6,5.1 -7.2,7.1 -3.2,1 -7.1,3 -8.8,4.4 l -3.1,2.6 -4.4,-3.2 c -5,-3.6 -6.6,-3.8 -8.8,-1.3 -2.3,2.6 -5.5,10.1 -6.3,14.9 -0.5,3.5 -0.3,4.3 1.4,5.2 1.1,0.6 3.4,1.1 5.1,1.1 4.7,0 6,0.9 6.7,4.8 0.8,4.4 2.9,8.9 5.6,11.9 l 2,2.1 -3.1,4.6 c -1.7,2.4 -3.1,5.1 -3.1,5.9 0,3.1 8.9,8 16.7,9.3 4.8,0.7 5.5,0 6.3,-6.9 l 0.5,-4.8 6.5,-2.2 c 3.6,-1.2 7.8,-3.2 9.4,-4.4 l 2.8,-2.3 4.3,3 c 6.5,4.5 8.1,4.1 11.5,-3.1 3.9,-8.4 4.8,-13.8 2.4,-15.6 -1,-0.7 -3.4,-1.3 -5.3,-1.3 -4.9,0 -5.6,-0.7 -7.4,-7 -0.9,-3 -2.7,-7 -4.1,-8.9 l -2.5,-3.4 2.9,-4.3 c 3.6,-5.1 3.7,-7 0.8,-9.5 -2.3,-1.8 -1.5,-1.8 38.8,-1.9 40.1,0 41.2,-0.1 43.8,-2.1 l 2.6,-2 0,-40.2 0,-40.1 22.4,-22.6 22.4,-22.5 0.7,-5.6 c 0.8,-6.7 -0.1,-7.4 -7.3,-5.8 -4.4,0.9 -6.2,2.4 -20.7,16.9 -8.7,8.7 -16.2,15.7 -16.7,15.4 -0.4,-0.3 -0.8,-25 -0.8,-54.9 l 0,-54.4 -2.6,-2 c -2.7,-2.1 -3.2,-2.1 -88.6,-2.1 l -85.9,0 -2.4,2.5 z m 163.9,14.1 c 0.3,0.9 0.6,26.8 0.6,57.6 l 0,56.1 -12,12.2 c -9.2,9.4 -12,12.9 -12,14.9 0,1.6 -1.4,4.2 -3.7,6.7 -2.9,3.2 -3.5,4.4 -2.6,5.7 1.8,2.9 5.6,2.6 8.8,-0.8 1.6,-1.7 3.9,-3 5.3,-3 1.5,0 4.5,-2.1 8.6,-6 3.5,-3.3 6.6,-5.7 6.9,-5.3 0.9,0.8 0.9,48.6 0.1,50.7 -0.5,1.4 -5.6,1.6 -46.9,1.6 -30.1,0 -46.6,-0.4 -47,-1 -0.3,-0.6 0.2,-2.2 1.3,-3.8 2.6,-3.6 5.2,-11.5 5.2,-15.7 0,-5.2 0.9,-6.5 4.5,-6.5 1.9,0 3.9,-0.8 4.9,-1.9 1.5,-1.6 1.6,-2.5 0.6,-6.3 -1.8,-6.5 -7.9,-17.6 -10.2,-18.4 -1.3,-0.4 -3.2,0.3 -5.6,2 l -3.6,2.5 -4.8,-3.6 c -6.2,-4.5 -13.6,-7.3 -19.3,-7.3 -5,0 -5.2,-0.2 -6.1,-5.8 l -0.6,-4.2 22.7,-0.2 c 20.4,-0.3 22.9,-0.5 23.9,-2.1 0.8,-1.2 0.8,-2.2 0,-3.5 -1,-1.5 -3.5,-1.7 -25,-2 -13.1,-0.1 -24.9,0 -26.1,0.3 -1.9,0.4 -2.3,1.2 -2.3,4.1 0,2.4 -0.5,3.6 -1.7,4 -1,0.3 -4.6,1.8 -7.9,3.4 -3.4,1.6 -6.5,2.6 -6.8,2.3 -0.3,-0.4 -0.6,-28.8 -0.6,-63.3 0,-47.3 0.3,-62.9 1.2,-63.8 0.9,-0.9 19,-1.2 75.4,-1.2 66.7,0 74.2,0.2 74.8,1.6 z m -132.3,131 c 0.9,4.9 1.7,5.4 7.3,5.4 7.8,0 14.9,2.5 20.9,7.3 7.3,6 7,5.9 10.7,3.2 1.9,-1.4 3.7,-2.5 4.1,-2.5 0.8,0 4.6,7.7 5.1,10.4 0.2,1.5 -0.7,2.1 -4.2,3 l -4.5,1.1 -0.6,8.1 c -0.7,9 -4,16.6 -9.2,21 -2.8,2.3 -3.3,2.4 -20.6,2.4 l -17.8,0 -5.2,-4.2 -5.1,-4.2 0,-12 c 0,-14.7 0.9,-18 6,-23.9 4.5,-5.1 4.8,-6.4 2,-10 -1.1,-1.4 -2,-2.9 -2,-3.4 0,-1.3 8.2,-5.2 10.5,-5 1.3,0.1 2.1,1.2 2.6,3.3 z m -17.2,8.9 c 0.3,1.2 -1.3,0.9 -1.7,-0.4 -0.2,-0.7 0,-1.1 0.6,-0.7 0.5,0.3 1,0.8 1.1,1.1 z m -48.1,51.7 c 2.5,0.8 3.2,1.4 2.7,2.7 -3.8,9.2 -3.2,11.1 4.4,15.1 3.3,1.8 8.3,5.2 11.1,7.6 6.1,5.2 8.7,5.5 13.3,1.4 1.9,-1.7 3.9,-3 4.3,-3 1.2,0 7.6,9.5 7.7,11.6 0.2,1.2 -1.1,2.1 -4.1,3.1 -5.8,2 -6.7,4.5 -4.2,12.2 1,3.3 2.2,9.1 2.6,13 0.3,3.9 1.2,7.8 1.9,8.7 0.7,1 3.2,1.9 6.4,2.2 2.8,0.2 5.3,0.8 5.6,1.1 0.8,1.4 -2.7,14.1 -3.8,14.1 -0.7,0 -3,-0.6 -5.1,-1.4 -2.1,-0.7 -4.7,-1.1 -5.7,-0.9 -1,0.3 -3.5,3.5 -5.5,7 -2,3.6 -5.1,8.2 -6.9,10.2 -6.3,7 -6.5,10 -1.1,15 1.4,1.4 2.6,2.8 2.6,3.2 0,1.2 -10.2,7.9 -12,7.9 -0.9,0 -2.4,-1.9 -3.5,-4.2 -2.9,-6.1 -4.1,-6.5 -12.6,-4 -4.1,1.2 -9.6,2.2 -12.2,2.2 -4.8,0 -8.5,1.3 -9.9,3.4 -0.4,0.6 -0.8,3 -0.8,5.4 0,5.4 -1.3,5.9 -9.4,4.1 -6.6,-1.6 -6.5,-1.5 -4.4,-8.6 1.1,-3.8 1,-4.4 -0.8,-6.4 -1,-1.1 -4,-3.2 -6.5,-4.4 -2.5,-1.3 -7.1,-4.4 -10.1,-6.9 -3.1,-2.5 -6.6,-4.6 -7.7,-4.6 -1.2,0 -3.8,1.6 -6,3.5 l -3.9,3.5 -2.4,-3.2 c -3.5,-4.9 -5.8,-8.6 -5.8,-9.7 0,-0.5 2.1,-1.7 4.6,-2.7 6.1,-2.3 6.8,-4.5 4.3,-12.5 -1.1,-3.5 -2.3,-9.4 -2.6,-13.1 -0.7,-8.1 -2.3,-10 -9.1,-10.8 -4.7,-0.5 -4.7,-0.5 -4.4,-4 0.6,-6.2 2.2,-11 3.8,-11 0.8,0 2.9,0.7 4.6,1.6 4.8,2.5 7.2,1.2 11.3,-6.1 2,-3.6 5.4,-8.5 7.5,-11 5,-5.7 5.2,-9.1 1,-13.8 -1.6,-1.9 -3,-3.7 -3,-4.1 0,-0.8 10.9,-7.6 12.3,-7.6 0.7,0 1.9,1.9 2.7,4.2 2,5.6 4.9,6.7 12.2,4.5 2.9,-1 8.6,-2.1 12.6,-2.6 9,-1.1 11.2,-2.8 11.2,-8.6 0,-2.3 0.3,-4.5 0.7,-4.9 0.8,-0.8 7.1,0 12.1,1.6 z m 118.7,18.2 c 1.9,0.8 3.5,1.9 3.5,2.4 0,0.4 -1.1,2.3 -2.5,4.2 -3.2,4.3 -3.2,7 0.1,10.1 3.6,3.4 4.6,5.5 5.9,12.4 l 1.1,6 5.1,1 c 2.8,0.5 5.4,1.3 5.8,1.6 0.8,0.9 -2.1,7.9 -3.3,7.9 -0.4,0 -2.3,-1.1 -4.2,-2.5 -4.3,-3.2 -6.9,-3.1 -9.9,0.1 -3.4,3.5 -7.1,5.3 -13.3,6.2 -5.7,0.8 -6.5,1.9 -6.7,8.9 -0.1,1.8 -0.6,3.3 -1.1,3.3 -1.9,0 -8,-2.9 -8,-3.8 0,-0.5 1.3,-2.6 3,-4.8 1.6,-2.1 3,-4.4 3,-5 0,-0.5 -1.4,-2.3 -3.1,-4 -4.2,-4 -5.9,-7.5 -5.9,-12.6 0,-2.4 -0.4,-4.8 -0.8,-5.5 -0.4,-0.6 -3.1,-1.5 -6,-1.9 -2.9,-0.4 -5.5,-1 -5.8,-1.5 -0.6,-1.1 2.3,-7.9 3.4,-7.9 0.5,0 2,0.8 3.3,1.9 5.7,4.4 6.4,4.4 11.3,0.2 3.4,-2.9 6,-4.3 10.3,-5.1 3.2,-0.7 6.3,-1.4 6.9,-1.5 0.6,-0.2 1.5,-2.5 1.9,-5.2 1,-7.1 0.9,-7 6,-4.9 z"/>
<path d="M 179.7,56.7 c -1.4,1.3 -0.6,5.3 1.2,6.3 1.3,0.6 21.3,1 58,1 49.5,0 56.1,-0.2 57.5,-1.6 1.9,-1.8 1.9,-2 0.6,-4.5 -1,-1.8 -2.7,-1.9 -58.9,-1.9 -31.8,0 -58.1,0.3 -58.4,0.7 z"/>
<path d="M 179.7,78.7 c -1.1,1.1 -0.8,4.8 0.5,6.1 0.9,0.9 15.1,1.2 57.9,1.2 50.3,0 56.9,-0.2 58.3,-1.6 1.9,-1.8 1.9,-2 0.6,-4.5 -1,-1.8 -2.7,-1.9 -58.9,-1.9 -31.8,0 -58.1,0.3 -58.4,0.7 z"/>
<path d="M 180.3,100.7 c -1.9,0.7 -1.6,6 0.3,6.7 0.9,0.3 26.9,0.6 57.9,0.6 49.9,0 56.5,-0.2 57.9,-1.6 1.9,-1.8 1.9,-2 0.6,-4.5 -1,-1.8 -2.7,-1.9 -58.3,-1.8 -31.5,0 -57.8,0.3 -58.4,0.6 z"/>
<path d="M 180.3,122.7 c -1.9,0.7 -1.6,6 0.3,6.7 0.9,0.3 26.9,0.6 57.9,0.6 49.9,0 56.5,-0.2 57.9,-1.6 2,-1.9 2,-2.9 0,-4.8 -1.4,-1.4 -8,-1.6 -58.2,-1.5 -31.2,0 -57.3,0.3 -57.9,0.6 z"/>
<path d="M 257.6,189.6 c -1.9,1.9 -2,3.6 -0.4,5.2 1.3,1.3 20.2,1.7 23.2,0.6 2.2,-0.9 2,-5.1 -0.3,-6.4 -1.1,-0.5 -6.2,-1 -11.5,-1 -7.3,0 -9.8,0.4 -11,1.6 z"/>
<path d="M 355.8,130.7 c -9.3,9.3 -17.1,17.9 -17.5,19.1 -0.7,3 1.7,5.6 4.4,4.8 3.3,-1.1 35.3,-34.1 35.3,-36.4 0,-1.9 -2.6,-4.2 -4.6,-4.2 -0.4,0 -8.4,7.5 -17.6,16.7 z"/>
</svg>
