<svg xmlns="http://www.w3.org/2000/svg" viewBox="0 0 384 384">
<path d="M 28.7,28.4 c -5.5,2 -10.3,6.1 -13.4,11.4 l -2.8,4.7 -0.3,90.7 -0.2,90.8 69.8,0 c 54.5,0 70.1,-0.3 71.1,-1.3 1.1,-1 1.2,-0.6 0.7,1.9 -0.7,3 -0.4,3.3 5.9,7.2 5.5,3.5 6.5,4.5 6,6.4 -9.8,43.5 11.5,86.7 52.1,105.4 13.5,6.3 20.9,7.8 38.4,7.8 14,-0.1 16.4,-0.3 24.5,-2.8 33.5,-10.2 56.5,-34 65.1,-67.1 2.3,-9.2 2.5,-11.2 2,-24.5 -0.3,-8 -0.8,-16.1 -1.1,-18 -0.6,-3.4 -0.4,-3.6 5.4,-7.2 3.7,-2.3 6.1,-4.4 6.1,-5.5 0,-2.7 -24.1,-42.3 -25.7,-42.3 -0.8,0 -4.1,1.6 -7.4,3.5 l -5.9,3.4 -8.5,-6.2 -8.5,-6.2 0,-16.1 c 0,-13.8 -0.2,-16.4 -1.7,-17.5 -1.3,-1.1 -9.6,-1.5 -42.2,-1.7 -43.1,-0.3 -47.4,0 -48.4,4 -0.4,1.2 -0.9,1.9 -1.3,1.6 -1.2,-1.2 0.6,-4.3 3.3,-5.6 1.5,-0.6 6,-1.2 10,-1.2 l 7.3,0 0,-48.3 c 0,-28.7 -0.4,-49.6 -1,-51.8 -1.4,-5.1 -7.6,-11.8 -13.4,-14.5 l -5.1,-2.4 -88.5,0.1 c -71.3,0 -89.2,0.2 -92.3,1.3 z m 18.4,20.9 c 7.1,4.8 7.1,15.6 0,20.4 -10.7,7.2 -24.4,-4.4 -18.6,-15.7 3.7,-7.1 11.9,-9.2 18.6,-4.7 z m 41.5,1 c 6.4,5.8 5.5,15.2 -1.9,19.7 -8.6,5.3 -18.7,-0.4 -18.7,-10.5 0,-7.6 4.9,-12.4 12.8,-12.5 3.4,0 4.9,0.6 7.8,3.3 z m 38.4,-1.8 c 8,4.1 7.9,17.2 0,21.9 -8.3,4.8 -19,-1.8 -19,-11.8 0,-3.1 0.7,-4.5 3.9,-7.7 3.2,-3.3 4.5,-3.9 8,-3.9 2.3,0 5.5,0.7 7.1,1.5 z m 41.4,0.6 c 5.6,4.4 7,11 3.6,16.6 -5.3,8.8 -18.7,8 -22.6,-1.4 -2.6,-6 0.4,-14.1 6,-16.3 4,-1.6 10.2,-1.1 13,1.1 z m 39.6,-0.4 c 10.5,6.2 5.9,23.3 -6.2,23.3 -4.8,0 -9.4,-2.5 -11.4,-6.2 -1.8,-3.1 -1.7,-9.3 0.1,-12.8 2.9,-5.6 11.7,-7.8 17.5,-4.3 z m -136.2,74.2 c 0.2,22.3 -0.1,31.8 -0.9,32.7 -1.4,1.8 -12,1.9 -13.7,0.2 -0.9,-0.9 -1.2,-7.7 -1.2,-24.5 0,-12.8 -0.3,-23.3 -0.6,-23.3 -0.3,0 -3.1,2.2 -6.2,5 -3.1,2.7 -6,5 -6.4,5 -0.4,0 -0.8,-3.3 -0.8,-7.4 l 0,-7.3 7.1,-6.2 7.1,-6.2 7.7,0.3 7.6,0.3 0.3,31.4 z m 136.2,-27.4 l 0,2.5 -52,0 -52,0 0,-2.5 0,-2.5 52,0 52,0 0,2.5 z m 0,19 l 0,2.5 -52,0 c -49.8,0 -52,-0.1 -52,-1.8 0,-1 0.3,-2.2 0.7,-2.5 0.3,-0.4 23.7,-0.7 52,-0.7 l 51.3,0 0,2.5 z m 0,19 l 0,2.5 -52,0 c -49.8,0 -52,-0.1 -52,-1.8 0,-1 0.3,-2.2 0.7,-2.5 0.3,-0.4 23.7,-0.7 52,-0.7 l 51.3,0 0,2.5 z m 82.8,32.2 c 0.2,6.1 -0.1,9.3 -0.8,9.3 -0.6,0 -2.6,-0.7 -4.6,-1.5 -14.8,-6.2 -46.4,-6.1 -60.1,0.1 -1.7,0.8 -3.4,1.4 -3.7,1.4 -0.3,0 -0.6,-4.3 -0.6,-9.5 l 0,-9.5 34.8,0.2 34.7,0.3 0.3,9.2 z m -81.8,12.8 c 0,1.7 -1.3,3.3 -4.6,5.6 -2.5,1.7 -6.1,4.5 -8,6.1 l -3.5,3.1 -5.8,-3.7 c -7.4,-4.5 -9.1,-4.5 -11.5,-0.1 -1.1,1.9 -2.3,3.5 -2.7,3.5 -1,0 2.7,-6.4 4.7,-8 0.7,-0.7 1.4,-2.5 1.4,-4 0,-1.5 0.6,-3.2 1.3,-3.8 1.2,-1 26,-2.2 28,-1.4 0.4,0.2 0.7,1.4 0.7,2.7 z m 63.5,3.1 c 16.4,3.4 30.4,11.3 41.9,23.5 10.2,10.8 15,18.9 19.9,33.9 1.9,5.5 2.2,8.8 2.2,22 0,13.5 -0.3,16.5 -2.3,23 -5.8,18.1 -15.6,32.2 -30.1,42.9 -8.3,6.1 -14.3,9.1 -25.1,12.6 -7.6,2.5 -10.1,2.8 -22.5,2.9 -16.7,0.1 -24.8,-1.8 -39,-9.2 -7.3,-3.8 -10.9,-6.6 -19.1,-14.7 -8.9,-8.9 -10.6,-11.2 -15.3,-20.6 -5.8,-11.9 -9.1,-24.8 -9.1,-36.4 0,-14.9 8,-41 12.6,-41 3.1,0 7,-3 19.2,-14.9 12,-11.7 14.3,-14.6 11.8,-14.6 -2.6,0 -16.6,12 -23.9,20.6 -3.9,4.6 -7.3,8.1 -7.5,7.9 -0.8,-0.8 6.4,-10.2 12.3,-16.1 6.9,-6.9 18.2,-14.7 20.3,-13.9 0.7,0.2 1.1,0.1 0.8,-0.4 -0.8,-1.2 7.9,-4.8 17.1,-7 9.9,-2.5 25.4,-2.7 35.8,-0.5 z m -87.7,13.4 c 1.7,1.1 3.2,2.2 3.2,2.5 0,0.3 -1.9,2.9 -4.2,5.8 -2.4,2.9 -5.1,6.3 -6,7.7 -0.9,1.4 -1.7,2 -1.7,1.3 -0.1,-0.6 0.5,-1.8 1.2,-2.5 0.7,-0.7 1.4,-3.6 1.6,-6.3 0.3,-4.9 0.2,-5 -1.6,-3 -1,1.1 -2.4,3.1 -3,4.5 -0.8,1.6 -1.2,1.9 -1.2,0.9 -0.1,-0.9 0.8,-2.8 1.9,-4.2 1.1,-1.4 2,-2.8 2,-3.1 0,-1 3.2,-5.6 3.9,-5.6 0.3,0 2.1,0.9 3.9,2 z m 156.4,14.6 c 5.4,8.7 9.7,16.5 9.5,17.2 -0.1,0.7 -1.6,2.2 -3.4,3.3 l -3.1,2 -5,-10.3 c -2.7,-5.7 -7.4,-13.5 -10.5,-17.5 l -5.6,-7.2 3.2,-2 c 1.8,-1.1 3.7,-1.9 4.2,-1.8 0.6,0.2 5.4,7.5 10.7,16.3 z m -169.2,-13.5 c -0.7,1.1 -1.4,1.8 -1.7,1.5 -0.8,-0.8 0.5,-3.6 1.7,-3.6 0.7,0 0.7,0.6 0,2.1 z m -4.7,7.4 c -1.3,2.5 -2.9,4.5 -3.4,4.5 -0.5,0 0.4,-2 1.9,-4.5 1.5,-2.5 3,-4.5 3.4,-4.5 0.4,0 -0.5,2 -1.9,4.5 z m -5.2,8.8 c -0.8,0.8 -1.1,0.7 -1.1,-0.4 0,-0.9 0.3,-1.9 0.7,-2.3 0.4,-0.4 0.9,-0.2 1.1,0.4 0.3,0.7 -0.1,1.7 -0.7,2.3 z m 8,0.5 c -0.6,1.1 -1.7,2.6 -2.4,3.4 -0.7,0.7 -1.8,2.4 -2.4,3.8 -0.8,1.6 -1.2,1.9 -1.2,0.9 -0.1,-0.9 0.8,-2.8 1.9,-4.2 1.1,-1.4 2,-2.9 2,-3.4 0,-1.1 2.2,-3.4 2.8,-2.9 0.2,0.2 -0.1,1.3 -0.7,2.4 z m -11.8,5.7 c -1.3,2.5 -2.9,4.5 -3.4,4.5 -0.5,0 0.4,-2 1.9,-4.5 1.5,-2.5 3,-4.5 3.4,-4.5 0.4,0 -0.5,2 -1.9,4.5 z m 16.4,-2.1 c -0.7,1.4 -1.3,2.3 -1.5,2.1 -0.7,-0.6 0.9,-4.5 1.8,-4.5 0.4,0 0.3,1.1 -0.3,2.4 z m -3.6,6.8 c -1,1.8 -2.1,4.5 -2.5,6.1 -0.6,2.6 -0.7,2.7 -3.4,1.3 -5.4,-3 -5.4,-3 -3.6,-6.2 1.2,-2.3 1.5,-2.4 1.1,-0.7 -0.5,2 -0.1,2.3 2.8,2.3 2.7,0 3.5,-0.5 4.5,-3 0.7,-1.7 1.6,-3 2.1,-3 0.5,0 0,1.5 -1,3.2 z"/>
<path d="M 222.7,157.6 c -0.7,0.7 -1,15.4 -0.3,15.4 0.1,0 1.7,-0.5 3.5,-1.1 l 3.2,-1.1 -0.3,-6.7 c -0.3,-6.2 -0.4,-6.6 -2.8,-6.9 -1.4,-0.2 -2.9,0 -3.3,0.4 z"/>
<path d="M 253.5,185.3 c -0.4,1.3 -0.5,4.1 -0.3,6.3 0.2,3.1 0.7,3.9 2.3,3.9 1.8,0 2,-0.7 2,-6 0,-4.8 -0.3,-6 -1.7,-6.3 -1.1,-0.2 -1.9,0.5 -2.3,2.1 z"/>
<path d="M 251.6,208.2 c -1.4,1.9 -1.6,6.4 -1.6,28.5 0,25 0.1,26.4 2,28.3 1.9,1.9 3.3,2 22.5,2 19.2,0 20.6,-0.1 22.5,-2 2.5,-2.5 2.5,-4.2 0.3,-6.9 -1.7,-2 -2.9,-2.1 -18.8,-2.3 l -17,-0.3 -0.5,-23.8 c -0.4,-19.7 -0.8,-23.9 -2,-24.7 -2.6,-1.6 -5.8,-1.1 -7.4,1.2 z"/>
<path d="M 179,259.5 c -2.3,2.8 -0.4,4.5 4.8,4.5 5.8,0 8.2,-1.9 5.7,-4.4 -2.1,-2 -8.8,-2.1 -10.5,-0.1 z"/>
<path d="M 322,259.5 c -2.4,2.9 -0.4,4.5 5.4,4.5 4.2,0 5.5,-0.4 6,-1.7 0.5,-1.1 0.1,-2.2 -1,-3 -2.4,-1.8 -8.9,-1.6 -10.4,0.2 z"/>
<path d="M 253.4,328.4 c -0.3,0.7 -0.4,3.3 -0.2,5.7 0.2,3.7 0.7,4.5 2.6,4.7 2.1,0.3 2.2,0 2.2,-5.7 0,-5.5 -0.2,-6.1 -2,-6.1 -1.1,0 -2.3,0.6 -2.6,1.4 z"/>
</svg>
