<svg xmlns="http://www.w3.org/2000/svg" viewBox="0 0 384 384">
<path d="M 106.3,36.2 c -0.6,0.7 -1.5,16.5 -2.2,35.4 -0.6,18.8 -1.8,43.1 -2.6,54 -1,14.1 -1.5,37 -1.5,78.1 l 0,58.3 -9.9,0 c -9.2,0 -10.2,0.2 -13,2.5 -3.7,3.2 -3.9,3.8 -10.2,32 -7.5,33.5 -7.2,31.3 -5.2,35.4 1,2 2.9,4.1 4.3,4.8 2,1 30.4,1.3 130.1,1.3 127.1,0 127.6,0 130.2,-2 5.1,-4.1 5.1,-6.6 -0.9,-33.2 -3,-13.4 -6,-26.5 -6.6,-29.3 -2.1,-9.8 -5,-11.5 -18.9,-11.5 l -8.9,0 0,-61.3 c 0,-43.3 -0.5,-67.6 -1.5,-83.2 -0.9,-12.1 -1.8,-34.9 -2.2,-50.7 -0.6,-26.5 -0.8,-28.9 -2.5,-30.5 -1.5,-1.3 -2.3,-1.5 -3.6,-0.7 -1.5,1 -1.8,4.1 -2.4,25 -0.4,13.1 -1.2,32.2 -1.9,42.4 -0.6,10.2 -1.4,50.1 -1.6,88.7 l -0.4,70.3 -79,0 -78.9,0 0,-59.3 c 0,-43.6 -0.4,-65.3 -1.6,-82.2 -0.9,-12.7 -1.9,-36.3 -2.2,-52.6 -0.5,-22.8 -1,-30 -2.1,-31.2 -1.6,-2 -3.5,-2.2 -4.8,-0.5 z m 22.9,282.6 c 0.9,0.9 1,1.7 0.2,3 -0.9,1.4 -2.9,1.8 -11,2 -5.4,0.2 -10.9,0 -12.1,-0.3 -2.8,-0.7 -3.1,-3.9 -0.5,-5.5 2.4,-1.5 21.7,-0.9 23.4,0.8 z m 38.9,0.2 c 2.4,2 2.4,2 0.4,3.6 -1.6,1.2 -4.2,1.5 -12.7,1.2 -10.8,-0.3 -13.4,-1.2 -12.2,-4.1 0.8,-2.1 2.3,-2.4 13,-2.6 7.8,-0.1 9.5,0.2 11.5,1.9 z m 39.7,-0.4 c 2.2,1.5 2.2,1.7 0.6,3.5 -1.5,1.6 -3.2,1.9 -11.6,1.9 -10.1,0 -13.8,-0.9 -13.8,-3.5 0,-2.5 3.4,-3.4 13,-3.5 7.2,0 10.1,0.4 11.8,1.6 z m 39.3,-0.6 c 1,0.6 1.9,1.7 1.9,2.5 0,0.8 -0.9,1.9 -1.9,2.5 -2.5,1.3 -19.7,1.3 -22.2,0 -2.6,-1.4 -2.4,-3.9 0.4,-5 3.1,-1.2 19.4,-1.2 21.8,0 z m 40.9,1 c 0.5,0.8 1,1.8 1,2.3 0,2.9 -22,3.9 -25.6,1.2 -1.9,-1.5 -1.8,-1.5 0.6,-3.6 2.2,-1.9 3.5,-2 12.8,-1.7 7.8,0.2 10.5,0.7 11.2,1.8 z"/>
<path d="M 194.5,342 l -129,0.5 -0.3,4.2 c -0.5,6.3 1.6,7.3 15.8,7.3 11,0 11.6,0.1 12.5,2.2 0.9,2.2 1.7,2.3 11.8,2.6 10.4,0.3 10.8,0.2 13.1,-2.3 l 2.3,-2.5 74.8,0 74.8,0 2.3,2.5 c 2.2,2.3 2.9,2.5 12.4,2.5 9.5,0 10.2,-0.2 12.4,-2.5 2.2,-2.4 2.8,-2.5 13.8,-2.5 9.9,0 11.7,-0.3 13.1,-1.8 2.1,-2.3 2.4,-11.3 0.5,-11 -0.7,0.2 -59.3,0.5 -130.3,0.8 z"/>
</svg>
