<svg xmlns="http://www.w3.org/2000/svg" viewBox="0 0 384 384">
<path d="M 203.9,10.6 c -19.7,13.5 -28.1,22.5 -35.4,37.9 -6.6,13.9 -8.3,30.9 -4.6,45 4.6,17.9 14.3,33.5 37.2,60 20.7,23.9 28.4,45.7 19.6,55.4 -6.9,7.6 -23.9,7.7 -52.7,0.6 -7.4,-1.9 -18.8,-5.2 -25.2,-7.4 -16.1,-5.6 -25.9,-5.5 -30.7,0.3 -0.7,0.8 -1.3,3.8 -1.3,6.6 0.2,20.1 33,39.9 78.2,47.3 13.2,2.2 17.9,2.6 18.5,1.7 0.3,-0.4 -1,-1.3 -2.8,-2 -13.1,-5.2 -22.7,-11.6 -22.7,-15.2 0,-3.8 3.2,-4.3 33,-4.4 26.2,0 29.1,-0.2 36.5,-2.2 20.9,-5.9 28.6,-16.7 25.6,-36.2 -3.5,-23.3 -11.8,-36 -57,-88.2 -16.5,-19.1 -23.9,-30.9 -26.2,-41.7 -1.4,-6.8 -0.6,-22.2 1.6,-30.6 1.5,-6 10.4,-24.5 13.3,-27.8 2.8,-3.2 0.5,-2.8 -4.9,0.9 z"/>
<path d="M 254.3,24 c -6.8,4.1 -6.8,4.1 -6.8,38 0,33.3 0.1,34.2 5.8,38.4 2.8,2.1 3.8,2.1 47.1,2.1 48.6,0 47.8,0.1 51.6,-6.1 1.9,-2.9 2,-5.1 2,-33.9 0,-29.7 -0.1,-30.9 -2.2,-34.2 -3.8,-6.3 -4.2,-6.3 -51.5,-6.3 -40.7,0 -43,0.1 -46,2 z m 91.1,6.1 l 2.6,2 0,30.4 0,30.4 -2.6,2 c -2.6,2 -3.7,2.1 -43.8,2.1 -22.6,0 -42.1,-0.3 -43.4,-0.6 -4.8,-1.3 -5.2,-4.2 -5.2,-33.9 0,-22.4 0.3,-28.1 1.5,-30.5 0.8,-1.5 2,-3 2.7,-3.3 0.7,-0.3 20.3,-0.6 43.4,-0.6 41.2,-0.1 42.2,-0.1 44.8,2 z"/>
<path d="M 264,44.5 l 0,8.5 -3,0 -3,0 0,6 0,6 3,0 3,0 0,12 0,12 2.5,0 2.5,0 0,-11.9 0,-12 3.3,-0.3 c 3.2,-0.3 3.2,-0.3 3.2,-5.8 0,-5.3 -0.1,-5.5 -3,-6 l -3,-0.5 -0.3,-8.3 c -0.3,-8 -0.4,-8.2 -2.7,-8.2 -2.5,0 -2.5,0.1 -2.5,8.5 z"/>
<path d="M 281.7,36.7 c -0.4,0.3 -0.7,8.4 -0.7,18 l 0,17.3 -2.3,0 c -3.3,0 -4.7,1.8 -4.7,6.1 0,4.1 2.1,6.9 5,6.9 1,0 2,0.9 2.3,2 0.3,1.2 1.4,2 2.6,2 1.4,0 2.1,-0.6 2.1,-2 0,-1.3 0.7,-2 1.9,-2 4.2,0 5.1,-1.1 5.1,-5.9 0,-5.2 -1.3,-7.1 -4.7,-7.1 l -2.3,0 0,-18 c 0,-16.8 -0.1,-18 -1.8,-18 -1,0 -2.2,0.3 -2.5,0.7 z"/>
<path d="M 298.4,37.5 c -0.4,0.8 -1.6,1.5 -2.8,1.5 -3.3,0 -4.6,1.9 -4.6,6.5 0,4.6 1.3,6.5 4.7,6.5 2.3,0 2.3,0 2.5,18.2 0.3,18.1 0.3,18.3 2.6,18.6 l 2.2,0.3 0,-18.5 c 0,-17.7 0.1,-18.6 1.9,-18.6 4.2,0 5.1,-1.1 5.1,-5.9 0,-5.2 -1.3,-7.1 -4.7,-7.1 -1.4,0 -2.3,-0.6 -2.3,-1.5 0,-0.8 -0.9,-1.5 -2,-1.5 -1.1,0 -2.3,0.7 -2.6,1.5 z"/>
<path d="M 315,45.9 l 0,9.8 -3.1,0.7 c -3,0.6 -3,0.6 -2.7,6.3 0.3,5.5 0.5,5.8 3,6.1 l 2.7,0.3 0.3,9.7 c 0.3,9.2 0.4,9.7 2.6,10 2.2,0.3 2.2,0.1 2.2,-9.7 0,-9.3 0.2,-10.1 1.9,-10.1 4.3,0 5.1,-1 5.1,-6.5 0,-5.5 -0.8,-6.5 -5.1,-6.5 -1.7,0 -1.9,-0.8 -1.9,-10 l 0,-10 -2.5,0 c -2.5,0 -2.5,0 -2.5,9.9 z"/>
<path d="M 333,53.9 l 0,18 -3.2,0.3 c -3.3,0.3 -3.3,0.4 -3.6,6 l -0.3,5.7 3.3,0.3 c 2.5,0.2 3.4,0.8 3.6,2.5 0.2,1.5 1,2.3 2.2,2.3 1.2,0 2,-0.8 2.2,-2.3 0.2,-1.7 1.1,-2.3 3.6,-2.5 l 3.3,-0.3 -0.3,-5.7 c -0.3,-5.6 -0.3,-5.7 -3.5,-6 l -3.3,-0.3 0,-18 c 0,-17.2 -0.1,-17.9 -2,-17.9 -1.9,0 -2,0.7 -2,17.9 z"/>
<path d="M 156,49.2 c -4.4,4.7 -14.3,22.3 -18,31.9 -13.4,35.3 -8.8,68.3 13.7,97.4 7.4,9.6 18.5,20.5 23.2,23 16.1,8.3 36.2,-7.9 30,-24.2 -1.5,-3.9 -4.1,-6.5 -14.4,-14.3 -24.7,-18.6 -38.6,-40.1 -41.7,-64.4 -1.7,-13.9 1.4,-31.3 8.6,-47.9 1.9,-4.3 1.5,-4.6 -1.4,-1.5 z"/>
<path d="M 118.7,124 c -3.5,8.2 -6.7,23.8 -6.7,32.9 0,10.6 2.6,17.8 8.4,23.6 9,8.9 21.6,10.3 21.6,2.4 0,-2.4 -1.3,-4.5 -6,-9.3 -3.4,-3.5 -7.1,-8.7 -8.6,-12 -2.5,-5.5 -5.3,-18.2 -7.2,-32.6 -0.5,-3.6 -1.1,-5.8 -1.5,-5 z"/>
<path d="M 250.5,261.7 c -7,2.4 -13.9,9.5 -15.9,16.4 -4.6,15.5 0.8,32.5 12.4,38.6 4,2.2 5.5,2.4 14.2,2.1 8.8,-0.3 10,-0.5 13.9,-3.3 3.9,-2.8 11.2,-13.6 9.9,-14.8 -0.3,-0.3 -2.1,-0.8 -4.1,-1.2 -3.5,-0.7 -3.7,-0.5 -4.8,2.7 -4.4,13.4 -24.4,14.6 -31.9,2 -2.4,-4.2 -2.7,-5.6 -2.7,-14.2 0,-11.3 1.7,-15.7 7.8,-20.1 3.4,-2.5 4.9,-2.9 10.5,-2.9 7.7,0 11.9,2.1 14.8,7.6 1.7,3.2 2.2,3.5 5.3,3 1.8,-0.3 3.5,-0.7 3.8,-1 0.8,-0.7 -3.4,-8 -5.9,-10.2 -4.9,-4.4 -8,-5.6 -15.1,-6 -5.1,-0.3 -8.6,0.1 -12.2,1.3 z"/>
<path d="M 105.3,262.7 c 0.3,1 2.4,6.5 4.8,12.3 2.3,5.8 7.2,17.9 10.9,27 l 6.6,16.5 3.5,0.3 c 4,0.3 4.8,-0.4 7.1,-6.3 0.8,-2.2 5.6,-14.2 10.7,-26.7 5,-12.5 9.1,-23.2 9.1,-23.8 0,-0.7 -1.4,-1 -3.6,-0.8 -3.5,0.3 -3.7,0.5 -7,8.8 -1.8,4.7 -5.9,15.5 -9.1,24 -3.1,8.5 -6,15.9 -6.3,16.3 -0.4,0.4 -3.2,-6.3 -6.3,-15 -3.2,-8.7 -7.2,-19.9 -9.1,-24.8 l -3.4,-9 -4.2,-0.3 c -3.7,-0.3 -4.2,-0.1 -3.7,1.5 z"/>
<path d="M 165.8,289.1 c -0.3,29.8 -0.2,30.4 4.4,29.7 l 2.3,-0.3 0.3,-22.8 c 0.1,-12.5 0.6,-22.7 1,-22.7 0.4,0 1.7,2.8 2.9,6.2 5.5,16.5 12.9,37.4 13.6,38.5 0.5,0.7 2.2,1.3 3.8,1.3 3.7,0 3.8,-0.3 15.7,-35.2 2.1,-5.9 4,-10.8 4.5,-10.8 0.4,0 0.7,10.3 0.7,23 l 0,23 3.5,0 3.5,0 0,-29.1 0,-29 -5.2,0.3 -5.3,0.3 -3.8,11 c -3.6,10.1 -7.5,21.3 -11.5,32.3 -1.6,4.7 -2.5,4.5 -4,-0.8 -1.4,-4.9 -12.1,-35.8 -13.7,-39.8 -1.3,-3.1 -1.6,-3.2 -6.9,-3.2 l -5.5,0 -0.3,28.1 z"/>
<path d="M 120.6,326.2 c -7.9,1.7 -12,7.4 -10.5,14.6 0.9,4.6 3.2,6.7 11.4,10.6 5.6,2.7 7.5,4.1 8.3,6.3 2.6,7.8 -5.1,13.1 -14.5,10 -5,-1.7 -6.7,-1.1 -6.1,1.9 0.5,2.6 9.2,4.4 15.5,3.3 8.2,-1.6 13.3,-8.8 11.2,-16.2 -1.2,-4.3 -4.1,-7 -11,-10.1 -3.1,-1.5 -6.4,-3.5 -7.4,-4.6 -2.3,-2.6 -2.2,-6.7 0.3,-9.3 2,-2 5,-2.3 13.2,-1.5 3.5,0.4 4.3,-3.9 0.8,-4.6 -5.3,-1.1 -7.5,-1.2 -11.2,-0.4 z"/>
<path d="M 145.5,326.2 c -0.3,0.8 -0.4,11.7 -0.3,24.3 l 0.3,23 11,0.3 c 13.6,0.4 15.5,-0.1 15.5,-3.3 0,-2.4 -0.1,-2.4 -10.2,-2.7 l -10.1,-0.3 0.1,-7.3 c 0,-3.9 0.1,-7.7 0.1,-8.2 0.1,-0.6 3.8,-1 9.2,-1 8.8,0 9,-0.1 8.7,-2.3 -0.3,-2.1 -0.8,-2.2 -9.2,-2.3 l -8.9,0 0,-7.5 0,-7.4 9.4,-0.5 c 9.2,-0.5 9.4,-0.5 9.4,-3 l 0,-2.5 -12.3,-0.3 c -9.3,-0.2 -12.4,0 -12.7,1 z"/>
<path d="M 175.4,326.5 c -1.4,3.4 0.3,4.5 7,4.5 l 6.6,0 0.2,21.2 0.3,21.3 2.5,0 2.5,0 0.3,-21.2 0.2,-21.2 6.8,-0.3 c 6.4,-0.3 6.7,-0.4 6.7,-2.8 l 0,-2.5 -16.3,-0.3 c -13.8,-0.2 -16.3,0 -16.8,1.3 z"/>
<path d="M 216.7,325.6 c -0.4,0.4 -0.7,8.2 -0.7,17.3 0,14 0.3,17.2 1.9,20.6 3.6,7.7 10,11 18.8,9.3 6,-1 8.8,-3.2 11.5,-8.6 2.1,-4.3 2.3,-6 2.3,-21.7 l 0,-17 -3,0 -3,0 -0.2,15.5 c -0.1,8.5 -0.4,17.2 -0.7,19.2 -1.1,6.6 -8.6,10.3 -14.9,7.3 -5.4,-2.5 -6.1,-5 -6.7,-24.5 -0.5,-16.7 -0.6,-17.5 -2.5,-17.8 -1.2,-0.2 -2.4,0 -2.8,0.4 z"/>
<path d="M 265,325.9 l -3.5,0.6 0,23.5 0,23.5 2.5,0 c 2.5,0 2.5,-0.1 2.8,-9.1 l 0.3,-9.1 5.2,0 c 9.4,0 14.9,-4 16.8,-12 2.8,-12.4 -8.1,-20.2 -24.1,-17.4 z m 12.9,5.4 c 1.4,0.6 3.3,2.6 4.4,4.4 1.5,2.7 1.6,3.8 0.7,7.1 -1.3,5 -5,7.6 -11,7.6 l -4.5,0.1 -0.3,-8.9 c -0.2,-4.9 -0.1,-9.5 0.2,-10.3 0.7,-1.7 7.3,-1.7 10.5,0 z"/>
</svg>
