<svg xmlns="http://www.w3.org/2000/svg" viewBox="0 0 384 384">
<path d="M 100.9,40.9 l -2.4,1.9 0,68.9 0,68.8 29,0.5 c 26.6,0.5 29,0.6 29.3,2.2 0.3,1.7 -1.9,1.8 -34.5,1.8 -19.1,0 -35.4,0.4 -36.1,0.8 -0.9,0.7 -1.2,4.1 -1,13.8 l 0.3,12.9 45.8,0.3 45.8,0.2 -0.3,7.3 -0.3,7.2 -6,0.6 c -3.3,0.3 -6.8,0.9 -7.8,1.3 -2.3,1.1 -4.7,5.7 -4.7,9.1 l 0,2.5 -27.5,0 c -22.4,0 -27.5,-0.3 -27.5,-1.3 0,-0.8 -0.8,-2.1 -1.8,-3 -1.5,-1.4 -4.2,-1.7 -15.1,-1.7 -7.3,0 -14.1,0.5 -15.2,1 -1.7,0.9 -1.9,2.2 -1.9,10.4 0,10.1 0.9,12.1 6,12.8 l 2.5,0.3 0.3,14.2 0.3,14.2 -11.8,0.3 -11.8,0.3 -0.3,23.7 -0.2,23.8 9.7,0.2 9.8,0.2 -12,0.6 -12,0.5 0,4.5 0,4.5 35,0 35,0 0,-4.5 0,-4.5 -11,-0.6 -11,-0.5 8.6,-0.2 c 6.9,-0.2 8.8,-0.5 9.3,-1.8 1.2,-3.1 0.7,-43.9 -0.6,-45.2 -0.8,-0.8 -4.7,-1.2 -11,-1.2 l -9.9,0 0.3,-14.1 0.3,-14.1 4,-1.4 c 3,-1 10.7,-1.4 31.8,-1.4 l 27.8,0 1,2.8 c 1.3,3.9 4.5,5.6 11.4,6.2 l 6,0.5 0,10.5 0,10.5 -11,0.5 -11,0.5 0,23.5 0,23.5 9.5,0.6 9.5,0.5 -11.6,0.2 c -12.5,0.2 -12.9,0.4 -12.9,5.6 0,4.5 0.6,4.6 35.5,4.6 18.1,0 33.6,-0.4 34.3,-0.9 0.8,-0.5 1.2,-2.3 1,-4.7 l -0.3,-3.9 -11,-0.6 -11,-0.5 8.8,-0.2 8.7,-0.2 -0.2,-23.8 -0.3,-23.7 -11,-0.5 -11,-0.5 -0.3,-10.8 -0.3,-10.7 6.4,0 c 7,0 11,-2.1 12.7,-6.6 l 1,-2.4 32.8,0 c 18.5,0 33.2,0.4 33.8,0.9 0.5,0.5 2,1.1 3.4,1.3 l 2.5,0.3 0.3,14.3 0.3,14.2 -10.4,0 c -6.7,0 -10.7,0.4 -11.5,1.2 -1.3,1.3 -1.8,42.1 -0.6,45.2 0.5,1.3 2.5,1.6 10.3,1.8 l 9.6,0.2 -12,0.6 -12,0.5 0,4.5 0,4.5 35,0 35,0 0,-4.5 0,-4.5 -11.5,-0.6 -11.5,-0.5 9.3,-0.2 9.2,-0.2 -0.2,-23.7 -0.3,-23.8 -11,-0.5 -11,-0.5 -0.3,-13.8 c -0.2,-10.5 0,-13.8 1,-14.1 0.7,-0.3 2.5,-0.7 3.9,-1 3.8,-0.8 5.2,-5.1 4.7,-13.7 -0.5,-9.8 -0.8,-9.9 -17.8,-9.9 -12,0 -13.9,0.2 -15.3,1.8 -1,1 -1.7,2.4 -1.7,3 0,0.9 -8.2,1.2 -32,1.2 -30.5,0 -32,-0.1 -32,-1.9 0,-3.4 -2.2,-8.1 -4.4,-9.4 -1.1,-0.6 -5,-1.4 -8.6,-1.7 l -6.5,-0.5 -0.3,-7.3 -0.3,-7.2 51.1,0 51,0 0,-13.4 c 0,-11.3 -0.2,-13.5 -1.6,-14 -0.9,-0.3 -15.7,-0.6 -33.1,-0.6 -29.4,0 -31.4,-0.1 -31.1,-1.8 0.3,-1.6 2.5,-1.7 26.6,-2 l 26.2,-0.2 0,-68.6 0,-68.5 -2.6,-2.4 -2.7,-2.5 -86.2,0 c -83.5,0 -86.4,0.1 -88.6,1.9 z"/>
</svg>
