<svg xmlns="http://www.w3.org/2000/svg" viewBox="0 0 384 384">
<path d="M 154.5,19 c -0.3,0.5 -1.8,1 -3.2,1 -2.2,0 -5.1,1.2 -10.3,4.1 -0.8,0.5 -2.6,1.4 -3.8,1.9 -4.6,2 -13.8,12.4 -17.3,19.5 l -3.4,7 0,16 c 0,14.7 0.2,16.4 2.3,20.7 1.3,2.6 3.3,5.9 4.4,7.3 1.2,1.6 1.7,3 1.1,3.6 -0.5,0.5 -20.3,1 -45.8,1.1 l -45,0.3 -0.2,44.5 -0.2,44.5 2.1,-4.5 c 2.9,-6.2 16.5,-19.6 20.9,-20.5 1.9,-0.4 4,-1.2 4.8,-1.9 0.9,-0.7 5.7,-1.1 12.6,-1.1 6.9,0 11.7,0.4 12.6,1.1 0.8,0.7 2.9,1.5 4.8,1.9 2.4,0.5 5.7,3 11.1,8.4 8.1,8 10.6,12 11.7,18.3 0.3,2.1 1,4.1 1.4,4.4 1.2,0.7 1.2,14.1 0,14.8 -0.4,0.3 -1.1,2.3 -1.4,4.4 -1.1,6.3 -3.6,10.3 -11.7,18.3 -5.4,5.4 -8.7,7.9 -11.1,8.4 -1.9,0.4 -4,1.2 -4.8,1.9 -0.9,0.7 -5.7,1.1 -12.6,1.1 -6.9,0 -11.7,-0.4 -12.6,-1.1 -0.8,-0.7 -2.9,-1.5 -4.8,-1.9 -4.4,-0.9 -18,-14.3 -20.9,-20.5 l -2.1,-4.5 -0.1,65.5 c 0,49.7 0.3,65.9 1.2,66.8 0.9,0.9 15.2,1.2 58.7,1.1 31.7,-0.1 56.7,-0.4 55.6,-0.6 -1.1,-0.3 -3.4,-1.6 -5.2,-2.9 -1.7,-1.3 -3.6,-2.4 -4,-2.4 -1.1,0 -10.3,-9.3 -10.3,-10.4 0,-0.4 -1.1,-2.2 -2.5,-4 -1.4,-1.8 -2.8,-5.3 -3.1,-8 -0.4,-2.5 -1.1,-4.9 -1.5,-5.2 -1.2,-0.7 -1.2,-13.1 0,-13.8 0.4,-0.3 1.1,-2.7 1.5,-5.2 0.3,-2.7 1.7,-6.2 3.1,-8 1.4,-1.8 2.5,-3.7 2.5,-4.1 0,-1.1 9.3,-10.3 10.4,-10.3 0.4,0 2.2,-1.1 4,-2.5 1.8,-1.4 5.3,-2.8 8,-3.1 2.5,-0.4 4.9,-1.1 5.2,-1.5 0.7,-1.2 13.1,-1.2 13.8,0 0.3,0.4 2.7,1.1 5.2,1.5 2.7,0.3 6.2,1.7 8,3.1 1.8,1.4 3.7,2.5 4.1,2.5 1.1,0 10.3,9.3 10.3,10.4 0,0.4 1.1,2.2 2.5,4 1.4,1.8 2.8,5.3 3.1,8 0.4,2.5 1.1,4.9 1.5,5.2 0.5,0.3 0.9,3.4 0.9,6.9 0,3.5 -0.4,6.6 -0.9,6.9 -0.4,0.3 -1.1,2.7 -1.5,5.2 -0.3,2.7 -1.7,6.2 -3.1,8 -1.4,1.8 -2.5,3.7 -2.5,4.1 0,1.1 -9.3,10.3 -10.4,10.3 -0.4,0 -2.2,1.1 -3.9,2.4 -1.8,1.3 -4.1,2.6 -5.2,2.9 -1.1,0.2 21.9,0.5 51.1,0.6 40,0.1 53.3,-0.2 54.2,-1.1 0.9,-0.9 1.2,-12 1.2,-43.9 0,-39.2 0.4,-46.3 2.5,-43 0.3,0.6 3.6,2.5 7.3,4.3 l 6.7,3.3 16.1,0 c 17.8,0 19.5,-0.4 28.4,-7.5 2.5,-2 5.3,-3.9 6.3,-4.3 0.9,-0.3 1.7,-1.2 1.7,-2 0,-0.7 1.2,-2.4 2.6,-3.8 1.4,-1.3 3.7,-4.9 5.1,-7.9 1.4,-3 3.1,-6.6 3.7,-7.9 0.6,-1.4 1.1,-8 1.1,-16 -0.1,-10.9 -0.4,-14.2 -1.8,-16.6 -0.9,-1.7 -1.7,-3.6 -1.7,-4.4 0,-0.7 -1.3,-3 -3,-5.1 -1.6,-2.1 -3,-4.2 -3,-4.7 0,-1.3 -7.3,-8.3 -8.7,-8.3 -0.6,0 -1.5,-0.6 -2.2,-1.3 -0.6,-0.8 -3.7,-2.7 -6.8,-4.3 -5.7,-2.9 -6,-2.9 -22.3,-2.9 l -16.5,0 -6.9,3.8 c -3.8,2 -7.3,3.4 -7.8,2.9 -0.4,-0.4 -0.9,-18.3 -1,-39.7 l -0.3,-39 -39,-0.3 c -21.9,-0.1 -39.3,-0.6 -39.8,-1.1 -0.6,-0.6 -0.1,-2 1.1,-3.6 1.1,-1.4 3.1,-4.7 4.4,-7.3 2.1,-4.3 2.3,-6 2.3,-20.7 0,-17 0.1,-16.7 -6,-27.5 -4.7,-8.4 -19.7,-19.2 -28.7,-20.7 -2.1,-0.3 -4.1,-1 -4.4,-1.4 -0.7,-1.2 -19.1,-1.1 -19.9,0.1 z m 24.1,9.8 c 1.1,0.5 3,1.5 4.4,2.1 9,4.2 15.9,11 20.1,20.1 0.6,1.4 1.7,3.6 2.3,4.9 0.6,1.3 1.1,7.2 1.1,13.1 0,5.9 -0.5,11.8 -1.1,13.1 -0.6,1.3 -1.7,3.5 -2.3,4.9 -0.7,1.4 -1.8,3.6 -2.5,4.9 -1.7,2.9 -10.7,12.1 -11.9,12.1 -0.5,0 -2,0.9 -3.4,2 -1.4,1.1 -3.5,2.1 -4.7,2.2 -1.1,0.2 19.7,0.5 46.4,0.8 l 48.5,0.5 0.3,49.5 0.3,49.5 2.1,-4.5 c 2.8,-6.2 16.5,-19.6 20.9,-20.5 1.9,-0.4 4,-1.2 4.8,-1.9 0.9,-0.7 5.7,-1.1 12.6,-1.1 6.9,0 11.7,0.4 12.6,1.1 0.8,0.7 2.9,1.5 4.8,1.9 2.4,0.5 5.7,3 11.1,8.4 8.1,8 10.6,12 11.7,18.3 0.3,2.1 1,4.1 1.4,4.4 1.2,0.7 1.2,14.1 0,14.8 -0.4,0.3 -1.1,2.3 -1.4,4.4 -1.1,6.3 -3.6,10.3 -11.7,18.3 -5.4,5.4 -8.7,7.9 -11.1,8.4 -1.9,0.4 -4,1.2 -4.8,1.9 -0.9,0.7 -5.7,1.1 -12.6,1.1 -6.9,0 -11.7,-0.4 -12.6,-1.1 -0.8,-0.7 -2.9,-1.5 -4.8,-1.9 -4.4,-0.9 -18,-14.3 -20.9,-20.5 l -2.1,-4.5 -0.1,53.2 0,53.3 -36,0 c -30.7,0 -36,-0.2 -36,-1.4 0,-0.8 0.4,-1.8 1,-2.1 0.5,-0.3 2.2,-3.2 3.6,-6.3 1.4,-3.1 3,-6.5 3.5,-7.4 1.2,-2.3 1.2,-28.5 0,-29.2 -0.4,-0.3 -1.1,-2 -1.5,-3.7 -0.3,-1.8 -1.7,-4.7 -3.1,-6.5 -1.4,-1.8 -2.5,-3.7 -2.5,-4.2 0,-0.6 -2.8,-3.8 -6.1,-7.1 -5.6,-5.5 -14.7,-11.1 -18.1,-11.1 -0.8,0 -2,-0.6 -2.7,-1.3 -0.8,-0.8 -5.3,-1.2 -15,-1.2 -13.8,0 -15.6,0.3 -23.1,4.6 -0.8,0.5 -2.6,1.4 -3.9,1.9 -7,3 -20.1,20.5 -20.1,26.9 0,1.1 -0.5,2.3 -1,2.6 -1.2,0.8 -1.3,25.8 -0.1,28.3 0.5,0.9 2.1,4.3 3.5,7.4 1.4,3.1 3.1,6 3.6,6.3 0.6,0.3 1,1.3 1,2.1 0,1.2 -5.9,1.4 -40.5,1.4 l -40.5,0 0,-48.4 c 0,-44.5 0.4,-52 2.5,-48.7 0.3,0.6 3.6,2.5 7.3,4.3 l 6.7,3.3 16.1,0 c 17.8,0 19.5,-0.4 28.4,-7.5 2.5,-2 5.3,-3.9 6.3,-4.3 0.9,-0.3 1.7,-1.2 1.7,-2 0,-0.7 1.2,-2.4 2.6,-3.8 1.4,-1.3 3.7,-4.9 5.1,-7.9 1.4,-3 3.1,-6.6 3.7,-7.9 0.6,-1.4 1.1,-8 1.1,-16 -0.1,-11 -0.4,-14.2 -1.8,-16.6 -0.9,-1.7 -1.7,-3.6 -1.7,-4.4 0,-0.7 -1.3,-3 -3,-5.1 -1.6,-2.1 -3,-4.2 -3,-4.6 0,-1.3 -7.3,-8.4 -8.6,-8.4 -0.6,0 -1.6,-0.6 -2.3,-1.3 -0.6,-0.8 -3.7,-2.7 -6.8,-4.3 -5.7,-2.8 -6.1,-2.9 -21.9,-2.9 -15.7,0 -16.2,0.1 -22,2.9 -3.2,1.6 -6.7,3.6 -7.6,4.4 -1.5,1.3 -1.8,1.3 -2.3,0.1 -0.3,-0.8 -0.4,-13.1 -0.3,-27.4 l 0.3,-26 54.5,-0.5 c 30,-0.3 53.5,-0.6 52.4,-0.8 -1.2,-0.1 -3.3,-1.1 -4.7,-2.2 -1.4,-1.1 -2.9,-2 -3.4,-2 -1.2,0 -10.2,-9.2 -11.9,-12.1 -0.7,-1.3 -1.8,-3.5 -2.5,-4.9 -0.6,-1.4 -1.7,-3.6 -2.3,-4.9 -0.6,-1.3 -1.1,-7.2 -1.1,-13.1 0,-5.9 0.5,-11.8 1.1,-13.1 0.6,-1.3 1.7,-3.5 2.3,-4.9 3.1,-6.7 10,-14.7 15.1,-17.5 5.6,-3.1 10.7,-5.3 14,-5.9 4,-0.7 20.6,0.1 22.6,1.2 z"/>
</svg>
