<svg xmlns="http://www.w3.org/2000/svg" viewBox="0 0 384 384">
<path d="M 75,24.9 c -23.2,0.6 -23.6,0.6 -28.1,3.3 -4.3,2.6 -8.2,6.7 -10.7,11.5 -0.7,1.1 -4.3,19.1 -8.1,40 -3.8,20.8 -10,54.1 -13.7,74.1 -3.7,19.9 -6.5,36.4 -6.3,36.7 0.3,0.2 3.2,-1 6.5,-2.6 3.3,-1.7 8.9,-3.4 12.5,-3.9 8.3,-1.2 180.4,-1.3 188.7,0 3.5,0.5 9.3,2.3 12.9,3.9 3.6,1.7 6.7,3 6.8,2.9 0.1,-0.2 -6,-33.8 -13.6,-74.6 -14.9,-80.4 -14.8,-80 -22.2,-85.6 -7,-5.4 -6.9,-5.4 -55.7,-5.9 -25,-0.2 -56.1,-0.1 -69,0.2 z m 56,28.1 c 25.5,3.1 46.5,15.9 55.1,33.5 3.2,6.6 3.4,7.5 3.4,17.5 0,10.2 -0.1,10.9 -3.7,18.2 -13.9,27.9 -56.4,41.2 -92.6,28.9 -11,-3.8 -18.3,-8.3 -26.3,-16.2 -31.3,-30.9 -7.3,-75.1 44.4,-81.8 9,-1.2 10.3,-1.2 19.7,-0.1 z"/>
<path d="M 114.5,88.5 c -16.1,5.7 -10.2,23.5 7.8,23.5 8.2,0 15.7,-6 15.7,-12.7 0,-6.2 -8.5,-12.4 -17,-12.3 -1.4,0.1 -4.3,0.7 -6.5,1.5 z"/>
<path d="M 162.6,97.6 c -1.7,12.9 -13.8,25.5 -30.6,32 -6.9,2.6 -6.7,3.2 0.6,2.2 12.9,-1.8 24.3,-7.7 29.9,-15.6 2.8,-4 3,-5 3,-12.7 0,-9.8 -1.8,-13.5 -2.9,-5.9 z"/>
<path d="M 291.7,126.1 l -3.6,3.4 -2.1,24.1 c -1.1,13.2 -2,24.4 -2,24.9 0,0.4 -3.3,0.5 -7.4,0.2 l -7.5,-0.5 -0.6,6.1 c -0.3,3.4 -3.3,40.7 -6.5,82.9 -5.6,71.2 -5.9,76.9 -4.5,80.9 2.2,6.2 6,10.6 11.3,13.3 4.3,2.2 7.9,2.7 37.2,5 17.9,1.4 34.5,2.7 37,2.8 5.3,0.1 12.3,-2.7 16.2,-6.6 6.1,-6.2 6.4,-7.7 10.2,-55.6 7.2,-88.9 9.5,-119.4 9.1,-119.8 -0.2,-0.2 -3.3,-0.7 -6.9,-0.9 l -6.6,-0.6 0,-6.6 c 0,-3.6 0.7,-14.9 1.5,-25.1 l 1.4,-18.5 -2.6,-3.3 c -1.4,-1.8 -3.5,-3.7 -4.7,-4.2 -2.3,-1 -33.1,-3.7 -52.7,-4.7 l -12.6,-0.6 -3.6,3.4 z m 22.1,21.2 c 0.7,0.5 1.2,3.3 1.2,6.8 0,7.6 -2.1,9.3 -10.1,8.3 -8.6,-1.1 -9.2,-1.6 -8.7,-8.4 0.6,-8.3 1.6,-9.2 9.7,-8.4 3.6,0.4 7.2,1.1 7.9,1.7 z m 41,2.9 c 1.9,1.9 1.5,12.3 -0.5,14.3 -2.3,2.3 -14.1,1.3 -16.1,-1.3 -1.3,-1.6 -1,-11.1 0.4,-13.3 0.8,-1.4 14.8,-1.1 16.2,0.3 z m -23.8,72.1 l 5.1,7.2 -5.1,0.3 c -4.4,0.3 -5,0.6 -5,2.5 -0.1,1.2 -0.9,12.1 -1.9,24.2 -1,12.1 -1.7,22.2 -1.5,22.4 0.8,0.9 6.7,-2.4 9,-5.2 2.6,-3.1 6.6,-10.5 7.8,-14.5 0.6,-1.9 0.4,-2.2 -2,-2.2 l -2.7,0 0.7,-7.7 c 0.3,-4.2 0.8,-7.8 1,-8.1 0.3,-0.2 3.9,-0.1 8,0.3 l 7.6,0.7 0,4.2 c 0,2.2 -0.3,5.8 -0.6,7.8 -0.6,3.4 -1,3.8 -3.6,3.8 -1.8,0 -3.1,0.6 -3.4,1.7 -0.3,1 -2.1,5 -4,9 -3.9,8 -9.7,13.9 -15,14.9 -3.8,0.7 -4.4,2.2 -4.4,11.6 0,5.6 0.3,6.9 1.9,7.8 1.1,0.5 2.5,2.6 3.1,4.6 2.2,6.6 -2.1,12.4 -9.1,12.4 -4.3,0 -8.4,-2.9 -9.3,-6.6 -1,-4 1.1,-9.2 4.5,-10.9 1.6,-0.9 2.9,-2.1 2.9,-2.8 0,-0.6 0.3,-2.2 0.6,-3.4 0.5,-1.8 -0.1,-2.4 -3.8,-4.1 -8.6,-3.8 -15.5,-14.3 -18.4,-28.4 -1.1,-5.4 -2.2,-7.8 -4,-9.3 -1.5,-1.2 -2.7,-3.5 -3.1,-5.7 -0.5,-3.2 -0.1,-4.1 2.5,-6.8 3.6,-3.6 7.7,-3.9 11.5,-1 4.7,3.7 4.4,10.4 -0.6,13.9 -1.7,1.2 -1.9,2.2 -1.4,7.2 0.6,6.9 5.1,17.1 9.3,21.2 2.5,2.5 8.4,6.3 8.4,5.5 0,-0.2 1.1,-13.4 2.4,-29.3 1.3,-16 2.2,-29.3 1.9,-29.8 -0.2,-0.4 -2.1,-0.7 -4.2,-0.7 -2.1,0 -4.1,-0.3 -4.5,-0.7 -0.8,-0.9 12.5,-14.4 13.5,-13.7 0.5,0.2 3.1,3.7 5.9,7.7 z"/>
<path d="M 26.4,193.1 c -5.9,1.7 -12.6,7.1 -15.8,12.9 -3,5.2 -3.1,6 -3,16.5 0,12.5 1.1,15.9 6.8,22.3 7.2,7.9 7.3,7.9 57.6,8.7 24.5,0.3 45,0.3 45.5,-0.2 0.6,-0.4 3.2,-4.1 5.9,-8 8.3,-12.5 19.4,-21.1 34.8,-26.9 6.8,-2.6 8.4,-2.8 22.3,-2.9 13.9,0 15.6,0.2 23.2,2.8 9,3.1 17.8,8.4 24.8,14.8 5.9,5.5 6.8,4.6 7.3,-7.5 0.6,-12.9 -1.3,-19.2 -7.6,-25.5 -8.6,-8.6 -2.1,-8.1 -106.6,-8 -52,0 -93.5,0.5 -95.2,1 z m 27.7,19.2 c 12.4,8.3 2.1,27.9 -11.9,22.5 -5.5,-2.1 -8.5,-7.1 -7.9,-13.2 0.9,-10 11.4,-14.9 19.8,-9.3 z"/>
<path d="M 167.5,227.4 c -25.7,7.1 -41.9,22.8 -48.6,47.1 -4.2,15.2 -2.6,29.6 5.1,45 18.7,38 69.6,47.4 100.3,18.5 22.8,-21.3 28,-50.6 13.9,-77.5 -6.6,-12.6 -20.9,-25.6 -33.3,-30.1 -14.4,-5.3 -25.8,-6.2 -37.4,-3 z m 27.6,13.2 c 22.9,6.7 37.9,26.6 37.9,50.4 0,22.7 -15.4,42.8 -37.9,49.4 -8.3,2.4 -22.1,2.1 -30.1,-0.7 -22,-7.8 -35,-26 -35,-49.2 0,-23.2 13,-41.4 35,-49.2 8,-2.8 21.8,-3.1 30.1,-0.7 z"/>
<path d="M 174.9,256.9 c -3.8,3.9 -4,9.6 -0.4,13.5 1.9,2.1 3.3,2.6 7,2.6 6.3,0 9.5,-3.1 9.5,-9.4 0,-3.7 -0.5,-4.8 -3.1,-7 -4.3,-3.6 -9.1,-3.5 -13,0.3 z"/>
<path d="M 173.3,282.6 c -1,0.4 -1.3,5.7 -1.3,21.5 l 0,20.9 9.5,0 9.5,0 -0.2,-21.3 -0.3,-21.2 -8,-0.2 c -4.4,-0.1 -8.6,0.1 -9.2,0.3 z"/>
</svg>
