<svg xmlns="http://www.w3.org/2000/svg" viewBox="0 0 384 384">
<path d="M 37.7,93.1 c -4.1,2.4 -4.7,6.6 -4.7,31.7 0,25.1 0.6,29.3 4.4,31.5 1.1,0.6 7.3,1.4 13.6,1.7 l 11.5,0.5 0.3,2.8 c 0.4,3 -2.1,6.7 -4.4,6.7 -0.7,0 -2.9,1.4 -4.9,3.1 -6.9,6.1 -3,11.3 9.7,13.1 14.1,2 28.9,-1.5 29.6,-7.1 0.5,-2.9 -3.5,-7.2 -8.9,-9.6 -3.1,-1.4 -3.9,-2.3 -3.9,-4.4 0,-4.5 0.9,-4.9 12.7,-5.3 10.2,-0.3 11.4,-0.5 13.7,-2.7 l 2.6,-2.4 0,-27.9 0,-27.9 -2.5,-2.4 -2.4,-2.5 -32.3,0 c -21.1,0.1 -32.9,0.4 -34.1,1.1 z"/>
<path d="M 136.7,102.9 c -6.1,0.5 -9.1,1.1 -9.7,2.1 -1.4,2.2 -1.2,3.8 0.9,5.9 1.5,1.5 4,2 14.2,2.5 16.1,0.9 48,3.5 49.7,4.1 1.7,0.6 1.5,4.6 -0.5,7.5 -0.9,1.4 -10.3,12.8 -20.8,25.5 -36.7,44.1 -39.4,48.7 -36.5,62.4 1.6,7.8 6.9,14.8 13.4,18 4.7,2.4 6,2.5 27.8,2.9 l 22.8,0.5 0,5.8 c 0,5 0.3,6 2.6,7.8 1.5,1.2 3.4,2.1 4.3,2.1 2.2,0 25.7,-24.4 26.5,-27.6 1,-4 -1.7,-8.1 -13.6,-20.3 -10.5,-10.9 -13.1,-12.5 -16.4,-10.3 -2.2,1.4 -3.4,5.1 -3.4,10.1 l 0,5.1 -19,0 c -20.2,0 -25,-0.9 -25,-4.8 0,-0.9 10.2,-15.2 22.6,-31.7 23.5,-31.3 30.4,-42.6 30.4,-49.6 0,-7.6 -3.5,-12.8 -11,-16.1 -4,-1.8 -7.1,-2 -27.5,-2.2 -12.6,-0.2 -27,0 -31.8,0.3 z"/>
<path d="M 243.4,120.6 c -6.4,3.1 -6.4,3.3 -6.4,44.4 0,30.3 0.3,37.6 1.4,39.9 2.8,5.3 3.7,5.6 22,6.1 l 17.1,0.5 0.3,5.7 0.3,5.6 -7.1,3.8 c -8.3,4.3 -11.2,7.5 -10.8,11.8 0.7,6.7 12.5,11 30.3,11 22,-0.1 34.5,-6.6 28.9,-15.2 -2.1,-3.2 -4,-4.7 -11.3,-8.7 -5.1,-2.8 -5.5,-3.2 -5.8,-7.3 -0.6,-7 -0.2,-7.2 17.3,-7.2 9.7,0 16.3,-0.4 17.9,-1.2 5.4,-2.4 5.5,-3.5 5.5,-44.8 0,-41.8 0.1,-41.4 -6.1,-44.6 -4.2,-2.1 -89,-2.1 -93.5,0.2 z"/>
<path d="M 31.3,193.2 c -5.2,6.9 -6.3,9 -6.3,12.7 0,2 0.7,3.4 1.9,4.1 2.1,1.1 83.8,1.5 87.8,0.4 1.6,-0.4 2.4,-1.7 2.9,-4 0.5,-3 0,-4.4 -4.2,-10.7 l -4.9,-7.2 -36.6,-0.3 -36.6,-0.2 -4,5.2 z"/>
<path d="M 237.3,257.2 c -1.7,1.8 -5.1,6.4 -7.7,10.2 -5,7.4 -5.9,12.3 -3,16.4 l 1.5,2.2 62.3,0 c 47,0 62.5,-0.3 63.4,-1.2 1.5,-1.5 1.6,-10.2 0.1,-13.1 -1.6,-2.9 -11.1,-16 -12.4,-16.9 -0.5,-0.4 -23.5,-0.8 -51.1,-0.8 l -50,0 -3.1,3.2 z"/>
</svg>
