<svg xmlns="http://www.w3.org/2000/svg" viewBox="0 0 384 384">
<path d="M 218,76.4 c -4.1,2.4 -25.1,14.4 -46.6,26.8 -21.6,12.4 -40.6,23.4 -42.3,24.4 l -3.1,1.8 0.2,63.5 0.3,63.5 22.5,13 c 63.5,36.5 77.5,44.4 78.2,44 0.4,-0.3 0.8,-54.7 0.8,-121 0,-95.7 -0.3,-120.4 -1.2,-120.4 -0.7,0 -4.7,2 -8.8,4.4 z"/>
<path d="M 299.5,104.8 c -12,11.7 -11.6,9.7 -3.8,19.5 31.4,39.1 32.4,93 2.6,133.2 -3.3,4.4 -6.7,8.6 -7.6,9.4 -0.9,0.7 -1.7,1.9 -1.7,2.5 0,2.2 17.7,18.9 19.4,18.3 1.8,-0.7 12.3,-13.8 17.3,-21.6 8.6,-13.4 15.3,-29.8 19,-46.6 2.4,-11.2 2.9,-35 0.8,-48 -3,-19 -9.7,-36.5 -20.2,-53 -5.3,-8.2 -16.2,-21.6 -17.5,-21.5 -0.2,0 -3.9,3.6 -8.3,7.8 z"/>
<path d="M 265.3,139.1 l -9.2,9.3 2,2.6 c 8.9,11.4 13.2,20.5 15,32.3 2.7,17.1 -2.5,35.6 -13.8,49.5 l -3.6,4.4 8.9,8.9 c 4.9,4.9 9.4,8.9 10,8.9 1.5,0 11.2,-12.8 15.2,-20 1.7,-3 4.5,-9.8 6.3,-15 2.9,-8.6 3.3,-10.9 3.7,-24.6 0.4,-13.7 0.2,-15.8 -2.1,-24.5 -4,-15.1 -9.9,-26.4 -18.9,-36.3 l -4.3,-4.8 -9.2,9.3 z"/>
<path d="M 50.3,136.6 c -4.7,2.3 -10,8.6 -11.3,13.4 -0.7,2.7 -1,17.5 -0.8,44.8 0.3,40 0.3,40.8 2.5,44.9 2.5,4.7 7.1,8.4 12.2,10.2 2.1,0.7 11.8,1.1 26.2,1.1 l 22.9,0 0,-58 0,-58 -24.2,0 c -20.2,0 -24.8,0.3 -27.5,1.6 z"/>
</svg>
