<svg xmlns="http://www.w3.org/2000/svg" viewBox="0 0 384 384">
<path d="M 255.8,4.7 c -5,5.5 -11,14.3 -10.5,15.5 0.6,1.6 28.7,23.1 30.3,23.2 0.6,0.1 3.9,-3.5 7.3,-7.9 6.9,-8.9 7.7,-12.6 3.9,-16.2 -1.3,-1.2 -6.8,-5.6 -12.3,-9.7 -11.4,-8.7 -14.4,-9.5 -18.7,-4.9 z"/>
<path d="M 237.9,27.8 c -1.4,2 -7.3,9.8 -12.9,17.2 -5.7,7.4 -16.6,21.8 -24.4,32 -7.7,10.2 -17.8,23.4 -22.4,29.4 -8.2,10.9 -8.3,11 -6.3,12.9 1,1.1 2.3,1.7 2.9,1.3 0.5,-0.3 4.1,-4.7 8,-9.8 3.8,-5.1 13.8,-18.3 22.2,-29.3 8.4,-11 18.4,-24.2 22.3,-29.3 8.1,-10.8 10.6,-12.8 13.5,-11.3 2.7,1.4 3.4,3.8 2,6.4 -1,2 -9.2,13 -33.8,45.2 -4.2,5.5 -11.9,15.6 -17,22.4 l -9.4,12.3 2.8,2.5 c 1.6,1.3 3.2,2.1 3.6,1.6 0.4,-0.4 4.9,-6.4 10.2,-13.3 15.1,-20.1 34.6,-45.7 42.9,-56.5 8.5,-11.1 11.4,-12.8 14.4,-8.1 1,1.4 1.3,3.1 0.9,3.8 -0.9,1.5 -19,25.5 -50.7,67 -5.3,7 -9.7,13.1 -9.7,13.6 0,0.6 1.1,1.7 2.4,2.5 2.7,1.8 1.6,3 17.7,-18.3 18.7,-24.6 32.5,-42.7 41.9,-55 5.2,-6.9 10.6,-14 11.9,-15.8 l 2.4,-3.4 -2.4,-2.2 c -4.5,-4.3 -27.9,-21.6 -29.2,-21.6 -0.6,0.1 -2.4,1.7 -3.8,3.8 z"/>
<path d="M 26.3,51 c -6.6,4 -6.3,-1 -6.3,93.3 0,85.1 0,85.4 2.1,88.1 4.7,5.9 -2.2,5.6 118.6,5.6 108.1,0 110.9,-0.1 114,-2 6.6,-4 6.3,0 6.3,-84.6 0,-65.7 -0.2,-76.5 -1.4,-75.5 -0.8,0.7 -6,7.2 -11.5,14.6 l -10.1,13.4 0,55.5 0,55.6 -97.7,-0.2 -97.8,-0.3 0,-71 0,-71 77.6,-0.5 77.6,-0.5 8.1,-10.6 c 4.5,-5.9 7.8,-10.9 7.5,-11.3 -0.4,-0.3 -41.8,-0.6 -92.2,-0.6 -89.1,0 -91.7,0.1 -94.8,2 z"/>
<path d="M 112.6,100.5 c -2.1,0.7 -3.9,1.5 -4,1.7 -2.7,3.5 -3.6,6 -3.6,9.6 0,3.7 0.6,5 3.4,7.8 2.9,2.9 4.1,3.4 7.9,3.4 3.8,0 5.2,-0.6 8.1,-3.4 3.1,-2.9 3.6,-4 3.6,-8 0,-8.3 -7.6,-13.8 -15.4,-11.1 z"/>
<path d="M 160.6,129.6 c -5.4,7.1 -5.9,8.2 -7.6,17.2 -1,5.3 -1.6,10 -1.3,10.4 0.2,0.5 1.1,0.8 2,0.8 3.8,0 10.4,4.3 12.6,8.1 1.2,2.1 2.8,3.9 3.5,3.9 0.8,0 4.9,-1.8 9.2,-4.1 6.8,-3.5 8.6,-5.1 13.4,-11.4 3.1,-4.1 5.6,-7.8 5.6,-8.3 0,-0.9 -30,-24.2 -31.2,-24.2 -0.2,0 -3,3.4 -6.2,7.6 z"/>
<path d="M 88.4,131.4 c -9.5,4.2 -9.8,16.8 -0.6,21.2 6.8,3.2 14.1,-0.2 16.3,-7.6 2.7,-9.1 -7,-17.5 -15.7,-13.6 z"/>
<path d="M 120.4,137.4 c -2.9,2.9 -3.4,4.1 -3.4,8.1 0,4 0.5,5.2 3.4,8.1 7.9,7.9 20.4,1.7 19.3,-9.6 -0.7,-6.2 -4.9,-10 -11.3,-10 -3.9,0 -5.1,0.5 -8,3.4 z"/>
<path d="M 148.5,170.5 c -1,5.2 -1.6,9.8 -1.2,10.2 0.8,0.8 16.3,-6.5 17.8,-8.4 2.7,-3.2 -5.6,-11.3 -11.7,-11.3 l -3.1,0 -1.8,9.5 z"/>
<path d="M 99.2,169.7 c -10.6,5.2 -6.5,22.3 5.3,22.3 3.6,0 7.9,-2.4 10,-5.6 3.6,-5.6 1.4,-13.8 -4.6,-17 -3.6,-1.8 -6.6,-1.8 -10.7,0.3 z"/>
<path d="M 103.6,255.9 l -4.8,12.9 -11.3,0.4 c -8.4,0.3 -11.9,0.9 -13.9,2.1 -2.9,1.9 -4.1,5.5 -3.2,9.3 1.4,5.4 1.8,5.4 72.1,5.4 l 64.5,0 0,40.1 c 0,25.7 0.4,40.7 1,42 1,1.9 3,1.9 80.3,1.9 60.4,0 79.6,-0.3 80.5,-1.2 1.7,-1.7 1.7,-117.9 0,-119.6 -0.9,-0.9 -20.1,-1.2 -80.5,-1.2 -91.7,0 -81.3,-1.6 -81.3,12.8 l 0,8.8 -11.2,-0.3 c -6.2,-0.3 -11.8,-0.6 -12.4,-0.8 -0.6,-0.2 -2.3,-4.1 -3.8,-8.7 -1.5,-4.6 -3.4,-10.2 -4.3,-12.6 l -1.6,-4.2 -32.6,0 -32.6,0 -4.9,12.9 z m 251.4,53.1 l 0,49 -66.5,0 -66.5,0 0,-49 0,-49 66.5,0 66.5,0 0,49 z m 12,-2.9 c 1.5,2.7 1.2,3.7 -1.4,5.4 -5.1,3.4 -9.4,-3.4 -4.5,-6.9 2.4,-1.7 4.5,-1.2 5.9,1.5 z m -151,2.9 c 0,0.5 -0.7,1 -1.5,1 -0.8,0 -1.5,-0.5 -1.5,-1 0,-0.6 0.7,-1 1.5,-1 0.8,0 1.5,0.4 1.5,1 z"/>
<path d="M 361.5,307 c -0.8,1.4 0.3,3 2.1,3 0.8,0 1.4,-0.9 1.4,-2 0,-2.1 -2.4,-2.8 -3.5,-1 z"/>
</svg>
