<svg xmlns="http://www.w3.org/2000/svg" viewBox="0 0 384 384">
<path d="M 319.5,53.1 c -0.4,0.5 -0.4,14.7 0,31.3 0.5,17.4 0.4,30.5 -0.1,30.8 -0.5,0.3 -11.5,0.7 -24.4,0.9 l -23.5,0.4 -0.6,-20 c -0.4,-11 -0.7,-24.8 -0.8,-30.8 0,-5.9 -0.5,-10.7 -0.9,-10.7 -1.9,0 -11,6.8 -15.9,11.8 -5.8,5.9 -11,14.7 -13.9,23.2 -2.9,8.6 -2.6,26.3 0.7,35 5.6,14.7 17.6,27.7 31.6,34.2 l 8.3,3.8 0,5.1 c 0,5.6 1.6,83.2 2.6,126.7 l 0.6,27.3 3.3,3.5 3.2,3.4 12.5,0 c 11.3,0 12.8,-0.2 15.3,-2.2 5.2,-4.1 5.3,-5.2 4.5,-44.3 -0.5,-19.8 -1.1,-55.2 -1.5,-78.7 l -0.8,-42.7 2.9,-1.1 c 9.1,-3.5 22.5,-15 27.5,-23.7 14.2,-24.7 10.3,-52.2 -10.1,-71.7 -4.2,-4 -10,-8.3 -13.2,-9.9 -6.4,-3.1 -6.5,-3.1 -7.3,-1.6 z m -10,251.4 c 3.3,3.3 3.2,7 -0.4,10.6 -4.7,4.6 -11.9,3.3 -14.1,-2.7 -1.1,-2.8 0.3,-7.3 2.7,-9.2 2.9,-2.1 9.1,-1.5 11.8,1.3 z"/>
<path d="M 134,127.5 c -19.6,3.6 -36.2,11.1 -51,22.9 -17.2,13.7 -31.5,35.6 -37.1,56.6 -2.8,10.6 -3.7,31.6 -1.9,42.9 5.4,34 27,63.3 58.7,79.7 13.5,7 26.8,10.3 44.8,11.1 15.5,0.6 24.1,-0.5 39,-5.4 29,-9.4 53.5,-31.8 65.8,-60.5 5.5,-12.8 7.8,-24.7 7.8,-40.4 0,-24.7 -4.6,-40.2 -17.9,-60.3 -7.4,-11 -12.9,-17.1 -22.1,-24 -14.6,-11 -26.7,-17 -42.8,-21.2 -10.4,-2.6 -32.9,-3.4 -43.3,-1.4 z m 3.8,53.8 c 0.1,9.2 -0.1,16.7 -0.5,16.7 -0.5,0 -6.1,-5.3 -12.6,-11.8 -9.2,-9.2 -11.5,-12.1 -10.5,-12.9 3.5,-2.8 20.1,-9.4 22.3,-8.9 0.6,0.2 1.1,6.9 1.3,16.9 z m 42.4,-12.8 c 13.5,5.8 13.6,4.2 -1.2,19 l -13,13 0,-18.2 0,-18.3 3.3,0.6 c 1.7,0.4 6.7,2.1 10.9,3.9 z m -74.5,37.7 c 6.8,6.8 12.3,12.6 12.3,13 0,1.1 -35.8,1 -36.4,-0.1 -1.5,-2.4 8.3,-25.1 10.8,-25.1 0.6,0 6.6,5.5 13.3,12.2 z m 109.2,-7.2 c 2.3,4.1 7.1,17.4 7.1,19.7 0,1 -3.6,1.3 -17.5,1.3 -9.6,0 -17.5,-0.3 -17.5,-0.7 0,-1.2 23.4,-24.3 24.6,-24.3 0.5,0 2,1.8 3.3,4 z m -55.1,18.4 c 9.9,5.2 13.1,16.6 7.2,26 -6.5,10.2 -20.9,11.2 -28.9,2 -7.5,-8.5 -5.8,-20.7 3.8,-27.1 4,-2.7 13.5,-3.2 17.9,-0.9 z m -41.8,30.4 c 0,0.4 -5.8,6.5 -12.8,13.5 -12.8,12.8 -12.9,12.8 -14.4,10.5 -4.7,-7.2 -10.5,-21.9 -9.3,-23.8 0.7,-1.2 36.5,-1.4 36.5,-0.2 z m 103.6,0.7 c 1.2,2.9 -7.4,23.5 -9.8,23.5 -1.6,0 -24.8,-23.2 -24.2,-24.1 0.3,-0.5 7.9,-0.9 17,-0.9 13.5,0 16.6,0.3 17,1.5 z m -37.4,35.4 c 6.2,6 7.5,7.8 6.6,8.9 -2.3,2.8 -13.9,7.8 -22,9.6 l -2.8,0.6 0,-18.2 0,-18.2 5.3,4.9 c 2.8,2.8 8.7,8.3 12.9,12.4 z m -46.2,2.1 l 0,17.1 -3.7,-0.7 c -4.4,-0.8 -16.9,-5.8 -19.8,-8 -1.8,-1.4 -1.4,-2 10,-13.4 6.6,-6.6 12.3,-12 12.7,-12 0.5,0 0.8,7.7 0.8,17 z"/>
<path d="M 148.5,221.7 c -3.2,0.9 -6.5,3.4 -8.1,6.4 -5.6,10.9 7.7,22.7 18,16 3.8,-2.6 5.5,-5.7 5.6,-10.4 0,-5.5 -2.3,-9.2 -7,-11.1 -4.1,-1.6 -5.1,-1.7 -8.5,-0.9 z"/>
</svg>
