<svg xmlns="http://www.w3.org/2000/svg" viewBox="0 0 384 384">
<path d="M 170,29.5 c -7.4,3 -43.6,17.3 -80.5,31.9 l -67,26.5 -0.3,87.9 -0.2,87.9 38.2,18.8 c 42.7,21 149.3,73.2 155,75.9 2.8,1.3 4,1.5 5,0.7 0.7,-0.7 32.8,-22.2 71.3,-48 l 70,-46.8 0,-88.2 0,-88.2 -61.5,-22.3 c -78.1,-28.3 -115.4,-41.6 -116,-41.6 -0.3,0.1 -6.6,2.5 -14,5.5 z m 72.1,43 c 29.5,10.7 60.4,21.9 68.5,25 8.2,3.1 15.7,5.9 16.7,6.2 1,0.3 1.6,1 1.4,1.6 -0.1,0.5 -7.4,4.7 -16,9.4 l -15.8,8.4 -57.7,-22.4 c -31.7,-12.3 -64.6,-25.1 -72.9,-28.3 -8.4,-3.3 -15.3,-6.2 -15.3,-6.5 0,-0.3 7.3,-3.6 16.3,-7.2 11,-4.6 17,-6.5 18.7,-6.1 1.3,0.3 26.6,9.3 56.1,19.9 z m -97.1,19.8 c 55.5,21.2 118.5,45.9 119.3,46.6 0.8,0.8 -11,7.5 -28.2,16.1 l -10.4,5.2 -20.1,-7.7 c -24.7,-9.5 -129.8,-50.7 -134.6,-52.8 -2.5,-1 -3.1,-1.6 -2,-2.1 0.8,-0.4 10.5,-4.2 21.5,-8.6 14.8,-5.9 20.9,-7.9 23.5,-7.6 1.9,0.2 15.9,5.1 31,10.9 z m -61.9,26.6 c 62.4,24.1 130.6,50.9 132.8,52 l 2.1,1.2 0,76.2 c 0,41.9 -0.3,77.2 -0.6,78.5 -0.5,1.8 -1.1,2.1 -2.8,1.6 -3.9,-1.2 -137,-66.1 -162.6,-79.2 l -3.5,-1.8 -0.3,-70.7 c -0.1,-41.6 0.2,-70.7 0.7,-70.7 0.5,0 15.9,5.8 34.2,12.9 z"/>
<path d="M 97.8,172.6 c -4.6,5.8 -8.4,11.1 -8.6,11.9 -0.2,0.9 1.6,2 5.2,3.1 l 5.6,1.8 0.2,18 0.3,18 5.9,2.3 c 3.2,1.3 6,2.2 6.2,2.1 0.2,-0.2 0.6,-8.3 1,-18 l 0.7,-17.6 5.5,1.9 c 3,1.1 5.7,1.7 5.9,1.5 0.3,-0.2 -0.9,-2.8 -2.5,-5.8 -1.6,-2.9 -5.7,-10.8 -9.1,-17.6 -3.5,-6.7 -6.7,-12.2 -7.1,-12.2 -0.5,0 -4.6,4.8 -9.2,10.6 z"/>
<path d="M 149.6,191.3 c -4.7,6.2 -8.6,11.8 -8.6,12.3 0,0.5 2.6,1.8 5.8,2.9 l 5.7,2 0.5,19.9 0.5,19.8 4.5,1.9 c 8.5,3.4 8,4.3 8,-16.9 0,-10.4 0.3,-19.1 0.6,-19.5 0.3,-0.3 2.4,0.1 4.6,0.9 2.2,0.8 4.7,1.4 5.4,1.4 0.9,0 -1.8,-6.4 -7.6,-18 -5,-9.9 -9.4,-18 -9.9,-18 -0.5,0 -4.7,5.1 -9.5,11.3 z"/>
<path d="M 87.6,231.8 c -0.4,0.3 -0.6,3.6 -0.6,7.3 0,6 0.3,7 2.3,8.3 3.3,2.2 84.7,40.6 87.4,41.3 2.4,0.5 2.4,0.5 2.1,-7.3 l -0.3,-7.7 -17.5,-8.2 c -9.6,-4.6 -30,-14.1 -45.2,-21.3 -15.2,-7.1 -27.9,-12.7 -28.2,-12.4 z"/>
</svg>
