<svg xmlns="http://www.w3.org/2000/svg" viewBox="0 0 384 384">
<path d="M 72.7,11.1 c -2,1.1 -4.9,3.8 -6.5,6.1 -2.6,4 -2.7,4.8 -3.2,20.2 l -0.5,16.1 -17,0.5 c -15.8,0.5 -17.2,0.7 -20.3,2.8 -5.9,4.3 -7.2,8.4 -7.2,23.1 0,14 0.7,17.1 4.8,21.5 4.6,4.9 7.7,5.6 24.7,5.6 l 15.5,0 0,13.7 c 0,15.7 0.9,20 5,24.7 4.7,5.3 7,5.8 24.1,5.4 14.2,-0.3 15.6,-0.5 18.7,-2.6 5.8,-4.2 6.6,-7 7.2,-24.7 l 0.5,-16 16.5,-0.5 c 18.4,-0.6 21.4,-1.5 25.7,-8 2.1,-3.1 2.3,-4.4 2.3,-18.5 0,-14.2 -0.2,-15.4 -2.3,-18.6 -1.2,-1.8 -3.8,-4.4 -5.6,-5.6 -3.2,-2.2 -4.4,-2.3 -19.6,-2.3 -13.9,0 -16.4,-0.2 -16.9,-1.6 -0.3,-0.9 -0.6,-7.8 -0.6,-15.4 0,-14.9 -0.6,-17.9 -4.8,-22.4 -4.5,-4.8 -7.8,-5.6 -22.9,-5.6 -11.8,0.1 -14.4,0.4 -17.6,2.1 z m 33.9,9 c 1.7,1.9 2,4.3 2.4,21.8 l 0.5,19.6 20.2,0.5 c 25.7,0.6 24.6,-0.1 25.1,16.6 0.2,7 -0.1,12.6 -0.7,14.3 -2.2,5.1 -4,5.6 -25.1,6.1 l -19.5,0.5 -0.3,19.2 -0.2,19.2 -3.1,2.5 c -2.9,2.5 -3.6,2.6 -15.4,2.6 -11.6,0 -12.6,-0.1 -15.2,-2.4 l -2.8,-2.4 -0.3,-19.6 -0.3,-19.6 -17.2,0 c -9.5,0 -18.9,-0.5 -20.9,-1 -6.1,-1.7 -6.8,-3.7 -6.8,-18 0.1,-18.3 -0.3,-18 25.9,-18 l 19.1,0 0,-18.9 c 0,-18.9 0,-19 2.6,-22 l 2.6,-3.1 13.7,0 c 12.7,0 13.9,0.2 15.7,2.1 z"/>
<path d="M 273,30.2 c -5.1,1.9 -13.4,9.9 -122.8,119.2 -95.8,95.7 -117.7,118.1 -119.8,122.3 -5.1,10.4 -4.1,23.1 2.7,32.8 1.5,2.2 12.3,13.5 24.1,25.1 25.2,24.9 26.7,25.9 40.3,25.9 7.5,0 9.8,-0.4 14,-2.4 7.4,-3.7 237.1,-233.3 240.6,-240.6 2,-4.2 2.4,-6.5 2.4,-14.5 0,-13.8 -0.8,-15 -28.7,-42.6 -21,-20.9 -23.9,-23.4 -29.1,-25.3 -7.4,-2.7 -16.3,-2.7 -23.7,0.1 z m 19.3,19.6 c 2.3,2 2.2,5.7 -0.4,8.3 -2.7,2.7 -6.7,2.1 -9.2,-1.3 -1.7,-2.3 -1.9,-3.1 -0.9,-5.3 2,-4.3 6.5,-5.1 10.5,-1.7 z m -20.5,19.5 c 2.3,2.3 4.2,5.2 4.2,6.3 0,2.2 -4.8,7.4 -7,7.4 -2.1,0 -7.9,-4.8 -9.5,-8 -1.4,-2.8 -1.4,-3.1 1.6,-6.5 1.7,-1.9 3.9,-3.5 4.8,-3.5 0.9,0 3.6,1.9 5.9,4.3 z m 61.3,18.4 c 3.9,3.7 6.9,7.5 6.9,8.6 0,2.5 -7.2,9.7 -9.7,9.7 -1,0 -4.9,-3.1 -8.7,-6.9 -5.3,-5.4 -6.7,-7.3 -6.2,-8.9 0.8,-2.3 8,-9.2 9.7,-9.2 0.6,0 4.2,3 8,6.7 z m -80.6,0.6 c 2.5,2.4 4.5,5.3 4.5,6.3 0,2.6 -5,7.4 -7.7,7.4 -2.1,0 -10.3,-8 -10.3,-10.2 0,-1.6 6.1,-7.8 7.7,-7.8 0.7,0 3.3,1.9 5.8,4.3 z m 41.2,2.9 c 2.4,2.3 4.3,4.9 4.3,5.8 0,0.9 -1.5,3.1 -3.4,4.9 -3.3,3.2 -3.4,3.2 -6.4,1.7 -3.3,-1.7 -8.2,-7.4 -8.2,-9.6 0,-2.2 5.2,-7 7.4,-7 1.1,0 4,1.9 6.3,4.2 z m -60.8,16.3 c 5.3,4.8 5.6,6.8 1.9,11.1 -1.6,1.8 -3.8,3.4 -4.7,3.4 -2.3,0 -10.1,-8.1 -10.1,-10.5 0,-2.4 4.8,-7.5 7.2,-7.5 1,0 3.5,1.6 5.7,3.5 z m 40.4,1.4 c 1.8,1.6 3.9,4.1 4.7,5.5 1.3,2.5 1.2,2.8 -2,6.1 -1.9,1.9 -4.1,3.5 -5,3.5 -2.2,0 -10,-8.2 -10,-10.5 0,-2.4 4.8,-7.5 7.2,-7.5 0.9,0 3.2,1.3 5.1,2.9 z m 40.8,2.9 c 3.7,3.7 4.7,5.3 4.2,7 -0.7,2.8 -4.9,6.2 -7.6,6.2 -2.9,0 -9.7,-7.2 -9.7,-10.3 0,-2.5 4.9,-7.7 7.2,-7.7 0.6,0 3.3,2.2 5.9,4.8 z m -101.1,15.8 c 2.8,2.6 5,5.4 5,6.3 0,2.3 -5.1,7.1 -7.5,7.1 -2.4,0 -10.5,-7.8 -10.5,-10.1 0,-1.5 6.2,-7.9 7.6,-7.9 0.3,0 2.7,2.1 5.4,4.6 z m 42.5,2.5 c 1.9,2.2 3.5,4.8 3.5,5.8 0,1 -1.6,3.3 -3.5,5 -2.8,2.4 -4,2.9 -5.4,2.2 -2.6,-1.4 -9.1,-8.9 -9.1,-10.5 0,-0.8 1.6,-2.8 3.4,-4.4 4.3,-3.7 6.3,-3.4 11.1,1.9 z m 40.9,1.9 c 3.1,3.8 3.3,5.9 0.6,9.2 -3.5,4.5 -5.8,4.3 -11.2,-1.1 -2.6,-2.6 -4.8,-5.4 -4.8,-6.1 0,-0.6 1.6,-2.8 3.5,-4.7 3.3,-3.3 3.5,-3.4 6.3,-1.9 1.6,0.8 4.1,2.9 5.6,4.6 z m -61,18 c 2.5,2.7 4.6,5.2 4.6,5.7 0,1.4 -6.4,7.3 -8,7.3 -2.2,0 -10,-8.2 -10,-10.5 0,-2.4 4.8,-7.5 7.1,-7.5 0.9,0 3.7,2.2 6.3,5 z m 40.2,0.4 c 2.4,2.4 4.4,5.1 4.4,6 0,2.2 -5.3,7.6 -7.4,7.6 -2.3,0 -9.5,-6.8 -10.2,-9.7 -0.8,-2.9 3.8,-8.3 6.9,-8.3 1.1,0 3.9,2 6.3,4.4 z m -70.5,13.7 c 5.8,2.9 11.7,9.3 14.7,15.8 3.4,7.3 3.6,18.2 0.5,25.3 -8.8,19.6 -33.5,26 -50.1,12.9 -3,-2.4 -6,-6.2 -8.2,-10.2 -3.2,-5.9 -3.5,-7.1 -3.4,-14.9 0.1,-9.7 1.9,-14.9 7.7,-21.5 9.1,-10.5 26.4,-13.8 38.8,-7.4 z m 52.3,6.9 c 3.1,3.8 3.3,5.9 0.6,9.2 -3.5,4.5 -5.8,4.3 -11.2,-1.1 -2.6,-2.6 -4.8,-5.4 -4.8,-6.1 0,-0.6 1.6,-2.8 3.5,-4.7 3.3,-3.3 3.5,-3.4 6.3,-1.9 1.6,0.8 4.1,2.9 5.6,4.6 z m -126.1,25.1 c 3.6,1.9 5.7,5.2 5.7,9.2 0,3.6 -0.8,4.8 -12.7,16.8 -13.3,13.5 -16.3,15.4 -21.6,13.6 -4,-1.4 -6.9,-6.3 -6.3,-10.7 0.4,-2.7 3,-5.8 12.8,-15.8 14.4,-14.5 16.7,-15.9 22.1,-13.1 z m 15.9,38.6 c 6.9,6.9 7.6,10.2 2.9,14.7 -4.6,4.4 -7.3,3.8 -14.2,-3 -7,-6.9 -7.4,-9.1 -2.5,-14 4.8,-4.8 7,-4.4 13.8,2.3 z m 36,12.4 c 1.1,0.6 2.6,2.6 3.4,4.5 1.2,2.9 1.2,3.9 0,6.6 -1.8,4.3 -25.4,27.5 -28.8,28.3 -3,0.8 -8.2,-1.6 -9.8,-4.4 -0.5,-1.1 -1,-3.5 -1,-5.3 0,-3 1.5,-4.9 13.8,-17.1 12.1,-11.9 14.3,-13.7 17.1,-13.7 1.8,0 4.1,0.5 5.3,1.1 z"/>
<path d="M 181.4,167.6 c -14.6,5.2 -21.8,23.2 -14.8,37.2 8.1,16.2 30.1,19.7 42.6,6.8 5.7,-5.9 7.3,-10 7.3,-19.1 0,-6.9 -0.4,-8.6 -2.7,-12.7 -6.8,-11.5 -20.2,-16.5 -32.4,-12.2 z m -1.3,10.4 c 2.4,1.4 2.4,3.2 0,5.4 -2.3,2.1 -3.8,1.4 -5.2,-2.1 -1.5,-4.1 0.9,-5.6 5.2,-3.3 z m 25.2,2.4 c -0.3,4.7 -1.9,5.4 -5.1,2.3 -2.7,-2.8 -2.7,-2.8 -0.7,-4.3 3.2,-2.4 6,-1.4 5.8,2 z m -10.9,8.8 c 2.1,3 2,5.1 -0.4,7.3 -4,3.6 -10,1.3 -10,-3.9 0,-5.2 7.5,-7.6 10.4,-3.4 z m 10.5,14 c 1.4,4 0.3,5.2 -3.8,4.3 -3.5,-0.7 -4,-2.8 -1.4,-5.7 2.4,-2.6 4,-2.2 5.2,1.4 z m -24.7,-0.5 c 1,0.9 1.8,2.2 1.8,2.9 0,1.4 -4.9,3.3 -6.7,2.7 -1.6,-0.6 -1.6,-1.4 -0.3,-4.7 1.1,-3 2.6,-3.3 5.2,-0.9 z"/>
</svg>
