<svg xmlns="http://www.w3.org/2000/svg" viewBox="0 0 384 384">
<path d="M 57.4,47 c -12.9,1.4 -25.4,10.2 -31,21.7 -2.5,4.9 -2.9,7.4 -3.7,19.7 -0.4,7.8 -0.7,59.3 -0.5,114.6 l 0.4,100.5 2.3,5.8 c 3.2,8.1 11.5,16.8 20,21 l 6.6,3.2 37.8,0.3 37.7,0.3 0,-13 0,-13 -35.5,-0.3 -35.5,-0.3 -3.1,-3.1 c -1.6,-1.7 -3.4,-4.8 -3.9,-7 -0.5,-2.1 -1,-38.7 -1,-81.7 l 0,-77.7 144,0 144,0 0,79 c 0,85.6 0.2,82.8 -5.5,88 l -2.7,2.5 -41.6,0.5 -41.7,0.5 0,12.5 0,12.5 44,0 44,0 6.6,-3.2 c 8.5,-4.2 16.8,-12.9 20,-21 l 2.4,-5.8 0.3,-103.1 c 0.2,-58.6 -0.1,-108.3 -0.6,-115.1 -0.8,-9.8 -1.4,-12.8 -3.7,-17.3 -3.3,-6.4 -10.5,-13.7 -16.6,-16.6 -2.4,-1.2 -5.9,-2.9 -7.8,-3.8 -3.1,-1.5 -15.3,-1.6 -136.5,-1.5 -73.2,0.1 -135.8,0.5 -139.2,0.9 z m 12.9,39.1 c 1.4,0.6 3,2.2 3.6,3.6 1.4,3 1.4,15.8 0.1,18.4 -1.9,3.5 -6.7,5.1 -14.2,4.7 -5.8,-0.3 -7.2,-0.8 -9.5,-3 -5.1,-5.1 -4,-20.7 1.7,-23.5 3.1,-1.6 15,-1.7 18.3,-0.2 z m 39.6,0.4 c 3.7,1.9 4.1,3.1 4.1,12.9 0,7.6 -0.2,8.5 -2.5,10.6 -3.4,3.2 -14.5,4.1 -19.3,1.6 -4.4,-2.3 -5.6,-5.1 -5.4,-13.3 0.1,-7.6 1.3,-10.5 4.7,-12.2 3.2,-1.5 15.2,-1.3 18.4,0.4 z m 226.1,12.5 l 0,13 -104.5,0 -104.5,0 0,-13 0,-13 104.5,0 104.5,0 0,13 z"/>
<path d="M 184.6,210.2 c -19.9,20.9 -55.9,61.3 -56.8,63.7 -1,2.8 1.4,6.5 4.7,7.2 1.7,0.4 9.8,0.7 18.2,0.8 l 15.2,0.1 -0.4,6.2 c -0.3,3.5 -0.7,11 -1,16.8 -0.8,18.7 -6.4,35.6 -15.8,47.8 -7.9,10.4 -25,21.4 -42.9,27.7 -4.3,1.5 -7.8,3 -7.8,3.3 0,0.9 23.3,-0.7 32,-2.3 29.9,-5.3 53.2,-17.6 68,-35.8 6.1,-7.4 14.1,-23.3 16.9,-33.4 1.1,-4 2.5,-12.4 3.2,-18.8 l 1.2,-11.5 7.6,0 c 4.2,0 12,-0.3 17.4,-0.7 8.9,-0.5 10,-0.8 11.4,-3 1.1,-1.6 1.3,-3 0.7,-4.3 -1.2,-2.7 -59.3,-67.9 -61.5,-69.1 -3.1,-1.6 -4.2,-1 -10.3,5.3 z"/>
</svg>
