<svg xmlns="http://www.w3.org/2000/svg" viewBox="0 0 384 384">
<path d="M 156,60.9 c 0,0.5 -2.9,1.2 -6.5,1.6 -3.6,0.3 -6.5,1 -6.5,1.5 0,0.4 -2,1.1 -4.5,1.4 -2.5,0.4 -4.5,1.1 -4.5,1.6 0,0.5 -1.3,1.1 -3,1.5 -1.6,0.4 -3,1 -3,1.5 0,0.5 -1.3,1.1 -3,1.5 -1.6,0.4 -3,1 -3,1.5 0,0.5 -1.3,1.1 -3,1.5 -1.6,0.4 -3,1 -3,1.5 0,0.5 -1,1.2 -2.2,1.6 -1.2,0.4 -3.3,2 -4.7,3.5 -1.4,1.6 -2.9,2.9 -3.4,2.9 -1,0 -13.7,12.5 -13.7,13.5 0,0.4 -1.1,1.8 -2.4,3 -1.3,1.2 -2.7,3.2 -3.1,4.3 -0.3,1.2 -1.1,2.2 -1.6,2.2 -0.5,0 -0.9,0.7 -0.9,1.5 0,0.9 -0.6,1.8 -1.4,2.1 -0.8,0.3 -1.8,1.9 -2.1,3.5 -0.4,1.6 -1,2.9 -1.5,2.9 -0.5,0 -1.1,1.3 -1.5,3 -0.4,1.6 -1,3 -1.5,3 -0.4,0 -1,1.8 -1.4,4 -0.3,2.2 -1,4 -1.5,4 -0.5,0 -1.2,2.6 -1.6,5.7 -0.4,3.2 -1.2,6.1 -1.9,6.5 -1.6,1 -1.6,44.6 0.1,45.6 0.6,0.4 1.5,3.1 1.9,6 0.3,2.8 1,5.2 1.4,5.2 0.4,0 1.1,1.6 1.4,3.5 0.4,1.9 1.1,3.5 1.6,3.5 0.4,0 1.1,1.3 1.5,3 0.4,1.6 1,3 1.5,3 0.5,0 1.1,1.4 1.5,3 0.4,1.7 1,3 1.5,3 0.4,0 1.1,1.1 1.4,2.5 0.4,1.4 1.1,2.5 1.6,2.5 0.6,0 1,0.7 1,1.5 0,0.9 0.7,1.8 1.5,2.1 0.8,0.3 1.7,1.5 2,2.5 0.7,2.2 10.1,11.9 11.5,11.9 0.6,0 1,-0.4 1,-0.9 0,-0.5 1.4,-1.2 3,-1.6 1.7,-0.4 3,-1 3,-1.5 0,-0.5 1.4,-1.1 3,-1.5 1.7,-0.4 3,-1.1 3,-1.6 0,-0.5 1.8,-1.2 4,-1.5 4.4,-0.7 5.2,-1.9 1.9,-2.9 -2.4,-0.8 -9.9,-8.2 -9.9,-9.9 -0.1,-0.6 -1.4,-2.2 -3,-3.6 -1.7,-1.3 -3,-3 -3,-3.7 0,-0.7 -0.4,-1.3 -1,-1.3 -0.5,0 -1.2,-1.1 -1.6,-2.5 -0.3,-1.4 -1,-2.5 -1.4,-2.5 -0.4,0 -1.1,-1.2 -1.5,-2.7 -0.3,-1.5 -1.2,-3.1 -1.8,-3.5 -0.7,-0.4 3.4,-0.8 9,-0.8 l 10.2,0 0.7,4.5 c 0.3,2.5 1,4.5 1.5,4.5 0.5,0 0.9,0.6 0.9,1.4 0,1.6 6.2,2.6 15.7,2.6 l 6.5,0 -0.7,-2.7 c -0.3,-1.5 -1,-3 -1.5,-3.3 -0.4,-0.3 -1.1,-2 -1.5,-3.8 l -0.7,-3.2 13.6,0 13.6,0 0,18.5 c 0,15.8 0.2,18.5 1.5,18.5 0.8,0 1.5,0.4 1.5,1 0,0.5 0.7,1 1.5,1 0.8,0 1.5,0.7 1.5,1.5 0,0.9 0.8,1.9 1.8,2.2 0.9,0.4 3.6,2.6 6,5 2.4,2.4 4.8,4.3 5.3,4.3 0.6,0 2,1.1 3.3,2.5 1.3,1.4 2.7,2.5 3.1,2.5 0.4,0 3,2.2 5.7,5 4.9,5 6.2,5.6 9.2,4.4 2.4,-0.9 1.9,-2.1 -1.1,-2.9 -1.5,-0.3 -3.7,-1.7 -5,-3.1 -1.2,-1.3 -2.6,-2.4 -3.2,-2.4 -1.2,0 -7.1,-5.9 -7.1,-7.1 0,-0.6 -1.1,-2 -2.4,-3.2 -1.4,-1.3 -2.8,-3.5 -3.1,-5 -0.4,-1.5 -1.1,-2.7 -1.5,-2.7 -0.5,0 -1.1,-1.3 -1.5,-3 -0.4,-1.7 -1,-3 -1.5,-3 -0.5,0 -1.2,-2.9 -1.5,-6.5 -0.4,-3.6 -1.1,-6.5 -1.6,-6.5 -0.5,0 -0.9,-3.2 -0.9,-7 0,-3.9 0.4,-7 0.9,-7 0.4,0 1.1,-2.7 1.5,-6 0.4,-3.3 1.1,-6 1.5,-6 0.5,0 1.2,-1.6 1.5,-3.5 0.4,-1.9 1.1,-3.5 1.6,-3.5 0.6,0 1,-8.3 1,-21 l 0,-21.1 15.3,0.3 15.2,0.3 0.3,6.2 0.3,6.2 5.2,-0.6 c 2.9,-0.3 5.4,-1 5.5,-1.5 0.2,-0.4 3.1,-0.8 6.5,-0.9 3.4,0 5.6,-0.3 5,-0.6 -0.8,-0.3 -1.3,-2.3 -1.3,-4.9 l 0,-4.5 10.3,0.3 10.2,0.3 0.3,4.7 c 0.2,2.7 0.7,4.8 1.3,4.8 0.5,0 0.9,1.2 0.9,2.7 0,3.5 0.9,4.8 3.8,5.7 1.2,0.4 2.2,1.2 2.2,1.7 0,0.5 0.5,0.9 1.1,0.9 0.7,0 3.4,2.2 6.1,5 7.5,7.6 7.8,7.3 7.8,-8.5 0,-7.4 -0.4,-13.5 -0.9,-13.5 -0.5,0 -1.2,-2.9 -1.6,-6.5 -0.3,-3.6 -1,-6.5 -1.5,-6.5 -0.4,0 -1.1,-2 -1.4,-4.5 -0.4,-2.5 -1.1,-4.5 -1.5,-4.5 -0.5,0 -1.1,-1.8 -1.5,-4 -0.3,-2.2 -1,-4 -1.5,-4 -0.5,0 -1.2,-1.4 -1.6,-3 -0.4,-1.7 -1.1,-3 -1.6,-3 -0.5,0 -0.9,-0.7 -0.9,-1.5 0,-0.9 -0.6,-1.8 -1.4,-2.1 -0.8,-0.3 -1.7,-1.6 -2,-3 -0.4,-1.3 -1.1,-2.4 -1.6,-2.4 -0.6,0 -1,-0.7 -1,-1.5 0,-0.9 -0.7,-1.8 -1.5,-2.1 -0.8,-0.3 -1.7,-1.5 -2,-2.5 -0.8,-2.5 -12.9,-14.6 -15.4,-15.4 -1,-0.3 -2.2,-1.2 -2.5,-2 -0.3,-0.8 -1.1,-1.5 -1.7,-1.5 -0.6,0 -2.2,-1.1 -3.5,-2.5 -1.2,-1.3 -3.4,-2.7 -4.8,-3.1 -1.4,-0.3 -2.6,-1 -2.6,-1.4 0,-0.5 -1.3,-1.1 -3,-1.5 -1.6,-0.4 -3,-1 -3,-1.5 0,-0.5 -1.3,-1.1 -3,-1.5 -1.6,-0.4 -3,-1 -3,-1.5 0,-0.4 -2,-1.1 -4.5,-1.4 -2.5,-0.4 -4.5,-1.1 -4.5,-1.6 0,-0.5 -3.1,-1.2 -7,-1.6 -3.8,-0.3 -7,-1.1 -7,-1.5 0,-0.5 -7.4,-0.9 -16.5,-0.9 -9.1,0 -16.5,0.4 -16.5,0.9 z m -11.4,26.6 c -0.8,0.8 -1.8,1.5 -2.1,1.5 -1,0 -11.5,10.6 -11.5,11.5 0,0.4 -1.1,1.8 -2.4,3 -1.3,1.2 -2.7,3.2 -3.1,4.5 -0.4,1.3 -1.4,3 -2.1,3.8 -0.8,0.7 -1.4,2 -1.4,2.8 0,0.8 -0.4,1.4 -0.9,1.4 -0.5,0 -1.2,1.6 -1.5,3.5 -0.4,1.9 -1.1,3.5 -1.5,3.5 -0.5,0 -1.1,1.8 -1.5,4 l -0.6,4 -10,0 c -6,0 -10,-0.4 -10,-1 0,-0.6 0.4,-1 0.9,-1 0.5,0 1.2,-1.3 1.6,-2.9 0.3,-1.6 1.3,-3.2 2.1,-3.5 0.8,-0.3 1.4,-1.2 1.4,-2.1 0,-0.8 0.4,-1.5 0.9,-1.5 0.5,0 1.3,-0.9 1.6,-2 0.7,-2.3 17.1,-19 18.6,-19 0.6,0 2,-1.1 3.2,-2.4 1.3,-1.4 3.5,-2.8 5,-3.1 1.5,-0.4 2.7,-1.1 2.7,-1.5 0,-0.5 1.4,-1.1 3,-1.5 1.7,-0.4 3,-1 3,-1.5 0,-0.7 1.3,-1.2 5.3,-1.9 0.5,0 0.2,0.6 -0.7,1.4 z m 61.4,0.5 c 0,0.5 1.4,1.1 3,1.5 1.7,0.4 3,1.1 3,1.6 0,0.5 0.7,0.9 1.5,0.9 0.9,0 1.8,0.6 2.1,1.4 0.3,0.8 1.6,1.7 3,2 1.3,0.4 2.4,1.1 2.4,1.6 0,0.6 0.5,1 1.1,1 1.4,0 17.9,16.5 17.9,17.9 0,0.6 0.4,1.1 1,1.1 0.5,0 1.2,1.1 1.6,2.4 0.3,1.4 1.2,2.7 2,3 0.8,0.3 1.4,1.2 1.4,2.1 0,0.8 0.5,1.5 1,1.5 0.6,0 1,1.1 1,2.5 0,2.5 -0.1,2.5 -9,2.5 -7.3,0 -9,-0.3 -9,-1.5 0,-0.8 -0.4,-1.5 -0.9,-1.5 -0.5,0 -1.1,-1.8 -1.5,-4 -0.3,-2.2 -1,-4 -1.5,-4 -0.5,0 -1.2,-1.6 -1.5,-3.5 -0.4,-1.9 -1.1,-3.5 -1.6,-3.5 -0.5,0 -1.2,-1.1 -1.6,-2.5 -0.3,-1.4 -1,-2.5 -1.5,-2.5 -0.5,0 -0.9,-0.7 -0.9,-1.5 0,-0.9 -0.7,-1.8 -1.5,-2.1 -0.8,-0.3 -1.7,-1.5 -2.1,-2.6 -0.7,-2.4 -11.2,-12.8 -12.9,-12.8 -0.7,0 -1.5,-0.6 -1.8,-1.3 -0.4,-1 0.3,-1.2 2.4,-0.9 1.6,0.2 2.9,0.8 2.9,1.2 z m -42,23.5 l 0,19.5 -13.6,0 -13.7,0 0.7,-4.2 c 0.4,-2.3 1.1,-4.5 1.6,-4.8 0.4,-0.3 1.2,-1.8 1.5,-3.3 0.4,-1.5 1.1,-2.7 1.5,-2.7 0.5,0 1.1,-1.4 1.5,-3 0.4,-1.7 1.1,-3 1.6,-3 0.5,0 0.9,-0.7 0.9,-1.5 0,-0.8 0.9,-2.3 2,-3.2 1.1,-1 2,-2.1 2,-2.6 0,-1.2 5.6,-6.7 6.9,-6.7 0.5,0 1.4,-0.6 1.8,-1.4 0.7,-1.2 2.7,-2.3 4.6,-2.5 0.4,-0.1 0.7,8.7 0.7,19.4 z m 22,-17.5 c 0,0.5 1,1.2 2.2,1.5 2.3,0.8 6.8,5.2 6.8,6.7 0,0.5 1.1,1.9 2.4,3.1 1.4,1.3 2.8,3.5 3.1,5 0.4,1.5 1.1,2.7 1.5,2.7 0.5,0 1.1,1.3 1.5,3 0.4,1.6 1.1,3 1.5,3 0.5,0 1.2,1.6 1.6,3.5 0.3,1.9 1,3.5 1.5,3.5 0.5,0 0.9,1.1 0.9,2.5 l 0,2.5 -13.5,0 -13.5,0 0,-19.4 c 0,-18.9 0.1,-19.4 2,-18.9 1.1,0.3 2,0.9 2,1.3 z m -75.5,71.5 l 0,19.5 -8.8,0 c -12.6,0 -12.2,0.6 -12.2,-20.2 0,-13.9 0.3,-17 1.5,-17.8 0.8,-0.5 5.6,-1 10.5,-1 l 9,0 0,19.5 z m 53.5,-1.4 c 0,14.3 -0.3,18.3 -1.4,19.5 -2.1,2.1 -27.1,2 -29.2,-0.1 -2,-1.9 -2.2,-35.4 -0.2,-36.7 0.7,-0.4 7.9,-0.8 16.1,-0.8 l 14.7,0 0,18.1 z"/>
<path d="M 222,162.9 c 0,0.5 -2.2,1.1 -5,1.5 -2.7,0.4 -5,1.1 -5,1.6 0,0.4 -1.3,1.1 -3,1.5 -1.6,0.4 -3,1 -3,1.5 0,0.5 -0.9,1.2 -2,1.5 -2.6,0.8 -14.7,12.9 -15.5,15.5 -0.3,1.1 -1,2 -1.5,2 -0.5,0 -1.2,1.5 -1.5,3.2 -0.4,1.8 -1.2,3.6 -1.8,3.9 -0.5,0.4 -1.2,3 -1.5,5.8 -0.2,2.8 -0.8,5.1 -1.3,5.1 -0.5,0 -0.9,3.6 -0.9,8 0,4.4 0.4,8 0.9,8 0.5,0 1.1,2.3 1.3,5.1 0.3,2.8 1,5.4 1.5,5.8 0.6,0.3 1.4,2.1 1.8,3.8 0.3,1.8 1,3.3 1.5,3.3 0.5,0 1.2,0.9 1.5,2 0.8,2.6 12.9,14.7 15.5,15.5 1.1,0.3 2,1 2,1.5 0,0.5 1.4,1.1 3,1.5 1.7,0.4 3,1.1 3,1.5 0,0.5 2.3,1.2 5,1.6 2.8,0.4 5,1 5,1.5 0,0.5 4.5,0.9 10,0.9 5.5,0 10,-0.4 10,-0.9 0,-0.5 2.3,-1.1 5,-1.5 2.8,-0.4 5,-1.1 5,-1.6 0,-0.4 1.4,-1.1 3,-1.5 1.7,-0.4 3,-1.1 3,-1.6 0,-0.5 0.7,-0.9 1.5,-0.9 0.8,0 1.5,0.5 1.5,1.1 0,0.6 2.4,3.5 5.4,6.4 3,3 5.7,6.3 6.1,7.4 0.6,2.1 2.5,2.9 2.5,1.1 0,-0.6 0.5,-1 1.1,-1 1.4,0 8.9,-7.4 8.9,-8.8 0,-0.6 -1.6,-2.6 -3.5,-4.5 -1.9,-1.9 -3.5,-3.7 -3.5,-4.1 0,-0.4 -1.4,-2.1 -3.1,-3.8 -2.4,-2.5 -2.9,-3.6 -2.4,-5.7 0.4,-1.4 1.3,-3 2.1,-3.4 0.8,-0.4 1.4,-1.5 1.4,-2.2 0,-0.8 0.4,-1.5 0.9,-1.5 0.5,0 1.2,-1.4 1.6,-3 0.4,-1.7 1.1,-3 1.5,-3 0.5,0 1.2,-2.7 1.6,-6 0.4,-3.3 1.1,-6 1.5,-6 0.5,0 0.9,-3.2 0.9,-7 0,-3.9 -0.4,-7 -0.9,-7 -0.4,0 -1.1,-2.7 -1.5,-6 -0.4,-3.3 -1.1,-6 -1.6,-6 -0.4,0 -1.1,-1.4 -1.5,-3 -0.4,-1.7 -1.1,-3 -1.6,-3 -0.5,0 -0.9,-0.7 -0.9,-1.5 0,-0.9 -0.7,-1.8 -1.5,-2.1 -0.8,-0.4 -1.5,-1.2 -1.5,-1.9 0,-1.8 -10.4,-12.2 -13.1,-13 -1.3,-0.4 -2.9,-1.4 -3.7,-2.1 -0.7,-0.8 -2.2,-1.4 -3.2,-1.4 -1,0 -2,-0.5 -2.2,-1.1 -0.2,-0.5 -2.2,-1.3 -4.6,-1.6 -2.3,-0.3 -4.2,-1 -4.2,-1.4 0,-0.5 -4.5,-0.9 -10,-0.9 -5.5,0 -10,0.4 -10,0.9 z m 21,12 c 0.3,0.5 2.2,1.1 4.3,1.5 2,0.4 3.7,1.1 3.7,1.6 0,0.6 0.7,1 1.5,1 0.9,0 1.8,0.7 2.1,1.5 0.4,0.8 1.2,1.5 1.9,1.5 1.7,0 6.1,4.3 6.9,6.8 0.4,1.1 1.3,2.3 2.1,2.6 0.8,0.3 1.5,1.2 1.5,2 0,0.8 0.5,1.6 1.1,1.8 0.5,0.2 1.3,2.2 1.6,4.6 0.3,2.3 1,4.2 1.4,4.2 0.5,0 0.9,4.7 0.9,10.5 0,5.8 -0.4,10.5 -0.9,10.5 -0.5,0 -1.1,1.8 -1.5,4 -0.3,2.2 -1.1,4 -1.6,4 -0.6,0 -1,0.7 -1,1.5 0,0.9 -0.7,1.8 -1.5,2.1 -0.8,0.4 -1.5,1.2 -1.5,1.9 0,1.7 -5.8,7.5 -7.5,7.5 -0.7,0 -1.5,0.7 -1.9,1.5 -0.3,0.8 -1.2,1.5 -2.1,1.5 -0.8,0 -1.5,0.4 -1.5,1 0,0.5 -1.7,1.2 -3.7,1.6 -2.1,0.4 -4.1,1.2 -4.5,1.8 -1,1.5 -22.7,1.3 -23.6,-0.2 -0.4,-0.6 -2,-1.4 -3.5,-1.7 -1.5,-0.4 -2.7,-1.1 -2.7,-1.5 0,-0.4 -1.1,-1.1 -2.5,-1.4 -2.8,-0.7 -10.5,-8.1 -10.5,-10.1 0,-0.7 -0.7,-1.5 -1.5,-1.9 -0.8,-0.3 -1.5,-1.2 -1.5,-2.1 0,-0.8 -0.4,-1.5 -1,-1.5 -0.5,0 -1.2,-1.7 -1.6,-3.8 -0.4,-2 -1.2,-4 -1.7,-4.4 -1.4,-0.9 -1.4,-20.7 0,-21.6 0.5,-0.4 1.3,-2.4 1.7,-4.5 0.4,-2 1.1,-3.7 1.6,-3.7 0.6,0 1,-0.7 1,-1.5 0,-0.9 0.7,-1.8 1.5,-2.1 0.8,-0.4 1.5,-1.2 1.5,-1.9 0,-1.7 5.8,-7.5 7.5,-7.5 0.7,0 1.5,-0.7 1.9,-1.5 0.3,-0.8 1.2,-1.5 2.1,-1.5 0.8,0 1.5,-0.4 1.5,-1 0,-0.5 1.8,-1.3 4,-1.6 2.2,-0.4 4,-1 4,-1.5 0,-1.8 20.8,-1.8 22,0 z"/>
<path d="M 122.2,223.2 c 0.3,3.9 0.6,4.3 3.2,4.6 3.7,0.5 5.6,2.4 5.6,5.6 0,2.2 -0.5,2.7 -4,3.2 -2.2,0.4 -4,1 -4,1.4 0,0.4 -1.9,1 -4.1,1.3 -2.3,0.3 -4.5,1 -4.8,1.5 -0.3,0.6 -1.9,1.4 -3.4,1.7 -1.5,0.4 -2.7,1.1 -2.7,1.6 0,0.5 -0.6,0.9 -1.3,0.9 -0.7,0 -2.4,1.3 -3.8,2.9 -1.4,1.5 -3.5,3.1 -4.7,3.5 -1.2,0.4 -2.2,1.2 -2.2,1.7 0,0.5 -0.5,0.9 -1.1,0.9 -1.5,0 -10.9,9.5 -10.9,11 0,0.6 -0.6,1.3 -1.4,1.6 -0.8,0.3 -1.7,1.6 -2,3 -0.4,1.3 -1,2.4 -1.5,2.4 -0.5,0 -1.2,1.3 -1.6,3 -0.4,1.6 -1,3 -1.5,3 -0.5,0 -1.2,1.5 -1.5,3.2 -0.4,1.8 -1.2,3.6 -1.6,3.9 -0.5,0.3 -1.2,4.2 -1.6,8.7 -0.3,4.5 -1,8.2 -1.4,8.2 -0.5,0 -0.9,1.6 -0.9,3.5 0,1.9 0.4,3.5 0.9,3.5 0.4,0 1.1,3.7 1.4,8.2 0.4,4.5 1.1,8.4 1.6,8.7 0.4,0.3 1.2,2.1 1.6,3.9 0.3,1.7 1,3.2 1.5,3.2 0.5,0 1.1,1.4 1.5,3 0.4,1.7 1,3 1.5,3 0.4,0 1.1,1.1 1.4,2.5 0.4,1.4 1.1,2.5 1.6,2.5 0.6,0 1,0.5 1,1.1 0,1.5 12.5,13.9 14,13.9 0.6,0 1.3,0.6 1.6,1.4 0.3,0.8 1.7,1.7 3.1,2.1 1.4,0.3 3.2,1.3 4,2 0.8,0.8 2.3,1.5 3.4,1.5 1,0 1.9,0.4 1.9,1 0,0.5 1.7,1.2 3.8,1.6 2,0.4 4,1.2 4.4,1.8 1,1.5 32.6,1.5 33.6,0 0.4,-0.6 2.6,-1.5 5,-1.9 2.3,-0.4 4.2,-1.1 4.2,-1.5 0,-0.5 1.4,-1.1 3,-1.5 1.7,-0.4 3,-1 3,-1.5 0,-0.4 1.1,-1.1 2.5,-1.4 1.4,-0.4 2.5,-1.1 2.5,-1.6 0,-0.6 0.5,-1 1.1,-1 1.4,0 16.3,-14.9 17.2,-17.2 0.3,-1 1.1,-1.8 1.6,-1.8 0.5,0 1.2,-1.3 1.6,-3 0.4,-1.6 1.1,-3 1.5,-3 0.5,0 1.2,-1.7 1.6,-3.7 0.4,-2.1 1.1,-4.1 1.6,-4.4 0.5,-0.3 1.2,-3.1 1.5,-6.2 0.3,-3.2 1,-5.7 1.4,-5.7 0.5,0 0.9,-4.3 0.9,-9.5 0,-5.2 -0.4,-9.5 -0.9,-9.5 -0.4,0 -1.1,-2.6 -1.4,-5.7 -0.3,-3.2 -1.1,-5.9 -1.7,-6.1 -0.5,-0.2 -1.3,-2.1 -1.6,-4.3 -0.4,-2.1 -1,-3.9 -1.4,-3.9 -0.5,0 -1.1,-1.4 -1.5,-3 -0.4,-1.7 -1.1,-3 -1.6,-3 -0.5,0 -0.9,-0.7 -0.9,-1.5 0,-0.9 -0.7,-1.8 -1.5,-2.1 -0.8,-0.4 -1.5,-1.2 -1.5,-1.9 0,-1.5 -8.7,-10.5 -10.1,-10.5 -0.6,0 -2,-1.1 -3.3,-2.5 -1.3,-1.4 -2.7,-2.5 -3.2,-2.5 -0.5,0 -1.7,-0.9 -2.7,-2 -0.9,-1.1 -2.4,-2 -3.2,-2 -0.8,0 -1.5,-0.4 -1.5,-0.9 0,-0.5 -1.6,-1.2 -3.5,-1.5 -1.9,-0.4 -3.5,-1.1 -3.5,-1.6 0,-0.4 -1.3,-1.1 -3,-1.5 l -3,-0.7 0,-8.4 c 0,-4.9 -0.4,-8.4 -1,-8.4 -0.5,0 -1,-0.7 -1,-1.5 0,-1.3 -2.2,-1.5 -14.1,-1.5 l -14,0 0.3,4.2 z m 28.3,27.1 c 0.9,0.9 2.1,1.7 2.6,1.7 0.6,0 2,1.1 3.2,2.4 1.2,1.3 3.3,2.7 4.5,3.1 1.3,0.4 4,2.4 6,4.4 2.1,2.1 4.5,4 5.5,4.4 0.9,0.3 1.7,1.2 1.7,1.8 0,0.6 1.1,2.2 2.4,3.4 1.3,1.2 2.7,3.2 3.1,4.3 0.3,1.2 1,2.2 1.5,2.2 0.4,0 1.1,1.2 1.5,2.7 0.3,1.5 1.1,3 1.6,3.4 0.5,0.3 1.2,2.3 1.6,4.5 0.3,2.1 1.1,4.2 1.7,4.6 1.4,1 1.3,25.7 -0.1,26.6 -0.6,0.4 -1.4,2.2 -1.8,4 -0.3,1.7 -1.1,3.2 -1.6,3.2 -0.5,0 -0.9,1.1 -0.9,2.5 0,1.4 -0.7,2.8 -1.5,3.1 -0.8,0.4 -1.5,1.2 -1.5,1.9 0,2 -13.7,15.4 -16.5,16.1 -1.4,0.3 -2.5,1 -2.5,1.4 0,0.5 -1.3,1.1 -3,1.5 -1.6,0.4 -3,1.1 -3,1.5 0,0.5 -2.7,1.2 -6,1.6 -3.3,0.4 -6,1.1 -6,1.5 0,0.5 -3.1,0.9 -7,0.9 -3.8,0 -7,-0.4 -7,-0.9 0,-0.4 -2.7,-1.1 -6,-1.5 -3.3,-0.4 -6,-1.1 -6,-1.6 0,-0.4 -1.3,-1.1 -3,-1.5 -1.6,-0.4 -3,-1.1 -3,-1.6 0,-0.5 -0.7,-0.9 -1.5,-0.9 -0.9,0 -1.8,-0.7 -2.1,-1.5 -0.4,-0.8 -1.2,-1.5 -1.9,-1.5 -2,0 -12.4,-10.7 -13.1,-13.5 -0.3,-1.4 -1,-2.5 -1.4,-2.5 -0.5,0 -1.1,-1.3 -1.5,-3 -0.4,-1.6 -1.1,-3 -1.6,-3 -0.5,0 -1.2,-1.8 -1.5,-4 -0.4,-2.2 -1,-4 -1.5,-4 -0.5,0 -0.9,-5.4 -0.9,-12 0,-6.6 0.4,-12 0.9,-12 0.4,0 1.1,-1.9 1.4,-4.1 0.3,-2.3 1,-4.5 1.5,-4.8 0.6,-0.3 1.4,-1.9 1.7,-3.4 0.4,-1.5 1.1,-2.7 1.6,-2.7 0.5,0 0.9,-0.7 0.9,-1.5 0,-0.9 0.7,-1.8 1.5,-2.1 0.8,-0.4 1.5,-1.2 1.5,-1.9 0,-1.8 7.3,-9.2 9.9,-10 1.2,-0.3 2.1,-1.1 2.1,-1.6 0,-0.5 0.7,-0.9 1.5,-0.9 0.9,0 1.8,-0.6 2.1,-1.4 0.3,-0.8 1.7,-1.7 3.2,-2.1 1.4,-0.3 3.7,-1.8 4.9,-3.2 1.5,-1.5 3.9,-2.7 6.3,-3 2.2,-0.3 4,-0.9 4,-1.4 0,-1.3 3.3,-1.8 11.6,-1.5 6.1,0.2 8.6,0.7 9.9,1.9 z"/>
<path d="M 135,277 c 0,19.6 -0.2,23 -1.5,23 -0.8,0 -1.7,1.1 -2.1,2.5 -0.3,1.4 -1,2.5 -1.5,2.5 -0.5,0 -0.9,0.7 -0.9,1.5 0,0.8 0.5,1.5 1,1.5 0.6,0 1,0.6 1,1.3 0,1.8 3.7,4.7 6,4.7 3.2,0 6.4,-3.9 6.3,-7.7 -0.1,-3.2 -2.2,-6.3 -4.2,-6.3 -0.8,0 -1.1,-7.3 -1.1,-23 0,-19.8 -0.2,-23 -1.5,-23 -1.3,0 -1.5,3.2 -1.5,23 z"/>
<path d="M 144,261 c 0,4.5 0.4,6 1.4,6 0.8,0 1.6,0.5 1.8,1 0.2,0.6 4.3,1.3 9.1,1.7 4.8,0.3 8.7,1 8.7,1.4 0,0.5 0.7,0.9 1.5,0.9 0.8,0 1.5,-0.3 1.5,-0.8 0,-0.9 -3.7,-4.2 -4.7,-4.2 -0.3,0 -2.1,-1.6 -4,-3.5 -1.9,-1.9 -4,-3.5 -4.8,-3.5 -0.8,0 -1.5,-0.4 -1.5,-1 0,-0.5 -1.6,-1.2 -3.5,-1.6 -1.9,-0.3 -3.5,-1 -3.5,-1.5 0,-0.5 -0.4,-0.9 -1,-0.9 -0.6,0 -1,2.7 -1,6 z"/>
<path d="M 147.7,290 c -5.2,5.2 -5.7,8.2 -1.6,9.5 1.5,0.5 3.2,-0.5 7,-4.4 2.7,-2.7 4.9,-5.2 4.9,-5.5 0,-0.9 -3.9,-4.6 -4.7,-4.5 -0.5,0 -3,2.2 -5.6,4.9 z"/>
<path d="M 40.7,253 c -1.9,2.3 -2.2,4 -0.7,4 0.6,0 1,0.7 1,1.5 0,1.3 2.7,1.5 18.5,1.5 15.8,0 18.5,-0.2 18.5,-1.5 0,-0.8 0.5,-1.5 1,-1.5 1.5,0 1.2,-1.7 -0.7,-4 -1.6,-1.9 -2.9,-2 -18.8,-2 -15.9,0 -17.2,0.1 -18.8,2 z"/>
<path d="M 289,266.7 c -0.8,0.4 -3.8,3 -6.7,5.9 -2.8,2.9 -6.1,5.5 -7.2,5.9 -2.5,0.7 -2.7,2 -0.6,2.9 0.8,0.3 1.5,1 1.5,1.6 0,0.7 1.4,2.5 3,4.2 1.7,1.6 3,3.5 3,4.1 0.1,0.7 1.4,2.3 3,3.7 1.7,1.3 3,2.8 3,3.3 0,0.5 1.8,2.7 4,4.8 2.2,2.2 4,4.3 4,4.8 0,0.5 1.3,2.2 2.8,3.8 1.6,1.5 3.1,3.6 3.5,4.5 0.3,1 1.3,1.8 2.2,1.8 0.8,0 1.5,0.4 1.5,1 0,0.5 2,1 4.5,1 2.5,0 4.5,-0.5 4.5,-1 0,-0.6 0.6,-1 1.4,-1 1.9,0 7.6,-5.7 7.6,-7.6 0,-0.8 0.5,-1.4 1,-1.4 0.6,0 1,-1.4 1,-3 0,-1.7 -0.4,-3 -0.9,-3 -0.5,0 -1.2,-1.1 -1.5,-2.5 -0.4,-1.4 -4.7,-6.5 -9.6,-11.4 -5,-4.8 -9,-9.1 -9,-9.5 0,-1.1 -12.6,-13.6 -13.6,-13.5 -0.5,0 -1.6,0.3 -2.4,0.6 z"/>
<path d="M 23,276.5 c 0,0.8 -0.4,1.5 -1,1.5 -0.5,0 -1,0.7 -1,1.5 0,0.8 0.5,1.5 1,1.5 0.6,0 1,0.7 1,1.5 0,1.3 3,1.5 21,1.5 l 21,0 0.6,-2.4 c 0.3,-1.4 0.4,-3.3 0.2,-4.3 -0.3,-1.7 -1.9,-1.8 -21.6,-2.1 -18.4,-0.2 -21.2,0 -21.2,1.3 z"/>
<path d="M 12.6,300.6 c -1.8,1.7 -2,4.2 -0.6,6.4 0.8,1.3 4.6,1.5 23.8,1.5 20.1,0 23,-0.2 24.5,-1.7 2.1,-2.1 2.1,-3.3 0,-5.8 -1.7,-1.9 -2.9,-2 -24,-2 -18.8,0 -22.4,0.2 -23.7,1.6 z"/>
<path d="M 22.7,325 c -0.9,1.1 -1.7,2.5 -1.7,3 0,0.5 0.8,1.9 1.7,3 1.6,1.9 2.9,2 21,2 20.3,0 22.3,-0.4 22.3,-5 0,-4.6 -2,-5 -22.3,-5 -18.1,0 -19.4,0.1 -21,2 z"/>
<path d="M 40.7,349 c -1.9,2.3 -2.2,4 -0.7,4 0.6,0 1,0.6 1,1.4 0,2.1 3.3,2.6 18.5,2.6 15.2,0 18.5,-0.5 18.5,-2.6 0,-0.8 0.5,-1.4 1,-1.4 1.5,0 1.2,-1.7 -0.7,-4 -1.6,-1.9 -2.9,-2 -18.8,-2 -15.9,0 -17.2,0.1 -18.8,2 z"/>
</svg>
