<svg xmlns="http://www.w3.org/2000/svg" viewBox="0 0 384 384">
<path d="M 72.7,11.1 c -2,1.1 -4.9,3.8 -6.5,6.1 -2.6,4 -2.7,4.8 -3.2,20.2 l -0.5,16.1 -17,0.5 c -15.8,0.5 -17.2,0.7 -20.3,2.8 -5.9,4.3 -7.2,8.4 -7.2,23.1 0,14 0.7,17.1 4.8,21.5 4.6,4.9 7.7,5.6 24.7,5.6 l 15.5,0 0,13.7 c 0,15.7 0.9,20 5,24.7 4.7,5.3 7,5.8 24.1,5.4 14.2,-0.3 15.6,-0.5 18.7,-2.6 5.8,-4.2 6.6,-7 7.2,-24.7 l 0.5,-16 16.5,-0.5 c 18.4,-0.6 21.4,-1.5 25.7,-8 2.1,-3.1 2.3,-4.4 2.3,-18.5 0,-14.2 -0.2,-15.4 -2.3,-18.6 -1.2,-1.8 -3.8,-4.4 -5.6,-5.6 -3.2,-2.2 -4.4,-2.3 -19.6,-2.3 -13.9,0 -16.4,-0.2 -16.9,-1.6 -0.3,-0.9 -0.6,-7.8 -0.6,-15.4 0,-14.9 -0.6,-17.9 -4.8,-22.4 -4.5,-4.8 -7.8,-5.6 -22.9,-5.6 -11.8,0.1 -14.4,0.4 -17.6,2.1 z m 33.9,9 c 1.7,1.9 2,4.3 2.4,21.8 l 0.5,19.6 20.2,0.5 c 25.7,0.6 24.6,-0.1 25.1,16.6 0.2,7 -0.1,12.6 -0.7,14.3 -2.2,5.1 -4,5.6 -25.1,6.1 l -19.5,0.5 -0.3,19.2 -0.2,19.2 -3.1,2.5 c -2.9,2.5 -3.6,2.6 -15.4,2.6 -11.6,0 -12.6,-0.1 -15.2,-2.4 l -2.8,-2.4 -0.3,-19.6 -0.3,-19.6 -17.2,0 c -9.5,0 -18.9,-0.5 -20.9,-1 -6.1,-1.7 -6.8,-3.7 -6.8,-18 0.1,-18.3 -0.3,-18 25.9,-18 l 19.1,0 0,-18.9 c 0,-18.9 0,-19 2.6,-22 l 2.6,-3.1 13.7,0 c 12.7,0 13.9,0.2 15.7,2.1 z"/>
<path d="M 249.3,33 c -14,1.5 -28.5,7.7 -40.3,17.3 -16.8,13.6 -29,38.1 -32.1,64.8 -1.5,13.2 -0.6,34.2 2.1,46.8 1.1,5.2 2,10 2,10.7 0,1.1 -12.1,1.4 -64.7,1.6 l -64.8,0.3 -6.8,3.2 c -8.4,4 -16.3,11.7 -20.3,19.8 l -2.9,6 0,64 0,64 2.8,5.8 c 5.6,11.3 16.7,20.1 28.5,22.6 6.8,1.4 246.4,1.6 254,0.1 12.4,-2.3 22.9,-10.6 28.9,-22.8 l 3.8,-7.6 0,-62.1 0,-62.1 -3.7,-7.5 c -4.6,-9.3 -11.2,-15.8 -20.6,-20.2 l -6.7,-3.2 -53.7,-0.3 -53.8,-0.3 -1.5,-5.2 c -4,-13.9 -4.8,-20.3 -4.8,-37.2 0,-15.2 0.3,-18.1 2.6,-26.9 7.5,-28.1 23.5,-46.1 46.4,-52 7.9,-2.1 22.6,-2 31.1,0 8.2,2 22.9,8.8 30.8,14.2 18.5,12.6 35.3,32.7 46.1,55.1 2.6,5.3 4.7,9.7 4.8,9.9 0.4,0.5 15.2,-6.5 15.8,-7.5 0.9,-1.4 -9.3,-21.2 -16.8,-32.4 -9.1,-13.5 -27.8,-32.6 -39.5,-40.2 -17.4,-11.2 -32.3,-17 -48.4,-18.7 -5,-0.5 -9.5,-0.9 -10.1,-0.8 -0.5,0 -4.2,0.4 -8.2,0.8 z m 57.5,166.1 c 2.6,1.3 5.4,3.8 7,6.2 l 2.7,4.1 0.3,56 c 0.2,37.2 0,57.3 -0.7,59.7 -1.5,5.1 -4.8,8.8 -9.5,11 -3.9,1.8 -9.5,1.9 -126.5,1.9 -122.3,0 -122.5,0 -126.8,-2.1 -3,-1.5 -5.2,-3.5 -7.1,-6.7 l -2.7,-4.7 -0.3,-54.8 c -0.2,-36.8 0.1,-56.1 0.8,-58.7 1.3,-4.8 6.3,-10.8 10.5,-12.6 2.4,-1.1 26.5,-1.3 125.4,-1.4 l 122.5,0 4.4,2.1 z"/>
<path d="M 198.7,213.7 c -0.4,0.3 -0.7,6 -0.7,12.5 l 0,11.9 12.8,-0.3 12.7,-0.3 0.3,-10 c 0.4,-15.5 1.3,-14.5 -12.7,-14.5 -6.5,0 -12.1,0.3 -12.4,0.7 z"/>
<path d="M 59,226 l 0,12 13,0 13.1,0 -0.3,-11.8 -0.3,-11.7 -12.7,-0.3 -12.8,-0.3 0,12.1 z"/>
<path d="M 105,226 l 0,12 13,0 13,0 0,-12 0,-12 -13,0 -13,0 0,12 z"/>
<path d="M 151.7,214.7 c -0.4,0.3 -0.7,5.7 -0.7,12 l 0,11.3 13,0 13,0 0,-12 0,-12 -12.3,0 c -6.8,0 -12.7,0.3 -13,0.7 z"/>
<path d="M 274.4,215.3 c -0.2,0.7 -0.3,6 -0.2,11.8 l 0.3,10.4 12.8,0.3 12.7,0.3 0,-12.1 0,-12 -12.5,0 c -9.5,0 -12.7,0.3 -13.1,1.3 z"/>
<path d="M 275,266 l 0,12.1 12.8,-0.3 12.7,-0.3 0.3,-11.8 0.3,-11.7 -13.1,0 -13,0 0,12 z"/>
<path d="M 86,269 l 0,12.1 12.8,-0.3 12.7,-0.3 0.3,-11.8 0.3,-11.7 -13.1,0 -13,0 0,12 z"/>
<path d="M 132,269 l 0,12.1 12.8,-0.3 12.7,-0.3 0.3,-11.8 0.3,-11.7 -13.1,0 -13,0 0,12 z"/>
<path d="M 181,269 l 0,12 13,0 13,0 0,-12 0,-12 -13,0 -13,0 0,12 z"/>
<path d="M 227.2,268.7 l 0.3,11.8 12.8,0.3 12.7,0.3 0,-12.1 0,-12 -13,0 -13.1,0 0.3,11.7 z"/>
<path d="M 227.4,296.3 c -0.2,0.7 -0.3,6.2 -0.2,12.3 l 0.3,10.9 12.5,0 12.5,0 0.3,-12.3 0.3,-12.2 -12.6,0 c -9.5,0 -12.7,0.3 -13.1,1.3 z"/>
<path d="M 56,309 l 0,12 13,0 13,0 0,-12 0,-12 -13,0 -13,0 0,12 z"/>
<path d="M 102,309 l 0,12 53,0 53,0 0,-12 0,-12 -53,0 -53,0 0,12 z"/>
<path d="M 275.4,298.3 c -0.2,0.7 -0.3,6 -0.2,11.8 l 0.3,10.4 12.8,0.3 12.7,0.3 0,-12.1 0,-12 -12.5,0 c -9.5,0 -12.7,0.3 -13.1,1.3 z"/>
</svg>
