<svg xmlns="http://www.w3.org/2000/svg" viewBox="0 0 384 384">
<path d="M 177.4,26 c -7,1 -13.7,3.4 -22.5,7.9 -10.9,5.5 -12.7,6.9 -15.6,11.8 -2.2,3.8 -2.5,5.1 -1.9,9.6 0.4,2.9 1.4,7.4 2.2,10.2 0.8,2.7 3.2,11.2 5.3,18.8 2.2,7.6 4.1,14.1 4.4,14.4 0.3,0.3 1.6,-0.2 2.9,-1.1 1.2,-0.9 3.5,-1.6 5.1,-1.6 1.6,0 3,-0.7 3.4,-1.5 0.7,-2 5.5,-4.5 8.6,-4.5 2.7,0 5.7,2.8 5.7,5.4 0,0.9 -1.6,2.6 -3.5,3.7 l -3.5,2.1 2.4,3.1 c 1.3,1.8 3.1,4.8 4.1,6.7 1,1.9 2.6,4.4 3.6,5.5 1.6,1.8 1.7,3 0.9,11.6 -0.9,9.9 -1.2,10.8 -4.1,17.4 -1.6,3.7 -1.6,5 -0.3,17.5 0.7,7.4 2,18.7 2.9,25 1.5,10.9 2.5,18.1 5.9,45 0.8,6.3 2.9,22.3 4.6,35.5 3.8,29.3 5.6,43.1 7.1,55.5 1.5,12.3 4.5,18.7 12.5,26.5 8.9,8.8 15.7,11.9 26.7,12.4 8.3,0.3 9.3,0.1 15.2,-2.8 7.5,-3.7 12.7,-9.2 17.2,-18.2 4.5,-9.2 5.3,-12.2 5.3,-21.1 0,-6 -1.1,-12.5 -4.5,-26.6 -2.5,-10.3 -5.8,-23.7 -7.2,-29.7 -1.5,-6.1 -2.8,-11.2 -3,-11.4 -0.1,-0.2 -5,2 -10.8,4.9 -13.4,6.7 -18.7,7.4 -26.9,3.7 -6,-2.8 -9.6,-7.2 -9.6,-12 0,-1.5 -0.4,-2.7 -1,-2.7 -1.6,0 -8,-6.1 -9.6,-9.1 -1.8,-3.6 -1.8,-10 0.1,-14.5 0.8,-2 4.4,-6.6 8,-10.3 3.6,-3.7 6.5,-7.1 6.5,-7.5 0,-0.4 -1.3,-1.8 -2.9,-3.2 -1.6,-1.3 -3.9,-4.5 -5.1,-7.1 -1.8,-3.8 -2.1,-5.7 -1.5,-10 l 0.6,-5.3 -5.7,0 c -20.5,0 -25.6,-21 -7.5,-30.3 10.2,-5.1 23.4,-2.9 28.1,4.9 1.2,1.9 2.6,3.4 3,3.4 0.5,0 2.7,-3 4.9,-6.8 3.8,-6.5 3.9,-6.8 2.1,-8.7 -4.8,-5.4 -5.5,-11.1 -3.2,-24.9 1.7,-9.8 1.7,-11.9 0.5,-19.5 -0.7,-4.7 -2,-13.8 -2.8,-20.1 -3.8,-29.5 -4.4,-33.8 -5.3,-37.8 -2.1,-9.2 -6.7,-12.3 -20.8,-14.1 -9.9,-1.2 -13.3,-1.2 -21,-0.1 z m 29.4,32.6 c 4.1,2.9 2.4,6.6 -3.8,8.4 -5.7,1.6 -10.2,-1.8 -7.9,-6.1 2,-3.8 8,-4.9 11.7,-2.3 z m -18.8,4.2 c 3.1,2.5 1.9,5.9 -2.7,7.9 -6,2.4 -11.7,-1.2 -9.2,-5.8 2,-3.9 8.3,-5 11.9,-2.1 z m -18.8,4.4 c 2.6,4.2 -3.6,9.2 -10,8 -4.7,-0.9 -4.6,-7.3 0.1,-9.2 2.8,-1.2 8.8,-0.5 9.9,1.2 z m 42.6,16.4 c 1.2,0.8 2.2,2.3 2.2,3.3 0,4.1 -7.4,7.3 -11.5,5.1 -4.4,-2.3 -4.2,-6 0.4,-8.5 3.4,-1.9 6.2,-1.9 8.9,0.1 z m -18.8,4.2 c 4.3,3.5 0.3,8.4 -6.7,8.4 -7,0 -8.3,-6 -2,-8.7 4.3,-1.9 6.1,-1.8 8.7,0.3 z m 24.8,21.4 c 1.8,1.5 1.5,4.3 -0.9,6.4 -2.7,2.4 -9.2,2.5 -11.6,0.1 -1.6,-1.6 -1.6,-1.8 0.3,-4.4 3.1,-4.1 8.5,-5 12.2,-2.1 z m -20,3.4 c 2.6,1.8 2.8,4.5 0.5,6.6 -3.9,3.4 -10.4,3.3 -12.3,-0.2 -1.3,-2.5 -0.5,-4.2 2.8,-6.3 3.4,-2.1 6.1,-2.1 9,-0.1 z"/>
<path d="M 153.6,105.2 c -0.8,1.3 -2.2,5 -3.1,8.3 -0.8,3.3 -3.8,10.5 -6.6,16 -6.9,13.5 -7.9,17.1 -8.5,31 -0.5,9.7 -1.2,13.8 -3.6,21.4 -2.9,8.9 -3,9.9 -2.4,20 0.4,5.8 1.4,15.8 2.2,22.1 1.3,10.5 2.2,14.6 5.3,25 0.6,1.9 1.1,6 1.1,9.1 0,5.6 -0.1,5.7 -8.7,16.4 -4.9,5.9 -16.1,19.8 -25.1,30.9 -16,19.7 -22.3,27.4 -33.6,40.8 -3.1,3.7 -5.6,7.1 -5.6,7.6 0,0.5 23.5,0.6 52.2,0.4 l 52.2,-0.5 6.7,-7.1 c 3.6,-3.9 8.1,-8.8 9.9,-10.9 l 3.3,-3.8 -1.3,-9.2 c -0.6,-5 -1.8,-13.9 -2.5,-19.7 -0.7,-5.8 -3.4,-26.7 -6,-46.5 -2.6,-19.8 -5.3,-40.7 -6,-46.5 -0.7,-5.8 -2.3,-17.7 -3.4,-26.5 -1.2,-8.8 -2.5,-20.5 -3,-26 -0.8,-9.6 -0.8,-10.2 1.7,-15 2.3,-4.3 2.6,-6.3 2.6,-14 0,-10.2 -1.8,-15.1 -8.2,-21.8 -4.1,-4.2 -7.5,-4.8 -9.6,-1.5 z"/>
<path d="M 235.7,111.2 c -0.8,1.3 -2,6.2 -2.7,10.9 -1.7,11.5 -0.6,14.9 5.5,17.6 l 4.4,1.9 -2.9,3.5 c -1.6,2 -4.4,6.2 -6.3,9.5 -1.9,3.2 -7.2,10.2 -11.8,15.4 -7.9,9.1 -10.9,14 -10.9,17.7 0,0.9 0.9,3.6 2,5.9 3.7,7.5 9.8,8 18.9,1.3 2.3,-1.6 4.3,-2.9 4.6,-2.9 1.5,0 -12.1,15 -18.1,20 -9.7,7.9 -12.6,11.9 -13.2,18 -0.4,4.4 -0.2,5.2 2.6,8 3.5,3.4 7.1,3.8 14.5,1.6 5.5,-1.6 6.1,-0.6 1.4,2.3 -7.7,4.7 -8.6,9.4 -2.4,13.1 6.7,4.1 16.3,1.6 31.5,-8.4 8.9,-5.9 13.7,-11.4 15.9,-18.2 2.1,-6.6 1.4,-9 -4.3,-14.7 l -4.6,-4.7 4.8,-7.2 c 3.8,-5.8 4.9,-8.4 5.2,-12.6 0.4,-4.5 0.1,-5.7 -1.9,-7.9 -3.6,-3.9 -9.9,-7.5 -12,-7 -1.1,0.3 -1.9,0.2 -1.9,-0.1 0,-0.3 2.2,-3.8 5,-7.8 7.4,-10.7 9.4,-20.8 5.1,-25.8 -1.9,-2.1 -8.4,-5.6 -10.5,-5.6 -2.5,0 -2.7,-1.6 -1,-9.7 1.1,-5.9 1.3,-8.5 0.5,-10.6 -2.1,-5.5 -14.7,-7.9 -17.4,-3.5 z m 7.3,117.9 c -4.4,3.6 -10.3,7.3 -9.8,6 0.4,-1.3 12.2,-9.9 12.8,-9.4 0.3,0.3 -1.1,1.8 -3,3.4 z m -12,7.9 c -0.8,0.5 -1.9,1 -2.5,1 -0.5,0 -0.3,-0.5 0.5,-1 0.8,-0.5 2,-1 2.5,-1 0.6,0 0.3,0.5 -0.5,1 z"/>
<path d="M 195.5,153.3 c -4.5,2.1 -8.5,7.3 -8.5,11.1 0,9 11.4,13.5 21.7,8.5 7.6,-3.7 9.8,-12.2 4.4,-17.3 -2.3,-2.2 -4.1,-2.9 -8.7,-3.2 -3.8,-0.3 -7,0.1 -8.9,0.9 z"/>
</svg>
