<svg xmlns="http://www.w3.org/2000/svg" viewBox="0 0 384 384">
<path d="M 258.5,35.1 c -11.7,3.8 -18.8,8 -27.5,16.5 l -5.5,5.4 -55,0.2 -55,0.3 -0.3,24.2 -0.2,24.3 -7,0 c -4.5,0 -7,0.4 -7,1.1 0,0.6 3.3,4.6 7.2,8.9 4,4.2 10.5,11.3 14.3,15.8 3.9,4.4 7.5,8.1 8,8.1 1.8,0.2 30.5,-30.8 30.5,-32.9 0,-0.5 -3.3,-1 -7.2,-1.2 l -7.3,-0.3 -0.3,-9.3 -0.3,-9.2 33.6,0 33.5,0 0,8.1 c 0,25.3 16.9,50 40,58.5 6.1,2.2 17.5,4.4 23,4.4 7.8,0 19.2,-2.9 27.9,-7.1 10.8,-5.3 22,-16.1 27.4,-26.5 6.3,-12.1 9,-27.7 6.7,-37.9 -0.5,-2.2 -1.3,-5.8 -1.8,-8 -1.3,-6 -6.6,-16.3 -11.3,-22 -9,-10.9 -18.3,-17 -33.2,-21.9 -7.1,-2.4 -25.4,-2.1 -33.2,0.5 z"/>
<path d="M 69.3,115.2 c -0.4,0.7 -1,8 -1.3,16.3 l -0.5,15 -5,0.3 c -9.3,0.6 -8.5,-9.2 -8.5,98.8 l 0,95.3 2.2,1.5 c 2,1.4 10.1,1.6 68.3,1.6 51.2,0 66.6,-0.3 68.5,-1.3 l 2.5,-1.3 0.5,-45.9 0.5,-46 49.3,-0.3 49.2,-0.2 0,-24.5 0,-24.5 6.3,0 c 9.9,0 9.9,-0.5 0,-11.1 -4.8,-5.2 -11.8,-12.8 -15.5,-16.9 l -6.7,-7.5 -3.8,4.5 c -2.1,2.4 -8.7,9.8 -14.8,16.3 -6,6.5 -11,12.3 -11,13 0,0.8 2.5,1.3 7.3,1.5 l 7.2,0.3 0,9.4 0,9.5 -33.4,0 c -29.5,0 -33.5,-0.2 -34,-1.6 -0.3,-0.9 -0.6,-16.3 -0.6,-34.2 0,-18.9 -0.4,-33.3 -1,-34.2 -0.8,-1.3 -8.1,-1.6 -52.2,-2 l -51.3,-0.5 -0.5,-15 c -0.3,-8.3 -0.9,-15.6 -1.3,-16.3 -0.6,-0.8 -3.8,-1.2 -10.2,-1.2 -6.4,0 -9.6,0.4 -10.2,1.2 z"/>
</svg>
