<?xml version="1.0" standalone="no"?>
<!DOCTYPE svg PUBLIC "-//W3C//DTD SVG 20010904//EN"
 "http://www.w3.org/TR/2001/REC-SVG-20010904/DTD/svg10.dtd">
<svg version="1.0" xmlns="http://www.w3.org/2000/svg"
 width="384.000000pt" height="384.000000pt" viewBox="0 0 384.000000 384.000000"
 preserveAspectRatio="xMidYMid meet">
<metadata>
Created by potrace 1.16, written by Peter Selinger 2001-2019
</metadata>
<g transform="translate(0.000000,384.000000) scale(0.100000,-0.100000)"
fill="#000000" stroke="none">
<path d="M1710 3820 c-314 -69 -553 -243 -707 -515 -44 -79 -90 -186 -100
-235 l-6 -31 88 3 88 3 41 70 c109 186 325 334 571 391 105 25 357 26 460 2
256 -59 467 -205 583 -405 l36 -63 89 0 89 0 -7 28 c-15 63 -78 201 -127 279
-145 229 -366 393 -623 459 -136 36 -349 42 -475 14z"/>
<path d="M3416 3630 c-104 -22 -193 -43 -197 -47 -5 -5 -10 -78 -11 -163 -3
-146 -4 -155 -23 -158 -50 -7 -65 -14 -94 -38 -24 -20 -31 -34 -31 -62 0 -43
7 -55 37 -71 29 -15 76 -14 117 3 54 22 66 62 66 219 l0 136 78 16 c42 9 103
23 134 30 32 7 60 10 63 7 3 -3 5 -47 5 -98 l0 -92 -36 -7 c-48 -8 -81 -31
-100 -66 -20 -40 -18 -57 15 -90 34 -33 83 -39 131 -14 59 30 60 37 60 297 0
184 -3 238 -12 237 -7 0 -98 -18 -202 -39z"/>
<path d="M1775 3246 c-324 -54 -538 -237 -631 -541 -27 -85 -28 -101 -29 -290
0 -174 3 -214 23 -305 47 -207 143 -464 251 -665 102 -189 105 -284 14 -385
-82 -91 -219 -147 -575 -235 -359 -88 -449 -147 -510 -335 -17 -54 -21 -99
-25 -277 l-6 -213 1632 0 1631 0 0 173 c0 208 -12 293 -49 372 -36 77 -72 120
-138 161 -72 47 -126 65 -378 128 -372 92 -505 153 -574 262 -59 92 -50 167
44 353 143 286 232 550 266 789 17 120 7 346 -20 446 -76 284 -274 479 -556
547 -106 25 -269 32 -370 15z"/>
<path d="M770 2871 c-71 -15 -120 -52 -156 -121 -17 -32 -19 -62 -19 -350 0
-344 0 -342 61 -404 52 -51 80 -60 207 -64 64 -2 123 -2 131 1 11 4 10 18 -5
79 -66 264 -65 557 5 772 14 44 23 83 20 88 -6 10 -194 9 -244 -1z"/>
<path d="M2827 2873 c-3 -5 5 -45 19 -88 68 -216 70 -486 5 -760 -11 -44 -17
-83 -15 -87 8 -12 199 -9 249 3 57 14 119 68 140 122 14 36 15 86 13 359 l-3
316 -30 43 c-18 26 -50 53 -79 68 -42 22 -65 26 -171 29 -70 3 -125 0 -128 -5z"/>
<path d="M715 1618 c-77 -16 -168 -36 -202 -45 l-63 -16 0 -157 0 -158 -45 -6
c-28 -5 -55 -17 -75 -36 -27 -25 -31 -35 -28 -72 3 -38 7 -45 38 -62 46 -24
99 -16 143 24 l32 28 3 149 c2 81 6 151 10 155 6 6 244 58 265 58 4 0 6 -44 5
-97 l-3 -97 -32 -7 c-68 -14 -120 -69 -109 -114 11 -45 41 -65 96 -65 41 0 55
5 85 31 l35 31 0 244 c0 134 -3 243 -7 243 -5 -1 -71 -15 -148 -31z"/>
</g>
</svg>
