<?xml version="1.0" standalone="no"?>
<!DOCTYPE svg PUBLIC "-//W3C//DTD SVG 20010904//EN"
 "http://www.w3.org/TR/2001/REC-SVG-20010904/DTD/svg10.dtd">
<svg version="1.0" xmlns="http://www.w3.org/2000/svg"
 width="256.000000pt" height="256.000000pt" viewBox="0 0 256.000000 256.000000"
 preserveAspectRatio="xMidYMid meet">
<metadata>
Created by potrace 1.16, written by Peter Selinger 2001-2019
</metadata>
<g transform="translate(0.000000,256.000000) scale(0.100000,-0.100000)"
fill="#000000" stroke="none">
<path d="M530 1740 l0 -780 755 0 755 0 0 643 0 642 -138 138 -137 137 -618 0
-617 0 0 -780z m1110 430 l0 -220 -375 0 -375 0 0 220 0 220 375 0 375 0 0
-220z m168 -782 l2 -288 -525 0 -525 0 0 290 0 290 523 -2 522 -3 3 -287z"/>
<path d="M1390 2165 l0 -156 88 3 87 3 3 153 3 152 -91 0 -90 0 0 -155z"/>
<path d="M860 1545 l0 -45 423 2 422 3 3 43 3 42 -425 0 -426 0 0 -45z"/>
<path d="M860 1385 l0 -45 425 0 425 0 0 45 0 45 -425 0 -425 0 0 -45z"/>
<path d="M860 1225 l0 -45 425 0 425 0 0 45 0 45 -425 0 -425 0 0 -45z"/>
<path d="M1516 510 c-42 -110 -76 -202 -76 -205 0 -3 11 -5 24 -5 20 0 27 10
46 60 l23 61 85 -3 85 -3 20 -57 c18 -51 24 -58 48 -58 l27 0 -70 183 c-38
100 -74 192 -79 205 -5 14 -17 22 -32 22 -22 0 -31 -17 -101 -200z m133 51
c17 -47 31 -88 31 -93 0 -4 -29 -8 -65 -8 -36 0 -65 3 -65 6 0 10 64 184 66
181 1 -1 16 -40 33 -86z"/>
<path d="M1830 690 c0 -18 7 -20 60 -20 l60 0 0 -185 0 -185 25 0 25 0 0 185
0 185 55 0 c48 0 55 2 55 20 0 19 -7 20 -140 20 -133 0 -140 -1 -140 -20z"/>
<path d="M2140 704 c0 -4 28 -83 61 -178 34 -94 66 -183 71 -198 8 -21 17 -28
36 -28 26 0 30 9 97 192 86 234 82 218 53 218 -23 0 -29 -14 -84 -170 -32 -93
-61 -170 -64 -170 -3 0 -31 77 -64 170 -54 156 -60 170 -82 170 -13 0 -24 -3
-24 -6z"/>
<path d="M185 593 c-59 -15 -95 -72 -95 -150 0 -99 61 -159 152 -149 25 3 56
11 68 18 57 35 79 161 40 226 -30 50 -97 72 -165 55z m109 -58 c64 -69 26
-205 -57 -205 -71 0 -118 75 -96 152 20 74 106 104 153 53z"/>
<path d="M546 575 c-34 -23 -36 -23 -36 -5 0 13 -7 20 -20 20 -19 0 -20 -7
-20 -210 0 -203 1 -210 20 -210 18 0 20 7 20 80 0 44 3 80 6 80 3 0 12 -7 20
-15 39 -39 130 -24 168 28 28 38 35 151 12 195 -32 63 -108 79 -170 37z m101
-30 c72 -51 36 -215 -48 -215 -38 0 -77 35 -85 75 -20 108 59 191 133 140z"/>
<path d="M872 583 c-44 -21 -72 -78 -72 -143 0 -114 76 -171 188 -140 35 9 42
15 42 35 0 23 -1 23 -27 9 -38 -19 -96 -18 -122 4 -12 9 -25 32 -30 50 l-10
32 105 0 104 0 0 30 c0 108 -87 168 -178 123z m105 -45 c13 -12 23 -32 23 -45
0 -22 -3 -23 -75 -23 -67 0 -75 2 -75 19 0 27 48 71 78 71 14 0 36 -10 49 -22z"/>
<path d="M1240 593 c-8 -3 -25 -15 -37 -26 l-23 -20 0 21 c0 15 -6 22 -20 22
-19 0 -20 -7 -20 -145 0 -136 1 -145 19 -145 17 0 19 10 23 104 3 94 5 107 27
130 30 32 73 34 101 6 18 -18 20 -33 20 -130 l0 -110 25 0 c25 0 25 0 25 98 0
123 -12 167 -50 187 -29 15 -62 18 -90 8z"/>
</g>
</svg>
