<?xml version="1.0" standalone="no"?>
<!DOCTYPE svg PUBLIC "-//W3C//DTD SVG 20010904//EN"
 "http://www.w3.org/TR/2001/REC-SVG-20010904/DTD/svg10.dtd">
<svg version="1.0" xmlns="http://www.w3.org/2000/svg"
 width="384.000000pt" height="384.000000pt" viewBox="0 0 384.000000 384.000000"
 preserveAspectRatio="xMidYMid meet">
<metadata>
Created by potrace 1.16, written by Peter Selinger 2001-2019
</metadata>
<g transform="translate(0.000000,384.000000) scale(0.100000,-0.100000)"
fill="#000000" stroke="none">
<path d="M1759 3450 c-604 -64 -1137 -504 -1308 -1080 -169 -568 -19 -1160
395 -1561 210 -202 433 -327 714 -398 176 -45 435 -54 624 -21 599 103 1082
539 1237 1117 68 256 66 579 -6 828 -127 438 -425 786 -840 981 -236 111 -548
162 -816 134z m428 -439 c24 -31 58 -81 75 -111 46 -81 108 -234 99 -243 -10
-10 -280 -40 -298 -33 -10 4 -13 60 -13 249 0 134 3 247 6 250 11 10 83 -52
131 -112z m-377 -135 c0 -145 -4 -247 -10 -251 -10 -6 -211 12 -270 24 -43 9
-43 14 14 142 52 116 122 223 187 284 81 76 79 80 79 -199z m-430 131 c0 -2
-17 -39 -38 -83 -21 -43 -49 -107 -62 -142 -12 -34 -25 -64 -29 -66 -14 -9
-176 59 -176 74 0 20 123 121 214 175 69 41 91 51 91 42z m1170 -31 c41 -23
160 -110 210 -154 43 -38 39 -43 -67 -82 -93 -34 -89 -36 -123 60 -12 36 -33
87 -47 113 -13 27 -28 59 -33 72 -10 28 -1 26 60 -9z m-1577 -416 c36 -16 99
-41 139 -54 85 -29 80 -9 54 -221 -10 -77 -21 -165 -24 -195 l-7 -55 -209 -3
c-115 -1 -214 2 -218 6 -12 12 13 143 48 252 33 106 129 300 148 300 2 0 33
-13 69 -30z m2042 -73 c29 -54 64 -132 78 -175 33 -98 63 -243 54 -265 -6 -15
-28 -17 -211 -17 -127 0 -207 4 -211 10 -4 6 -13 76 -20 155 -8 80 -19 172
-26 204 -6 33 -10 64 -7 71 2 6 40 24 85 40 45 15 106 40 135 53 29 14 57 24
62 23 6 -1 33 -46 61 -99z m-1355 -96 l145 -16 0 -170 0 -170 -208 -3 c-183
-2 -208 -1 -214 14 -6 16 33 349 43 366 4 5 24 6 48 2 22 -4 106 -14 186 -23z
m776 2 c3 -16 8 -35 10 -44 10 -36 33 -291 27 -305 -4 -12 -37 -14 -212 -12
l-206 3 -3 171 -2 171 132 13 c73 7 151 16 173 20 68 13 74 12 81 -17z m-1296
-613 c0 -37 34 -306 45 -360 8 -36 11 -68 7 -72 -4 -4 -51 -23 -105 -42 -53
-20 -116 -45 -138 -56 -30 -16 -44 -18 -54 -10 -22 18 -122 231 -145 310 -26
86 -51 221 -44 232 8 12 434 10 434 -2z m665 -165 l0 -170 -65 -7 c-123 -13
-255 -30 -282 -35 -25 -5 -27 -2 -37 48 -17 85 -43 311 -37 326 5 11 45 13
213 11 l208 -3 0 -170z m669 167 c6 -10 -19 -240 -34 -320 -12 -61 -14 -64
-39 -58 -14 2 -99 13 -188 23 l-163 18 0 172 0 173 209 0 c116 0 212 -3 215
-8z m676 -16 c0 -86 -68 -303 -133 -426 -58 -110 -61 -113 -106 -91 -20 10
-81 35 -136 56 -55 20 -103 40 -106 43 -4 4 1 52 11 107 10 55 22 147 25 205
4 58 8 111 10 118 3 9 56 12 220 12 l215 0 0 -24z m-1342 -808 c3 -269 4 -267
-69 -200 -51 45 -104 116 -152 202 -38 70 -92 198 -86 205 9 8 206 33 254 31
l50 -1 3 -237z m427 226 c66 -8 122 -17 124 -19 7 -8 -60 -159 -107 -239 -49
-83 -175 -222 -192 -211 -6 4 -10 98 -10 246 l0 239 33 0 c18 0 87 -7 152 -16z
m-941 -159 c18 -44 47 -108 65 -143 18 -35 31 -68 29 -72 -8 -23 -318 196
-318 225 0 12 156 74 178 71 8 0 29 -37 46 -81z m1406 52 c47 -18 85 -36 85
-42 0 -27 -295 -238 -311 -222 -3 3 12 40 34 83 22 44 43 90 47 104 15 48 44
110 52 110 4 -1 46 -15 93 -33z"/>
</g>
</svg>
