<?xml version="1.0" standalone="no"?>
<!DOCTYPE svg PUBLIC "-//W3C//DTD SVG 20010904//EN"
 "http://www.w3.org/TR/2001/REC-SVG-20010904/DTD/svg10.dtd">
<svg version="1.0" xmlns="http://www.w3.org/2000/svg"
 width="384.000000pt" height="384.000000pt" viewBox="0 0 384.000000 384.000000"
 preserveAspectRatio="xMidYMid meet">
<metadata>
Created by potrace 1.16, written by Peter Selinger 2001-2019
</metadata>
<g transform="translate(0.000000,384.000000) scale(0.100000,-0.100000)"
fill="#000000" stroke="none">
<path d="M1530 3218 c-151 -89 -341 -200 -423 -247 -81 -47 -147 -90 -147 -96
0 -5 46 -38 102 -72 l102 -62 30 18 c27 16 270 157 548 318 l76 44 149 -82
c81 -45 207 -114 278 -154 72 -40 171 -94 220 -120 50 -26 95 -51 100 -55 29
-21 475 -260 486 -260 17 0 219 111 219 121 0 4 -35 27 -77 50 -154 84 -732
404 -893 494 -298 167 -478 265 -487 265 -4 -1 -132 -73 -283 -162z"/>
<path d="M687 2643 c-209 -284 -297 -408 -297 -418 0 -6 15 -19 33 -29 50 -29
507 -300 642 -381 124 -74 305 -181 340 -201 11 -6 89 -52 173 -102 83 -51
155 -92 160 -92 11 0 355 482 356 499 1 14 -134 99 -470 297 -92 54 -431 255
-624 369 -85 51 -176 104 -202 119 l-47 27 -64 -88z"/>
<path d="M2914 2127 c-298 -166 -549 -308 -558 -316 -14 -12 -16 -80 -16 -682
0 -431 4 -670 10 -674 5 -3 108 51 227 121 120 69 370 215 555 323 l338 196 0
668 c0 367 -3 667 -7 666 -5 0 -252 -136 -549 -302z m256 -756 c0 -74 -4 -102
-15 -111 -27 -22 -35 0 -35 92 0 71 4 96 16 109 9 10 21 16 25 13 5 -3 9 -49
9 -103z m-112 -68 c-3 -93 -5 -108 -20 -111 -16 -3 -18 7 -18 101 0 105 3 117
27 117 11 0 13 -22 11 -107z m-70 -35 c2 -78 0 -99 -13 -112 -9 -9 -21 -14
-26 -11 -13 8 -11 182 2 206 22 41 34 14 37 -83z m-78 -48 c0 -60 -2 -110 -4
-110 -2 0 -11 -3 -20 -6 -14 -5 -16 7 -16 98 0 98 7 128 32 128 4 0 8 -49 8
-110z m-100 -59 c0 -91 -8 -121 -32 -121 -13 0 -10 204 4 218 22 22 28 0 28
-97z m-84 -148 c-3 -7 -10 -13 -16 -13 -15 0 -13 203 3 219 10 10 13 -8 15
-90 1 -57 0 -109 -2 -116z"/>
<path d="M690 1527 l0 -245 43 -25 c23 -13 123 -71 222 -129 872 -509 1147
-668 1156 -668 5 0 9 241 9 535 0 294 -4 535 -8 535 -5 0 -38 -39 -74 -87 -35
-49 -102 -139 -148 -200 -46 -62 -89 -113 -96 -113 -8 0 -69 33 -136 73 -68
40 -247 147 -398 237 -151 89 -334 198 -407 242 -73 43 -139 81 -148 84 -13 5
-15 -23 -15 -239z"/>
</g>
</svg>
