<?xml version="1.0" standalone="no"?>
<!DOCTYPE svg PUBLIC "-//W3C//DTD SVG 20010904//EN"
 "http://www.w3.org/TR/2001/REC-SVG-20010904/DTD/svg10.dtd">
<svg version="1.0" xmlns="http://www.w3.org/2000/svg"
 width="256.000000pt" height="256.000000pt" viewBox="0 0 256.000000 256.000000"
 preserveAspectRatio="xMidYMid meet">
<metadata>
Created by potrace 1.16, written by Peter Selinger 2001-2019
</metadata>
<g transform="translate(0.000000,256.000000) scale(0.100000,-0.100000)"
fill="#000000" stroke="none">
<path d="M910 2455 c-257 -58 -482 -226 -592 -443 -43 -84 -43 -86 -43 -191 0
-95 3 -112 28 -166 33 -70 65 -107 124 -142 35 -20 66 -27 181 -38 154 -14
196 -28 235 -74 27 -33 32 -51 42 -162 8 -90 48 -171 114 -232 77 -72 125 -90
254 -95 418 -16 759 148 912 439 51 98 69 175 68 304 -1 221 -67 389 -208 531
-69 69 -96 88 -195 137 -203 100 -377 137 -665 143 -142 3 -206 0 -255 -11z
m119 -220 c30 -15 61 -69 61 -105 0 -36 -31 -90 -61 -105 -47 -25 -104 -19
-140 13 -27 24 -33 37 -37 85 -4 54 -3 58 31 92 29 29 42 35 76 35 23 0 55 -7
70 -15z m437 -19 c30 -30 34 -40 34 -86 0 -46 -4 -56 -34 -86 -28 -28 -42 -34
-75 -34 -53 0 -97 22 -116 60 -45 86 12 180 109 180 41 0 53 -5 82 -34z m371
-181 c12 -3 34 -20 48 -36 45 -55 27 -152 -35 -184 -40 -20 -89 -19 -124 4
-39 26 -55 57 -56 108 0 50 35 98 83 112 32 9 41 8 84 -4z m-1167 -110 c55
-28 76 -105 45 -165 -22 -43 -53 -60 -108 -60 -42 0 -54 5 -83 34 -30 30 -34
41 -34 84 0 53 24 96 64 112 33 14 84 11 116 -5z m661 -528 c89 -59 89 -185 0
-244 -91 -61 -212 -3 -227 109 -15 118 126 203 227 135z"/>
</g>
</svg>
