<?xml version="1.0" standalone="no"?>
<!DOCTYPE svg PUBLIC "-//W3C//DTD SVG 20010904//EN"
 "http://www.w3.org/TR/2001/REC-SVG-20010904/DTD/svg10.dtd">
<svg version="1.0" xmlns="http://www.w3.org/2000/svg"
 width="384.000000pt" height="384.000000pt" viewBox="0 0 384.000000 384.000000"
 preserveAspectRatio="xMidYMid meet">
<metadata>
Created by potrace 1.16, written by Peter Selinger 2001-2019
</metadata>
<g transform="translate(0.000000,384.000000) scale(0.100000,-0.100000)"
fill="#000000" stroke="none">
<path d="M1780 3624 c-776 -75 -1399 -644 -1541 -1409 -29 -156 -32 -419 -5
-570 59 -336 191 -612 413 -868 203 -233 513 -425 823 -510 166 -46 220 -52
455 -52 250 0 305 7 498 66 544 166 970 592 1135 1134 60 195 67 249 67 500 0
204 -3 242 -24 340 -150 702 -685 1221 -1386 1346 -107 19 -344 31 -435 23z
m431 -1166 c263 -428 330 -544 322 -557 -5 -9 -151 -245 -323 -526 -172 -280
-320 -518 -328 -527 -14 -16 -41 -18 -290 -18 -226 0 -273 2 -269 14 5 12 561
921 627 1025 24 37 27 49 18 65 -6 12 -155 254 -330 539 -175 285 -317 521
-314 525 2 4 128 6 279 4 l275 -3 333 -541z"/>
</g>
</svg>
