<?xml version="1.0" standalone="no"?>
<!DOCTYPE svg PUBLIC "-//W3C//DTD SVG 20010904//EN"
 "http://www.w3.org/TR/2001/REC-SVG-20010904/DTD/svg10.dtd">
<svg version="1.0" xmlns="http://www.w3.org/2000/svg"
 width="364.000000pt" height="364.000000pt" viewBox="0 0 364.000000 364.000000"
 preserveAspectRatio="xMidYMid meet">
<metadata>
Created by potrace 1.16, written by Peter Selinger 2001-2019
</metadata>
<g transform="translate(0.000000,364.000000) scale(0.100000,-0.100000)"
fill="#000000" stroke="none">
<path d="M1302 3610 c-200 -53 -375 -185 -475 -360 -36 -63 -74 -188 -88 -284
-11 -80 -5 -220 12 -263 7 -19 -1 -26 -98 -73 -235 -115 -376 -327 -390 -585
-9 -166 26 -304 112 -435 129 -195 346 -309 588 -310 l77 0 0 153 0 154 -93
10 c-160 17 -267 86 -329 210 -57 117 -50 276 17 383 57 90 173 163 277 175
108 12 120 16 163 56 62 58 69 105 26 193 -61 126 -74 230 -45 341 47 184 201
324 392 357 211 36 429 -88 492 -280 29 -89 121 -116 220 -66 75 38 191 41
261 6 128 -63 200 -210 170 -349 -23 -106 -23 -136 -3 -173 27 -49 71 -76 136
-83 122 -12 249 -106 304 -225 24 -50 27 -69 27 -162 0 -99 -2 -110 -33 -172
-62 -126 -169 -194 -329 -211 l-93 -10 0 -154 0 -153 78 0 c241 1 458 115 587
310 54 84 78 142 99 243 33 159 13 326 -54 462 -71 143 -163 235 -306 305
l-81 41 -7 78 c-19 227 -144 413 -349 517 -103 53 -173 67 -297 61 -58 -2
-112 -7 -120 -11 -10 -4 -29 11 -60 50 -94 118 -272 229 -418 259 -97 21 -280
18 -370 -5z"/>
<path d="M1667 1764 c-4 -4 -7 -47 -7 -95 0 -80 -2 -88 -21 -94 -17 -6 -34 6
-85 56 l-64 64 -105 -107 c-58 -58 -105 -109 -105 -114 0 -5 25 -34 56 -65 48
-49 56 -61 50 -83 -6 -26 -8 -26 -96 -26 l-90 0 0 -155 0 -155 90 0 c88 0 90
0 96 -26 6 -22 -2 -34 -50 -83 -31 -31 -56 -61 -56 -66 0 -6 47 -57 105 -115
l105 -105 62 62 c50 50 68 61 86 57 21 -6 22 -11 22 -100 l0 -94 160 0 160 0
0 94 c0 89 1 94 23 100 17 4 35 -7 85 -57 l62 -62 105 105 c58 58 105 109 105
115 0 5 -25 35 -56 66 -48 49 -56 61 -50 83 6 26 8 26 96 26 l90 0 0 155 0
155 -90 0 c-88 0 -90 0 -96 26 -6 22 2 34 50 83 31 31 56 60 56 65 0 5 -47 56
-105 114 l-105 107 -64 -64 c-50 -50 -68 -62 -84 -56 -19 5 -22 15 -24 98 l-3
92 -151 3 c-82 1 -153 -1 -157 -4z m243 -492 c60 -44 79 -151 37 -213 -32 -48
-81 -71 -140 -66 -83 7 -137 68 -137 155 0 69 37 123 96 142 40 13 114 3 144
-18z"/>
</g>
</svg>
