<?xml version="1.0" standalone="no"?>
<!DOCTYPE svg PUBLIC "-//W3C//DTD SVG 20010904//EN"
 "http://www.w3.org/TR/2001/REC-SVG-20010904/DTD/svg10.dtd">
<svg version="1.0" xmlns="http://www.w3.org/2000/svg"
 width="384.000000pt" height="384.000000pt" viewBox="0 0 384.000000 384.000000"
 preserveAspectRatio="xMidYMid meet">
<metadata>
Created by potrace 1.16, written by Peter Selinger 2001-2019
</metadata>
<g transform="translate(0.000000,384.000000) scale(0.100000,-0.100000)"
fill="#000000" stroke="none">
<path d="M1947 3454 c-9 -10 -9 -276 1 -290 4 -6 38 -12 77 -13 39 -1 96 -8
128 -15 54 -13 58 -12 68 5 20 38 90 252 86 263 -8 21 -343 67 -360 50z"/>
<path d="M1550 3411 c-128 -34 -204 -59 -225 -75 -14 -10 -5 -26 70 -126 47
-63 89 -118 94 -123 4 -4 32 1 62 11 30 11 72 22 94 26 81 14 75 1 75 167 l0
149 -32 -1 c-18 0 -80 -13 -138 -28z"/>
<path d="M2482 3208 c-24 -68 -46 -131 -49 -140 -4 -12 9 -24 49 -43 29 -15
80 -43 112 -63 l60 -36 38 45 c67 77 148 176 148 182 0 19 -268 177 -301 177
-9 0 -29 -43 -57 -122z"/>
<path d="M1024 3167 c-98 -72 -184 -147 -184 -161 0 -6 46 -57 102 -113 l101
-102 56 50 c31 28 84 69 118 92 34 23 63 46 63 51 0 12 -168 236 -178 236 -4
0 -39 -24 -78 -53z"/>
<path d="M2912 2889 l-93 -109 53 -63 c29 -34 64 -77 78 -95 l25 -33 130 60
c71 33 131 65 133 70 8 24 -195 282 -221 280 -7 0 -54 -50 -105 -110z"/>
<path d="M443 2408 c-49 -68 -136 -188 -193 -268 -57 -80 -116 -161 -132 -181
-15 -20 -28 -39 -28 -43 0 -3 64 -7 143 -8 l142 -3 11 -115 c37 -382 174 -684
432 -953 411 -426 1029 -578 1597 -392 146 48 313 137 450 241 529 398 740
1106 519 1742 -16 45 -34 82 -40 82 -7 0 -69 -27 -139 -60 -95 -45 -126 -64
-121 -75 3 -8 17 -54 32 -101 134 -441 16 -910 -311 -1239 -474 -475 -1239
-489 -1725 -32 -118 111 -194 214 -264 354 -80 160 -121 312 -128 468 l-3 80
149 5 148 5 -57 80 c-32 44 -129 180 -217 302 -87 122 -162 224 -167 228 -5 3
-50 -50 -98 -117z"/>
<path d="M1440 2325 c-87 -24 -131 -46 -126 -64 31 -109 41 -131 55 -125 109
48 187 56 239 24 55 -34 62 -90 16 -132 -25 -21 -88 -38 -146 -38 -35 0 -48
-4 -49 -15 -10 -123 -11 -121 76 -128 87 -6 134 -26 158 -66 40 -68 2 -143
-82 -162 -55 -12 -140 -3 -205 23 -27 10 -49 17 -50 16 -8 -13 -36 -119 -36
-135 0 -34 121 -68 245 -68 167 0 270 47 328 150 24 43 27 59 25 115 -4 83
-39 136 -116 178 l-53 29 49 30 c67 41 96 101 90 183 -5 76 -41 123 -123 165
-52 26 -73 30 -150 32 -55 2 -111 -3 -145 -12z"/>
<path d="M2224 2319 c-60 -23 -126 -85 -159 -149 -55 -109 -71 -300 -36 -443
33 -132 101 -221 198 -257 146 -54 306 11 376 153 70 144 71 394 1 544 -68
144 -231 210 -380 152z m165 -159 c43 -44 63 -123 64 -255 0 -221 -55 -330
-149 -290 -50 21 -81 92 -89 210 -19 262 72 437 174 335z"/>
</g>
</svg>
