<?xml version="1.0" standalone="no"?>
<!DOCTYPE svg PUBLIC "-//W3C//DTD SVG 20010904//EN"
 "http://www.w3.org/TR/2001/REC-SVG-20010904/DTD/svg10.dtd">
<svg version="1.0" xmlns="http://www.w3.org/2000/svg"
 width="384.000000pt" height="384.000000pt" viewBox="0 0 384.000000 384.000000"
 preserveAspectRatio="xMidYMid meet">
<metadata>
Created by potrace 1.16, written by Peter Selinger 2001-2019
</metadata>
<g transform="translate(0.000000,384.000000) scale(0.100000,-0.100000)"
fill="#000000" stroke="none">
<path d="M1666 3679 c-30 -24 -34 -63 -10 -97 14 -20 23 -22 105 -22 l89 0 0
-90 0 -89 -32 -5 c-18 -3 -60 -8 -93 -11 -227 -24 -477 -116 -683 -252 -90
-60 -90 -57 -34 -122 l29 -35 49 36 c27 19 87 56 134 81 230 124 443 177 710
177 286 0 555 -80 789 -234 47 -31 87 -56 90 -56 7 1 71 86 71 94 0 7 -84 65
-155 106 -189 111 -394 180 -604 204 -59 7 -113 16 -120 20 -9 6 -11 31 -9 90
l3 81 92 5 c51 3 97 10 102 15 6 6 13 25 17 42 5 26 1 37 -19 57 l-26 26 -234
0 c-222 0 -236 -1 -261 -21z"/>
<path d="M592 3107 l-142 -143 45 -44 45 -44 50 49 50 49 150 -149 c83 -82
150 -153 150 -158 0 -4 -20 -32 -45 -62 -132 -163 -232 -386 -270 -603 -20
-113 -20 -322 0 -437 83 -473 422 -872 870 -1023 132 -45 234 -63 380 -69 301
-11 592 80 834 262 484 365 654 992 422 1559 -43 105 -128 247 -191 319 -22
25 -40 49 -40 54 0 4 67 76 150 158 l150 149 48 -47 c26 -26 52 -47 58 -47 5
0 28 18 49 40 l39 40 -144 145 c-80 80 -148 145 -151 145 -4 0 -25 -19 -48
-42 l-42 -41 50 -51 51 -51 -154 -154 -154 -154 -48 42 c-94 82 -236 166 -370
216 -438 165 -947 81 -1292 -213 l-54 -45 -154 154 -154 154 52 52 52 53 -39
40 c-21 22 -44 40 -50 40 -5 0 -74 -64 -153 -143z m1513 -148 c226 -31 460
-147 636 -316 228 -220 352 -493 366 -809 14 -328 -101 -632 -331 -872 -175
-182 -400 -304 -642 -347 -103 -19 -300 -21 -395 -6 -623 102 -1065 671 -1000
1289 41 394 264 736 606 927 227 127 482 172 760 134z"/>
<path d="M1860 2760 l0 -70 60 0 60 0 0 70 0 70 -60 0 -60 0 0 -70z"/>
<path d="M2162 2730 c-14 -43 -16 -62 -8 -68 17 -13 97 -34 104 -28 6 7 42
106 42 117 0 8 -86 39 -106 39 -7 0 -21 -27 -32 -60z"/>
<path d="M2443 2612 c-18 -27 -33 -53 -33 -58 1 -8 83 -74 93 -74 11 0 79 112
71 119 -30 24 -84 61 -91 61 -4 0 -23 -22 -40 -48z"/>
<path d="M1907 2442 c-10 -10 -17 -23 -17 -28 0 -5 -34 -15 -77 -22 -123 -19
-231 -77 -328 -176 -152 -153 -211 -345 -171 -547 27 -130 74 -217 170 -315
69 -70 97 -90 167 -123 46 -21 105 -43 131 -50 66 -16 223 -14 292 4 223 58
405 247 450 466 l13 64 66 3 67 3 0 64 0 65 -264 0 c-260 0 -265 0 -271 21
-11 35 -77 101 -120 120 -52 24 -138 24 -191 0 -73 -33 -134 -126 -134 -206 0
-82 66 -179 142 -210 58 -23 136 -22 185 3 47 25 97 74 113 113 l12 29 134 0
c74 0 134 -4 134 -8 0 -21 -35 -122 -57 -166 -39 -76 -129 -160 -217 -202
-148 -70 -289 -70 -432 1 -251 124 -346 418 -217 673 59 117 215 232 334 248
l46 6 -5 -31 c-5 -35 19 -71 48 -71 9 0 48 21 86 48 84 57 91 79 45 150 -59
93 -98 114 -134 74z m69 -571 c44 -27 60 -77 40 -124 -44 -106 -196 -76 -195
38 0 46 14 68 55 90 38 20 63 19 100 -4z"/>
<path d="M2668 2405 c-27 -20 -48 -37 -48 -40 0 -9 64 -95 70 -95 4 0 29 17
56 37 27 20 51 38 52 39 7 5 -63 93 -73 93 -5 0 -31 -15 -57 -34z"/>
<path d="M2818 2142 c-32 -10 -48 -21 -48 -32 0 -21 20 -82 30 -94 8 -8 106
19 122 33 4 4 0 30 -9 59 -19 58 -22 59 -95 34z"/>
<path d="M2824 1836 c-3 -7 -4 -35 -2 -62 l3 -49 68 -3 67 -3 0 66 0 65 -65 0
c-47 0 -67 -4 -71 -14z"/>
<path d="M592 2662 c-97 -151 -149 -264 -200 -432 -122 -401 -70 -854 140
-1223 200 -351 518 -613 898 -737 750 -246 1562 99 1924 817 77 155 138 375
158 573 27 270 -41 598 -179 860 -59 113 -130 220 -146 220 -13 0 -87 -60 -87
-71 0 -5 20 -39 45 -75 69 -104 130 -228 169 -349 60 -188 71 -258 70 -465 0
-164 -4 -198 -27 -300 -128 -549 -512 -957 -1044 -1111 -159 -46 -430 -63
-596 -38 -680 102 -1188 636 -1258 1321 -25 256 24 529 141 773 21 44 63 117
93 163 l55 82 -43 35 c-23 19 -47 35 -53 35 -5 0 -33 -35 -60 -78z"/>
</g>
</svg>
