<?xml version="1.0" standalone="no"?>
<!DOCTYPE svg PUBLIC "-//W3C//DTD SVG 20010904//EN"
 "http://www.w3.org/TR/2001/REC-SVG-20010904/DTD/svg10.dtd">
<svg version="1.0" xmlns="http://www.w3.org/2000/svg"
 width="384.000000pt" height="384.000000pt" viewBox="0 0 384.000000 384.000000"
 preserveAspectRatio="xMidYMid meet">
<metadata>
Created by potrace 1.16, written by Peter Selinger 2001-2019
</metadata>
<g transform="translate(0.000000,384.000000) scale(0.100000,-0.100000)"
fill="#000000" stroke="none">
<path d="M1765 3450 c-44 -4 -120 -17 -170 -28 -761 -170 -1275 -873 -1206
-1647 64 -708 594 -1275 1301 -1391 111 -18 345 -18 468 1 295 44 566 170 791
368 272 240 452 570 506 929 22 142 19 351 -5 493 -55 325 -214 624 -451 850
-335 320 -766 468 -1234 425z m423 -1537 l-3 -738 -257 -3 c-142 -1 -258 1
-259 5 -4 31 -8 1433 -4 1451 l5 22 260 0 260 0 -2 -737z"/>
</g>
</svg>
