<?xml version="1.0" standalone="no"?>
<!DOCTYPE svg PUBLIC "-//W3C//DTD SVG 20010904//EN"
 "http://www.w3.org/TR/2001/REC-SVG-20010904/DTD/svg10.dtd">
<svg version="1.0" xmlns="http://www.w3.org/2000/svg"
 width="384.000000pt" height="384.000000pt" viewBox="0 0 384.000000 384.000000"
 preserveAspectRatio="xMidYMid meet">
<metadata>
Created by potrace 1.16, written by Peter Selinger 2001-2019
</metadata>
<g transform="translate(0.000000,384.000000) scale(0.100000,-0.100000)"
fill="#000000" stroke="none">
<path d="M1770 3451 c-528 -57 -991 -377 -1226 -851 -217 -437 -215 -949 5
-1384 232 -456 661 -763 1172 -836 120 -18 396 -8 515 18 205 45 423 137 574
244 349 248 583 622 645 1037 19 128 19 342 0 469 -96 639 -587 1151 -1231
1281 -113 23 -341 34 -454 22z m365 -312 c154 -24 337 -98 488 -195 88 -57
277 -245 335 -334 134 -203 200 -409 209 -655 13 -352 -112 -670 -362 -920
-601 -601 -1608 -437 -1990 324 -90 178 -127 342 -127 556 0 264 66 482 209
693 275 404 750 608 1238 531z"/>
<path d="M1667 2593 c-4 -6 -1 -1332 2 -1366 1 -4 117 -6 259 -5 l257 3 3 688
2 687 -259 0 c-143 0 -262 -3 -264 -7z"/>
</g>
</svg>
