<?xml version="1.0" standalone="no"?>
<!DOCTYPE svg PUBLIC "-//W3C//DTD SVG 20010904//EN"
 "http://www.w3.org/TR/2001/REC-SVG-20010904/DTD/svg10.dtd">
<svg version="1.0" xmlns="http://www.w3.org/2000/svg"
 width="384.000000pt" height="384.000000pt" viewBox="0 0 384.000000 384.000000"
 preserveAspectRatio="xMidYMid meet">
<metadata>
Created by potrace 1.16, written by Peter Selinger 2001-2019
</metadata>
<g transform="translate(0.000000,384.000000) scale(0.100000,-0.100000)"
fill="#000000" stroke="none">
<path d="M586 3620 c-47 -14 -101 -58 -125 -100 -20 -35 -52 -162 -106 -410
-7 -36 -43 -197 -79 -359 l-66 -294 0 -282 c0 -320 4 -346 70 -410 l40 -39 0
-659 c0 -441 4 -672 11 -701 13 -54 59 -110 110 -136 37 -20 65 -20 1479 -20
1572 0 1475 -4 1538 58 71 69 67 22 70 780 l3 684 30 25 c16 14 39 43 49 64
19 36 20 60 20 358 0 308 -1 323 -26 428 -14 59 -29 126 -33 148 -9 41 -51
233 -76 340 -7 33 -21 96 -31 140 -61 281 -79 319 -174 368 l-54 27 -1310 -1
c-721 0 -1324 -5 -1340 -9z m2612 -222 c5 -7 12 -26 14 -43 5 -31 47 -221 73
-330 8 -33 21 -94 30 -135 9 -41 23 -102 30 -135 24 -101 65 -285 65 -290 0
-3 -668 -5 -1485 -5 l-1486 0 7 38 c6 35 33 157 54 247 9 41 48 215 101 455
16 74 34 152 40 173 l10 37 1268 0 c1003 0 1271 -3 1279 -12z m220 -1270 l2
-208 -1495 0 -1495 0 0 203 c0 112 3 207 7 210 3 4 675 6 1492 5 l1486 -3 3
-207z m-2138 -483 l0 -155 643 2 642 3 3 153 3 152 364 0 365 0 0 -690 0 -690
-1377 2 -1378 3 -3 688 -2 687 370 0 370 0 0 -155z"/>
<path d="M1826 1360 c-99 -25 -217 -115 -267 -205 -66 -118 -64 -281 4 -398
37 -63 118 -134 195 -170 61 -29 75 -32 168 -32 95 0 104 2 175 37 317 157
313 590 -7 740 -52 24 -81 31 -147 34 -45 2 -99 -1 -121 -6z m207 -324 c70
-43 127 -79 127 -81 0 -6 -330 -205 -340 -205 -11 0 -14 402 -4 413 4 3 25 -6
48 -22 22 -15 98 -62 169 -105z"/>
</g>
</svg>
