<?xml version="1.0" standalone="no"?>
<!DOCTYPE svg PUBLIC "-//W3C//DTD SVG 20010904//EN"
 "http://www.w3.org/TR/2001/REC-SVG-20010904/DTD/svg10.dtd">
<svg version="1.0" xmlns="http://www.w3.org/2000/svg"
 width="384.000000pt" height="384.000000pt" viewBox="0 0 384.000000 384.000000"
 preserveAspectRatio="xMidYMid meet">
<metadata>
Created by potrace 1.16, written by Peter Selinger 2001-2019
</metadata>
<g transform="translate(0.000000,384.000000) scale(0.100000,-0.100000)"
fill="#000000" stroke="none">
<path d="M1539 2931 c-24 -24 -29 -38 -29 -75 0 -66 38 -107 106 -113 100 -9
162 74 122 162 -16 36 -57 55 -118 55 -44 0 -56 -5 -81 -29z"/>
<path d="M445 2643 c-28 -10 -65 -29 -83 -41 -25 -18 -32 -20 -32 -8 0 32 -30
46 -99 46 -39 0 -72 -5 -79 -12 -17 -17 -17 -959 0 -976 13 -13 153 -17 182
-6 14 5 16 29 16 165 l0 158 55 -25 c75 -35 147 -41 221 -19 76 22 150 94 185
181 21 51 24 76 24 189 0 122 -2 134 -28 190 -53 114 -126 166 -242 172 -50 2
-84 -2 -120 -14z m116 -166 c45 -30 68 -92 68 -183 1 -94 -23 -168 -63 -197
-38 -27 -123 -29 -178 -5 l-38 17 0 175 c0 170 1 176 22 187 66 35 142 38 189
6z"/>
<path d="M2218 2640 c-31 -11 -73 -29 -93 -41 -20 -12 -37 -20 -38 -18 -2 2
-8 17 -15 32 -12 27 -13 28 -89 25 l-78 -3 -3 -352 -2 -353 99 0 c81 0 100 3
105 16 3 9 6 128 6 265 l0 250 38 16 c20 8 61 16 90 17 45 1 57 -3 73 -23 18
-21 19 -42 19 -266 0 -134 3 -250 6 -259 5 -13 24 -16 105 -16 l99 0 2 267 3
268 40 13 c22 8 63 15 92 15 89 3 87 8 93 -296 l5 -262 100 0 100 0 3 285 2
284 -25 52 c-57 116 -210 137 -381 53 l-62 -31 -26 27 c-58 57 -162 71 -268
35z"/>
<path d="M3322 2642 c-66 -24 -118 -65 -160 -126 -50 -74 -65 -140 -60 -265 3
-90 7 -114 30 -161 49 -99 127 -158 239 -178 100 -19 307 13 331 51 11 17 10
99 -2 117 -7 12 -19 13 -80 2 -87 -15 -189 -16 -227 -1 -41 15 -70 47 -89 96
-9 24 -15 45 -13 47 2 2 37 -1 77 -7 142 -20 294 29 340 108 19 34 22 52 20
116 -4 94 -32 142 -111 185 -45 24 -65 29 -147 31 -74 3 -107 -1 -148 -15z
m193 -157 c43 -42 29 -105 -26 -124 -34 -12 -147 -15 -173 -5 -23 9 -20 43 8
88 29 49 59 65 119 66 38 0 53 -5 72 -25z"/>
<path d="M1309 2638 c-19 -5 -59 -27 -87 -49 -29 -21 -54 -39 -56 -39 -2 0 -6
14 -10 32 -3 17 -11 37 -17 45 -16 18 -142 18 -158 -1 -8 -9 -11 -110 -9 -352
l3 -339 100 0 100 0 5 245 5 244 40 12 c22 7 70 13 107 13 100 1 98 -1 98 101
0 71 -3 89 -16 94 -21 8 -61 6 -105 -6z"/>
<path d="M1531 2627 c-8 -11 -11 -107 -9 -353 l3 -339 103 -3 102 -3 -2 353
-3 353 -91 3 c-69 2 -94 -1 -103 -11z"/>
<path d="M3305 1506 c-134 -31 -260 -98 -253 -134 4 -19 -11 -18 248 -7 249
12 275 -4 247 -145 -8 -41 -35 -132 -61 -202 -25 -70 -46 -136 -46 -147 0 -71
129 43 198 176 59 114 92 236 92 340 l0 84 -47 21 c-40 18 -72 22 -183 25 -90
2 -155 -2 -195 -11z"/>
<path d="M137 1443 c-20 -19 -3 -52 46 -94 389 -331 821 -529 1342 -616 139
-23 608 -26 750 -5 393 59 758 189 1031 367 97 63 122 94 106 130 -19 41 -51
41 -164 -3 -431 -167 -838 -245 -1288 -244 -577 0 -1089 122 -1610 384 -168
84 -199 96 -213 81z"/>
</g>
</svg>
