<?xml version="1.0" standalone="no"?>
<!DOCTYPE svg PUBLIC "-//W3C//DTD SVG 20010904//EN"
 "http://www.w3.org/TR/2001/REC-SVG-20010904/DTD/svg10.dtd">
<svg version="1.0" xmlns="http://www.w3.org/2000/svg"
 width="384.000000pt" height="384.000000pt" viewBox="0 0 384.000000 384.000000"
 preserveAspectRatio="xMidYMid meet">
<metadata>
Created by potrace 1.16, written by Peter Selinger 2001-2019
</metadata>
<g transform="translate(0.000000,384.000000) scale(0.100000,-0.100000)"
fill="#000000" stroke="none">
<path d="M2925 3374 c-203 -41 -712 -142 -1130 -225 -418 -83 -861 -171 -985
-195 -124 -25 -243 -54 -265 -65 -56 -29 -102 -75 -133 -134 l-27 -50 -3 -965
c-2 -667 1 -981 8 -1017 34 -163 177 -308 338 -342 37 -8 390 -11 1204 -11
1014 0 1157 2 1212 16 151 38 272 158 312 307 11 42 14 220 14 970 l0 917
-786 0 c-732 0 -859 4 -731 25 90 15 1490 295 1494 299 3 2 -19 125 -49 273
-52 263 -53 268 -78 270 -14 1 -191 -32 -395 -73z m195 -246 c77 -51 138 -97
137 -103 -2 -5 -84 -25 -183 -44 l-180 -34 -142 94 c-78 52 -140 99 -138 104
3 10 289 73 339 74 18 1 71 -28 167 -91z m-771 -144 c140 -92 162 -111 140
-118 -24 -8 -325 -66 -342 -66 -20 0 -310 190 -302 198 7 7 313 70 347 71 19
1 69 -26 157 -85z m-743 -161 c115 -77 142 -99 127 -105 -24 -10 -321 -68
-346 -68 -21 0 -311 189 -303 197 6 6 326 71 353 72 12 1 88 -43 169 -96z m39
-523 l-130 -130 -187 0 c-104 0 -188 3 -188 7 0 4 55 63 122 130 l123 123 195
0 195 0 -130 -130z m842 68 c-31 -35 -88 -93 -127 -130 l-71 -68 -185 0 c-101
0 -184 3 -184 7 0 4 55 63 122 130 l123 123 188 0 189 0 -55 -62z m823 55 c0
-4 -55 -63 -122 -130 l-123 -123 -187 0 c-104 0 -188 3 -188 7 0 4 55 63 122
130 l123 123 187 0 c104 0 188 -3 188 -7z m-142 -1104 l2 -546 -23 -34 c-49
-74 39 -69 -1217 -69 -1084 0 -1127 1 -1167 19 -80 37 -78 15 -81 620 -2 393
0 537 9 547 10 12 199 14 1243 12 l1231 -3 3 -546z"/>
<path d="M1750 1290 c0 -220 3 -400 8 -400 7 0 263 153 525 314 70 44 127 82
127 87 0 4 -17 18 -37 30 -21 12 -94 57 -163 100 -340 209 -440 269 -449 269
-8 0 -11 -125 -11 -400z"/>
</g>
</svg>
