<?xml version="1.0" standalone="no"?>
<!DOCTYPE svg PUBLIC "-//W3C//DTD SVG 20010904//EN"
 "http://www.w3.org/TR/2001/REC-SVG-20010904/DTD/svg10.dtd">
<svg version="1.0" xmlns="http://www.w3.org/2000/svg"
 width="384.000000pt" height="384.000000pt" viewBox="0 0 384.000000 384.000000"
 preserveAspectRatio="xMidYMid meet">
<metadata>
Created by potrace 1.16, written by Peter Selinger 2001-2019
</metadata>
<g transform="translate(0.000000,384.000000) scale(0.100000,-0.100000)"
fill="#000000" stroke="none">
<path d="M1760 3450 c-240 -26 -488 -116 -687 -249 -103 -69 -233 -178 -233
-195 0 -12 191 -206 203 -206 4 0 37 25 74 56 165 140 350 231 563 275 125 27
360 29 475 4 219 -45 406 -134 564 -265 282 -234 450 -591 451 -953 1 -688
-554 -1246 -1243 -1247 -420 -1 -807 209 -1043 565 -113 169 -188 396 -196
590 l-3 80 143 2 c79 1 146 4 149 6 3 3 -28 51 -69 106 -40 56 -113 157 -163
226 -49 69 -116 162 -149 207 l-59 82 -19 -24 c-10 -13 -76 -103 -145 -199
-69 -97 -161 -224 -205 -284 -43 -59 -78 -109 -78 -112 0 -2 64 -6 142 -7
l143 -3 11 -120 c14 -144 35 -247 79 -375 111 -329 356 -634 656 -817 348
-213 776 -279 1174 -181 558 137 995 574 1133 1133 70 283 53 615 -47 891
-116 323 -346 607 -642 793 -144 90 -360 173 -536 205 -99 19 -341 28 -443 16z"/>
<path d="M1665 2588 c-3 -7 -4 -317 -3 -688 l3 -675 260 0 260 0 3 688 2 687
-260 0 c-199 0 -262 -3 -265 -12z"/>
</g>
</svg>
