<?xml version="1.0" standalone="no"?>
<!DOCTYPE svg PUBLIC "-//W3C//DTD SVG 20010904//EN"
 "http://www.w3.org/TR/2001/REC-SVG-20010904/DTD/svg10.dtd">
<svg version="1.0" xmlns="http://www.w3.org/2000/svg"
 width="384.000000pt" height="384.000000pt" viewBox="0 0 384.000000 384.000000"
 preserveAspectRatio="xMidYMid meet">
<metadata>
Created by potrace 1.16, written by Peter Selinger 2001-2019
</metadata>
<g transform="translate(0.000000,384.000000) scale(0.100000,-0.100000)"
fill="#000000" stroke="none">
<path d="M2395 3567 c-28 -13 -143 -135 -380 -402 -48 -55 -212 -239 -364
-409 -152 -170 -301 -338 -331 -372 -30 -34 -145 -162 -255 -284 -110 -123
-222 -248 -250 -280 -27 -31 -146 -164 -263 -294 -119 -132 -225 -259 -240
-287 l-26 -51 18 -51 c79 -233 290 -508 511 -665 103 -73 296 -172 350 -178
69 -9 106 13 281 171 92 83 195 175 229 205 124 109 312 277 430 385 67 61
190 171 274 245 85 74 208 185 275 245 67 61 176 158 242 216 65 58 166 148
224 199 58 52 179 159 269 239 163 146 211 205 211 261 0 33 -76 253 -119 343
-104 219 -289 433 -490 567 -222 148 -501 240 -596 197z m189 -627 c162 -51
311 -201 361 -366 117 -387 -225 -778 -619 -709 -130 23 -216 67 -305 156
-107 107 -161 237 -161 387 0 150 47 273 143 378 147 161 368 219 581 154z
m-1020 -789 c75 -75 87 -91 78 -107 -16 -30 -158 -164 -174 -164 -7 0 -51 38
-97 84 -64 65 -82 88 -77 103 7 22 158 173 173 173 4 0 48 -40 97 -89z m386
-396 c0 -16 -163 -175 -180 -175 -17 0 -180 159 -180 175 0 6 41 51 91 100
l90 89 90 -90 c49 -49 89 -93 89 -99z m-682 91 c45 -46 82 -87 82 -91 0 -15
-164 -175 -179 -175 -20 0 -181 160 -181 180 0 23 151 170 175 170 14 0 52
-31 103 -84z m299 -298 c46 -46 83 -87 83 -93 0 -16 -163 -175 -180 -175 -16
0 -180 159 -180 175 0 16 163 175 180 175 8 0 52 -37 97 -82z m601 1 c45 -44
82 -87 82 -96 0 -24 -150 -173 -175 -173 -14 0 -51 30 -103 84 -45 46 -82 87
-82 91 0 15 164 175 180 175 9 0 53 -36 98 -81z m-912 -291 c41 -40 77 -83 81
-96 5 -20 -8 -38 -78 -108 -46 -46 -88 -84 -93 -84 -15 0 -176 163 -176 179 0
19 159 181 178 181 7 0 47 -33 88 -72z m613 -12 c62 -63 82 -88 77 -102 -6
-20 -159 -174 -173 -174 -5 0 -48 40 -97 89 -75 75 -87 91 -78 107 16 30 158
164 174 164 7 0 51 -38 97 -84z"/>
<path d="M2290 2835 c-163 -46 -289 -189 -309 -352 -25 -204 68 -382 246 -470
54 -26 66 -28 183 -28 116 0 129 2 184 28 155 72 242 202 253 378 12 177 -83
338 -245 416 -66 32 -86 36 -166 39 -61 3 -109 -1 -146 -11z"/>
</g>
</svg>
