<?xml version="1.0" standalone="no"?>
<!DOCTYPE svg PUBLIC "-//W3C//DTD SVG 20010904//EN"
 "http://www.w3.org/TR/2001/REC-SVG-20010904/DTD/svg10.dtd">
<svg version="1.0" xmlns="http://www.w3.org/2000/svg"
 width="384.000000pt" height="384.000000pt" viewBox="0 0 384.000000 384.000000"
 preserveAspectRatio="xMidYMid meet">
<metadata>
Created by potrace 1.16, written by Peter Selinger 2001-2019
</metadata>
<g transform="translate(0.000000,384.000000) scale(0.100000,-0.100000)"
fill="#000000" stroke="none">
<path d="M1650 2940 l0 -740 278 2 277 3 3 738 2 737 -280 0 -280 0 0 -740z"/>
<path d="M793 3101 c-204 -69 -374 -129 -378 -132 -3 -4 40 -40 96 -80 160
-116 146 -98 114 -144 -45 -67 -112 -206 -150 -316 -131 -375 -119 -761 36
-1126 74 -176 174 -325 309 -466 290 -303 677 -469 1095 -470 321 0 593 79
860 250 336 216 591 598 670 1004 35 178 30 471 -11 634 -59 235 -155 438
-288 610 -92 118 -313 324 -334 311 -13 -8 -182 -253 -182 -264 0 -5 20 -23
45 -41 24 -17 76 -64 114 -103 418 -425 468 -1080 121 -1566 -124 -174 -268
-293 -465 -387 -307 -146 -641 -159 -949 -38 -167 66 -273 133 -403 257 -177
168 -291 368 -350 616 -14 58 -18 116 -18 260 0 188 5 227 47 373 27 90 128
291 149 295 9 2 70 -35 135 -82 65 -48 122 -86 126 -86 12 0 5 813 -7 815 -5
2 -177 -54 -382 -124z"/>
</g>
</svg>
