<?xml version="1.0" standalone="no"?>
<!DOCTYPE svg PUBLIC "-//W3C//DTD SVG 20010904//EN"
 "http://www.w3.org/TR/2001/REC-SVG-20010904/DTD/svg10.dtd">
<svg version="1.0" xmlns="http://www.w3.org/2000/svg"
 width="384.000000pt" height="384.000000pt" viewBox="0 0 384.000000 384.000000"
 preserveAspectRatio="xMidYMid meet">
<metadata>
Created by potrace 1.16, written by Peter Selinger 2001-2019
</metadata>
<g transform="translate(0.000000,384.000000) scale(0.100000,-0.100000)"
fill="#000000" stroke="none">
<path d="M1947 3454 c-13 -13 -8 -279 5 -292 7 -7 39 -12 73 -12 33 0 88 -6
123 -14 58 -12 64 -11 72 5 22 40 91 251 87 263 -8 21 -342 68 -360 50z"/>
<path d="M1560 3414 c-102 -26 -238 -72 -245 -84 -4 -6 146 -215 174 -243 4
-4 32 1 62 11 30 11 72 22 94 26 81 14 75 1 75 167 l0 149 -32 -1 c-18 0 -76
-11 -128 -25z"/>
<path d="M2481 3203 c-24 -71 -46 -133 -48 -140 -3 -6 19 -24 49 -39 29 -14
79 -43 112 -62 l59 -37 39 45 c102 117 149 180 143 191 -18 28 -265 169 -297
169 -8 0 -31 -52 -57 -127z"/>
<path d="M1024 3167 c-98 -72 -184 -147 -184 -161 0 -6 46 -57 102 -113 l101
-102 54 49 c30 26 83 67 118 91 36 24 65 48 65 53 0 12 -168 236 -178 236 -4
0 -39 -24 -78 -53z"/>
<path d="M2912 2889 l-93 -109 53 -63 c29 -36 64 -79 78 -97 l25 -32 90 42
c50 23 109 50 133 61 23 11 42 24 42 30 0 33 -198 280 -223 278 -7 0 -54 -50
-105 -110z"/>
<path d="M1665 2598 c-3 -7 -4 -319 -3 -693 l3 -680 260 0 260 0 3 684 c2 541
0 686 -10 693 -7 4 -125 8 -261 8 -189 0 -249 -3 -252 -12z"/>
<path d="M443 2408 c-49 -68 -136 -188 -193 -268 -57 -80 -116 -161 -132 -181
-15 -20 -28 -39 -28 -43 0 -3 64 -7 143 -8 l142 -3 12 -126 c34 -358 176 -673
418 -928 298 -312 684 -481 1105 -483 705 -5 1307 446 1505 1128 68 235 73
559 11 796 -26 101 -70 218 -82 218 -7 0 -69 -27 -139 -60 -95 -45 -126 -64
-121 -75 3 -8 17 -54 32 -101 133 -437 16 -909 -306 -1235 -377 -380 -943
-477 -1425 -244 -163 79 -288 176 -411 320 -168 197 -275 464 -286 710 l-3 80
145 2 c80 1 145 5 145 10 0 9 -47 76 -225 321 -47 64 -110 152 -139 194 -29
42 -59 82 -66 88 -10 9 -33 -16 -102 -112z"/>
</g>
</svg>
