<?xml version="1.0" standalone="no"?>
<!DOCTYPE svg PUBLIC "-//W3C//DTD SVG 20010904//EN"
 "http://www.w3.org/TR/2001/REC-SVG-20010904/DTD/svg10.dtd">
<svg version="1.0" xmlns="http://www.w3.org/2000/svg"
 width="384.000000pt" height="384.000000pt" viewBox="0 0 384.000000 384.000000"
 preserveAspectRatio="xMidYMid meet">
<metadata>
Created by potrace 1.16, written by Peter Selinger 2001-2019
</metadata>
<g transform="translate(0.000000,384.000000) scale(0.100000,-0.100000)"
fill="#000000" stroke="none">
<path d="M1430 3451 c-426 -46 -809 -350 -965 -766 -65 -173 -89 -424 -56
-605 65 -362 291 -670 617 -842 186 -98 319 -130 539 -131 168 -1 222 7 360
50 484 152 825 616 825 1123 0 501 -335 963 -810 1118 -151 50 -349 70 -510
53z m305 -417 c281 -54 518 -286 590 -579 24 -99 22 -266 -5 -369 -73 -276
-288 -488 -565 -555 -113 -28 -185 -31 -290 -16 -299 45 -531 239 -632 530
-25 74 -27 91 -27 235 0 144 2 161 27 235 64 183 187 338 342 428 177 104 346
131 560 91z"/>
<path d="M2709 1382 c-65 -83 -183 -199 -266 -260 -35 -25 -63 -49 -63 -53 0
-6 531 -541 646 -650 l50 -48 194 194 195 195 -335 336 c-184 184 -342 340
-352 345 -13 7 -27 -4 -69 -59z"/>
</g>
</svg>
