<?xml version="1.0" standalone="no"?>
<!DOCTYPE svg PUBLIC "-//W3C//DTD SVG 20010904//EN"
 "http://www.w3.org/TR/2001/REC-SVG-20010904/DTD/svg10.dtd">
<svg version="1.0" xmlns="http://www.w3.org/2000/svg"
 width="384.000000pt" height="384.000000pt" viewBox="0 0 384.000000 384.000000"
 preserveAspectRatio="xMidYMid meet">
<metadata>
Created by potrace 1.16, written by Peter Selinger 2001-2019
</metadata>
<g transform="translate(0.000000,384.000000) scale(0.100000,-0.100000)"
fill="#000000" stroke="none">
<path d="M387 3323 c-4 -3 -7 -640 -7 -1414 0 -1116 3 -1408 13 -1411 9 -4
269 -3 300 1 4 1 7 64 7 141 l0 140 168 -2 167 -3 5 -140 5 -140 145 0 145 0
5 140 5 140 598 3 597 2 0 -140 c0 -77 3 -141 8 -141 4 -1 69 -2 145 -4 123
-1 139 0 148 16 5 10 9 74 9 143 l0 126 165 0 165 0 0 -140 c0 -77 3 -141 8
-141 23 -4 259 -5 270 -1 9 3 12 296 12 1418 l0 1414 -145 0 -145 0 0 -145 0
-145 -165 0 -164 0 -3 143 -3 142 -152 3 -152 3 -3 -143 -3 -143 -595 0 -595
0 -3 143 -3 142 -149 0 -149 0 -3 -142 -3 -143 -165 0 -165 0 -3 143 -3 142
-153 0 c-84 0 -156 -3 -159 -7z m651 -638 c4 -182 21 -166 -171 -163 l-162 3
-3 129 c-1 72 0 136 2 143 4 11 40 13 168 11 l163 -3 3 -120z m2142 -20 l0
-145 -164 0 -165 0 -3 138 c-2 75 -2 140 0 145 2 4 77 7 168 7 l164 0 0 -145z
m-1125 -520 c83 -51 197 -121 254 -156 57 -35 106 -69 108 -75 2 -6 -72 -57
-164 -113 -92 -56 -197 -120 -233 -143 -180 -111 -408 -248 -423 -254 -16 -6
-17 27 -17 503 0 280 3 512 6 516 5 5 67 -32 469 -278z m-1020 143 c3 -13 4
-77 3 -143 l-3 -120 -165 0 -165 0 -3 120 c-4 181 -21 165 168 165 157 0 160
0 165 -22z m2145 -123 l0 -145 -165 0 -165 0 0 145 0 145 165 0 165 0 0 -145z
m-2145 -510 l0 -140 -165 0 -165 0 -3 129 c-1 72 0 136 2 143 4 11 40 13 168
11 l163 -3 0 -140z m2143 3 l-3 -143 -160 0 -160 0 -3 143 -3 142 166 0 166 0
-3 -142z m-2143 -513 l0 -140 -165 0 -165 0 -3 129 c-1 72 0 136 2 143 4 11
40 13 168 11 l163 -3 0 -140z m2143 3 l-3 -143 -160 0 -160 0 -3 143 -3 142
166 0 166 0 -3 -142z"/>
</g>
</svg>
