<?xml version="1.0" standalone="no"?>
<!DOCTYPE svg PUBLIC "-//W3C//DTD SVG 20010904//EN"
 "http://www.w3.org/TR/2001/REC-SVG-20010904/DTD/svg10.dtd">
<svg version="1.0" xmlns="http://www.w3.org/2000/svg"
 width="384.000000pt" height="384.000000pt" viewBox="0 0 384.000000 384.000000"
 preserveAspectRatio="xMidYMid meet">
<metadata>
Created by potrace 1.16, written by Peter Selinger 2001-2019
</metadata>
<g transform="translate(0.000000,384.000000) scale(0.100000,-0.100000)"
fill="#000000" stroke="none">
<path d="M1270 3093 c-47 -132 -80 -171 -164 -199 -65 -22 -112 -14 -220 37
l-89 41 -98 -98 c-55 -54 -99 -104 -99 -110 0 -6 19 -51 41 -99 51 -109 55
-168 15 -242 -31 -57 -69 -85 -162 -119 -38 -14 -79 -30 -91 -35 -22 -8 -23
-13 -23 -149 l0 -139 27 -14 c16 -8 58 -24 94 -36 118 -39 181 -117 181 -224
0 -35 -10 -69 -41 -133 -22 -47 -41 -93 -41 -103 0 -19 179 -201 197 -201 7 0
52 18 100 41 73 34 98 41 145 40 120 -1 178 -57 234 -221 10 -30 22 -61 27
-67 7 -9 49 -13 148 -13 l138 0 21 58 c11 31 28 76 37 99 19 51 74 110 121
130 65 27 135 19 229 -26 47 -23 90 -41 97 -41 6 0 55 44 109 98 l97 97 -45
100 c-54 120 -58 166 -19 243 32 64 71 92 187 133 l88 32 -3 146 -3 146 -87
31 c-102 36 -128 52 -161 96 -61 81 -60 163 3 287 30 61 38 86 31 99 -5 9 -50
57 -100 106 l-90 89 -93 -43 c-115 -54 -166 -60 -236 -30 -62 27 -103 71 -128
136 -9 27 -25 69 -35 94 l-17 45 -145 3 -145 3 -32 -88z m252 -594 c307 -64
418 -445 191 -660 -175 -165 -447 -138 -585 60 -51 74 -71 147 -66 243 10 172
121 307 290 352 66 18 102 19 170 5z"/>
<path d="M2816 1737 c-7 -19 -17 -43 -20 -55 -19 -60 -111 -79 -191 -40 l-45
22 -50 -49 c-28 -27 -50 -56 -50 -65 0 -9 9 -35 20 -58 39 -81 18 -140 -63
-178 -29 -13 -58 -24 -64 -24 -9 0 -13 -22 -13 -79 l0 -79 33 -12 c78 -31 96
-43 111 -75 22 -45 20 -71 -8 -131 l-24 -52 52 -51 c28 -28 57 -51 64 -51 7 0
30 9 52 20 84 43 154 12 187 -81 20 -57 30 -62 118 -57 l59 3 19 50 c35 97 98
126 190 86 27 -12 52 -21 56 -21 4 0 25 17 47 38 69 68 68 65 43 113 -46 92
-22 158 72 196 l54 22 3 79 3 80 -50 17 c-102 34 -130 96 -87 191 l27 58 -54
54 -54 54 -49 -21 c-82 -34 -115 -32 -159 12 -18 18 -38 52 -44 75 l-12 42
-79 0 -80 0 -14 -33z m211 -363 c63 -51 84 -97 81 -176 -3 -57 -8 -72 -34
-105 -84 -104 -202 -120 -299 -40 -107 88 -97 246 21 325 46 32 53 34 121 30
62 -3 77 -7 110 -34z"/>
</g>
</svg>
