<?xml version="1.0" standalone="no"?>
<!DOCTYPE svg PUBLIC "-//W3C//DTD SVG 20010904//EN"
 "http://www.w3.org/TR/2001/REC-SVG-20010904/DTD/svg10.dtd">
<svg version="1.0" xmlns="http://www.w3.org/2000/svg"
 width="384.000000pt" height="384.000000pt" viewBox="0 0 384.000000 384.000000"
 preserveAspectRatio="xMidYMid meet">
<metadata>
Created by potrace 1.16, written by Peter Selinger 2001-2019
</metadata>
<g transform="translate(0.000000,384.000000) scale(0.100000,-0.100000)"
fill="#000000" stroke="none">
<path d="M2460 3409 c-220 -20 -400 -102 -564 -258 -124 -119 -212 -270 -258
-441 -32 -120 -32 -336 1 -460 88 -330 340 -583 671 -671 71 -19 110 -23 240
-22 139 0 164 3 243 26 310 95 546 325 637 622 43 138 53 317 26 458 -53 274
-246 526 -501 652 -153 75 -326 108 -495 94z m255 -245 c244 -59 444 -261 510
-515 24 -90 22 -263 -4 -349 -61 -206 -180 -352 -364 -445 -199 -99 -426 -101
-622 -5 -151 74 -252 174 -325 325 -51 103 -70 187 -70 306 0 193 68 358 205
494 44 44 105 95 137 113 153 90 355 119 533 76z"/>
<path d="M2671 2896 c-18 -6 -50 -26 -71 -44 -185 -155 -21 -450 211 -381 83
25 159 126 159 212 0 148 -161 263 -299 213z"/>
<path d="M925 1489 l-545 -544 0 -268 0 -267 380 0 379 0 3 152 3 153 170 5
170 5 3 163 2 162 163 0 162 0 169 169 169 169 -108 52 -107 53 -107 -107
-106 -106 -217 0 c-119 0 -223 -3 -232 -6 -14 -5 -16 -29 -16 -165 l0 -159
-170 0 -169 0 -3 -152 -3 -153 -153 -3 -153 -3 3 105 3 104 484 492 c453 460
484 493 472 513 -7 11 -31 54 -53 96 -22 42 -42 78 -44 81 -3 2 -250 -241
-549 -541z"/>
</g>
</svg>
