<?xml version="1.0" standalone="no"?>
<!DOCTYPE svg PUBLIC "-//W3C//DTD SVG 20010904//EN"
 "http://www.w3.org/TR/2001/REC-SVG-20010904/DTD/svg10.dtd">
<svg version="1.0" xmlns="http://www.w3.org/2000/svg"
 width="384.000000pt" height="384.000000pt" viewBox="0 0 384.000000 384.000000"
 preserveAspectRatio="xMidYMid meet">
<metadata>
Created by potrace 1.16, written by Peter Selinger 2001-2019
</metadata>
<g transform="translate(0.000000,384.000000) scale(0.100000,-0.100000)"
fill="#000000" stroke="none">
<path d="M490 3103 c-41 -14 -40 2 -40 -1018 0 -939 1 -983 18 -998 17 -16
132 -17 1450 -17 l1431 0 21 22 c20 22 20 29 20 995 l0 974 -25 24 -24 25
-1418 -1 c-780 0 -1425 -3 -1433 -6z m2213 -184 c14 -6 30 -22 36 -36 8 -17
11 -251 11 -794 0 -840 2 -813 -57 -838 -21 -8 -229 -11 -786 -9 l-759 3 -24
28 -24 28 0 790 0 790 26 24 27 25 763 0 c538 0 770 -3 787 -11z m-1795 -41
c17 -17 17 -239 0 -256 -8 -8 -55 -12 -145 -12 -118 0 -134 2 -141 18 -13 32
-8 228 7 245 11 14 34 17 140 17 85 0 131 -4 139 -12z m2300 0 c17 -17 17
-239 0 -256 -8 -8 -55 -12 -145 -12 -159 0 -153 -6 -153 141 0 141 -2 139 160
139 85 0 130 -4 138 -12z m-2304 -447 c13 -11 16 -34 16 -130 0 -78 -4 -121
-12 -129 -8 -8 -54 -12 -139 -12 -105 0 -129 3 -140 17 -18 20 -25 187 -10
226 6 15 21 32 33 37 35 15 232 8 252 -9z m2299 0 c14 -11 17 -33 17 -123 0
-60 -5 -118 -10 -129 -10 -17 -22 -19 -137 -19 -166 0 -163 -2 -163 141 0 105
1 108 28 129 25 20 36 22 138 18 75 -2 116 -8 127 -17z m-2305 -417 c21 -14
22 -22 22 -134 0 -108 -2 -120 -19 -130 -11 -5 -71 -10 -134 -10 -150 0 -149
-2 -145 151 3 110 4 114 28 126 38 19 219 17 248 -3z m2305 -3 c14 -11 17 -34
17 -132 0 -107 -2 -119 -19 -129 -25 -13 -237 -13 -262 0 -17 10 -19 22 -19
130 0 153 -1 152 156 148 76 -2 116 -7 127 -17z m-2299 -440 c13 -11 16 -35
16 -130 0 -78 -4 -121 -12 -129 -8 -8 -54 -12 -139 -12 -159 0 -159 0 -159
138 0 100 9 128 43 142 35 13 232 6 251 -9z m2300 0 c13 -11 16 -34 16 -130 0
-78 -4 -121 -12 -129 -8 -8 -55 -12 -145 -12 -121 0 -133 2 -143 19 -15 28
-13 223 3 243 18 23 40 27 158 25 72 -2 111 -7 123 -16z"/>
<path d="M448 839 c-2 -62 1 -103 7 -105 6 -2 667 -3 1470 -2 l1460 3 3 103 3
102 -1470 0 -1470 0 -3 -101z"/>
</g>
</svg>
