<?xml version="1.0" standalone="no"?>
<!DOCTYPE svg PUBLIC "-//W3C//DTD SVG 20010904//EN"
 "http://www.w3.org/TR/2001/REC-SVG-20010904/DTD/svg10.dtd">
<svg version="1.0" xmlns="http://www.w3.org/2000/svg"
 width="384.000000pt" height="384.000000pt" viewBox="0 0 384.000000 384.000000"
 preserveAspectRatio="xMidYMid meet">
<metadata>
Created by potrace 1.16, written by Peter Selinger 2001-2019
</metadata>
<g transform="translate(0.000000,384.000000) scale(0.100000,-0.100000)"
fill="#000000" stroke="none">
<path d="M2995 3611 c-146 -38 -171 -56 -427 -310 l-208 -205 -202 201 c-112
110 -218 208 -235 217 -53 27 -117 31 -170 11 -42 -15 -144 -113 -771 -739
-398 -396 -731 -737 -741 -756 -30 -57 -34 -105 -15 -163 15 -49 66 -102 793
-830 569 -570 788 -783 821 -799 63 -31 135 -29 192 5 24 14 367 351 764 749
770 772 744 744 744 839 -1 71 -34 116 -242 326 l-202 203 25 27 c13 15 111
115 217 222 216 219 249 268 278 414 45 220 -73 451 -281 555 -51 25 -171 52
-227 51 -24 0 -74 -9 -113 -18z m240 -225 c73 -34 110 -69 144 -138 25 -50 31
-74 31 -128 0 -132 -1 -133 -321 -455 -159 -160 -289 -295 -289 -301 0 -8 125
-139 435 -453 l89 -92 -169 -169 c-94 -94 -174 -170 -179 -170 -13 0 -1496
1482 -1496 1495 0 12 331 345 343 345 5 0 128 -120 274 -266 l266 -266 281
281 c155 155 291 288 303 297 73 49 206 59 288 20z m-1745 -581 l85 -85 -480
-480 c-264 -264 -484 -480 -490 -480 -16 0 -165 153 -165 170 0 16 939 960
955 960 6 0 49 -38 95 -85z m260 -260 l94 -94 -479 -481 c-264 -264 -484 -480
-490 -480 -13 0 -185 173 -185 186 0 9 951 964 960 964 3 0 48 -43 100 -95z
m263 -263 c48 -48 87 -92 87 -97 0 -6 -216 -226 -479 -489 l-480 -479 -90 88
c-50 49 -91 94 -91 100 0 10 950 965 960 965 3 0 45 -39 93 -88z m-118 -842
c-264 -264 -485 -480 -491 -480 -6 0 -50 41 -99 91 l-89 90 485 485 484 484
95 -95 95 -95 -480 -480z m654 306 l94 -95 -469 -471 c-258 -259 -477 -476
-488 -482 -16 -9 -32 3 -107 78 -49 49 -89 93 -89 99 0 10 950 965 960 965 3
0 48 -42 99 -94z m258 -258 c46 -46 83 -87 83 -93 0 -16 -943 -955 -960 -955
-16 0 -170 149 -170 165 0 10 950 965 960 965 2 0 42 -37 87 -82z"/>
</g>
</svg>
