<?xml version="1.0" standalone="no"?>
<!DOCTYPE svg PUBLIC "-//W3C//DTD SVG 20010904//EN"
 "http://www.w3.org/TR/2001/REC-SVG-20010904/DTD/svg10.dtd">
<svg version="1.0" xmlns="http://www.w3.org/2000/svg"
 width="384.000000pt" height="384.000000pt" viewBox="0 0 384.000000 384.000000"
 preserveAspectRatio="xMidYMid meet">
<metadata>
Created by potrace 1.16, written by Peter Selinger 2001-2019
</metadata>
<g transform="translate(0.000000,384.000000) scale(0.100000,-0.100000)"
fill="#000000" stroke="none">
<path d="M617 3138 c-3 -13 -4 -196 -3 -408 l1 -385 247 -3 247 -2 105 137
c188 248 211 276 221 280 9 3 124 -83 433 -322 l123 -96 126 3 127 3 -112 85
c-62 47 -112 90 -112 96 0 13 167 234 177 234 7 0 214 -156 420 -317 l132
-103 240 0 241 0 0 285 0 284 -782 3 c-716 3 -786 4 -821 20 -21 10 -88 65
-150 123 l-111 105 -372 0 -372 0 -5 -22z"/>
<path d="M387 2063 c-2 -5 6 -87 19 -183 12 -96 45 -355 74 -575 28 -220 56
-440 61 -490 6 -49 14 -103 18 -120 l7 -30 1341 -3 c1271 -2 1342 -1 1347 15
3 10 10 50 15 88 9 61 53 343 121 775 48 305 80 511 80 520 0 12 -3077 14
-3083 3z"/>
</g>
</svg>
