<?xml version="1.0" standalone="no"?>
<!DOCTYPE svg PUBLIC "-//W3C//DTD SVG 20010904//EN"
 "http://www.w3.org/TR/2001/REC-SVG-20010904/DTD/svg10.dtd">
<svg version="1.0" xmlns="http://www.w3.org/2000/svg"
 width="384.000000pt" height="384.000000pt" viewBox="0 0 384.000000 384.000000"
 preserveAspectRatio="xMidYMid meet">
<metadata>
Created by potrace 1.16, written by Peter Selinger 2001-2019
</metadata>
<g transform="translate(0.000000,384.000000) scale(0.100000,-0.100000)"
fill="#000000" stroke="none">
<path d="M2401 3564 c-18 -23 -21 -41 -21 -139 0 -93 3 -116 18 -133 27 -31
55 -35 85 -11 27 20 27 22 27 145 0 111 -2 126 -20 144 -28 28 -64 25 -89 -6z"/>
<path d="M3182 3570 c-20 -19 -22 -30 -22 -145 0 -122 0 -124 27 -144 30 -24
58 -20 86 11 14 17 17 40 17 137 0 110 -2 119 -23 139 -29 27 -57 28 -85 2z"/>
<path d="M2133 3411 c-71 -33 -73 -41 -73 -366 0 -157 -1 -285 -3 -285 -2 0
-35 11 -73 24 -79 28 -208 56 -256 56 -57 0 -59 5 -56 141 l3 124 125 2 c69 2
135 5 146 8 31 7 51 59 34 89 -23 43 -44 46 -381 46 -261 0 -325 -3 -348 -15
-43 -22 -53 -63 -25 -100 13 -18 30 -21 157 -25 l142 -5 3 -124 c3 -138 2
-141 -60 -141 -20 0 -67 -7 -105 -15 -202 -43 -383 -132 -539 -266 -73 -63
-92 -96 -73 -131 31 -59 71 -53 165 25 131 111 263 179 432 224 85 23 116 26
252 26 194 0 300 -25 465 -107 277 -139 463 -369 546 -676 20 -73 23 -108 23
-255 0 -93 -4 -180 -10 -192 -5 -11 -37 -42 -71 -67 -122 -89 -209 -232 -239
-391 -9 -49 -18 -99 -20 -110 -7 -41 -214 -172 -340 -215 -129 -45 -194 -55
-354 -55 -157 0 -201 6 -330 47 -123 39 -262 120 -373 217 -34 30 -68 51 -81
51 -38 0 -69 -32 -69 -70 0 -29 9 -43 59 -88 162 -148 387 -256 607 -292 91
-15 302 -12 399 5 155 27 342 103 464 190 l48 35 21 -53 c35 -90 63 -135 131
-206 103 -110 212 -166 396 -201 58 -12 76 -11 150 5 172 36 278 94 380 204
138 149 197 365 153 556 -44 190 -164 344 -335 430 -107 54 -176 68 -317 63
l-122 -4 0 141 c-1 131 -9 188 -48 353 l-5 22 402 0 402 0 39 39 39 39 0 606
c0 661 2 643 -57 682 -22 14 -47 18 -113 19 l-85 0 -5 -76 c-5 -83 -19 -107
-74 -136 -41 -21 -101 -11 -137 23 -33 32 -49 78 -49 147 l0 47 -255 0 -255 0
0 -57 c0 -129 -93 -208 -188 -159 -53 27 -66 52 -72 134 l-5 77 -70 2 c-52 2
-81 -2 -112 -16z m1361 -326 c8 -9 18 -30 21 -48 3 -18 5 -220 3 -449 -3 -385
-4 -419 -21 -435 -16 -17 -49 -18 -412 -21 l-395 -3 -10 27 c-17 44 -89 161
-141 231 l-50 66 72 73 73 74 46 -45 c37 -37 52 -45 82 -45 27 0 41 6 52 22
33 47 23 64 -121 210 -76 76 -148 141 -160 145 -36 8 -69 -4 -81 -32 -19 -41
-15 -53 35 -106 l47 -50 -73 -73 -74 -74 -82 61 c-46 34 -97 70 -114 79 l-31
17 0 177 c0 151 2 180 17 196 15 17 49 18 659 18 564 0 644 -2 658 -15z m-452
-1686 c92 -19 177 -67 249 -138 106 -106 149 -209 149 -358 0 -224 -127 -403
-338 -480 -91 -33 -244 -33 -338 1 -157 57 -273 181 -319 340 -13 44 -16 85
-13 165 3 100 6 110 45 192 104 213 333 326 565 278z"/>
<path d="M2918 2999 c-15 -8 -18 -24 -18 -87 0 -47 5 -83 12 -90 12 -12 134
-17 162 -6 13 5 16 23 16 94 0 71 -3 89 -16 94 -25 10 -137 6 -156 -5z"/>
<path d="M3236 2994 c-11 -11 -16 -35 -16 -80 0 -98 6 -104 98 -104 47 0 83 5
90 12 7 7 12 43 12 90 0 92 -6 98 -104 98 -45 0 -69 -5 -80 -16z"/>
<path d="M2918 2709 c-15 -8 -18 -24 -18 -88 0 -55 4 -82 14 -90 9 -8 43 -11
93 -9 l78 3 3 83 c2 53 -1 89 -9 98 -14 17 -134 19 -161 3z"/>
<path d="M3236 2704 c-11 -11 -16 -35 -16 -80 0 -98 6 -104 98 -104 47 0 83 5
90 12 7 7 12 43 12 90 0 92 -6 98 -104 98 -45 0 -69 -5 -80 -16z"/>
<path d="M3232 2418 c-16 -16 -16 -150 0 -166 7 -7 44 -12 94 -12 95 0 94 -1
94 95 0 96 1 95 -94 95 -50 0 -87 -5 -94 -12z"/>
<path d="M2880 1150 l0 -160 50 0 50 0 0 160 0 160 -50 0 -50 0 0 -160z"/>
<path d="M2667 1139 c-72 -74 -101 -146 -101 -254 -1 -70 3 -89 31 -147 17
-37 51 -87 75 -111 52 -52 138 -96 193 -100 37 -2 40 0 43 27 6 54 -4 71 -51
83 -107 29 -187 134 -187 247 0 69 30 145 74 185 32 30 32 36 2 86 l-25 40
-54 -56z"/>
<path d="M3111 1144 c-26 -44 -26 -42 5 -75 l27 -28 38 19 c21 11 41 25 44 31
8 12 -62 89 -81 89 -7 0 -21 -16 -33 -36z"/>
<path d="M3212 1018 c-31 -19 -33 -24 -27 -57 10 -50 10 -51 66 -51 34 0 49 4
49 13 0 31 -32 117 -43 116 -7 0 -27 -10 -45 -21z"/>
<path d="M3183 820 l-10 -41 42 -24 c23 -14 45 -25 48 -25 7 0 37 95 37 117 0
9 -16 13 -53 13 l-53 0 -11 -40z"/>
<path d="M3116 701 l-28 -29 23 -41 c12 -23 28 -41 34 -41 13 0 85 72 85 85 0
8 -71 55 -83 55 -2 0 -16 -13 -31 -29z"/>
<path d="M2983 633 c-21 -4 -23 -10 -23 -59 0 -46 3 -54 18 -54 21 0 112 30
112 36 0 3 -10 23 -22 44 -23 40 -32 43 -85 33z"/>
<path d="M1458 2430 c-138 -25 -277 -88 -292 -132 -21 -59 36 -104 98 -78 147
62 200 74 316 74 97 0 127 -5 196 -27 221 -73 377 -248 429 -481 l6 -29 -25
16 c-53 35 -116 7 -116 -51 0 -32 27 -61 133 -141 72 -54 112 -64 141 -35 9 8
45 53 81 99 70 89 81 127 47 158 -26 24 -77 21 -101 -4 l-20 -22 -6 29 c-66
299 -273 524 -555 604 -84 23 -257 34 -332 20z"/>
<path d="M275 2178 c-28 -16 -35 -28 -35 -65 0 -62 5 -63 390 -63 l347 0 21
23 c29 30 28 62 -3 92 l-24 25 -338 0 c-233 -1 -344 -4 -358 -12z"/>
<path d="M1516 1895 c-55 -19 -106 -64 -133 -116 -20 -37 -23 -57 -21 -120 3
-63 8 -82 31 -117 61 -93 165 -135 267 -108 l55 15 180 -178 c187 -185 217
-211 248 -211 25 0 67 45 67 71 0 16 -59 82 -197 220 l-196 198 11 39 c29 97
-2 214 -72 267 -68 52 -163 68 -240 40z m155 -154 c52 -52 34 -137 -35 -166
-42 -18 -81 -8 -111 27 -58 68 -13 168 75 168 33 0 48 -6 71 -29z"/>
<path d="M426 1719 c-32 -25 -35 -70 -6 -99 19 -19 33 -20 370 -20 337 0 351
1 370 20 29 29 26 74 -6 99 -26 20 -38 21 -364 21 -326 0 -338 -1 -364 -21z"/>
<path d="M262 1270 c-28 -26 -29 -73 -2 -100 19 -19 33 -20 369 -20 l350 0 20
26 c27 35 26 59 -4 89 l-24 25 -344 0 c-332 0 -344 -1 -365 -20z"/>
<path d="M1550 1040 c-17 -17 -20 -33 -20 -113 0 -85 2 -96 23 -115 30 -28 68
-28 95 1 19 20 22 35 22 113 0 77 -3 93 -20 112 -26 28 -73 29 -100 2z"/>
</g>
</svg>
