<?xml version="1.0" standalone="no"?>
<!DOCTYPE svg PUBLIC "-//W3C//DTD SVG 20010904//EN"
 "http://www.w3.org/TR/2001/REC-SVG-20010904/DTD/svg10.dtd">
<svg version="1.0" xmlns="http://www.w3.org/2000/svg"
 width="384.000000pt" height="384.000000pt" viewBox="0 0 384.000000 384.000000"
 preserveAspectRatio="xMidYMid meet">
<metadata>
Created by potrace 1.16, written by Peter Selinger 2001-2019
</metadata>
<g transform="translate(0.000000,384.000000) scale(0.100000,-0.100000)"
fill="#000000" stroke="none">
<path d="M1750 3449 c-188 -20 -420 -96 -585 -190 -396 -227 -655 -583 -757
-1041 -20 -89 -23 -130 -23 -303 1 -222 10 -287 70 -480 68 -217 186 -413 355
-588 205 -213 414 -340 694 -421 263 -77 603 -75 861 4 90 28 236 88 252 104
10 9 0 33 -48 116 -34 58 -72 122 -85 143 l-24 37 -38 -16 c-88 -39 -204 -74
-292 -90 -138 -24 -371 -15 -500 19 -340 89 -628 321 -783 632 -54 107 -81
186 -108 320 -27 131 -23 354 9 486 150 618 731 1016 1348 924 185 -27 377
-96 514 -183 77 -49 180 -133 180 -147 0 -6 -56 -66 -125 -134 -118 -117 -138
-141 -115 -141 5 0 96 -16 202 -35 106 -19 234 -42 283 -51 50 -8 122 -22 160
-29 174 -34 265 -48 272 -42 3 4 -4 62 -16 130 -13 67 -33 181 -46 252 -64
361 -97 531 -104 538 -5 5 -65 -49 -134 -119 l-126 -126 -68 58 c-207 176
-470 300 -749 354 -122 23 -352 33 -474 19z"/>
<path d="M1883 2858 c-6 -7 -20 -71 -32 -143 -12 -71 -26 -155 -31 -185 -6
-30 -19 -116 -30 -190 -12 -74 -27 -175 -35 -225 -31 -198 -47 -332 -42 -368
12 -88 95 -157 189 -157 57 0 305 36 658 97 146 24 281 47 300 50 47 8 70 20
70 39 0 25 7 24 -553 119 -203 34 -223 38 -279 49 -32 7 -33 9 -57 166 -11 69
-33 213 -50 320 -17 107 -38 242 -47 300 -20 132 -34 162 -61 128z"/>
<path d="M3136 1938 c-3 -7 -7 -60 -11 -118 l-6 -105 149 -38 c82 -20 156 -37
164 -37 12 0 18 22 28 98 6 53 10 122 8 152 l-3 55 -163 3 c-125 2 -163 0
-166 -10z"/>
<path d="M3013 1398 c-28 -57 -48 -106 -46 -110 8 -15 249 -181 263 -182 17
-1 80 114 129 232 l30 73 -22 9 c-17 7 -292 80 -302 80 -1 0 -25 -46 -52 -102z"/>
<path d="M2743 1030 c-46 -44 -83 -82 -83 -86 0 -8 133 -241 153 -268 14 -19
17 -18 78 31 92 74 210 196 201 209 -6 9 -229 170 -257 186 -5 3 -47 -29 -92
-72z"/>
</g>
</svg>
