<?xml version="1.0" standalone="no"?>
<!DOCTYPE svg PUBLIC "-//W3C//DTD SVG 20010904//EN"
 "http://www.w3.org/TR/2001/REC-SVG-20010904/DTD/svg10.dtd">
<svg version="1.0" xmlns="http://www.w3.org/2000/svg"
 width="384.000000pt" height="384.000000pt" viewBox="0 0 384.000000 384.000000"
 preserveAspectRatio="xMidYMid meet">
<metadata>
Created by potrace 1.16, written by Peter Selinger 2001-2019
</metadata>
<g transform="translate(0.000000,384.000000) scale(0.100000,-0.100000)"
fill="#000000" stroke="none">
<path d="M1282 3278 c-11 -29 -25 -71 -32 -92 -19 -59 -82 -122 -142 -142 -67
-22 -117 -14 -219 36 -45 22 -87 40 -93 40 -18 0 -196 -183 -196 -201 0 -9 18
-55 41 -103 29 -63 40 -100 41 -135 0 -95 -61 -180 -153 -215 -24 -8 -66 -24
-94 -34 l-50 -18 0 -144 0 -144 93 -36 c110 -42 157 -77 184 -138 32 -72 27
-129 -21 -228 -22 -47 -41 -93 -41 -103 0 -18 179 -201 197 -201 6 0 51 19 99
42 72 34 98 41 144 41 111 -1 178 -60 225 -196 15 -45 32 -88 38 -94 7 -9 49
-13 147 -13 l138 0 10 27 c6 16 23 59 37 97 32 88 63 128 119 155 73 36 141
31 242 -18 47 -23 91 -41 98 -41 6 0 56 44 109 98 l99 99 -42 89 c-56 120 -62
175 -25 250 33 67 80 101 197 140 l79 26 -3 146 -3 146 -100 37 c-115 43 -163
86 -185 164 -18 64 -7 120 42 219 l43 86 -102 102 -102 101 -92 -42 c-119 -54
-168 -61 -237 -31 -61 26 -103 70 -126 131 -8 24 -24 67 -34 94 l-18 50 -146
3 -146 3 -20 -53z m253 -632 c179 -47 295 -190 297 -366 1 -83 -8 -121 -42
-190 -82 -163 -283 -247 -458 -191 -166 54 -272 199 -272 373 0 247 241 437
475 374z"/>
<path d="M2819 1893 c-48 -126 -103 -153 -211 -102 l-49 23 -53 -53 -54 -53
24 -54 c45 -102 23 -157 -75 -195 l-61 -24 0 -77 0 -76 50 -17 c62 -21 110
-72 110 -118 0 -18 -9 -52 -20 -76 -11 -24 -20 -48 -20 -55 0 -16 92 -106 108
-106 7 0 30 9 52 20 89 45 163 11 191 -88 14 -49 26 -55 114 -50 l59 3 19 50
c36 100 98 127 197 84 45 -19 50 -20 72 -5 14 9 39 34 56 55 l32 39 -26 56
c-41 90 -17 146 81 186 l55 22 0 78 0 78 -49 17 c-48 16 -79 41 -100 82 -16
32 -14 52 15 112 l25 55 -55 55 -55 55 -46 -22 c-95 -46 -163 -22 -197 70
l-21 58 -79 0 c-76 0 -79 -1 -89 -27z m186 -355 c92 -49 133 -175 86 -267 -35
-69 -115 -121 -185 -121 -70 0 -152 54 -185 123 -28 58 -27 116 4 177 53 104
176 142 280 88z"/>
<path d="M1944 1243 c-22 -71 -44 -81 -84 -38 l-23 24 -39 -20 c-30 -15 -38
-24 -34 -39 4 -11 8 -28 11 -39 8 -29 -18 -44 -64 -36 -39 6 -41 5 -57 -28
-17 -35 -17 -36 10 -67 31 -38 24 -58 -25 -74 -31 -10 -34 -15 -34 -50 0 -36
3 -40 33 -50 50 -17 57 -38 25 -76 l-26 -32 18 -34 c18 -33 20 -34 65 -28 55
7 66 -6 48 -56 -9 -26 -8 -33 8 -45 35 -27 63 -29 89 -5 31 29 56 22 70 -20
12 -37 35 -47 81 -36 17 5 24 13 24 29 0 47 43 62 75 27 23 -25 46 -25 78 0
23 18 25 24 15 50 -17 50 -5 64 50 56 46 -6 48 -5 66 29 l19 35 -29 31 c-34
35 -26 58 25 73 29 8 31 12 31 52 0 40 -2 44 -32 52 -50 13 -58 36 -24 71 l29
31 -19 35 c-18 34 -21 35 -69 33 l-50 -3 3 50 c3 49 2 51 -31 67 -34 16 -35
16 -58 -8 -38 -40 -69 -29 -83 29 -6 24 -11 27 -47 27 -29 0 -41 -5 -45 -17z
m123 -241 c67 -36 90 -146 44 -210 -81 -115 -271 -58 -271 81 0 117 121 186
227 129z"/>
</g>
</svg>
