<?xml version="1.0" standalone="no"?>
<!DOCTYPE svg PUBLIC "-//W3C//DTD SVG 20010904//EN"
 "http://www.w3.org/TR/2001/REC-SVG-20010904/DTD/svg10.dtd">
<svg version="1.0" xmlns="http://www.w3.org/2000/svg"
 width="384.000000pt" height="384.000000pt" viewBox="0 0 384.000000 384.000000"
 preserveAspectRatio="xMidYMid meet">
<metadata>
Created by potrace 1.16, written by Peter Selinger 2001-2019
</metadata>
<g transform="translate(0.000000,384.000000) scale(0.100000,-0.100000)"
fill="#000000" stroke="none">
<path d="M1803 3479 c-19 -6 -39 -22 -51 -42 -22 -35 -112 -324 -112 -357 0
-30 52 -49 174 -61 122 -12 289 0 354 26 23 9 42 20 42 24 0 21 -94 313 -113
351 -16 34 -31 48 -57 57 -41 14 -191 15 -237 2z"/>
<path d="M1436 2418 c-13 -46 -37 -123 -51 -173 -15 -49 -40 -135 -57 -190
-16 -55 -32 -107 -34 -115 -13 -43 69 -112 179 -150 355 -126 950 -67 1063
105 15 24 14 31 -19 147 -70 244 -129 433 -137 442 -4 4 -21 -1 -37 -13 -36
-26 -162 -58 -278 -69 -243 -23 -506 15 -587 85 -15 13 -19 7 -42 -69z"/>
<path d="M888 1513 c-35 -9 -32 -1 -244 -683 -116 -376 -126 -428 -85 -461 22
-18 71 -19 1367 -19 l1343 0 21 22 c11 12 20 35 20 53 0 18 -25 115 -56 216
-31 101 -64 211 -74 244 -10 33 -39 125 -64 205 -25 80 -61 198 -81 262 -51
167 -44 162 -208 166 l-136 4 6 -68 c5 -65 3 -71 -25 -111 -136 -185 -633
-276 -1082 -196 -191 33 -371 120 -427 204 -23 35 -25 46 -20 104 l6 65 -122
-1 c-67 -1 -130 -3 -139 -6z"/>
</g>
</svg>
