<?xml version="1.0" standalone="no"?>
<!DOCTYPE svg PUBLIC "-//W3C//DTD SVG 20010904//EN"
 "http://www.w3.org/TR/2001/REC-SVG-20010904/DTD/svg10.dtd">
<svg version="1.0" xmlns="http://www.w3.org/2000/svg"
 width="384.000000pt" height="384.000000pt" viewBox="0 0 384.000000 384.000000"
 preserveAspectRatio="xMidYMid meet">
<metadata>
Created by potrace 1.16, written by Peter Selinger 2001-2019
</metadata>
<g transform="translate(0.000000,384.000000) scale(0.100000,-0.100000)"
fill="#000000" stroke="none">
<path d="M1538 3551 l-33 -29 -3 -127 c-4 -138 4 -172 46 -205 46 -36 126 -18
150 35 7 16 12 78 12 161 l0 136 -29 29 c-41 41 -98 41 -143 0z"/>
<path d="M654 3186 c-33 -33 -36 -40 -31 -78 5 -36 18 -54 105 -141 92 -92
103 -100 140 -101 32 0 47 5 71 28 63 61 48 107 -76 229 -77 76 -96 89 -131
94 -38 5 -45 2 -78 -31z"/>
<path d="M2435 3201 c-43 -26 -181 -172 -190 -199 -10 -33 2 -86 24 -106 30
-28 79 -37 115 -22 17 7 70 54 119 104 80 85 87 94 87 132 0 52 -13 76 -50 95
-39 20 -69 19 -105 -4z"/>
<path d="M1460 2946 c-116 -25 -249 -93 -346 -178 -86 -76 -178 -227 -209
-343 -37 -140 -29 -316 21 -439 13 -33 23 -61 21 -62 -1 -1 -47 -12 -101 -23
-267 -54 -478 -241 -558 -495 -25 -78 -35 -259 -19 -349 25 -143 113 -302 221
-400 112 -100 228 -156 384 -184 84 -15 109 -15 184 -5 48 7 108 20 134 28
l48 15 59 -45 c127 -98 304 -174 460 -197 126 -18 325 -7 436 25 113 32 250
99 338 166 l68 51 47 -15 c26 -8 86 -20 133 -27 144 -20 314 19 456 102 131
78 253 231 309 389 25 68 27 89 28 225 1 130 -2 159 -21 220 -67 206 -234 387
-429 464 -80 31 -202 52 -287 50 l-78 -2 -82 85 c-93 96 -161 149 -262 204
-81 44 -85 48 -85 94 -1 64 -30 164 -76 259 -83 171 -251 313 -439 371 -90 28
-263 35 -355 16z m276 -210 c130 -34 271 -145 327 -256 34 -69 58 -148 46
-156 -5 -3 -46 0 -91 6 -268 37 -589 -74 -808 -279 -30 -28 -57 -51 -61 -51
-15 0 -51 121 -56 192 -18 253 148 485 389 544 71 17 191 17 254 0z m369 -631
c211 -55 399 -187 505 -354 25 -39 52 -71 60 -71 8 0 37 7 64 15 104 31 258
12 370 -48 83 -44 177 -141 217 -223 17 -37 38 -103 46 -150 12 -73 12 -95 0
-167 -21 -119 -57 -188 -147 -277 -87 -88 -156 -125 -273 -148 -107 -21 -209
-7 -313 43 l-75 36 -73 -68 c-131 -122 -274 -192 -447 -219 -250 -40 -500 42
-696 229 l-61 59 -74 -36 c-176 -85 -375 -67 -530 48 -110 80 -176 188 -204
330 -16 83 -17 93 -1 175 23 116 66 200 142 276 130 130 319 184 488 140 32
-8 64 -15 70 -15 7 0 28 26 47 58 49 80 191 220 277 271 89 53 154 78 263 102
99 22 247 19 345 -6z"/>
<path d="M324 2330 c-66 -27 -85 -120 -35 -171 l29 -29 136 0 c147 0 174 7
199 50 33 55 15 115 -43 145 -32 17 -248 21 -286 5z"/>
<path d="M2606 2325 c-42 -22 -55 -44 -56 -93 0 -36 5 -49 31 -73 l31 -29 135
0 c151 0 182 9 203 60 19 47 3 99 -39 127 -31 21 -45 23 -155 23 -89 0 -129
-4 -150 -15z"/>
</g>
</svg>
