<?xml version="1.0" standalone="no"?>
<!DOCTYPE svg PUBLIC "-//W3C//DTD SVG 20010904//EN"
 "http://www.w3.org/TR/2001/REC-SVG-20010904/DTD/svg10.dtd">
<svg version="1.0" xmlns="http://www.w3.org/2000/svg"
 width="384.000000pt" height="384.000000pt" viewBox="0 0 384.000000 384.000000"
 preserveAspectRatio="xMidYMid meet">
<metadata>
Created by potrace 1.16, written by Peter Selinger 2001-2019
</metadata>
<g transform="translate(0.000000,384.000000) scale(0.100000,-0.100000)"
fill="#000000" stroke="none">
<path d="M1756 3621 c-3 -4 -42 -11 -88 -15 -45 -4 -87 -11 -92 -15 -6 -5 -35
-12 -63 -16 -29 -4 -55 -11 -58 -15 -3 -5 -23 -11 -45 -15 -22 -4 -42 -11 -46
-16 -3 -5 -12 -9 -21 -9 -31 0 -295 -131 -334 -166 -8 -8 -19 -14 -24 -14 -4
0 -27 -16 -51 -35 -23 -19 -47 -35 -52 -35 -14 0 -292 -277 -292 -291 0 -6
-17 -31 -38 -57 -41 -52 -56 -75 -74 -112 -7 -14 -21 -38 -32 -54 -23 -35 -86
-158 -86 -169 0 -10 -24 -68 -46 -110 -8 -16 -14 -39 -14 -52 0 -13 -5 -27
-10 -30 -6 -4 -7 -11 -4 -17 4 -5 2 -20 -4 -31 -20 -43 -25 -62 -23 -98 1 -21
-2 -40 -8 -44 -6 -3 -11 -30 -11 -59 0 -29 -2 -55 -6 -58 -7 -7 -7 -329 0
-336 4 -3 6 -29 6 -58 0 -29 5 -56 11 -60 6 -3 9 -20 7 -36 -3 -16 -1 -31 4
-34 4 -3 8 -18 8 -34 0 -16 5 -32 11 -36 6 -3 9 -15 6 -25 -3 -10 -1 -22 4
-25 5 -3 9 -16 9 -29 0 -13 7 -36 14 -52 18 -33 30 -64 31 -78 1 -20 110 -231
137 -266 15 -20 28 -41 28 -46 0 -5 13 -24 30 -43 16 -19 29 -40 30 -47 0 -15
295 -313 310 -313 6 0 33 -18 59 -40 26 -22 51 -40 55 -40 5 0 25 -13 45 -28
43 -33 241 -132 264 -132 9 0 18 -4 21 -9 4 -5 24 -12 46 -16 22 -4 42 -10 45
-15 3 -4 22 -11 42 -15 21 -4 43 -10 48 -15 6 -4 35 -10 65 -14 30 -4 61 -13
69 -19 20 -17 572 -17 592 0 8 6 39 15 69 19 30 4 60 10 65 14 6 4 29 10 53
14 43 6 49 8 110 39 19 9 38 17 44 17 10 0 40 13 128 55 56 27 124 66 141 81
8 8 19 14 23 14 5 0 25 13 46 30 21 16 43 30 50 30 15 0 361 346 358 357 -2 5
14 29 35 54 20 25 37 50 37 54 0 5 11 23 26 42 14 18 22 33 19 33 -4 0 3 14
15 30 12 17 18 30 15 30 -3 0 2 12 13 27 11 16 20 30 20 33 1 12 14 46 23 60
5 8 12 22 15 30 3 8 10 23 15 33 5 10 7 22 4 27 -3 5 -1 11 5 15 5 3 10 17 10
30 0 13 5 27 10 30 6 4 8 10 5 15 -3 5 -1 11 5 15 5 3 10 21 10 40 0 19 5 37
11 41 6 3 9 20 7 36 -3 16 -1 31 4 34 4 3 8 27 8 54 0 27 5 52 10 55 6 4 10
83 10 205 0 122 -4 201 -10 205 -5 3 -10 28 -10 55 0 27 -4 51 -8 54 -5 3 -7
18 -4 34 2 16 -1 33 -7 36 -6 4 -11 20 -11 36 0 16 -5 32 -10 35 -6 4 -8 10
-5 15 3 5 1 17 -4 27 -15 28 -24 57 -22 67 1 6 -9 33 -22 60 -23 47 -38 84
-39 96 0 3 -9 17 -20 33 -11 15 -16 27 -12 27 3 0 -5 15 -20 34 -14 19 -26 39
-26 45 0 5 -12 23 -26 40 -14 17 -23 31 -19 31 4 0 -9 20 -28 44 -20 24 -34
46 -30 49 7 8 -322 337 -337 337 -6 0 -32 17 -58 38 -26 20 -60 45 -77 54 -74
41 -272 137 -295 143 -26 6 -52 17 -105 41 -16 7 -55 16 -85 20 -30 4 -59 10
-65 14 -5 5 -43 12 -83 15 -40 4 -75 12 -78 16 -7 12 -371 12 -378 0z m328
-120 c3 -4 29 -11 57 -15 28 -4 58 -11 67 -16 10 -5 38 -12 65 -15 26 -3 47
-9 47 -13 0 -4 -29 -36 -63 -70 l-64 -63 -209 -2 -209 -2 -36 28 c-20 15 -39
27 -44 27 -4 0 -24 13 -44 29 -21 16 -49 33 -64 36 -41 11 -32 23 21 30 26 3
55 10 65 16 9 5 58 12 107 16 50 3 93 10 96 15 7 11 201 11 208 -1z m-639
-325 c11 -7 36 -17 55 -21 19 -4 41 -12 49 -18 19 -16 123 -14 154 2 25 14 29
11 125 -78 55 -50 104 -91 110 -91 13 0 152 -139 152 -153 0 -5 16 -29 35 -53
19 -23 35 -46 35 -51 0 -5 20 -29 45 -53 53 -52 52 -61 -11 -136 -24 -28 -44
-55 -44 -61 0 -5 -13 -22 -30 -38 -27 -26 -63 -86 -65 -110 -1 -5 -5 -19 -9
-30 -17 -44 -19 -51 -17 -67 1 -9 -3 -19 -9 -23 -5 -3 -10 -21 -10 -39 0 -18
-3 -36 -7 -40 -4 -4 -6 -23 -4 -42 1 -19 -2 -41 -8 -48 -18 -21 -16 -157 3
-191 9 -16 16 -37 16 -45 0 -9 5 -21 12 -28 13 -13 5 -27 -11 -18 -9 6 -21 26
-62 107 -10 19 -25 41 -33 48 -9 7 -13 17 -10 22 7 12 -127 0 -140 -12 -6 -5
-24 -9 -41 -9 -19 0 -39 -8 -50 -20 -10 -11 -26 -20 -35 -20 -10 0 -21 -10
-24 -22 -9 -29 -10 -137 -2 -145 3 -4 6 -17 6 -29 0 -29 8 -34 72 -41 29 -3
58 -9 63 -13 6 -4 39 -11 75 -15 36 -4 71 -12 78 -18 8 -7 85 -13 190 -15 98
-2 182 -8 187 -13 6 -4 35 -11 65 -15 30 -4 60 -10 65 -14 6 -4 30 -10 55 -14
40 -6 56 -18 148 -109 l102 -102 0 -112 c0 -64 -4 -114 -10 -118 -5 -3 -10
-17 -10 -30 0 -13 -5 -27 -10 -30 -6 -4 -8 -10 -5 -15 3 -5 1 -17 -4 -27 -16
-30 -24 -57 -22 -72 2 -8 -2 -24 -7 -35 -6 -12 -13 -30 -17 -41 -8 -24 -9
-221 -1 -233 5 -9 -76 -90 -109 -108 -12 -6 -36 -15 -55 -18 -19 -4 -46 -12
-59 -19 -22 -11 -27 -8 -72 43 -26 30 -47 57 -46 61 1 4 -15 28 -35 53 -21 24
-38 48 -38 51 0 4 -13 24 -30 45 -16 21 -30 42 -30 46 -1 5 -11 22 -24 37 -14
18 -21 37 -19 52 3 12 0 26 -6 29 -6 4 -11 22 -11 41 0 19 -4 36 -10 40 -5 3
-7 12 -3 20 3 9 0 22 -7 30 -16 19 -15 141 0 160 7 8 10 21 7 30 -4 8 -2 17 3
20 6 4 10 21 10 40 0 19 5 37 11 41 6 3 9 20 7 36 -3 16 -1 31 4 34 4 3 8 32
8 65 l0 59 -264 0 -263 0 -110 55 c-98 49 -120 65 -197 145 -48 50 -85 94 -82
99 3 5 -1 14 -8 20 -8 7 -24 32 -35 57 -15 30 -27 44 -41 44 -21 0 -27 -19
-11 -35 5 -6 11 -35 15 -65 6 -50 5 -53 -9 -36 -8 11 -15 27 -15 36 0 9 -3 20
-7 23 -3 4 -8 17 -9 30 -5 41 -15 92 -21 107 -4 8 -5 19 -4 24 1 6 -2 19 -7
30 -9 18 -20 46 -27 66 -9 26 -20 52 -38 90 -12 25 -20 50 -19 57 1 6 -2 14
-8 18 -13 8 -13 52 1 60 6 4 9 24 8 46 -2 21 0 41 4 45 4 4 7 18 7 30 0 13 5
26 11 29 6 4 8 13 5 21 -3 7 -1 16 4 19 6 4 10 19 10 35 0 16 5 32 10 35 6 4
10 12 9 18 -1 7 2 20 6 31 5 12 2 30 -7 50 -18 35 -31 67 -32 79 -2 19 -49 56
-79 63 -18 3 -41 13 -52 20 -25 18 -54 18 -74 0 -34 -29 -58 -28 -81 4 -12 16
-18 30 -14 30 3 0 1 7 -6 15 -10 13 -10 19 4 33 9 10 16 23 16 28 0 5 27 37
60 71 52 54 66 63 107 69 27 3 53 10 58 14 6 5 33 11 60 15 28 4 55 11 60 15
6 5 28 11 50 15 22 4 45 11 50 15 6 4 30 10 55 14 24 4 49 11 55 15 26 22 143
26 170 7z m1575 -131 c24 -25 49 -45 54 -45 13 0 76 -61 76 -73 0 -5 14 -26
30 -47 17 -21 30 -41 30 -45 0 -4 14 -24 30 -45 17 -21 30 -41 30 -45 0 -4 14
-24 30 -45 17 -21 30 -41 30 -45 0 -3 12 -22 26 -41 25 -33 20 -50 -6 -19 -7
8 -18 15 -26 15 -7 0 -54 21 -104 46 l-91 47 -37 -29 c-61 -48 -89 -59 -114
-46 -13 6 -29 12 -37 14 -14 4 -20 102 -7 115 8 9 8 88 -1 97 -4 4 -6 26 -4
50 1 24 -3 53 -10 64 -7 12 -9 27 -4 38 5 11 9 21 9 24 2 9 41 59 46 60 3 0
26 -20 50 -45z m134 -594 c4 -5 30 -12 59 -16 28 -4 57 -11 62 -15 6 -4 24
-10 40 -14 17 -4 53 -17 80 -30 28 -13 63 -29 79 -35 24 -10 28 -16 24 -42 -3
-16 -1 -32 4 -35 4 -3 8 -20 8 -39 0 -19 5 -37 11 -41 6 -3 9 -15 6 -25 -3
-10 -1 -22 4 -25 10 -6 13 -267 2 -277 -3 -4 -5 -40 -4 -81 1 -41 -2 -83 -8
-93 -11 -21 -23 -53 -26 -68 0 -5 -5 -19 -9 -30 -17 -44 -19 -51 -17 -72 1
-11 -3 -24 -8 -28 -6 -3 -11 -16 -11 -28 -1 -20 -2 -20 -23 8 -12 16 -22 32
-22 35 0 3 -10 19 -23 37 -12 17 -22 34 -22 37 0 4 -10 20 -22 37 -15 20 -60
49 -126 81 -94 47 -112 60 -198 151 -52 55 -92 102 -90 105 3 3 -9 23 -27 45
-17 23 -32 44 -32 48 0 4 -3 11 -7 15 -5 4 -8 41 -8 83 l0 76 122 122 c97 97
128 123 150 123 15 0 29 -4 32 -9z"/>
</g>
</svg>
