<?xml version="1.0" standalone="no"?>
<!DOCTYPE svg PUBLIC "-//W3C//DTD SVG 20010904//EN"
 "http://www.w3.org/TR/2001/REC-SVG-20010904/DTD/svg10.dtd">
<svg version="1.0" xmlns="http://www.w3.org/2000/svg"
 width="384.000000pt" height="384.000000pt" viewBox="0 0 384.000000 384.000000"
 preserveAspectRatio="xMidYMid meet">
<metadata>
Created by potrace 1.16, written by Peter Selinger 2001-2019
</metadata>
<g transform="translate(0.000000,384.000000) scale(0.100000,-0.100000)"
fill="#000000" stroke="none">
<path d="M1514 3367 c-2 -7 -3 -76 -2 -152 l3 -140 410 0 410 0 0 150 0 150
-408 3 c-328 2 -409 0 -413 -11z"/>
<path d="M1514 2837 c-2 -7 -3 -74 -2 -148 l3 -134 413 -3 412 -2 0 150 0 150
-410 0 c-328 0 -412 -3 -416 -13z"/>
<path d="M393 2323 c-10 -3 -13 -43 -13 -148 0 -121 2 -144 16 -149 20 -8 778
-8 798 0 24 9 24 289 0 298 -19 7 -783 7 -801 -1z"/>
<path d="M1514 2317 c-2 -7 -3 -76 -2 -152 l3 -140 410 0 410 0 0 150 0 150
-408 3 c-328 2 -409 0 -413 -11z"/>
<path d="M384 1787 c-2 -7 -3 -74 -2 -148 l3 -134 413 -3 412 -2 0 150 0 150
-410 0 c-328 0 -412 -3 -416 -13z"/>
<path d="M1514 1787 c-2 -7 -3 -74 -2 -148 l3 -134 413 -3 412 -2 0 150 0 150
-410 0 c-328 0 -412 -3 -416 -13z"/>
<path d="M2640 1650 l0 -150 415 0 415 0 0 150 0 150 -415 0 -415 0 0 -150z"/>
<path d="M393 1273 c-10 -3 -13 -43 -13 -148 0 -121 2 -144 16 -149 20 -8 778
-8 798 0 24 9 24 289 0 298 -19 7 -783 7 -801 -1z"/>
<path d="M1514 1267 c-2 -7 -3 -76 -2 -152 l3 -140 410 0 410 0 0 150 0 150
-408 3 c-328 2 -409 0 -413 -11z"/>
<path d="M2653 1273 c-10 -3 -13 -43 -13 -149 0 -141 0 -144 23 -149 12 -3
198 -4 412 -3 l390 3 0 150 0 150 -400 2 c-220 1 -406 -1 -412 -4z"/>
<path d="M384 737 c-2 -7 -3 -74 -2 -148 l3 -134 413 -3 412 -2 0 150 0 150
-410 0 c-328 0 -412 -3 -416 -13z"/>
<path d="M1514 737 c-2 -7 -3 -74 -2 -148 l3 -134 413 -3 412 -2 0 150 0 150
-410 0 c-328 0 -412 -3 -416 -13z"/>
<path d="M2640 600 l0 -150 415 0 415 0 0 150 0 150 -415 0 -415 0 0 -150z"/>
</g>
</svg>
