<?xml version="1.0" standalone="no"?>
<!DOCTYPE svg PUBLIC "-//W3C//DTD SVG 20010904//EN"
 "http://www.w3.org/TR/2001/REC-SVG-20010904/DTD/svg10.dtd">
<svg version="1.0" xmlns="http://www.w3.org/2000/svg"
 width="384.000000pt" height="384.000000pt" viewBox="0 0 384.000000 384.000000"
 preserveAspectRatio="xMidYMid meet">
<metadata>
Created by potrace 1.16, written by Peter Selinger 2001-2019
</metadata>
<g transform="translate(0.000000,384.000000) scale(0.100000,-0.100000)"
fill="#000000" stroke="none">
<path d="M1615 2984 c-367 -56 -716 -201 -995 -413 -111 -84 -230 -190 -230
-205 0 -13 331 -346 344 -346 4 0 32 22 61 48 465 425 1143 553 1735 327 196
-75 349 -169 534 -329 l57 -50 176 176 176 176 -34 32 c-343 322 -744 516
-1210 584 -135 20 -485 20 -614 0z m594 -150 c303 -45 568 -143 816 -302 78
-50 225 -161 225 -170 0 -9 -123 -132 -132 -132 -4 0 -42 26 -85 59 -656 493
-1579 491 -2217 -5 -38 -30 -72 -54 -76 -54 -3 0 -35 30 -70 66 l-65 66 45 39
c118 105 382 256 563 323 120 45 300 91 427 110 133 20 436 20 569 0z"/>
<path d="M1670 2200 c-242 -45 -510 -176 -671 -328 l-64 -61 146 -146 145
-146 68 56 c194 158 387 228 636 227 112 0 152 -5 235 -26 154 -40 290 -110
411 -212 l50 -43 144 144 c164 165 160 150 64 229 -193 158 -405 258 -650 306
-137 26 -375 26 -514 0z"/>
<path d="M1803 1500 c-108 -20 -251 -91 -342 -170 l-25 -21 245 -245 244 -244
243 242 c133 133 242 246 242 250 0 12 -117 96 -170 123 -122 62 -304 89 -437
65z"/>
</g>
</svg>
