<?xml version="1.0" standalone="no"?>
<!DOCTYPE svg PUBLIC "-//W3C//DTD SVG 20010904//EN"
 "http://www.w3.org/TR/2001/REC-SVG-20010904/DTD/svg10.dtd">
<svg version="1.0" xmlns="http://www.w3.org/2000/svg"
 width="384.000000pt" height="384.000000pt" viewBox="0 0 384.000000 384.000000"
 preserveAspectRatio="xMidYMid meet">
<metadata>
Created by potrace 1.16, written by Peter Selinger 2001-2019
</metadata>
<g transform="translate(0.000000,384.000000) scale(0.100000,-0.100000)"
fill="#000000" stroke="none">
<path d="M994 3446 c-5 -12 61 -244 101 -361 8 -22 28 -87 45 -145 18 -58 38
-122 46 -143 11 -28 14 -96 14 -282 0 -224 1 -244 18 -248 15 -4 90 -3 145 2
16 1 17 19 17 229 l0 229 34 114 c19 63 51 168 71 234 21 66 43 140 51 165 7
25 20 70 30 100 9 30 17 69 18 85 l1 30 -82 3 c-70 2 -83 0 -91 -15 -5 -10
-28 -94 -51 -188 -24 -93 -47 -187 -53 -209 -5 -21 -13 -35 -18 -30 -4 5 -31
99 -60 209 -29 110 -56 208 -61 218 -8 14 -24 17 -90 17 -59 0 -81 -4 -85 -14z"/>
<path d="M1709 3122 c-39 -20 -62 -41 -84 -77 l-30 -48 0 -301 c0 -299 0 -301
24 -343 42 -73 102 -103 208 -103 102 0 170 39 216 125 21 38 22 56 25 298 4
288 -3 333 -58 399 -68 82 -198 104 -301 50z m167 -163 c18 -20 19 -39 19
-264 0 -225 -1 -244 -19 -264 -25 -28 -61 -27 -91 4 l-25 24 0 238 c0 200 3
242 16 261 20 29 74 30 100 1z"/>
<path d="M2206 3135 c-11 -29 -7 -731 5 -784 25 -118 139 -134 248 -36 42 39
51 37 51 -11 0 -38 5 -40 90 -39 l65 0 3 443 2 442 -80 0 -80 0 0 -336 0 -335
-32 -30 c-40 -36 -61 -43 -87 -29 -20 10 -21 21 -23 368 l-3 357 -76 3 c-63 2
-78 0 -83 -13z"/>
<path d="M871 2054 c-104 -28 -192 -100 -244 -199 l-32 -60 0 -575 0 -575 27
-57 c37 -79 98 -142 177 -181 l66 -32 1065 0 1065 0 56 27 c76 38 159 127 190
203 l24 60 0 545 c0 504 -1 549 -19 600 -35 106 -114 188 -226 233 l-55 22
-1020 2 c-870 2 -1028 0 -1074 -13z m527 -351 l-3 -78 -87 -3 -88 -3 -2 -482
-3 -482 -82 -3 -83 -3 -2 483 -3 483 -87 3 -88 3 0 79 0 80 265 0 266 0 -3
-77z m752 -98 c0 -96 4 -175 8 -175 5 0 17 9 27 20 9 10 36 27 60 35 81 31
161 -14 185 -106 7 -26 10 -148 8 -342 -3 -266 -5 -306 -21 -334 -21 -40 -64
-63 -114 -63 -39 0 -115 30 -127 49 -12 19 -26 12 -26 -14 0 -24 -2 -25 -75
-25 l-75 0 0 565 0 565 75 0 75 0 0 -175z m759 -125 c86 -43 113 -118 109
-301 l-3 -124 -145 -5 -145 -5 0 -118 c0 -113 1 -120 24 -138 58 -47 104 -10
111 90 l5 66 75 0 75 0 -1 -71 c-1 -168 -85 -251 -244 -242 -90 5 -137 35
-177 115 l-28 58 -3 237 c-3 196 -1 247 12 293 19 62 62 117 115 145 51 27
168 27 220 0z m-1359 -6 c6 -6 11 -150 12 -344 l3 -335 28 -3 c19 -2 40 5 62
23 l35 26 2 322 3 322 55 1 c100 3 90 48 90 -422 l0 -414 -75 0 -75 0 0 41 c0
41 0 41 -22 25 -82 -59 -102 -69 -146 -73 -58 -6 -96 20 -112 75 -15 57 -14
759 3 765 22 7 128 0 137 -9z"/>
<path d="M2172 1344 c-22 -15 -22 -18 -22 -274 l0 -259 26 -20 c30 -23 74 -27
92 -9 9 9 12 85 12 278 0 246 -1 268 -18 283 -23 21 -61 22 -90 1z"/>
<path d="M2740 1333 c-17 -22 -20 -38 -18 -92 l3 -66 65 0 65 0 0 78 c0 66 -3
81 -19 93 -32 23 -72 17 -96 -13z"/>
</g>
</svg>
